METRIC,LZ
M48
T1F00S00C1.00
%
T01
X00585Y-003157
Y-003607
X0065
Y-003157
X0083Y-00315
Y-0036
X00895
Y-00315
X0094Y-003074
Y-003328
X009654
Y-003074
Y-00282
X0094
Y-002566
X009654
Y-002312
X0094
Y-002058
X009654
Y-001804
X0094
Y-00155
X009654
Y-001296
X0094
Y-001042
X009654
M30
