%FSLAX42Y42*%
%MOMM*%
G71*
G01*
G75*
%ADD10C,0.50*%
%ADD11R,1.50X1.30*%
%ADD12R,1.80X1.60*%
%ADD13C,1.50*%
%ADD14R,1.50X1.50*%
%ADD15C,0.40*%
%ADD16C,0.30*%
%ADD17C,1.00*%
%ADD18C,0.25*%
%ADD19R,0.63X1.86*%
%ADD20R,0.25X0.36*%
%ADD21C,0.80*%
%ADD22C,0.20*%
%ADD23C,0.60*%
D11*
X10000Y-2845D02*
D03*
Y-2655D02*
D03*
Y-3340D02*
D03*
Y-3150D02*
D03*
D12*
X6207Y-884D02*
D03*
Y-1164D02*
D03*
X7150Y-3251D02*
D03*
Y-3531D02*
D03*
X7775Y-3530D02*
D03*
X500Y-1164D02*
D03*
Y-884D02*
D03*
X4000Y-1164D02*
D03*
Y-884D02*
D03*
X4500Y-1164D02*
D03*
Y-884D02*
D03*
X5707Y-1164D02*
D03*
Y-884D02*
D03*
X6707Y-1164D02*
D03*
Y-884D02*
D03*
X7207Y-1164D02*
D03*
Y-884D02*
D03*
X7707Y-1164D02*
D03*
Y-884D02*
D03*
X8207Y-1164D02*
D03*
Y-884D02*
D03*
X8707Y-1164D02*
D03*
Y-884D02*
D03*
X9150Y-1175D02*
D03*
Y-895D02*
D03*
X7775Y-3250D02*
D03*
D13*
X6500Y-3607D02*
D03*
X5850D02*
D03*
X6500Y-3157D02*
D03*
X5850D02*
D03*
X8950Y-3150D02*
D03*
X8300D02*
D03*
Y-3600D02*
D03*
X8950D02*
D03*
X9654Y-3328D02*
D03*
X9400Y-2820D02*
D03*
X9654Y-2566D02*
D03*
X9400D02*
D03*
X9654Y-2312D02*
D03*
X9400D02*
D03*
X9654Y-2058D02*
D03*
X9400D02*
D03*
X9654Y-1804D02*
D03*
X9400D02*
D03*
X9654Y-1550D02*
D03*
X9400D02*
D03*
X9654Y-1296D02*
D03*
X9400D02*
D03*
X9654Y-1042D02*
D03*
X9400D02*
D03*
Y-3074D02*
D03*
X9654D02*
D03*
Y-2820D02*
D03*
D14*
X9400Y-3328D02*
D03*
M02*
