%FSLAX42Y42*%
%MOMM*%
G71*
G01*
G75*
G04 Layer_Physical_Order=1*
%ADD10C,0.50*%
%ADD11R,1.50X1.30*%
%ADD12R,1.80X1.60*%
%ADD13C,1.50*%
%ADD14R,1.50X1.50*%
%ADD15C,0.40*%
%ADD16C,0.30*%
%ADD17C,1.00*%
%ADD18C,0.25*%
%ADD19R,0.63X1.86*%
%ADD20R,0.25X0.36*%
D10*
X7325Y-3765D02*
G03*
X7371Y-3746I0J65D01*
G01*
X50Y-4100D02*
X100Y-4150D01*
X50Y-4050D02*
X150Y-4150D01*
X50Y-4000D02*
X200Y-4150D01*
X50Y-3950D02*
X250Y-4150D01*
X50Y-3900D02*
X300Y-4150D01*
X50Y-3850D02*
X350Y-4150D01*
X50Y-3800D02*
X400Y-4150D01*
X50Y-3750D02*
X450Y-4150D01*
X50Y-3700D02*
X500Y-4150D01*
X50Y-3650D02*
X550Y-4150D01*
X50Y-3600D02*
X600Y-4150D01*
X50Y-3550D02*
X650Y-4150D01*
X50Y-3500D02*
X700Y-4150D01*
X50Y-3450D02*
X750Y-4150D01*
X50Y-3400D02*
X800Y-4150D01*
X50Y-3350D02*
X850Y-4150D01*
X50Y-3300D02*
X900Y-4150D01*
X50Y-3250D02*
X950Y-4150D01*
X50Y-3200D02*
X1000Y-4150D01*
X50Y-3150D02*
X1050Y-4150D01*
X50Y-3100D02*
X1100Y-4150D01*
X50Y-3050D02*
X1150Y-4150D01*
X50Y-3000D02*
X1200Y-4150D01*
X50Y-2950D02*
X1250Y-4150D01*
X50Y-2900D02*
X1300Y-4150D01*
X50Y-2850D02*
X1350Y-4150D01*
X50Y-2800D02*
X1400Y-4150D01*
X50Y-2750D02*
X1450Y-4150D01*
X50Y-2700D02*
X1500Y-4150D01*
X50Y-2650D02*
X1550Y-4150D01*
X50Y-2600D02*
X1600Y-4150D01*
X50Y-2550D02*
X1650Y-4150D01*
X50Y-2500D02*
X1700Y-4150D01*
X50Y-2450D02*
X1750Y-4150D01*
X50Y-2400D02*
X1800Y-4150D01*
X50Y-2350D02*
X1850Y-4150D01*
X50Y-2300D02*
X1900Y-4150D01*
X50Y-2250D02*
X1950Y-4150D01*
X50Y-2200D02*
X2000Y-4150D01*
X50Y-2150D02*
X2050Y-4150D01*
X50Y-2100D02*
X2100Y-4150D01*
X50Y-2050D02*
X2150Y-4150D01*
X50Y-2000D02*
X2200Y-4150D01*
X50Y-1950D02*
X2250Y-4150D01*
X50Y-1900D02*
X2300Y-4150D01*
X50Y-1850D02*
X2350Y-4150D01*
X50Y-1800D02*
X2400Y-4150D01*
X50Y-1750D02*
X2450Y-4150D01*
X50Y-1700D02*
X2500Y-4150D01*
X50D02*
Y-1600D01*
Y-1650D02*
X2550Y-4150D01*
X50Y-1600D02*
X2600Y-4150D01*
X100Y-1600D02*
X2650Y-4150D01*
X150Y-1600D02*
X2700Y-4150D01*
X200Y-1600D02*
X2750Y-4150D01*
X250Y-1600D02*
X2800Y-4150D01*
X300Y-1600D02*
X2850Y-4150D01*
X350Y-1600D02*
X2900Y-4150D01*
X400Y-1600D02*
X2950Y-4150D01*
X450Y-1600D02*
X3000Y-4150D01*
X500Y-1600D02*
X3050Y-4150D01*
X550Y-1600D02*
X3100Y-4150D01*
X600Y-1600D02*
X3150Y-4150D01*
X650Y-1600D02*
X3200Y-4150D01*
X700Y-1600D02*
X3250Y-4150D01*
X750Y-1600D02*
X3300Y-4150D01*
X800Y-1600D02*
X3350Y-4150D01*
X850Y-1600D02*
X3400Y-4150D01*
X875Y-1575D02*
X3450Y-4150D01*
X1390D02*
X3965Y-1575D01*
X1440Y-4150D02*
X4015Y-1575D01*
X1490Y-4150D02*
X4065Y-1575D01*
X1540Y-4150D02*
X4115Y-1575D01*
X1590Y-4150D02*
X4165Y-1575D01*
X1640Y-4150D02*
X4215Y-1575D01*
X1690Y-4150D02*
X4265Y-1575D01*
X1740Y-4150D02*
X4315Y-1575D01*
X1790Y-4150D02*
X4365Y-1575D01*
X1840Y-4150D02*
X4415Y-1575D01*
X1890Y-4150D02*
X4465Y-1575D01*
X1940Y-4150D02*
X4515Y-1575D01*
X1990Y-4150D02*
X4565Y-1575D01*
X340Y-4150D02*
X3420Y-1070D01*
X390Y-4150D02*
X3445Y-1095D01*
X440Y-4150D02*
X3470Y-1120D01*
X490Y-4150D02*
X3495Y-1145D01*
X900Y-1550D02*
X3500Y-4150D01*
X90D02*
X3190Y-1050D01*
X140Y-4150D02*
X3240Y-1050D01*
X190Y-4150D02*
X3290Y-1050D01*
X240Y-4150D02*
X3340Y-1050D01*
X290Y-4150D02*
X3390Y-1050D01*
X790Y-4150D02*
X3645Y-1295D01*
X840Y-4150D02*
X3670Y-1320D01*
X890Y-4150D02*
X3695Y-1345D01*
X925Y-1525D02*
X3550Y-4150D01*
X940D02*
X3720Y-1370D01*
X540Y-4150D02*
X3520Y-1170D01*
X590Y-4150D02*
X3545Y-1195D01*
X640Y-4150D02*
X3570Y-1220D01*
X690Y-4150D02*
X3595Y-1245D01*
X740Y-4150D02*
X3620Y-1270D01*
X50Y-3940D02*
X2940Y-1050D01*
X50Y-3890D02*
X2890Y-1050D01*
X950Y-1500D02*
X3600Y-4150D01*
X975Y-1475D02*
X3650Y-4150D01*
X1000Y-1450D02*
X3700Y-4150D01*
X50Y-4040D02*
X3040Y-1050D01*
X50Y-3990D02*
X2990Y-1050D01*
X50Y-4140D02*
X3140Y-1050D01*
X50Y-4090D02*
X3090Y-1050D01*
X50Y-4140D02*
X3140Y-1050D01*
X1025Y-1425D02*
X3750Y-4150D01*
X1040D02*
X3770Y-1420D01*
X1050Y-1400D02*
X3800Y-4150D01*
X1090D02*
X3795Y-1445D01*
X1140Y-4150D02*
X3820Y-1470D01*
X990Y-4150D02*
X3745Y-1395D01*
X1075Y-1375D02*
X3850Y-4150D01*
X1100Y-1350D02*
X3900Y-4150D01*
X1125Y-1325D02*
X3950Y-4150D01*
X1150Y-1300D02*
X4000Y-4150D01*
X1175Y-1275D02*
X4050Y-4150D01*
X1190D02*
X3845Y-1495D01*
X1200Y-1250D02*
X4100Y-4150D01*
X1240D02*
X3870Y-1520D01*
X1290Y-4150D02*
X3895Y-1545D01*
X1340Y-4150D02*
X3920Y-1570D01*
X1225Y-1225D02*
X4150Y-4150D01*
X1250Y-1200D02*
X4200Y-4150D01*
X1275Y-1175D02*
X4250Y-4150D01*
X1300Y-1150D02*
X4300Y-4150D01*
X1325Y-1125D02*
X4350Y-4150D01*
X1350Y-1100D02*
X4400Y-4150D01*
X1375Y-1075D02*
X4450Y-4150D01*
X1400Y-1050D02*
X4500Y-4150D01*
X1450Y-1050D02*
X4550Y-4150D01*
X1500Y-1050D02*
X4600Y-4150D01*
X1550Y-1050D02*
X4650Y-4150D01*
X1600Y-1050D02*
X4700Y-4150D01*
X1650Y-1050D02*
X4750Y-4150D01*
X1700Y-1050D02*
X4800Y-4150D01*
X1750Y-1050D02*
X4850Y-4150D01*
X1800Y-1050D02*
X4900Y-4150D01*
X2040D02*
X4615Y-1575D01*
X2090Y-4150D02*
X4665Y-1575D01*
X2140Y-4150D02*
X4715Y-1575D01*
X2190Y-4150D02*
X4765Y-1575D01*
X2240Y-4150D02*
X4815Y-1575D01*
X1850Y-1050D02*
X4950Y-4150D01*
X1900Y-1050D02*
X5000Y-4150D01*
X2290D02*
X4865Y-1575D01*
X2340Y-4150D02*
X4915Y-1575D01*
X2390Y-4150D02*
X4965Y-1575D01*
X2440Y-4150D02*
X5015Y-1575D01*
X2490Y-4150D02*
X5065Y-1575D01*
X2540Y-4150D02*
X5115Y-1575D01*
X2590Y-4150D02*
X5165Y-1575D01*
X2640Y-4150D02*
X5215Y-1575D01*
X1950Y-1050D02*
X5050Y-4150D01*
X2000Y-1050D02*
X5100Y-4150D01*
X2050Y-1050D02*
X5150Y-4150D01*
X2100Y-1050D02*
X5200Y-4150D01*
X2150Y-1050D02*
X5250Y-4150D01*
X2690D02*
X5265Y-1575D01*
X5340Y-4150D02*
X5777Y-3713D01*
X5390Y-4150D02*
X5813Y-3727D01*
X5440Y-4150D02*
X5863Y-3727D01*
X5490Y-4150D02*
X5938Y-3702D01*
X5540Y-4150D02*
X5988Y-3702D01*
X5590Y-4150D02*
X6038Y-3702D01*
X5640Y-4150D02*
X6088Y-3702D01*
X5690Y-4150D02*
X6138Y-3702D01*
X5740Y-4150D02*
X6188Y-3702D01*
X5790Y-4150D02*
X6238Y-3702D01*
X50Y-4150D02*
X10150D01*
X5827Y-3727D02*
X6250Y-4150D01*
X5877Y-3727D02*
X6300Y-4150D01*
X5918Y-3718D02*
X6350Y-4150D01*
X5990D02*
X6427Y-3713D01*
X5840Y-4150D02*
X6288Y-3702D01*
X5890Y-4150D02*
X6338Y-3702D01*
X5940Y-4150D02*
X6388Y-3702D01*
X5952D02*
X6400Y-4150D01*
X6002Y-3702D02*
X6450Y-4150D01*
X6140D02*
X6543Y-3747D01*
X6190Y-4150D02*
X6568Y-3772D01*
X6240Y-4150D02*
X6593Y-3797D01*
X6290Y-4150D02*
X6618Y-3822D01*
X6340Y-4150D02*
X6643Y-3847D01*
X6040Y-4150D02*
X6463Y-3727D01*
X6052Y-3702D02*
X6500Y-4150D01*
X6090D02*
X6513Y-3727D01*
X6102Y-3702D02*
X6550Y-4150D01*
X6152Y-3702D02*
X6600Y-4150D01*
X6590D02*
X6768Y-3972D01*
X6640Y-4150D02*
X6793Y-3997D01*
X6690Y-4150D02*
X6825Y-4015D01*
X6778Y-3983D02*
X6811Y-4015D01*
X6740Y-4150D02*
X6875Y-4015D01*
X6390Y-4150D02*
X6668Y-3872D01*
X6440Y-4150D02*
X6693Y-3897D01*
X6477Y-3727D02*
X6900Y-4150D01*
X6490D02*
X6718Y-3922D01*
X6540Y-4150D02*
X6743Y-3947D01*
X6522Y-3727D02*
X6778Y-3983D01*
X6790Y-4150D02*
X6925Y-4015D01*
X6815D02*
X6950Y-4150D01*
X6840D02*
X6975Y-4015D01*
X6865D02*
X7000Y-4150D01*
X6890D02*
X7025Y-4015D01*
X6915D02*
X7050Y-4150D01*
X6940D02*
X7075Y-4015D01*
X6965D02*
X7100Y-4150D01*
X6990D02*
X7125Y-4015D01*
X7015D02*
X7150Y-4150D01*
X7040D02*
X7175Y-4015D01*
X7065D02*
X7200Y-4150D01*
X7090D02*
X7225Y-4015D01*
X7115D02*
X7250Y-4150D01*
X7140D02*
X7275Y-4015D01*
X7165D02*
X7300Y-4150D01*
X7190D02*
X7325Y-4015D01*
X7215D02*
X7350Y-4150D01*
X7240D02*
X7375Y-4015D01*
X7265D02*
X7400Y-4150D01*
X7290D02*
X7425Y-4015D01*
X6778Y-3983D02*
X6811Y-4015D01*
X6876D01*
X6811D02*
X6876D01*
X6905Y-3885D02*
X7025Y-3765D01*
X6955Y-3885D02*
X7075Y-3765D01*
X7005Y-3885D02*
X7125Y-3765D01*
X7055Y-3885D02*
X7175Y-3765D01*
X7065D02*
X7185Y-3885D01*
X7105D02*
X7225Y-3765D01*
X7115D02*
X7235Y-3885D01*
X7315Y-4015D02*
X7450Y-4150D01*
X7340D02*
X7475Y-4015D01*
X7365D02*
X7500Y-4150D01*
X7390D02*
X7525Y-4015D01*
X7415D02*
X7550Y-4150D01*
X7440D02*
X7575Y-4015D01*
X6876D02*
X9071D01*
X6876Y-3885D02*
X9071D01*
X7465Y-4015D02*
X7600Y-4150D01*
X7490D02*
X7625Y-4015D01*
X7515D02*
X7650Y-4150D01*
X2740D02*
X5315Y-1575D01*
X2790Y-4150D02*
X5365Y-1575D01*
X2840Y-4150D02*
X5415Y-1575D01*
X2890Y-4150D02*
X5465Y-1575D01*
X2940Y-4150D02*
X5515Y-1575D01*
X2200Y-1050D02*
X5300Y-4150D01*
X2250Y-1050D02*
X5350Y-4150D01*
X2300Y-1050D02*
X5400Y-4150D01*
X2350Y-1050D02*
X5450Y-4150D01*
X2400Y-1050D02*
X5500Y-4150D01*
X2450Y-1050D02*
X5550Y-4150D01*
X2500Y-1050D02*
X5600Y-4150D01*
X2550Y-1050D02*
X5650Y-4150D01*
X2600Y-1050D02*
X5700Y-4150D01*
X2650Y-1050D02*
X5750Y-4150D01*
X2700Y-1050D02*
X5800Y-4150D01*
X2750Y-1050D02*
X5850Y-4150D01*
X2800Y-1050D02*
X5900Y-4150D01*
X2850Y-1050D02*
X5950Y-4150D01*
X2900Y-1050D02*
X6000Y-4150D01*
X3240D02*
X5707Y-1683D01*
X3290Y-4150D02*
X5732Y-1708D01*
X3340Y-4150D02*
X5757Y-1732D01*
X3390Y-4150D02*
X5782Y-1757D01*
X3440Y-4150D02*
X5807Y-1782D01*
X2990Y-4150D02*
X5565Y-1575D01*
X3040Y-4150D02*
X5607Y-1582D01*
X3090Y-4150D02*
X5632Y-1608D01*
X3140Y-4150D02*
X5657Y-1633D01*
X3190Y-4150D02*
X5682Y-1658D01*
X3590Y-4150D02*
X5882Y-1857D01*
X3640Y-4150D02*
X5907Y-1882D01*
X3690Y-4150D02*
X5932Y-1907D01*
X3740Y-4150D02*
X5957Y-1932D01*
X3790Y-4150D02*
X5982Y-1957D01*
X2950Y-1050D02*
X6050Y-4150D01*
X3000Y-1050D02*
X6100Y-4150D01*
X3050Y-1050D02*
X6150Y-4150D01*
X3100Y-1050D02*
X6200Y-4150D01*
X3490D02*
X5832Y-1807D01*
X3540Y-4150D02*
X5857Y-1832D01*
X3890Y-4150D02*
X6040Y-2000D01*
X4690Y-4150D02*
X5730Y-3110D01*
X4740Y-4150D02*
X5730Y-3160D01*
X4790Y-4150D02*
X5730Y-3210D01*
X4840Y-4150D02*
X5752Y-3238D01*
X3840Y-4150D02*
X6007Y-1982D01*
X3940Y-4150D02*
X6090Y-2000D01*
X3990Y-4150D02*
X6140Y-2000D01*
X4040Y-4150D02*
X6190Y-2000D01*
X4090Y-4150D02*
X6240Y-2000D01*
X4140Y-4150D02*
X6290Y-2000D01*
X4190Y-4150D02*
X6340Y-2000D01*
X4240Y-4150D02*
X6390Y-2000D01*
X4290Y-4150D02*
X6440Y-2000D01*
X4340Y-4150D02*
X6490Y-2000D01*
X4390Y-4150D02*
X6540Y-2000D01*
X4440Y-4150D02*
X6590Y-2000D01*
X4490Y-4150D02*
X6640Y-2000D01*
X4540Y-4150D02*
X6690Y-2000D01*
X4590Y-4150D02*
X6740Y-2000D01*
X4640Y-4150D02*
X6790Y-2000D01*
X5240Y-4150D02*
X5730Y-3660D01*
X5290Y-4150D02*
X5752Y-3688D01*
X6202Y-3702D02*
X6650Y-4150D01*
X6252Y-3702D02*
X6700Y-4150D01*
X6302Y-3702D02*
X6750Y-4150D01*
X4890D02*
X5777Y-3263D01*
X4940Y-4150D02*
X5813Y-3277D01*
X4990Y-4150D02*
X5863Y-3277D01*
X5140Y-4150D02*
X5730Y-3560D01*
X5190Y-4150D02*
X5730Y-3610D01*
X6352Y-3702D02*
X6800Y-4150D01*
X6402Y-3702D02*
X6850Y-4150D01*
X6620Y-3629D02*
X6876Y-3885D01*
X6620Y-3620D02*
X6885Y-3885D01*
X6620Y-3570D02*
X6935Y-3885D01*
X5040Y-4150D02*
X7190Y-2000D01*
X4675Y-1575D02*
X6985Y-3885D01*
X4725Y-1575D02*
X7035Y-3885D01*
X5090Y-4150D02*
X7240Y-2000D01*
X6477Y-3277D02*
X7085Y-3885D01*
X6527Y-3277D02*
X7135Y-3885D01*
X5730Y-3667D02*
X5790Y-3727D01*
X5730Y-3667D02*
Y-3547D01*
X5790Y-3727D02*
X5910D01*
X5730Y-3547D02*
X5790Y-3487D01*
X5910Y-3727D02*
X5935Y-3702D01*
X5827Y-3277D02*
X6062Y-3512D01*
X5877Y-3277D02*
X6112Y-3512D01*
X5910Y-3487D02*
X5935Y-3512D01*
X5918Y-3268D02*
X6162Y-3512D01*
X5943Y-3243D02*
X6212Y-3512D01*
X5935Y-3702D02*
X6415D01*
X5935Y-3512D02*
X6415D01*
X5968Y-3218D02*
X6262Y-3512D01*
X6128D02*
X6402Y-3238D01*
X6178Y-3512D02*
X6427Y-3263D01*
X5970Y-3170D02*
X6312Y-3512D01*
X5970Y-3120D02*
X6362Y-3512D01*
X5978D02*
X6380Y-3110D01*
X6028Y-3512D02*
X6380Y-3160D01*
X6078Y-3512D02*
X6380Y-3210D01*
X5730Y-3217D02*
X5790Y-3277D01*
Y-3487D02*
X5910D01*
X5790Y-3277D02*
X5910D01*
X5730Y-3217D02*
Y-3097D01*
X5790Y-3037D01*
X5910D01*
Y-3277D02*
X5970Y-3217D01*
Y-3097D01*
X6228Y-3512D02*
X6463Y-3277D01*
X6380Y-3217D02*
X6440Y-3277D01*
X6278Y-3512D02*
X6513Y-3277D01*
X5803Y-3037D02*
X6840Y-2000D01*
X5853Y-3037D02*
X6890Y-2000D01*
X5903Y-3037D02*
X6940Y-2000D01*
X6380Y-3217D02*
Y-3097D01*
X5910Y-3037D02*
X5970Y-3097D01*
X6380D02*
X6440Y-3037D01*
X6415Y-3702D02*
X6440Y-3727D01*
X6522D01*
X6715Y-3725D02*
X6860Y-3580D01*
X6620Y-3629D02*
Y-3547D01*
X6860Y-3608D02*
Y-3542D01*
X6620Y-3620D02*
X6860Y-3380D01*
X6560Y-3487D02*
X6620Y-3547D01*
X6690Y-3700D02*
X6860Y-3530D01*
X6665Y-3675D02*
X6860Y-3480D01*
X6640Y-3650D02*
X6860Y-3430D01*
X6765Y-3775D02*
X6896Y-3644D01*
X6740Y-3750D02*
X6871Y-3619D01*
X6840Y-3850D02*
X6971Y-3719D01*
X6790Y-3800D02*
X6921Y-3669D01*
X6815Y-3825D02*
X6946Y-3694D01*
X6620Y-3570D02*
X6860Y-3330D01*
X6568Y-3268D02*
X6860Y-3560D01*
Y-3608D02*
X6893Y-3640D01*
X6860Y-3608D02*
Y-3542D01*
Y-3608D02*
X6893Y-3640D01*
X6415Y-3512D02*
X6440Y-3487D01*
X6560D01*
X6440Y-3277D02*
X6560D01*
X6620Y-3217D01*
X6440Y-3037D02*
X6560D01*
X6620Y-3217D02*
Y-3097D01*
X6860Y-3542D02*
Y-3383D01*
Y-3317D01*
Y-3383D02*
Y-3317D01*
X6893Y-3285D01*
X6860Y-3317D02*
X6893Y-3285D01*
X6593Y-3243D02*
X6860Y-3510D01*
X6560Y-3037D02*
X6620Y-3097D01*
X6618Y-3218D02*
X6860Y-3460D01*
X6620Y-3170D02*
X6860Y-3410D01*
X6620Y-3120D02*
X6860Y-3360D01*
X6893Y-3285D02*
X6959Y-3219D01*
X50Y-2690D02*
X1690Y-1050D01*
X50Y-2640D02*
X1640Y-1050D01*
X50Y-2840D02*
X1840Y-1050D01*
X50Y-2740D02*
X1740Y-1050D01*
X50Y-2790D02*
X1790Y-1050D01*
X50Y-2940D02*
X1940Y-1050D01*
X50Y-2890D02*
X1890Y-1050D01*
X50Y-3090D02*
X2090Y-1050D01*
X50Y-2990D02*
X1990Y-1050D01*
X50Y-3040D02*
X2040Y-1050D01*
X50Y-3190D02*
X2190Y-1050D01*
X50Y-3140D02*
X2140Y-1050D01*
X50Y-3340D02*
X2340Y-1050D01*
X50Y-3240D02*
X2240Y-1050D01*
X50Y-3290D02*
X2290Y-1050D01*
X50Y-3440D02*
X2440Y-1050D01*
X50Y-3390D02*
X2390Y-1050D01*
X50Y-3590D02*
X2590Y-1050D01*
X50Y-3490D02*
X2490Y-1050D01*
X50Y-3540D02*
X2540Y-1050D01*
X50Y-1690D02*
X140Y-1600D01*
X50Y-1640D02*
X90Y-1600D01*
X50Y-1840D02*
X290Y-1600D01*
X50Y-1740D02*
X190Y-1600D01*
X50Y-1790D02*
X240Y-1600D01*
X50Y-1940D02*
X390Y-1600D01*
X50Y-1890D02*
X340Y-1600D01*
X50Y-2090D02*
X540Y-1600D01*
X50Y-1990D02*
X440Y-1600D01*
X50Y-2040D02*
X490Y-1600D01*
X50Y-2190D02*
X640Y-1600D01*
X50Y-2140D02*
X590Y-1600D01*
X50Y-2340D02*
X790Y-1600D01*
X50Y-2240D02*
X690Y-1600D01*
X50Y-2290D02*
X740Y-1600D01*
X50Y-2440D02*
X1440Y-1050D01*
X50Y-2390D02*
X840Y-1600D01*
X50D02*
X850D01*
X50Y-2590D02*
X1590Y-1050D01*
X50Y-2490D02*
X1490Y-1050D01*
X50Y-2540D02*
X1540Y-1050D01*
X50Y-3690D02*
X2690Y-1050D01*
X50Y-3640D02*
X2640Y-1050D01*
X50Y-3840D02*
X2840Y-1050D01*
X50Y-3740D02*
X2740Y-1050D01*
X50Y-3790D02*
X2790Y-1050D01*
X3150D02*
X5730Y-3630D01*
X3200Y-1050D02*
X5730Y-3580D01*
X3250Y-1050D02*
X5738Y-3538D01*
X3300Y-1050D02*
X5763Y-3513D01*
X3350Y-1050D02*
X5788Y-3488D01*
X4025Y-1575D02*
X5962Y-3512D01*
X3975Y-1575D02*
X5887Y-3487D01*
X4075Y-1575D02*
X6012Y-3512D01*
X4475Y-1575D02*
X6412Y-3512D01*
X4525Y-1575D02*
X6438Y-3488D01*
X3400Y-1050D02*
X5837Y-3487D01*
X4575Y-1575D02*
X6487Y-3487D01*
X4625Y-1575D02*
X6537Y-3487D01*
X5125Y-1575D02*
X6864Y-3314D01*
X5175Y-1575D02*
X6889Y-3289D01*
X5225Y-1575D02*
X6914Y-3264D01*
X4125Y-1575D02*
X5730Y-3180D01*
X3925Y-1575D02*
X5600D01*
X4175D02*
X5730Y-3130D01*
X4225Y-1575D02*
X5738Y-3088D01*
X4275Y-1575D02*
X5763Y-3063D01*
X850Y-1600D02*
X1400Y-1050D01*
X3400D01*
X4325Y-1575D02*
X5788Y-3038D01*
X3400Y-1050D02*
X3925Y-1575D01*
X4375D02*
X5837Y-3037D01*
X4775Y-1575D02*
X6380Y-3180D01*
X4425Y-1575D02*
X5887Y-3037D01*
X4825Y-1575D02*
X6380Y-3130D01*
X5600Y-1575D02*
X6025Y-2000D01*
X4875Y-1575D02*
X6388Y-3088D01*
X4925Y-1575D02*
X6413Y-3063D01*
X4975Y-1575D02*
X6438Y-3038D01*
X5025Y-1575D02*
X6487Y-3037D01*
X5275Y-1575D02*
X6939Y-3239D01*
X5075Y-1575D02*
X6537Y-3037D01*
X5325Y-1575D02*
X6964Y-3214D01*
X6865Y-3875D02*
X6996Y-3744D01*
X6893Y-3640D02*
X6985Y-3733D01*
X7018Y-3765D01*
X6985Y-3733D02*
X7018Y-3765D01*
X6990Y-3540D02*
X7015Y-3565D01*
X6990Y-3542D02*
X7015Y-3567D01*
X6994Y-3546D02*
X7015Y-3525D01*
Y-3567D02*
Y-3406D01*
X6990Y-3542D02*
Y-3383D01*
Y-3490D02*
X7015Y-3515D01*
X7018Y-3765D02*
X7082D01*
X7018D02*
X7082D01*
X7155Y-3885D02*
X7275Y-3765D01*
X7165D02*
X7285Y-3885D01*
X7205D02*
X7325Y-3765D01*
X7215D02*
X7335Y-3885D01*
X7082Y-3765D02*
X7325D01*
X7255Y-3885D02*
X7640Y-3500D01*
X7285Y-3635D02*
X7298D01*
X7265Y-3765D02*
X7385Y-3885D01*
X6990Y-3500D02*
X7015Y-3475D01*
X6990Y-3440D02*
X7015Y-3465D01*
X6990Y-3450D02*
X7015Y-3425D01*
X6990Y-3390D02*
X7015Y-3415D01*
Y-3425D02*
X7034Y-3406D01*
X6990Y-3400D02*
X7015Y-3375D01*
X6959Y-3219D02*
X6991Y-3186D01*
X6990Y-3383D02*
X7015Y-3358D01*
Y-3376D02*
Y-3358D01*
Y-3365D02*
X7026Y-3376D01*
X7015Y-3406D02*
X7185D01*
X7026Y-3376D02*
X7056Y-3406D01*
X7034D02*
X7064Y-3376D01*
X7076D02*
X7106Y-3406D01*
X7084D02*
X7114Y-3376D01*
X7126D02*
X7156Y-3406D01*
X7134D02*
X7164Y-3376D01*
X7015D02*
X7215D01*
X7184Y-3406D02*
X7214Y-3376D01*
X7176D02*
X7196Y-3396D01*
X7185Y-3406D02*
X7215Y-3376D01*
X7315Y-3765D02*
X7435Y-3885D01*
X7325Y-3765D02*
X7357D01*
X7361Y-3761D02*
X7485Y-3885D01*
X7357Y-3765D02*
X7390Y-3733D01*
X7285Y-3635D02*
Y-3486D01*
X7298Y-3635D02*
X7498Y-3435D01*
X7386Y-3736D02*
X7535Y-3885D01*
X7371Y-3746D02*
X7390Y-3727D01*
X7408Y-3708D02*
X7585Y-3885D01*
X7405D02*
X7640Y-3650D01*
X7433Y-3683D02*
X7635Y-3885D01*
X7458Y-3658D02*
X7685Y-3885D01*
X7455D02*
X7685Y-3655D01*
X7505Y-3885D02*
X7735Y-3655D01*
X7305Y-3885D02*
X7640Y-3550D01*
X7390Y-3727D02*
X7590Y-3527D01*
X7355Y-3885D02*
X7640Y-3600D01*
X7483Y-3633D02*
X7735Y-3885D01*
X7508Y-3608D02*
X7785Y-3885D01*
X7533Y-3583D02*
X7835Y-3885D01*
X7285Y-3585D02*
X7317Y-3617D01*
X7285Y-3535D02*
X7342Y-3592D01*
X7286Y-3486D02*
X7367Y-3567D01*
X7311Y-3461D02*
X7392Y-3542D01*
X7336Y-3436D02*
X7417Y-3517D01*
X7285Y-3306D02*
Y-3239D01*
Y-3285D02*
X7296Y-3296D01*
X7361Y-3411D02*
X7442Y-3492D01*
X7287Y-3237D02*
X7321Y-3271D01*
X7312Y-3212D02*
X7346Y-3246D01*
X7386Y-3386D02*
X7467Y-3467D01*
X7411Y-3361D02*
X7492Y-3442D01*
X7498Y-3435D02*
X7517Y-3416D01*
X7436Y-3336D02*
X7514Y-3414D01*
X7461Y-3311D02*
X7539Y-3389D01*
X7285Y-3605D02*
X7640Y-3250D01*
X7486Y-3286D02*
X7564Y-3364D01*
X7285Y-3555D02*
X7640Y-3200D01*
X7498Y-3430D02*
X7640Y-3288D01*
X7511Y-3261D02*
X7589Y-3339D01*
X7536Y-3236D02*
X7614Y-3314D01*
X5803Y-3487D02*
X7290Y-2000D01*
X5853Y-3487D02*
X7340Y-2000D01*
X5970Y-3170D02*
X7140Y-2000D01*
X5970Y-3120D02*
X7090Y-2000D01*
X6050D02*
X7176Y-3126D01*
X5375Y-1575D02*
X6989Y-3189D01*
X5425Y-1575D02*
X7015Y-3165D01*
X5475Y-1575D02*
X7026Y-3126D01*
X5525Y-1575D02*
X7076Y-3126D01*
X5575Y-1575D02*
X7126Y-3126D01*
X6328Y-3512D02*
X7740Y-2100D01*
X6378Y-3512D02*
X7790Y-2100D01*
X6453Y-3487D02*
X7840Y-2100D01*
X6620Y-3170D02*
X7690Y-2100D01*
X6503Y-3487D02*
X7890Y-2100D01*
X5932Y-3508D02*
X7440Y-2000D01*
X5903Y-3487D02*
X7390Y-2000D01*
X6607Y-3533D02*
X8035Y-2105D01*
X6553Y-3487D02*
X7940Y-2100D01*
X6582Y-3508D02*
X7990Y-2100D01*
X5957Y-3083D02*
X7040Y-2000D01*
X5932Y-3058D02*
X6990Y-2000D01*
X6100D02*
X7214Y-3114D01*
X6150Y-2000D02*
X7239Y-3089D01*
X6200Y-2000D02*
X7264Y-3064D01*
X6250Y-2000D02*
X7289Y-3039D01*
X6300Y-2000D02*
X7314Y-3014D01*
X6350Y-2000D02*
X7339Y-2989D01*
X6400Y-2000D02*
X7364Y-2964D01*
X6450Y-2000D02*
X7389Y-2939D01*
X6553Y-3037D02*
X7570Y-2020D01*
X6500Y-2000D02*
X7414Y-2914D01*
X6620Y-3120D02*
X7645Y-2095D01*
X6582Y-3058D02*
X7595Y-2045D01*
X6607Y-3083D02*
X7620Y-2070D01*
X6453Y-3037D02*
X7490Y-2000D01*
X6503Y-3037D02*
X7540Y-2000D01*
X6025D02*
X7550D01*
X6550D02*
X7439Y-2889D01*
X6600Y-2000D02*
X7464Y-2864D01*
X6650Y-2000D02*
X7489Y-2839D01*
X6959Y-3219D02*
X6991Y-3186D01*
X7015D01*
X7337Y-3187D02*
X7371Y-3221D01*
X6991Y-3186D02*
X7015D01*
X7004D02*
X7015Y-3175D01*
Y-3186D02*
Y-3126D01*
X7203D01*
X7362Y-3162D02*
X7396Y-3196D01*
X7387Y-3137D02*
X7421Y-3171D01*
X7412Y-3112D02*
X7446Y-3146D01*
X7285Y-3505D02*
X7640Y-3150D01*
X7285Y-3486D02*
X7640Y-3131D01*
X7285Y-3306D02*
X7671Y-2920D01*
X7437Y-3087D02*
X7471Y-3121D01*
X7285Y-3239D02*
X7639Y-2885D01*
X7064Y-3126D02*
X8060Y-2130D01*
X7114Y-3126D02*
X8085Y-2155D01*
X7164Y-3126D02*
X8110Y-2180D01*
X7285Y-3305D02*
X7705Y-2885D01*
X7203Y-3126D02*
X7541Y-2787D01*
X7285Y-3255D02*
X7655Y-2885D01*
X7462Y-3062D02*
X7496Y-3096D01*
X6700Y-2000D02*
X7514Y-2814D01*
X7487Y-3037D02*
X7521Y-3071D01*
X7512Y-3012D02*
X7546Y-3046D01*
X7537Y-2987D02*
X7571Y-3021D01*
X6750Y-2000D02*
X7539Y-2789D01*
X6800Y-2000D02*
X7564Y-2764D01*
X6850Y-2000D02*
X7605Y-2755D01*
X6900Y-2000D02*
X7655Y-2755D01*
X6950Y-2000D02*
X7705Y-2755D01*
X7000Y-2000D02*
X7755Y-2755D01*
X7050Y-2000D02*
X7805Y-2755D01*
X7100Y-2000D02*
X7855Y-2755D01*
X7150Y-2000D02*
X7905Y-2755D01*
X7200Y-2000D02*
X7955Y-2755D01*
X7250Y-2000D02*
X8005Y-2755D01*
X7300Y-2000D02*
X8055Y-2755D01*
X7350Y-2000D02*
X8105Y-2755D01*
X7400Y-2000D02*
X8155Y-2755D01*
X7450Y-2000D02*
X8205Y-2755D01*
X7500Y-2000D02*
X8255Y-2755D01*
X7540Y-4150D02*
X7675Y-4015D01*
X7565D02*
X7700Y-4150D01*
X7590D02*
X7725Y-4015D01*
X7615D02*
X7750Y-4150D01*
X7640D02*
X7775Y-4015D01*
X7665D02*
X7800Y-4150D01*
X7690D02*
X7825Y-4015D01*
X7715D02*
X7850Y-4150D01*
X7740D02*
X7875Y-4015D01*
X7765D02*
X7900Y-4150D01*
X7790D02*
X7925Y-4015D01*
X7815D02*
X7950Y-4150D01*
X7840D02*
X7975Y-4015D01*
X7865D02*
X8000Y-4150D01*
X7890D02*
X8025Y-4015D01*
X7915D02*
X8050Y-4150D01*
X7940D02*
X8075Y-4015D01*
X7965D02*
X8100Y-4150D01*
X7990D02*
X8125Y-4015D01*
X8015D02*
X8150Y-4150D01*
X7905Y-3885D02*
X7980Y-3810D01*
X7955Y-3885D02*
X8030Y-3810D01*
X8040Y-4150D02*
X8175Y-4015D01*
X7965Y-3810D02*
X8025D01*
X7965D02*
X8025D01*
X7855Y-3885D02*
X7947Y-3792D01*
X8005Y-3885D02*
X8080Y-3810D01*
X8010D02*
X8085Y-3885D01*
X8055D02*
X8130Y-3810D01*
X8060D02*
X8135Y-3885D01*
X8065Y-4015D02*
X8200Y-4150D01*
X8090D02*
X8225Y-4015D01*
X8115D02*
X8250Y-4150D01*
X8140D02*
X8275Y-4015D01*
X8165D02*
X8300Y-4150D01*
X8105Y-3885D02*
X8180Y-3810D01*
X8110D02*
X8185Y-3885D01*
X8155D02*
X8230Y-3810D01*
X8190Y-4150D02*
X8325Y-4015D01*
X8160Y-3810D02*
X8235Y-3885D01*
X8205D02*
X8280Y-3810D01*
X8215Y-4015D02*
X8350Y-4150D01*
X8240D02*
X8375Y-4015D01*
X8265D02*
X8400Y-4150D01*
X8290D02*
X8425Y-4015D01*
X8315D02*
X8450Y-4150D01*
X8340D02*
X8475Y-4015D01*
X8365D02*
X8500Y-4150D01*
X8390D02*
X8525Y-4015D01*
X8415D02*
X8550Y-4150D01*
X8440D02*
X8575Y-4015D01*
X8465D02*
X8600Y-4150D01*
X8490D02*
X8625Y-4015D01*
X8515D02*
X8650Y-4150D01*
X8540D02*
X8675Y-4015D01*
X8565D02*
X8700Y-4150D01*
X8590D02*
X8725Y-4015D01*
X8615D02*
X8750Y-4150D01*
X8640D02*
X8775Y-4015D01*
X8665D02*
X8800Y-4150D01*
X8690D02*
X8825Y-4015D01*
X8210Y-3810D02*
X8285Y-3885D01*
X8255D02*
X8330Y-3810D01*
X8260D02*
X8335Y-3885D01*
X8305D02*
X8380Y-3810D01*
X8310D02*
X8385Y-3885D01*
X8355D02*
X8430Y-3810D01*
X8360D02*
X8435Y-3885D01*
X8405D02*
X8480Y-3810D01*
X8410D02*
X8485Y-3885D01*
X8455D02*
X8530Y-3810D01*
X8460D02*
X8535Y-3885D01*
X8505D02*
X8580Y-3810D01*
X8510D02*
X8585Y-3885D01*
X8555D02*
X8630Y-3810D01*
X8560D02*
X8635Y-3885D01*
X8605D02*
X8680Y-3810D01*
X8610D02*
X8685Y-3885D01*
X8655D02*
X8730Y-3810D01*
X8660D02*
X8735Y-3885D01*
X8705D02*
X8780Y-3810D01*
X8710D02*
X8785Y-3885D01*
X7655D02*
X7847Y-3692D01*
X7705Y-3885D02*
X7872Y-3717D01*
X7755Y-3885D02*
X7897Y-3742D01*
X7805Y-3885D02*
X7922Y-3767D01*
X7935Y-3780D02*
X7965Y-3810D01*
X7555Y-3885D02*
X7785Y-3655D01*
X7605Y-3885D02*
X7822Y-3667D01*
X7655Y-3655D02*
X7885Y-3885D01*
X7705Y-3655D02*
X7935Y-3885D01*
X7810Y-3655D02*
X7935Y-3780D01*
X7755Y-3655D02*
X7985Y-3885D01*
X7805Y-3655D02*
X8035Y-3885D01*
X7935Y-3780D02*
X7965Y-3810D01*
X7910Y-3575D02*
X8025Y-3690D01*
X8210D01*
X7910Y-3560D02*
X8040Y-3690D01*
X7910Y-3510D02*
X8090Y-3690D01*
X7910Y-3460D02*
X8140Y-3690D01*
X7910Y-3410D02*
X8190Y-3690D01*
X8012Y-3677D02*
X8475Y-3215D01*
X7558Y-3558D02*
X7640Y-3640D01*
X7583Y-3533D02*
X7640Y-3590D01*
Y-3655D02*
X7810D01*
X7590Y-3527D02*
X7609Y-3508D01*
X7640Y-3640D02*
X7655Y-3655D01*
X7611Y-3511D02*
X7640Y-3540D01*
X7595Y-3527D02*
X7640Y-3483D01*
Y-3655D02*
Y-3483D01*
X7910Y-3575D02*
Y-3405D01*
Y-3480D02*
X8175Y-3215D01*
X7910Y-3360D02*
X8180Y-3630D01*
X7910Y-3310D02*
X8180Y-3580D01*
X7962Y-3627D02*
X8320Y-3270D01*
X7910Y-3260D02*
X8185Y-3535D01*
X7937Y-3602D02*
X8270Y-3270D01*
X7912Y-3577D02*
X8230Y-3260D01*
X7910Y-3530D02*
X8205Y-3235D01*
X7915Y-3215D02*
X8210Y-3510D01*
X7987Y-3652D02*
X8425Y-3215D01*
X7965D02*
X8235Y-3485D01*
X8015Y-3215D02*
X8280Y-3480D01*
X8390Y-3690D02*
X8415Y-3665D01*
X8400Y-3690D02*
X8425Y-3665D01*
X8415Y-3665D02*
X8440Y-3690D01*
X8450D02*
X8475Y-3665D01*
X8465D02*
X8490Y-3690D01*
X8050D02*
X8180Y-3560D01*
X8100Y-3690D02*
X8180Y-3610D01*
X8150Y-3690D02*
X8180Y-3660D01*
X8180Y-3660D02*
X8210Y-3690D01*
X8500D02*
X8525Y-3665D01*
X8515D02*
X8540Y-3690D01*
X8550D02*
X8575Y-3665D01*
X8565D02*
X8590Y-3690D01*
X8600D02*
X8625Y-3665D01*
X8615D02*
X8640Y-3690D01*
X8650D02*
X8675Y-3665D01*
X8665D02*
X8690Y-3690D01*
X8700D02*
X8725Y-3665D01*
X8715D02*
X8740Y-3690D01*
X8750D02*
X8775Y-3665D01*
X8765D02*
X8790Y-3690D01*
X8180Y-3660D02*
Y-3540D01*
X8240Y-3480D01*
X8270Y-3270D02*
X8535Y-3535D01*
X8240Y-3480D02*
X8360D01*
X8415Y-3535D01*
X8115Y-3215D02*
X8435Y-3535D01*
X8065Y-3215D02*
X8330Y-3480D01*
X8165Y-3215D02*
X8485Y-3535D01*
X8260Y-3480D02*
X8525Y-3215D01*
X8310Y-3480D02*
X8575Y-3215D01*
X8320Y-3270D02*
X8585Y-3535D01*
X8360Y-3480D02*
X8625Y-3215D01*
X8800Y-3690D02*
X8825Y-3665D01*
X8365Y-3265D02*
X8635Y-3535D01*
X8390Y-3240D02*
X8685Y-3535D01*
X8415Y-3215D02*
X8735Y-3535D01*
X8385Y-3505D02*
X8675Y-3215D01*
X8410Y-3530D02*
X8725Y-3215D01*
X8455Y-3535D02*
X8775Y-3215D01*
X8465D02*
X8785Y-3535D01*
X8505D02*
X8825Y-3215D01*
X8715Y-4015D02*
X8850Y-4150D01*
X8740D02*
X8875Y-4015D01*
X8765D02*
X8900Y-4150D01*
X8790D02*
X8925Y-4015D01*
X8815D02*
X8950Y-4150D01*
X8755Y-3885D02*
X8830Y-3810D01*
X8760D02*
X8835Y-3885D01*
X8840Y-4150D02*
X8975Y-4015D01*
X8805Y-3885D02*
X8880Y-3810D01*
X8810D02*
X8885Y-3885D01*
X8865Y-4015D02*
X9000Y-4150D01*
X8890D02*
X9025Y-4015D01*
X8915D02*
X9050Y-4150D01*
X8940D02*
X9075Y-4015D01*
X8965D02*
X9100Y-4150D01*
X8990D02*
X9125Y-4015D01*
X9015D02*
X9150Y-4150D01*
X9065Y-4015D02*
X9200Y-4150D01*
X9071Y-4015D02*
X9136D01*
X9071D02*
X9136D01*
X8855Y-3885D02*
X8930Y-3810D01*
X8025D02*
X8970D01*
X8860D02*
X8935Y-3885D01*
X8905D02*
X8980Y-3810D01*
X8910D02*
X8985Y-3885D01*
X8390Y-3690D02*
X8860D01*
X8415Y-3665D02*
X8835D01*
X8955Y-3885D02*
X9030Y-3810D01*
X8815Y-3665D02*
X8840Y-3690D01*
X8835Y-3665D02*
X8860Y-3690D01*
X8960Y-3810D02*
X9035Y-3885D01*
X8970Y-3810D02*
X9030D01*
X9010D02*
X9078Y-3878D01*
X8970Y-3810D02*
X9030D01*
X9045Y-3795D02*
X9103Y-3853D01*
X9030Y-3810D02*
X9060Y-3780D01*
X9030Y-3810D02*
X9060Y-3780D01*
X9030Y-3810D02*
X9285Y-3555D01*
X9070Y-3770D02*
X9128Y-3828D01*
X9070Y-3570D02*
X9080Y-3580D01*
X9060Y-3780D02*
X9255Y-3585D01*
X9115Y-4015D02*
X9250Y-4150D01*
X9151Y-4001D02*
X9300Y-4150D01*
X9176Y-3976D02*
X9350Y-4150D01*
X9201Y-3951D02*
X9400Y-4150D01*
X9226Y-3926D02*
X9450Y-4150D01*
X9251Y-3901D02*
X9500Y-4150D01*
X9276Y-3876D02*
X9550Y-4150D01*
X9301Y-3851D02*
X9600Y-4150D01*
X9326Y-3826D02*
X9650Y-4150D01*
X9351Y-3801D02*
X9700Y-4150D01*
X9376Y-3776D02*
X9750Y-4150D01*
X9401Y-3751D02*
X9800Y-4150D01*
X9426Y-3726D02*
X9850Y-4150D01*
X9451Y-3701D02*
X9900Y-4150D01*
X9476Y-3676D02*
X9950Y-4150D01*
X9501Y-3651D02*
X10000Y-4150D01*
X9526Y-3626D02*
X10050Y-4150D01*
X9551Y-3601D02*
X10100Y-4150D01*
X9576Y-3576D02*
X10150Y-4150D01*
X9590D02*
X10150Y-3590D01*
X9640Y-4150D02*
X10150Y-3640D01*
X9095Y-3745D02*
X9153Y-3803D01*
X9120Y-3720D02*
X9178Y-3778D01*
X9136Y-4015D02*
X9169Y-3983D01*
X9136Y-4015D02*
X9169Y-3983D01*
X9145Y-3695D02*
X9203Y-3753D01*
X9170Y-3670D02*
X9228Y-3728D01*
X9195Y-3645D02*
X9253Y-3703D01*
X9220Y-3620D02*
X9278Y-3678D01*
X9255Y-3585D02*
X9285Y-3555D01*
X9245Y-3595D02*
X9303Y-3653D01*
X9940Y-4150D02*
X10150Y-3940D01*
X9990Y-4150D02*
X10150Y-3990D01*
X10040Y-4150D02*
X10150Y-4040D01*
X10090Y-4150D02*
X10150Y-4090D01*
X10140Y-4150D02*
X10150Y-4140D01*
X9690Y-4150D02*
X10150Y-3690D01*
X9270Y-3570D02*
X9328Y-3628D01*
X9740Y-4150D02*
X10150Y-3740D01*
X9790Y-4150D02*
X10150Y-3790D01*
X9840Y-4150D02*
X10150Y-3840D01*
X9890Y-4150D02*
X10150Y-3890D01*
X9070Y-3590D02*
Y-3540D01*
X8415Y-3535D02*
X8835D01*
X9070Y-3590D02*
X9165Y-3495D01*
X9255Y-3585D02*
X9285Y-3555D01*
Y-3495D01*
X8515Y-3215D02*
X8835Y-3535D01*
X8555D02*
X8855Y-3235D01*
X9070Y-3570D02*
X9165Y-3475D01*
X9010Y-3480D02*
X9070Y-3540D01*
X9010Y-3460D02*
X9105Y-3555D01*
X9005Y-3885D02*
X9442Y-3448D01*
X9055Y-3885D02*
X9492Y-3448D01*
X9169Y-3983D02*
X9704Y-3448D01*
X9285Y-3535D02*
X9353Y-3603D01*
X9071Y-3885D02*
X9509Y-3448D01*
X9040Y-4150D02*
X9825Y-3365D01*
X9090Y-4150D02*
X9850Y-3390D01*
X9140Y-4150D02*
X9880Y-3410D01*
X9190Y-4150D02*
X9890Y-3450D01*
X9240Y-4150D02*
X9940Y-3450D01*
X8755Y-3535D02*
X8890Y-3400D01*
X8805Y-3535D02*
X8890Y-3450D01*
X8835Y-3535D02*
X8890Y-3480D01*
X8890D02*
Y-3455D01*
Y-3395D01*
X8605Y-3535D02*
X8880Y-3260D01*
X8565Y-3215D02*
X8860Y-3510D01*
X8615Y-3215D02*
X8885Y-3485D01*
X8890Y-3455D02*
Y-3395D01*
X8665Y-3215D02*
X8890Y-3440D01*
X9032Y-3433D02*
X9130Y-3530D01*
X9010Y-3480D02*
Y-3455D01*
X9060Y-3530D02*
X9165Y-3425D01*
X9057Y-3408D02*
X9155Y-3505D01*
X9082Y-3383D02*
X9165Y-3465D01*
X8655Y-3535D02*
X8920Y-3270D01*
X8705Y-3535D02*
X8970Y-3270D01*
X9010Y-3480D02*
X9165Y-3325D01*
X9035Y-3505D02*
X9165Y-3375D01*
Y-3495D02*
Y-3305D01*
X9010Y-3455D02*
X9165Y-3300D01*
X9285Y-3485D02*
X9378Y-3578D01*
X9285Y-3555D02*
Y-3495D01*
X9490Y-4150D02*
X10150Y-3490D01*
X9285Y-3555D02*
X9392Y-3448D01*
X9540Y-4150D02*
X10150Y-3540D01*
X9290Y-4150D02*
X9990Y-3450D01*
X9340Y-4150D02*
X10040Y-3450D01*
X9390Y-4150D02*
X10090Y-3450D01*
X9440Y-4150D02*
X10150Y-3440D01*
Y-4150D02*
Y-2990D01*
X9601Y-3551D02*
X10150Y-4100D01*
X9626Y-3526D02*
X10150Y-4050D01*
X9651Y-3501D02*
X10150Y-4000D01*
X9676Y-3476D02*
X10150Y-3950D01*
X9701Y-3451D02*
X10150Y-3900D01*
X9731Y-3431D02*
X10150Y-3850D01*
X9756Y-3406D02*
X10150Y-3800D01*
X9774Y-3374D02*
X10150Y-3750D01*
X9900Y-3450D02*
X10150Y-3700D01*
X9950Y-3450D02*
X10150Y-3650D01*
X10000Y-3450D02*
X10150Y-3600D01*
X9285Y-3495D02*
Y-3448D01*
Y-3455D02*
X9292Y-3448D01*
X9298D02*
X9403Y-3553D01*
X9285Y-3505D02*
X9342Y-3448D01*
X9348D02*
X9428Y-3528D01*
X9398Y-3448D02*
X9453Y-3503D01*
X9285Y-3448D02*
X9509D01*
X9448D02*
X9478Y-3478D01*
X9498Y-3448D02*
X9503Y-3453D01*
X9509Y-3448D02*
X9520Y-3437D01*
X9704Y-3448D02*
X9714D01*
X9704D02*
X9719Y-3433D01*
X10050Y-3450D02*
X10150Y-3550D01*
X9880Y-3450D02*
X10120D01*
X10100D02*
X10150Y-3500D01*
X9714Y-3448D02*
X9774Y-3388D01*
X9520Y-3437D02*
Y-3260D01*
X9880Y-3430D02*
X9900Y-3450D01*
X9880D02*
Y-3400D01*
X10120Y-3450D02*
Y-3260D01*
Y-3420D02*
X10150Y-3450D01*
X7718Y-3405D02*
X7747Y-3375D01*
X7736Y-3386D02*
X7755Y-3405D01*
X7735D02*
X7765Y-3375D01*
X7775D02*
X7805Y-3405D01*
X7785D02*
X7815Y-3375D01*
X7561Y-3211D02*
X7639Y-3289D01*
X7586Y-3186D02*
X7640Y-3240D01*
X7825Y-3375D02*
X7855Y-3405D01*
X7640Y-3288D02*
Y-3131D01*
X7835Y-3405D02*
X7865Y-3375D01*
X7718Y-3405D02*
X7910D01*
X7747Y-3375D02*
X7910D01*
X7875D02*
X7905Y-3405D01*
X7910Y-3375D02*
Y-3215D01*
Y-3230D02*
X7925Y-3215D01*
X7885Y-3405D02*
X8075Y-3215D01*
X7910Y-3280D02*
X7975Y-3215D01*
X7910Y-3430D02*
X8125Y-3215D01*
X7910Y-3330D02*
X8025Y-3215D01*
X7910D02*
X8185D01*
X7611Y-3161D02*
X7640Y-3190D01*
Y-3131D02*
X7646Y-3125D01*
X7640Y-3150D02*
X7665Y-3125D01*
X7646D02*
X7803D01*
X7810Y-3117D01*
X7646Y-3125D02*
X7761Y-3010D01*
X7661Y-3111D02*
X7675Y-3125D01*
X7665D02*
X7780Y-3010D01*
X7686Y-3086D02*
X7725Y-3125D01*
X7711Y-3061D02*
X7775Y-3125D01*
X7810Y-3117D02*
X7843Y-3085D01*
X7736Y-3036D02*
X7814Y-3114D01*
X7810Y-3117D02*
X7843Y-3085D01*
X7908D01*
X7843D02*
X7908D01*
X7715Y-3125D02*
X7830Y-3010D01*
X7761Y-3011D02*
X7839Y-3089D01*
X7765Y-3125D02*
X7880Y-3010D01*
X7810D02*
X7885Y-3085D01*
X7855D02*
X7930Y-3010D01*
X7860D02*
X7935Y-3085D01*
X8185Y-3215D02*
X8240Y-3270D01*
X8360D01*
X8890Y-3395D02*
X8920Y-3365D01*
X8360Y-3270D02*
X8415Y-3215D01*
X8890Y-3395D02*
X8920Y-3365D01*
X8715Y-3215D02*
X8892Y-3393D01*
X8415Y-3215D02*
X8835D01*
X8765D02*
X8917Y-3368D01*
X8835Y-3215D02*
X8890Y-3270D01*
X8815Y-3215D02*
X8942Y-3343D01*
X8920Y-3270D02*
X8967Y-3318D01*
X8970Y-3270D02*
X8992Y-3293D01*
X9107Y-3358D02*
X9165Y-3415D01*
X9132Y-3333D02*
X9165Y-3365D01*
X9157Y-3308D02*
X9165Y-3315D01*
X8890Y-3270D02*
X9010D01*
X9070Y-3210D01*
Y-3090D01*
Y-3170D02*
X9092Y-3193D01*
X9070Y-3120D02*
X9117Y-3168D01*
X7908Y-3085D02*
X8185D01*
X7905D02*
X7980Y-3010D01*
X7910D02*
X7985Y-3085D01*
X7955D02*
X8030Y-3010D01*
X7960D02*
X8035Y-3085D01*
X8005D02*
X8080Y-3010D01*
X8010D02*
X8085Y-3085D01*
X8055D02*
X8130Y-3010D01*
X8060D02*
X8135Y-3085D01*
X8105D02*
X8180Y-3010D01*
X8185Y-3085D02*
X8240Y-3030D01*
X8360D01*
X8415Y-3085D01*
X8835D01*
X8890Y-3030D01*
X8110Y-3010D02*
X8185Y-3085D01*
X8160Y-3010D02*
X8210Y-3060D01*
X8155Y-3085D02*
X8230Y-3010D01*
X9010Y-3030D02*
X9070Y-3090D01*
X8210Y-3010D02*
X8235Y-3035D01*
X8890Y-3030D02*
X9010D01*
X7562Y-2962D02*
X7596Y-2996D01*
X7587Y-2937D02*
X7621Y-2971D01*
X7612Y-2912D02*
X7646Y-2946D01*
X7637Y-2887D02*
X7671Y-2921D01*
X7671Y-2920D02*
X7701Y-2890D01*
X7541Y-2787D02*
X7574Y-2755D01*
X7541Y-2787D02*
X7574Y-2755D01*
X7685Y-2885D02*
X7696Y-2896D01*
X7574Y-2755D02*
X7639D01*
X7574D02*
X7639D01*
X7671Y-2920D02*
X7701Y-2890D01*
X7761D01*
X8260Y-3030D02*
X8280Y-3010D01*
X7701Y-2890D02*
X7761D01*
X8260Y-3010D02*
X8280Y-3030D01*
X7550Y-2000D02*
X8305Y-2755D01*
X7585D02*
X8135Y-2205D01*
X7635Y-2755D02*
X8160Y-2230D01*
X7685Y-2755D02*
X8185Y-2255D01*
X7639Y-2755D02*
X8685D01*
X7835D02*
X8260Y-2330D01*
X7885Y-2755D02*
X8285Y-2355D01*
X7935Y-2755D02*
X8310Y-2380D01*
X7985Y-2755D02*
X8335Y-2405D01*
X8035Y-2755D02*
X8360Y-2430D01*
X7550Y-2000D02*
X7650Y-2100D01*
X8030D01*
X7700D02*
X8355Y-2755D01*
X7735D02*
X8210Y-2280D01*
X7785Y-2755D02*
X8235Y-2305D01*
X7750Y-2100D02*
X8405Y-2755D01*
X8085D02*
X8385Y-2455D01*
X8135Y-2755D02*
X8410Y-2480D01*
X8185Y-2755D02*
X8435Y-2505D01*
X8235Y-2755D02*
X8460Y-2530D01*
X7800Y-2100D02*
X8455Y-2755D01*
X7850Y-2100D02*
X8505Y-2755D01*
X7900Y-2100D02*
X8555Y-2755D01*
X7950Y-2100D02*
X8605Y-2755D01*
X8000Y-2100D02*
X8655Y-2755D01*
X8030Y-2100D02*
X8685Y-2755D01*
X8360Y-3010D02*
X8435Y-3085D01*
X8410Y-3010D02*
X8485Y-3085D01*
X8455D02*
X8530Y-3010D01*
X8410Y-3080D02*
X8480Y-3010D01*
X8460D02*
X8535Y-3085D01*
X8505D02*
X8580Y-3010D01*
X8510D02*
X8585Y-3085D01*
X8555D02*
X8630Y-3010D01*
X8560D02*
X8635Y-3085D01*
X8605D02*
X8680Y-3010D01*
X8610D02*
X8685Y-3085D01*
X8655D02*
X8730Y-3010D01*
X8660D02*
X8735Y-3085D01*
X8705D02*
X8780Y-3010D01*
X8710D02*
X8785Y-3085D01*
X8755D02*
X8830Y-3010D01*
X8760D02*
X8835Y-3085D01*
X8805D02*
X8880Y-3010D01*
X9010D02*
X9142Y-3143D01*
X9060Y-3010D02*
X9167Y-3118D01*
X9070Y-3120D02*
X9180Y-3010D01*
X8310Y-3030D02*
X8330Y-3010D01*
X8310D02*
X8330Y-3030D01*
X8385Y-3055D02*
X8430Y-3010D01*
X8360Y-3030D02*
X8380Y-3010D01*
X8535Y-2755D02*
X8610Y-2680D01*
X8285Y-2755D02*
X8485Y-2555D01*
X8335Y-2755D02*
X8510Y-2580D01*
X8385Y-2755D02*
X8535Y-2605D01*
X8435Y-2755D02*
X8560Y-2630D01*
X8485Y-2755D02*
X8585Y-2655D01*
X8810Y-3010D02*
X8860Y-3060D01*
X8860Y-3010D02*
X8885Y-3035D01*
X8910Y-3030D02*
X8930Y-3010D01*
X8910D02*
X8930Y-3030D01*
X8960D02*
X8980Y-3010D01*
X8960D02*
X8980Y-3030D01*
X8585Y-2755D02*
X8635Y-2705D01*
X8635Y-2755D02*
X8660Y-2730D01*
X9060Y-3080D02*
X9130Y-3010D01*
X9010Y-3030D02*
X9030Y-3010D01*
X9035Y-3055D02*
X9080Y-3010D01*
X9520Y-3420D02*
X9528Y-3428D01*
X9520Y-3370D02*
X9534Y-3384D01*
X9520Y-3370D02*
X9534Y-3356D01*
X8890Y-3400D02*
X9276Y-3014D01*
X8920Y-3365D02*
X9241Y-3044D01*
X9534Y-3388D02*
Y-3268D01*
X9070Y-3170D02*
X9230Y-3010D01*
X9514Y-3140D02*
X9520Y-3134D01*
Y-3437D02*
X9551Y-3405D01*
X9520Y-3420D02*
X9543Y-3397D01*
X9534Y-3388D02*
X9551Y-3405D01*
X9520Y-3320D02*
X9534Y-3334D01*
X9520Y-3320D02*
X9534Y-3306D01*
X9520Y-3270D02*
X9534Y-3284D01*
X9514Y-3140D02*
X9540D01*
X9520Y-3270D02*
X9530Y-3260D01*
X9534Y-3268D02*
X9542Y-3260D01*
X9520D02*
X9542D01*
X9110Y-3010D02*
X9192Y-3093D01*
X9160Y-3010D02*
X9217Y-3068D01*
X9210Y-3010D02*
X9242Y-3043D01*
X9260Y-3010D02*
X9267Y-3018D01*
X9241Y-3044D02*
X9271Y-3014D01*
X9241Y-3044D02*
X9271Y-3014D01*
X7761Y-3010D02*
X9284D01*
X9520Y-3134D02*
Y-3014D01*
X9271Y-3014D02*
X9280D01*
X9271D02*
X9280D01*
X9520Y-3120D02*
X9540Y-3140D01*
X9520Y-3120D02*
X9534Y-3106D01*
Y-3134D02*
X9540Y-3140D01*
X9768D02*
X9780D01*
X9768D02*
X9780D01*
X9520Y-3070D02*
X9534Y-3084D01*
X9520Y-3070D02*
X9534Y-3056D01*
X9516Y-3010D02*
X9538D01*
X9534Y-3134D02*
Y-3014D01*
X9520Y-3020D02*
X9534Y-3034D01*
X9520Y-3020D02*
X9530Y-3010D01*
X9830Y-3370D02*
X9860Y-3400D01*
X9774Y-3366D02*
X9800Y-3340D01*
X9830Y-3370D02*
X9860Y-3400D01*
X9880D01*
X9860D02*
X9880D01*
X9774Y-3324D02*
X9880Y-3430D01*
X9774Y-3388D02*
Y-3314D01*
X9830Y-3370D01*
X9810Y-3170D02*
X9880Y-3240D01*
Y-3230D01*
X10120Y-3420D02*
X10150Y-3390D01*
X10120Y-3370D02*
X10150Y-3400D01*
X10120Y-3370D02*
X10150Y-3340D01*
X10120Y-3320D02*
X10150Y-3350D01*
X10120Y-3320D02*
X10150Y-3290D01*
X10120Y-3270D02*
X10150Y-3300D01*
X9880Y-3240D02*
Y-3230D01*
X10120Y-3270D02*
X10150Y-3240D01*
X10120Y-3260D02*
Y-3230D01*
Y-3260D02*
Y-3230D01*
Y-3220D02*
X10150Y-3250D01*
X9780Y-3140D02*
X9810Y-3170D01*
X9768Y-3140D02*
X9774Y-3134D01*
X9865Y-3225D02*
X9880Y-3210D01*
X9780Y-3140D02*
X9810Y-3170D01*
X9840Y-3200D02*
X9880Y-3160D01*
X9784Y-3134D02*
X9880Y-3230D01*
X9790Y-3150D02*
X9806Y-3134D01*
X9880Y-3230D02*
Y-3134D01*
X9815Y-3175D02*
X9856Y-3134D01*
X9834D02*
X9880Y-3180D01*
X10120Y-3220D02*
X10150Y-3190D01*
X9774Y-3134D02*
X9880D01*
X10120Y-3170D02*
X10150Y-3200D01*
X10120Y-3170D02*
X10150Y-3140D01*
X10120Y-3120D02*
X10150Y-3150D01*
X10120Y-3120D02*
X10150Y-3090D01*
X9774Y-3014D02*
X9894D01*
X9980Y-3040D02*
X10120D01*
Y-3230D02*
Y-3040D01*
Y-3070D02*
X10150Y-3100D01*
X10120Y-3070D02*
X10150Y-3040D01*
X7761Y-2890D02*
X9290D01*
X7639Y-2885D02*
X9285D01*
X9510Y-2890D02*
X9544D01*
X9510D02*
X9520Y-2880D01*
Y-2870D02*
X9540Y-2890D01*
X9520Y-2880D02*
Y-2820D01*
Y-2870D02*
X9534Y-2856D01*
Y-2880D02*
Y-2820D01*
X9520Y-2820D02*
X9534Y-2834D01*
X9520Y-2820D02*
X9534D01*
Y-2880D02*
X9544Y-2890D01*
X9764D02*
X9880D01*
X9770Y-3010D02*
X10070D01*
X9764Y-2890D02*
X9774Y-2880D01*
X9780Y-2880D02*
X9790Y-2890D01*
X9800D02*
X9810Y-2880D01*
X9774D02*
X9880D01*
X9830D02*
X9840Y-2890D01*
X9850D02*
X9860Y-2880D01*
X9825Y-2760D02*
X9880D01*
X9825Y-2725D02*
X9860Y-2760D01*
X9825Y-2675D02*
X9880Y-2730D01*
X9830Y-2760D02*
X9880Y-2710D01*
X9825Y-2715D02*
X9880Y-2660D01*
X9825Y-2625D02*
X9880Y-2680D01*
X9825Y-2665D02*
X9880Y-2610D01*
X9825Y-2575D02*
X9880Y-2630D01*
X9825Y-2760D02*
Y-2300D01*
Y-2315D02*
X9840Y-2300D01*
X9825Y-2615D02*
X9880Y-2560D01*
X9825Y-2525D02*
X9880Y-2580D01*
X9825Y-2475D02*
X9895Y-2545D01*
X9825Y-2425D02*
X9945Y-2545D01*
X9825Y-2375D02*
X9995Y-2545D01*
X9825Y-2325D02*
X10045Y-2545D01*
X9825Y-2465D02*
X9990Y-2300D01*
X9825Y-2365D02*
X9890Y-2300D01*
X9825Y-2415D02*
X9940Y-2300D01*
X9825Y-2565D02*
X10090Y-2300D01*
X9825Y-2515D02*
X10040Y-2300D01*
X9825D02*
X10150D01*
X9894Y-3014D02*
X9954D01*
X9894D02*
X9954D01*
X9980Y-3040D01*
X9954Y-3014D02*
X9980Y-3040D01*
X9965Y-3025D02*
X9980Y-3010D01*
X9880Y-2890D02*
Y-2880D01*
Y-2760D02*
Y-2735D01*
X9960Y-3010D02*
X9990Y-3040D01*
X9880Y-2760D02*
Y-2735D01*
Y-2545D01*
X10000Y-3040D02*
X10030Y-3010D01*
X10010D02*
X10040Y-3040D01*
X10050D02*
X10080Y-3010D01*
X10060D02*
X10090Y-3040D01*
X10100D02*
X10130Y-3010D01*
X10110D02*
X10150Y-3050D01*
X10070Y-3010D02*
X10130D01*
X10070D02*
X10130D01*
X10150Y-2990D01*
X10130Y-3010D02*
X10150Y-2990D01*
X10140Y-2625D02*
X10150Y-2635D01*
X10120Y-2605D02*
X10140Y-2625D01*
X9880Y-2560D02*
X9895Y-2545D01*
X10120Y-2605D02*
X10140Y-2625D01*
X10120Y-2605D02*
Y-2545D01*
X10127Y-2612D02*
X10150Y-2590D01*
X9850Y-2300D02*
X10095Y-2545D01*
X9880D02*
X10120D01*
X10150Y-2635D02*
Y-2300D01*
X10095Y-2545D02*
X10120Y-2570D01*
X9895Y-2545D02*
X10140Y-2300D01*
X9995Y-2545D02*
X10150Y-2390D01*
X10045Y-2545D02*
X10150Y-2440D01*
X10120Y-2570D02*
X10150Y-2600D01*
X10120Y-2570D02*
X10150Y-2540D01*
X10095Y-2545D02*
X10150Y-2490D01*
X9900Y-2300D02*
X10150Y-2550D01*
X9945Y-2545D02*
X10150Y-2340D01*
X9950Y-2300D02*
X10150Y-2500D01*
X10000Y-2300D02*
X10150Y-2450D01*
X10050Y-2300D02*
X10150Y-2400D01*
X10100Y-2300D02*
X10150Y-2350D01*
X50Y-1450D02*
X100Y-1500D01*
X50Y-1400D02*
X150Y-1500D01*
X50Y-1350D02*
X200Y-1500D01*
X50Y-1300D02*
X250Y-1500D01*
X50Y-1250D02*
X300Y-1500D01*
X140D02*
X365Y-1275D01*
X50Y-1200D02*
X350Y-1500D01*
X50Y-1390D02*
X321Y-1119D01*
X50Y-1440D02*
X346Y-1144D01*
X90Y-1500D02*
X365Y-1225D01*
X50Y-1290D02*
X271Y-1069D01*
X50Y-1340D02*
X296Y-1094D01*
X50Y-1500D02*
X775D01*
X190D02*
X401Y-1289D01*
X240Y-1500D02*
X451Y-1289D01*
X290Y-1500D02*
X501Y-1289D01*
X340Y-1500D02*
X551Y-1289D01*
X390Y-1500D02*
X601Y-1289D01*
X50Y-1150D02*
X400Y-1500D01*
X50Y-1490D02*
X365Y-1175D01*
X50Y-1100D02*
X450Y-1500D01*
X50Y-1050D02*
X500Y-1500D01*
X50Y-1000D02*
X550Y-1500D01*
X389Y-1289D02*
X600Y-1500D01*
X439Y-1289D02*
X650Y-1500D01*
X50Y-1240D02*
X246Y-1044D01*
X50Y-1190D02*
X235Y-1005D01*
Y-1032D02*
X267Y-1065D01*
X235Y-1032D02*
X267Y-1065D01*
X235Y-1032D02*
Y-968D01*
Y-1032D02*
Y-968D01*
X50Y-1140D02*
X235Y-955D01*
X50Y-1090D02*
X235Y-905D01*
X50Y-1040D02*
X235Y-855D01*
X50Y-990D02*
X235Y-805D01*
X50Y-800D02*
X235Y-985D01*
Y-968D02*
Y-782D01*
X365Y-1289D02*
X635D01*
X267Y-1065D02*
X365Y-1162D01*
Y-1265D02*
X389Y-1289D01*
X365D02*
Y-1162D01*
X407Y-1009D02*
X437Y-1039D01*
X635D01*
X50Y-950D02*
X365Y-1265D01*
X50Y-900D02*
X365Y-1215D01*
X50Y-850D02*
X365Y-1165D01*
X409Y-1009D02*
X439Y-1039D01*
X451D02*
X481Y-1009D01*
X419Y-1021D02*
X431Y-1009D01*
X407D02*
X635D01*
X489Y-1289D02*
X700Y-1500D01*
X539Y-1289D02*
X750Y-1500D01*
X589Y-1289D02*
X787Y-1488D01*
X635Y-1285D02*
X812Y-1463D01*
X635Y-1235D02*
X837Y-1438D01*
X635Y-1185D02*
X862Y-1413D01*
X635Y-1135D02*
X887Y-1388D01*
X635Y-1085D02*
X912Y-1363D01*
X609Y-1009D02*
X937Y-1338D01*
X635Y-985D02*
X962Y-1313D01*
X635Y-1289D02*
Y-1039D01*
Y-935D02*
X987Y-1288D01*
X3858Y-1333D02*
X3901Y-1289D01*
X3833Y-1308D02*
X3865Y-1275D01*
Y-1289D02*
X4028D01*
X3933Y-1408D02*
X4039Y-1301D01*
X3883Y-1358D02*
X3951Y-1289D01*
X3908Y-1383D02*
X4001Y-1289D01*
X775Y-1500D02*
X1175Y-1100D01*
X635Y-885D02*
X1012Y-1263D01*
X3450Y-925D02*
X3975Y-1450D01*
X3865Y-1289D02*
Y-1039D01*
Y-1265D02*
X3889Y-1289D01*
X3808Y-1283D02*
X3865Y-1225D01*
X3783Y-1258D02*
X3865Y-1175D01*
X459Y-1009D02*
X489Y-1039D01*
X501D02*
X531Y-1009D01*
X509D02*
X539Y-1039D01*
X3758Y-1233D02*
X3865Y-1125D01*
X551Y-1039D02*
X581Y-1009D01*
X559D02*
X589Y-1039D01*
X641Y-841D02*
X1037Y-1238D01*
X601Y-1039D02*
X631Y-1009D01*
X635D02*
Y-847D01*
X666Y-816D02*
X1062Y-1213D01*
X691Y-791D02*
X1087Y-1188D01*
X1175Y-1100D02*
X1350Y-925D01*
X3450D01*
X3733Y-1208D02*
X3865Y-1075D01*
X3708Y-1183D02*
X3881Y-1009D01*
X3901Y-1039D02*
X3931Y-1009D01*
X3909D02*
X3939Y-1039D01*
X3951D02*
X3981Y-1009D01*
X3959D02*
X3989Y-1039D01*
X3633Y-1108D02*
X3865Y-875D01*
X3608Y-1083D02*
X3865Y-825D01*
X3583Y-1058D02*
X3865Y-775D01*
X3683Y-1158D02*
X3865Y-975D01*
X3658Y-1133D02*
X3865Y-925D01*
X4001Y-1039D02*
X4031Y-1009D01*
X635Y-1055D02*
X975Y-715D01*
X635Y-955D02*
X875Y-715D01*
X635Y-1005D02*
X925Y-715D01*
X716Y-766D02*
X1112Y-1163D01*
X635Y-1105D02*
X1025Y-715D01*
X741Y-741D02*
X1137Y-1138D01*
X50Y-1500D02*
Y-50D01*
X635Y-1155D02*
X1075Y-715D01*
X635Y-1205D02*
X1125Y-715D01*
X635Y-1255D02*
X1175Y-715D01*
X766Y-716D02*
X1162Y-1113D01*
X815Y-715D02*
X1187Y-1088D01*
X440Y-1500D02*
X1225Y-715D01*
X865D02*
X1212Y-1063D01*
X490Y-1500D02*
X1275Y-715D01*
X915D02*
X1237Y-1038D01*
X965Y-715D02*
X1262Y-1013D01*
X1015Y-715D02*
X1287Y-988D01*
X540Y-1500D02*
X1325Y-715D01*
X590Y-1500D02*
X1375Y-715D01*
X640Y-1500D02*
X1425Y-715D01*
X690Y-1500D02*
X1475Y-715D01*
X740Y-1500D02*
X1525Y-715D01*
X1065D02*
X1312Y-963D01*
X740Y-1500D02*
X1525Y-715D01*
X50Y-940D02*
X235Y-755D01*
X50Y-750D02*
X235Y-935D01*
X1115Y-715D02*
X1337Y-938D01*
X1165Y-715D02*
X1375Y-925D01*
X1215Y-715D02*
X1425Y-925D01*
X1265Y-715D02*
X1475Y-925D01*
X1315Y-715D02*
X1525Y-925D01*
X1365Y-715D02*
X1575Y-925D01*
X1365D02*
X1575Y-715D01*
X1415D02*
X1625Y-925D01*
X1415D02*
X1625Y-715D01*
X1465D02*
X1675Y-925D01*
X1465D02*
X1675Y-715D01*
X1515D02*
X1725Y-925D01*
X1515D02*
X1725Y-715D01*
X1565D02*
X1775Y-925D01*
X1565D02*
X1775Y-715D01*
X1615D02*
X1825Y-925D01*
X1615D02*
X1825Y-715D01*
X1665D02*
X1875Y-925D01*
X1665D02*
X1875Y-715D01*
X1715D02*
X1925Y-925D01*
X1715D02*
X1925Y-715D01*
X1765D02*
X1975Y-925D01*
X1765D02*
X1975Y-715D01*
X1815D02*
X2025Y-925D01*
X1815D02*
X2025Y-715D01*
X1865D02*
X2075Y-925D01*
X1865D02*
X2075Y-715D01*
X1915D02*
X2125Y-925D01*
X1915D02*
X2125Y-715D01*
X1965D02*
X2175Y-925D01*
X1965D02*
X2175Y-715D01*
X2015D02*
X2225Y-925D01*
X2015D02*
X2225Y-715D01*
X3458Y-933D02*
X3675Y-715D01*
X2065D02*
X2275Y-925D01*
X2065D02*
X2275Y-715D01*
X3315D02*
X3865Y-1265D01*
X3483Y-958D02*
X3725Y-715D01*
X3365D02*
X3865Y-1215D01*
Y-1009D02*
Y-759D01*
X3508Y-983D02*
X3775Y-715D01*
X3533Y-1008D02*
X3825Y-715D01*
X3265D02*
X4000Y-1450D01*
X3415Y-715D02*
X3865Y-1165D01*
X3465Y-715D02*
X3865Y-1115D01*
X3515Y-715D02*
X3865Y-1065D01*
X3565Y-715D02*
X3889Y-1039D01*
X3615Y-715D02*
X3865Y-965D01*
X3558Y-1033D02*
X3875Y-715D01*
X2115D02*
X2325Y-925D01*
X2115D02*
X2325Y-715D01*
X2165D02*
X2375Y-925D01*
X2165D02*
X2375Y-715D01*
X2215D02*
X2425Y-925D01*
X2215D02*
X2425Y-715D01*
X2265D02*
X2475Y-925D01*
X2265D02*
X2475Y-715D01*
X2315D02*
X2525Y-925D01*
X2315D02*
X2525Y-715D01*
X2365D02*
X2575Y-925D01*
X2365D02*
X2575Y-715D01*
X2415D02*
X2625Y-925D01*
X2415D02*
X2625Y-715D01*
X2465D02*
X2675Y-925D01*
X2465D02*
X2675Y-715D01*
X2515D02*
X2725Y-925D01*
X2515D02*
X2725Y-715D01*
X2565D02*
X2775Y-925D01*
X2565D02*
X2775Y-715D01*
X2615D02*
X2825Y-925D01*
X2615D02*
X2825Y-715D01*
X2665D02*
X2875Y-925D01*
X2665D02*
X2875Y-715D01*
X2715D02*
X2925Y-925D01*
X2715D02*
X2925Y-715D01*
X3975Y-1450D02*
X4188D01*
X3958Y-1433D02*
X4064Y-1326D01*
X3990Y-1450D02*
X4089Y-1351D01*
X4040Y-1450D02*
X4114Y-1376D01*
X4090Y-1450D02*
X4139Y-1401D01*
X4140Y-1450D02*
X4164Y-1426D01*
X3889Y-1289D02*
X4050Y-1450D01*
X3939Y-1289D02*
X4100Y-1450D01*
X3989Y-1289D02*
X4150Y-1450D01*
X4028Y-1289D02*
X4188Y-1450D01*
X4135Y-1202D02*
X4318Y-1385D01*
X4135Y-1185D02*
X4335Y-1385D01*
X4318D02*
X4623D01*
X4312Y-1378D02*
X4401Y-1289D01*
X4355Y-1385D02*
X4451Y-1289D01*
X4455Y-1385D02*
X4539Y-1301D01*
X4505Y-1385D02*
X4564Y-1326D01*
X4555Y-1385D02*
X4589Y-1351D01*
X4135Y-1135D02*
X4385Y-1385D01*
X4135Y-1085D02*
X4435Y-1385D01*
X4389Y-1289D02*
X4485Y-1385D01*
X4405D02*
X4501Y-1289D01*
X4439D02*
X4535Y-1385D01*
X4489Y-1289D02*
X4585Y-1385D01*
X4528Y-1289D02*
X4621Y-1382D01*
X4212Y-1278D02*
X4365Y-1125D01*
X4135Y-1202D02*
Y-1039D01*
X3865D02*
X4135D01*
X4287Y-1353D02*
X4365Y-1275D01*
X4262Y-1328D02*
X4365Y-1225D01*
X4237Y-1303D02*
X4365Y-1175D01*
X4009Y-1009D02*
X4039Y-1039D01*
X4051D02*
X4081Y-1009D01*
X3865D02*
X4135D01*
X4365Y-1289D02*
Y-1039D01*
X4109Y-1009D02*
X4365Y-1265D01*
X4059Y-1009D02*
X4089Y-1039D01*
X4101D02*
X4131Y-1009D01*
X4365Y-1289D02*
X4528D01*
X4187Y-1253D02*
X4365Y-1075D01*
X4162Y-1228D02*
X4381Y-1009D01*
X4365Y-1265D02*
X4389Y-1289D01*
X4401Y-1039D02*
X4431Y-1009D01*
X4365Y-1039D02*
X4635D01*
X4409Y-1009D02*
X4439Y-1039D01*
X4451D02*
X4481Y-1009D01*
X4365D02*
X4635D01*
X4459D02*
X4489Y-1039D01*
X4501D02*
X4531Y-1009D01*
X4509D02*
X4539Y-1039D01*
X4551D02*
X4581Y-1009D01*
X6040Y-1400D02*
X6151Y-1289D01*
X4605Y-1385D02*
X4614Y-1376D01*
X6015Y-1375D02*
X6101Y-1289D01*
X6115Y-1475D02*
X6267Y-1323D01*
X6065Y-1425D02*
X6201Y-1289D01*
X6090Y-1450D02*
X6242Y-1298D01*
X5842Y-1202D02*
X6225Y-1585D01*
X4609Y-1009D02*
X4885Y-1285D01*
X5842Y-1192D02*
X6235Y-1585D01*
X5990Y-1350D02*
X6072Y-1268D01*
X5965Y-1325D02*
X6072Y-1218D01*
X5940Y-1300D02*
X6072Y-1168D01*
X6215Y-1575D02*
X6367Y-1423D01*
X6165Y-1525D02*
X6317Y-1373D01*
X6190Y-1550D02*
X6342Y-1398D01*
X6225Y-1585D02*
X6530D01*
X6255D02*
X6392Y-1448D01*
X6305Y-1585D02*
X6417Y-1473D01*
X5842Y-1142D02*
X6285Y-1585D01*
X5842Y-1092D02*
X6335Y-1585D01*
X6089Y-1289D02*
X6385Y-1585D01*
X6139Y-1289D02*
X6435Y-1585D01*
X6189Y-1289D02*
X6485Y-1585D01*
X6140Y-1500D02*
X6292Y-1348D01*
X6234Y-1289D02*
X6527Y-1582D01*
X4635Y-1202D02*
X4718Y-1285D01*
X4635Y-1185D02*
X4735Y-1285D01*
X4718D02*
X5572D01*
X5455D02*
X5572Y-1168D01*
X5505Y-1285D02*
X5572Y-1218D01*
X5555Y-1285D02*
X5572Y-1268D01*
X4635Y-1135D02*
X4785Y-1285D01*
X4559Y-1009D02*
X4589Y-1039D01*
X4601D02*
X4631Y-1009D01*
X4635Y-1085D02*
X4835Y-1285D01*
X5355D02*
X5572Y-1068D01*
X4635Y-1202D02*
Y-1039D01*
X5405Y-1285D02*
X5572Y-1118D01*
Y-1285D02*
Y-1039D01*
X5842Y-1042D02*
X6072Y-1272D01*
X5890Y-1250D02*
X6072Y-1068D01*
Y-1289D02*
X6234D01*
X5915Y-1275D02*
X6072Y-1118D01*
Y-1272D02*
X6089Y-1289D01*
X5305Y-1285D02*
X5581Y-1009D01*
X5601Y-1039D02*
X5631Y-1009D01*
X5572Y-1039D02*
X5842D01*
Y-1202D02*
Y-1039D01*
X6072Y-1289D02*
Y-1039D01*
X5609Y-1009D02*
X5639Y-1039D01*
X6072D02*
X6342D01*
X4615Y-715D02*
X5185Y-1285D01*
X4635Y-985D02*
X4935Y-1285D01*
X4635Y-935D02*
X4985Y-1285D01*
X4635Y-885D02*
X5035Y-1285D01*
X4635Y-835D02*
X5085Y-1285D01*
X4635Y-785D02*
X5135Y-1285D01*
X4665Y-715D02*
X5235Y-1285D01*
X4687Y-1253D02*
X5225Y-715D01*
X4712Y-1278D02*
X5275Y-715D01*
X4715D02*
X5285Y-1285D01*
X4755D02*
X5325Y-715D01*
X4765D02*
X5335Y-1285D01*
X4805D02*
X5375Y-715D01*
X4815D02*
X5385Y-1285D01*
X4855D02*
X5425Y-715D01*
X5055Y-1285D02*
X5572Y-768D01*
X5105Y-1285D02*
X5572Y-818D01*
X5155Y-1285D02*
X5572Y-868D01*
X4865Y-715D02*
X5435Y-1285D01*
X4905D02*
X5475Y-715D01*
X4915D02*
X5485Y-1285D01*
X4955D02*
X5525Y-715D01*
X4965D02*
X5535Y-1285D01*
X5015Y-715D02*
X5572Y-1272D01*
X5005Y-1285D02*
X5575Y-715D01*
X4135Y-985D02*
X4365Y-1215D01*
X4137Y-1203D02*
X4365Y-975D01*
X4135Y-935D02*
X4365Y-1165D01*
X4135Y-1155D02*
X4365Y-925D01*
X4135Y-885D02*
X4365Y-1115D01*
X4135Y-1105D02*
X4365Y-875D01*
X4135Y-835D02*
X4365Y-1065D01*
X4135Y-1055D02*
X4365Y-825D01*
X4115Y-715D02*
X4365Y-965D01*
X4135Y-1009D02*
Y-759D01*
X4365Y-1009D02*
Y-759D01*
X4135Y-1005D02*
X4365Y-775D01*
X4135Y-955D02*
X4375Y-715D01*
X4135Y-785D02*
X4389Y-1039D01*
X4635Y-1009D02*
Y-759D01*
Y-1055D02*
X4975Y-715D01*
X4635Y-955D02*
X4875Y-715D01*
X4635Y-1005D02*
X4925Y-715D01*
X4637Y-1203D02*
X5125Y-715D01*
X4635Y-1105D02*
X5025Y-715D01*
X4635Y-1155D02*
X5075Y-715D01*
X4662Y-1228D02*
X5175Y-715D01*
X5065D02*
X5572Y-1222D01*
X5115Y-715D02*
X5572Y-1172D01*
X5165Y-715D02*
X5572Y-1122D01*
X5651Y-1039D02*
X5681Y-1009D01*
X5659D02*
X5689Y-1039D01*
X5701D02*
X5731Y-1009D01*
X5709D02*
X5739Y-1039D01*
X5751D02*
X5781Y-1009D01*
X5759D02*
X5789Y-1039D01*
X5205Y-1285D02*
X5572Y-918D01*
X5255Y-1285D02*
X5572Y-968D01*
X5215Y-715D02*
X5572Y-1072D01*
X5265Y-715D02*
X5589Y-1039D01*
X5801D02*
X5831Y-1009D01*
X5809D02*
X5839Y-1039D01*
X5842Y-992D02*
X6072Y-1222D01*
X5842Y-1198D02*
X6072Y-968D01*
X5842Y-942D02*
X6072Y-1172D01*
X5865Y-1225D02*
X6081Y-1009D01*
X6101Y-1039D02*
X6131Y-1009D01*
X6109D02*
X6139Y-1039D01*
X5842Y-1148D02*
X6072Y-918D01*
X5842Y-892D02*
X6072Y-1122D01*
X5842Y-1098D02*
X6072Y-868D01*
X5842Y-842D02*
X6072Y-1072D01*
X5842Y-1048D02*
X6072Y-818D01*
X5842Y-792D02*
X6089Y-1039D01*
X6342Y-1048D02*
X6572Y-818D01*
X5572Y-1009D02*
X5842D01*
X5831D02*
X5842Y-998D01*
X6151Y-1039D02*
X6181Y-1009D01*
X6159D02*
X6189Y-1039D01*
X5572Y-1009D02*
Y-759D01*
X5315Y-715D02*
X5572Y-972D01*
X5815Y-715D02*
X6072Y-972D01*
X5842Y-1009D02*
Y-759D01*
X6072Y-1009D02*
Y-759D01*
X5842Y-998D02*
X6072Y-768D01*
X5842Y-948D02*
X6075Y-715D01*
X6201Y-1039D02*
X6231Y-1009D01*
X6209D02*
X6239Y-1039D01*
X6251D02*
X6281Y-1009D01*
X6259D02*
X6289Y-1039D01*
X6301D02*
X6331Y-1009D01*
X6309D02*
X6339Y-1039D01*
X6072Y-1009D02*
X6342D01*
X6331D02*
X6342Y-998D01*
X6315Y-715D02*
X6572Y-972D01*
X6342Y-1009D02*
Y-759D01*
Y-792D02*
X6589Y-1039D01*
X6342Y-998D02*
X6572Y-768D01*
X6342Y-948D02*
X6575Y-715D01*
X50Y-700D02*
X235Y-885D01*
X50Y-650D02*
X235Y-835D01*
Y-782D02*
Y-718D01*
Y-782D02*
Y-718D01*
X267Y-685D01*
X235Y-718D02*
X267Y-685D01*
X50Y-600D02*
X235Y-785D01*
X50Y-550D02*
X235Y-735D01*
X50Y-500D02*
X251Y-701D01*
X50Y-450D02*
X276Y-676D01*
X50Y-400D02*
X301Y-651D01*
X50Y-350D02*
X326Y-626D01*
X50Y-300D02*
X351Y-601D01*
X50Y-250D02*
X376Y-576D01*
X50Y-200D02*
X401Y-551D01*
X267Y-685D02*
X435Y-518D01*
X50Y-150D02*
X426Y-526D01*
X50Y-540D02*
X540Y-50D01*
X50Y-690D02*
X690Y-50D01*
X50Y-590D02*
X590Y-50D01*
X50Y-640D02*
X640Y-50D01*
X50Y-840D02*
X840Y-50D01*
X50Y-890D02*
X890Y-50D01*
X50Y-740D02*
X740Y-50D01*
X50Y-790D02*
X790Y-50D01*
X50Y-100D02*
X451Y-501D01*
X50Y-90D02*
X90Y-50D01*
X50Y-140D02*
X140Y-50D01*
X435Y-518D02*
X468Y-485D01*
X50Y-190D02*
X190Y-50D01*
X435Y-518D02*
X468Y-485D01*
X50Y-340D02*
X340Y-50D01*
X50Y-240D02*
X240Y-50D01*
X50Y-290D02*
X290Y-50D01*
X50Y-50D02*
X485Y-485D01*
X50Y-390D02*
X390Y-50D01*
X50Y-440D02*
X440Y-50D01*
X50Y-490D02*
X490Y-50D01*
X100D02*
X535Y-485D01*
X150Y-50D02*
X585Y-485D01*
X200Y-50D02*
X635Y-485D01*
X468D02*
X532D01*
X468D02*
X532D01*
X250Y-50D02*
X685Y-485D01*
X300Y-50D02*
X735Y-485D01*
X350Y-50D02*
X785Y-485D01*
X400Y-50D02*
X835Y-485D01*
X450Y-50D02*
X885Y-485D01*
X500Y-50D02*
X935Y-485D01*
X505D02*
X940Y-50D01*
X2765Y-715D02*
X2975Y-925D01*
X2765D02*
X2975Y-715D01*
X2815D02*
X3025Y-925D01*
X2815D02*
X3025Y-715D01*
X2865D02*
X3075Y-925D01*
X2865D02*
X3075Y-715D01*
X2915D02*
X3125Y-925D01*
X2915D02*
X3125Y-715D01*
X2965D02*
X3175Y-925D01*
X2965D02*
X3175Y-715D01*
X3015D02*
X3225Y-925D01*
X3015D02*
X3225Y-715D01*
X3065D02*
X3275Y-925D01*
X3065D02*
X3275Y-715D01*
X3115D02*
X3325Y-925D01*
X3115D02*
X3325Y-715D01*
X3165D02*
X3375Y-925D01*
X3165D02*
X3375Y-715D01*
X3215D02*
X3425Y-925D01*
X3215D02*
X3425Y-715D01*
X3265Y-925D02*
X3475Y-715D01*
X3315Y-925D02*
X3525Y-715D01*
X3365Y-925D02*
X3575Y-715D01*
X3415Y-925D02*
X3625Y-715D01*
X3665D02*
X3865Y-915D01*
X550Y-50D02*
X985Y-485D01*
X555D02*
X990Y-50D01*
X600D02*
X1035Y-485D01*
X635Y-905D02*
X825Y-715D01*
X635Y-847D02*
X767Y-715D01*
X635Y-855D02*
X775Y-715D01*
X605Y-485D02*
X1040Y-50D01*
X650D02*
X1085Y-485D01*
X655D02*
X1090Y-50D01*
X700D02*
X1135Y-485D01*
X705D02*
X1140Y-50D01*
X750D02*
X1185Y-485D01*
X755D02*
X1190Y-50D01*
X3715Y-715D02*
X3865Y-865D01*
X3765Y-715D02*
X3865Y-815D01*
X3815Y-715D02*
X3865Y-765D01*
Y-775D02*
X3881Y-759D01*
X3865Y-715D02*
X3909Y-759D01*
X3881D02*
X3925Y-715D01*
X800Y-50D02*
X1235Y-485D01*
X805D02*
X1240Y-50D01*
X850D02*
X1285Y-485D01*
X855D02*
X1290Y-50D01*
X900D02*
X1335Y-485D01*
X905D02*
X1340Y-50D01*
X950D02*
X1385Y-485D01*
X955D02*
X1390Y-50D01*
X1000D02*
X1435Y-485D01*
X1005D02*
X1440Y-50D01*
X1050D02*
X1485Y-485D01*
X1055D02*
X1490Y-50D01*
X1100D02*
X1535Y-485D01*
X1105D02*
X1540Y-50D01*
X1150D02*
X1585Y-485D01*
X1155D02*
X1590Y-50D01*
X1200D02*
X1635Y-485D01*
X1205D02*
X1640Y-50D01*
X1250D02*
X1685Y-485D01*
X1255D02*
X1690Y-50D01*
X1300D02*
X1735Y-485D01*
X1305D02*
X1740Y-50D01*
X1350D02*
X1785Y-485D01*
X1355D02*
X1790Y-50D01*
X1400D02*
X1835Y-485D01*
X1405D02*
X1840Y-50D01*
X1450D02*
X1885Y-485D01*
X1455D02*
X1890Y-50D01*
X1500D02*
X1935Y-485D01*
X1505D02*
X1940Y-50D01*
X1550D02*
X1985Y-485D01*
X1555D02*
X1990Y-50D01*
X1600D02*
X2035Y-485D01*
X1605D02*
X2040Y-50D01*
X1650D02*
X2085Y-485D01*
X1655D02*
X2090Y-50D01*
X1700D02*
X2135Y-485D01*
X1705D02*
X2140Y-50D01*
X1750D02*
X2185Y-485D01*
X1755D02*
X2190Y-50D01*
X1755Y-485D02*
X2190Y-50D01*
X1800D02*
X2235Y-485D01*
X1805D02*
X2240Y-50D01*
X1850D02*
X2285Y-485D01*
X1855D02*
X2290Y-50D01*
X1900D02*
X2335Y-485D01*
X1905D02*
X2340Y-50D01*
X1950D02*
X2385Y-485D01*
X1955D02*
X2390Y-50D01*
X2000D02*
X2435Y-485D01*
X2005D02*
X2440Y-50D01*
X2050D02*
X2485Y-485D01*
X2055D02*
X2490Y-50D01*
X2100D02*
X2535Y-485D01*
X2105D02*
X2540Y-50D01*
X2150D02*
X2585Y-485D01*
X2155D02*
X2590Y-50D01*
X2200D02*
X2635Y-485D01*
X2205D02*
X2640Y-50D01*
X2250D02*
X2685Y-485D01*
X2255D02*
X2690Y-50D01*
X2300D02*
X2735Y-485D01*
X2305D02*
X2740Y-50D01*
X2350D02*
X2785Y-485D01*
X2355D02*
X2790Y-50D01*
X2400D02*
X2835Y-485D01*
X2405D02*
X2840Y-50D01*
X2450D02*
X2885Y-485D01*
X2455D02*
X2890Y-50D01*
X2500D02*
X2935Y-485D01*
X2505D02*
X2940Y-50D01*
X2550D02*
X2985Y-485D01*
X2555D02*
X2990Y-50D01*
X2600D02*
X3035Y-485D01*
X2605D02*
X3040Y-50D01*
X2650D02*
X3085Y-485D01*
X2655D02*
X3090Y-50D01*
X2700D02*
X3135Y-485D01*
X2705D02*
X3140Y-50D01*
X2750D02*
X3185Y-485D01*
X2755D02*
X3190Y-50D01*
X2800D02*
X3235Y-485D01*
X2805D02*
X3240Y-50D01*
X2850D02*
X3285Y-485D01*
X2855D02*
X3290Y-50D01*
X2900D02*
X3335Y-485D01*
X2905D02*
X3340Y-50D01*
X2950D02*
X3385Y-485D01*
X2955D02*
X3390Y-50D01*
X3000D02*
X3435Y-485D01*
X3005D02*
X3440Y-50D01*
X3050D02*
X3485Y-485D01*
X3055D02*
X3490Y-50D01*
X3100D02*
X3535Y-485D01*
X3105D02*
X3540Y-50D01*
X3150D02*
X3585Y-485D01*
X3155D02*
X3590Y-50D01*
X3200D02*
X3635Y-485D01*
X3205D02*
X3640Y-50D01*
X3250D02*
X3685Y-485D01*
X3255D02*
X3690Y-50D01*
X3300D02*
X3735Y-485D01*
X3305D02*
X3740Y-50D01*
X3350D02*
X3785Y-485D01*
X3355D02*
X3790Y-50D01*
X3400D02*
X3835Y-485D01*
X3405D02*
X3840Y-50D01*
X3450D02*
X3885Y-485D01*
X3455D02*
X3890Y-50D01*
X3915Y-715D02*
X3959Y-759D01*
X3931D02*
X3975Y-715D01*
X4109Y-759D02*
X4135Y-785D01*
X3965Y-715D02*
X4009Y-759D01*
X3981D02*
X4025Y-715D01*
X4015D02*
X4059Y-759D01*
X4031D02*
X4075Y-715D01*
X4065D02*
X4109Y-759D01*
X4081D02*
X4125Y-715D01*
X4365Y-775D02*
X4381Y-759D01*
X3865D02*
X4135D01*
X4131D02*
X4175Y-715D01*
X4135Y-905D02*
X4325Y-715D01*
X4135Y-805D02*
X4225Y-715D01*
X4135Y-855D02*
X4275Y-715D01*
X4165D02*
X4365Y-915D01*
X4215Y-715D02*
X4365Y-865D01*
X4265Y-715D02*
X4365Y-815D01*
X4315Y-715D02*
X4365Y-765D01*
X3500Y-50D02*
X3935Y-485D01*
X3505D02*
X3940Y-50D01*
X3550D02*
X3985Y-485D01*
X3555D02*
X3990Y-50D01*
X3600D02*
X4035Y-485D01*
X3605D02*
X4040Y-50D01*
X3650D02*
X4085Y-485D01*
X3655D02*
X4090Y-50D01*
X3700D02*
X4135Y-485D01*
X3705D02*
X4140Y-50D01*
X3750D02*
X4185Y-485D01*
X3755D02*
X4190Y-50D01*
X3800D02*
X4235Y-485D01*
X4365Y-759D02*
X4635D01*
X4365Y-715D02*
X4409Y-759D01*
X4381D02*
X4425Y-715D01*
X4415D02*
X4459Y-759D01*
X4431D02*
X4475Y-715D01*
X4465D02*
X4509Y-759D01*
X4481D02*
X4525Y-715D01*
X767D02*
X9218D01*
X532Y-485D02*
X9468D01*
X4515Y-715D02*
X4559Y-759D01*
X4531D02*
X4575Y-715D01*
X4565D02*
X4609Y-759D01*
X4581D02*
X4625Y-715D01*
X4635Y-805D02*
X4725Y-715D01*
X4609Y-759D02*
X4635Y-785D01*
X5572Y-768D02*
X5581Y-759D01*
X5365Y-715D02*
X5572Y-922D01*
X4635Y-855D02*
X4775Y-715D01*
X4635Y-905D02*
X4825Y-715D01*
X5415D02*
X5572Y-872D01*
X5465Y-715D02*
X5572Y-822D01*
X5515Y-715D02*
X5572Y-772D01*
X5842Y-898D02*
X6025Y-715D01*
X5842Y-798D02*
X5925Y-715D01*
X5842Y-848D02*
X5975Y-715D01*
X5865D02*
X6072Y-922D01*
X5915Y-715D02*
X6072Y-872D01*
X5965Y-715D02*
X6072Y-822D01*
X6342Y-848D02*
X6475Y-715D01*
X6342Y-898D02*
X6525Y-715D01*
X6015D02*
X6072Y-772D01*
X6342Y-798D02*
X6425Y-715D01*
X4631Y-759D02*
X4675Y-715D01*
X5565D02*
X5609Y-759D01*
X5572D02*
X5842D01*
X5581D02*
X5625Y-715D01*
X5615D02*
X5659Y-759D01*
X5631D02*
X5675Y-715D01*
X5665D02*
X5709Y-759D01*
X5681D02*
X5725Y-715D01*
X5715D02*
X5759Y-759D01*
X5731D02*
X5775Y-715D01*
X5765D02*
X5809Y-759D01*
X5781D02*
X5825Y-715D01*
X5831Y-759D02*
X5875Y-715D01*
X6072Y-768D02*
X6081Y-759D01*
X6065Y-715D02*
X6109Y-759D01*
X6072D02*
X6342D01*
X6081D02*
X6125Y-715D01*
X6115D02*
X6159Y-759D01*
X6131D02*
X6175Y-715D01*
X6165D02*
X6209Y-759D01*
X6181D02*
X6225Y-715D01*
X6215D02*
X6259Y-759D01*
X6231D02*
X6275Y-715D01*
X6265D02*
X6309Y-759D01*
X6281D02*
X6325Y-715D01*
X6331Y-759D02*
X6375Y-715D01*
X3805Y-485D02*
X4240Y-50D01*
X3850D02*
X4285Y-485D01*
X3855D02*
X4290Y-50D01*
X3900D02*
X4335Y-485D01*
X3905D02*
X4340Y-50D01*
X3950D02*
X4385Y-485D01*
X3955D02*
X4390Y-50D01*
X4000D02*
X4435Y-485D01*
X4005D02*
X4440Y-50D01*
X4050D02*
X4485Y-485D01*
X4055D02*
X4490Y-50D01*
X4100D02*
X4535Y-485D01*
X4105D02*
X4540Y-50D01*
X4150D02*
X4585Y-485D01*
X4155D02*
X4590Y-50D01*
X4200D02*
X4635Y-485D01*
X4205D02*
X4640Y-50D01*
X4250D02*
X4685Y-485D01*
X4255D02*
X4690Y-50D01*
X4300D02*
X4735Y-485D01*
X4305D02*
X4740Y-50D01*
X4350D02*
X4785Y-485D01*
X4355D02*
X4790Y-50D01*
X4400D02*
X4835Y-485D01*
X4405D02*
X4840Y-50D01*
X4450D02*
X4885Y-485D01*
X4455D02*
X4890Y-50D01*
X4500D02*
X4935Y-485D01*
X4505D02*
X4940Y-50D01*
X4550D02*
X4985Y-485D01*
X4555D02*
X4990Y-50D01*
X4600D02*
X5035Y-485D01*
X4605D02*
X5040Y-50D01*
X4650D02*
X5085Y-485D01*
X4655D02*
X5090Y-50D01*
X4700D02*
X5135Y-485D01*
X4705D02*
X5140Y-50D01*
X4750D02*
X5185Y-485D01*
X4755D02*
X5190Y-50D01*
X4800D02*
X5235Y-485D01*
X4805D02*
X5240Y-50D01*
X4850D02*
X5285Y-485D01*
X4855D02*
X5290Y-50D01*
X4900D02*
X5335Y-485D01*
X4905D02*
X5340Y-50D01*
X4950D02*
X5385Y-485D01*
X50Y-50D02*
X10150D01*
X4955Y-485D02*
X5390Y-50D01*
X5000D02*
X5435Y-485D01*
X5005D02*
X5440Y-50D01*
X5050D02*
X5485Y-485D01*
X5055D02*
X5490Y-50D01*
X5100D02*
X5535Y-485D01*
X5105D02*
X5540Y-50D01*
X5150D02*
X5585Y-485D01*
X5155D02*
X5590Y-50D01*
X5200D02*
X5635Y-485D01*
X5205D02*
X5640Y-50D01*
X5250D02*
X5685Y-485D01*
X5255D02*
X5690Y-50D01*
X5300D02*
X5735Y-485D01*
X5305D02*
X5740Y-50D01*
X5350D02*
X5785Y-485D01*
X5355D02*
X5790Y-50D01*
X5400D02*
X5835Y-485D01*
X5405D02*
X5840Y-50D01*
X5450D02*
X5885Y-485D01*
X5455D02*
X5890Y-50D01*
X5500D02*
X5935Y-485D01*
X5505D02*
X5940Y-50D01*
X5550D02*
X5985Y-485D01*
X5555D02*
X5990Y-50D01*
X5600D02*
X6035Y-485D01*
X5605D02*
X6040Y-50D01*
X5650D02*
X6085Y-485D01*
X5655D02*
X6090Y-50D01*
X5700D02*
X6135Y-485D01*
X5705D02*
X6140Y-50D01*
X5750D02*
X6185Y-485D01*
X5755D02*
X6190Y-50D01*
X5800D02*
X6235Y-485D01*
X5805D02*
X6240Y-50D01*
X5850D02*
X6285Y-485D01*
X5855D02*
X6290Y-50D01*
X5900D02*
X6335Y-485D01*
X5905D02*
X6340Y-50D01*
X5950D02*
X6385Y-485D01*
X5955D02*
X6390Y-50D01*
X6000D02*
X6435Y-485D01*
X6005D02*
X6440Y-50D01*
X6050D02*
X6485Y-485D01*
X6055D02*
X6490Y-50D01*
X6100D02*
X6535Y-485D01*
X6105D02*
X6540Y-50D01*
X6150D02*
X6585Y-485D01*
X6155D02*
X6590Y-50D01*
X6200D02*
X6635Y-485D01*
X6205D02*
X6640Y-50D01*
X6250D02*
X6685Y-485D01*
X6255D02*
X6690Y-50D01*
X6300D02*
X6735Y-485D01*
X6305D02*
X6740Y-50D01*
X6355Y-1585D02*
X6442Y-1498D01*
X6405Y-1585D02*
X6467Y-1523D01*
X6455Y-1585D02*
X6492Y-1548D01*
X6505Y-1585D02*
X6517Y-1573D01*
X6590Y-1450D02*
X6742Y-1298D01*
X6615Y-1475D02*
X6767Y-1323D01*
X6342Y-1202D02*
X6625Y-1485D01*
X6342Y-1192D02*
X6635Y-1485D01*
X6342Y-1142D02*
X6685Y-1485D01*
X6342Y-1092D02*
X6735Y-1485D01*
X6540Y-1400D02*
X6651Y-1289D01*
X6565Y-1425D02*
X6701Y-1289D01*
X6625Y-1485D02*
X6930D01*
X6705D02*
X6817Y-1373D01*
X6755Y-1485D02*
X6842Y-1398D01*
X6805Y-1485D02*
X6867Y-1423D01*
X6855Y-1485D02*
X6892Y-1448D01*
X6905Y-1485D02*
X6917Y-1473D01*
X6589Y-1289D02*
X6785Y-1485D01*
X6655D02*
X6792Y-1348D01*
X6639Y-1289D02*
X6835Y-1485D01*
X6689Y-1289D02*
X6885Y-1485D01*
X6734Y-1289D02*
X6927Y-1482D01*
X6842Y-1202D02*
X7025Y-1385D01*
X6842Y-1192D02*
X7035Y-1385D01*
X6515Y-1375D02*
X6601Y-1289D01*
X6490Y-1350D02*
X6572Y-1268D01*
X6465Y-1325D02*
X6572Y-1218D01*
X6990Y-1350D02*
X7072Y-1268D01*
X6572Y-1272D02*
X6589Y-1289D01*
X6572D02*
X6734D01*
X6342Y-1042D02*
X6572Y-1272D01*
X6342Y-1202D02*
Y-1039D01*
X6390Y-1250D02*
X6572Y-1068D01*
X6965Y-1325D02*
X7072Y-1218D01*
X6440Y-1300D02*
X6572Y-1168D01*
X6415Y-1275D02*
X6572Y-1118D01*
X7025Y-1385D02*
X7330D01*
X7015Y-1375D02*
X7101Y-1289D01*
X7055Y-1385D02*
X7151Y-1289D01*
X7089D02*
X7185Y-1385D01*
X7105D02*
X7201Y-1289D01*
X7072D02*
X7234D01*
X6842Y-1142D02*
X7085Y-1385D01*
X6842Y-1042D02*
X7072Y-1272D01*
X6842Y-1092D02*
X7135Y-1385D01*
X6940Y-1300D02*
X7072Y-1168D01*
Y-1272D02*
X7089Y-1289D01*
X6915Y-1275D02*
X7072Y-1118D01*
X6890Y-1250D02*
X7072Y-1068D01*
X7139Y-1289D02*
X7235Y-1385D01*
X7155D02*
X7242Y-1298D01*
X7189Y-1289D02*
X7285Y-1385D01*
X7205D02*
X7267Y-1323D01*
X7255Y-1385D02*
X7292Y-1348D01*
X7305Y-1385D02*
X7317Y-1373D01*
X7234Y-1289D02*
X7327Y-1382D01*
X7342Y-1202D02*
X7425Y-1285D01*
X7342Y-1192D02*
X7435Y-1285D01*
X7342Y-1142D02*
X7485Y-1285D01*
X7342Y-1092D02*
X7535Y-1285D01*
X7425D02*
X7572D01*
X7505D02*
X7572Y-1218D01*
X7555Y-1285D02*
X7572Y-1268D01*
X8072Y-1274D02*
X8082Y-1285D01*
X8990Y-1350D02*
X9040Y-1300D01*
X8965Y-1325D02*
X9015Y-1275D01*
X8940Y-1300D02*
X9015Y-1225D01*
X7455Y-1285D02*
X7572Y-1168D01*
X7415Y-1275D02*
X7572Y-1118D01*
X7342Y-1042D02*
X7572Y-1272D01*
X9015Y-1300D02*
Y-1050D01*
X8915Y-1275D02*
X9015Y-1175D01*
X7842Y-1042D02*
X8072Y-1272D01*
X7929Y-1132D02*
X8072Y-1274D01*
X7842Y-1092D02*
X7849Y-1099D01*
X7842D02*
X7897D01*
X7842D02*
X7897D01*
X8044Y-1246D02*
X8072Y-1218D01*
X8019Y-1221D02*
X8072Y-1168D01*
X7994Y-1196D02*
X8072Y-1118D01*
X7390Y-1250D02*
X7572Y-1068D01*
X7897Y-1099D02*
X7929Y-1132D01*
X7897Y-1099D02*
X7929Y-1132D01*
X7969Y-1171D02*
X8072Y-1068D01*
X8342Y-1092D02*
X8349Y-1099D01*
X8342D02*
X8382D01*
X8342Y-1042D02*
X8399Y-1099D01*
X8479Y-1132D02*
X8572Y-1224D01*
X8382Y-1099D02*
X8447D01*
X8382D02*
X8447D01*
X8890Y-1250D02*
X9015Y-1125D01*
X8544Y-1196D02*
X8572Y-1168D01*
X8519Y-1171D02*
X8572Y-1118D01*
X8494Y-1146D02*
X8572Y-1068D01*
X8447Y-1099D02*
X8479Y-1132D01*
X8447Y-1099D02*
X8479Y-1132D01*
X8842Y-1092D02*
X9015Y-1265D01*
X8865Y-1225D02*
X9015Y-1075D01*
X8842Y-1042D02*
X9015Y-1215D01*
Y-1075D02*
X9040Y-1050D01*
X6572Y-1289D02*
Y-1039D01*
X6342Y-992D02*
X6572Y-1222D01*
X6365Y-1225D02*
X6581Y-1009D01*
X7072Y-1289D02*
Y-1039D01*
X6842Y-1202D02*
Y-1039D01*
Y-992D02*
X7072Y-1222D01*
X6342Y-1198D02*
X6572Y-968D01*
X6342Y-942D02*
X6572Y-1172D01*
X6342Y-1148D02*
X6572Y-918D01*
X6342Y-892D02*
X6572Y-1122D01*
X6342Y-1098D02*
X6572Y-868D01*
X6342Y-842D02*
X6572Y-1072D01*
X6865Y-1225D02*
X7081Y-1009D01*
X6842Y-1198D02*
X7072Y-968D01*
X6842Y-942D02*
X7072Y-1172D01*
X7342Y-992D02*
X7572Y-1222D01*
X7342Y-1202D02*
Y-1039D01*
Y-1198D02*
X7572Y-968D01*
X6842Y-1148D02*
X7072Y-918D01*
X6842Y-892D02*
X7072Y-1122D01*
X6842Y-1098D02*
X7072Y-868D01*
X7342Y-942D02*
X7572Y-1172D01*
X7342Y-1148D02*
X7572Y-918D01*
X7342Y-892D02*
X7572Y-1122D01*
X7342Y-1098D02*
X7572Y-868D01*
X6572Y-1039D02*
X6842D01*
X6601D02*
X6631Y-1009D01*
X6609D02*
X6639Y-1039D01*
X6651D02*
X6681Y-1009D01*
X6659D02*
X6689Y-1039D01*
X6701D02*
X6731Y-1009D01*
X6709D02*
X6739Y-1039D01*
X6751D02*
X6781Y-1009D01*
X6759D02*
X6789Y-1039D01*
X6842Y-842D02*
X7072Y-1072D01*
X6842Y-1048D02*
X7072Y-818D01*
X6801Y-1039D02*
X6831Y-1009D01*
X6809D02*
X6839Y-1039D01*
X7072D02*
X7342D01*
X7101D02*
X7131Y-1009D01*
X7109D02*
X7139Y-1039D01*
X7151D02*
X7181Y-1009D01*
X7159D02*
X7189Y-1039D01*
X7201D02*
X7231Y-1009D01*
X6842Y-792D02*
X7089Y-1039D01*
X7209Y-1009D02*
X7239Y-1039D01*
X7251D02*
X7281Y-1009D01*
X7259D02*
X7289Y-1039D01*
X7342Y-842D02*
X7572Y-1072D01*
X7301Y-1039D02*
X7331Y-1009D01*
X7309D02*
X7339Y-1039D01*
X7572Y-1285D02*
Y-1039D01*
X7365Y-1225D02*
X7581Y-1009D01*
X7842Y-1099D02*
Y-1039D01*
X8072Y-1274D02*
Y-1039D01*
X7944Y-1146D02*
X8081Y-1009D01*
X8342Y-1099D02*
Y-1039D01*
X7842Y-992D02*
X8072Y-1222D01*
X7842Y-942D02*
X8072Y-1172D01*
X7842Y-892D02*
X8072Y-1122D01*
X7919Y-1121D02*
X8072Y-968D01*
X7842Y-1098D02*
X8072Y-868D01*
X7891Y-1099D02*
X8072Y-918D01*
X8342Y-992D02*
X8572Y-1222D01*
Y-1224D02*
Y-1039D01*
X8469Y-1121D02*
X8581Y-1009D01*
X8842Y-1202D02*
Y-1039D01*
Y-992D02*
X9015Y-1165D01*
X8842Y-1198D02*
X9020Y-1020D01*
X8342Y-942D02*
X8572Y-1172D01*
X8342Y-892D02*
X8572Y-1122D01*
X8342Y-1098D02*
X8572Y-868D01*
X8842Y-1148D02*
X9015Y-975D01*
X8842Y-942D02*
X9015Y-1115D01*
X8391Y-1099D02*
X8572Y-918D01*
X8441Y-1099D02*
X8572Y-968D01*
X7572Y-1039D02*
X7842D01*
X7601D02*
X7631Y-1009D01*
X7609D02*
X7639Y-1039D01*
X7651D02*
X7681Y-1009D01*
X7659D02*
X7689Y-1039D01*
X7701D02*
X7731Y-1009D01*
X7342Y-1048D02*
X7572Y-818D01*
X7342Y-792D02*
X7589Y-1039D01*
X7709Y-1009D02*
X7739Y-1039D01*
X7751D02*
X7781Y-1009D01*
X7759D02*
X7789Y-1039D01*
X7801D02*
X7831Y-1009D01*
X7809D02*
X7839Y-1039D01*
X8072D02*
X8342D01*
X8101D02*
X8131Y-1009D01*
X8109D02*
X8139Y-1039D01*
X8842Y-1098D02*
X9015Y-925D01*
X8151Y-1039D02*
X8181Y-1009D01*
X8159D02*
X8189Y-1039D01*
X7842Y-842D02*
X8072Y-1072D01*
X7842Y-1048D02*
X8072Y-818D01*
X7842Y-792D02*
X8089Y-1039D01*
X8342Y-842D02*
X8572Y-1072D01*
X8842Y-892D02*
X9015Y-1065D01*
X8342Y-1048D02*
X8572Y-818D01*
X8842Y-1048D02*
X9015Y-875D01*
X9250Y-1610D02*
X9280D01*
X9215Y-1575D02*
X9271Y-1519D01*
X9240Y-1600D02*
X9280Y-1560D01*
Y-1610D02*
Y-1527D01*
X9520Y-1586D02*
X9534Y-1572D01*
X9520Y-1570D02*
X9528Y-1578D01*
X9118Y-1365D02*
X9280Y-1527D01*
X9140Y-1500D02*
X9196Y-1444D01*
X9165Y-1525D02*
X9221Y-1469D01*
X9520Y-1586D02*
Y-1490D01*
X9190Y-1550D02*
X9246Y-1494D01*
X9460Y-1430D02*
X9520Y-1490D01*
X9618Y-1938D02*
X9714D01*
X9618D02*
X9632Y-1924D01*
X9618Y-1684D02*
X9714D01*
X9628Y-1928D02*
X9638Y-1938D01*
X9652D02*
X9666Y-1924D01*
X9632D02*
X9714D01*
X9520Y-1570D02*
X9534Y-1556D01*
X9520Y-1520D02*
X9534Y-1534D01*
X9520Y-1520D02*
X9534Y-1506D01*
X9618Y-1684D02*
X9632Y-1670D01*
X9626Y-1676D02*
X9634Y-1684D01*
X9534Y-1572D02*
Y-1490D01*
X9632Y-1670D02*
X9714D01*
X9115Y-1475D02*
X9171Y-1419D01*
X9364Y-1416D02*
X9378Y-1430D01*
X9366Y-1416D02*
X9380Y-1430D01*
X9378D02*
X9460D01*
X9410D02*
X9424Y-1416D01*
X9416D02*
X9430Y-1430D01*
X9065Y-1425D02*
X9121Y-1369D01*
X9040Y-1400D02*
X9096Y-1344D01*
X9085Y-1332D02*
X9118Y-1365D01*
X9090Y-1450D02*
X9146Y-1394D01*
X9364Y-1416D02*
X9460D01*
X9085Y-1332D02*
X9118Y-1365D01*
X9460Y-1416D02*
X9520Y-1356D01*
X9463Y-1413D02*
X9537Y-1487D01*
X9534Y-1490D02*
X9594Y-1430D01*
X9714D01*
X9610D02*
X9624Y-1416D01*
X9616D02*
X9630Y-1430D01*
X9594Y-1416D02*
X9714D01*
X9488Y-1388D02*
X9562Y-1462D01*
X9460Y-1430D02*
X9534Y-1356D01*
X9485Y-1455D02*
X9559Y-1381D01*
X9510Y-1480D02*
X9584Y-1406D01*
X9513Y-1363D02*
X9587Y-1437D01*
X9520Y-1320D02*
X9534Y-1334D01*
Y-1356D02*
X9594Y-1416D01*
X9717Y-2175D02*
X10150D01*
X9717D02*
X9774Y-2118D01*
X9746Y-2146D02*
X9775Y-2175D01*
X9771Y-2121D02*
X9825Y-2175D01*
X9774Y-2074D02*
X9875Y-2175D01*
X9774Y-2024D02*
X9925Y-2175D01*
X9719Y-1919D02*
X9975Y-2175D01*
X9744Y-1894D02*
X10025Y-2175D01*
X9765D02*
X10150Y-1790D01*
X9769Y-1869D02*
X10075Y-2175D01*
X9774Y-2118D02*
Y-1998D01*
Y-1824D02*
X10125Y-2175D01*
X9865D02*
X10150Y-1890D01*
X9915Y-2175D02*
X10150Y-1940D01*
X9965Y-2175D02*
X10150Y-1990D01*
X10015Y-2175D02*
X10150Y-2040D01*
X10065Y-2175D02*
X10150Y-2090D01*
X10115Y-2175D02*
X10150Y-2140D01*
X9774Y-1774D02*
X10150Y-2150D01*
X9717Y-1667D02*
X10150Y-2100D01*
X9742Y-1642D02*
X10150Y-2050D01*
X9815Y-2175D02*
X10150Y-1840D01*
X9774Y-2116D02*
X10150Y-1740D01*
X9774Y-2066D02*
X10150Y-1690D01*
X9774Y-2016D02*
X10150Y-1640D01*
X9714Y-1938D02*
X9774Y-1998D01*
X9656Y-1684D02*
X9670Y-1670D01*
X9674Y-1924D02*
X9688Y-1938D01*
X9714Y-1924D02*
X9774Y-1864D01*
Y-1744D01*
X9714Y-1684D02*
X9774Y-1744D01*
X9670Y-1670D02*
X9684Y-1684D01*
X9660Y-1430D02*
X9674Y-1416D01*
X9666D02*
X9680Y-1430D01*
X9714Y-1670D02*
X9774Y-1610D01*
Y-1490D01*
X9714Y-1430D02*
X9774Y-1490D01*
X9714Y-1416D02*
X9774Y-1356D01*
X9758Y-1982D02*
X10150Y-1590D01*
X9733Y-1957D02*
X10150Y-1540D01*
X9702Y-1938D02*
X10150Y-1490D01*
X9767Y-1617D02*
X10150Y-2000D01*
X9774Y-1574D02*
X10150Y-1950D01*
X9774Y-1524D02*
X10150Y-1900D01*
X9715Y-1415D02*
X10150Y-1850D01*
X9740Y-1390D02*
X10150Y-1800D01*
X9765Y-1365D02*
X10150Y-1750D01*
X9774Y-1816D02*
X10150Y-1440D01*
X9774Y-1766D02*
X10150Y-1390D01*
X9760Y-1730D02*
X10150Y-1340D01*
X9774Y-1324D02*
X10150Y-1700D01*
X9050Y-1300D02*
X9280Y-1530D01*
X9015Y-1375D02*
X9085Y-1305D01*
X9015Y-1300D02*
X9085D01*
Y-1332D02*
Y-1300D01*
Y-1332D02*
Y-1300D01*
X9269Y-1321D02*
X9280Y-1310D01*
X8842Y-1202D02*
X9250Y-1610D01*
X8842Y-1192D02*
X9260Y-1610D01*
X8842Y-1142D02*
X9280Y-1580D01*
X9248Y-1300D02*
X9280Y-1332D01*
X9250Y-1300D02*
X9280Y-1330D01*
Y-1332D02*
Y-1300D01*
X9248D02*
X9280D01*
X9285Y-1185D02*
X9308Y-1208D01*
X9285Y-1231D02*
X9340Y-1176D01*
X9285Y-1231D02*
Y-1107D01*
Y-1205D02*
X9334Y-1156D01*
X9460Y-1176D02*
X9520Y-1236D01*
X9461Y-1161D02*
X9535Y-1235D01*
X9486Y-1136D02*
X9560Y-1210D01*
X9512Y-1228D02*
X9586Y-1154D01*
X9015Y-1050D02*
X9280D01*
X9020Y-1020D02*
X9050Y-1050D01*
X9040D02*
X9070Y-1020D01*
X9285Y-1155D02*
X9309Y-1131D01*
X9070Y-1020D02*
X9100Y-1050D01*
X9090D02*
X9120Y-1020D01*
X9120D02*
X9150Y-1050D01*
X9140D02*
X9170Y-1020D01*
X9170D02*
X9200Y-1050D01*
X9190D02*
X9220Y-1020D01*
X9220D02*
X9250Y-1050D01*
X9240D02*
X9270Y-1020D01*
X9280Y-1050D02*
Y-1020D01*
X9340Y-1176D02*
X9460D01*
X9362Y-1162D02*
X9376Y-1176D01*
X9340Y-1162D02*
X9460D01*
X9364Y-1176D02*
X9378Y-1162D01*
X9412D02*
X9426Y-1176D01*
X9414D02*
X9428Y-1162D01*
X9285Y-1135D02*
X9333Y-1183D01*
X9100Y-50D02*
X10150Y-1100D01*
X9150Y-50D02*
X10150Y-1050D01*
X9462Y-1178D02*
X9536Y-1104D01*
X9487Y-1203D02*
X9561Y-1129D01*
X9285Y-1107D02*
X9340Y-1162D01*
X9460D02*
X9520Y-1102D01*
Y-1320D02*
X9534Y-1306D01*
X9520Y-1270D02*
X9534Y-1284D01*
X9735Y-1705D02*
X10150Y-1290D01*
X9706Y-1684D02*
X10150Y-1240D01*
X9520Y-1356D02*
Y-1236D01*
X9534Y-1356D02*
Y-1236D01*
X10150Y-2175D02*
Y-50D01*
X9774Y-1356D02*
Y-1236D01*
Y-1274D02*
X10150Y-1650D01*
X9712Y-1162D02*
X10150Y-1600D01*
X9738Y-1138D02*
X10150Y-1550D01*
X9763Y-1113D02*
X10150Y-1500D01*
X9774Y-1566D02*
X10150Y-1190D01*
X9774Y-1516D02*
X10150Y-1140D01*
X9762Y-1478D02*
X10150Y-1090D01*
X9710Y-1430D02*
X10150Y-990D01*
X9719Y-919D02*
X10150Y-1350D01*
X9719Y-869D02*
X10150Y-1300D01*
X9737Y-1453D02*
X10150Y-1040D01*
X9774Y-1074D02*
X10150Y-1450D01*
X9774Y-1024D02*
X10150Y-1400D01*
X9774Y-1316D02*
X10150Y-940D01*
X9520Y-1270D02*
X9534Y-1256D01*
Y-1236D02*
X9594Y-1176D01*
X9612Y-1162D02*
X9626Y-1176D01*
X9614D02*
X9628Y-1162D01*
X9662D02*
X9676Y-1176D01*
X9511Y-1111D02*
X9585Y-1185D01*
X9520Y-1070D02*
X9534Y-1084D01*
X9520Y-1070D02*
X9534Y-1056D01*
Y-1102D02*
X9594Y-1162D01*
X9664Y-1176D02*
X9678Y-1162D01*
X9520Y-1102D02*
Y-982D01*
X9534Y-1102D02*
Y-982D01*
X9714Y-1176D02*
X9774Y-1236D01*
X9594Y-1176D02*
X9714D01*
X9594Y-1162D02*
X9714D01*
X9774Y-1266D02*
X10150Y-890D01*
X9714Y-1162D02*
X9774Y-1102D01*
Y-982D01*
X9719Y-819D02*
X10150Y-1250D01*
X9719Y-769D02*
X10150Y-1200D01*
X9714Y-1176D02*
X10150Y-740D01*
X9764Y-1226D02*
X10150Y-840D01*
X9739Y-1201D02*
X10150Y-790D01*
X9719Y-719D02*
X10150Y-1150D01*
X9774Y-1066D02*
X10150Y-690D01*
X6572Y-1009D02*
X6842D01*
X6831D02*
X6842Y-998D01*
X6365Y-715D02*
X6572Y-922D01*
X6415Y-715D02*
X6572Y-872D01*
X6465Y-715D02*
X6572Y-822D01*
Y-1009D02*
Y-759D01*
X6842Y-1009D02*
Y-759D01*
Y-848D02*
X6975Y-715D01*
X7072Y-1009D02*
X7342D01*
X6842Y-998D02*
X7072Y-768D01*
X6815Y-715D02*
X7072Y-972D01*
X6842Y-898D02*
X7025Y-715D01*
X6842Y-948D02*
X7075Y-715D01*
X7072Y-1009D02*
Y-759D01*
X6865Y-715D02*
X7072Y-922D01*
X6915Y-715D02*
X7072Y-872D01*
X6965Y-715D02*
X7072Y-822D01*
X6515Y-715D02*
X6572Y-772D01*
Y-768D02*
X6581Y-759D01*
X6572D02*
X6842D01*
X6565Y-715D02*
X6609Y-759D01*
X6581D02*
X6625Y-715D01*
X6615D02*
X6659Y-759D01*
X6631D02*
X6675Y-715D01*
X6665D02*
X6709Y-759D01*
X6681D02*
X6725Y-715D01*
X6715D02*
X6759Y-759D01*
X6731D02*
X6775Y-715D01*
X6765D02*
X6809Y-759D01*
X6781D02*
X6825Y-715D01*
X6842Y-798D02*
X6925Y-715D01*
X6831Y-759D02*
X6875Y-715D01*
X7015D02*
X7072Y-772D01*
Y-768D02*
X7081Y-759D01*
X7065Y-715D02*
X7109Y-759D01*
X7072D02*
X7342D01*
X7081D02*
X7125Y-715D01*
X7115D02*
X7159Y-759D01*
X7131D02*
X7175Y-715D01*
X7165D02*
X7209Y-759D01*
X7181D02*
X7225Y-715D01*
X7215D02*
X7259Y-759D01*
X7231D02*
X7275Y-715D01*
X7331Y-1009D02*
X7342Y-998D01*
Y-1009D02*
Y-759D01*
Y-998D02*
X7572Y-768D01*
Y-1009D02*
X7842D01*
X7831D02*
X7842Y-998D01*
X7315Y-715D02*
X7572Y-972D01*
X7342Y-948D02*
X7575Y-715D01*
X7365D02*
X7572Y-922D01*
Y-1009D02*
Y-759D01*
X7842Y-1009D02*
Y-759D01*
X8072Y-1009D02*
Y-759D01*
X8201Y-1039D02*
X8231Y-1009D01*
X8209D02*
X8239Y-1039D01*
X8251D02*
X8281Y-1009D01*
X8259D02*
X8289Y-1039D01*
X8301D02*
X8331Y-1009D01*
X8309D02*
X8339Y-1039D01*
X8072Y-1009D02*
X8342D01*
X7842Y-998D02*
X8072Y-768D01*
X8331Y-1009D02*
X8342Y-998D01*
Y-1009D02*
Y-759D01*
X8572Y-1009D02*
Y-759D01*
X8342Y-998D02*
X8572Y-768D01*
X7265Y-715D02*
X7309Y-759D01*
X7281D02*
X7325Y-715D01*
X7331Y-759D02*
X7375Y-715D01*
X7342Y-848D02*
X7475Y-715D01*
X7342Y-798D02*
X7425Y-715D01*
X7572Y-768D02*
X7581Y-759D01*
X7342Y-898D02*
X7525Y-715D01*
X7415D02*
X7572Y-872D01*
X7465Y-715D02*
X7572Y-822D01*
X7515Y-715D02*
X7572Y-772D01*
X7565Y-715D02*
X7609Y-759D01*
X7581D02*
X7625Y-715D01*
X7615D02*
X7659Y-759D01*
X7572D02*
X7842D01*
X7631D02*
X7675Y-715D01*
X7665D02*
X7709Y-759D01*
X7681D02*
X7725Y-715D01*
X8072Y-768D02*
X8081Y-759D01*
X7715Y-715D02*
X7759Y-759D01*
X8072D02*
X8342D01*
X6350Y-50D02*
X6785Y-485D01*
X6355D02*
X6790Y-50D01*
X6400D02*
X6835Y-485D01*
X6405D02*
X6840Y-50D01*
X6450D02*
X6885Y-485D01*
X6455D02*
X6890Y-50D01*
X6500D02*
X6935Y-485D01*
X6505D02*
X6940Y-50D01*
X6550D02*
X6985Y-485D01*
X6555D02*
X6990Y-50D01*
X6600D02*
X7035Y-485D01*
X6605D02*
X7040Y-50D01*
X6650D02*
X7085Y-485D01*
X6655D02*
X7090Y-50D01*
X6700D02*
X7135Y-485D01*
X6705D02*
X7140Y-50D01*
X6750D02*
X7185Y-485D01*
X6755D02*
X7190Y-50D01*
X6800D02*
X7235Y-485D01*
X6805D02*
X7240Y-50D01*
X6850D02*
X7285Y-485D01*
X6855D02*
X7290Y-50D01*
X6900D02*
X7335Y-485D01*
X6905D02*
X7340Y-50D01*
X6950D02*
X7385Y-485D01*
X6955D02*
X7390Y-50D01*
X7000D02*
X7435Y-485D01*
X7005D02*
X7440Y-50D01*
X7050D02*
X7485Y-485D01*
X7055D02*
X7490Y-50D01*
X7100D02*
X7535Y-485D01*
X7105D02*
X7540Y-50D01*
X7150D02*
X7585Y-485D01*
X7155D02*
X7590Y-50D01*
X7200D02*
X7635Y-485D01*
X7205D02*
X7640Y-50D01*
X7250D02*
X7685Y-485D01*
X7255D02*
X7690Y-50D01*
X7300D02*
X7735Y-485D01*
X7305D02*
X7740Y-50D01*
X7350D02*
X7785Y-485D01*
X7355D02*
X7790Y-50D01*
X7400D02*
X7835Y-485D01*
X7405D02*
X7840Y-50D01*
X7450D02*
X7885Y-485D01*
X7455D02*
X7890Y-50D01*
X7500D02*
X7935Y-485D01*
X7505D02*
X7940Y-50D01*
X7550D02*
X7985Y-485D01*
X7555D02*
X7990Y-50D01*
X7600D02*
X8035Y-485D01*
X7731Y-759D02*
X7775Y-715D01*
X7765D02*
X7809Y-759D01*
X7781D02*
X7825Y-715D01*
X7842Y-848D02*
X7975Y-715D01*
X7831Y-759D02*
X7875Y-715D01*
X7842Y-798D02*
X7925Y-715D01*
X7815D02*
X8072Y-972D01*
X7842Y-898D02*
X8025Y-715D01*
X7842Y-948D02*
X8075Y-715D01*
X7865D02*
X8072Y-922D01*
X7915Y-715D02*
X8072Y-872D01*
X7965Y-715D02*
X8072Y-822D01*
X8015Y-715D02*
X8072Y-772D01*
X8065Y-715D02*
X8109Y-759D01*
X8081D02*
X8125Y-715D01*
X8115D02*
X8159Y-759D01*
X8131D02*
X8175Y-715D01*
X8165D02*
X8209Y-759D01*
X8315Y-715D02*
X8572Y-972D01*
X8181Y-759D02*
X8225Y-715D01*
X8342Y-798D02*
X8425Y-715D01*
X8342Y-948D02*
X8575Y-715D01*
X8365D02*
X8572Y-922D01*
X8342Y-848D02*
X8475Y-715D01*
X8342Y-898D02*
X8525Y-715D01*
X7605Y-485D02*
X8040Y-50D01*
X7650D02*
X8085Y-485D01*
X7655D02*
X8090Y-50D01*
X8215Y-715D02*
X8259Y-759D01*
X7700Y-50D02*
X8135Y-485D01*
X8231Y-759D02*
X8275Y-715D01*
X7705Y-485D02*
X8140Y-50D01*
X7750D02*
X8185Y-485D01*
X7755D02*
X8190Y-50D01*
X7800D02*
X8235Y-485D01*
X7805D02*
X8240Y-50D01*
X7850D02*
X8285Y-485D01*
X7855D02*
X8290Y-50D01*
X7900D02*
X8335Y-485D01*
X7905D02*
X8340Y-50D01*
X7950D02*
X8385Y-485D01*
X8265Y-715D02*
X8309Y-759D01*
X8281D02*
X8325Y-715D01*
X8331Y-759D02*
X8375Y-715D01*
X7955Y-485D02*
X8390Y-50D01*
X8000D02*
X8435Y-485D01*
X8005D02*
X8440Y-50D01*
X8050D02*
X8485Y-485D01*
X8055D02*
X8490Y-50D01*
X8100D02*
X8535Y-485D01*
X8105D02*
X8540Y-50D01*
X8601Y-1039D02*
X8631Y-1009D01*
X8609D02*
X8639Y-1039D01*
X8651D02*
X8681Y-1009D01*
X8659D02*
X8689Y-1039D01*
X8701D02*
X8731Y-1009D01*
X8709D02*
X8739Y-1039D01*
X8342Y-792D02*
X8589Y-1039D01*
X8415Y-715D02*
X8572Y-872D01*
X8751Y-1039D02*
X8781Y-1009D01*
X8759D02*
X8789Y-1039D01*
X8801D02*
X8831Y-1009D01*
X8572Y-1039D02*
X8842D01*
X8809Y-1009D02*
X8839Y-1039D01*
X8572Y-1009D02*
X8842D01*
X9015Y-1020D02*
X9280D01*
X8831Y-1009D02*
X8842Y-998D01*
Y-842D02*
X9015Y-1015D01*
X8842Y-998D02*
X9015Y-825D01*
X8842Y-792D02*
X9015Y-965D01*
X8815Y-715D02*
X9015Y-915D01*
X8842Y-1009D02*
Y-759D01*
X9015Y-1020D02*
Y-770D01*
X8842Y-948D02*
X9015Y-775D01*
X8842Y-898D02*
X9025Y-715D01*
X8465D02*
X8572Y-822D01*
X8515Y-715D02*
X8572Y-772D01*
X8565Y-715D02*
X8609Y-759D01*
X8572Y-768D02*
X8581Y-759D01*
X8625Y-715D01*
X8615D02*
X8659Y-759D01*
X8631D02*
X8675Y-715D01*
X8665D02*
X8709Y-759D01*
X8681D02*
X8725Y-715D01*
X8715D02*
X8759Y-759D01*
X8731D02*
X8775Y-715D01*
X8765D02*
X8809Y-759D01*
X8572D02*
X8842D01*
X9015Y-770D02*
X9273D01*
X8781Y-759D02*
X8825Y-715D01*
X8831Y-759D02*
X8875Y-715D01*
X8865D02*
X9015Y-865D01*
X8842Y-798D02*
X8925Y-715D01*
X8842Y-848D02*
X8975Y-715D01*
X8915D02*
X9015Y-815D01*
X8965Y-715D02*
X9020Y-770D01*
X9015Y-715D02*
X9070Y-770D01*
X9020D02*
X9075Y-715D01*
X9270Y-1020D02*
X9280Y-1030D01*
X9285Y-977D02*
X9335Y-927D01*
X9285Y-935D02*
X9306Y-956D01*
X9285Y-955D02*
X9335Y-905D01*
X9285Y-885D02*
X9331Y-931D01*
X9285Y-905D02*
X9335Y-855D01*
X9285Y-835D02*
X9335Y-885D01*
X9285Y-977D02*
Y-782D01*
X9335Y-927D02*
Y-832D01*
X9465Y-927D02*
Y-832D01*
X9520Y-1020D02*
X9534Y-1034D01*
X9465Y-927D02*
X9520Y-982D01*
X9465Y-915D02*
X9534Y-984D01*
X9520Y-1020D02*
X9534Y-1006D01*
Y-982D02*
X9589Y-927D01*
X9719D02*
X9774Y-982D01*
X9465Y-865D02*
X9558Y-958D01*
X9465Y-815D02*
X9583Y-933D01*
X9465Y-925D02*
X9589Y-801D01*
X9514Y-976D02*
X9589Y-901D01*
X9489Y-951D02*
X9589Y-851D01*
Y-927D02*
Y-736D01*
X9719Y-927D02*
Y-736D01*
X9170Y-770D02*
X9221Y-719D01*
X9270Y-770D02*
X9285Y-785D01*
X9220Y-770D02*
X9246Y-744D01*
X9273Y-770D02*
X9285Y-782D01*
X9065Y-715D02*
X9120Y-770D01*
X9070D02*
X9125Y-715D01*
X9115D02*
X9170Y-770D01*
X9120D02*
X9175Y-715D01*
X9165D02*
X9220Y-770D01*
X9218Y-715D02*
X9273Y-770D01*
X9215Y-715D02*
X9270Y-770D01*
X9285Y-855D02*
X9321Y-819D01*
X9285Y-805D02*
X9296Y-794D01*
X9285Y-785D02*
X9335Y-835D01*
X9285Y-782D02*
X9335Y-832D01*
X9465D02*
Y-768D01*
Y-832D02*
Y-768D01*
X9432Y-735D02*
X9465Y-768D01*
X9432Y-735D02*
X9465Y-768D01*
X9444Y-746D02*
X9521Y-669D01*
X9465Y-825D02*
X9571Y-719D01*
X9465Y-875D02*
X9589Y-751D01*
X9465Y-775D02*
X9546Y-694D01*
X9719Y-736D02*
Y-672D01*
X8150Y-50D02*
X8585Y-485D01*
X8155D02*
X8590Y-50D01*
X8200D02*
X8635Y-485D01*
X8205D02*
X8640Y-50D01*
X8250D02*
X8685Y-485D01*
X8255D02*
X8690Y-50D01*
X8300D02*
X8735Y-485D01*
X8305D02*
X8740Y-50D01*
X8350D02*
X8785Y-485D01*
X8355D02*
X8790Y-50D01*
X8400D02*
X8835Y-485D01*
X8405D02*
X8840Y-50D01*
X9315Y-618D02*
X9432Y-735D01*
X8450Y-50D02*
X8885Y-485D01*
X9319Y-621D02*
X9325Y-615D01*
X9315D02*
X9589Y-889D01*
X9344Y-646D02*
X9375Y-615D01*
X9312D02*
X9468D01*
X8455Y-485D02*
X8890Y-50D01*
X8500D02*
X8935Y-485D01*
X8505D02*
X8940Y-50D01*
X9200D02*
X10150Y-1000D01*
X9250Y-50D02*
X10150Y-950D01*
X8550Y-50D02*
X8985Y-485D01*
X9300Y-50D02*
X10150Y-900D01*
X8555Y-485D02*
X8990Y-50D01*
X8600D02*
X9035Y-485D01*
X8605D02*
X9040Y-50D01*
X8650D02*
X9085Y-485D01*
X8655D02*
X9090Y-50D01*
X8700D02*
X9135Y-485D01*
X8705D02*
X9140Y-50D01*
X8750D02*
X9185Y-485D01*
X8755D02*
X9190Y-50D01*
X8800D02*
X9235Y-485D01*
X8805D02*
X9240Y-50D01*
X8850D02*
X9285Y-485D01*
X8855D02*
X9290Y-50D01*
X8900D02*
X9335Y-485D01*
X8905D02*
X9340Y-50D01*
X8950D02*
X9385Y-485D01*
X8955D02*
X9390Y-50D01*
X9000D02*
X9435Y-485D01*
X9005D02*
X9440Y-50D01*
X9050D02*
X9485Y-485D01*
X9055D02*
X9490Y-50D01*
X9105Y-485D02*
X9540Y-50D01*
X9155Y-485D02*
X9590Y-50D01*
X9205Y-485D02*
X9640Y-50D01*
X9255Y-485D02*
X9690Y-50D01*
X9305Y-485D02*
X9740Y-50D01*
X9419Y-721D02*
X9496Y-644D01*
X9394Y-696D02*
X9471Y-619D01*
X9686Y-639D02*
X9719Y-672D01*
X9774Y-1016D02*
X10150Y-640D01*
X9719Y-736D02*
Y-672D01*
X9686Y-639D02*
X9719Y-672D01*
X9365Y-615D02*
X9589Y-839D01*
X9369Y-671D02*
X9425Y-615D01*
X9415D02*
X9589Y-789D01*
X9766Y-974D02*
X10150Y-590D01*
X9468Y-615D02*
X9589Y-736D01*
X9465Y-615D02*
X9589Y-739D01*
X9719Y-921D02*
X10150Y-490D01*
X9719Y-871D02*
X10150Y-440D01*
X9719Y-821D02*
X10150Y-390D01*
X9741Y-949D02*
X10150Y-540D01*
X9719Y-771D02*
X10150Y-340D01*
X9719Y-721D02*
X10150Y-290D01*
X9350Y-50D02*
X10150Y-850D01*
X9400Y-50D02*
X10150Y-800D01*
X9450Y-50D02*
X10150Y-750D01*
X9500Y-50D02*
X10150Y-700D01*
X9719Y-671D02*
X10150Y-240D01*
X9550Y-50D02*
X10150Y-650D01*
X9694Y-646D02*
X10150Y-190D01*
X9355Y-485D02*
X9790Y-50D01*
X9468Y-485D02*
X9532D01*
X9468D02*
X9532D01*
X9565Y-518D02*
X9686Y-639D01*
X9532Y-485D02*
X9565Y-518D01*
X9532Y-485D02*
X9565Y-518D01*
X9405Y-485D02*
X9840Y-50D01*
X9455Y-485D02*
X9890Y-50D01*
X9505Y-485D02*
X9940Y-50D01*
X9594Y-546D02*
X10090Y-50D01*
X9619Y-571D02*
X10140Y-50D01*
X9544Y-496D02*
X9990Y-50D01*
X9569Y-521D02*
X10040Y-50D01*
X9600D02*
X10150Y-600D01*
X9644Y-596D02*
X10150Y-90D01*
X9650Y-50D02*
X10150Y-550D01*
X9669Y-621D02*
X10150Y-140D01*
X9700Y-50D02*
X10150Y-500D01*
X9750Y-50D02*
X10150Y-450D01*
X9800Y-50D02*
X10150Y-400D01*
X9850Y-50D02*
X10150Y-350D01*
X9900Y-50D02*
X10150Y-300D01*
X9950Y-50D02*
X10150Y-250D01*
X10000Y-50D02*
X10150Y-200D01*
X10050Y-50D02*
X10150Y-150D01*
X10100Y-50D02*
X10150Y-100D01*
D11*
X10000Y-2845D02*
D03*
Y-2655D02*
D03*
Y-3340D02*
D03*
Y-3150D02*
D03*
D12*
X6207Y-884D02*
D03*
Y-1164D02*
D03*
X7150Y-3251D02*
D03*
Y-3531D02*
D03*
X7775Y-3530D02*
D03*
X500Y-1164D02*
D03*
Y-884D02*
D03*
X4000Y-1164D02*
D03*
Y-884D02*
D03*
X4500Y-1164D02*
D03*
Y-884D02*
D03*
X5707Y-1164D02*
D03*
Y-884D02*
D03*
X6707Y-1164D02*
D03*
Y-884D02*
D03*
X7207Y-1164D02*
D03*
Y-884D02*
D03*
X7707Y-1164D02*
D03*
Y-884D02*
D03*
X8207Y-1164D02*
D03*
Y-884D02*
D03*
X8707Y-1164D02*
D03*
Y-884D02*
D03*
X9150Y-1175D02*
D03*
Y-895D02*
D03*
X7775Y-3250D02*
D03*
D13*
X6500Y-3607D02*
D03*
X5850D02*
D03*
X6500Y-3157D02*
D03*
X5850D02*
D03*
X8950Y-3150D02*
D03*
X8300D02*
D03*
Y-3600D02*
D03*
X8950D02*
D03*
X9654Y-3328D02*
D03*
X9400Y-2820D02*
D03*
X9654Y-2566D02*
D03*
X9400D02*
D03*
X9654Y-2312D02*
D03*
X9400D02*
D03*
X9654Y-2058D02*
D03*
X9400D02*
D03*
X9654Y-1804D02*
D03*
X9400D02*
D03*
X9654Y-1550D02*
D03*
X9400D02*
D03*
X9654Y-1296D02*
D03*
X9400D02*
D03*
X9654Y-1042D02*
D03*
X9400D02*
D03*
Y-3074D02*
D03*
X9654D02*
D03*
Y-2820D02*
D03*
D14*
X9400Y-3328D02*
D03*
D15*
X6500Y-3350D02*
X7000Y-3850D01*
X9075D01*
X8925Y-3600D02*
X8938Y-3587D01*
X9104Y-3950D02*
X9654Y-3400D01*
X6843Y-3950D02*
X9104D01*
X6500Y-3607D02*
X6843Y-3950D01*
X7875Y-3150D02*
X8950D01*
X7563Y-3462D02*
X7875Y-3150D01*
X7024Y-3251D02*
X7150D01*
Y-3275D02*
X7151D01*
X7325Y-3700D02*
X7563Y-3462D01*
X7050Y-3700D02*
X7325D01*
X6925Y-3350D02*
X7024Y-3251D01*
X6925Y-3575D02*
Y-3350D01*
Y-3575D02*
X7050Y-3700D01*
X8300Y-3600D02*
X8925D01*
X500Y-550D02*
X9500D01*
X464Y-1164D02*
X500D01*
X300Y-750D02*
X500Y-550D01*
X300Y-1000D02*
X464Y-1164D01*
X300Y-1000D02*
Y-750D01*
X734Y-650D02*
X9250D01*
X9400Y-800D01*
X9500Y-550D02*
X9654Y-704D01*
X7864Y-1164D02*
X8050Y-1350D01*
X8400D01*
X7392D02*
X7900D01*
X8000Y-1450D01*
X8350D01*
X6992D02*
X7850D01*
X7950Y-1550D01*
X6592D02*
X7800D01*
X7900Y-1650D01*
X5721Y-1179D02*
X6192Y-1650D01*
X5707Y-1164D02*
X5721Y-1179D01*
X6192Y-1650D02*
X7750D01*
X7850Y-1750D01*
X7700D02*
X7800Y-1850D01*
X6150Y-1750D02*
X7700D01*
X4686Y-1350D02*
X5750D01*
X6150Y-1750D01*
X5700Y-1450D02*
X6100Y-1850D01*
X7650D01*
X4286Y-1450D02*
X5700D01*
X7650Y-1850D02*
X7750Y-1950D01*
X500Y-884D02*
X734Y-650D01*
X9400Y-1064D02*
Y-800D01*
X9654Y-1064D02*
Y-704D01*
X9150Y-1300D02*
Y-1175D01*
Y-1300D02*
X9400Y-1550D01*
X8707Y-1164D02*
X9217Y-1675D01*
X9529D02*
X9654Y-1550D01*
X9217Y-1675D02*
X9529D01*
X8207Y-1164D02*
X8414D01*
X9054Y-1804D02*
X9400D01*
X8414Y-1164D02*
X9054Y-1804D01*
X7707Y-1164D02*
X7864D01*
X8975Y-1925D02*
X9533D01*
X9654Y-1804D01*
X8400Y-1350D02*
X8975Y-1925D01*
X7207Y-1164D02*
X7392Y-1350D01*
X8958Y-2058D02*
X9400D01*
X8350Y-1450D02*
X8958Y-2058D01*
X8925Y-2175D02*
X9537D01*
X7950Y-1550D02*
X8300D01*
X6707Y-1164D02*
X6992Y-1450D01*
X8300Y-1550D02*
X8925Y-2175D01*
X9537D02*
X9654Y-2058D01*
X7900Y-1650D02*
X8250D01*
X6207Y-1164D02*
X6592Y-1550D01*
X8912Y-2312D02*
X9400D01*
X8250Y-1650D02*
X8912Y-2312D01*
X8880Y-2430D02*
X9536D01*
X7850Y-1750D02*
X8200D01*
X8880Y-2430D01*
X9536D02*
X9654Y-2312D01*
X4500Y-1164D02*
X4686Y-1350D01*
X8150Y-1850D02*
X8866Y-2566D01*
X7800Y-1850D02*
X8150D01*
X8866Y-2566D02*
X9400D01*
X8850Y-2700D02*
X9520D01*
X4000Y-1164D02*
X4286Y-1450D01*
X8100Y-1950D02*
X8850Y-2700D01*
X9520D02*
X9654Y-2566D01*
X7750Y-1950D02*
X8100D01*
X7606Y-2820D02*
X9400D01*
X7151Y-3275D02*
X7606Y-2820D01*
X6500Y-3350D02*
Y-3157D01*
X9075Y-3850D02*
X9400Y-3525D01*
D16*
X9000Y-3750D02*
X9225Y-3525D01*
X7995Y-3750D02*
X9000D01*
X7731Y-2950D02*
X10100D01*
X7150Y-3531D02*
X7731Y-2950D01*
X10000Y-2655D02*
X10080D01*
X10100Y-2950D02*
X10125Y-2925D01*
Y-2700D01*
X10080Y-2655D02*
X10125Y-2700D01*
X9654Y-2820D02*
X9975D01*
X10000Y-2845D01*
X9654Y-3074D02*
X9924D01*
X10000Y-3150D01*
X9750Y-3200D02*
X9890Y-3340D01*
X9225Y-3275D02*
X9300Y-3200D01*
X7775Y-3530D02*
X7995Y-3750D01*
X9890Y-3340D02*
X10000D01*
X9225Y-3525D02*
Y-3275D01*
X9300Y-3200D02*
X9750D01*
X8950Y-3425D02*
X9301Y-3074D01*
X9400D01*
X8950Y-3600D02*
Y-3425D01*
D17*
X5850Y-3157D02*
X6500D01*
X750Y-1450D02*
X1316Y-884D01*
X350Y-1450D02*
X750D01*
X150Y-1250D02*
X350Y-1450D01*
X150Y-1250D02*
Y-600D01*
X350Y-400D01*
X9650D01*
X5850Y-3607D02*
X6500D01*
X7207Y-884D02*
X7707D01*
X6707D02*
X7207D01*
X6207D02*
X6707D01*
X5707D02*
X6207D01*
X9650Y-400D02*
X9768Y-518D01*
X9900Y-650D01*
X9139Y-884D02*
X9150Y-895D01*
X7707Y-884D02*
X9139D01*
X9134D02*
X9150Y-900D01*
X9654Y-1296D02*
X9729D01*
X9400D02*
X9654D01*
X1316Y-884D02*
X5707D01*
X9729Y-1296D02*
X9900Y-1125D01*
Y-650D01*
X9400Y-3525D02*
Y-3328D01*
D18*
X5755Y-3157D02*
X5850D01*
Y-3252D02*
Y-3157D01*
X5945D01*
X5850D02*
Y-3062D01*
X6500Y-3252D02*
Y-3157D01*
X6405D02*
X6500D01*
Y-3062D01*
Y-3157D02*
X6595D01*
X9400Y-3423D02*
Y-3328D01*
X9495D01*
X4000Y-984D02*
Y-884D01*
X4500Y-984D02*
Y-884D01*
X5707Y-984D02*
Y-884D01*
X6207Y-984D02*
Y-884D01*
X3890D02*
X4000D01*
X4110D01*
X4000D02*
Y-784D01*
X4390Y-884D02*
X4500D01*
Y-784D01*
Y-884D02*
X4610D01*
X5597D02*
X5707D01*
Y-784D01*
Y-884D02*
X5817D01*
X6097D02*
X6207D01*
Y-784D01*
Y-884D02*
X6317D01*
X9305Y-1296D02*
X9400D01*
Y-1391D02*
Y-1296D01*
Y-1201D01*
Y-1296D02*
X9495D01*
X9559D02*
X9654D01*
Y-1391D02*
Y-1296D01*
X9749D01*
X9654D02*
Y-1201D01*
X6707Y-984D02*
Y-884D01*
X6597D02*
X6707D01*
Y-784D01*
Y-884D02*
X6817D01*
X7097D02*
X7207D01*
Y-984D02*
Y-884D01*
Y-784D01*
Y-884D02*
X7317D01*
X7707Y-984D02*
Y-884D01*
X8207Y-984D02*
Y-884D01*
X7597D02*
X7707D01*
Y-784D01*
Y-884D02*
X7817D01*
X8097D02*
X8207D01*
Y-784D01*
Y-884D02*
X8317D01*
X8707Y-984D02*
Y-884D01*
X8597D02*
X8707D01*
Y-784D01*
Y-884D02*
X8817D01*
X9150Y-995D02*
Y-895D01*
X9040D02*
X9150D01*
X9260D01*
X9150D02*
Y-795D01*
D19*
X9506Y-3343D02*
D03*
D20*
X9462Y-3418D02*
D03*
M02*
