/* XPM */
static char * alm_xpm[] = {
"8 16 2 1",
" 	c #FFFF00000000",
".	c #FFFFFFFFFFFF",
"        ",
"   ..   ",
"   ..   ",
"   ..   ",
"   ..   ",
"   ..   ",
"   ..   ",
"   ..   ",
"   ..   ",
"   ..   ",
"   ..   ",
"   ..   ",
"        ",
"   ..   ",
"   ..   ",
"        "};
