/* XPM */
static char*auditsreport[]={
"22 22 7 1",
"e c #c0c0d0",
"b c #000080",
"a c #000000",
"d c #ffdca8",
"c c #585858",
"# c #dcdcdc",
". c #ffffff",
"......................",
".####################a",
".#bbbbbbbbbbbbbbbbbbca",
".#bddbbbebbbbbbbbbbbca",
".#bdddbbeebbbbbbbbbbca",
".#bddddbeeebbbbbbbbbca",
".#bdddddeeeebbbbbbbbca",
".#bdddddde.eebbbbbbbca",
".#bdddddddeeeebbbbbbca",
".#bbdddddddeeeebbbbbca",
".#bbbdddddddeeeebbbbca",
".#bbbbdddddddeeeebbbca",
".#bbbbbddddddeeeeebbca",
".#bbbbbbdddddeeeebbbca",
".#bbbbbbbddddeeebbbbca",
".#bbbbbbbbdddeebbbbbca",
".#bbbbbbbbbddebbbbbbca",
".#bbbbbbbbbbdbbbbbbbca",
".#bbbbbbbbbbbbbbbbbbca",
".#bbbbbbbbbbbbbbbbbbca",
".cccccccccccccccccccca",
"aaaaaaaaaaaaaaaaaaaaaa"};
