/* XPM */
static char*Batches[]={
"22 22 11 1",
"i c #808080",
"f c #008000",
"h c #c3c3c3",
"b c #000080",
"g c #00ff00",
"a c #000000",
"d c #c00000",
"c c #585858",
"# c #dcdcdc",
". c #ffffff",
"e c #ff0000",
"......................",
".####################a",
".#bbbbbbbbbbbbbbbbbbca",
".#bbbbbbbbbbbbbbbbbbca",
".#bbbbbbbbbbbbbbbbbbca",
".#bbddeddbbffgffbbbbca",
".#bbdh.hdbbf#.#fbbbbca",
".#bbih.hibbih.#ibbbbca",
".#bbih.hibbih.#ibbbbca",
".#bbih.hibbih.#ibbbbca",
".#bbih.hibbih.#ibbbbca",
".#bbih.hibbih.#ibbbbca",
".#bbih.hibbih.#ibbbbca",
".#bbih.hibbih.#ibbbbca",
".#bbih.hibbih.#ibbbbca",
".#bbih.hibbih.#ibbbbca",
".#bbbbbbbbbbbbbbbbbbca",
".#bbbbbbbbbbbbbbbbbbca",
".#bbbbbbbbbbbbbbbbbbca",
".#bbbbbbbbbbbbbbbbbbca",
".cccccccccccccccccccca",
"aaaaaaaaaaaaaaaaaaaaaa"};
