/* XPM */
static const char * db_xpm[] = {
"17 13 9 1",
" 	c None",
".	c None",
"+	c #000000",
"@	c #008000",
"#	c #008080",
"$	c #00FF00",
"%	c #00FFFF",
"&	c #FFFF00",
"*	c #808080",
"...+++++++..+++..",
"..+@@@#$%@+.+&+..",
".+@@@###$%+++&+++",
".++@###$%@+&&&&&+",
".++++++++++++&+++",
".+@@@@@@#%@++&+..",
".+@@@@##$%@++++..",
".+@@@@##$%@+.....",
".+@@@@##$%@+.....",
".+@@@@##$%@+.....",
".+@@@###$%@+.....",
"..+@*##$@@+......",
"...+++++++......."};
