/* XPM */
static char * fail_xpm[] = {
"8 16 2 1",
" 	c #00000000FFFF",
".	c #FFFFFFFF0000",
"        ",
"        ",
"        ",
".      .",
" .    . ",
" ..  .. ",
"  .  .  ",
"   ..   ",
"   ..   ",
"   ..   ",
"  .  .  ",
" ..  .. ",
" .    . ",
".      .",
"        ",
"        "};
