/* XPM */
static const char* filloff[]={
"22 22 8 1",
"b c #808080",
"c c #000080",
"# c #000000",
"e c #800000",
"d c #c00000",
"a c #dcdcdc",
". c #ffffff",
"f c #ff0000",
".....................#",
".aaaaaaaaaaaaaaaaaaab#",
".accccccccccccccccccb#",
".accccccccccccccccccb#",
".acccccddddddddcccccb#",
".acccccdccccccdcccccb#",
".acccccedffefdecccccb#",
".acccccefffefdecccccb#",
".acccccefffefdecccccb#",
".accccceddffddecccccb#",
".accccceddffddecccccb#",
".accccceddffddecccccb#",
".accccceddffddecccccb#",
".accccceddffddecccccb#",
".accccceddffddecccccb#",
".accccceddffddecccccb#",
".accccceddffddecccccb#",
".accccccccccccccccccb#",
".accccccccccccccccccb#",
".accccccccccccccccccb#",
".abbbbbbbbbbbbbbbbbbb#",
".#####################"};
