/* XPM */
static const char* fillon[]={
"22 22 8 1",
"b c #808080",
"e c #008000",
"c c #000080",
"d c #00ff00",
"# c #000000",
"f c #00c000",
"a c #dcdcdc",
". c #ffffff",
".....................#",
".aaaaaaaaaaaaaaaaaaab#",
".accccccdeddddfcccccb#",
".accccccfffdccdfccccb#",
".acccccffffeccddfcccb#",
".accccfddfffeccddfccb#",
".acccfddddfffeccddfcb#",
".accfffddddfffeccddfb#",
".acddfffddddfffecddfb#",
".aceeeeffddddfffedccb#",
".accccceffddddfffeccb#",
".acccccceffddddfefecb#",
".accccccceffdddddffcb#",
".acccccccceffdddddfcb#",
".acccccccccefddddeecb#",
".acccccccccceeddeeccb#",
".accccccccccceeeecccb#",
".acccccccccccceeccccb#",
".accccccccccccccccccb#",
".accccccccccccccccccb#",
".abbbbbbbbbbbbbbbbbbb#",
".#####################"};
