/* XPM */
static const char*first_ref[]={
"16 13 2 1",
"a c #FF0000",
"# c None",
"################",
"################",
"####aa####a#####",
"####aa###aa#####",
"####aa##aaa#####",
"####aa#aaaa#####",
"####aaaaaaa#####",
"####aa#aaaa#####",
"####aa##aaa#####",
"####aa###aa#####",
"####aa####a#####",
"################",
"################"};
