/* XPM */
static const char *info_xpm[] = {
"15 15 3 1",
"$ c none",
"% c #0000ff",
"& c #ffffff",
"$$$$$%%%%%$$$$$",
"$$$%%%%%%%%%$$$",
"$$%%%%&&&%%%%$$",
"$%%%%%&&&%%%%%$",
"$%%%%%%%%%%%%%$",
"%%%%%%%%%%%%%%%",
"%%%%%&&&&%%%%%%",
"%%%%%%&&&%%%%%%",
"%%%%%%&&&%%%%%%",
"%%%%%%&&&%%%%%%",
"$%%%%%&&&%%%%%$",
"$%%%%&&&&&%%%%$",
"$$%%%%%%%%%%%$$",
"$$$%%%%%%%%%$$$",
"$$$$$%%%%%$$$$$"
};

