/* XPM */
static const char *last_ref[]={
"16 13 2 1",
"a c #FF0000",
"# c None",
"################",
"################",
"####a####aa#####",
"####aa###aa#####",
"####aaa##aa#####",
"####aaaa#aa#####",
"####aaaaaaa#####",
"####aaaa#aa#####",
"####aaa##aa#####",
"####aa###aa#####",
"####a####aa#####",
"################",
"################"};
