/* XPM */
static const char * logout_xpm[] = {
"18 18 13 1",
" 	c None",
".	c #000000",
"+	c #E4E4DC",
"@	c #BE7579",
"#	c #C67D81",
"$	c #2D2D2D",
"%	c #8A4D4F",
"&	c #9E575B",
"*	c #A75E5F",
"=	c #AF6668",
"-	c #B66D71",
";	c #CD8689",
">	c #080808",
"                  ",
"                  ",
"        ......... ",
"        .++++++.. ",
"        .++++++.. ",
"      ...++++++.. ",
"      .@.++++++.. ",
" ......@#.++$.+.. ",
" .%&*=-@#;.+.$+.. ",
" .%&*=-@#;.++++.. ",
" ......@#.+++++.. ",
"      .@.++++++.. ",
"      ...++++++.. ",
"        .++++.... ",
"        .++...... ",
"        ...>>>>>> ",
"                  ",
"                  "};
