/* XPM */
static char*makereport[]={
"22 22 14 1",
"h c #008000",
"j c #ffa858",
"l c #c3c3c3",
"b c #000080",
"k c #808000",
"f c #ffc0c0",
"g c #00ffff",
"a c #000000",
"e c #ff8000",
"d c #ffc0ff",
"c c #585858",
"i c #00c000",
"# c #dcdcdc",
". c #ffffff",
"......................",
".####################a",
".#bbbbbbbbbbbbbbbbbbca",
".#bdddddbbbbbbbbbbbbca",
".#bdddddbbbbbbbbbbbbca",
".#bededebbbbbbbbbbbbca",
".#bededebfafffffbbbbca",
".#bededebfafffgfbbbbca",
".#bededehfaffgffbbbbca",
".#bededehhafgfffibbbca",
".#bedjdjhhhgfffiiibbca",
".#bbbbbbhhhfffiiiikbca",
".#bbbbbbhhhaaiiiikbbca",
".#bbbbbbhhhliiiikbbbca",
".#bbbbbbhhhiiiikbbbbca",
".#bbbbbbhhhiiikbbbbbca",
".#bbbbbbhhhiikbbbbbbca",
".#bbbbbbbhhikbbbbbbbca",
".#bbbbbbbbhkbbbbbbbbca",
".#bbbbbbbbbbbbbbbbbbca",
".cccccccccccccccccccca",
"aaaaaaaaaaaaaaaaaaaaaa"};
