/* XPM */
static const char *next_cmp[]={
"16 13 2 1",
"a c #000000",
"# c None",
"################",
"################",
"#####a##########",
"#####aa#########",
"#####aaa########",
"#####aaaa#######",
"#####aaaaa######",
"#####aaaa#######",
"#####aaa########",
"#####aa#########",
"#####a##########",
"################",
"################"};
