/* XPM */
static char * ok_xpm[] = {
"8 16 3 1",
" 	c #0000FFFF0000",
".	c #FFFFFFFFFFFF",
"X	c #000000000000",
"        ",
"        ",
"        ",
"        ",
"        ",
"        ",
"       .",
"      ..",
"      .X",
"     ..X",
".X  ..X ",
"..X..X  ",
" ...X   ",
"  .X    ",
"        ",
"        "};
