/* XPM */
static const char *oscilloscope_xpm[]={
"32 32 4 1",
"b c #000000",
"a c #00ff00",
". c #303030",
"# c #a8dcff",
".............#...............###",
".............#..................",
".............#..................",
".............#.......aa......bbb",
".............#.......aa.........",
".............#.......a.a........",
".............#.......a.a.....###",
".............#......aa.a........",
".............#......a..a........",
".............#......a..a.....bbb",
"....a........aaa....a..a......bb",
"....a........a.a....a..a.......b",
"###aaa######a##a####a###a#######",
"...a.a......a#.aa...a...a...aaa.",
"..a..aa....aa#..a...a...a...a.a.",
"aaa...a....a.#..a...a...a...abbb",
"......a....a.#...a..a...a..a....",
"......aa...a.#...a..a...a..a....",
".......a..aa.#...a..a...a..a.###",
".......a..a..#...aa.a...a..a....",
".......aa.a..#....aaa......a....",
"........a.a..#....aa....a.a..bbb",
"........aaa..#..........a.a..bbb",
".............#..........a.a.....",
".............#..........a.a..###",
".............#..........a.a..bbb",
".............#..........a.a.....",
".............#..........aa...bbb",
".............#...........a...bbb",
".#..bb.#..b..#..b..#b.b..#..b...",
".#..bb.#..b..#..b..#b.b..#..b###",
".#..b..#..b..#..b..#b.bb.#..b..."};
