/* XPM */
static char*printreport[]={
"22 22 11 1",
"h c #808080",
"d c #a0a0a0",
"b c #000080",
"g c #808000",
"a c #000000",
"f c #ff8000",
"e c #ffdca8",
"c c #585858",
"# c #dcdcdc",
". c #ffffff",
"i c #ff0000",
"......................",
".####################a",
".#bbbbbbbbbbbbbbbbbbca",
".#bbbbbbbbbbbbbbbbbbca",
".#bbbbbbbbbbbdddbbbbca",
".#bbbbbbbbbbdbbbdbbbca",
".#bbbbbbbdbdbbbbbdbbca",
".#bbbbbbbddbbbbbbbbbca",
".#bbbbbbbdddbbbbebbbca",
".#b......bbbbfbeeebbca",
".#b...a..bbbbffeeeebca",
".#b.aaa..bbbbfffeegbca",
".#b......bbbbbffegbbca",
".#hhhhhhhhbbbbbfgbbbca",
".#hhihhhhhbbbbbbbbbbca",
".#hhhhhhhhbbbbbbbbbbca",
".#baaaaaabbbbbbbbbbbca",
".#bhhhhhhbbbbbbbbbbbca",
".#bbbbbbbbbbbbbbbbbbca",
".#bbbbbbbbbbbbbbbbbbca",
".cccccccccccccccccccca",
"aaaaaaaaaaaaaaaaaaaaaa"};
