/* XPM */
static char * quit_xpm[] = {
"22 22 93 2",
"  	c None",
". 	c #FFFFFF",
"+ 	c #14110D",
"@ 	c #0F0D0A",
"# 	c #000000",
"$ 	c #261F19",
"% 	c #392F27",
"& 	c #544438",
"* 	c #554539",
"= 	c #322921",
"- 	c #0A0807",
"; 	c #100D0B",
"> 	c #3E3229",
", 	c #4B3D31",
"' 	c #57473A",
") 	c #554538",
"! 	c #4D3F33",
"~ 	c #110E0B",
"{ 	c #14100D",
"] 	c #42362C",
"^ 	c #4F4035",
"/ 	c #5A4A3C",
"( 	c #615041",
"_ 	c #564639",
": 	c #2B231D",
"< 	c #524337",
"[ 	c #58483B",
"} 	c #645243",
"| 	c #5E4E3F",
"1 	c #4C3E32",
"2 	c #44382D",
"3 	c #080605",
"4 	c #060504",
"5 	c #493C31",
"6 	c #4C3E33",
"7 	c #514236",
"8 	c #5E4C3E",
"9 	c #4E4034",
"0 	c #251F19",
"a 	c #070605",
"b 	c #4A3C32",
"c 	c #46392F",
"d 	c #4A3C31",
"e 	c #2B231C",
"f 	c #15110E",
"g 	c #28201A",
"h 	c #352B24",
"i 	c #1F1A15",
"j 	c #2D241E",
"k 	c #231C17",
"l 	c #201A15",
"m 	c #483B30",
"n 	c #4D3F34",
"o 	c #241D18",
"p 	c #14110E",
"q 	c #241E18",
"r 	c #57483A",
"s 	c #4C3F33",
"t 	c #16120F",
"u 	c #28211B",
"v 	c #46392E",
"w 	c #332A22",
"x 	c #2D251E",
"y 	c #191511",
"z 	c #0E0B09",
"A 	c #3B3127",
"B 	c #40342A",
"C 	c #4B3D32",
"D 	c #40342B",
"E 	c #2A221C",
"F 	c #3E332A",
"G 	c #44372D",
"H 	c #504236",
"I 	c #45392F",
"J 	c #1B1612",
"K 	c #4D4034",
"L 	c #372D25",
"M 	c #120E0C",
"N 	c #3B3027",
"O 	c #41352B",
"P 	c #41352C",
"Q 	c #3A2F27",
"R 	c #40352B",
"S 	c #302720",
"T 	c #1C1713",
"U 	c #342B23",
"V 	c #0F0C0A",
"W 	c #13100D",
"X 	c #070504",
"Y 	c #3C3128",
"Z 	c #17120F",
"` 	c #2E261F",
" .	c #27201A",
"                            + + @           ",
"                      # $ % & * = -         ",
"                    ; > , ' ) ! ! ~         ",
"                  { ] ^ / ( ) _ :           ",
"                  $ < [ } | 1 2 3           ",
"                4 5 6 7 8 ! 9 0             ",
"                a b c 6 d e ~               ",
"                  f g h i                   ",
"            j k                   # #       ",
"          l m n o             # # v w #     ",
"          q b r s #         # 2 B C D #     ",
"            x # y         # C 5 F c G #     ",
"                          # I 6 ! < J       ",
"                        o K c ] 6 L M       ",
"                        # C N O c : #       ",
"                        # G Q D S #         ",
"                        T D D # #           ",
"                    -     # #               ",
"                  u d W                     ",
"                  # 7 Y Z                   ",
"                  ` U  .;                   ",
"                    # #                     "};
