/* XPM */
static const char * reference_xpm[] = {
"32 24 165 2",
"  	c None",
". 	c #949395",
"+ 	c #9A989A",
"@ 	c #A4A4A4",
"# 	c #ABABAB",
"$ 	c #ACACAC",
"% 	c #ADACAC",
"& 	c #ADABAB",
"* 	c #ACABAB",
"= 	c #AAAAAA",
"- 	c #929292",
"; 	c #636363",
"> 	c #4A4949",
", 	c #494848",
"' 	c #646262",
") 	c #8C8B8B",
"! 	c #A7A6A6",
"~ 	c #ACABB4",
"{ 	c #AEA9B6",
"] 	c #E7E6E8",
"^ 	c #EDEBED",
"/ 	c #F6F6F6",
"( 	c #FDFDFD",
"_ 	c #FEFEFE",
": 	c #FFFEFE",
"< 	c #FFFDFD",
"[ 	c #FEFDFD",
"} 	c #F9F9F9",
"| 	c #D0D0D0",
"1 	c #919191",
"2 	c #727171",
"3 	c #737272",
"4 	c #C8C7C7",
"5 	c #F4F3F3",
"6 	c #FDFBFB",
"7 	c #F4F4F4",
"8 	c #FBFBFB",
"9 	c #F3F3F3",
"0 	c #BDBDBD",
"a 	c #8B8B8B",
"b 	c #7F7F7F",
"c 	c #868585",
"d 	c #979696",
"e 	c #C1C1C1",
"f 	c #F0F0F0",
"g 	c #FFFFFF",
"h 	c #FCFCFC",
"i 	c #E5E5E5",
"j 	c #878787",
"k 	c #969696",
"l 	c #9E9E9E",
"m 	c #B9B9B9",
"n 	c #EBEBEB",
"o 	c #C8C8C8",
"p 	c #B0B0B0",
"q 	c #C0C0C0",
"r 	c #A1A1A1",
"s 	c #AEAEAE",
"t 	c #E4E4E4",
"u 	c #DDDDDD",
"v 	c #9D9D9D",
"w 	c #7A7A7A",
"x 	c #CECECE",
"y 	c #D4D4D4",
"z 	c #AFAFAF",
"A 	c #737373",
"B 	c #767676",
"C 	c #ADADAD",
"D 	c #E6E6E6",
"E 	c #DFDFDF",
"F 	c #A6A6A6",
"G 	c #A0A0A0",
"H 	c #D6D6D6",
"I 	c #C4C4C4",
"J 	c #7C7C7C",
"K 	c #5B5B5B",
"L 	c #818181",
"M 	c #CACACA",
"N 	c #F7F7F7",
"O 	c #E8E8E8",
"P 	c #CCCCCC",
"Q 	c #E0E0E0",
"R 	c #5D5D5D",
"S 	c #5F5F5F",
"T 	c #A3A3A3",
"U 	c #EFEFEF",
"V 	c #BABABA",
"W 	c #9B9B9B",
"X 	c #F2F2F2",
"Y 	c #E9E9E9",
"Z 	c #FAFAFA",
"` 	c #DADADA",
" .	c #A9A9A9",
"..	c #6C6C6C",
"+.	c #C5C5C5",
"@.	c #B7B7B7",
"#.	c #EDEDED",
"$.	c #B1B1B1",
"%.	c #E7E7E7",
"&.	c #717171",
"*.	c #B3B3B3",
"=.	c #EEEEEE",
"-.	c #F8F8F8",
";.	c #D1D1D1",
">.	c #CDCDCD",
",.	c #C3C3C3",
"'.	c #8C8C8C",
").	c #6A6A6A",
"!.	c #4E4E4E",
"~.	c #616161",
"{.	c #E2E2E2",
"].	c #DBDBDB",
"^.	c #696969",
"/.	c #D8D8D8",
"(.	c #898989",
"_.	c #D2D2D2",
":.	c #A7A7A7",
"<.	c #7B7B7B",
"[.	c #828282",
"}.	c #838383",
"|.	c #949494",
"1.	c #B5B5B5",
"2.	c #959595",
"3.	c #B4B4B4",
"4.	c #8D8D8D",
"5.	c #D7D7D7",
"6.	c #F1F1F1",
"7.	c #BEBEBE",
"8.	c #9A9A9A",
"9.	c #B8B8B8",
"0.	c #CBCBCB",
"a.	c #5C5C5C",
"b.	c #707070",
"c.	c #B2B2B2",
"d.	c #C7C7C7",
"e.	c #C6C6C6",
"f.	c #B6B6B6",
"g.	c #4B4B4B",
"h.	c #525252",
"i.	c #BBBBBB",
"j.	c #909090",
"k.	c #595959",
"l.	c #656565",
"m.	c #787878",
"n.	c #585858",
"o.	c #484848",
"p.	c #555555",
"q.	c #A8A8A8",
"r.	c #E1E1E1",
"s.	c #BCBCBC",
"t.	c #6D6D6D",
"u.	c #666666",
"v.	c #676767",
"w.	c #D9D9D9",
"x.	c #CFCFCF",
"y.	c #C2C2C2",
"z.	c #989898",
"A.	c #939393",
"B.	c #E3E3E3",
"C.	c #A5A5A5",
"D.	c #DCDCDC",
"E.	c #7E7E7E",
"F.	c #515151",
"G.	c #848484",
"H.	c #505050",
". + @ # $ $ % % & $ $ $ $ $ * * * * = - ; > , ' ) ! * $ * * ~ { ",
"] ^ / ( _ _ : : < _ _ _ _ _ [ [ [ [ } | 1 2 3 - 4 5 [ _ [ [ [ 6 ",
"7 / 8 _ _ _ : : : _ _ _ _ _ _ _ _ _ 9 0 a b c d e f _ _ _ _ _ [ ",
"g g g g g g g g g g g g g g g g g h i @ j k @ l m n _ g g g g g ",
"g g g g g g g g g g g g g g g g g / o a j p q r s t ( g g g g g ",
"g g g g g g g g g g g g g g g g h u v w k x y r @ u 8 g g g g g ",
"g g g g g g g g g g g g g g g _ n z A B C D E F G H } g g g g g ",
"g g g g g g g g g g g g g g g } I J K L M N O z v P / g g g g g ",
"_ g g g g g g g g g g g g g 8 Q 1 R S T t ( U V W e X g g g g g ",
"Y Z g g g g g g g g g _ 8 U `  ...R b x N g 7 +.W @.#.g g g g g ",
"$.O _ g g g g g g g g 8 %.q l &.K B *.=._ g -.;.r p O _ g g g g ",
"w >.h g g g g g g g _ U ,.'.).!.~.@ {.( g g Z ]. .$ {.( g g g g ",
"^.@.X _ g g g g g g 8 /.l &.S K (._.} g g g h Q s :.` 8 g g g g ",
"<.:.{.( g g g g g ( O $.[.B }.|.+.X g g g g ( D 1. .y N g g g g ",
"'.2.e X _ g g g } t 3.}.&.4.V 5.6.( g g g g _ n 7.C >.7 g g g g ",
"8.}.1 9.0.].n i M :.w a.b.c.Y 8 _ g g g g g g U d.s e.f _ g g g ",
"3.w ^.4.T $ f.C - ..g.h.a /.Z g g g g g g g g 9 P  .i.Y ( g g g ",
"y j.a.k.l.m.'.<.n.o.p.w i.6._ g g g g g g g g N _.q.$.r.8 g g g ",
"U s.(.}.}.B t.u.v.b.(.9.D h g g g g g g g g g 8 w.q.r x./ g g g ",
"h Y y.q.G 8.z.A.2.= | U h g g g g g g g g g g ( B.s 4.C.D.} g g ",
"g ( N 6.D | 7.,.w.=.} _ g g g g g g g g g g g g =.9.E.w 8.c.i.y.",
"g g g g ( 8 -.-.h _ g g g g g g g g g g g g g g -.| }.k.B v q.z ",
"g g g g g g g g g g g g g g g g g g g g g g g g ( O $ ..F.p.~.A ",
"g g g g g g g g g g g g g g g g g g g g g g g g g Z _.G.h.H.S B "};
