/* XPM */
static char * relation_xpm[] = {
"17 13 8 1",
" 	c None",
".	c #000080",
"+	c #FF00FF",
"@	c #C0C0C0",
"#	c #FF0000",
"$	c #000000",
"%	c #00FFFF",
"&	c #808080",
".++++++++++++++++",
".++++++@###@+++++",
"$++++@#######@+++",
"$+++@##@@+@@##@++",
"$++@#@+++++++@##+",
".++++++++++++++++",
"........++.......",
"..%%%%%.++.%%%%%.",
"........++.......",
"..&&&&&.++.&&&&&.",
"..&&&&&.++.&&&&&.",
"..&&&&&.++.&&&&&.",
"........++......."};
