/* XPM */
static char * reset_xpm[] = {
"20 20 127 2",
"  	c None",
". 	c #5A5A5A",
"+ 	c #585858",
"@ 	c #666666",
"# 	c #3D3D3D",
"$ 	c #2C2C2C",
"% 	c #4A4A4A",
"& 	c #1D1D1D",
"* 	c #212121",
"= 	c #96A997",
"- 	c #788779",
"; 	c #90A291",
"> 	c #A8BDA9",
", 	c #8A9B8B",
"' 	c #849485",
") 	c #69766A",
"! 	c #3F3F3F",
"~ 	c #A5BAA6",
"{ 	c #606C61",
"] 	c #C0D8C1",
"^ 	c #485148",
"/ 	c #879888",
"( 	c #3F473F",
"_ 	c #93A594",
": 	c #606C60",
"< 	c #758476",
"[ 	c #2D332D",
"} 	c #242924",
"| 	c #667367",
"1 	c #424A42",
"2 	c #6C7A6D",
"3 	c #819182",
"4 	c #303630",
"5 	c #576257",
"6 	c #9CAF9D",
"7 	c #8D998E",
"8 	c #849085",
"9 	c #7B877C",
"0 	c #FEBEBE",
"a 	c #FAAEA3",
"b 	c #747A74",
"c 	c #666C67",
"d 	c #595F59",
"e 	c #820202",
"f 	c #FE0202",
"g 	c #FAD2CE",
"h 	c #D9CEC7",
"i 	c #804444",
"j 	c #595959",
"k 	c #855555",
"l 	c #EF8080",
"m 	c #EF1C1C",
"n 	c #784848",
"o 	c #565656",
"p 	c #4E4E4E",
"q 	c #404040",
"r 	c #292929",
"s 	c #7A5B5B",
"t 	c #E06060",
"u 	c #684848",
"v 	c #343434",
"w 	c #4B4B4B",
"x 	c #676767",
"y 	c #969696",
"z 	c #B0AC70",
"A 	c #9D9C8D",
"B 	c #515151",
"C 	c #503C3C",
"D 	c #493535",
"E 	c #3B3B3B",
"F 	c #838383",
"G 	c #8B8B8B",
"H 	c #A2A2A2",
"I 	c #A5A491",
"J 	c #DED22F",
"K 	c #5E5E5E",
"L 	c #737373",
"M 	c #9A9A9A",
"N 	c #A4A4A4",
"O 	c #A7A7A7",
"P 	c #A1A1A1",
"Q 	c #0019FF",
"R 	c #424EBD",
"S 	c #8F8B4F",
"T 	c #BDB75E",
"U 	c #989898",
"V 	c #F4E515",
"W 	c #FFEE00",
"X 	c #C4C4C4",
"Y 	c #CFC970",
"Z 	c #9F9F9F",
"` 	c #B3B3B3",
" .	c #B8B8B8",
"..	c #4D4915",
"+.	c #403B00",
"@.	c #313131",
"#.	c #FE7E7A",
"$.	c #8A93CE",
"%.	c #606CBC",
"&.	c #A3A3A3",
"*.	c #939393",
"=.	c #717171",
"-.	c #171717",
";.	c #191919",
">.	c #000000",
",.	c #00138F",
"'.	c #0022FF",
").	c #909090",
"!.	c #F41515",
"~.	c #4D1515",
"{.	c #777777",
"].	c #282828",
"^.	c #3A3A3A",
"/.	c #393939",
"(.	c #02030A",
"_.	c #0017AB",
":.	c #4457CF",
"<.	c #8A8A8A",
"[.	c #5A5842",
"}.	c #6B6947",
"|.	c #842424",
"1.	c #3C2424",
"2.	c #2F2F2F",
"3.	c #2E2E2E",
"4.	c #272727",
"5.	c #242C60",
"6.	c #394175",
"                                        ",
"    . . . . . . . . . . . . +           ",
"  @ # $ $ $ $ $ $ $ $ $ $ $ % &         ",
"  @ * = - ; > , = = - ' , ) ! &         ",
"  @ * ~ ) { ] ^ - / - ( ^ - ! &         ",
"  @ * _ ( : ] < [ - } | ^ - ! &         ",
"  @ * _ 1 2 < ] 3 3 4 | 5 - ! &         ",
"  @ * 6 7 8 9 9 ] 0 ] ] ] - ! &   a 0   ",
"  @ * , b c d d ] e f ] ] - ! & a f e   ",
"  @ * ^ ^ ^ ^ ^ ^ ^ e f g [ ! a f e h   ",
"  @ i i j j j j j j j e f g g f e h     ",
"  k l m n j o p q r r r e f f e h       ",
"  s t t u $ v w x y z A g f f a         ",
"  B C D E F G H y I J g f e e f a       ",
"  x K L M N M O y P g f e Q R e f a     ",
"  S T P U O V W X g f e P y G & e f a   ",
"  S Y Z `  ...+.@.#.e $.%.&.*.&   e #.  ",
"  S T O  .=.-.& & ;.>.,.'.Z ).&         ",
"  S T !.~.r {.].^./.* (._.:.<.&         ",
"  [.}.|.1.2.3.$ ^.^.^.4.5.6.+ 2.        "};
