/* XPM */
static char* scada[]={
"32 32 13 1",
"e c #808080",
". c None",
"g c #008000",
"# c #a0a0a0",
"k c #c0c000",
"i c #00ffff",
"b c #000000",
"a c #ffff00",
"c c #0000ff",
"d c #00c000",
"j c #c000c0",
"f c #ffffff",
"h c #ff0000",
"................................",
"................................",
"..................#a#a#a#a#a###.",
"bbbbbbbbbbbbbbbbb.#a#a#a#a#a###.",
"bcccccccccccccccb.ddddddddddddd.",
"bcccccccccccccccb.dddddddddbbdd.",
"bbbbbbbbbbbbbbbbb.dbbddddddbbdd.",
"beeeeeeeeeeeeeeeb.dbbddddddbbdd.",
"befffffffffffffeb.dbbdddbbdbbdd.",
"bef...........feb.ddddddbbddddd.",
"bef........aaafeb.ddddddbbddddd.",
"bef.gg.....aaafeb.ddddddddddddd.",
"bef.gg.....aaafeb.ddddddddddddd.",
"bef....hhhhaaafeb...............",
"bef....hhhhccccccccccccc........",
"bef....hhhhciiiiiiiiiiic........",
"bef....hhhhciiiiiiiiiiic........",
"bef........ccccccccccccc........",
"bef........cfbfffffffffc........",
"befffffffffcfbffffffffjc........",
"beeeeeeeeeecfbfkfffffjgc........",
"bbbbbbbbbbbcfbfkgfffjgfc........",
"...........cfbfkgffjfgfc........",
"...........cbbbbgbjbbgbc........",
"...........cfbffgjffgffc........",
"...........cfbffjgfgfffc........",
"...........cfbfjffgffffc........",
"...........cfbjffffffffc........",
"...........ccccccccccccc........",
"................................",
"................................",
"................................"};
