/* XPM */
static char * stop_button_up_xpm[] = {
"68 68 76 1",
" 	c None",
".	c #211818",
"+	c #848200",
"@	c #9C8600",
"#	c #C6CF31",
"$	c #C6C700",
"%	c #292021",
"&	c #E7CF4A",
"*	c #E7E700",
"=	c #E7E718",
"-	c #FFFF4A",
";	c #D6E752",
">	c #F7F700",
",	c #312829",
"'	c #EFF718",
")	c #FFFF6B",
"!	c #FFFB18",
"~	c #FFFF00",
"{	c #FFFF08",
"]	c #848284",
"^	c #5A5952",
"/	c #946163",
"(	c #C6696B",
"_	c #BD967B",
":	c #D68E7B",
"<	c #FF9E9C",
"[	c #FF797B",
"}	c #FF965A",
"|	c #EFAE4A",
"1	c #F7B631",
"2	c #FFD700",
"3	c #FFB6B5",
"4	c #FF595A",
"5	c #EFB600",
"6	c #FFD773",
"7	c #CEAE94",
"8	c #FF3031",
"9	c #E79E00",
"0	c #F7D78C",
"a	c #F70000",
"b	c #7B2808",
"c	c #9C1010",
"d	c #FFCF7B",
"e	c #F7D7D6",
"f	c #CE0000",
"g	c #421810",
"h	c #BD3800",
"i	c #B56100",
"j	c #CE9E00",
"k	c #D6AE00",
"l	c #FFD763",
"m	c #E7AE8C",
"n	c #8C0808",
"o	c #9C0000",
"p	c #4A0000",
"q	c #FFFFFF",
"r	c #C6BEB5",
"s	c #840000",
"t	c #E7E7E7",
"u	c #A54131",
"v	c #940000",
"w	c #AD594A",
"x	c #9C0800",
"y	c #A51008",
"z	c #FFF7DE",
"A	c #842800",
"B	c #DE9E29",
"C	c #8C3018",
"D	c #946900",
"E	c #730000",
"F	c #FFE700",
"G	c #FFFF21",
"H	c #FFFF9C",
"I	c #E7D763",
"J	c #E7D773",
"K	c #9C9E9C",
"........+++++++++++.........+++++++++++.........+++++++++++.........",
".......@@@@@@@@@@@.........@@@@@@@@@@@.........@@@@@@@@@@@.........#",
"......$$$$$$$$$$$.%.%.%.%.$$$$$$$$$$$.%.%.%.%.$$$$$$$$$$$.%.%..%.%#&",
"...%%$**$**$**$*%%%%%%%%%***$**$**$*%%%%%%%%%***$**$**$*%%%%%%%%%=-;",
"...%****>**>**>%%,,,,,%,****>**>**>%%,,,,,%,****>**>**>%%,,,,,,%*';)",
"...$*>>>>>>>>>,,,,%,%,,>>>>>>>>>>>,,,,%,%,,>>>>>>>>>>>,,,,%,%,,>>!-)",
"..$**>>~~~~~~,,,,,,,,,~~~~~~~~~~~,,,,,,,,,~~~~~~~~~~~,,,,,,,,,~~~{-)",
".@$*>>~~~~~~,,,,,,,,,~~~~~~~~~~~,,,,,,,,,~~~~~~~~~~~,,,,,,,,,~~~~!-)",
"+@$**>~~~~~,,,,,,,,,~~~~~~~~~~~,,,,,,,,,~~~~~~~~~~~,,,,,,,,,~~~~~!--",
"+@$$>>~~~~,,,,,,,,,~~~~~~~~~~~,,,,,,,,,~~~~~~~~~~~,,,,,,,,,~~~~~~!-)",
"+@$**>~~~,,,,,,,,,~~~~~~~~~~~,,,,,,,,,~~~~~~~~~~~,,,,,,,,,~~~~~~~!-)",
"+@$*>>~~,,,,,,,,,~~~~~~~~~~~,,,,,,,,,~~~~~~~~~~~,,,,,,,,,~~~~~~~~!-]",
"+@$$*>~,,,,,,,,,~~~~~~~~~~~,^/(_:<[[}}|12~~~~~~,,,,,,,,,~~~~~~~~~!^]",
"+@$*>>,,,,,,,,,~~~~~~~~~~!/:33<<<<<[[[444452>~,,,,,,,,,~~~~~~~~~~^^]",
"+@$**,,,,,,,,,~~~~~~~~~!67333<3<<[<[[[4448889,%,,,,,,,~~~~~~~~~~,,]]",
"+@$*%,,,,,,,,~~~~~~~~~-0333333<<<<[[[44448888ab,%,,,,~~~~~~~~~~,,^^]",
"+@$.%,,,,,,,~~~~~~~~!63333333<<<<[[[[4448888aaac,,%,>~~~~~~~~~,,,,]]",
"+@.%,%,,,,,~~~~~~~~!d3e3e333<3<<<<[[4448888a8aaafg,>>~~~~~~~~,,,,^^]",
"+..%%,,,,,~~~~~~~~!0e33333333<<<[[[[44448888aaaaac5*>>>~~~~~,,,,,,/]",
"..%%,,,,,~~~~~~~~{0333e3333<<<<<[[[4444888aaaaaaaah5*>>>~~~,,,,,,^^]",
"...%,%,,~~~~~~~~~63e3333333<<<[[[[44448888aaaaaaaaai**>>>~,,,,,,,,])",
"...%,,,~~~~~~~~~-333e3333<3<<<[[[[4448488a8aaaaafafaj**>>,,,,,,,,^-)",
"..%%%%~~~~~~~~~!0333333333<<<[[[444448888aaaaaaaaffffk**,%,,,,,,,{-)",
"...%,>~~~~~~~~~l33333333<<<<[[[444448888aaaaaafaffaffi$%%,,,,,,,~!-)",
"..%%*>~~~~~~~~!m333333<<<<<[[[4444888888aaaaaaaffaffffg%%%,,,,,~~!--",
"...**>~~~~~~~~/33333<<3<<<[[[4448888888aaaaaaafaffffffb.%%%,,,~~~!-)",
"..$*>>~~~~~~~,:<3<3<3<<<<[[[448488888a8aaaaaafafffffffn%%%,%,~~~~!-)",
".@$**>~~~~~~,^<3<3<<<<<<[[[444888888a8aaaaaafaffffffofog%%%,>>~~~!-)",
"+@$**>~~~~~,,/<<<<<<<<[[[[444888aaaaaaaaaaaafffffffofofp%%%*>>~~~!--",
"+@$**>~~~~,,,(<<<<3eeee<44<<<<[[<[8a[33<4afa[[[[:(ffooon.%**>>~~~!-)",
"+@$*>>~~~,,,,(<<<3qqqqqq<4qqqqqqqq4eqqqqqeafqqqqqqrfofos.$$**>>~~!-)",
"+@$**>~~,,,,,:[<[eqq<3qq34<<<qq3[[[qq<8<qq<fqqe:tqquooov$$$**>~~~!-]",
"+@$$>>~,,,,,,[[[[eqq33[448884qq[aaeqeaaaeqefqq3f:qqwooox@$$**>>~~!^]",
"+@$**>,,,,,,,[[[[[eqqqqe[8884qq[aaqq3aaa3qqfqqt3qqqyoooo@$$$**>~~^^]",
"+@$**,,,,,,,,[[[4[4[<3qqz8884qq[aaqq3aaa3qqfqqqqqq(ooovx@$$$*>>>,,]]",
"+@$*%,,,,,,,,}444zqz44eqq88a4qq[aa<qq8a8qq3fqqewwcoovvvn$@$$**>,,^^]",
"+@$.,,,,,,,,~}4443qqzeqq388a4qq[aa8qqz3tqq8fqq3ooooovvsA@$$$**,,,,]]",
"+@.%%,,,,,,~~B4484eqqqqe8a8a4qq[aaa4eqqqz(ffqq3oooovssvC@$$$*%,,,^^]",
"+..%,%,,,,~~~1888884448a8aaaaaaaaaaaa888fffofooooosvsssi@@$$%%,,,,/]",
"...,%,,,,~~~~288888a88a8aaaaaaaaaaaaffffffffoooovvvssss+@$$%%,,,,^^]",
"..%%,,,,~~~~~~4888a8aaaaaaaaaaafafffaffffoooooovvsssssA@$@%%,%,,,,])",
"...%%,,~~~~~~~98aaaaaaaaaaaaafaffaffffffffoooovvssssssD@@%%%%,%,,^-)",
"...%,%~~~~~~~~288aaaaaaaaaaafafaffffffffooooovvsssssEn@@%..%%%,,,{-)",
"..%%%>~~~~~~~~F9aaaaaaaaafafaffffffffffooooovvsssssssC@..%%%,,,,~!-)",
"...%>>~~~~~~~~>gfaaaaaaafafffffffffffoooooovssssssEsA+...%%%,%,~~!--",
"..%**>~~~~~~~~,,baaaaafaffaffffffffofofooovvssssEsssD....%%%,,>~~!-)",
"..$**>~~~~~~~,,,,caaafafafffffffofofooooovsssssssssC.....%%%,>~~~!-)",
".@$*>>~~~~~~,,,,,gyafafffffffffffofoooovvvsssssEssA.....%%%,>~~~~!-)",
"+@$$*>~~~~~,,,,,,,gcfffffffffofoooooooovsssssEsssA%....%%%,>>~~~~!--",
"+@$**>~~~~,,,,,,,,,5hafffffffofofoooovvssssssssEAg....%%%%*>~~~~~!-)",
"+@$*>>~~~,,,,,,,,,>>5iffffofofoooooovvvsssssEssC%....%.%%>>>~~~~~!-)",
"+@$**>~~,,,,,,,,,>>>**9hfffofoooooovvsssssEssAD......%%%*>>~~~~~~!-]",
"+@$$>>~,,,,,,,,,~~~>>*$kiyfooofooovvsssssssAC@......%%%*>>>~~~~~~!^]",
"+@$**>,,,,,,,,,~~~~>>>***gEcooooovvsssssEAD@@.....%%%%*>>>~~~~~~~^^]",
"+@$**,,,,,,,,,~~~~~~>>>*%%%%ggEssvvvnACD@@@@.....%%%%*>>>~~~~~~~,,]]",
"+@$*%,,,,,,,,~~~~~~~~>>%,%%%%%%%@$@@$@@@@@@....%%%%%*>>>~~~~~~~,,^^]",
"+@$.,,,,,,,,~~~~~~~~~~,,%,%%%%%$$$$$@$$$$$%%%%%%%%%*>>>~~~~~~~,,,,]]",
"+@.%%,,,,,,~~~~~~~~~~,,,,,,%,%*$$$$$$$$$$..%%%%%%,>>>~~~~~~~~,,,,^^]",
"+..%,%,,,,~~~~~~~~~~,,,,,%,,%****$*$$$$$.%%%%%%,%>>>~~~~~~~~,,,,,,/]",
"...,%,,,,~~~~~~~~~~,,,,,,,,,>>>********,%%,%%,,,>>>~~~~~~~~,,,,,,^^]",
"..%%,,,,~~~~~~~~~~,,,,,,,,,>~>>>>>*>**%%,,%,,,%>~~~~~~~~~~,,,,,,,,])",
"...%%,,~~~~~~~~~~,,,,,,,,,~~~~~>>>>>>,,,%,,,%,~~~~~~~~~~~,,,,,,,,^-)",
"...%,%~~~~~~~~~~,,,,,,,,,~~~~~~~~~~~,,,,,,,,,~~~~~~~~~~~,,,,,,,,,{-)",
"..%%%>~~~~~~~~~,,,,,,,,,~~~~~~~~~~~,,,,,,,,,~~~~~~~~~~~,,,,,,,,,~!-)",
"...%>>~~~~~~~~,,,,,,,,,~~~~~~~~~~~,,,,,,,,,~~~~~~~~~~~,,,,,,,,,~~!--",
"..%==!GGGGGGG^,^^,^,^,GGGGGGGGGGG^,^,^,^,^!GGGGGGGGGG^,^^,^^,^!GG--)",
".%#;--------]^]]^]]]])----------]^]]]]]]]-----------]^]]^]]^]----)HH",
".#I)J))))))]]K]]K]]])))))))))))]]K]]]]]])))))))))))]]K]]K]]]))))))HH"};
