/* XPM */
static char * stop_button_down_xpm[] = {
"68 68 70 1",
" 	c None",
".	c #000000",
"+	c #735100",
"@	c #946900",
"#	c #848200",
"$	c #9C8600",
"%	c #CEA629",
"&	c #D6B65A",
"*	c #CE9E00",
"=	c #D6AE00",
"-	c #C6CF31",
";	c #E7C763",
">	c #C6C700",
",	c #DEBE18",
"'	c #E7CF4A",
")	c #E7D763",
"!	c #5A5952",
"~	c #312829",
"{	c #6B4929",
"]	c #946163",
"^	c #C6696B",
"/	c #D68E7B",
"(	c #FF9E9C",
"_	c #FF797B",
":	c #FF965A",
"<	c #DE9E29",
"[	c #E79E00",
"}	c #FFB6B5",
"|	c #FF595A",
"1	c #CE6931",
"2	c #CE8E21",
"3	c #211818",
"4	c #EFB66B",
"5	c #CEAE94",
"6	c #FF3031",
"7	c #080800",
"8	c #EFB652",
"9	c #E7C78C",
"0	c #CE0000",
"a	c #730000",
"b	c #A54131",
"c	c #A51C18",
"d	c #9C1010",
"e	c #F70000",
"f	c #940000",
"g	c #F7D7D6",
"h	c #AD594A",
"i	c #8C0808",
"j	c #840000",
"k	c #9C0000",
"l	c #A51008",
"m	c #7B2808",
"n	c #BD3800",
"o	c #B56100",
"p	c #F7B652",
"q	c #4A0000",
"r	c #9C0818",
"s	c #8C3018",
"t	c #9C9E9C",
"u	c #BD967B",
"v	c #848284",
"w	c #9C0800",
"x	c #842800",
"y	c #F7B631",
"z	c #E7D773",
"A	c #CE9642",
"B	c #F7D78C",
"C	c #BD8E39",
"D	c #E7C773",
"E	c #EFD7AD",
"........+++++++++++.........+++++++++++.........+++++++++++.........",
".......@@#@@#@@#@@.........@@#@@#@@#@@.........@@#@@#@@#@@.........$",
"......#$#$#$#$#$#.........#$#$#$#$#$#.........#$#$#$#$#$#.........%&",
".....$*$$*$*$$*$.........$*$$*$*$$*$.........$*$$*$*$$*$.........%&&",
"....$*$*=*$=*=$.........****=$=**=$.........****=$=**=$.........*%-;",
"...$**==*==*==.........===>===*>=*.........===>===*>=*.........==,';",
"..$$$========.........===========.........===========.........===,')",
".@#$=*======.........===========.........===========.........====,')",
"+@$$*======.........===========.........===========.........=====,')",
"+@#*$=====.........===========.........===========.........======,')",
"+@$$**===.........===========.........===========.........=======,')",
"+@#$*===.........===========.........===========.........========,'!",
"+#$$===.........===========.~{]^/(___:<<[======.........=========,!!",
"+@#*$=.........==========,!/}}(}(((___|||12[==.........==========3!!",
"+@$$*.........=========,45}}}}((((____|||66617........==========.3!!",
"+@#$.........=========89}}}}}(}((_(__||||66660a......==========..3!!",
"+#$.........========,4}}}}}}(/^bcdddcb666666eeef7...==========...3!!",
"+@.........========,9}g}g}}/hifjjffkkkkl066e6eeek7.==========....3!!",
"+.........========,9}g}}}/bjjjjjfjfkkkk0l00eeeeeek$***======.....3!!",
".........========,9}g}}}^mjjjjjjjfkkkk0k0000eeeeeee$$=*====......3!!",
"........=========4}}}}}bjjjajjjfffkkk0k000000eeee0en***===.......3!;",
".......=========8}}}g(bajjjjjjjjfkkk0k00000000eee0e0o$$*=........3')",
"......=========,9}}}}bjjjjajjjffkkkkk0000000ee0e0e000$$*.........,')",
".....==========p}}}}^jajajjjjfffkkk00000000e0eeee0000n$.........=,')",
"....*=========,5}}}/ijjjjjjjfffkkk0000000eeeeeeeee00007........==,';",
"...$*=========!}}}}bjajjjjjfffkkk0k00000e0eeeeeeee0000q.......===,')",
"..$$*========./(}(/jjjjjjjfffkkk0k00000e0eeeeeeee60000f......====,')",
".@#$*=======.~((}(bjjjjjjfffkkk0k00000eeeeeeeeee66e0k0k7....=====,')",
"+@$$=*=====..{(}(/rjjjjffffkkk0k0000eeeeeeeee66666600k0q...**====,')",
"+@#*$=====...](((hs]]]]sfkbbbbbbbb0eb^^^bee6hh|^^^6c0kka..$**====,')",
"+@$$*====....^(((httttttckttttttttb^tttttu66ttttttu6kkka.$$*$*===,')",
"+@#$*===...../_(_]ttsstt]kbb]tt^hhhtth6^tt^6ttt^ttthkkkf$#$$*====,'!",
"+#$**==......____]tt]bckk0k0cttb0eutv666ttt|ttu|/tthkkkk#$$$**===,!!",
"+@#$*=.......____d]ttttvc000bttheett^666utt|tttuttt|kkkk##$$$*===3!!",
"+@$$*........____dkrb]ttv000cttbeettu6||utt_tttttt/|kkff@$#$***=.3!!",
"+@#$.........||||utvll]tt0006tthee^tt|||ttu_ttt//((hfffw##$$*$=..3!!",
"+#$.........=:|||]ttuvtt]000ctt6e6|tttuttt/(ttt((((hffjx@$#$$*...3!!",
"+@.........==1||66]tttt^00ee6tth666^ttttt/((ttt((((cfjjx#$$$$....3!!",
"+.........===<66660dcb0000e0eeeee6|||_//(((((((}}((djjjs@##$.....3!!",
".........====[66660000000eeeeee666||__((((((}}}}(}^jjjj@@#$......3!!",
"........======6666e0000eeeeeee666||__(((((}}}}}}}(bjjjx@#$.......3!;",
".......=======2e6eee0000e0eeee666||__(((}}}}}}}}}/jjjjx#@........3')",
"......========[6eeeee0eeeeeee666||___(((}(}}}}}}}cjajj@@.........,')",
".....==========oeeeee0eeeeeee666||__((((}}}}}}}}hajjjs@.........=,')",
"....*==========70eeeeeeeeeee666||__(((}}}}}}}}g/jjjjx+.........==,';",
"...$*=========..aeeee0eeeee6666||___(((}}}}}g}/mjjjas.........===,')",
"..$$*========....jeeee0eee6e66|||__((}(}}}}}}/mjjjjx.........====,')",
".@#$*=======.....7ke0000eee666||___(((}}}}}}^jjjjax7........=====,')",
"+@$$=*=====.......7k0e0000666|||__((((}(}}/sjjjjax7........*=====,')",
"+@#*$=====.........$n000000066||___(((((^bjjjajjx7........*======,')",
"+@$$*====.........=**n000000k0c6h|^|^hbijajjjjjx7........**======,')",
"+@#$*===.........==***o00k0k0kkkkkkfffjjjjjjais.........*========,'!",
"+#$**==.........====**$$n0l0kkkkkkffjjjjjjajx@.........**========,!!",
"+@#$*=.........======**$$7qjkkkkkffjjjjjaxx@#.........**=========3!!",
"+@$$*.........=========*....7qaajfffixxs@@#@.........*$=========.3!!",
"+@#$.........=========*.........$##@#@#@@@#.........**=========..3!!",
"+#$.........==========.........$#$$#$#$#$#.........*==========...3!!",
"+@.........==========.........$$$$#$$$#$$.........*=*========....3!!",
"+.........==========.........**$$$$$$$$$.........*==========.....3!!",
".........==========.........=*>****$$$$.........===========......3!!",
"........==========.........===*==$**=*.........===========.......3!;",
".......==========.........==========*.........===========........3')",
"......==========.........===========.........===========.........,')",
".....==========.........===========.........===========.........=,')",
"....*=========.........===========.........===========.........==,';",
"...%%,,,,,,,,333333333,,,,,,,,,,,333333333,,,,,,,,,,,333333333,,,y)z",
"..A-&'''''''!!!!!!!!!'''''''''''!!!!!!!!!'''''''''''!!!!!!!!!'''')zB",
".C&DDzDzzzzv!vv!vv!vzzzzzzzzzzzv!vv!vv!vzzzzzzzzzzzv!vv!vv!vzzzzzzBE"};
