/* XPM */
static const char * table_plus_xpm[] = {
"16 13 8 1",
" 	c None",
".	c #000080",
"+	c #000000",
"@	c None",
"#	c #00FFFF",
"$	c #FFFF00",
"%	c #808080",
"&	c #FFFFFF",
"...........+++@@",
".##########+$+@@",
".........+++$+++",
".%%%%%%%%+$$$$$+",
".%&&%&&%&+++$+++",
".%%%%%%%%%%+$+@@",
".%&&%&&%&&%+++@@",
".%%%%%%%%%%.@@@@",
".%&&%&&%&&%.@@@@",
".%%%%%%%%%%.@@@@",
".%&&%&&%&&%.@@@@",
".%%%%%%%%%%.@@@@",
"............@@@@"};
