/* XPM */
static char * table_arrow_plus[] = {
"15 13 9 1",
" 	c None",
".	c #FF00FF",
"+	c #000080",
"@	c #000000",
"#	c #00FFFF",
"$	c #FFFF00",
"%	c #00FF00",
"&	c #808080",
"*	c #FFFFFF",
"....+++++++@@@+",
"..@@+######@$@#",
"..@%@++++@@@$@@",
"@@@%%@&&&@$$$$$",
"@%%%%%@*&@@@$@@",
"@@@%%@&&&&&@$@&",
"..@%@&**&**@@@&",
"..@@+&&&&&&&&&&",
"....+&**&**&**&",
"....+&&&&&&&&&&",
"....+&**&**&**&",
"....+&&&&&&&&&&",
"....+++++++++++"};
