/* XPM */
static const char* tag[] = {
/* columns rows colors chars-per-pixel */
"16 16 22 1",
"  c #000000",
". c #505050",
"X c #9d9171",
"o c #9da161",
"O c #85a19d",
"+ c #85a1ae",
"@ c #cea185",
"# c #dea185",
"$ c #cede9d",
"% c #dede85",
"& c #dede95",
"* c #dede9d",
"= c #cedeae",
"- c #dedeae",
"; c #ceee9d",
": c #deee85",
"> c #deee95",
", c #deee9d",
"< c #ceeeae",
"1 c #eede85",
"2 c #eede95",
"3 c None",
/* pixels */
"3333333333333333",
"3333333333333333",
"3333333333333333",
"3333333332133333",
"3333333&2:2.3333",
"333333&2&OoX33.3",
"3333***>*3+%2.33",
"33$**@@#&OO21.33",
"=<=@@;*&*>2%..33",
"=-$-@@&*&2&...33",
"3<=@-$*,*....333",
"33=-$**....33333",
"33=<-....3333333",
"333=...333333333",
"3333..3333333333",
"3333333333333333"
};
