/* XPM */
static char * warn_xpm[] = {
"8 16 2 1",
" 	c #FFFFFFFF0000",
".	c #000000000000",
"        ",
"   ..   ",
"   ..   ",
"   ..   ",
"   ..   ",
"   ..   ",
"   ..   ",
"   ..   ",
"   ..   ",
"   ..   ",
"   ..   ",
"   ..   ",
"        ",
"   ..   ",
"   ..   ",
"        "};
