%FSLAX42Y42*%
%MOMM*%
G71*
G01*
G75*
%ADD10C,0.30*%
%ADD11R,0.50X2.80*%
%ADD12R,2.10X1.30*%
%ADD13R,1.80X1.60*%
%ADD14C,0.40*%
%ADD15C,0.60*%
%ADD16C,0.50*%
%ADD17C,0.25*%
%ADD18C,2.00*%
%ADD19R,1.50X1.50*%
%ADD20O,1.40X1.50*%
%ADD21C,1.50*%
%ADD22C,1.40*%
%ADD23C,1.20*%
%ADD24C,0.90*%
%ADD25R,1.60X1.25*%
%ADD26R,1.10X1.00*%
%ADD27R,1.30X1.50*%
%ADD28R,1.00X0.85*%
%ADD29R,1.50X1.30*%
%ADD30R,1.00X0.50*%
%ADD31R,1.50X0.25*%
%ADD32C,0.80*%
%ADD33C,0.20*%
%ADD34R,0.70X3.00*%
%ADD35R,2.30X1.50*%
%ADD36R,2.00X1.80*%
%ADD37C,2.20*%
%ADD38R,1.70X1.70*%
%ADD39O,1.60X1.70*%
%ADD40C,1.70*%
%ADD41C,1.60*%
%ADD42C,1.40*%
%ADD43C,1.10*%
%ADD44R,1.80X1.45*%
%ADD45R,1.30X1.20*%
%ADD46R,1.50X1.70*%
%ADD47R,1.20X1.05*%
%ADD48R,1.70X1.50*%
%ADD49C,0.00*%
%ADD50C,0.15*%
D18*
X11775Y-3895D02*
D03*
X11045D02*
D03*
X11775Y-3415D02*
D03*
X11045D02*
D03*
D19*
X3575Y-2350D02*
D03*
X9200D02*
D03*
D20*
X3575Y-2604D02*
D03*
X3829D02*
D03*
X4083Y-2350D02*
D03*
X4337D02*
D03*
X4591D02*
D03*
X4845D02*
D03*
X5099D02*
D03*
X5353D02*
D03*
Y-2604D02*
D03*
X5607D02*
D03*
X9454Y-2350D02*
D03*
X9708D02*
D03*
X9962D02*
D03*
X10216D02*
D03*
X10470D02*
D03*
X10724D02*
D03*
X10978D02*
D03*
D21*
X3829D02*
D03*
X4083Y-2604D02*
D03*
X4337D02*
D03*
X4591D02*
D03*
X4845D02*
D03*
X5099D02*
D03*
X5607Y-2350D02*
D03*
X5861D02*
D03*
Y-2604D02*
D03*
X9200D02*
D03*
X9454D02*
D03*
X9708D02*
D03*
X9962D02*
D03*
X10216D02*
D03*
X10470D02*
D03*
X10724D02*
D03*
X10978D02*
D03*
X11232D02*
D03*
X11486Y-2350D02*
D03*
Y-2604D02*
D03*
D22*
X11232Y-2350D02*
D03*
D25*
X1500Y-1055D02*
D03*
Y-1400D02*
D03*
X2000Y-1055D02*
D03*
Y-1400D02*
D03*
X3000Y-780D02*
D03*
Y-1125D02*
D03*
X3500Y-780D02*
D03*
Y-1125D02*
D03*
X4000Y-780D02*
D03*
Y-1125D02*
D03*
X5400Y-805D02*
D03*
Y-1150D02*
D03*
X5925Y-805D02*
D03*
Y-1150D02*
D03*
X6375Y-805D02*
D03*
Y-1150D02*
D03*
X7300Y-780D02*
D03*
Y-1125D02*
D03*
X7800Y-780D02*
D03*
Y-1125D02*
D03*
X8200Y-780D02*
D03*
Y-1125D02*
D03*
X8700Y-780D02*
D03*
Y-1125D02*
D03*
X9200Y-780D02*
D03*
Y-1125D02*
D03*
X10900Y-780D02*
D03*
Y-1125D02*
D03*
X11400Y-780D02*
D03*
Y-1125D02*
D03*
X11900Y-780D02*
D03*
Y-1125D02*
D03*
X12400Y-780D02*
D03*
Y-1125D02*
D03*
X13400Y-1055D02*
D03*
Y-1400D02*
D03*
X13900Y-1055D02*
D03*
Y-1400D02*
D03*
X14400Y-1055D02*
D03*
Y-1400D02*
D03*
X14900Y-1055D02*
D03*
Y-1400D02*
D03*
X1000Y-1350D02*
D03*
Y-1005D02*
D03*
D26*
X9775Y-3200D02*
D03*
X9605D02*
D03*
X9775Y-3425D02*
D03*
X9605D02*
D03*
D27*
X10640Y-3125D02*
D03*
X10450D02*
D03*
X8010Y-2950D02*
D03*
X8200D02*
D03*
X8010Y-2675D02*
D03*
X8200D02*
D03*
D28*
X10105Y-3525D02*
D03*
X10345Y-3620D02*
D03*
Y-3430D02*
D03*
D29*
X10575Y-3435D02*
D03*
Y-3625D02*
D03*
M02*
