%FSLAX42Y42*%
%MOMM*%
G71*
G01*
G75*
%ADD10C,0.30*%
%ADD11R,0.50X2.80*%
%ADD12R,2.10X1.30*%
%ADD13R,1.80X1.60*%
%ADD14C,0.40*%
%ADD15C,0.60*%
%ADD16C,0.50*%
%ADD17C,0.25*%
%ADD18C,2.00*%
%ADD19R,1.50X1.50*%
%ADD20O,1.40X1.50*%
%ADD21C,1.50*%
%ADD22C,1.40*%
%ADD23C,1.20*%
%ADD24C,0.90*%
%ADD25R,1.60X1.25*%
%ADD26R,1.10X1.00*%
%ADD27R,1.30X1.50*%
%ADD28R,1.00X0.85*%
%ADD29R,1.50X1.30*%
%ADD30R,1.00X0.50*%
%ADD31R,1.50X0.25*%
%ADD32C,0.80*%
%ADD33C,0.20*%
%ADD34R,0.70X3.00*%
%ADD35R,2.30X1.50*%
%ADD36R,2.00X1.80*%
%ADD37C,2.20*%
%ADD38R,1.70X1.70*%
%ADD39O,1.60X1.70*%
%ADD40C,1.70*%
%ADD41C,1.60*%
%ADD42C,1.40*%
%ADD43C,1.10*%
D34*
X11570Y-3325D02*
D03*
X11490D02*
D03*
X11410D02*
D03*
X11330D02*
D03*
X11250D02*
D03*
D35*
X13090Y-3335D02*
D03*
X12200D02*
D03*
X13090Y-2925D02*
D03*
X12200D02*
D03*
D36*
X13875Y-3255D02*
D03*
Y-2975D02*
D03*
X14400Y-1205D02*
D03*
Y-925D02*
D03*
X13900Y-1205D02*
D03*
Y-925D02*
D03*
X13400Y-1205D02*
D03*
Y-925D02*
D03*
X12900Y-1205D02*
D03*
Y-925D02*
D03*
X12400Y-1205D02*
D03*
Y-925D02*
D03*
X11900Y-1205D02*
D03*
Y-925D02*
D03*
X11400Y-1205D02*
D03*
Y-925D02*
D03*
X10900Y-1205D02*
D03*
Y-925D02*
D03*
X9200Y-1205D02*
D03*
Y-925D02*
D03*
X8700Y-1205D02*
D03*
Y-925D02*
D03*
X8200Y-1205D02*
D03*
Y-925D02*
D03*
X7700Y-1205D02*
D03*
Y-925D02*
D03*
X7200Y-1205D02*
D03*
Y-925D02*
D03*
X6700Y-1205D02*
D03*
Y-925D02*
D03*
X6200Y-1205D02*
D03*
Y-925D02*
D03*
X5700Y-1205D02*
D03*
Y-925D02*
D03*
X4000Y-1205D02*
D03*
Y-925D02*
D03*
X3500Y-1205D02*
D03*
Y-925D02*
D03*
X3000Y-1205D02*
D03*
Y-925D02*
D03*
X2500Y-1205D02*
D03*
Y-925D02*
D03*
X2000Y-1205D02*
D03*
Y-925D02*
D03*
X1500Y-1205D02*
D03*
Y-925D02*
D03*
X500Y-1205D02*
D03*
Y-925D02*
D03*
D37*
X11775Y-3895D02*
D03*
X11045D02*
D03*
X11775Y-3415D02*
D03*
X11045D02*
D03*
D38*
X3575Y-2350D02*
D03*
X9200D02*
D03*
D39*
X3575Y-2604D02*
D03*
X3829D02*
D03*
X4083Y-2350D02*
D03*
X4337D02*
D03*
X4591D02*
D03*
X4845D02*
D03*
X5099D02*
D03*
X5353D02*
D03*
Y-2604D02*
D03*
X5607D02*
D03*
X9454Y-2350D02*
D03*
X9708D02*
D03*
X9962D02*
D03*
X10216D02*
D03*
X10470D02*
D03*
X10724D02*
D03*
X10978D02*
D03*
D40*
X3829D02*
D03*
X4083Y-2604D02*
D03*
X4337D02*
D03*
X4591D02*
D03*
X4845D02*
D03*
X5099D02*
D03*
X5607Y-2350D02*
D03*
X5861D02*
D03*
Y-2604D02*
D03*
X9200D02*
D03*
X9454D02*
D03*
X9708D02*
D03*
X9962D02*
D03*
X10216D02*
D03*
X10470D02*
D03*
X10724D02*
D03*
X10978D02*
D03*
X11232D02*
D03*
X11486Y-2350D02*
D03*
Y-2604D02*
D03*
D41*
X11232Y-2350D02*
D03*
D42*
X4500Y-600D02*
D03*
X9700Y-3800D02*
D03*
X1500Y-600D02*
D03*
X2000D02*
D03*
X2500D02*
D03*
X3000D02*
D03*
X3500D02*
D03*
X4000D02*
D03*
X5700D02*
D03*
X6200D02*
D03*
X6700D02*
D03*
X7200D02*
D03*
X7700D02*
D03*
X8200D02*
D03*
X8700D02*
D03*
X9200D02*
D03*
X10900D02*
D03*
X11400D02*
D03*
X11900D02*
D03*
X12400D02*
D03*
X12900D02*
D03*
X13400D02*
D03*
X13900D02*
D03*
X14400D02*
D03*
X500D02*
D03*
X14200Y-3250D02*
D03*
X12650Y-2925D02*
D03*
X12650Y-3325D02*
D03*
Y-3150D02*
D03*
X14900Y-600D02*
D03*
X1000D02*
D03*
X4500Y-3800D02*
D03*
X9200Y-3000D02*
D03*
D43*
X11200Y-3600D02*
D03*
X10275Y-3200D02*
D03*
X9800Y-3050D02*
D03*
M02*
