%FSLAX42Y42*%
%MOMM*%
G71*
G01*
G75*
G04 Layer_Physical_Order=2*
%ADD10C,0.30*%
%ADD11R,0.50X2.80*%
%ADD12R,2.10X1.30*%
%ADD13R,1.80X1.60*%
%ADD14C,0.40*%
%ADD15C,0.60*%
%ADD16C,0.50*%
%ADD17C,0.25*%
%ADD18C,2.00*%
%ADD19R,1.50X1.50*%
%ADD20O,1.40X1.50*%
%ADD21C,1.50*%
%ADD22C,1.40*%
%ADD23C,1.20*%
%ADD24C,0.90*%
%ADD25R,1.60X1.25*%
%ADD26R,1.10X1.00*%
%ADD27R,1.30X1.50*%
%ADD28R,1.00X0.85*%
%ADD29R,1.50X1.30*%
%ADD30R,1.00X0.50*%
%ADD31R,1.50X0.25*%
D10*
X9410Y-459D02*
Y-404D01*
X9400Y-450D02*
X9504D01*
X9350Y-404D02*
X9454Y-500D01*
X9380Y-432D02*
Y-404D01*
X9367Y-420D02*
X9534D01*
X9350Y-404D02*
X9550D01*
X9440Y-487D02*
Y-404D01*
X9432Y-480D02*
X9474D01*
X9454Y-500D02*
X9550Y-404D01*
X9470Y-484D02*
Y-404D01*
X9500Y-454D02*
Y-404D01*
X9530Y-424D02*
Y-404D01*
X11100Y-2850D02*
Y-2482D01*
D14*
X9500Y-3735D02*
G03*
X9485Y-3689I-80J0D01*
G01*
X9500Y-3735D02*
G03*
X9485Y-3689I-80J0D01*
G01*
X9500Y-3735D02*
G03*
X9485Y-3689I-80J0D01*
G01*
X9500Y-3735D02*
G03*
X9485Y-3689I-80J0D01*
G01*
X9500Y-3735D02*
G03*
X9485Y-3689I-80J0D01*
G01*
X9500Y-3735D02*
G03*
X9485Y-3689I-80J0D01*
G01*
X9500Y-3735D02*
G03*
X9485Y-3689I-80J0D01*
G01*
X9500Y-3735D02*
G03*
X9485Y-3689I-80J0D01*
G01*
X9789Y-3720D02*
G03*
X9789Y-3880I-89J-80D01*
G01*
X10077Y-3965D02*
G03*
X10031Y-3950I-46J-65D01*
G01*
X10077Y-3965D02*
G03*
X10031Y-3950I-46J-65D01*
G01*
X10077Y-3965D02*
G03*
X10031Y-3950I-46J-65D01*
G01*
X10077Y-3965D02*
G03*
X10031Y-3950I-46J-65D01*
G01*
X10077Y-3965D02*
G03*
X10031Y-3950I-46J-65D01*
G01*
X10077Y-3965D02*
G03*
X10031Y-3950I-46J-65D01*
G01*
X10077Y-3965D02*
G03*
X10031Y-3950I-46J-65D01*
G01*
X10077Y-3965D02*
G03*
X10031Y-3950I-46J-65D01*
G01*
X10400Y-3880D02*
G03*
X10457Y-3857I0J80D01*
G01*
X10400Y-3880D02*
G03*
X10457Y-3856I0J80D01*
G01*
X9357Y-2793D02*
G03*
X9300Y-2770I-57J-57D01*
G01*
X9357Y-2794D02*
G03*
X9300Y-2770I-57J-56D01*
G01*
X9136Y-2485D02*
G03*
X9300Y-2695I64J-119D01*
G01*
X9925Y-3505D02*
G03*
X9982Y-3482I0J80D01*
G01*
X9925Y-3505D02*
G03*
X9982Y-3481I0J80D01*
G01*
X10710Y-3472D02*
G03*
X10719Y-3482I65J47D01*
G01*
X10710Y-3472D02*
G03*
X10718Y-3482I65J47D01*
G01*
X10757Y-2893D02*
G03*
X10700Y-2870I-57J-57D01*
G01*
X10757Y-2894D02*
G03*
X10700Y-2870I-57J-56D01*
G01*
X11205Y-3895D02*
G03*
X11205Y-3895I-160J0D01*
G01*
X10893Y-3656D02*
G03*
X10950Y-3680I57J56D01*
G01*
X10893Y-3657D02*
G03*
X10950Y-3680I57J57D01*
G01*
X11132D02*
G03*
X11305Y-3600I68J80D01*
G01*
G03*
X11183Y-3496I-105J0D01*
G01*
G03*
X11205Y-3415I-138J81D01*
G01*
G03*
X10885Y-3422I-160J0D01*
G01*
X11935Y-3895D02*
G03*
X11935Y-3895I-160J0D01*
G01*
Y-3415D02*
G03*
X11935Y-3415I-160J0D01*
G01*
X11100Y-2917D02*
G03*
X11116Y-2965I80J0D01*
G01*
X11100Y-2917D02*
G03*
X11116Y-2965I80J0D01*
G01*
X11100Y-2917D02*
G03*
X11116Y-2965I80J0D01*
G01*
X11100Y-2917D02*
G03*
X11116Y-2965I80J0D01*
G01*
G03*
X11123Y-2973I64J48D01*
G01*
X11116Y-2965D02*
G03*
X11123Y-2973I64J48D01*
G01*
X11100Y-2917D02*
G03*
X11116Y-2965I80J0D01*
G01*
G03*
X11123Y-2973I64J48D01*
G01*
X11116Y-2965D02*
G03*
X11123Y-2973I64J48D01*
G01*
X11116Y-2965D02*
G03*
X11123Y-2973I64J48D01*
G01*
X11100Y-2662D02*
G03*
X11105Y-2650I-122J58D01*
G01*
Y-2558D02*
G03*
X11100Y-2546I-127J-46D01*
G01*
Y-2400D02*
G03*
X11106Y-2380I-122J45D01*
G01*
X11180Y-2800D02*
G03*
X11100Y-2880I0J-80D01*
G01*
X11180Y-2800D02*
G03*
X11100Y-2880I0J-80D01*
G01*
X11180Y-2800D02*
G03*
X11100Y-2880I0J-80D01*
G01*
X11180Y-2800D02*
G03*
X11100Y-2880I0J-80D01*
G01*
X11180Y-2800D02*
G03*
X11100Y-2880I0J-80D01*
G01*
X11180Y-2800D02*
G03*
X11100Y-2880I0J-80D01*
G01*
X11194Y-2474D02*
G03*
X11105Y-2558I38J-130D01*
G01*
Y-2650D02*
G03*
X11200Y-2735I127J46D01*
G01*
X11106Y-2380D02*
G03*
X11194Y-2474I126J30D01*
G01*
X11277Y-3127D02*
G03*
X11333Y-3150I57J57D01*
G01*
X11277Y-3127D02*
G03*
X11333Y-3150I57J57D01*
G01*
X11277Y-3127D02*
G03*
X11333Y-3150I57J57D01*
G01*
X11277Y-3127D02*
G03*
X11333Y-3150I57J57D01*
G01*
X11277Y-3127D02*
G03*
X11333Y-3150I57J57D01*
G01*
X11277Y-3127D02*
G03*
X11333Y-3150I57J57D01*
G01*
X11277Y-3127D02*
G03*
X11333Y-3150I57J57D01*
G01*
X5300Y-2728D02*
G03*
X5395Y-2732I53J119D01*
G01*
Y-2800D02*
G03*
X5418Y-2857I80J0D01*
G01*
X5395Y-2800D02*
G03*
X5418Y-2857I80J0D01*
G01*
X5718Y-3156D02*
G03*
X5775Y-3180I57J56D01*
G01*
X5718Y-3157D02*
G03*
X5775Y-3180I57J57D01*
G01*
X5855Y-2739D02*
G03*
X5996Y-2604I6J135D01*
G01*
G03*
X5907Y-2477I-135J0D01*
G01*
G03*
X5970Y-2430I-46J127D01*
G01*
X7318Y-3481D02*
G03*
X7375Y-3505I57J56D01*
G01*
X7318Y-3482D02*
G03*
X7375Y-3505I57J57D01*
G01*
X9543Y-4007D02*
G03*
X9600Y-4030I57J57D01*
G01*
X9543Y-4007D02*
G03*
X9600Y-4030I57J57D01*
G01*
X9543Y-4007D02*
G03*
X9600Y-4030I57J57D01*
G01*
X9543Y-4007D02*
G03*
X9600Y-4030I57J57D01*
G01*
X9543Y-4007D02*
G03*
X9600Y-4030I57J57D01*
G01*
X9420Y-3850D02*
G03*
X9443Y-3907I80J0D01*
G01*
X9420Y-3850D02*
G03*
X9443Y-3907I80J0D01*
G01*
X9420Y-3850D02*
G03*
X9443Y-3907I80J0D01*
G01*
X9420Y-3850D02*
G03*
X9443Y-3907I80J0D01*
G01*
X9420Y-3850D02*
G03*
X9443Y-3907I80J0D01*
G01*
X9420Y-3850D02*
G03*
X9443Y-3907I80J0D01*
G01*
X9420Y-3850D02*
G03*
X9443Y-3907I80J0D01*
G01*
X9420Y-3850D02*
G03*
X9444Y-3907I80J0D01*
G01*
X9420Y-3850D02*
G03*
X9443Y-3907I80J0D01*
G01*
X9543Y-4007D02*
G03*
X9600Y-4030I57J57D01*
G01*
X9543Y-4007D02*
G03*
X9600Y-4030I57J57D01*
G01*
X9543Y-4006D02*
G03*
X9600Y-4030I57J56D01*
G01*
X9543Y-4007D02*
G03*
X9600Y-4030I57J57D01*
G01*
X12714Y-3048D02*
G03*
X12531Y-3168I-64J-102D01*
G01*
X7107Y-2918D02*
G03*
X7050Y-2895I-57J-57D01*
G01*
X7107Y-2919D02*
G03*
X7050Y-2895I-57J-56D01*
G01*
X8325Y-2912D02*
G03*
X8375Y-2930I50J62D01*
G01*
X8325Y-2912D02*
G03*
X8375Y-2930I50J62D01*
G01*
X9697Y-3030D02*
G03*
X9703Y-3090I103J-20D01*
G01*
X9343Y-3006D02*
G03*
X9400Y-3030I57J56D01*
G01*
X9343Y-3007D02*
G03*
X9400Y-3030I57J57D01*
G01*
X12457Y-3093D02*
G03*
X12400Y-3070I-57J-57D01*
G01*
X12457Y-3093D02*
G03*
X12400Y-3070I-57J-57D01*
G01*
X12457Y-3094D02*
G03*
X12400Y-3070I-57J-56D01*
G01*
X12457Y-3094D02*
G03*
X12400Y-3070I-57J-56D01*
G01*
X12457Y-3094D02*
G03*
X12400Y-3070I-57J-56D01*
G01*
X12457Y-3094D02*
G03*
X12400Y-3070I-57J-56D01*
G01*
X12457Y-3094D02*
G03*
X12400Y-3070I-57J-56D01*
G01*
X12457Y-3094D02*
G03*
X12400Y-3070I-57J-56D01*
G01*
X12457Y-3094D02*
G03*
X12400Y-3070I-57J-56D01*
G01*
X11200Y-2880D02*
G03*
X11280Y-2800I0J80D01*
G01*
X11200Y-2880D02*
G03*
X11280Y-2800I0J80D01*
G01*
X11280Y-2730D02*
G03*
X11359Y-2650I-48J126D01*
G01*
G03*
X11595Y-2684I127J46D01*
G01*
X3829Y-2604D02*
X3960Y-2473D01*
X3653Y-1778D02*
X3960Y-2085D01*
X3000Y-1125D02*
X3653Y-1778D01*
X3960Y-2473D02*
Y-2085D01*
X4083Y-2604D02*
X4210Y-2477D01*
X4000Y-1125D02*
X4210Y-1335D01*
Y-2477D02*
Y-1335D01*
X9470Y-3335D02*
X9605Y-3200D01*
X7050Y-2975D02*
X7410Y-3335D01*
X9605Y-3280D02*
Y-3200D01*
X5607Y-2604D02*
X5978Y-2975D01*
X7410Y-3335D02*
X9470D01*
X7375Y-3425D02*
X9605D01*
X5475Y-2800D02*
X5480Y-2805D01*
X5555Y-2880D02*
X5775Y-3100D01*
X5480Y-2805D02*
X5555Y-2880D01*
X9950Y-3250D02*
X10077Y-3123D01*
X9885Y-3315D02*
X9950Y-3250D01*
X9640Y-3315D02*
X9885D01*
X9605Y-3280D02*
X9640Y-3315D01*
X10150Y-3200D02*
X10275D01*
X9775Y-3425D02*
X9925D01*
X8250Y-3000D02*
X9200D01*
X800Y-400D02*
X1000Y-600D01*
X4200Y-3450D02*
X4500Y-3750D01*
X8200Y-2950D02*
X8250Y-3000D01*
X9100Y-2750D02*
X9350D01*
X9000Y-2650D02*
X9100Y-2750D01*
X9000Y-2650D02*
Y-2550D01*
X9400Y-2950D02*
X10700D01*
X10950Y-3600D02*
X11200D01*
X8200Y-2675D02*
X8375Y-2850D01*
X9300D01*
X9400Y-2950D01*
X9350Y-2750D02*
X9450Y-2850D01*
X9800Y-3175D02*
Y-3050D01*
X9775Y-3200D02*
X9800Y-3175D01*
X10775Y-3425D02*
Y-3025D01*
Y-3425D02*
X10950Y-3600D01*
X10850Y-3700D02*
X12275D01*
X9925Y-3425D02*
X10150Y-3200D01*
X10700Y-2950D02*
X10775Y-3025D01*
X10425Y-3100D02*
X10450Y-3125D01*
X10100Y-3100D02*
X10425D01*
X10077Y-3123D02*
X10100Y-3100D01*
X10640Y-3210D02*
Y-3075D01*
X10200Y-3300D02*
X10550D01*
X10105Y-3525D02*
Y-3395D01*
X10550Y-3300D02*
X10640Y-3210D01*
X10600Y-3950D02*
X10850Y-3700D01*
X9600Y-3950D02*
X10600D01*
X9500Y-3850D02*
X9600Y-3950D01*
X9500Y-3850D02*
Y-3700D01*
X9580Y-3620D01*
X10350Y-3435D02*
X10575D01*
X10105Y-3395D02*
X10200Y-3300D01*
X12400Y-3150D02*
X12575Y-3325D01*
X5978Y-2975D02*
X7050D01*
X7685Y-2350D02*
X8010Y-2675D01*
Y-2950D02*
Y-2675D01*
X5861Y-2350D02*
X7685D01*
X5775Y-3100D02*
X7050D01*
X5475Y-2800D02*
Y-2475D01*
X5600Y-2350D01*
X4337D02*
Y-1112D01*
X4175Y-950D02*
X4337Y-1112D01*
X3500Y-1125D02*
X3675Y-950D01*
X3935Y-1860D02*
X4083Y-2008D01*
X12629Y-2604D02*
X12850Y-2825D01*
Y-3025D02*
Y-2825D01*
X12650Y-3150D02*
X12725D01*
X11486Y-2604D02*
X12629D01*
X13300Y-2350D02*
X14200Y-3250D01*
X11486Y-2350D02*
X13300D01*
X10724D02*
X10978D01*
Y-2604D02*
Y-2350D01*
X10724Y-2604D02*
Y-2350D01*
X10578Y-2750D02*
X10724Y-2604D01*
X9454D02*
X9600Y-2750D01*
X10578D01*
X1625Y-3450D02*
X4200D01*
X7050Y-3100D02*
X7375Y-3425D01*
X3675Y-950D02*
X4175D01*
X12400Y-780D02*
Y-600D01*
X11900Y-780D02*
Y-600D01*
X11400Y-780D02*
Y-600D01*
X10900Y-780D02*
Y-600D01*
X9200Y-780D02*
Y-600D01*
X8700Y-780D02*
Y-600D01*
X8200Y-780D02*
Y-600D01*
X4000Y-780D02*
Y-600D01*
X3500Y-780D02*
Y-600D01*
X3000Y-780D02*
Y-600D01*
X250Y-2075D02*
X1625Y-3450D01*
X250Y-2075D02*
Y-550D01*
X400Y-400D01*
X800D01*
X12725Y-3150D02*
X12850Y-3025D01*
X1000Y-1005D02*
X1405Y-600D01*
X1500D01*
Y-1055D02*
X1955Y-600D01*
X2000D01*
Y-1055D02*
X2455Y-600D01*
X2500D01*
X1000Y-1350D02*
X1800Y-2150D01*
X3629D02*
X3829Y-2350D01*
X1800Y-2150D02*
X3629D01*
X750Y-1650D02*
X1704Y-2604D01*
X5400Y-805D02*
X5495D01*
X5700Y-600D01*
X5925Y-805D02*
X5995D01*
X6200Y-600D01*
X6375Y-805D02*
X6495D01*
X6700Y-600D01*
X7300Y-780D02*
Y-700D01*
X7200Y-600D02*
X7300Y-700D01*
X12900Y-600D02*
X13355Y-1055D01*
X13400D01*
Y-600D02*
X13855Y-1055D01*
X13900D01*
Y-600D02*
X14355Y-1055D01*
X14400D01*
Y-600D02*
X14855Y-1055D01*
X14900D01*
X9580Y-3620D02*
X10345D01*
X9000Y-2550D02*
X9200Y-2350D01*
X9450Y-2850D02*
X11100D01*
X12275Y-3700D02*
X12650Y-3325D01*
X12575D02*
X12650D01*
X11100Y-2482D02*
X11232Y-2350D01*
X11300Y-3150D02*
X12400D01*
X11100Y-2950D02*
X11300Y-3150D01*
X11100Y-2950D02*
Y-2845D01*
X9700Y-3800D02*
X10400D01*
X10575Y-3625D01*
X9500Y-3850D02*
X9600Y-3950D01*
X9500Y-3850D02*
X9600Y-3950D01*
X9500Y-3850D02*
X9600Y-3950D01*
X9500Y-3850D02*
X9600Y-3950D01*
X9500Y-3850D02*
X9600Y-3950D01*
X9500Y-3850D02*
X9600Y-3950D01*
X9500Y-3850D02*
X9600Y-3950D01*
X9500Y-3820D02*
X9582D01*
X9500Y-3850D02*
Y-3735D01*
Y-3850D02*
Y-3735D01*
Y-3850D02*
Y-3735D01*
X9550Y-3900D02*
X9634D01*
X9600Y-3950D02*
X10031D01*
X9500Y-3780D02*
X9582D01*
X9510Y-3860D02*
X9596D01*
X9600Y-3950D02*
X10031D01*
X9600D02*
X10031D01*
X9640D02*
Y-3904D01*
X9680Y-3950D02*
Y-3918D01*
X9600Y-3950D02*
X10031D01*
X9600D02*
X10031D01*
X9600D02*
X10031D01*
X9600D02*
X10031D01*
X9720D02*
Y-3918D01*
X9760Y-3950D02*
Y-3904D01*
X9800Y-3950D02*
Y-3880D01*
X9840Y-3950D02*
Y-3880D01*
X9880Y-3950D02*
Y-3880D01*
X9920Y-3950D02*
Y-3880D01*
X9960Y-3950D02*
Y-3880D01*
X10000Y-3950D02*
Y-3880D01*
X9500Y-3850D02*
Y-3735D01*
Y-3850D02*
Y-3735D01*
Y-3850D02*
Y-3735D01*
Y-3850D02*
Y-3735D01*
X9485Y-3689D02*
Y-3505D01*
X9492Y-3700D02*
X9634D01*
X9485Y-3620D02*
X9995D01*
X9500Y-3740D02*
X9596D01*
X9520Y-3870D02*
Y-3535D01*
X9560Y-3910D02*
Y-3535D01*
X9600Y-3734D02*
Y-3535D01*
X9800Y-3720D02*
Y-3535D01*
X9840Y-3720D02*
Y-3535D01*
X9880Y-3720D02*
Y-3535D01*
X9640Y-3696D02*
Y-3535D01*
X9680Y-3682D02*
Y-3535D01*
X9720Y-3682D02*
Y-3535D01*
X9760Y-3696D02*
Y-3535D01*
X9920Y-3720D02*
Y-3505D01*
X10000Y-3720D02*
Y-3628D01*
X9960Y-3720D02*
Y-3497D01*
X9995Y-3628D02*
Y-3468D01*
X10040Y-3950D02*
Y-3880D01*
X10080Y-3965D02*
Y-3880D01*
X10120Y-3965D02*
Y-3880D01*
X9590Y-3940D02*
X10891D01*
X10077Y-3965D02*
X10335D01*
X9766Y-3900D02*
X10885D01*
X9789Y-3880D02*
X10400D01*
X10335Y-4140D02*
X10398D01*
X10335D02*
Y-3965D01*
X10360Y-4140D02*
Y-3880D01*
X10398Y-4140D02*
Y-3965D01*
X10335Y-4100D02*
X10398D01*
X10335Y-4060D02*
X10398D01*
X10335Y-4020D02*
X10398D01*
X10735Y-4060D02*
X12800D01*
X10160Y-3965D02*
Y-3880D01*
X10200Y-3965D02*
Y-3880D01*
X10240Y-3965D02*
Y-3880D01*
X10280Y-3965D02*
Y-3880D01*
X10335Y-3980D02*
X10398D01*
Y-3965D02*
X10735D01*
X10320D02*
Y-3880D01*
X10400Y-3965D02*
Y-3880D01*
X9789Y-3720D02*
X10235D01*
X10040D02*
Y-3628D01*
X10080Y-3720D02*
Y-3628D01*
X10440Y-3965D02*
Y-3869D01*
X10453Y-3860D02*
X10889D01*
X10120Y-3720D02*
Y-3628D01*
X10160Y-3720D02*
Y-3628D01*
X9995D02*
X10215D01*
X10200Y-3720D02*
Y-3628D01*
X9485Y-3660D02*
X10235D01*
X9766Y-3700D02*
X10235D01*
X10215Y-3628D02*
Y-3423D01*
X10235Y-3720D02*
Y-3533D01*
X10480Y-3965D02*
Y-3833D01*
X10520Y-3965D02*
Y-3793D01*
X10457Y-3856D02*
X10563Y-3750D01*
X10560Y-3965D02*
Y-3753D01*
X10600Y-3965D02*
Y-3750D01*
X10640Y-3965D02*
Y-3750D01*
X10680Y-3965D02*
Y-3750D01*
X10720Y-3965D02*
Y-3483D01*
X10493Y-3820D02*
X10904D01*
X10563Y-3750D02*
X10710D01*
Y-3560D01*
X10719Y-3482D02*
X10893Y-3656D01*
X10533Y-3780D02*
X10934D01*
X10710Y-3740D02*
X11005D01*
X10710Y-3700D02*
X11168D01*
X10710Y-3660D02*
X10897D01*
X9000Y-2770D02*
X9300D01*
X9080D02*
Y-2666D01*
X9120Y-2770D02*
Y-2713D01*
X9339Y-2780D02*
X9380D01*
X9300Y-2700D02*
X9450Y-2850D01*
X9160Y-2770D02*
Y-2733D01*
X9200Y-2770D02*
Y-2739D01*
X9000Y-2700D02*
X9105D01*
X9000Y-2660D02*
X9077D01*
X9000Y-2740D02*
X9340D01*
X9240Y-2770D02*
Y-2733D01*
X9280Y-2770D02*
Y-2713D01*
X9320Y-2773D02*
Y-2720D01*
X9480Y-2870D02*
Y-2850D01*
X9490Y-3535D02*
Y-3505D01*
X9357Y-2794D02*
X9433Y-2870D01*
X9440D02*
Y-2840D01*
X9490Y-3535D02*
X9660D01*
X9720D01*
X9520Y-2870D02*
Y-2850D01*
X9660Y-3535D02*
X9720D01*
X9383Y-2820D02*
X9420D01*
X9560Y-2870D02*
Y-2850D01*
X9360Y-2797D02*
Y-2760D01*
X9400Y-2837D02*
Y-2800D01*
X9600Y-2870D02*
Y-2850D01*
X9640Y-2870D02*
Y-2850D01*
X9680Y-2870D02*
Y-2850D01*
X9720Y-2870D02*
Y-2850D01*
X9000Y-2460D02*
X9065D01*
X9000Y-2770D02*
Y-2150D01*
Y-2770D02*
Y-2140D01*
Y-2620D02*
X9066D01*
X9000Y-2580D02*
X9067D01*
X9000Y-2540D02*
X9081D01*
X9000Y-2500D02*
X9114D01*
X9000Y-2420D02*
X9065D01*
X9000Y-2380D02*
X9065D01*
X9000Y-2340D02*
X9065D01*
X9000Y-2300D02*
X9065D01*
X9000Y-2260D02*
X9065D01*
X9000Y-2220D02*
X9065D01*
X9000Y-2180D02*
X9300D01*
X9000Y-2150D02*
X9300D01*
X9080Y-2542D02*
Y-2485D01*
X9120Y-2495D02*
Y-2485D01*
X9040Y-2770D02*
Y-2150D01*
X9065Y-2485D02*
Y-2215D01*
Y-2485D02*
X9136D01*
X9080Y-2215D02*
Y-2150D01*
X9120Y-2215D02*
Y-2150D01*
X9160Y-2215D02*
Y-2150D01*
X9200Y-2215D02*
Y-2150D01*
X9065Y-2215D02*
X9300D01*
X9240D02*
Y-2150D01*
X9280Y-2215D02*
Y-2150D01*
X9300Y-2215D02*
Y-2150D01*
X9720Y-3535D02*
X9890D01*
Y-3505D01*
X9925D01*
X9485Y-3580D02*
X9995D01*
X10215Y-3620D02*
X10235D01*
X9485Y-3540D02*
X9995D01*
X10215Y-3580D02*
X10235D01*
X9953Y-3500D02*
X9995D01*
X9982Y-3481D02*
X9995Y-3468D01*
X10185Y-3428D02*
X10191Y-3423D01*
X10215D01*
X10193Y-3420D02*
X10235D01*
X10200Y-3423D02*
Y-3413D01*
X10215Y-3540D02*
X10235D01*
Y-3533D02*
Y-3517D01*
X10710Y-3560D02*
Y-3500D01*
Y-3620D02*
X10857D01*
X10710Y-3580D02*
X10817D01*
X10710Y-3540D02*
X10777D01*
X10710Y-3560D02*
Y-3500D01*
X10215Y-3500D02*
X10235D01*
Y-3533D02*
Y-3517D01*
X10215Y-3460D02*
X10235D01*
Y-3517D02*
Y-3380D01*
X10710Y-3500D02*
X10737D01*
X10710Y-3500D02*
Y-3472D01*
X9760Y-2870D02*
Y-2850D01*
X9800Y-2870D02*
Y-2850D01*
X9840Y-2870D02*
Y-2850D01*
X9433Y-2870D02*
X10700D01*
X10191Y-3423D02*
X10233Y-3380D01*
X9880Y-2870D02*
Y-2850D01*
X9920Y-2870D02*
Y-2850D01*
X9960Y-2870D02*
Y-2850D01*
X10000Y-2870D02*
Y-2850D01*
X10040Y-2870D02*
Y-2850D01*
X10080Y-2870D02*
Y-2850D01*
X9423Y-2860D02*
X11103D01*
X10120Y-2870D02*
Y-2850D01*
X9450D02*
X10950D01*
X10160Y-2870D02*
Y-2850D01*
X10200Y-2870D02*
Y-2850D01*
X10240Y-2870D02*
Y-2850D01*
X10280Y-2870D02*
Y-2850D01*
X10320Y-2870D02*
Y-2850D01*
X10360Y-2870D02*
Y-2850D01*
X10400Y-2870D02*
Y-2850D01*
X10440Y-2870D02*
Y-2850D01*
X10480Y-2870D02*
Y-2850D01*
X10520Y-2870D02*
Y-2850D01*
X10560Y-2870D02*
Y-2850D01*
X10600Y-2870D02*
Y-2850D01*
X10640Y-2870D02*
Y-2850D01*
X10680Y-2870D02*
Y-2850D01*
X10720Y-2873D02*
Y-2850D01*
X10960Y-4140D02*
Y-4031D01*
X10735Y-4140D02*
Y-3965D01*
X10920Y-4140D02*
Y-3995D01*
X11040Y-4140D02*
Y-4055D01*
X11080Y-4140D02*
Y-4051D01*
X11000Y-4140D02*
Y-4049D01*
X10735Y-4020D02*
X10945D01*
X10735Y-3980D02*
X10909D01*
X10920Y-3795D02*
Y-3674D01*
X10960Y-3759D02*
Y-3680D01*
X11000Y-3741D02*
Y-3680D01*
X10950D02*
X11132D01*
X11040Y-3735D02*
Y-3680D01*
X11120Y-4140D02*
Y-4036D01*
X11160Y-4140D02*
Y-4006D01*
X11200Y-4140D02*
Y-3935D01*
X11240Y-4140D02*
Y-3697D01*
X11181Y-3980D02*
X11639D01*
X11640Y-4140D02*
Y-3981D01*
X11199Y-3940D02*
X11621D01*
X11280Y-4140D02*
Y-3668D01*
X11160Y-3784D02*
Y-3697D01*
X11200Y-3855D02*
Y-3705D01*
X11080Y-3739D02*
Y-3680D01*
X11120Y-3754D02*
Y-3680D01*
X11201Y-3860D02*
X11619D01*
X11205Y-3900D02*
X11615D01*
X11156Y-3780D02*
X11664D01*
X11186Y-3820D02*
X11634D01*
X10840Y-4140D02*
Y-3603D01*
X10760Y-4140D02*
Y-3523D01*
X10800Y-4140D02*
Y-3563D01*
X10880Y-4140D02*
Y-3643D01*
X10855Y-3392D02*
X10885Y-3422D01*
X10855Y-3380D02*
X10889D01*
X10855Y-3392D02*
Y-3235D01*
X10880Y-3417D02*
Y-3235D01*
X11199Y-3460D02*
X11621D01*
X10855Y-3340D02*
X10904D01*
X11320Y-4140D02*
Y-3149D01*
X11360Y-4140D02*
Y-3150D01*
X11400Y-4140D02*
Y-3150D01*
X11440Y-4140D02*
Y-3150D01*
X11480Y-4140D02*
Y-3150D01*
X11520Y-4140D02*
Y-3150D01*
X11560Y-4140D02*
Y-3150D01*
X11600Y-4140D02*
Y-3150D01*
X11200Y-3495D02*
Y-3455D01*
X11280Y-3532D02*
Y-3130D01*
X11200Y-3375D02*
Y-3050D01*
X11240Y-3503D02*
Y-3090D01*
X11232Y-3500D02*
X11639D01*
X11640Y-3809D02*
Y-3501D01*
X11201Y-3380D02*
X11619D01*
X11205Y-3420D02*
X11615D01*
X11720Y-4140D02*
Y-4045D01*
X11145Y-4020D02*
X11675D01*
X11680Y-4140D02*
Y-4024D01*
X10735Y-4140D02*
X12800D01*
X10735Y-4100D02*
X12800D01*
X11760Y-4140D02*
Y-4054D01*
X11085Y-3740D02*
X11735D01*
X11720Y-3745D02*
Y-3565D01*
X11286Y-3540D02*
X11675D01*
X11680Y-3766D02*
Y-3544D01*
X11232Y-3700D02*
X12800D01*
X11286Y-3660D02*
X12800D01*
X11303Y-3620D02*
X12800D01*
X11303Y-3580D02*
X12800D01*
X11800Y-4140D02*
Y-4053D01*
X11840Y-4140D02*
Y-4041D01*
X11880Y-4140D02*
Y-4016D01*
X11920Y-4140D02*
Y-3963D01*
X11875Y-4020D02*
X12800D01*
X11911Y-3980D02*
X12800D01*
X11929Y-3940D02*
X12800D01*
X11935Y-3900D02*
X12800D01*
X11760Y-3736D02*
Y-3574D01*
X11800Y-3737D02*
Y-3573D01*
X11840Y-3749D02*
Y-3561D01*
X11880Y-3774D02*
Y-3536D01*
X11916Y-3820D02*
X12800D01*
X11931Y-3860D02*
X12800D01*
X11815Y-3740D02*
X12800D01*
X11886Y-3780D02*
X12800D01*
X11960Y-4140D02*
Y-3150D01*
X12000Y-4140D02*
Y-3150D01*
X12040Y-4140D02*
Y-3150D01*
X12080Y-4140D02*
Y-3150D01*
X12120Y-4140D02*
Y-3150D01*
X12160Y-4140D02*
Y-3150D01*
X12200Y-4140D02*
Y-3150D01*
X11875Y-3540D02*
X12800D01*
X11920Y-3827D02*
Y-3483D01*
Y-3347D02*
Y-3150D01*
X11911Y-3500D02*
X12800D01*
X11929Y-3460D02*
X12800D01*
X11935Y-3420D02*
X12800D01*
X11931Y-3380D02*
X12800D01*
X12240Y-4140D02*
Y-3150D01*
X12280Y-4140D02*
Y-3150D01*
X12320Y-4140D02*
Y-3150D01*
X12360Y-4140D02*
Y-3150D01*
X12480Y-4140D02*
Y-3230D01*
X12520Y-4140D02*
Y-3270D01*
X12400Y-4140D02*
Y-3150D01*
X12440Y-4140D02*
Y-3190D01*
X12560Y-4140D02*
Y-3300D01*
X12600Y-4140D02*
Y-3300D01*
X12640Y-4140D02*
Y-3300D01*
X12680Y-4140D02*
Y-3300D01*
X12720Y-4140D02*
Y-3300D01*
X12760Y-4140D02*
Y-3300D01*
X12800Y-4140D02*
Y-3300D01*
X12800Y-4140D02*
Y-3300D01*
X10855Y-3300D02*
X10934D01*
X10920Y-3315D02*
Y-3235D01*
X10960Y-3279D02*
Y-3235D01*
X10855Y-3260D02*
X11005D01*
X11000Y-3261D02*
Y-3235D01*
X11040Y-3255D02*
Y-3235D01*
X11080Y-3259D02*
Y-3235D01*
X10803Y-2940D02*
X11103D01*
X10828Y-2965D02*
X11116D01*
X10757Y-2894D02*
X10828Y-2965D01*
X10855Y-3235D02*
X11135D01*
X11120Y-3274D02*
Y-3235D01*
X11135D02*
Y-2985D01*
X11124Y-2974D02*
X11135Y-2985D01*
X11124Y-2974D02*
X11135Y-2985D01*
X11124Y-2974D02*
X11135Y-2985D01*
X11160Y-3304D02*
Y-3010D01*
X11124Y-2974D02*
X11135Y-2985D01*
X11124Y-2974D02*
X11135Y-2985D01*
X11124Y-2974D02*
X11135Y-2985D01*
X11124Y-2974D02*
X11135Y-2985D01*
X10840Y-2965D02*
Y-2850D01*
X10880Y-2965D02*
Y-2850D01*
X10920Y-2965D02*
Y-2850D01*
X10960Y-2965D02*
Y-2840D01*
X11000Y-2965D02*
Y-2800D01*
X11040Y-2965D02*
Y-2760D01*
X11080Y-2965D02*
Y-2720D01*
X11100Y-2917D02*
Y-2880D01*
Y-2917D02*
Y-2880D01*
X10760Y-2897D02*
Y-2850D01*
X10800Y-2937D02*
Y-2850D01*
X10763Y-2900D02*
X11100D01*
Y-2917D02*
Y-2880D01*
X10950Y-2850D02*
X11100Y-2700D01*
X10980Y-2820D02*
X11127D01*
X11100Y-2917D02*
Y-2880D01*
Y-2917D02*
Y-2880D01*
Y-2700D02*
Y-2662D01*
X11100Y-2700D02*
X11137D01*
X11160Y-2803D02*
Y-2718D01*
X11101Y-2660D02*
X11109D01*
X11120Y-2827D02*
Y-2679D01*
X11100Y-2540D02*
X11113D01*
X11100Y-2546D02*
Y-2400D01*
Y-2500D02*
X11146D01*
X11160Y-2490D02*
Y-2458D01*
X11100Y-2420D02*
X11122D01*
X11120Y-2529D02*
Y-2416D01*
X11186Y-3340D02*
X11634D01*
X11333Y-3150D02*
X11350D01*
X11333D02*
X11350D01*
X11085Y-3260D02*
X11735D01*
X11156Y-3300D02*
X11664D01*
X11135Y-3220D02*
X12470D01*
X11135Y-3180D02*
X12430D01*
X11333Y-3150D02*
X11350D01*
X11333D02*
X11350D01*
X11135Y-3140D02*
X11294D01*
X11333Y-3150D02*
X11350D01*
X11333D02*
X11350D01*
X11333D02*
X11350D01*
X12400D01*
X11350D02*
X12400D01*
X11640Y-3329D02*
Y-3150D01*
X11680Y-3286D02*
Y-3150D01*
X11720Y-3265D02*
Y-3150D01*
X11880Y-3294D02*
Y-3150D01*
X11886Y-3300D02*
X12800D01*
X11916Y-3340D02*
X12800D01*
X12400Y-3150D02*
X12550Y-3300D01*
X12800D01*
X11760Y-3256D02*
Y-3150D01*
X11800Y-3257D02*
Y-3150D01*
X11350D02*
X12400D01*
X11840Y-3269D02*
Y-3150D01*
X11350D02*
X12400D01*
X11815Y-3260D02*
X12510D01*
X11350Y-3150D02*
X12400D01*
X11350D02*
X12400D01*
X11135Y-3020D02*
X11170D01*
X11135Y-3100D02*
X11250D01*
X11135Y-3060D02*
X11210D01*
X11136Y-2986D02*
X11276Y-3126D01*
X11100Y-2460D02*
X11163D01*
X11020Y-2780D02*
X11200D01*
X11060Y-2740D02*
X11200D01*
X11136Y-2986D02*
X11276Y-3126D01*
X11136Y-2986D02*
X11276Y-3126D01*
X11180Y-2800D02*
X11200D01*
Y-2735D01*
X11200Y-2800D02*
Y-2735D01*
X11136Y-2986D02*
X11276Y-3126D01*
X11136Y-2986D02*
X11276Y-3126D01*
X11136Y-2986D02*
X11276Y-3126D01*
X11136Y-2986D02*
X11276Y-3126D01*
X1640Y-4140D02*
Y-3450D01*
X1680Y-4140D02*
Y-3450D01*
X1720Y-4140D02*
Y-3450D01*
X1600Y-4140D02*
Y-3425D01*
X1760Y-4140D02*
Y-3450D01*
X1800Y-4140D02*
Y-3450D01*
X1840Y-4140D02*
Y-3450D01*
X1880Y-4140D02*
Y-3450D01*
X1920Y-4140D02*
Y-3450D01*
X1960Y-4140D02*
Y-3450D01*
X2000Y-4140D02*
Y-3450D01*
X2040Y-4140D02*
Y-3450D01*
X2080Y-4140D02*
Y-3450D01*
X2120Y-4140D02*
Y-3450D01*
X2160Y-4140D02*
Y-3450D01*
X2200Y-4140D02*
Y-3450D01*
X2240Y-4140D02*
Y-3450D01*
X2280Y-4140D02*
Y-3450D01*
X2320Y-4140D02*
Y-3450D01*
X2360Y-4140D02*
Y-3450D01*
X2400Y-4140D02*
Y-3450D01*
X2440Y-4140D02*
Y-3450D01*
X1625D02*
X3500D01*
X2480Y-4140D02*
Y-3450D01*
X2520Y-4140D02*
Y-3450D01*
X2560Y-4140D02*
Y-3450D01*
X2600Y-4140D02*
Y-3450D01*
X2640Y-4140D02*
Y-3450D01*
X2680Y-4140D02*
Y-3450D01*
X2720Y-4140D02*
Y-3450D01*
X2760Y-4140D02*
Y-3450D01*
X2800Y-4140D02*
Y-3450D01*
X2840Y-4140D02*
Y-3450D01*
X2880Y-4140D02*
Y-3450D01*
X2920Y-4140D02*
Y-3450D01*
X2960Y-4140D02*
Y-3450D01*
X3000Y-4140D02*
Y-3450D01*
X3040Y-4140D02*
Y-3450D01*
X3080Y-4140D02*
Y-3450D01*
X3120Y-4140D02*
Y-3450D01*
X3160Y-4140D02*
Y-3450D01*
X3200Y-4140D02*
Y-3450D01*
X3240Y-4140D02*
Y-3450D01*
X3280Y-4140D02*
Y-3450D01*
X3320Y-4140D02*
Y-3450D01*
X3360Y-4140D02*
Y-3450D01*
X3400Y-4140D02*
Y-3450D01*
X3440Y-4140D02*
Y-3450D01*
X3480Y-4140D02*
Y-3450D01*
X3520Y-4140D02*
Y-3430D01*
X60Y-4140D02*
Y-60D01*
X80Y-4140D02*
Y-60D01*
X120Y-4140D02*
Y-60D01*
X160Y-4140D02*
Y-60D01*
X200Y-4140D02*
Y-60D01*
X240Y-4140D02*
Y-60D01*
X400Y-4140D02*
Y-2225D01*
X440Y-4140D02*
Y-2265D01*
X480Y-4140D02*
Y-2305D01*
X280Y-4140D02*
Y-2105D01*
X320Y-4140D02*
Y-2145D01*
X360Y-4140D02*
Y-2185D01*
X60Y-3180D02*
X1355D01*
X640Y-4140D02*
Y-2465D01*
X680Y-4140D02*
Y-2505D01*
X520Y-4140D02*
Y-2345D01*
X560Y-4140D02*
Y-2385D01*
X600Y-4140D02*
Y-2425D01*
X60Y-3420D02*
X1595D01*
X60Y-3380D02*
X1555D01*
X60Y-3340D02*
X1515D01*
X60Y-3300D02*
X1475D01*
X60Y-3260D02*
X1435D01*
X263Y-2088D02*
X1625Y-3450D01*
X60Y-3220D02*
X1395D01*
X840Y-4140D02*
Y-2665D01*
X880Y-4140D02*
Y-2705D01*
X920Y-4140D02*
Y-2745D01*
X720Y-4140D02*
Y-2545D01*
X760Y-4140D02*
Y-2585D01*
X800Y-4140D02*
Y-2625D01*
X1080Y-4140D02*
Y-2905D01*
X1120Y-4140D02*
Y-2945D01*
X1160Y-4140D02*
Y-2985D01*
X960Y-4140D02*
Y-2785D01*
X1000Y-4140D02*
Y-2825D01*
X1040Y-4140D02*
Y-2865D01*
X1320Y-4140D02*
Y-3145D01*
X1360Y-4140D02*
Y-3185D01*
X1400Y-4140D02*
Y-3225D01*
X1200Y-4140D02*
Y-3025D01*
X1240Y-4140D02*
Y-3065D01*
X1280Y-4140D02*
Y-3105D01*
X1520Y-4140D02*
Y-3345D01*
X1560Y-4140D02*
Y-3385D01*
X3560Y-4140D02*
Y-3390D01*
X1440Y-4140D02*
Y-3265D01*
X1480Y-4140D02*
Y-3305D01*
X3600Y-4140D02*
Y-3350D01*
X3640Y-4140D02*
Y-3310D01*
X60Y-3900D02*
X9438D01*
X60Y-3860D02*
X9421D01*
X60Y-3820D02*
X9420D01*
X60Y-3780D02*
X9420D01*
X3680Y-4140D02*
Y-3270D01*
X3720Y-4140D02*
Y-3230D01*
X60Y-4140D02*
X10031D01*
X60Y-4100D02*
X10031D01*
X60Y-4060D02*
X10031D01*
X60Y-4020D02*
X9561D01*
X60Y-3980D02*
X9517D01*
X60Y-3940D02*
X9477D01*
X60Y-3460D02*
X7297D01*
X3530Y-3420D02*
X7257D01*
X3570Y-3380D02*
X7217D01*
X3610Y-3340D02*
X7177D01*
X3650Y-3300D02*
X7137D01*
X3690Y-3260D02*
X7097D01*
X60Y-3740D02*
X9420D01*
X60Y-3700D02*
X9148D01*
X60Y-3660D02*
X9148D01*
X60Y-3620D02*
X9148D01*
X60Y-3580D02*
X9148D01*
X60Y-3540D02*
X9148D01*
X60Y-3500D02*
X7347D01*
X3760Y-4140D02*
Y-3190D01*
X5760Y-4140D02*
Y-3179D01*
X5800Y-4140D02*
Y-3180D01*
X5840Y-4140D02*
Y-3180D01*
X5880Y-4140D02*
Y-3180D01*
X5920Y-4140D02*
Y-3180D01*
X5960Y-4140D02*
Y-3180D01*
X6000Y-4140D02*
Y-3180D01*
X6040Y-4140D02*
Y-3180D01*
X6080Y-4140D02*
Y-3180D01*
X6120Y-4140D02*
Y-3180D01*
X6160Y-4140D02*
Y-3180D01*
X6200Y-4140D02*
Y-3180D01*
X6240Y-4140D02*
Y-3180D01*
X6280Y-4140D02*
Y-3180D01*
X6320Y-4140D02*
Y-3180D01*
X6360Y-4140D02*
Y-3180D01*
X6400Y-4140D02*
Y-3180D01*
X3730Y-3220D02*
X7057D01*
X6440Y-4140D02*
Y-3180D01*
X6480Y-4140D02*
Y-3180D01*
X6520Y-4140D02*
Y-3180D01*
X3770Y-3180D02*
X7017D01*
X6560Y-4140D02*
Y-3180D01*
X6600Y-4140D02*
Y-3180D01*
X3800Y-4140D02*
Y-3150D01*
X3840Y-4140D02*
Y-3110D01*
X3880Y-4140D02*
Y-3070D01*
X3920Y-4140D02*
Y-3030D01*
X3960Y-4140D02*
Y-3000D01*
X4000Y-4140D02*
Y-3000D01*
X4040Y-4140D02*
Y-3000D01*
X4080Y-4140D02*
Y-3000D01*
X4120Y-4140D02*
Y-3000D01*
X4160Y-4140D02*
Y-3000D01*
X4200Y-4140D02*
Y-3000D01*
X4240Y-4140D02*
Y-3000D01*
X3500Y-3450D02*
X3950Y-3000D01*
X4280Y-4140D02*
Y-3000D01*
X4320Y-4140D02*
Y-3000D01*
X4360Y-4140D02*
Y-3000D01*
X4400Y-4140D02*
Y-3000D01*
X4440Y-4140D02*
Y-3000D01*
X4480Y-4140D02*
Y-3000D01*
X4520Y-4140D02*
Y-3000D01*
X4560Y-4140D02*
Y-3000D01*
X4600Y-4140D02*
Y-3000D01*
X4640Y-4140D02*
Y-3000D01*
X4680Y-4140D02*
Y-3000D01*
X4720Y-4140D02*
Y-3000D01*
X4760Y-4140D02*
Y-3000D01*
X4800Y-4140D02*
Y-3000D01*
X4840Y-4140D02*
Y-3000D01*
X4880Y-4140D02*
Y-3000D01*
X4920Y-4140D02*
Y-3000D01*
X4960Y-4140D02*
Y-3000D01*
X5000Y-4140D02*
Y-3000D01*
X5040Y-4140D02*
Y-3000D01*
X5080Y-4140D02*
Y-3000D01*
X5120Y-4140D02*
Y-3000D01*
X5160Y-4140D02*
Y-3000D01*
X5200Y-4140D02*
Y-3000D01*
X5240Y-4140D02*
Y-3000D01*
X5280Y-4140D02*
Y-3000D01*
X5440Y-4140D02*
Y-2878D01*
X5320Y-4140D02*
Y-2735D01*
X5360Y-4140D02*
Y-2739D01*
X5400Y-4140D02*
Y-2828D01*
X5640Y-4140D02*
Y-3078D01*
X5680Y-4140D02*
Y-3118D01*
X5720Y-4140D02*
Y-3158D01*
X5480Y-4140D02*
Y-2918D01*
X5520Y-4140D02*
Y-2958D01*
X5560Y-4140D02*
Y-2998D01*
X5600Y-4140D02*
Y-3038D01*
X60Y-2580D02*
X755D01*
X60Y-2540D02*
X715D01*
X60Y-2500D02*
X675D01*
X60Y-2460D02*
X635D01*
X60Y-2420D02*
X595D01*
X60Y-2380D02*
X555D01*
X60Y-2820D02*
X995D01*
X60Y-2780D02*
X955D01*
X60Y-2740D02*
X915D01*
X60Y-2700D02*
X875D01*
X60Y-2660D02*
X835D01*
X60Y-2620D02*
X795D01*
X60Y-2060D02*
X263D01*
X60Y-2020D02*
X263D01*
X60Y-1980D02*
X263D01*
X60Y-1940D02*
X263D01*
X60Y-1900D02*
X263D01*
X60Y-1860D02*
X263D01*
X60Y-2340D02*
X515D01*
X60Y-2300D02*
X475D01*
X60Y-2260D02*
X435D01*
X60Y-2220D02*
X395D01*
X60Y-2180D02*
X355D01*
X60Y-2140D02*
X315D01*
X60Y-2100D02*
X275D01*
X60Y-1820D02*
X263D01*
X60Y-1780D02*
X263D01*
X60Y-1740D02*
X263D01*
X60Y-1700D02*
X263D01*
X60Y-1660D02*
X263D01*
X60Y-1620D02*
X263D01*
X60Y-1580D02*
X263D01*
X60Y-1540D02*
X263D01*
X60Y-1500D02*
X263D01*
X60Y-1460D02*
X263D01*
X60Y-1420D02*
X263D01*
X60Y-1380D02*
X263D01*
X60Y-1340D02*
X263D01*
X60Y-1300D02*
X263D01*
X60Y-1260D02*
X263D01*
X60Y-1220D02*
X263D01*
X60Y-1180D02*
X263D01*
X60Y-1140D02*
X263D01*
X60Y-1100D02*
X263D01*
X60Y-1060D02*
X263D01*
X60Y-1020D02*
X263D01*
X60Y-980D02*
X263D01*
X60Y-940D02*
X263D01*
X60Y-900D02*
X263D01*
X60Y-860D02*
X263D01*
X60Y-820D02*
X263D01*
X60Y-780D02*
X263D01*
X60Y-740D02*
X263D01*
X60Y-700D02*
X263D01*
Y-2088D02*
Y-550D01*
X60Y-660D02*
X263D01*
X60Y-620D02*
X263D01*
X60Y-580D02*
X263D01*
X60Y-540D02*
X273D01*
X60Y-500D02*
X313D01*
X263Y-550D02*
X350Y-463D01*
X280Y-533D02*
Y-60D01*
X320Y-493D02*
Y-60D01*
X350Y-463D02*
X700D01*
X360D02*
Y-60D01*
X400Y-463D02*
Y-60D01*
X440Y-463D02*
Y-60D01*
X480Y-463D02*
Y-60D01*
X60Y-380D02*
X748D01*
X60Y-340D02*
X748D01*
X60Y-300D02*
X748D01*
X60Y-260D02*
X748D01*
X60Y-220D02*
X748D01*
X60Y-180D02*
X748D01*
X60Y-140D02*
X748D01*
X700Y-750D02*
X750D01*
X700D02*
Y-463D01*
X760Y-750D02*
Y-385D01*
X720Y-750D02*
Y-60D01*
X800Y-750D02*
Y-385D01*
X840Y-750D02*
Y-385D01*
X700Y-740D02*
X1010D01*
X750Y-750D02*
X1000D01*
X880D02*
Y-385D01*
X920Y-750D02*
Y-385D01*
X960Y-750D02*
Y-385D01*
X1000Y-750D02*
Y-385D01*
X520Y-463D02*
Y-60D01*
X560Y-463D02*
Y-60D01*
X748Y-385D02*
Y-115D01*
X600Y-463D02*
Y-60D01*
X640Y-463D02*
Y-60D01*
X680Y-463D02*
Y-60D01*
X760Y-115D02*
Y-60D01*
X800Y-115D02*
Y-60D01*
X840Y-115D02*
Y-60D01*
X880Y-115D02*
Y-60D01*
X920Y-115D02*
Y-60D01*
X960Y-115D02*
Y-60D01*
X1000Y-115D02*
Y-60D01*
X60Y-3140D02*
X1315D01*
X60Y-3100D02*
X1275D01*
X60Y-3060D02*
X1235D01*
X60Y-3020D02*
X1195D01*
X3950Y-3000D02*
X5300D01*
X60Y-2980D02*
X1155D01*
X3810Y-3140D02*
X5702D01*
X3850Y-3100D02*
X5662D01*
X3890Y-3060D02*
X5622D01*
X3930Y-3020D02*
X5582D01*
X5300Y-3000D02*
Y-2728D01*
Y-2980D02*
X5542D01*
X60Y-2940D02*
X1115D01*
X60Y-2900D02*
X1075D01*
X60Y-2860D02*
X1035D01*
X5300Y-2780D02*
X5395D01*
Y-2800D02*
Y-2732D01*
X5300Y-2940D02*
X5502D01*
X5300Y-2900D02*
X5462D01*
X5300Y-2820D02*
X5398D01*
X5300Y-2740D02*
X5395D01*
X5499Y-2937D02*
X5718Y-3156D01*
X5423Y-2862D02*
X5498Y-2937D01*
X5960Y-2844D02*
Y-2696D01*
X5920Y-2804D02*
Y-2725D01*
X5775Y-3180D02*
X7017D01*
X6011Y-2895D02*
X7050D01*
X5976Y-2860D02*
X7548D01*
X5855Y-2739D02*
X6011Y-2895D01*
X5936Y-2820D02*
X7548D01*
X5896Y-2780D02*
X7531D01*
X5856Y-2740D02*
X7531D01*
X5880Y-2764D02*
Y-2738D01*
X5960Y-2512D02*
Y-2442D01*
X5920Y-2483D02*
Y-2471D01*
X5956Y-2700D02*
X7531D01*
X5984Y-2660D02*
X7531D01*
X5995Y-2620D02*
X7531D01*
X5947Y-2500D02*
X7722D01*
X5939Y-2460D02*
X7682D01*
X5994Y-2580D02*
X7531D01*
X5980Y-2540D02*
X7531D01*
X700Y-700D02*
X1050D01*
X700Y-660D02*
X1090D01*
X700Y-620D02*
X1130D01*
X1040Y-710D02*
Y-385D01*
X1080Y-670D02*
Y-385D01*
X1120Y-630D02*
Y-385D01*
X700Y-580D02*
X1170D01*
X1000Y-750D02*
X1200Y-550D01*
X700Y-540D02*
X1200D01*
X60Y-460D02*
X1200D01*
X1160Y-590D02*
Y-385D01*
X700Y-500D02*
X1200D01*
X748Y-385D02*
X1185D01*
X748Y-115D02*
X1185D01*
X1040D02*
Y-60D01*
X1080Y-115D02*
Y-60D01*
X1120Y-115D02*
Y-60D01*
X1160Y-115D02*
Y-60D01*
X60Y-420D02*
X1200D01*
X1185Y-380D02*
X1200D01*
X1185Y-340D02*
X1200D01*
X60Y-100D02*
X1200D01*
X60Y-60D02*
X1200D01*
X1185Y-300D02*
X1200D01*
X60Y-60D02*
X1200D01*
X6040Y-2895D02*
Y-2430D01*
X6080Y-2895D02*
Y-2430D01*
X6120Y-2895D02*
Y-2430D01*
X6160Y-2895D02*
Y-2430D01*
X6200Y-2895D02*
Y-2430D01*
X6240Y-2895D02*
Y-2430D01*
X6280Y-2895D02*
Y-2430D01*
X6320Y-2895D02*
Y-2430D01*
X6360Y-2895D02*
Y-2430D01*
X6400Y-2895D02*
Y-2430D01*
X6440Y-2895D02*
Y-2430D01*
X6480Y-2895D02*
Y-2430D01*
X1185Y-260D02*
X1200D01*
X1185Y-220D02*
X1200D01*
X1185Y-180D02*
X1200D01*
X1185Y-385D02*
Y-115D01*
X1200Y-550D02*
Y-60D01*
X1200Y-550D02*
Y-60D01*
X6520Y-2895D02*
Y-2430D01*
X6000Y-2884D02*
Y-2430D01*
X5970D02*
X7652D01*
X1185Y-140D02*
X1200D01*
X6560Y-2895D02*
Y-2430D01*
X6600Y-2895D02*
Y-2430D01*
X7080Y-4140D02*
Y-3243D01*
X7120Y-4140D02*
Y-3283D01*
X7160Y-4140D02*
Y-3323D01*
X6640Y-4140D02*
Y-3180D01*
X6680Y-4140D02*
Y-3180D01*
X7040Y-4140D02*
Y-3203D01*
X7320Y-4140D02*
Y-3483D01*
X7360Y-4140D02*
Y-3504D01*
X7400Y-4140D02*
Y-3505D01*
X7200Y-4140D02*
Y-3363D01*
X7240Y-4140D02*
Y-3403D01*
X7280Y-4140D02*
Y-3443D01*
X7440Y-4140D02*
Y-3505D01*
X7480Y-4140D02*
Y-3505D01*
X7520Y-4140D02*
Y-3505D01*
X7560Y-4140D02*
Y-3505D01*
X7600Y-4140D02*
Y-3505D01*
X7640Y-4140D02*
Y-3505D01*
X7680Y-4140D02*
Y-3505D01*
X7720Y-4140D02*
Y-3505D01*
X7760Y-4140D02*
Y-3505D01*
X7800Y-4140D02*
Y-3505D01*
X7840Y-4140D02*
Y-3505D01*
X7880Y-4140D02*
Y-3505D01*
X7920Y-4140D02*
Y-3505D01*
X7960Y-4140D02*
Y-3505D01*
X8000Y-4140D02*
Y-3505D01*
X8040Y-4140D02*
Y-3505D01*
X8080Y-4140D02*
Y-3505D01*
X8120Y-4140D02*
Y-3505D01*
X8160Y-4140D02*
Y-3505D01*
X8200Y-4140D02*
Y-3505D01*
X8240Y-4140D02*
Y-3505D01*
X8280Y-4140D02*
Y-3505D01*
X8320Y-4140D02*
Y-3505D01*
X8360Y-4140D02*
Y-3505D01*
X8400Y-4140D02*
Y-3505D01*
X8440Y-4140D02*
Y-3505D01*
X8480Y-4140D02*
Y-3505D01*
X8520Y-4140D02*
Y-3505D01*
X8560Y-4140D02*
Y-3505D01*
X8600Y-4140D02*
Y-3505D01*
X8640Y-4140D02*
Y-3505D01*
X8680Y-4140D02*
Y-3505D01*
X8720Y-4140D02*
Y-3505D01*
X8760Y-4140D02*
Y-3505D01*
X8800Y-4140D02*
Y-3505D01*
X8840Y-4140D02*
Y-3505D01*
X6720Y-4140D02*
Y-3180D01*
X6760Y-4140D02*
Y-3180D01*
X6800Y-4140D02*
Y-3180D01*
X6840Y-4140D02*
Y-3180D01*
X6880Y-4140D02*
Y-3180D01*
X6920Y-4140D02*
Y-3180D01*
X6960Y-4140D02*
Y-3180D01*
X7000Y-4140D02*
Y-3180D01*
X7017D02*
X7318Y-3481D01*
X7107Y-2919D02*
X7443Y-3255D01*
X7480D02*
Y-2430D01*
X7520Y-3255D02*
Y-2430D01*
X7280Y-3092D02*
Y-2430D01*
X7560Y-3255D02*
Y-3085D01*
X7320Y-3132D02*
Y-2430D01*
X7360Y-3172D02*
Y-2430D01*
X7440Y-3252D02*
Y-2430D01*
X7400Y-3212D02*
Y-2430D01*
X7600Y-3255D02*
Y-3085D01*
X7640Y-3255D02*
Y-3085D01*
X7680Y-3255D02*
Y-3085D01*
X7720Y-3255D02*
Y-3085D01*
X7760Y-3255D02*
Y-3085D01*
X7800Y-3255D02*
Y-3085D01*
X7840Y-3255D02*
Y-3085D01*
X7880Y-3255D02*
Y-3085D01*
X7920Y-3255D02*
Y-3085D01*
X7960Y-3255D02*
Y-3085D01*
X8000Y-3255D02*
Y-3085D01*
X8040Y-3255D02*
Y-3085D01*
X8080Y-3255D02*
Y-3085D01*
X8120Y-3255D02*
Y-3085D01*
X8160Y-3255D02*
Y-3085D01*
X8200Y-3255D02*
Y-3085D01*
X8240Y-3255D02*
Y-3085D01*
X8280Y-3255D02*
Y-3085D01*
X8320Y-3255D02*
Y-3085D01*
X8360Y-3255D02*
Y-2929D01*
X8400Y-3255D02*
Y-2930D01*
X8440Y-3255D02*
Y-2930D01*
X8480Y-3255D02*
Y-2930D01*
X8520Y-3255D02*
Y-2930D01*
X8560Y-3255D02*
Y-2930D01*
X8600Y-3255D02*
Y-2930D01*
X8640Y-3255D02*
Y-2930D01*
X8680Y-3255D02*
Y-2930D01*
X8720Y-3255D02*
Y-2930D01*
X8760Y-3255D02*
Y-2930D01*
X8800Y-3255D02*
Y-2930D01*
X8840Y-3255D02*
Y-2930D01*
X9440Y-4140D02*
Y-3903D01*
X9480Y-4140D02*
Y-3943D01*
X9520Y-4140D02*
Y-3983D01*
X9444Y-3907D02*
X9543Y-4006D01*
X9444Y-3907D02*
X9543Y-4006D01*
X9444Y-3907D02*
X9543Y-4006D01*
X9444Y-3907D02*
X9543Y-4006D01*
X9444Y-3907D02*
X9543Y-4006D01*
X9444Y-3907D02*
X9543Y-4006D01*
X9444Y-3907D02*
X9543Y-4006D01*
X9444Y-3907D02*
X9543Y-4006D01*
X9600Y-4140D02*
Y-4030D01*
X9640Y-4140D02*
Y-4030D01*
X9680Y-4140D02*
Y-4030D01*
X9560Y-4140D02*
Y-4019D01*
X9720Y-4140D02*
Y-4030D01*
X9760Y-4140D02*
Y-4030D01*
X9800Y-4140D02*
Y-4030D01*
X9840Y-4140D02*
Y-4030D01*
X9880Y-4140D02*
Y-4030D01*
X9920Y-4140D02*
Y-4030D01*
X9960Y-4140D02*
Y-4030D01*
X10000Y-4140D02*
Y-4030D01*
X10031Y-4140D02*
Y-4030D01*
X9600D02*
X10031D01*
X9600D02*
X10031D01*
X9600D02*
X10031D01*
X9600D02*
X10031D01*
X9600D02*
X10031D01*
X9600D02*
X10031D01*
X9600D02*
X10031D01*
X9600D02*
X10031D01*
X8880Y-4140D02*
Y-3505D01*
X8920Y-4140D02*
Y-3505D01*
X8960Y-4140D02*
Y-3505D01*
X9000Y-4140D02*
Y-3505D01*
X9040Y-4140D02*
Y-3505D01*
X9080Y-4140D02*
Y-3505D01*
X9148Y-3735D02*
X9420D01*
X9160Y-4140D02*
Y-3735D01*
X9200Y-4140D02*
Y-3735D01*
X7375Y-3505D02*
X9148D01*
X9120Y-4140D02*
Y-3505D01*
X9148Y-3735D02*
Y-3505D01*
X8880Y-3255D02*
Y-2930D01*
X8920Y-3255D02*
Y-2930D01*
X8960Y-3255D02*
Y-2930D01*
X9000Y-3255D02*
Y-2930D01*
X9040Y-3255D02*
Y-2930D01*
X9080Y-3255D02*
Y-2930D01*
X7368Y-3180D02*
X9148D01*
X7443Y-3255D02*
X9148D01*
X7408Y-3220D02*
X9148D01*
X7328Y-3140D02*
X9148D01*
X7288Y-3100D02*
X9148D01*
X9120Y-3255D02*
Y-2930D01*
X9148Y-3255D02*
Y-3065D01*
X9240Y-4140D02*
Y-3735D01*
X9280Y-4140D02*
Y-3735D01*
X9320Y-4140D02*
Y-3735D01*
X9360Y-4140D02*
Y-3735D01*
X9400Y-4140D02*
Y-3735D01*
X9420Y-3850D02*
Y-3735D01*
Y-3850D02*
Y-3735D01*
Y-3850D02*
Y-3735D01*
Y-3850D02*
Y-3735D01*
Y-3850D02*
Y-3735D01*
Y-3850D02*
Y-3735D01*
Y-3850D02*
Y-3735D01*
Y-3850D02*
Y-3735D01*
X9490Y-3202D02*
Y-3090D01*
X9660D01*
X9485Y-3206D02*
Y-3065D01*
X9520Y-3090D02*
Y-3030D01*
X9560Y-3090D02*
Y-3030D01*
X12457Y-3094D02*
X12531Y-3168D01*
X12457Y-3094D02*
X12531Y-3168D01*
X12503Y-3140D02*
X12530D01*
X12480Y-3117D02*
Y-2684D01*
X12463Y-3100D02*
X12541D01*
X12520Y-3157D02*
Y-2684D01*
X7548Y-3085D02*
X7885D01*
Y-3085D02*
X8075D01*
X8135D01*
X7208Y-3020D02*
X7548D01*
Y-3085D02*
Y-2815D01*
X7248Y-3060D02*
X7548D01*
X8075Y-3085D02*
X8135D01*
X8325D01*
X9148Y-3065D02*
X9485D01*
X8325Y-3085D02*
Y-2912D01*
Y-3060D02*
X9695D01*
X7168Y-2980D02*
X7548D01*
X7128Y-2940D02*
X7548D01*
X7078Y-2900D02*
X7548D01*
X8325Y-3020D02*
X9361D01*
X8325Y-2980D02*
X9317D01*
X8325Y-2940D02*
X9277D01*
X8375Y-2930D02*
X9267D01*
X9280Y-3065D02*
Y-2943D01*
X9320Y-3065D02*
Y-2983D01*
X9360Y-3065D02*
Y-3019D01*
X9160Y-3065D02*
Y-2930D01*
X9200Y-3065D02*
Y-2930D01*
X9240Y-3065D02*
Y-2930D01*
X9600Y-3090D02*
Y-3030D01*
X9660Y-3090D02*
X9703D01*
X9660D02*
X9703D01*
X9640D02*
Y-3030D01*
X9680Y-3090D02*
Y-3030D01*
X9400Y-3065D02*
Y-3030D01*
X9440Y-3065D02*
Y-3030D01*
X9480Y-3065D02*
Y-3030D01*
X9267Y-2930D02*
X9343Y-3006D01*
X9400Y-3030D02*
X9697D01*
X11180Y-2917D02*
Y-2880D01*
Y-2917D02*
Y-2880D01*
Y-2917D02*
Y-2880D01*
Y-2917D02*
Y-2880D01*
Y-2917D02*
Y-2880D01*
Y-2917D02*
Y-2880D01*
X6640Y-2895D02*
Y-2430D01*
X6680Y-2895D02*
Y-2430D01*
X6720Y-2895D02*
Y-2430D01*
X6760Y-2895D02*
Y-2430D01*
X6800Y-2895D02*
Y-2430D01*
X6840Y-2895D02*
Y-2430D01*
X6880Y-2895D02*
Y-2430D01*
X7120Y-2932D02*
Y-2430D01*
X6920Y-2895D02*
Y-2430D01*
X7160Y-2972D02*
Y-2430D01*
X7240Y-3052D02*
Y-2430D01*
X7200Y-3012D02*
Y-2430D01*
X6960Y-2895D02*
Y-2430D01*
X7560Y-2815D02*
Y-2785D01*
X7531D02*
Y-2515D01*
X7000Y-2895D02*
Y-2430D01*
X7040Y-2895D02*
Y-2430D01*
X7080Y-2901D02*
Y-2430D01*
X7548Y-2815D02*
X7885D01*
X7600D02*
Y-2785D01*
X7640Y-2815D02*
Y-2785D01*
X7531D02*
X7835D01*
X7531Y-2515D02*
X7736D01*
X7560D02*
Y-2430D01*
X7600Y-2515D02*
Y-2430D01*
X7680Y-2815D02*
Y-2785D01*
X7720Y-2815D02*
Y-2785D01*
X7760Y-2815D02*
Y-2785D01*
X7800Y-2815D02*
Y-2785D01*
X7840Y-2815D02*
Y-2618D01*
X7880Y-2815D02*
Y-2658D01*
X7885Y-2815D02*
X7930D01*
X8090D02*
X8135D01*
X7885Y-2810D02*
X7930D01*
X7885D02*
Y-2663D01*
X8090Y-2815D02*
X8135D01*
X8227D01*
X7720Y-2515D02*
Y-2498D01*
X7835Y-2785D02*
Y-2614D01*
Y-2660D02*
X7882D01*
X7640Y-2515D02*
Y-2430D01*
X7652D02*
X7736Y-2515D01*
X7680D02*
Y-2458D01*
X8090Y-2810D02*
X8135D01*
X8090D02*
X8135D01*
X8222D01*
X7835Y-2780D02*
X7885D01*
X7835Y-2740D02*
X7885D01*
X7835Y-2700D02*
X7885D01*
X7835Y-2614D02*
X7885Y-2663D01*
X11192Y-2929D02*
X11333Y-3070D01*
X11192Y-2929D02*
X11333Y-3070D01*
X11192Y-2929D02*
X11333Y-3070D01*
X11192Y-2929D02*
X11333Y-3070D01*
X11192Y-2929D02*
X11333Y-3070D01*
X11240Y-2977D02*
Y-2869D01*
X11243Y-2980D02*
X12770D01*
X11323Y-3060D02*
X12571D01*
X11283Y-3020D02*
X12742D01*
X11192Y-2929D02*
X11333Y-3070D01*
X11192Y-2929D02*
X11333Y-3070D01*
X11192Y-2929D02*
X11333Y-3070D01*
X11180Y-2917D02*
X11192Y-2929D01*
X11180Y-2917D02*
X11192Y-2929D01*
X11180Y-2917D02*
X11192Y-2929D01*
X11180Y-2917D02*
X11192Y-2929D01*
X11180Y-2917D02*
X11192Y-2929D01*
X11180Y-2917D02*
X11192Y-2929D01*
X11180Y-2917D02*
X11192Y-2929D01*
X11203Y-2940D02*
X12770D01*
X11180Y-2917D02*
X11192Y-2929D01*
X11180Y-2900D02*
X12770D01*
X11180Y-2880D02*
X11200D01*
X11200Y-2937D02*
Y-2880D01*
X11253Y-2860D02*
X12770D01*
X11333Y-3070D02*
X11350D01*
X11333D02*
X11350D01*
X11333D02*
X11350D01*
X11333D02*
X11350D01*
X11333D02*
X11350D01*
X11333D02*
X11350D01*
X11333D02*
X11350D01*
X11333D02*
X11350D01*
X12400D01*
X11350D02*
X12400D01*
X11350D02*
X12400D01*
X11350D02*
X12400D01*
X11350D02*
X12400D01*
X11350D02*
X12400D01*
X11350D02*
X12400D01*
X12714Y-3048D02*
X12770Y-2992D01*
X11440Y-3070D02*
Y-2731D01*
X11480Y-3070D02*
Y-2739D01*
X11520Y-3070D02*
Y-2735D01*
X11320Y-3057D02*
Y-2706D01*
X11360Y-3070D02*
Y-2652D01*
X11400Y-3070D02*
Y-2708D01*
X11560Y-3070D02*
Y-2717D01*
X11600Y-3070D02*
Y-2684D01*
X11640Y-3070D02*
Y-2684D01*
X11680Y-3070D02*
Y-2684D01*
X11720Y-3070D02*
Y-2684D01*
X11760Y-3070D02*
Y-2684D01*
X11280Y-3017D02*
Y-2802D01*
X11280Y-2800D02*
Y-2735D01*
X11355Y-2660D02*
X11363D01*
X11277Y-2820D02*
X12732D01*
X11280Y-2780D02*
X12692D01*
X11280Y-2740D02*
X12652D01*
X11327Y-2700D02*
X11391D01*
X11581D02*
X12612D01*
X11595Y-2684D02*
X12596D01*
X11800Y-3070D02*
Y-2684D01*
X11840Y-3070D02*
Y-2684D01*
X11880Y-3070D02*
Y-2684D01*
X11920Y-3070D02*
Y-2684D01*
X11960Y-3070D02*
Y-2684D01*
X12000Y-3070D02*
Y-2684D01*
X12040Y-3070D02*
Y-2684D01*
X12080Y-3070D02*
Y-2684D01*
X12120Y-3070D02*
Y-2684D01*
X12160Y-3070D02*
Y-2684D01*
X12440Y-3081D02*
Y-2684D01*
X12200Y-3070D02*
Y-2684D01*
X12240Y-3070D02*
Y-2684D01*
X12280Y-3070D02*
Y-2684D01*
X12320Y-3070D02*
Y-2684D01*
X12360Y-3070D02*
Y-2684D01*
X12400Y-3070D02*
Y-2684D01*
X12560Y-3071D02*
Y-2684D01*
X12720Y-3042D02*
Y-2808D01*
X12760Y-3002D02*
Y-2848D01*
X12770Y-2992D02*
Y-2858D01*
X12600Y-3041D02*
Y-2688D01*
X12596Y-2684D02*
X12770Y-2858D01*
X12640Y-3030D02*
Y-2728D01*
X12680Y-3034D02*
Y-2768D01*
X7800Y-780D02*
Y-700D01*
X7700Y-600D02*
X7800Y-700D01*
X8500Y-950D02*
X9025D01*
X8425Y-1200D02*
Y-1025D01*
X8500Y-950D01*
X7650D02*
X8025D01*
X7550Y-1200D02*
Y-1050D01*
X7650Y-950D01*
X6225Y-975D02*
X7150D01*
X6150Y-1050D02*
X6225Y-975D01*
X3125Y-950D02*
X3250Y-1075D01*
X2000Y-1400D02*
X2450Y-950D01*
X4083Y-2350D02*
Y-2008D01*
X3250Y-1175D02*
X3935Y-1860D01*
X2450Y-950D02*
X3125D01*
X3250Y-1175D02*
Y-1075D01*
X750Y-1300D02*
X875Y-1175D01*
X1704Y-2604D02*
X3575D01*
X1275Y-1175D02*
X1500Y-1400D01*
X750Y-1650D02*
Y-1300D01*
X875Y-1175D02*
X1275D01*
X1650Y-2975D02*
X3550D01*
X500Y-1825D02*
X1650Y-2975D01*
X3550D02*
X3700Y-2825D01*
X3575Y-2350D02*
X3700Y-2475D01*
X500Y-1825D02*
Y-600D01*
X3700Y-2825D02*
Y-2475D01*
X5353Y-2350D02*
X5626Y-2077D01*
X7748D01*
X8275Y-1550D02*
X8700Y-1125D01*
X7748Y-2077D02*
X8275Y-1550D01*
X7675Y-1950D02*
X8425Y-1200D01*
X5099Y-2604D02*
X5225Y-2478D01*
Y-2225D02*
X5500Y-1950D01*
X9025Y-950D02*
X9200Y-1125D01*
X5225Y-2478D02*
Y-2225D01*
X5500Y-1950D02*
X7675D01*
X5099Y-2350D02*
Y-2151D01*
X5425Y-1825D02*
X7100D01*
X5099Y-2151D02*
X5425Y-1825D01*
X7100D02*
X7800Y-1125D01*
X4975Y-2075D02*
X5350Y-1700D01*
X4845Y-2604D02*
X4975Y-2474D01*
X5350Y-1700D02*
X7050D01*
X7335Y-1415D01*
X7550Y-1200D01*
X8025Y-950D02*
X8200Y-1125D01*
X4975Y-2474D02*
Y-2075D01*
X4845Y-2005D02*
X5275Y-1575D01*
X4845Y-2350D02*
Y-2005D01*
X5275Y-1575D02*
X5950D01*
X6375Y-1150D01*
X5200Y-1450D02*
X5900D01*
X4591Y-2604D02*
X4725Y-2470D01*
Y-1925D02*
X5200Y-1450D01*
X6150Y-1200D02*
Y-1050D01*
X7150Y-975D02*
X7300Y-1125D01*
X4725Y-2470D02*
Y-1925D01*
X5900Y-1450D02*
X6150Y-1200D01*
X4591Y-1859D02*
X5300Y-1150D01*
X4591Y-2350D02*
Y-1859D01*
X5300Y-1150D02*
X5400D01*
X4337Y-2604D02*
X4465Y-2476D01*
Y-1660D02*
X5150Y-975D01*
X5750D02*
X5925Y-1150D01*
X4465Y-2476D02*
Y-1660D01*
X5150Y-975D02*
X5750D01*
X10470Y-2350D02*
Y-2080D01*
X10650Y-1900D01*
X13900D02*
X14400Y-1400D01*
X10650Y-1900D02*
X13900D01*
X10216Y-2604D02*
X10350Y-2470D01*
Y-2000D02*
X10600Y-1750D01*
X13550D02*
X13900Y-1400D01*
X10350Y-2470D02*
Y-2000D01*
X10600Y-1750D02*
X13550D01*
X10470Y-2604D02*
X10600Y-2474D01*
Y-2150D02*
X10700Y-2050D01*
X14250D01*
X14900Y-1400D01*
X10600Y-2474D02*
Y-2150D01*
X10216Y-2350D02*
Y-1934D01*
X10550Y-1600D01*
X13200D02*
X13400Y-1400D01*
X10550Y-1600D02*
X13200D01*
X9962Y-2604D02*
X10090Y-2476D01*
Y-1860D02*
X10500Y-1450D01*
X12075D02*
X12400Y-1125D01*
X10090Y-2476D02*
Y-1860D01*
X10500Y-1450D02*
X12075D01*
X9962Y-2350D02*
Y-1788D01*
X10450Y-1300D01*
X11725D02*
X11900Y-1125D01*
X10450Y-1300D02*
X11725D01*
X9700Y-2342D02*
X9708Y-2350D01*
Y-1842D01*
X10425Y-1125D01*
X10900D01*
X9575Y-2471D02*
X9708Y-2604D01*
X9575Y-1775D02*
X10400Y-950D01*
X11225D02*
X11400Y-1125D01*
X9575Y-2471D02*
Y-1775D01*
X10400Y-950D02*
X11225D01*
D15*
X5353Y-3237D02*
Y-2604D01*
X4500Y-3750D02*
X4840D01*
X5353Y-3237D01*
X11553Y-2925D02*
X12650D01*
X11232Y-2604D02*
X11553Y-2925D01*
X4500Y-600D02*
X4700Y-400D01*
X14700D02*
X14900Y-600D01*
X9454Y-2350D02*
Y-404D01*
X4700Y-400D02*
X14700D01*
D17*
X10150Y-700D02*
X10200Y-750D01*
X10200D01*
X10250Y-700D01*
X10200Y-750D02*
Y-750D01*
X10100Y-775D02*
X10300D01*
X10100Y-675D02*
X10200Y-775D01*
X10200D01*
X10300Y-675D01*
X10100D02*
X10300D01*
X10200Y-875D02*
Y-575D01*
X15175Y-1175D02*
X15225Y-1225D01*
X15225D01*
X15275Y-1175D01*
X15225Y-1225D02*
Y-1225D01*
X15125Y-1250D02*
X15325D01*
X15125Y-1150D02*
X15225Y-1250D01*
X15225D01*
X15325Y-1150D01*
X15125D02*
X15325D01*
X15225Y-1350D02*
Y-1050D01*
X13025Y-1175D02*
X13075Y-1225D01*
X13075D01*
X13125Y-1175D01*
X13075Y-1225D02*
Y-1225D01*
X12975Y-1250D02*
X13175D01*
X12975Y-1150D02*
X13075Y-1250D01*
X13075D01*
X13175Y-1150D01*
X12975D02*
X13175D01*
X13075Y-1350D02*
Y-1050D01*
X12700Y-900D02*
X12750Y-950D01*
X12750D01*
X12800Y-900D01*
X12750Y-950D02*
Y-950D01*
X12650Y-975D02*
X12850D01*
X12650Y-875D02*
X12750Y-975D01*
X12750D01*
X12850Y-875D01*
X12650D02*
X12850D01*
X12750Y-1075D02*
Y-775D01*
X8900Y-1350D02*
X8950Y-1400D01*
X8950D01*
X9000Y-1350D01*
X8950Y-1400D02*
Y-1400D01*
X8850Y-1425D02*
X9050D01*
X8850Y-1325D02*
X8950Y-1425D01*
X8950D01*
X9050Y-1325D01*
X8850D02*
X9050D01*
X8950Y-1525D02*
Y-1225D01*
X6650Y-1200D02*
X6700Y-1250D01*
X6700D01*
X6750Y-1200D01*
X6700Y-1250D02*
Y-1250D01*
X6600Y-1275D02*
X6800D01*
X6600Y-1175D02*
X6700Y-1275D01*
X6700D01*
X6800Y-1175D01*
X6600D02*
X6800D01*
X6700Y-1375D02*
Y-1075D01*
X4450Y-900D02*
X4500Y-950D01*
X4500D01*
X4550Y-900D01*
X4500Y-950D02*
Y-950D01*
X4400Y-975D02*
X4600D01*
X4400Y-875D02*
X4500Y-975D01*
X4500D01*
X4600Y-875D01*
X4400D02*
X4600D01*
X4500Y-1075D02*
Y-775D01*
X2300Y-1375D02*
X2350Y-1425D01*
X2350D01*
X2400Y-1375D01*
X2350Y-1425D02*
Y-1425D01*
X2250Y-1450D02*
X2450D01*
X2250Y-1350D02*
X2350Y-1450D01*
X2350D01*
X2450Y-1350D01*
X2250D02*
X2450D01*
X2350Y-1550D02*
Y-1250D01*
X9200Y-2025D02*
X9300Y-1925D01*
X9100D02*
X9300D01*
X9100D02*
X9200Y-2025D01*
X3575D02*
X3675Y-1925D01*
X3475D02*
X3675D01*
X3475D02*
X3575Y-2025D01*
X9085Y-2350D02*
X9200D01*
Y-2235D01*
X10255Y-3620D02*
X10345D01*
X5353Y-2719D02*
Y-2604D01*
X8200Y-3065D02*
Y-2950D01*
Y-2835D01*
Y-2950D02*
X8305D01*
X3283Y-1850D02*
X3317D01*
X3300D01*
Y-1933D01*
X3317Y-1950D01*
X3333D01*
X3350Y-1933D01*
X3250Y-1950D02*
X3217D01*
X3233D01*
Y-1850D01*
X3250Y-1867D01*
X8833Y-1850D02*
X8867D01*
X8850D01*
Y-1933D01*
X8867Y-1950D01*
X8883D01*
X8900Y-1933D01*
X8733Y-1950D02*
X8800D01*
X8733Y-1883D01*
Y-1867D01*
X8750Y-1850D01*
X8783D01*
X8800Y-1867D01*
X7800Y-3000D02*
Y-2900D01*
X7750D01*
X7733Y-2917D01*
Y-2950D01*
X7750Y-2967D01*
X7800D01*
X7767D02*
X7733Y-3000D01*
X7633D02*
X7700D01*
X7633Y-2933D01*
Y-2917D01*
X7650Y-2900D01*
X7683D01*
X7700Y-2917D01*
X7750Y-2700D02*
Y-2600D01*
X7700D01*
X7683Y-2617D01*
Y-2650D01*
X7700Y-2667D01*
X7750D01*
X7717D02*
X7683Y-2700D01*
X7650D02*
X7617D01*
X7633D01*
Y-2600D01*
X7650Y-2617D01*
X9400Y-3250D02*
Y-3150D01*
X9350D01*
X9333Y-3167D01*
Y-3200D01*
X9350Y-3217D01*
X9400D01*
X9367D02*
X9333Y-3250D01*
X9233Y-3150D02*
X9267Y-3167D01*
X9300Y-3200D01*
Y-3233D01*
X9283Y-3250D01*
X9250D01*
X9233Y-3233D01*
Y-3217D01*
X9250Y-3200D01*
X9300D01*
X9400Y-3650D02*
Y-3550D01*
X9350D01*
X9333Y-3567D01*
Y-3600D01*
X9350Y-3617D01*
X9400D01*
X9367D02*
X9333Y-3650D01*
X9233Y-3550D02*
X9300D01*
Y-3600D01*
X9267Y-3583D01*
X9250D01*
X9233Y-3600D01*
Y-3633D01*
X9250Y-3650D01*
X9283D01*
X9300Y-3633D01*
X10183Y-4133D02*
Y-4067D01*
X10200Y-4050D01*
X10233D01*
X10250Y-4067D01*
Y-4133D01*
X10233Y-4150D01*
X10200D01*
X10217Y-4117D02*
X10183Y-4150D01*
X10200D02*
X10183Y-4133D01*
X10150Y-4150D02*
X10117D01*
X10133D01*
Y-4050D01*
X10150Y-4067D01*
X10650Y-4150D02*
Y-4050D01*
X10600D01*
X10583Y-4067D01*
Y-4100D01*
X10600Y-4117D01*
X10650D01*
X10617D02*
X10583Y-4150D01*
X10550Y-4067D02*
X10533Y-4050D01*
X10500D01*
X10483Y-4067D01*
Y-4083D01*
X10500Y-4100D01*
X10517D01*
X10500D01*
X10483Y-4117D01*
Y-4133D01*
X10500Y-4150D01*
X10533D01*
X10550Y-4133D01*
X11050Y-3150D02*
Y-3050D01*
X11000D01*
X10983Y-3067D01*
Y-3100D01*
X11000Y-3117D01*
X11050D01*
X11017D02*
X10983Y-3150D01*
X10900D02*
Y-3050D01*
X10950Y-3100D01*
X10883D01*
X15000Y-150D02*
Y-250D01*
X14950D01*
X14933Y-233D01*
Y-167D01*
X14950Y-150D01*
X15000D01*
X14850Y-250D02*
Y-150D01*
X14900Y-200D01*
X14833D01*
X14733Y-150D02*
X14767Y-167D01*
X14800Y-200D01*
Y-233D01*
X14783Y-250D01*
X14750D01*
X14733Y-233D01*
Y-217D01*
X14750Y-200D01*
X14800D01*
X14450Y-150D02*
Y-250D01*
X14400D01*
X14383Y-233D01*
Y-167D01*
X14400Y-150D01*
X14450D01*
X14300Y-250D02*
Y-150D01*
X14350Y-200D01*
X14283D01*
X14183Y-150D02*
X14250D01*
Y-200D01*
X14217Y-183D01*
X14200D01*
X14183Y-200D01*
Y-233D01*
X14200Y-250D01*
X14233D01*
X14250Y-233D01*
X14000Y-150D02*
Y-250D01*
X13950D01*
X13933Y-233D01*
Y-167D01*
X13950Y-150D01*
X14000D01*
X13850Y-250D02*
Y-150D01*
X13900Y-200D01*
X13833D01*
X13750Y-250D02*
Y-150D01*
X13800Y-200D01*
X13733D01*
X13450Y-150D02*
Y-250D01*
X13400D01*
X13383Y-233D01*
Y-167D01*
X13400Y-150D01*
X13450D01*
X13300Y-250D02*
Y-150D01*
X13350Y-200D01*
X13283D01*
X13250Y-167D02*
X13233Y-150D01*
X13200D01*
X13183Y-167D01*
Y-183D01*
X13200Y-200D01*
X13217D01*
X13200D01*
X13183Y-217D01*
Y-233D01*
X13200Y-250D01*
X13233D01*
X13250Y-233D01*
X12500Y-150D02*
Y-250D01*
X12450D01*
X12433Y-233D01*
Y-167D01*
X12450Y-150D01*
X12500D01*
X12350Y-250D02*
Y-150D01*
X12400Y-200D01*
X12333D01*
X12233Y-250D02*
X12300D01*
X12233Y-183D01*
Y-167D01*
X12250Y-150D01*
X12283D01*
X12300Y-167D01*
X12000Y-150D02*
Y-250D01*
X11950D01*
X11933Y-233D01*
Y-167D01*
X11950Y-150D01*
X12000D01*
X11850Y-250D02*
Y-150D01*
X11900Y-200D01*
X11833D01*
X11800Y-250D02*
X11767D01*
X11783D01*
Y-150D01*
X11800Y-167D01*
X11500Y-150D02*
Y-250D01*
X11450D01*
X11433Y-233D01*
Y-167D01*
X11450Y-150D01*
X11500D01*
X11350Y-250D02*
Y-150D01*
X11400Y-200D01*
X11333D01*
X11300Y-167D02*
X11283Y-150D01*
X11250D01*
X11233Y-167D01*
Y-233D01*
X11250Y-250D01*
X11283D01*
X11300Y-233D01*
Y-167D01*
X11000Y-150D02*
Y-250D01*
X10950D01*
X10933Y-233D01*
Y-167D01*
X10950Y-150D01*
X11000D01*
X10900Y-167D02*
X10883Y-150D01*
X10850D01*
X10833Y-167D01*
Y-183D01*
X10850Y-200D01*
X10867D01*
X10850D01*
X10833Y-217D01*
Y-233D01*
X10850Y-250D01*
X10883D01*
X10900Y-233D01*
X10800D02*
X10783Y-250D01*
X10750D01*
X10733Y-233D01*
Y-167D01*
X10750Y-150D01*
X10783D01*
X10800Y-167D01*
Y-183D01*
X10783Y-200D01*
X10733D01*
X9300Y-150D02*
Y-250D01*
X9250D01*
X9233Y-233D01*
Y-167D01*
X9250Y-150D01*
X9300D01*
X9200Y-167D02*
X9183Y-150D01*
X9150D01*
X9133Y-167D01*
Y-183D01*
X9150Y-200D01*
X9167D01*
X9150D01*
X9133Y-217D01*
Y-233D01*
X9150Y-250D01*
X9183D01*
X9200Y-233D01*
X9100Y-167D02*
X9083Y-150D01*
X9050D01*
X9033Y-167D01*
Y-183D01*
X9050Y-200D01*
X9033Y-217D01*
Y-233D01*
X9050Y-250D01*
X9083D01*
X9100Y-233D01*
Y-217D01*
X9083Y-200D01*
X9100Y-183D01*
Y-167D01*
X9083Y-200D02*
X9050D01*
X8800Y-150D02*
Y-250D01*
X8750D01*
X8733Y-233D01*
Y-167D01*
X8750Y-150D01*
X8800D01*
X8700Y-167D02*
X8683Y-150D01*
X8650D01*
X8633Y-167D01*
Y-183D01*
X8650Y-200D01*
X8667D01*
X8650D01*
X8633Y-217D01*
Y-233D01*
X8650Y-250D01*
X8683D01*
X8700Y-233D01*
X8600Y-150D02*
X8533D01*
Y-167D01*
X8600Y-233D01*
Y-250D01*
X8300Y-150D02*
Y-250D01*
X8250D01*
X8233Y-233D01*
Y-167D01*
X8250Y-150D01*
X8300D01*
X8200Y-167D02*
X8183Y-150D01*
X8150D01*
X8133Y-167D01*
Y-183D01*
X8150Y-200D01*
X8167D01*
X8150D01*
X8133Y-217D01*
Y-233D01*
X8150Y-250D01*
X8183D01*
X8200Y-233D01*
X8033Y-150D02*
X8067Y-167D01*
X8100Y-200D01*
Y-233D01*
X8083Y-250D01*
X8050D01*
X8033Y-233D01*
Y-217D01*
X8050Y-200D01*
X8100D01*
X7900Y-150D02*
Y-250D01*
X7850D01*
X7833Y-233D01*
Y-167D01*
X7850Y-150D01*
X7900D01*
X7800Y-167D02*
X7783Y-150D01*
X7750D01*
X7733Y-167D01*
Y-183D01*
X7750Y-200D01*
X7767D01*
X7750D01*
X7733Y-217D01*
Y-233D01*
X7750Y-250D01*
X7783D01*
X7800Y-233D01*
X7633Y-150D02*
X7700D01*
Y-200D01*
X7667Y-183D01*
X7650D01*
X7633Y-200D01*
Y-233D01*
X7650Y-250D01*
X7683D01*
X7700Y-233D01*
X7400Y-150D02*
Y-250D01*
X7350D01*
X7333Y-233D01*
Y-167D01*
X7350Y-150D01*
X7400D01*
X7300Y-167D02*
X7283Y-150D01*
X7250D01*
X7233Y-167D01*
Y-183D01*
X7250Y-200D01*
X7267D01*
X7250D01*
X7233Y-217D01*
Y-233D01*
X7250Y-250D01*
X7283D01*
X7300Y-233D01*
X7150Y-250D02*
Y-150D01*
X7200Y-200D01*
X7133D01*
X6500Y-150D02*
Y-250D01*
X6450D01*
X6433Y-233D01*
Y-167D01*
X6450Y-150D01*
X6500D01*
X6400Y-167D02*
X6383Y-150D01*
X6350D01*
X6333Y-167D01*
Y-183D01*
X6350Y-200D01*
X6367D01*
X6350D01*
X6333Y-217D01*
Y-233D01*
X6350Y-250D01*
X6383D01*
X6400Y-233D01*
X6300Y-167D02*
X6283Y-150D01*
X6250D01*
X6233Y-167D01*
Y-183D01*
X6250Y-200D01*
X6267D01*
X6250D01*
X6233Y-217D01*
Y-233D01*
X6250Y-250D01*
X6283D01*
X6300Y-233D01*
X6050Y-150D02*
Y-250D01*
X6000D01*
X5983Y-233D01*
Y-167D01*
X6000Y-150D01*
X6050D01*
X5950Y-167D02*
X5933Y-150D01*
X5900D01*
X5883Y-167D01*
Y-183D01*
X5900Y-200D01*
X5917D01*
X5900D01*
X5883Y-217D01*
Y-233D01*
X5900Y-250D01*
X5933D01*
X5950Y-233D01*
X5783Y-250D02*
X5850D01*
X5783Y-183D01*
Y-167D01*
X5800Y-150D01*
X5833D01*
X5850Y-167D01*
X5500Y-150D02*
Y-250D01*
X5450D01*
X5433Y-233D01*
Y-167D01*
X5450Y-150D01*
X5500D01*
X5400Y-167D02*
X5383Y-150D01*
X5350D01*
X5333Y-167D01*
Y-183D01*
X5350Y-200D01*
X5367D01*
X5350D01*
X5333Y-217D01*
Y-233D01*
X5350Y-250D01*
X5383D01*
X5400Y-233D01*
X5300Y-250D02*
X5267D01*
X5283D01*
Y-150D01*
X5300Y-167D01*
X4100Y-200D02*
Y-300D01*
X4050D01*
X4033Y-283D01*
Y-217D01*
X4050Y-200D01*
X4100D01*
X4000Y-217D02*
X3983Y-200D01*
X3950D01*
X3933Y-217D01*
Y-233D01*
X3950Y-250D01*
X3967D01*
X3950D01*
X3933Y-267D01*
Y-283D01*
X3950Y-300D01*
X3983D01*
X4000Y-283D01*
X3900Y-217D02*
X3883Y-200D01*
X3850D01*
X3833Y-217D01*
Y-283D01*
X3850Y-300D01*
X3883D01*
X3900Y-283D01*
Y-217D01*
X3600Y-200D02*
Y-300D01*
X3550D01*
X3533Y-283D01*
Y-217D01*
X3550Y-200D01*
X3600D01*
X3433Y-300D02*
X3500D01*
X3433Y-233D01*
Y-217D01*
X3450Y-200D01*
X3483D01*
X3500Y-217D01*
X3400Y-283D02*
X3383Y-300D01*
X3350D01*
X3333Y-283D01*
Y-217D01*
X3350Y-200D01*
X3383D01*
X3400Y-217D01*
Y-233D01*
X3383Y-250D01*
X3333D01*
X3100Y-200D02*
Y-300D01*
X3050D01*
X3033Y-283D01*
Y-217D01*
X3050Y-200D01*
X3100D01*
X2933Y-300D02*
X3000D01*
X2933Y-233D01*
Y-217D01*
X2950Y-200D01*
X2983D01*
X3000Y-217D01*
X2900D02*
X2883Y-200D01*
X2850D01*
X2833Y-217D01*
Y-233D01*
X2850Y-250D01*
X2833Y-267D01*
Y-283D01*
X2850Y-300D01*
X2883D01*
X2900Y-283D01*
Y-267D01*
X2883Y-250D01*
X2900Y-233D01*
Y-217D01*
X2883Y-250D02*
X2850D01*
X2100Y-200D02*
Y-300D01*
X2050D01*
X2033Y-283D01*
Y-217D01*
X2050Y-200D01*
X2100D01*
X1933Y-300D02*
X2000D01*
X1933Y-233D01*
Y-217D01*
X1950Y-200D01*
X1983D01*
X2000Y-217D01*
X1900Y-200D02*
X1833D01*
Y-217D01*
X1900Y-283D01*
Y-300D01*
X1600Y-200D02*
Y-300D01*
X1550D01*
X1533Y-283D01*
Y-217D01*
X1550Y-200D01*
X1600D01*
X1433Y-300D02*
X1500D01*
X1433Y-233D01*
Y-217D01*
X1450Y-200D01*
X1483D01*
X1500Y-217D01*
X1333Y-200D02*
X1367Y-217D01*
X1400Y-250D01*
Y-283D01*
X1383Y-300D01*
X1350D01*
X1333Y-283D01*
Y-267D01*
X1350Y-250D01*
X1400D01*
X1100Y-200D02*
Y-300D01*
X1050D01*
X1033Y-283D01*
Y-217D01*
X1050Y-200D01*
X1100D01*
X933Y-300D02*
X1000D01*
X933Y-233D01*
Y-217D01*
X950Y-200D01*
X983D01*
X1000Y-217D01*
X833Y-200D02*
X900D01*
Y-250D01*
X867Y-233D01*
X850D01*
X833Y-250D01*
Y-283D01*
X850Y-300D01*
X883D01*
X900Y-283D01*
D18*
X11775Y-3895D02*
D03*
X11045D02*
D03*
X11775Y-3415D02*
D03*
X11045D02*
D03*
D19*
X3575Y-2350D02*
D03*
X9200D02*
D03*
D20*
X3575Y-2604D02*
D03*
X3829D02*
D03*
X4083Y-2350D02*
D03*
X4337D02*
D03*
X4591D02*
D03*
X4845D02*
D03*
X5099D02*
D03*
X5353D02*
D03*
Y-2604D02*
D03*
X5607D02*
D03*
X9454Y-2350D02*
D03*
X9708D02*
D03*
X9962D02*
D03*
X10216D02*
D03*
X10470D02*
D03*
X10724D02*
D03*
X10978D02*
D03*
D21*
X3829D02*
D03*
X4083Y-2604D02*
D03*
X4337D02*
D03*
X4591D02*
D03*
X4845D02*
D03*
X5099D02*
D03*
X5607Y-2350D02*
D03*
X5861D02*
D03*
Y-2604D02*
D03*
X9200D02*
D03*
X9454D02*
D03*
X9708D02*
D03*
X9962D02*
D03*
X10216D02*
D03*
X10470D02*
D03*
X10724D02*
D03*
X10978D02*
D03*
X11232D02*
D03*
X11486Y-2350D02*
D03*
Y-2604D02*
D03*
D22*
X11232Y-2350D02*
D03*
D23*
X4500Y-600D02*
D03*
X9700Y-3800D02*
D03*
X1500Y-600D02*
D03*
X2000D02*
D03*
X2500D02*
D03*
X3000D02*
D03*
X3500D02*
D03*
X4000D02*
D03*
X5700D02*
D03*
X6200D02*
D03*
X6700D02*
D03*
X7200D02*
D03*
X7700D02*
D03*
X8200D02*
D03*
X8700D02*
D03*
X9200D02*
D03*
X10900D02*
D03*
X11400D02*
D03*
X11900D02*
D03*
X12400D02*
D03*
X12900D02*
D03*
X13400D02*
D03*
X13900D02*
D03*
X14400D02*
D03*
X500D02*
D03*
X14200Y-3250D02*
D03*
X12650Y-2925D02*
D03*
X12650Y-3325D02*
D03*
Y-3150D02*
D03*
X14900Y-600D02*
D03*
X1000D02*
D03*
X4500Y-3800D02*
D03*
X9200Y-3000D02*
D03*
D24*
X11200Y-3600D02*
D03*
X10275Y-3200D02*
D03*
X9800Y-3050D02*
D03*
D25*
X1500Y-1055D02*
D03*
Y-1400D02*
D03*
X2000Y-1055D02*
D03*
Y-1400D02*
D03*
X3000Y-780D02*
D03*
Y-1125D02*
D03*
X3500Y-780D02*
D03*
Y-1125D02*
D03*
X4000Y-780D02*
D03*
Y-1125D02*
D03*
X5400Y-805D02*
D03*
Y-1150D02*
D03*
X5925Y-805D02*
D03*
Y-1150D02*
D03*
X6375Y-805D02*
D03*
Y-1150D02*
D03*
X7300Y-780D02*
D03*
Y-1125D02*
D03*
X7800Y-780D02*
D03*
Y-1125D02*
D03*
X8200Y-780D02*
D03*
Y-1125D02*
D03*
X8700Y-780D02*
D03*
Y-1125D02*
D03*
X9200Y-780D02*
D03*
Y-1125D02*
D03*
X10900Y-780D02*
D03*
Y-1125D02*
D03*
X11400Y-780D02*
D03*
Y-1125D02*
D03*
X11900Y-780D02*
D03*
Y-1125D02*
D03*
X12400Y-780D02*
D03*
Y-1125D02*
D03*
X13400Y-1055D02*
D03*
Y-1400D02*
D03*
X13900Y-1055D02*
D03*
Y-1400D02*
D03*
X14400Y-1055D02*
D03*
Y-1400D02*
D03*
X14900Y-1055D02*
D03*
Y-1400D02*
D03*
X1000Y-1350D02*
D03*
Y-1005D02*
D03*
D26*
X9775Y-3200D02*
D03*
X9605D02*
D03*
X9775Y-3425D02*
D03*
X9605D02*
D03*
D27*
X10640Y-3125D02*
D03*
X10450D02*
D03*
X8010Y-2950D02*
D03*
X8200D02*
D03*
X8010Y-2675D02*
D03*
X8200D02*
D03*
D28*
X10105Y-3525D02*
D03*
X10345Y-3620D02*
D03*
Y-3430D02*
D03*
D29*
X10575Y-3435D02*
D03*
Y-3625D02*
D03*
D30*
X10200Y-700D02*
D03*
X15225Y-1175D02*
D03*
X13075D02*
D03*
X12750Y-900D02*
D03*
X8950Y-1350D02*
D03*
X6700Y-1200D02*
D03*
X4500Y-900D02*
D03*
X2350Y-1375D02*
D03*
D31*
X10200Y-688D02*
D03*
X15225Y-1162D02*
D03*
X13075D02*
D03*
X12750Y-888D02*
D03*
X8950Y-1338D02*
D03*
X6700Y-1188D02*
D03*
X4500Y-888D02*
D03*
X2350Y-1362D02*
D03*
M02*
