%FSLAX42Y42*%
%MOMM*%
G71*
G01*
G75*
G04 Layer_Physical_Order=1*
%ADD10C,0.30*%
%ADD11R,0.50X2.80*%
%ADD12R,2.10X1.30*%
%ADD13R,1.80X1.60*%
%ADD14C,0.40*%
%ADD15C,0.60*%
%ADD16C,0.50*%
%ADD17C,0.25*%
%ADD18C,2.00*%
%ADD19R,1.50X1.50*%
%ADD20O,1.40X1.50*%
%ADD21C,1.50*%
%ADD22C,1.40*%
%ADD23C,1.20*%
%ADD24C,0.90*%
D10*
X3470Y-2070D02*
G03*
X3400Y-2000I-70J0D01*
G01*
X3470Y-2070D02*
G03*
X3400Y-2000I-70J0D01*
G01*
X3470Y-2070D02*
G03*
X3400Y-2000I-70J0D01*
G01*
X3470Y-2070D02*
G03*
X3400Y-2000I-70J0D01*
G01*
X3470Y-2070D02*
G03*
X3400Y-2000I-70J0D01*
G01*
X3470Y-2070D02*
G03*
X3400Y-2000I-70J0D01*
G01*
X5450Y-2021D02*
G03*
X5430Y-2070I50J-49D01*
G01*
X5450Y-2021D02*
G03*
X5430Y-2070I50J-49D01*
G01*
X5450Y-2021D02*
G03*
X5430Y-2070I50J-49D01*
G01*
X5450Y-2021D02*
G03*
X5430Y-2070I50J-49D01*
G01*
X5450Y-2021D02*
G03*
X5430Y-2070I50J-49D01*
G01*
X1615Y-600D02*
G03*
X1425Y-687I-115J0D01*
G01*
X1575D02*
G03*
X1615Y-600I-75J87D01*
G01*
X2075Y-687D02*
G03*
X2115Y-600I-75J87D01*
G01*
G03*
X1925Y-687I-115J0D01*
G01*
X2615Y-600D02*
G03*
X2425Y-687I-115J0D01*
G01*
X2575D02*
G03*
X2615Y-600I-75J87D01*
G01*
X3075Y-687D02*
G03*
X3115Y-600I-75J87D01*
G01*
G03*
X2925Y-687I-115J0D01*
G01*
X3615Y-600D02*
G03*
X3425Y-687I-115J0D01*
G01*
X3575D02*
G03*
X3615Y-600I-75J87D01*
G01*
X4115D02*
G03*
X3925Y-687I-115J0D01*
G01*
X4075D02*
G03*
X4115Y-600I-75J87D01*
G01*
X5815D02*
G03*
X5625Y-687I-115J0D01*
G01*
X5775D02*
G03*
X5815Y-600I-75J87D01*
G01*
X6315D02*
G03*
X6125Y-687I-115J0D01*
G01*
X6275D02*
G03*
X6315Y-600I-75J87D01*
G01*
X6815D02*
G03*
X6625Y-687I-115J0D01*
G01*
X6775D02*
G03*
X6815Y-600I-75J87D01*
G01*
X7315D02*
G03*
X7125Y-687I-115J0D01*
G01*
X7275D02*
G03*
X7315Y-600I-75J87D01*
G01*
X7815D02*
G03*
X7625Y-687I-115J0D01*
G01*
X7775D02*
G03*
X7815Y-600I-75J87D01*
G01*
X9330Y-2070D02*
G03*
X9300Y-2013I-70J0D01*
G01*
X9330Y-2070D02*
G03*
X9300Y-2013I-70J0D01*
G01*
X9330Y-2070D02*
G03*
X9300Y-2013I-70J0D01*
G01*
X9330Y-2070D02*
G03*
X9300Y-2013I-70J0D01*
G01*
X9330Y-2070D02*
G03*
X9300Y-2013I-70J0D01*
G01*
X9330Y-2070D02*
G03*
X9300Y-2013I-70J0D01*
G01*
X10697Y-2477D02*
G03*
X10650Y-2497I27J-127D01*
G01*
X10846Y-2650D02*
G03*
X10851Y-2632I-122J46D01*
G01*
G03*
X10856Y-2650I127J28D01*
G01*
X10851Y-2576D02*
G03*
X10751Y-2477I-127J-28D01*
G01*
X10650Y-2456D02*
G03*
X10697Y-2477I74J101D01*
G01*
X10751D02*
G03*
X10849Y-2355I-27J122D01*
G01*
X10951Y-2477D02*
G03*
X10851Y-2576I27J-127D01*
G01*
X11100Y-2559D02*
G03*
X11005Y-2477I-122J-45D01*
G01*
X10853Y-2355D02*
G03*
X10951Y-2477I125J0D01*
G01*
X11005D02*
G03*
X11100Y-2382I-27J122D01*
G01*
X10849Y-2345D02*
G03*
X10650Y-2244I-125J0D01*
G01*
X11100Y-2318D02*
G03*
X10853Y-2345I-122J-27D01*
G01*
X8315Y-600D02*
G03*
X8125Y-687I-115J0D01*
G01*
X8275D02*
G03*
X8315Y-600I-75J87D01*
G01*
X8815D02*
G03*
X8625Y-687I-115J0D01*
G01*
X8775D02*
G03*
X8815Y-600I-75J87D01*
G01*
X9315D02*
G03*
X9125Y-687I-115J0D01*
G01*
X9275D02*
G03*
X9315Y-600I-75J87D01*
G01*
X11015D02*
G03*
X10825Y-687I-115J0D01*
G01*
X10975D02*
G03*
X11015Y-600I-75J87D01*
G01*
X11515D02*
G03*
X11325Y-687I-115J0D01*
G01*
X11475D02*
G03*
X11515Y-600I-75J87D01*
G01*
X12015D02*
G03*
X11825Y-687I-115J0D01*
G01*
X11975D02*
G03*
X12015Y-600I-75J87D01*
G01*
X12515D02*
G03*
X12325Y-687I-115J0D01*
G01*
X12475D02*
G03*
X12515Y-600I-75J87D01*
G01*
X13015D02*
G03*
X12825Y-687I-115J0D01*
G01*
X12975D02*
G03*
X13015Y-600I-75J87D01*
G01*
X13515D02*
G03*
X13325Y-687I-115J0D01*
G01*
X13475D02*
G03*
X13515Y-600I-75J87D01*
G01*
X14015D02*
G03*
X13825Y-687I-115J0D01*
G01*
X13975D02*
G03*
X14015Y-600I-75J87D01*
G01*
X14515D02*
G03*
X14325Y-687I-115J0D01*
G01*
X14475D02*
G03*
X14515Y-600I-75J87D01*
G01*
X5250Y-2680D02*
G03*
X5478Y-2609I103J71D01*
G01*
X5482D02*
G03*
X5732Y-2618I125J0D01*
G01*
G03*
X5967Y-2679I129J14D01*
G01*
X9161Y-2480D02*
G03*
X9300Y-2687I39J-124D01*
G01*
X3400Y-2200D02*
G03*
X3445Y-2265I70J0D01*
G01*
X3400Y-2200D02*
G03*
X3445Y-2265I70J0D01*
G01*
X5478Y-2599D02*
G03*
X5429Y-2500I-125J0D01*
G01*
X1230Y-1950D02*
G03*
X1300Y-2020I70J0D01*
G01*
X1230Y-1950D02*
G03*
X1300Y-2020I70J0D01*
G01*
X1230Y-1950D02*
G03*
X1300Y-2020I70J0D01*
G01*
X3333D02*
G03*
X3400Y-2070I67J20D01*
G01*
X3333Y-2020D02*
G03*
X3400Y-2070I67J20D01*
G01*
X3333Y-2020D02*
G03*
X3400Y-2070I67J20D01*
G01*
X3333Y-2020D02*
G03*
X3400Y-2070I67J20D01*
G01*
X1230Y-1950D02*
G03*
X1300Y-2020I70J0D01*
G01*
X3333D02*
G03*
X3400Y-2070I67J20D01*
G01*
X3333Y-2020D02*
G03*
X3400Y-2070I67J20D01*
G01*
X3333Y-2020D02*
G03*
X3400Y-2070I67J20D01*
G01*
X5500D02*
G03*
X5520Y-2021I-50J49D01*
G01*
X5500Y-2070D02*
G03*
X5520Y-2021I-50J49D01*
G01*
X615Y-600D02*
G03*
X425Y-687I-115J0D01*
G01*
X575D02*
G03*
X615Y-600I-75J87D01*
G01*
X5580Y-2477D02*
G03*
X5482Y-2599I27J-122D01*
G01*
X5732Y-2590D02*
G03*
X5634Y-2477I-125J-9D01*
G01*
X5500Y-2424D02*
G03*
X5580Y-2477I107J74D01*
G01*
X5634D02*
G03*
X5734Y-2378I-27J127D01*
G01*
X5833Y-2477D02*
G03*
X5732Y-2590I28J-127D01*
G01*
X5734Y-2378D02*
G03*
X5833Y-2477I127J28D01*
G01*
X5500Y-2070D02*
G03*
X5520Y-2021I-50J49D01*
G01*
X5500Y-2070D02*
G03*
X5520Y-2021I-50J49D01*
G01*
X5500Y-2070D02*
G03*
X5520Y-2021I-50J49D01*
G01*
X5734Y-2322D02*
G03*
X5500Y-2276I-127J-28D01*
G01*
X5991Y-2350D02*
G03*
X5734Y-2322I-130J0D01*
G01*
X5967Y-2529D02*
G03*
X5889Y-2477I-106J-75D01*
G01*
X8557Y-2551D02*
G03*
X8504Y-2529I-53J-53D01*
G01*
X8557Y-2551D02*
G03*
X8504Y-2529I-53J-53D01*
G01*
X5889Y-2477D02*
G03*
X5991Y-2350I-28J127D01*
G01*
X9230Y-2020D02*
G03*
X9260Y-2070I70J7D01*
G01*
X9230Y-2020D02*
G03*
X9260Y-2070I70J7D01*
G01*
X9230Y-2020D02*
G03*
X9260Y-2070I70J7D01*
G01*
X9230Y-2020D02*
G03*
X9260Y-2070I70J7D01*
G01*
X9230Y-2020D02*
G03*
X9260Y-2070I70J7D01*
G01*
X9585Y-3791D02*
G03*
X9815Y-3800I115J-9D01*
G01*
G03*
X9691Y-3685I-115J0D01*
G01*
X11200Y-3895D02*
G03*
X11200Y-3895I-155J0D01*
G01*
X11110Y-3556D02*
G03*
X11300Y-3606I90J-44D01*
G01*
X11930Y-3895D02*
G03*
X11930Y-3895I-155J0D01*
G01*
X11303Y-3603D02*
G03*
X11325Y-3550I-53J53D01*
G01*
X11303Y-3603D02*
G03*
X11325Y-3550I-53J53D01*
G01*
X10269Y-3100D02*
G03*
X10375Y-3206I6J-100D01*
G01*
X11170Y-3323D02*
G03*
X11110Y-3556I-125J-92D01*
G01*
X11650Y-3507D02*
G03*
X11930Y-3415I125J92D01*
G01*
X12797Y-3578D02*
G03*
X12850Y-3600I53J53D01*
G01*
X12797Y-3578D02*
G03*
X12850Y-3600I53J53D01*
G01*
X13300D02*
G03*
X13353Y-3578I0J75D01*
G01*
X13300Y-3600D02*
G03*
X13353Y-3578I0J75D01*
G01*
X12575Y-3238D02*
G03*
X12659Y-3440I75J-88D01*
G01*
X11930Y-3415D02*
G03*
X11650Y-3323I-155J0D01*
G01*
X14113Y-3325D02*
G03*
X14315Y-3250I87J75D01*
G01*
X9850Y-2925D02*
G03*
X9797Y-2947I0J-75D01*
G01*
X9794Y-2950D02*
G03*
X9897Y-3075I6J-100D01*
G01*
X9850Y-2925D02*
G03*
X9797Y-2947I0J-75D01*
G01*
X11485Y-3110D02*
G03*
X11463Y-3057I-75J0D01*
G01*
X11485Y-3110D02*
G03*
X11463Y-3057I-75J0D01*
G01*
X11353Y-2947D02*
G03*
X11300Y-2925I-53J-53D01*
G01*
X11353Y-2947D02*
G03*
X11300Y-2925I-53J-53D01*
G01*
X11100Y-2649D02*
G03*
X11105Y-2632I-122J45D01*
G01*
G03*
X11359Y-2632I127J28D01*
G01*
Y-2576D02*
G03*
X11243Y-2474I-127J-28D01*
G01*
X9260Y-2200D02*
G03*
X9263Y-2220I70J0D01*
G01*
X9260Y-2200D02*
G03*
X9263Y-2220I70J0D01*
G01*
X9230Y-2020D02*
G03*
X9260Y-2070I70J7D01*
G01*
X9230Y-2020D02*
G03*
X9260Y-2070I70J7D01*
G01*
X11221Y-2474D02*
G03*
X11170Y-2490I11J-130D01*
G01*
Y-2459D02*
G03*
X11221Y-2474I62J109D01*
G01*
X11243D02*
G03*
X11356Y-2361I-11J124D01*
G01*
Y-2339D02*
G03*
X11170Y-2241I-124J-11D01*
G01*
X11458Y-2477D02*
G03*
X11359Y-2576I28J-127D01*
G01*
Y-2632D02*
G03*
X11616Y-2604I127J28D01*
G01*
G03*
X11514Y-2477I-130J0D01*
G01*
X11356Y-2361D02*
G03*
X11458Y-2477I130J11D01*
G01*
X11514D02*
G03*
X11616Y-2350I-28J127D01*
G01*
G03*
X11356Y-2339I-130J0D01*
G01*
X12385Y-3075D02*
G03*
X12332Y-3097I0J-75D01*
G01*
X12563Y-3225D02*
G03*
X12575Y-3238I87J75D01*
G01*
X12385Y-3075D02*
G03*
X12332Y-3097I0J-75D01*
G01*
X12737Y-3075D02*
G03*
X12563Y-3075I-87J-75D01*
G01*
X12958Y-3097D02*
G03*
X12905Y-3075I-53J-53D01*
G01*
X12958Y-3097D02*
G03*
X12905Y-3075I-53J-53D01*
G01*
X14315Y-3250D02*
G03*
X14113Y-3175I-115J0D01*
G01*
X1370Y-1950D02*
Y-1340D01*
X1400Y-1950D02*
Y-1340D01*
X1430Y-1950D02*
Y-1340D01*
X1460Y-1950D02*
Y-1340D01*
X1490Y-1950D02*
Y-1340D01*
X1520Y-1950D02*
Y-1340D01*
X1550Y-1950D02*
Y-1340D01*
X1580Y-1950D02*
Y-1340D01*
X1610Y-1950D02*
Y-1340D01*
X1640Y-1950D02*
Y-1340D01*
X1355D02*
X1645D01*
X1880Y-1950D02*
Y-1340D01*
X1910Y-1950D02*
Y-1340D01*
X1940Y-1950D02*
Y-1340D01*
X1970Y-1950D02*
Y-1340D01*
X2000Y-1950D02*
Y-1340D01*
X1300Y-1950D02*
X3333D01*
X1300D02*
X3333D01*
X2030D02*
Y-1340D01*
X1300Y-1950D02*
X3333D01*
X2060D02*
Y-1340D01*
X2090Y-1950D02*
Y-1340D01*
X2120Y-1950D02*
Y-1340D01*
X2360Y-1950D02*
Y-1340D01*
X2390Y-1950D02*
Y-1340D01*
X2420Y-1950D02*
Y-1340D01*
X2450Y-1950D02*
Y-1340D01*
X2480Y-1950D02*
Y-1340D01*
X2510Y-1950D02*
Y-1340D01*
X2540Y-1950D02*
Y-1340D01*
X2570Y-1950D02*
Y-1340D01*
X2600Y-1950D02*
Y-1340D01*
X2630Y-1950D02*
Y-1340D01*
X1300Y-1320D02*
X1355D01*
X1300Y-1290D02*
X1355D01*
X1300Y-1260D02*
X1355D01*
X1300Y-1230D02*
X1355D01*
X1645Y-1320D02*
X1855D01*
X1645Y-1290D02*
X1855D01*
X1645Y-1260D02*
X1855D01*
X1645Y-1230D02*
X1855D01*
X1300Y-1200D02*
X1355D01*
X1300Y-1170D02*
X1355D01*
X1300Y-1140D02*
X1355D01*
X1645Y-1200D02*
X1855D01*
X1645Y-1170D02*
X1855D01*
Y-1340D02*
X2145D01*
Y-1320D02*
X2355D01*
X2145Y-1290D02*
X2355D01*
Y-1340D02*
X2645D01*
Y-1320D02*
X2855D01*
X2145Y-1260D02*
X2355D01*
X2145Y-1230D02*
X2355D01*
X1645Y-1140D02*
X1855D01*
X2145Y-1200D02*
X2355D01*
X2145Y-1170D02*
X2355D01*
X2145Y-1140D02*
X2355D01*
X2870Y-1950D02*
Y-1340D01*
X3470Y-2200D02*
Y-2070D01*
X3400Y-2000D02*
Y-1950D01*
X2900D02*
Y-1340D01*
X2930Y-1950D02*
Y-1340D01*
X2960Y-1950D02*
Y-1340D01*
X2990Y-1950D02*
Y-1340D01*
X3410Y-2001D02*
Y-1340D01*
X3440Y-2013D02*
Y-1340D01*
X3020Y-1950D02*
Y-1340D01*
X3050Y-1950D02*
Y-1340D01*
X3500Y-2200D02*
Y-1340D01*
X3530Y-2200D02*
Y-1340D01*
X3470Y-2068D02*
Y-1340D01*
X3560Y-2200D02*
Y-1340D01*
X3590Y-2200D02*
Y-1340D01*
X3620Y-2200D02*
Y-1340D01*
X3860Y-2200D02*
Y-1340D01*
X3890Y-2200D02*
Y-1340D01*
X3920Y-2200D02*
Y-1340D01*
X3950Y-2200D02*
Y-1340D01*
X3980Y-2200D02*
Y-1340D01*
X4010Y-2200D02*
Y-1340D01*
X4040Y-2200D02*
Y-1340D01*
X4070Y-2200D02*
Y-1340D01*
X4100Y-2200D02*
Y-1340D01*
X4130Y-2200D02*
Y-1340D01*
X3080Y-1950D02*
Y-1340D01*
X2855D02*
X3145D01*
X2645Y-1290D02*
X2855D01*
X2645Y-1260D02*
X2855D01*
X3110Y-1950D02*
Y-1340D01*
X3140Y-1950D02*
Y-1340D01*
X3145Y-1320D02*
X3355D01*
X3145Y-1290D02*
X3355D01*
X2645Y-1230D02*
X2855D01*
X2645Y-1200D02*
X2855D01*
X2645Y-1170D02*
X2855D01*
X3145Y-1260D02*
X3355D01*
X3145Y-1230D02*
X3355D01*
X3380Y-1950D02*
Y-1340D01*
X3333Y-1950D02*
X3400D01*
X3355Y-1340D02*
X3645D01*
Y-1320D02*
X3855D01*
X3645Y-1290D02*
X3855D01*
X3645Y-1260D02*
X3855D01*
X3645Y-1230D02*
X3855D01*
X3145Y-1200D02*
X3355D01*
X3145Y-1170D02*
X3355D01*
X3645Y-1200D02*
X3855D01*
X3645Y-1170D02*
X3855D01*
X1300Y-1950D02*
Y-55D01*
X1310Y-1950D02*
Y-55D01*
X1300Y-1110D02*
X1355D01*
X1300Y-1080D02*
X1355D01*
Y-1340D02*
Y-1070D01*
X1645Y-1340D02*
Y-1070D01*
X1855Y-1340D02*
Y-1070D01*
X1340Y-1950D02*
Y-55D01*
X1670Y-1950D02*
Y-55D01*
X1700Y-1950D02*
Y-55D01*
X1730Y-1950D02*
Y-55D01*
X1760Y-1950D02*
Y-55D01*
X1790Y-1950D02*
Y-55D01*
X1820Y-1950D02*
Y-55D01*
X1850Y-1950D02*
Y-55D01*
X1645Y-1110D02*
X1855D01*
X1645Y-1080D02*
X1855D01*
X2145Y-1110D02*
X2355D01*
X2645Y-1140D02*
X2855D01*
X2145Y-1080D02*
X2355D01*
X2645Y-1110D02*
X2855D01*
X2150Y-1950D02*
Y-55D01*
X2180Y-1950D02*
Y-55D01*
X2145Y-1340D02*
Y-1070D01*
X2210Y-1950D02*
Y-55D01*
X2240Y-1950D02*
Y-55D01*
X2270Y-1950D02*
Y-55D01*
X2300Y-1950D02*
Y-55D01*
X2355Y-1340D02*
Y-1070D01*
X2330Y-1950D02*
Y-55D01*
X1370Y-1070D02*
Y-1060D01*
X1355Y-1070D02*
X1645D01*
X1400D02*
Y-1060D01*
X1430Y-1070D02*
Y-1060D01*
X1460Y-1070D02*
Y-1060D01*
X1490Y-1070D02*
Y-1060D01*
X1520Y-1070D02*
Y-1060D01*
X1550Y-1070D02*
Y-1060D01*
X1580Y-1070D02*
Y-1060D01*
X1610Y-1070D02*
Y-1060D01*
X1640Y-1070D02*
Y-1060D01*
X1880Y-1070D02*
Y-1060D01*
X1910Y-1070D02*
Y-1060D01*
X1940Y-1070D02*
Y-1060D01*
X1970Y-1070D02*
Y-1060D01*
X2000Y-1070D02*
Y-1060D01*
X2030Y-1070D02*
Y-1060D01*
X1855Y-1070D02*
X2145D01*
X2060D02*
Y-1060D01*
X2090Y-1070D02*
Y-1060D01*
X2120Y-1070D02*
Y-1060D01*
X2645Y-1080D02*
X2855D01*
X2360Y-1070D02*
Y-1060D01*
X2355Y-1070D02*
X2645D01*
X2390D02*
Y-1060D01*
X2420Y-1070D02*
Y-1060D01*
X2450Y-1070D02*
Y-1060D01*
X2480Y-1070D02*
Y-1060D01*
X2510Y-1070D02*
Y-1060D01*
X2540Y-1070D02*
Y-1060D01*
X2570Y-1070D02*
Y-1060D01*
X2600Y-1070D02*
Y-1060D01*
X2630Y-1070D02*
Y-1060D01*
X2660Y-1950D02*
Y-55D01*
X2690Y-1950D02*
Y-55D01*
X2645Y-1340D02*
Y-1070D01*
X2720Y-1950D02*
Y-55D01*
X2750Y-1950D02*
Y-55D01*
X2855Y-1340D02*
Y-1070D01*
X3145Y-1340D02*
Y-1070D01*
X2780Y-1950D02*
Y-55D01*
X2810Y-1950D02*
Y-55D01*
X2840Y-1950D02*
Y-55D01*
X3170Y-1950D02*
Y-55D01*
X3200Y-1950D02*
Y-55D01*
X3230Y-1950D02*
Y-55D01*
X3260Y-1950D02*
Y-55D01*
X3290Y-1950D02*
Y-55D01*
X3355Y-1340D02*
Y-1070D01*
X3145Y-1140D02*
X3355D01*
X3145Y-1110D02*
X3355D01*
X3645Y-1340D02*
Y-1070D01*
X3855Y-1340D02*
Y-1070D01*
X3645Y-1140D02*
X3855D01*
X3650Y-2200D02*
Y-55D01*
X3680Y-2200D02*
Y-55D01*
X3320Y-1950D02*
Y-55D01*
X3350Y-1950D02*
Y-55D01*
X3710Y-2200D02*
Y-55D01*
X3740Y-2200D02*
Y-55D01*
X3770Y-2200D02*
Y-55D01*
X3800Y-2200D02*
Y-55D01*
X3830Y-2200D02*
Y-55D01*
X2870Y-1070D02*
Y-1060D01*
X2855Y-1070D02*
X3145D01*
X2900D02*
Y-1060D01*
X2930Y-1070D02*
Y-1060D01*
X2960Y-1070D02*
Y-1060D01*
X3145Y-1080D02*
X3355D01*
X2990Y-1070D02*
Y-1060D01*
X3020Y-1070D02*
Y-1060D01*
X3050Y-1070D02*
Y-1060D01*
X3080Y-1070D02*
Y-1060D01*
X3110Y-1070D02*
Y-1060D01*
X3140Y-1070D02*
Y-1060D01*
X3380Y-1070D02*
Y-1060D01*
X3410Y-1070D02*
Y-1060D01*
X3440Y-1070D02*
Y-1060D01*
X3470Y-1070D02*
Y-1060D01*
X3500Y-1070D02*
Y-1060D01*
X3355Y-1070D02*
X3645D01*
X3530D02*
Y-1060D01*
X3560Y-1070D02*
Y-1060D01*
X3645Y-1110D02*
X3855D01*
X3645Y-1080D02*
X3855D01*
X3590Y-1070D02*
Y-1060D01*
X3620Y-1070D02*
Y-1060D01*
X3860Y-1070D02*
Y-1060D01*
X3890Y-1070D02*
Y-1060D01*
X3920Y-1070D02*
Y-1060D01*
X3950Y-1070D02*
Y-1060D01*
X3980Y-1070D02*
Y-1060D01*
X4010Y-1070D02*
Y-1060D01*
X4040Y-1070D02*
Y-1060D01*
X4070Y-1070D02*
Y-1060D01*
X4100Y-1070D02*
Y-1060D01*
X3470Y-2200D02*
X5430D01*
X3470Y-2190D02*
X5430D01*
X3470Y-2160D02*
X5430D01*
X3463Y-2040D02*
X5437D01*
X5430Y-2200D02*
Y-2070D01*
X3470Y-2130D02*
X5430D01*
X3470Y-2100D02*
X5430D01*
X3470Y-2070D02*
X5430D01*
X3436Y-2010D02*
X5450D01*
X3400Y-1980D02*
X5450D01*
Y-2020D02*
Y-1950D01*
X3400Y-1950D02*
X5450D01*
Y-1950D02*
X5520D01*
X1300Y-1920D02*
X15445D01*
X1300Y-1890D02*
X15445D01*
X5520Y-1950D02*
X9230D01*
X5520D02*
X9230D01*
X5570D02*
Y-1340D01*
X5520Y-1950D02*
X9230D01*
X5600D02*
Y-1340D01*
X5630Y-1950D02*
Y-1340D01*
X5660Y-1950D02*
Y-1340D01*
X5690Y-1950D02*
Y-1340D01*
X5720Y-1950D02*
Y-1340D01*
X5750Y-1950D02*
Y-1340D01*
X5780Y-1950D02*
Y-1340D01*
X5810Y-1950D02*
Y-1340D01*
X5840Y-1950D02*
Y-1340D01*
X3855D02*
X4145D01*
X1300Y-1860D02*
X15445D01*
X4145Y-1320D02*
X5555D01*
X4145Y-1290D02*
X5555D01*
Y-1340D02*
X5845D01*
X6055D02*
X6345D01*
X5845Y-1320D02*
X6055D01*
X5845Y-1290D02*
X6055D01*
X4145Y-1260D02*
X5555D01*
X4145Y-1230D02*
X5555D01*
X5845Y-1260D02*
X6055D01*
X5845Y-1230D02*
X6055D01*
X1300Y-1830D02*
X15445D01*
X1300Y-1800D02*
X15445D01*
X1300Y-1770D02*
X15445D01*
X1300Y-1740D02*
X15445D01*
X1300Y-1710D02*
X15445D01*
X1300Y-1680D02*
X15445D01*
X1300Y-1650D02*
X15445D01*
X1300Y-1620D02*
X15445D01*
X1300Y-1590D02*
X15445D01*
X1300Y-1560D02*
X15445D01*
X1300Y-1530D02*
X15445D01*
X1300Y-1500D02*
X15445D01*
X1300Y-1470D02*
X15445D01*
X1300Y-1440D02*
X15445D01*
X1300Y-1410D02*
X15445D01*
X1300Y-1380D02*
X15445D01*
X1300Y-1350D02*
X15445D01*
X6080Y-1950D02*
Y-1340D01*
X6110Y-1950D02*
Y-1340D01*
X6140Y-1950D02*
Y-1340D01*
X6170Y-1950D02*
Y-1340D01*
X6200Y-1950D02*
Y-1340D01*
X6230Y-1950D02*
Y-1340D01*
X6260Y-1950D02*
Y-1340D01*
X6290Y-1950D02*
Y-1340D01*
X6320Y-1950D02*
Y-1340D01*
X6560Y-1950D02*
Y-1340D01*
X6590Y-1950D02*
Y-1340D01*
X6620Y-1950D02*
Y-1340D01*
X6650Y-1950D02*
Y-1340D01*
X6680Y-1950D02*
Y-1340D01*
X6710Y-1950D02*
Y-1340D01*
X6740Y-1950D02*
Y-1340D01*
X6770Y-1950D02*
Y-1340D01*
X6800Y-1950D02*
Y-1340D01*
X6830Y-1950D02*
Y-1340D01*
X7070Y-1950D02*
Y-1340D01*
X7100Y-1950D02*
Y-1340D01*
X7130Y-1950D02*
Y-1340D01*
X7160Y-1950D02*
Y-1340D01*
X7190Y-1950D02*
Y-1340D01*
X7220Y-1950D02*
Y-1340D01*
X7250Y-1950D02*
Y-1340D01*
X7280Y-1950D02*
Y-1340D01*
X7310Y-1950D02*
Y-1340D01*
X7340Y-1950D02*
Y-1340D01*
X7580Y-1950D02*
Y-1340D01*
X7610Y-1950D02*
Y-1340D01*
X7640Y-1950D02*
Y-1340D01*
X7670Y-1950D02*
Y-1340D01*
X6345Y-1320D02*
X6555D01*
X6345Y-1290D02*
X6555D01*
X6345Y-1260D02*
X6555D01*
X6345Y-1230D02*
X6555D01*
Y-1340D02*
X6845D01*
Y-1320D02*
X7055D01*
X6845Y-1290D02*
X7055D01*
X6845Y-1260D02*
X7055D01*
X6845Y-1230D02*
X7055D01*
Y-1340D02*
X7345D01*
X7700Y-1950D02*
Y-1340D01*
X7345Y-1320D02*
X7555D01*
Y-1340D02*
X7845D01*
X7730Y-1950D02*
Y-1340D01*
X7760Y-1950D02*
Y-1340D01*
X7790Y-1950D02*
Y-1340D01*
X7820Y-1950D02*
Y-1340D01*
X7345Y-1290D02*
X7555D01*
X7345Y-1260D02*
X7555D01*
X7345Y-1230D02*
X7555D01*
X7845Y-1320D02*
X8055D01*
X7845Y-1290D02*
X8055D01*
X7845Y-1260D02*
X8055D01*
X7845Y-1230D02*
X8055D01*
X4160Y-2200D02*
Y-55D01*
X4190Y-2200D02*
Y-55D01*
X4220Y-2200D02*
Y-55D01*
X4250Y-2200D02*
Y-55D01*
X4280Y-2200D02*
Y-55D01*
X4310Y-2200D02*
Y-55D01*
X4340Y-2200D02*
Y-55D01*
X4370Y-2200D02*
Y-55D01*
X4400Y-2200D02*
Y-55D01*
X4430Y-2200D02*
Y-55D01*
X4460Y-2200D02*
Y-55D01*
X4490Y-2200D02*
Y-55D01*
X4520Y-2200D02*
Y-55D01*
X4550Y-2200D02*
Y-55D01*
X4580Y-2200D02*
Y-55D01*
X4610Y-2200D02*
Y-55D01*
X4640Y-2200D02*
Y-55D01*
X4670Y-2200D02*
Y-55D01*
X4700Y-2200D02*
Y-55D01*
X4730Y-2200D02*
Y-55D01*
X4760Y-2200D02*
Y-55D01*
X4790Y-2200D02*
Y-55D01*
X4820Y-2200D02*
Y-55D01*
X4850Y-2200D02*
Y-55D01*
X4880Y-2200D02*
Y-55D01*
X4910Y-2200D02*
Y-55D01*
X4940Y-2200D02*
Y-55D01*
X4970Y-2200D02*
Y-55D01*
X5000Y-2200D02*
Y-55D01*
X5030Y-2200D02*
Y-55D01*
X5060Y-2200D02*
Y-55D01*
X5090Y-2200D02*
Y-55D01*
X5120Y-2200D02*
Y-55D01*
X4145Y-1340D02*
Y-1070D01*
X5150Y-2200D02*
Y-55D01*
X4130Y-1070D02*
Y-1060D01*
X3855Y-1070D02*
X4145D01*
X5180Y-2200D02*
Y-55D01*
X5210Y-2200D02*
Y-55D01*
X5240Y-2200D02*
Y-55D01*
X5270Y-2200D02*
Y-55D01*
X5300Y-2200D02*
Y-55D01*
X5330Y-2200D02*
Y-55D01*
X5360Y-2200D02*
Y-55D01*
X5390Y-2200D02*
Y-55D01*
X5420Y-2200D02*
Y-55D01*
X5450Y-2021D02*
Y-55D01*
X5480Y-1950D02*
Y-55D01*
X5510Y-1950D02*
Y-55D01*
X4145Y-1200D02*
X5555D01*
X4145Y-1170D02*
X5555D01*
X4145Y-1140D02*
X5555D01*
X4145Y-1110D02*
X5555D01*
X5845Y-1200D02*
X6055D01*
X5845Y-1170D02*
X6055D01*
X5845Y-1140D02*
X6055D01*
X5845Y-1110D02*
X6055D01*
X5540Y-1950D02*
Y-55D01*
X5555Y-1340D02*
Y-1070D01*
X4145Y-1080D02*
X5555D01*
Y-1070D02*
X5845D01*
Y-1340D02*
Y-1070D01*
X5870Y-1950D02*
Y-55D01*
X5570Y-1070D02*
Y-1060D01*
X5845Y-1080D02*
X6055D01*
X5900Y-1950D02*
Y-55D01*
X5930Y-1950D02*
Y-55D01*
X5960Y-1950D02*
Y-55D01*
X5990Y-1950D02*
Y-55D01*
X6020Y-1950D02*
Y-55D01*
X6050Y-1950D02*
Y-55D01*
X6350Y-1950D02*
Y-55D01*
X6380Y-1950D02*
Y-55D01*
X6410Y-1950D02*
Y-55D01*
X6440Y-1950D02*
Y-55D01*
X6470Y-1950D02*
Y-55D01*
X6500Y-1950D02*
Y-55D01*
X6530Y-1950D02*
Y-55D01*
X6860Y-1950D02*
Y-55D01*
X6890Y-1950D02*
Y-55D01*
X6920Y-1950D02*
Y-55D01*
X6950Y-1950D02*
Y-55D01*
X6980Y-1950D02*
Y-55D01*
X7010Y-1950D02*
Y-55D01*
X7040Y-1950D02*
Y-55D01*
X7370Y-1950D02*
Y-55D01*
X7400Y-1950D02*
Y-55D01*
X7430Y-1950D02*
Y-55D01*
X7460Y-1950D02*
Y-55D01*
X7490Y-1950D02*
Y-55D01*
X7520Y-1950D02*
Y-55D01*
X7550Y-1950D02*
Y-55D01*
X7850Y-1950D02*
Y-55D01*
X7880Y-1950D02*
Y-55D01*
X7910Y-1950D02*
Y-55D01*
X7940Y-1950D02*
Y-55D01*
X7970Y-1950D02*
Y-55D01*
X8000Y-1950D02*
Y-55D01*
X6345Y-1200D02*
X6555D01*
X6345Y-1170D02*
X6555D01*
X6345Y-1140D02*
X6555D01*
X6345Y-1110D02*
X6555D01*
X6845Y-1200D02*
X7055D01*
X6845Y-1170D02*
X7055D01*
X6845Y-1140D02*
X7055D01*
X6845Y-1110D02*
X7055D01*
X6055Y-1340D02*
Y-1070D01*
X6345Y-1340D02*
Y-1070D01*
Y-1080D02*
X6555D01*
Y-1340D02*
Y-1070D01*
X6845Y-1340D02*
Y-1070D01*
Y-1080D02*
X7055D01*
Y-1340D02*
Y-1070D01*
X7345Y-1200D02*
X7555D01*
X7345Y-1170D02*
X7555D01*
X7345Y-1140D02*
X7555D01*
X7845Y-1200D02*
X8055D01*
X7845Y-1170D02*
X8055D01*
X7845Y-1140D02*
X8055D01*
X7345Y-1340D02*
Y-1070D01*
Y-1110D02*
X7555D01*
X7345Y-1080D02*
X7555D01*
Y-1340D02*
Y-1070D01*
X7845Y-1340D02*
Y-1070D01*
Y-1110D02*
X8055D01*
X7845Y-1080D02*
X8055D01*
X1300Y-1050D02*
X1355D01*
X1300Y-1020D02*
X1355D01*
X1300Y-990D02*
X1355D01*
X1300Y-960D02*
X1355D01*
Y-1060D02*
X1645D01*
Y-1050D02*
X1855D01*
X1645Y-1020D02*
X1855D01*
X1645Y-990D02*
X1855D01*
X1300Y-930D02*
X1355D01*
X1300Y-900D02*
X1355D01*
X1300Y-870D02*
X1355D01*
X1300Y-840D02*
X1355D01*
Y-1060D02*
Y-790D01*
X1645Y-1060D02*
Y-790D01*
X1855Y-1060D02*
Y-790D01*
X1645Y-960D02*
X1855D01*
Y-1060D02*
X2145D01*
Y-1050D02*
X2355D01*
X1645Y-930D02*
X1855D01*
X2145Y-1020D02*
X2355D01*
Y-1060D02*
X2645D01*
Y-1050D02*
X2855D01*
X2145Y-990D02*
X2355D01*
X2145Y-960D02*
X2355D01*
X1645Y-900D02*
X1855D01*
X2145Y-930D02*
X2355D01*
X1645Y-870D02*
X1855D01*
X1645Y-840D02*
X1855D01*
X2145Y-1060D02*
Y-790D01*
X2355Y-1060D02*
Y-790D01*
X2145Y-900D02*
X2355D01*
X2145Y-870D02*
X2355D01*
X2145Y-840D02*
X2355D01*
X1300Y-810D02*
X1355D01*
Y-790D02*
X1425D01*
X1300Y-780D02*
X1425D01*
X1300Y-750D02*
X1425D01*
X1575Y-790D02*
X1645D01*
Y-810D02*
X1855D01*
Y-790D02*
X1925D01*
X1575Y-780D02*
X1925D01*
X1425Y-790D02*
Y-687D01*
X1575Y-750D02*
X1925D01*
X1300Y-720D02*
X1425D01*
X1300Y-690D02*
X1425D01*
X1575Y-790D02*
Y-687D01*
X1580Y-790D02*
Y-683D01*
X1925Y-790D02*
Y-687D01*
X1575Y-720D02*
X1925D01*
X2075Y-790D02*
X2145D01*
Y-810D02*
X2355D01*
X2075Y-780D02*
X2425D01*
X2075Y-750D02*
X2425D01*
X2355Y-790D02*
X2425D01*
X2575D02*
X2645D01*
X2575Y-780D02*
X2925D01*
X2575Y-750D02*
X2925D01*
X2075Y-790D02*
Y-687D01*
Y-720D02*
X2425D01*
X1575Y-690D02*
X1925D01*
X2075D02*
X2425D01*
X2420Y-790D02*
Y-683D01*
X2425Y-790D02*
Y-687D01*
X2575Y-790D02*
Y-687D01*
Y-720D02*
X2925D01*
X2575Y-690D02*
X2925D01*
X2645Y-1020D02*
X2855D01*
Y-1060D02*
X3145D01*
X2645Y-990D02*
X2855D01*
X2645Y-960D02*
X2855D01*
X3145Y-1050D02*
X3355D01*
X3145Y-1020D02*
X3355D01*
X3145Y-990D02*
X3355D01*
X3145Y-960D02*
X3355D01*
X2645Y-1060D02*
Y-790D01*
X2855Y-1060D02*
Y-790D01*
X2645Y-930D02*
X2855D01*
X2645Y-900D02*
X2855D01*
X3145Y-1060D02*
Y-790D01*
X3355Y-1060D02*
Y-790D01*
X3145Y-930D02*
X3355D01*
X3145Y-900D02*
X3355D01*
Y-1060D02*
X3645D01*
Y-1050D02*
X3855D01*
X3645Y-1020D02*
X3855D01*
X3645Y-990D02*
X3855D01*
Y-1060D02*
X4145D01*
X5600Y-1070D02*
Y-1060D01*
X4145Y-1050D02*
X5555D01*
X4145Y-1020D02*
X5555D01*
X3645Y-1060D02*
Y-790D01*
X3855Y-1060D02*
Y-790D01*
X3645Y-960D02*
X3855D01*
X3645Y-930D02*
X3855D01*
X4145Y-1060D02*
Y-790D01*
X5555Y-1060D02*
Y-790D01*
X4145Y-990D02*
X5555D01*
X4145Y-960D02*
X5555D01*
X4145Y-930D02*
X5555D01*
X2645Y-870D02*
X2855D01*
X2645Y-840D02*
X2855D01*
X2645Y-810D02*
X2855D01*
Y-790D02*
X2925D01*
X3145Y-870D02*
X3355D01*
X3145Y-840D02*
X3355D01*
X3075Y-790D02*
X3145D01*
Y-810D02*
X3355D01*
X2925Y-790D02*
Y-687D01*
X3075Y-780D02*
X3425D01*
X3075Y-750D02*
X3425D01*
X3075Y-720D02*
X3425D01*
X3075Y-790D02*
Y-687D01*
X3080Y-790D02*
Y-683D01*
X3355Y-790D02*
X3425D01*
Y-687D01*
X3645Y-900D02*
X3855D01*
X3645Y-870D02*
X3855D01*
X3645Y-840D02*
X3855D01*
X3645Y-810D02*
X3855D01*
X4145Y-900D02*
X5555D01*
X4145Y-870D02*
X5555D01*
X4145Y-840D02*
X5555D01*
X4145Y-810D02*
X5555D01*
X3575Y-790D02*
X3645D01*
X3575Y-780D02*
X3925D01*
X3075Y-690D02*
X3425D01*
X3575Y-750D02*
X3925D01*
X3855Y-790D02*
X3925D01*
X4075D02*
X4145D01*
X3575Y-720D02*
X3925D01*
X5555Y-790D02*
X5625D01*
X4075Y-780D02*
X5625D01*
X1400Y-790D02*
Y-657D01*
X1300Y-660D02*
X1402D01*
X1300Y-600D02*
X1385D01*
X1300Y-630D02*
X1389D01*
X1610Y-790D02*
Y-634D01*
X1910Y-790D02*
Y-672D01*
X1611Y-630D02*
X1889D01*
X1598Y-660D02*
X1902D01*
X1370Y-790D02*
Y-55D01*
X1300Y-570D02*
X1389D01*
X1640Y-790D02*
Y-55D01*
X1880Y-790D02*
Y-55D01*
X1615Y-600D02*
X1885D01*
X1611Y-570D02*
X1889D01*
X2090Y-790D02*
Y-672D01*
X2111Y-630D02*
X2389D01*
X2098Y-660D02*
X2402D01*
X2390Y-790D02*
Y-633D01*
X2600Y-790D02*
Y-657D01*
X2611Y-630D02*
X2889D01*
X2598Y-660D02*
X2902D01*
X2120Y-790D02*
Y-55D01*
X2360Y-790D02*
Y-55D01*
X2115Y-600D02*
X2385D01*
X2630Y-790D02*
Y-55D01*
X2870Y-790D02*
Y-55D01*
X2615Y-600D02*
X2885D01*
X1300Y-540D02*
X1402D01*
X1400Y-543D02*
Y-55D01*
X1300Y-510D02*
X1428D01*
X1430Y-509D02*
Y-55D01*
X1598Y-540D02*
X1902D01*
X1572Y-510D02*
X1928D01*
X1460Y-492D02*
Y-55D01*
X1490Y-485D02*
Y-55D01*
X1580Y-517D02*
Y-55D01*
X1610Y-566D02*
Y-55D01*
X1520Y-487D02*
Y-55D01*
X1550Y-496D02*
Y-55D01*
X1910Y-528D02*
Y-55D01*
X1940Y-502D02*
Y-55D01*
X1970Y-489D02*
Y-55D01*
X2000Y-485D02*
Y-55D01*
X2098Y-540D02*
X2402D01*
X2072Y-510D02*
X2428D01*
X2030Y-489D02*
Y-55D01*
X2060Y-502D02*
Y-55D01*
X2111Y-570D02*
X2389D01*
X2611D02*
X2889D01*
X2598Y-540D02*
X2902D01*
X2572Y-510D02*
X2928D01*
X2090Y-528D02*
Y-55D01*
X2390Y-567D02*
Y-55D01*
X2420Y-517D02*
Y-55D01*
X2450Y-496D02*
Y-55D01*
X2570Y-509D02*
Y-55D01*
X2600Y-543D02*
Y-55D01*
X2480Y-487D02*
Y-55D01*
X2510Y-485D02*
Y-55D01*
X2540Y-492D02*
Y-55D01*
X2900Y-790D02*
Y-657D01*
X3110Y-790D02*
Y-634D01*
X3098Y-660D02*
X3402D01*
X3410Y-790D02*
Y-672D01*
X3575Y-790D02*
Y-687D01*
X3111Y-630D02*
X3389D01*
X3590Y-790D02*
Y-672D01*
X3140Y-790D02*
Y-55D01*
X3380Y-790D02*
Y-55D01*
X3115Y-600D02*
X3385D01*
X3620Y-790D02*
Y-55D01*
X3860Y-790D02*
Y-55D01*
X3920Y-790D02*
Y-683D01*
X3925Y-790D02*
Y-687D01*
X3598Y-660D02*
X3902D01*
X3575Y-690D02*
X3925D01*
X4075Y-790D02*
Y-687D01*
X4100Y-790D02*
Y-657D01*
X4098Y-660D02*
X5602D01*
X5625Y-790D02*
Y-687D01*
X3890Y-790D02*
Y-633D01*
X3615Y-600D02*
X3885D01*
X3611Y-630D02*
X3889D01*
X4130Y-790D02*
Y-55D01*
X5570Y-790D02*
Y-55D01*
X5600Y-790D02*
Y-657D01*
X4111Y-630D02*
X5589D01*
X2900Y-543D02*
Y-55D01*
X2930Y-509D02*
Y-55D01*
X2960Y-492D02*
Y-55D01*
X2990Y-485D02*
Y-55D01*
X3111Y-570D02*
X3389D01*
X3098Y-540D02*
X3402D01*
X3020Y-487D02*
Y-55D01*
X3072Y-510D02*
X3428D01*
X3110Y-566D02*
Y-55D01*
X3410Y-528D02*
Y-55D01*
X3050Y-496D02*
Y-55D01*
X3080Y-517D02*
Y-55D01*
X3440Y-502D02*
Y-55D01*
X3470Y-489D02*
Y-55D01*
X3500Y-485D02*
Y-55D01*
X3530Y-489D02*
Y-55D01*
X3590Y-528D02*
Y-55D01*
X3598Y-540D02*
X3902D01*
X3560Y-502D02*
Y-55D01*
X3572Y-510D02*
X3928D01*
X3611Y-570D02*
X3889D01*
X4115Y-600D02*
X5585D01*
X4111Y-570D02*
X5589D01*
X4098Y-540D02*
X5602D01*
X3890Y-567D02*
Y-55D01*
X3920Y-517D02*
Y-55D01*
X3950Y-496D02*
Y-55D01*
X3980Y-487D02*
Y-55D01*
X4100Y-543D02*
Y-55D01*
X5600Y-543D02*
Y-55D01*
X4010Y-485D02*
Y-55D01*
X4040Y-492D02*
Y-55D01*
X4070Y-509D02*
Y-55D01*
X5630Y-1070D02*
Y-1060D01*
X5660Y-1070D02*
Y-1060D01*
X5690Y-1070D02*
Y-1060D01*
X5720Y-1070D02*
Y-1060D01*
X5750Y-1070D02*
Y-1060D01*
X5780Y-1070D02*
Y-1060D01*
X5810Y-1070D02*
Y-1060D01*
X5840Y-1070D02*
Y-1060D01*
X5555D02*
X5845D01*
X6080Y-1070D02*
Y-1060D01*
X5845D02*
Y-790D01*
X6055Y-1060D02*
Y-790D01*
X6110Y-1070D02*
Y-1060D01*
X6140Y-1070D02*
Y-1060D01*
X6170Y-1070D02*
Y-1060D01*
X6200Y-1070D02*
Y-1060D01*
X6230Y-1070D02*
Y-1060D01*
X6055Y-1070D02*
X6345D01*
X6260D02*
Y-1060D01*
X6055D02*
X6345D01*
X6290Y-1070D02*
Y-1060D01*
X6320Y-1070D02*
Y-1060D01*
X6560Y-1070D02*
Y-1060D01*
X6555Y-1070D02*
X6845D01*
X6590D02*
Y-1060D01*
X6620Y-1070D02*
Y-1060D01*
X6345D02*
Y-790D01*
X6555Y-1060D02*
X6845D01*
X6650Y-1070D02*
Y-1060D01*
X6680Y-1070D02*
Y-1060D01*
X6710Y-1070D02*
Y-1060D01*
X6740Y-1070D02*
Y-1060D01*
X6770Y-1070D02*
Y-1060D01*
X5845Y-1050D02*
X6055D01*
X5845Y-1020D02*
X6055D01*
X5845Y-990D02*
X6055D01*
X5845Y-960D02*
X6055D01*
X5845Y-930D02*
X6055D01*
X5845Y-900D02*
X6055D01*
X5845Y-870D02*
X6055D01*
X5845Y-840D02*
X6055D01*
X5775Y-790D02*
X5845D01*
X5775Y-780D02*
X6125D01*
X4075Y-750D02*
X5625D01*
X4075Y-720D02*
X5625D01*
X5845Y-810D02*
X6055D01*
Y-790D02*
X6125D01*
X5775Y-750D02*
X6125D01*
X5775Y-720D02*
X6125D01*
X6345Y-1050D02*
X6555D01*
X6345Y-1020D02*
X6555D01*
X6345Y-990D02*
X6555D01*
X6345Y-960D02*
X6555D01*
X6345Y-930D02*
X6555D01*
X6345Y-900D02*
X6555D01*
X6345Y-870D02*
X6555D01*
X6345Y-840D02*
X6555D01*
X6275Y-790D02*
X6345D01*
X6275Y-780D02*
X6625D01*
X6275Y-750D02*
X6625D01*
X6275Y-720D02*
X6625D01*
X6555Y-1060D02*
Y-790D01*
X6345Y-810D02*
X6555D01*
Y-790D02*
X6625D01*
X6775D02*
X6845D01*
X6775Y-780D02*
X7125D01*
X6800Y-1070D02*
Y-1060D01*
X6830Y-1070D02*
Y-1060D01*
X7070Y-1070D02*
Y-1060D01*
X7055Y-1070D02*
X7345D01*
X7100D02*
Y-1060D01*
X7130Y-1070D02*
Y-1060D01*
X7160Y-1070D02*
Y-1060D01*
X7190Y-1070D02*
Y-1060D01*
X6845D02*
Y-790D01*
X7220Y-1070D02*
Y-1060D01*
X7055D02*
Y-790D01*
X6845Y-1050D02*
X7055D01*
X7250Y-1070D02*
Y-1060D01*
X7280Y-1070D02*
Y-1060D01*
X7310Y-1070D02*
Y-1060D01*
X7340Y-1070D02*
Y-1060D01*
X7580Y-1070D02*
Y-1060D01*
X7555Y-1070D02*
X7845D01*
X7055Y-1060D02*
X7345D01*
X7610Y-1070D02*
Y-1060D01*
X7640Y-1070D02*
Y-1060D01*
X7670Y-1070D02*
Y-1060D01*
X7700Y-1070D02*
Y-1060D01*
X7730Y-1070D02*
Y-1060D01*
X7345D02*
Y-790D01*
X7555Y-1060D02*
X7845D01*
X7555D02*
Y-790D01*
X7345Y-1050D02*
X7555D01*
X7760Y-1070D02*
Y-1060D01*
X7790Y-1070D02*
Y-1060D01*
X7820Y-1070D02*
Y-1060D01*
X7845Y-1050D02*
X8055D01*
X7845Y-1060D02*
Y-790D01*
X6845Y-1020D02*
X7055D01*
X6845Y-990D02*
X7055D01*
X6845Y-960D02*
X7055D01*
X6845Y-930D02*
X7055D01*
X7345Y-1020D02*
X7555D01*
X7345Y-990D02*
X7555D01*
X7345Y-960D02*
X7555D01*
X7345Y-930D02*
X7555D01*
X6845Y-900D02*
X7055D01*
X6845Y-870D02*
X7055D01*
X6845Y-840D02*
X7055D01*
X6775Y-750D02*
X7125D01*
X6845Y-810D02*
X7055D01*
X7345Y-900D02*
X7555D01*
X7055Y-790D02*
X7125D01*
X7275D02*
X7345D01*
X7845Y-1020D02*
X8055D01*
X7845Y-990D02*
X8055D01*
X7345Y-870D02*
X7555D01*
X7345Y-840D02*
X7555D01*
X7845Y-960D02*
X8055D01*
X7845Y-930D02*
X8055D01*
X7845Y-900D02*
X8055D01*
X7845Y-870D02*
X8055D01*
X7345Y-810D02*
X7555D01*
Y-790D02*
X7625D01*
X7275Y-780D02*
X7625D01*
X7275Y-750D02*
X7625D01*
X7845Y-840D02*
X8055D01*
X7845Y-810D02*
X8055D01*
X7775Y-790D02*
X7845D01*
X7775Y-780D02*
X8125D01*
X7775Y-750D02*
X8125D01*
X5775Y-790D02*
Y-687D01*
X5780Y-790D02*
Y-683D01*
X4075Y-690D02*
X5625D01*
X5798Y-660D02*
X6102D01*
X5810Y-790D02*
Y-634D01*
X6110Y-790D02*
Y-672D01*
X5811Y-630D02*
X6089D01*
X6125Y-790D02*
Y-687D01*
X5811Y-570D02*
X6089D01*
X5798Y-540D02*
X6102D01*
X5840Y-790D02*
Y-55D01*
X6080Y-790D02*
Y-55D01*
X5810Y-566D02*
Y-55D01*
X5815Y-600D02*
X6085D01*
X6275Y-790D02*
Y-687D01*
X6290Y-790D02*
Y-672D01*
X5775Y-690D02*
X6125D01*
X6275D02*
X6625D01*
X6590Y-790D02*
Y-633D01*
X6620Y-790D02*
Y-683D01*
X6311Y-630D02*
X6589D01*
X6298Y-660D02*
X6602D01*
X6311Y-570D02*
X6589D01*
X6298Y-540D02*
X6602D01*
X6320Y-790D02*
Y-55D01*
X6560Y-790D02*
Y-55D01*
X6315Y-600D02*
X6585D01*
X6590Y-567D02*
Y-55D01*
X4072Y-510D02*
X5628D01*
X5630Y-509D02*
Y-55D01*
X5660Y-492D02*
Y-55D01*
X5690Y-485D02*
Y-55D01*
X5780Y-517D02*
Y-55D01*
X5772Y-510D02*
X6128D01*
X5720Y-487D02*
Y-55D01*
X5750Y-496D02*
Y-55D01*
X6110Y-528D02*
Y-55D01*
X6140Y-502D02*
Y-55D01*
X6170Y-489D02*
Y-55D01*
X6200Y-485D02*
Y-55D01*
X6290Y-528D02*
Y-55D01*
X6620Y-517D02*
Y-55D01*
X6230Y-489D02*
Y-55D01*
X6260Y-502D02*
Y-55D01*
X1300Y-480D02*
X15445D01*
X1300Y-450D02*
X15445D01*
X1300Y-420D02*
X15445D01*
X1300Y-390D02*
X15445D01*
X6272Y-510D02*
X6628D01*
X1300Y-360D02*
X15445D01*
X1300Y-330D02*
X15445D01*
X1300Y-300D02*
X15445D01*
X1300Y-270D02*
X15445D01*
X1300Y-240D02*
X15445D01*
X1300Y-210D02*
X15445D01*
X1300Y-180D02*
X15445D01*
X1300Y-150D02*
X15445D01*
X1300Y-120D02*
X15445D01*
X1300Y-90D02*
X15445D01*
X1300Y-60D02*
X15445D01*
X1300Y-55D02*
X15445D01*
X6625Y-790D02*
Y-687D01*
X6775Y-790D02*
Y-687D01*
Y-720D02*
X7125D01*
X6775Y-690D02*
X7125D01*
Y-790D02*
Y-687D01*
X7275Y-790D02*
Y-687D01*
X6798Y-660D02*
X7102D01*
X7280Y-790D02*
Y-683D01*
X6800Y-790D02*
Y-657D01*
X6830Y-790D02*
Y-55D01*
X6811Y-630D02*
X7089D01*
X7070Y-790D02*
Y-55D01*
X7100Y-790D02*
Y-657D01*
X7310Y-790D02*
Y-634D01*
X7610Y-790D02*
Y-672D01*
X7625Y-790D02*
Y-687D01*
X7275Y-720D02*
X7625D01*
X7275Y-690D02*
X7625D01*
X7775Y-790D02*
Y-687D01*
X7790Y-790D02*
Y-672D01*
X7775Y-720D02*
X8125D01*
X7775Y-690D02*
X8125D01*
X7340Y-790D02*
Y-55D01*
X7311Y-630D02*
X7589D01*
X7298Y-660D02*
X7602D01*
X7580Y-790D02*
Y-55D01*
X7820Y-790D02*
Y-55D01*
X7798Y-660D02*
X8102D01*
X6650Y-496D02*
Y-55D01*
X6680Y-487D02*
Y-55D01*
X6710Y-485D02*
Y-55D01*
X6740Y-492D02*
Y-55D01*
X6815Y-600D02*
X7085D01*
X6811Y-570D02*
X7089D01*
X6798Y-540D02*
X7102D01*
X6772Y-510D02*
X7128D01*
X6800Y-543D02*
Y-55D01*
X7100Y-543D02*
Y-55D01*
X6770Y-509D02*
Y-55D01*
X7130Y-509D02*
Y-55D01*
X7250Y-496D02*
Y-55D01*
X7280Y-517D02*
Y-55D01*
X7160Y-492D02*
Y-55D01*
X7190Y-485D02*
Y-55D01*
X7220Y-487D02*
Y-55D01*
X7315Y-600D02*
X7585D01*
X7311Y-570D02*
X7589D01*
X7298Y-540D02*
X7602D01*
X7272Y-510D02*
X7628D01*
X7815Y-600D02*
X8085D01*
X7811Y-630D02*
X8089D01*
X7811Y-570D02*
X8089D01*
X7798Y-540D02*
X8102D01*
X7310Y-566D02*
Y-55D01*
X7610Y-528D02*
Y-55D01*
X7640Y-502D02*
Y-55D01*
X7670Y-489D02*
Y-55D01*
X7790Y-528D02*
Y-55D01*
X7772Y-510D02*
X8128D01*
X7700Y-485D02*
Y-55D01*
X7730Y-489D02*
Y-55D01*
X7760Y-502D02*
Y-55D01*
X8060Y-1950D02*
Y-1340D01*
X8090Y-1950D02*
Y-1340D01*
X8120Y-1950D02*
Y-1340D01*
X8150Y-1950D02*
Y-1340D01*
X8180Y-1950D02*
Y-1340D01*
X9300Y-2013D02*
Y-1950D01*
X8210D02*
Y-1340D01*
X8240Y-1950D02*
Y-1340D01*
X8270Y-1950D02*
Y-1340D01*
X8300Y-1950D02*
Y-1340D01*
X8330Y-1950D02*
Y-1340D01*
X8570Y-1950D02*
Y-1340D01*
X8600Y-1950D02*
Y-1340D01*
X8630Y-1950D02*
Y-1340D01*
X8660Y-1950D02*
Y-1340D01*
X8690Y-1950D02*
Y-1340D01*
X9330Y-2200D02*
X10650D01*
X9330Y-2190D02*
X11100D01*
X9330Y-2160D02*
X11100D01*
X9323Y-2040D02*
X11100D01*
X9330Y-2200D02*
Y-2070D01*
Y-2130D02*
X11100D01*
X9330Y-2100D02*
X11100D01*
X9330Y-2070D02*
X11100D01*
X9320Y-2034D02*
Y-1340D01*
X9300Y-2010D02*
X11100D01*
X9300Y-1980D02*
X11100D01*
X8055Y-1340D02*
X8345D01*
X8720Y-1950D02*
Y-1340D01*
X8345Y-1320D02*
X8555D01*
X8345Y-1290D02*
X8555D01*
X8750Y-1950D02*
Y-1340D01*
X8780Y-1950D02*
Y-1340D01*
X8810Y-1950D02*
Y-1340D01*
X8840Y-1950D02*
Y-1340D01*
X8345Y-1260D02*
X8555D01*
X8345Y-1230D02*
X8555D01*
X9080Y-1950D02*
Y-1340D01*
X9110Y-1950D02*
Y-1340D01*
X8555D02*
X8845D01*
X9140Y-1950D02*
Y-1340D01*
X9170Y-1950D02*
Y-1340D01*
X9200Y-1950D02*
Y-1340D01*
X9230Y-1950D02*
X9300D01*
Y-1950D02*
X11100D01*
X8845Y-1320D02*
X9055D01*
X8845Y-1290D02*
X9055D01*
X8845Y-1260D02*
X9055D01*
X8845Y-1230D02*
X9055D01*
X9230Y-1950D02*
Y-1340D01*
X9260Y-1950D02*
Y-1340D01*
X9290Y-1950D02*
Y-1340D01*
X9055D02*
X9345D01*
X10846Y-2650D02*
X10856D01*
X10823Y-2520D02*
X10879D01*
X10650Y-2490D02*
X10661D01*
X10850Y-2650D02*
Y-2636D01*
X10842Y-2550D02*
X10860D01*
X10650Y-2497D02*
Y-2456D01*
X10670Y-2486D02*
Y-2468D01*
X10820Y-2516D02*
Y-2435D01*
X10850Y-2572D02*
Y-1340D01*
X10790Y-2492D02*
Y-2461D01*
X10910Y-2493D02*
Y-2460D01*
X10792Y-2460D02*
X10910D01*
X10787Y-2490D02*
X10915D01*
X11077Y-2520D02*
X11100D01*
X11030Y-2485D02*
Y-2469D01*
X11041Y-2490D02*
X11100D01*
X10880Y-2519D02*
Y-2433D01*
X10824Y-2430D02*
X10878D01*
X11090Y-2538D02*
Y-2411D01*
X11100Y-2559D02*
Y-2382D01*
X11060Y-2503D02*
Y-2449D01*
X11046Y-2460D02*
X11100D01*
X11078Y-2430D02*
X11100D01*
X10650Y-2220D02*
X10722D01*
X10849Y-2355D02*
Y-2345D01*
X10841Y-2400D02*
X10861D01*
X10853Y-2355D02*
Y-2345D01*
X10844Y-2310D02*
X10858D01*
X9345Y-1320D02*
X10755D01*
X9345Y-1290D02*
X10755D01*
X9345Y-1260D02*
X10755D01*
X9345Y-1230D02*
X10755D01*
X10650Y-2244D02*
Y-2200D01*
X10820Y-2265D02*
Y-1340D01*
X10760Y-2225D02*
Y-1340D01*
X10790Y-2239D02*
Y-1340D01*
X10831Y-2280D02*
X10871D01*
X10805Y-2250D02*
X10897D01*
X10726Y-2220D02*
X10976D01*
X11085Y-2280D02*
X11100D01*
X11059Y-2250D02*
X11100D01*
X10880Y-2267D02*
Y-1340D01*
X10910Y-2240D02*
Y-1340D01*
X10940Y-2226D02*
Y-1340D01*
X10755D02*
X11045D01*
X11030Y-2231D02*
Y-1340D01*
X11100Y-2318D02*
Y-1950D01*
X10970Y-2220D02*
Y-1340D01*
X10980Y-2220D02*
X11100D01*
X11000Y-2222D02*
Y-1340D01*
X8055D02*
Y-1070D01*
X8345Y-1200D02*
X8555D01*
X8345Y-1170D02*
X8555D01*
X8345Y-1340D02*
Y-1070D01*
X8555Y-1340D02*
Y-1070D01*
X8345Y-1140D02*
X8555D01*
X8345Y-1110D02*
X8555D01*
X8030Y-1950D02*
Y-55D01*
X8360Y-1950D02*
Y-55D01*
X8390Y-1950D02*
Y-55D01*
X8420Y-1950D02*
Y-55D01*
X8450Y-1950D02*
Y-55D01*
X8480Y-1950D02*
Y-55D01*
X8510Y-1950D02*
Y-55D01*
X8540Y-1950D02*
Y-55D01*
X8845Y-1200D02*
X9055D01*
X8845Y-1170D02*
X9055D01*
X8845Y-1140D02*
X9055D01*
X8845Y-1110D02*
X9055D01*
X8870Y-1950D02*
Y-55D01*
X8900Y-1950D02*
Y-55D01*
X8845Y-1340D02*
Y-1070D01*
X8930Y-1950D02*
Y-55D01*
X8960Y-1950D02*
Y-55D01*
X8990Y-1950D02*
Y-55D01*
X9020Y-1950D02*
Y-55D01*
X9055Y-1340D02*
Y-1070D01*
X9050Y-1950D02*
Y-55D01*
X8060Y-1070D02*
Y-1060D01*
X8055Y-1070D02*
X8345D01*
X8090D02*
Y-1060D01*
X8120Y-1070D02*
Y-1060D01*
X8150Y-1070D02*
Y-1060D01*
X8345Y-1080D02*
X8555D01*
X8180Y-1070D02*
Y-1060D01*
X8210Y-1070D02*
Y-1060D01*
X8240Y-1070D02*
Y-1060D01*
X8270Y-1070D02*
Y-1060D01*
X8300Y-1070D02*
Y-1060D01*
X8330Y-1070D02*
Y-1060D01*
X8570Y-1070D02*
Y-1060D01*
X8600Y-1070D02*
Y-1060D01*
X8630Y-1070D02*
Y-1060D01*
X8660Y-1070D02*
Y-1060D01*
X8690Y-1070D02*
Y-1060D01*
X8555Y-1070D02*
X8845D01*
X8720D02*
Y-1060D01*
X8750Y-1070D02*
Y-1060D01*
X8780Y-1070D02*
Y-1060D01*
X8845Y-1080D02*
X9055D01*
X8810Y-1070D02*
Y-1060D01*
X9055Y-1070D02*
X9345D01*
X8840D02*
Y-1060D01*
X9080Y-1070D02*
Y-1060D01*
X9110Y-1070D02*
Y-1060D01*
X9140Y-1070D02*
Y-1060D01*
X9170Y-1070D02*
Y-1060D01*
X9200Y-1070D02*
Y-1060D01*
X9230Y-1070D02*
Y-1060D01*
X9260Y-1070D02*
Y-1060D01*
X9290Y-1070D02*
Y-1060D01*
X9350Y-2200D02*
Y-55D01*
X9380Y-2200D02*
Y-55D01*
X9410Y-2200D02*
Y-55D01*
X9440Y-2200D02*
Y-55D01*
X9470Y-2200D02*
Y-55D01*
X9500Y-2200D02*
Y-55D01*
X9530Y-2200D02*
Y-55D01*
X9560Y-2200D02*
Y-55D01*
X9590Y-2200D02*
Y-55D01*
X9620Y-2200D02*
Y-55D01*
X9650Y-2200D02*
Y-55D01*
X9680Y-2200D02*
Y-55D01*
X9710Y-2200D02*
Y-55D01*
X9740Y-2200D02*
Y-55D01*
X9770Y-2200D02*
Y-55D01*
X9800Y-2200D02*
Y-55D01*
X9830Y-2200D02*
Y-55D01*
X9860Y-2200D02*
Y-55D01*
X9890Y-2200D02*
Y-55D01*
X9920Y-2200D02*
Y-55D01*
X9950Y-2200D02*
Y-55D01*
X9980Y-2200D02*
Y-55D01*
X10010Y-2200D02*
Y-55D01*
X10040Y-2200D02*
Y-55D01*
X10070Y-2200D02*
Y-55D01*
X10100Y-2200D02*
Y-55D01*
X10130Y-2200D02*
Y-55D01*
X10160Y-2200D02*
Y-55D01*
X11060Y-2251D02*
Y-55D01*
X11090Y-2289D02*
Y-55D01*
X10670Y-2232D02*
Y-55D01*
X10700Y-2222D02*
Y-55D01*
X10730Y-2220D02*
Y-55D01*
X10190Y-2200D02*
Y-55D01*
X10220Y-2200D02*
Y-55D01*
X9320Y-1070D02*
Y-1060D01*
X9345Y-1340D02*
Y-1070D01*
X10250Y-2200D02*
Y-55D01*
X10280Y-2200D02*
Y-55D01*
X10310Y-2200D02*
Y-55D01*
X10340Y-2200D02*
Y-55D01*
X10370Y-2200D02*
Y-55D01*
X10400Y-2200D02*
Y-55D01*
X10430Y-2200D02*
Y-55D01*
X10460Y-2200D02*
Y-55D01*
X10490Y-2200D02*
Y-55D01*
X10520Y-2200D02*
Y-55D01*
X10550Y-2200D02*
Y-55D01*
X10580Y-2200D02*
Y-55D01*
X9345Y-1200D02*
X10755D01*
X9345Y-1170D02*
X10755D01*
X9345Y-1140D02*
X10755D01*
X9345Y-1110D02*
X10755D01*
X10610Y-2200D02*
Y-55D01*
X10640Y-2200D02*
Y-55D01*
X10755Y-1340D02*
Y-1070D01*
X9345Y-1080D02*
X10755D01*
X11120Y-1950D02*
Y-55D01*
X11150Y-1950D02*
Y-55D01*
X11045Y-1340D02*
Y-1070D01*
X10755D02*
X11045D01*
X11180Y-1950D02*
Y-55D01*
X11270Y-1950D02*
Y-1340D01*
X11300Y-1950D02*
Y-1340D01*
X11330Y-1950D02*
Y-1340D01*
X11360Y-1950D02*
Y-1340D01*
X11390Y-1950D02*
Y-1340D01*
X11420Y-1950D02*
Y-1340D01*
X11450Y-1950D02*
Y-1340D01*
X11480Y-1950D02*
Y-1340D01*
X11510Y-1950D02*
Y-1340D01*
X11540Y-1950D02*
Y-1340D01*
X11780Y-1950D02*
Y-1340D01*
X11810Y-1950D02*
Y-1340D01*
X11840Y-1950D02*
Y-1340D01*
X11870Y-1950D02*
Y-1340D01*
X11900Y-1950D02*
Y-1340D01*
X11930Y-1950D02*
Y-1340D01*
X11960Y-1950D02*
Y-1340D01*
X11100Y-1950D02*
X15445D01*
X11990D02*
Y-1340D01*
X12020Y-1950D02*
Y-1340D01*
X12260Y-1950D02*
Y-1340D01*
X12290Y-1950D02*
Y-1340D01*
X12320Y-1950D02*
Y-1340D01*
X12350Y-1950D02*
Y-1340D01*
X12380Y-1950D02*
Y-1340D01*
X12410Y-1950D02*
Y-1340D01*
X12440Y-1950D02*
Y-1340D01*
X12470Y-1950D02*
Y-1340D01*
X12500Y-1950D02*
Y-1340D01*
X12530Y-1950D02*
Y-1340D01*
X12770Y-1950D02*
Y-1340D01*
X12800Y-1950D02*
Y-1340D01*
X12830Y-1950D02*
Y-1340D01*
X11045Y-1320D02*
X11255D01*
X11045Y-1290D02*
X11255D01*
X11045Y-1260D02*
X11255D01*
X11045Y-1230D02*
X11255D01*
Y-1340D02*
X11545D01*
Y-1320D02*
X11755D01*
X11545Y-1290D02*
X11755D01*
X11545Y-1260D02*
X11755D01*
X11045Y-1200D02*
X11255D01*
X11545Y-1230D02*
X11755D01*
X11545Y-1200D02*
X11755D01*
Y-1340D02*
X12045D01*
Y-1320D02*
X12255D01*
X12045Y-1290D02*
X12255D01*
X12045Y-1260D02*
X12255D01*
Y-1340D02*
X12545D01*
X12755D02*
X13045D01*
X12545Y-1320D02*
X12755D01*
X12545Y-1290D02*
X12755D01*
X12045Y-1230D02*
X12255D01*
X12045Y-1200D02*
X12255D01*
X12545Y-1260D02*
X12755D01*
X12545Y-1230D02*
X12755D01*
X12860Y-1950D02*
Y-1340D01*
X12890Y-1950D02*
Y-1340D01*
X12920Y-1950D02*
Y-1340D01*
X12950Y-1950D02*
Y-1340D01*
X12980Y-1950D02*
Y-1340D01*
X13010Y-1950D02*
Y-1340D01*
X13040Y-1950D02*
Y-1340D01*
X13280Y-1950D02*
Y-1340D01*
X13310Y-1950D02*
Y-1340D01*
X13340Y-1950D02*
Y-1340D01*
X13370Y-1950D02*
Y-1340D01*
X13400Y-1950D02*
Y-1340D01*
X13430Y-1950D02*
Y-1340D01*
X13460Y-1950D02*
Y-1340D01*
X13490Y-1950D02*
Y-1340D01*
X13520Y-1950D02*
Y-1340D01*
X13760Y-1950D02*
Y-1340D01*
X13790Y-1950D02*
Y-1340D01*
X13820Y-1950D02*
Y-1340D01*
X13850Y-1950D02*
Y-1340D01*
X13880Y-1950D02*
Y-1340D01*
X13910Y-1950D02*
Y-1340D01*
X13940Y-1950D02*
Y-1340D01*
X13970Y-1950D02*
Y-1340D01*
X14000Y-1950D02*
Y-1340D01*
X14030Y-1950D02*
Y-1340D01*
X14270Y-1950D02*
Y-1340D01*
X14300Y-1950D02*
Y-1340D01*
X14330Y-1950D02*
Y-1340D01*
X14360Y-1950D02*
Y-1340D01*
X14390Y-1950D02*
Y-1340D01*
X14420Y-1950D02*
Y-1340D01*
X14450Y-1950D02*
Y-1340D01*
X13045Y-1320D02*
X13255D01*
X13045Y-1290D02*
X13255D01*
X13045Y-1260D02*
X13255D01*
X13045Y-1230D02*
X13255D01*
Y-1340D02*
X13545D01*
Y-1320D02*
X13755D01*
X13545Y-1290D02*
X13755D01*
X13545Y-1260D02*
X13755D01*
X13545Y-1230D02*
X13755D01*
Y-1340D02*
X14045D01*
X14255D02*
X14545D01*
X14045Y-1320D02*
X14255D01*
X14045Y-1290D02*
X14255D01*
X14480Y-1950D02*
Y-1340D01*
X14510Y-1950D02*
Y-1340D01*
X14540Y-1950D02*
Y-1340D01*
X14545Y-1320D02*
X15445D01*
X14045Y-1260D02*
X14255D01*
X14045Y-1230D02*
X14255D01*
X14545Y-1290D02*
X15445D01*
X14545Y-1260D02*
X15445D01*
X14545Y-1230D02*
X15445D01*
X11210Y-1950D02*
Y-55D01*
X11240Y-1950D02*
Y-55D01*
X11255Y-1340D02*
Y-1070D01*
X11545Y-1340D02*
Y-1070D01*
X11570Y-1950D02*
Y-55D01*
X11600Y-1950D02*
Y-55D01*
X11630Y-1950D02*
Y-55D01*
X11755Y-1340D02*
Y-1070D01*
X11660Y-1950D02*
Y-55D01*
X11690Y-1950D02*
Y-55D01*
X11720Y-1950D02*
Y-55D01*
X11750Y-1950D02*
Y-55D01*
X12050Y-1950D02*
Y-55D01*
X12080Y-1950D02*
Y-55D01*
X12110Y-1950D02*
Y-55D01*
X12140Y-1950D02*
Y-55D01*
X12170Y-1950D02*
Y-55D01*
X12200Y-1950D02*
Y-55D01*
X12230Y-1950D02*
Y-55D01*
X12560Y-1950D02*
Y-55D01*
X12590Y-1950D02*
Y-55D01*
X12620Y-1950D02*
Y-55D01*
X12650Y-1950D02*
Y-55D01*
X12680Y-1950D02*
Y-55D01*
X12710Y-1950D02*
Y-55D01*
X12740Y-1950D02*
Y-55D01*
X13070Y-1950D02*
Y-55D01*
X13100Y-1950D02*
Y-55D01*
X13130Y-1950D02*
Y-55D01*
X13160Y-1950D02*
Y-55D01*
X13190Y-1950D02*
Y-55D01*
X13220Y-1950D02*
Y-55D01*
X13250Y-1950D02*
Y-55D01*
X11045Y-1170D02*
X11255D01*
X11545D02*
X11755D01*
X11045Y-1140D02*
X11255D01*
X11045Y-1110D02*
X11255D01*
X11545Y-1140D02*
X11755D01*
X12045Y-1170D02*
X12255D01*
X11545Y-1110D02*
X11755D01*
X12045Y-1140D02*
X12255D01*
X11045Y-1080D02*
X11255D01*
X11545D02*
X11755D01*
X12045Y-1340D02*
Y-1070D01*
X12255Y-1340D02*
Y-1070D01*
X12045Y-1110D02*
X12255D01*
X12045Y-1080D02*
X12255D01*
X12545Y-1200D02*
X12755D01*
X12545Y-1170D02*
X12755D01*
X12545Y-1140D02*
X12755D01*
X12545Y-1110D02*
X12755D01*
X13045Y-1200D02*
X13255D01*
X13045Y-1170D02*
X13255D01*
X13045Y-1140D02*
X13255D01*
X13045Y-1110D02*
X13255D01*
X12545Y-1340D02*
Y-1070D01*
X12755Y-1340D02*
Y-1070D01*
X12545Y-1080D02*
X12755D01*
X13045Y-1340D02*
Y-1070D01*
X13255Y-1340D02*
Y-1070D01*
X13045Y-1080D02*
X13255D01*
X13550Y-1950D02*
Y-55D01*
X13580Y-1950D02*
Y-55D01*
X13610Y-1950D02*
Y-55D01*
X13640Y-1950D02*
Y-55D01*
X13670Y-1950D02*
Y-55D01*
X13700Y-1950D02*
Y-55D01*
X13730Y-1950D02*
Y-55D01*
X14060Y-1950D02*
Y-55D01*
X14090Y-1950D02*
Y-55D01*
X14120Y-1950D02*
Y-55D01*
X14150Y-1950D02*
Y-55D01*
X14180Y-1950D02*
Y-55D01*
X14210Y-1950D02*
Y-55D01*
X14240Y-1950D02*
Y-55D01*
X14570Y-1950D02*
Y-55D01*
X14600Y-1950D02*
Y-55D01*
X14630Y-1950D02*
Y-55D01*
X14660Y-1950D02*
Y-55D01*
X14690Y-1950D02*
Y-55D01*
X14720Y-1950D02*
Y-55D01*
X14750Y-1950D02*
Y-55D01*
X14780Y-1950D02*
Y-55D01*
X14810Y-1950D02*
Y-55D01*
X14840Y-1950D02*
Y-55D01*
X14870Y-1950D02*
Y-55D01*
X14900Y-1950D02*
Y-55D01*
X14930Y-1950D02*
Y-55D01*
X14960Y-1950D02*
Y-55D01*
X14990Y-1950D02*
Y-55D01*
X15020Y-1950D02*
Y-55D01*
X15050Y-1950D02*
Y-55D01*
X15080Y-1950D02*
Y-55D01*
X15110Y-1950D02*
Y-55D01*
X13545Y-1200D02*
X13755D01*
X13545Y-1170D02*
X13755D01*
X13545Y-1140D02*
X13755D01*
X13545Y-1110D02*
X13755D01*
X14045Y-1200D02*
X14255D01*
X14045Y-1170D02*
X14255D01*
X14045Y-1140D02*
X14255D01*
X14045Y-1110D02*
X14255D01*
X13545Y-1340D02*
Y-1070D01*
X13755Y-1340D02*
Y-1070D01*
X13545Y-1080D02*
X13755D01*
X14045Y-1340D02*
Y-1070D01*
X14255Y-1340D02*
Y-1070D01*
X14045Y-1080D02*
X14255D01*
X14545Y-1340D02*
Y-1070D01*
Y-1200D02*
X15445D01*
X14545Y-1170D02*
X15445D01*
X14545Y-1140D02*
X15445D01*
X14545Y-1110D02*
X15445D01*
X15140Y-1950D02*
Y-55D01*
X15170Y-1950D02*
Y-55D01*
X15200Y-1950D02*
Y-55D01*
X14545Y-1080D02*
X15445D01*
X15230Y-1950D02*
Y-55D01*
X15260Y-1950D02*
Y-55D01*
X15290Y-1950D02*
Y-55D01*
X15320Y-1950D02*
Y-55D01*
X15350Y-1950D02*
Y-55D01*
X15380Y-1950D02*
Y-55D01*
X15410Y-1950D02*
Y-55D01*
X15440Y-1950D02*
Y-55D01*
X15445Y-1950D02*
Y-55D01*
X8055Y-1060D02*
X8345D01*
Y-1050D02*
X8555D01*
X8345Y-1020D02*
X8555D01*
X8345Y-990D02*
X8555D01*
Y-1060D02*
X8845D01*
Y-1050D02*
X9055D01*
X8845Y-1020D02*
X9055D01*
X8845Y-990D02*
X9055D01*
X8055Y-1060D02*
Y-790D01*
X8345Y-1060D02*
Y-790D01*
Y-960D02*
X8555D01*
X8345Y-930D02*
X8555D01*
Y-1060D02*
Y-790D01*
X8845Y-1060D02*
Y-790D01*
X9055Y-1060D02*
Y-790D01*
X8845Y-960D02*
X9055D01*
X10760Y-1070D02*
Y-1060D01*
X10790Y-1070D02*
Y-1060D01*
X9055D02*
X9345D01*
X10820Y-1070D02*
Y-1060D01*
X10850Y-1070D02*
Y-1060D01*
X10880Y-1070D02*
Y-1060D01*
X10910Y-1070D02*
Y-1060D01*
X10940Y-1070D02*
Y-1060D01*
X9345Y-1050D02*
X10755D01*
X9345Y-1020D02*
X10755D01*
X8845Y-930D02*
X9055D01*
X9345Y-990D02*
X10755D01*
X9345Y-1060D02*
Y-790D01*
X10970Y-1070D02*
Y-1060D01*
X10755D02*
Y-790D01*
Y-1060D02*
X11045D01*
X9345Y-960D02*
X10755D01*
X8345Y-900D02*
X8555D01*
X8345Y-870D02*
X8555D01*
X8345Y-840D02*
X8555D01*
X8345Y-810D02*
X8555D01*
X8845Y-900D02*
X9055D01*
X8845Y-870D02*
X9055D01*
X8845Y-840D02*
X9055D01*
X8845Y-810D02*
X9055D01*
X8055Y-790D02*
X8125D01*
X8275D02*
X8345D01*
X8275Y-780D02*
X8625D01*
X8275Y-750D02*
X8625D01*
X8555Y-790D02*
X8625D01*
X8775D02*
X8845D01*
X8275Y-720D02*
X8625D01*
X9055Y-790D02*
X9125D01*
X9345Y-930D02*
X10755D01*
X9345Y-900D02*
X10755D01*
X9275Y-790D02*
X9345D01*
Y-870D02*
X10755D01*
X9345Y-840D02*
X10755D01*
X9345Y-810D02*
X10755D01*
Y-790D02*
X10825D01*
X10975D02*
X11045D01*
X8775Y-780D02*
X9125D01*
X9275D02*
X10825D01*
X8775Y-750D02*
X9125D01*
X8775Y-720D02*
X9125D01*
X9275Y-750D02*
X10825D01*
X10975Y-780D02*
X11325D01*
X9275Y-720D02*
X10825D01*
X10975Y-750D02*
X11325D01*
X10975Y-720D02*
X11325D01*
X11000Y-1070D02*
Y-1060D01*
X11030Y-1070D02*
Y-1060D01*
X11270Y-1070D02*
Y-1060D01*
X11255Y-1070D02*
X11545D01*
X11300D02*
Y-1060D01*
X11330Y-1070D02*
Y-1060D01*
X11360Y-1070D02*
Y-1060D01*
X11390Y-1070D02*
Y-1060D01*
X11045D02*
Y-790D01*
X11420Y-1070D02*
Y-1060D01*
X11255D02*
Y-790D01*
X11045Y-1050D02*
X11255D01*
X11450Y-1070D02*
Y-1060D01*
X11480Y-1070D02*
Y-1060D01*
X11510Y-1070D02*
Y-1060D01*
X11540Y-1070D02*
Y-1060D01*
X11780Y-1070D02*
Y-1060D01*
X11755Y-1070D02*
X12045D01*
X11255Y-1060D02*
X11545D01*
X11810Y-1070D02*
Y-1060D01*
X11840Y-1070D02*
Y-1060D01*
X11870Y-1070D02*
Y-1060D01*
X11900Y-1070D02*
Y-1060D01*
X11930Y-1070D02*
Y-1060D01*
X11545D02*
Y-790D01*
X11960Y-1070D02*
Y-1060D01*
X11755D02*
Y-790D01*
Y-1060D02*
X12045D01*
X11990Y-1070D02*
Y-1060D01*
X12020Y-1070D02*
Y-1060D01*
X12045D02*
Y-790D01*
X12260Y-1070D02*
Y-1060D01*
X12255D02*
Y-790D01*
X11045Y-1020D02*
X11255D01*
X11045Y-990D02*
X11255D01*
X11045Y-960D02*
X11255D01*
X11045Y-930D02*
X11255D01*
X11545Y-1050D02*
X11755D01*
X11545Y-1020D02*
X11755D01*
X11545Y-990D02*
X11755D01*
X11545Y-960D02*
X11755D01*
X11045Y-900D02*
X11255D01*
X11045Y-870D02*
X11255D01*
X11045Y-840D02*
X11255D01*
X11045Y-810D02*
X11255D01*
X11545Y-930D02*
X11755D01*
X11545Y-900D02*
X11755D01*
X11255Y-790D02*
X11325D01*
X11475D02*
X11545D01*
X12045Y-1050D02*
X12255D01*
X12045Y-1020D02*
X12255D01*
X11545Y-870D02*
X11755D01*
X12045Y-990D02*
X12255D01*
X12045Y-960D02*
X12255D01*
X12045Y-930D02*
X12255D01*
X12045Y-900D02*
X12255D01*
X12045Y-870D02*
X12255D01*
X11545Y-840D02*
X11755D01*
X11475Y-780D02*
X11825D01*
X11475Y-750D02*
X11825D01*
X11475Y-720D02*
X11825D01*
X11545Y-810D02*
X11755D01*
X12045Y-840D02*
X12255D01*
X11755Y-790D02*
X11825D01*
X12045Y-810D02*
X12255D01*
X11975Y-790D02*
X12045D01*
X8120D02*
Y-683D01*
X8125Y-790D02*
Y-687D01*
X8275Y-790D02*
Y-687D01*
Y-690D02*
X8625D01*
X8300Y-790D02*
Y-657D01*
X8625Y-790D02*
Y-687D01*
X8298Y-660D02*
X8602D01*
X8775Y-790D02*
Y-687D01*
X8060Y-790D02*
Y-55D01*
X8090Y-790D02*
Y-633D01*
X8330Y-790D02*
Y-55D01*
X8570Y-790D02*
Y-55D01*
X8311Y-630D02*
X8589D01*
X8600Y-790D02*
Y-657D01*
X8780Y-790D02*
Y-683D01*
X9110Y-790D02*
Y-672D01*
X8798Y-660D02*
X9102D01*
X8775Y-690D02*
X9125D01*
Y-790D02*
Y-687D01*
X9275Y-790D02*
Y-687D01*
X9290Y-790D02*
Y-672D01*
X9275Y-690D02*
X10825D01*
X8810Y-790D02*
Y-634D01*
X8811Y-630D02*
X9089D01*
X8840Y-790D02*
Y-55D01*
X9080Y-790D02*
Y-55D01*
X9298Y-660D02*
X10802D01*
X8090Y-567D02*
Y-55D01*
X8120Y-517D02*
Y-55D01*
X8150Y-496D02*
Y-55D01*
X8180Y-487D02*
Y-55D01*
X8315Y-600D02*
X8585D01*
X8311Y-570D02*
X8589D01*
X8298Y-540D02*
X8602D01*
X8272Y-510D02*
X8628D01*
X8270Y-509D02*
Y-55D01*
X8300Y-543D02*
Y-55D01*
X8210Y-485D02*
Y-55D01*
X8240Y-492D02*
Y-55D01*
X8600Y-543D02*
Y-55D01*
X8630Y-509D02*
Y-55D01*
X8660Y-492D02*
Y-55D01*
X8690Y-485D02*
Y-55D01*
X8798Y-540D02*
X9102D01*
X8772Y-510D02*
X9128D01*
X8720Y-487D02*
Y-55D01*
X8750Y-496D02*
Y-55D01*
X8815Y-600D02*
X9085D01*
X8811Y-570D02*
X9089D01*
X9298Y-540D02*
X10802D01*
X9272Y-510D02*
X10828D01*
X8810Y-566D02*
Y-55D01*
X9110Y-528D02*
Y-55D01*
X8780Y-517D02*
Y-55D01*
X9140Y-502D02*
Y-55D01*
X9260Y-502D02*
Y-55D01*
X9290Y-528D02*
Y-55D01*
X9170Y-489D02*
Y-55D01*
X9200Y-485D02*
Y-55D01*
X9230Y-489D02*
Y-55D01*
X10790Y-790D02*
Y-633D01*
X10820Y-790D02*
Y-683D01*
X10825Y-790D02*
Y-687D01*
X10975Y-790D02*
Y-687D01*
X11000Y-790D02*
Y-657D01*
X11300Y-790D02*
Y-657D01*
X10998Y-660D02*
X11302D01*
X11325Y-790D02*
Y-687D01*
X9320Y-790D02*
Y-55D01*
X10760Y-790D02*
Y-55D01*
X9311Y-630D02*
X10789D01*
X11030Y-790D02*
Y-55D01*
X11270Y-790D02*
Y-55D01*
X11011Y-630D02*
X11289D01*
X11475Y-790D02*
Y-687D01*
X11480Y-790D02*
Y-683D01*
X10975Y-690D02*
X11325D01*
X11475D02*
X11825D01*
X11810Y-790D02*
Y-672D01*
X11825Y-790D02*
Y-687D01*
X11975Y-790D02*
Y-687D01*
X11990Y-790D02*
Y-672D01*
X11510Y-790D02*
Y-634D01*
X11498Y-660D02*
X11802D01*
X11540Y-790D02*
Y-55D01*
X11780Y-790D02*
Y-55D01*
X12020Y-790D02*
Y-55D01*
X9315Y-600D02*
X10785D01*
X9311Y-570D02*
X10789D01*
X10790Y-567D02*
Y-55D01*
X10820Y-517D02*
Y-55D01*
X11015Y-600D02*
X11285D01*
X11011Y-570D02*
X11289D01*
X10998Y-540D02*
X11302D01*
X10972Y-510D02*
X11328D01*
X10850Y-496D02*
Y-55D01*
X10880Y-487D02*
Y-55D01*
X10910Y-485D02*
Y-55D01*
X10940Y-492D02*
Y-55D01*
X11000Y-543D02*
Y-55D01*
X11300Y-543D02*
Y-55D01*
X10970Y-509D02*
Y-55D01*
X11330Y-509D02*
Y-55D01*
X11360Y-492D02*
Y-55D01*
X11450Y-496D02*
Y-55D01*
X11472Y-510D02*
X11828D01*
X11390Y-485D02*
Y-55D01*
X11420Y-487D02*
Y-55D01*
X11511Y-630D02*
X11789D01*
X11515Y-600D02*
X11785D01*
X11511Y-570D02*
X11789D01*
X11498Y-540D02*
X11802D01*
X11510Y-566D02*
Y-55D01*
X11810Y-528D02*
Y-55D01*
X11480Y-517D02*
Y-55D01*
X11840Y-502D02*
Y-55D01*
X11960Y-502D02*
Y-55D01*
X11990Y-528D02*
Y-55D01*
X11870Y-489D02*
Y-55D01*
X11900Y-485D02*
Y-55D01*
X11930Y-489D02*
Y-55D01*
X12290Y-1070D02*
Y-1060D01*
X12255Y-1070D02*
X12545D01*
X12320D02*
Y-1060D01*
X12350Y-1070D02*
Y-1060D01*
X12380Y-1070D02*
Y-1060D01*
X12410Y-1070D02*
Y-1060D01*
X12440Y-1070D02*
Y-1060D01*
X12470Y-1070D02*
Y-1060D01*
X12500Y-1070D02*
Y-1060D01*
X12530Y-1070D02*
Y-1060D01*
X12255D02*
X12545D01*
Y-790D01*
X12770Y-1070D02*
Y-1060D01*
X12800Y-1070D02*
Y-1060D01*
X12755D02*
Y-790D01*
X12830Y-1070D02*
Y-1060D01*
X12860Y-1070D02*
Y-1060D01*
X12755Y-1070D02*
X13045D01*
X12890D02*
Y-1060D01*
X12920Y-1070D02*
Y-1060D01*
X12950Y-1070D02*
Y-1060D01*
X12980Y-1070D02*
Y-1060D01*
X13010Y-1070D02*
Y-1060D01*
X13255Y-1070D02*
X13545D01*
X13040D02*
Y-1060D01*
X13280Y-1070D02*
Y-1060D01*
X12755D02*
X13045D01*
X13310Y-1070D02*
Y-1060D01*
X13340Y-1070D02*
Y-1060D01*
X13370Y-1070D02*
Y-1060D01*
X13400Y-1070D02*
Y-1060D01*
X13430Y-1070D02*
Y-1060D01*
X13460Y-1070D02*
Y-1060D01*
X12545Y-1050D02*
X12755D01*
X12545Y-1020D02*
X12755D01*
X12545Y-990D02*
X12755D01*
X12545Y-960D02*
X12755D01*
X12545Y-930D02*
X12755D01*
X12545Y-900D02*
X12755D01*
X12545Y-870D02*
X12755D01*
X12545Y-840D02*
X12755D01*
X12255Y-790D02*
X12325D01*
X12475D02*
X12545D01*
X11975Y-780D02*
X12325D01*
X11975Y-750D02*
X12325D01*
X12545Y-810D02*
X12755D01*
Y-790D02*
X12825D01*
X12475Y-780D02*
X12825D01*
X12475Y-750D02*
X12825D01*
X13045Y-1050D02*
X13255D01*
X13045Y-1020D02*
X13255D01*
X13045Y-990D02*
X13255D01*
X13045Y-960D02*
X13255D01*
X13045Y-930D02*
X13255D01*
Y-1060D02*
X13545D01*
X13045Y-900D02*
X13255D01*
X13045Y-870D02*
X13255D01*
X12975Y-790D02*
X13045D01*
Y-840D02*
X13255D01*
X12975Y-780D02*
X13325D01*
X12975Y-750D02*
X13325D01*
X13045Y-1060D02*
Y-790D01*
X13255Y-1060D02*
Y-790D01*
X13045Y-810D02*
X13255D01*
Y-790D02*
X13325D01*
X13475D02*
X13545D01*
X13490Y-1070D02*
Y-1060D01*
X13520Y-1070D02*
Y-1060D01*
X13760Y-1070D02*
Y-1060D01*
X13755Y-1070D02*
X14045D01*
X13790D02*
Y-1060D01*
X13820Y-1070D02*
Y-1060D01*
X13850Y-1070D02*
Y-1060D01*
X13880Y-1070D02*
Y-1060D01*
X13545D02*
Y-790D01*
X13910Y-1070D02*
Y-1060D01*
X13755D02*
Y-790D01*
X13545Y-1050D02*
X13755D01*
X13940Y-1070D02*
Y-1060D01*
X13970Y-1070D02*
Y-1060D01*
X14000Y-1070D02*
Y-1060D01*
X14030Y-1070D02*
Y-1060D01*
X14270Y-1070D02*
Y-1060D01*
X14255Y-1070D02*
X14545D01*
X13755Y-1060D02*
X14045D01*
X14300Y-1070D02*
Y-1060D01*
X14330Y-1070D02*
Y-1060D01*
X14360Y-1070D02*
Y-1060D01*
X14390Y-1070D02*
Y-1060D01*
X14420Y-1070D02*
Y-1060D01*
X14045D02*
Y-790D01*
X14255Y-1060D02*
X14545D01*
X14255D02*
Y-790D01*
X14045Y-1050D02*
X14255D01*
X14450Y-1070D02*
Y-1060D01*
X14480Y-1070D02*
Y-1060D01*
X14510Y-1070D02*
Y-1060D01*
X14540Y-1070D02*
Y-1060D01*
X14545D02*
Y-790D01*
X13545Y-1020D02*
X13755D01*
X13545Y-990D02*
X13755D01*
X13545Y-960D02*
X13755D01*
X13545Y-930D02*
X13755D01*
X14045Y-1020D02*
X14255D01*
X14045Y-990D02*
X14255D01*
X14045Y-960D02*
X14255D01*
X14045Y-930D02*
X14255D01*
X13545Y-900D02*
X13755D01*
X13545Y-870D02*
X13755D01*
X13475Y-780D02*
X13825D01*
X13475Y-750D02*
X13825D01*
X13545Y-840D02*
X13755D01*
X13545Y-810D02*
X13755D01*
Y-790D02*
X13825D01*
X13975D02*
X14045D01*
X14545Y-1050D02*
X15445D01*
X14545Y-1020D02*
X15445D01*
X14045Y-900D02*
X14255D01*
X14045Y-870D02*
X14255D01*
X14545Y-990D02*
X15445D01*
X14545Y-960D02*
X15445D01*
X14545Y-930D02*
X15445D01*
X14545Y-900D02*
X15445D01*
X14045Y-840D02*
X14255D01*
X14045Y-810D02*
X14255D01*
Y-790D02*
X14325D01*
X13975Y-780D02*
X14325D01*
X14545Y-870D02*
X15445D01*
X14545Y-840D02*
X15445D01*
X14475Y-790D02*
X14545D01*
Y-810D02*
X15445D01*
X14475Y-780D02*
X15445D01*
X12320Y-790D02*
Y-683D01*
X11975Y-720D02*
X12325D01*
X11998Y-660D02*
X12302D01*
X11975Y-690D02*
X12325D01*
Y-790D02*
Y-687D01*
X12475Y-790D02*
Y-687D01*
X12500Y-790D02*
Y-657D01*
X12800Y-790D02*
Y-657D01*
X12260Y-790D02*
Y-55D01*
X12290Y-790D02*
Y-633D01*
X12011Y-630D02*
X12289D01*
X12530Y-790D02*
Y-55D01*
X12770Y-790D02*
Y-55D01*
X12511Y-630D02*
X12789D01*
X12825Y-790D02*
Y-687D01*
X12475Y-720D02*
X12825D01*
X12475Y-690D02*
X12825D01*
X12975Y-720D02*
X13325D01*
X12975Y-790D02*
Y-687D01*
X12980Y-790D02*
Y-683D01*
X13325Y-790D02*
Y-687D01*
X12975Y-690D02*
X13325D01*
X12498Y-660D02*
X12802D01*
X12998D02*
X13302D01*
X13010Y-790D02*
Y-634D01*
X13040Y-790D02*
Y-55D01*
X13280Y-790D02*
Y-55D01*
X13310Y-790D02*
Y-672D01*
X12015Y-600D02*
X12285D01*
X12011Y-570D02*
X12289D01*
X11998Y-540D02*
X12302D01*
X11972Y-510D02*
X12328D01*
X12515Y-600D02*
X12785D01*
X12511Y-570D02*
X12789D01*
X12290Y-567D02*
Y-55D01*
X12498Y-540D02*
X12802D01*
X12320Y-517D02*
Y-55D01*
X12350Y-496D02*
Y-55D01*
X12380Y-487D02*
Y-55D01*
X12410Y-485D02*
Y-55D01*
X12500Y-543D02*
Y-55D01*
X12800Y-543D02*
Y-55D01*
X12440Y-492D02*
Y-55D01*
X12470Y-509D02*
Y-55D01*
X12472Y-510D02*
X12828D01*
X12830Y-509D02*
Y-55D01*
X12860Y-492D02*
Y-55D01*
X12972Y-510D02*
X13328D01*
X13011Y-630D02*
X13289D01*
X13015Y-600D02*
X13285D01*
X13011Y-570D02*
X13289D01*
X12998Y-540D02*
X13302D01*
X12950Y-496D02*
Y-55D01*
X12980Y-517D02*
Y-55D01*
X12890Y-485D02*
Y-55D01*
X12920Y-487D02*
Y-55D01*
X13010Y-566D02*
Y-55D01*
X13310Y-528D02*
Y-55D01*
X13340Y-502D02*
Y-55D01*
X13370Y-489D02*
Y-55D01*
X13400Y-485D02*
Y-55D01*
X13475Y-790D02*
Y-687D01*
X13490Y-790D02*
Y-672D01*
X13475Y-720D02*
X13825D01*
X13475Y-690D02*
X13825D01*
X13820Y-790D02*
Y-683D01*
X13825Y-790D02*
Y-687D01*
X13498Y-660D02*
X13802D01*
X13975Y-790D02*
Y-687D01*
X13520Y-790D02*
Y-55D01*
X13760Y-790D02*
Y-55D01*
X13790Y-790D02*
Y-633D01*
X14000Y-790D02*
Y-657D01*
X14030Y-790D02*
Y-55D01*
X14325Y-790D02*
Y-687D01*
X13975Y-750D02*
X14325D01*
X13975Y-720D02*
X14325D01*
X13975Y-690D02*
X14325D01*
X14475Y-790D02*
Y-687D01*
X14480Y-790D02*
Y-683D01*
X14475Y-750D02*
X15445D01*
X14475Y-720D02*
X15445D01*
X14270Y-790D02*
Y-55D01*
X14300Y-790D02*
Y-657D01*
X13998Y-660D02*
X14302D01*
X14510Y-790D02*
Y-634D01*
X14540Y-790D02*
Y-55D01*
X14475Y-690D02*
X15445D01*
X14498Y-660D02*
X15445D01*
X13498Y-540D02*
X13802D01*
X13472Y-510D02*
X13828D01*
X13430Y-489D02*
Y-55D01*
X13460Y-502D02*
Y-55D01*
X13511Y-630D02*
X13789D01*
X14011D02*
X14289D01*
X13515Y-600D02*
X13785D01*
X13511Y-570D02*
X13789D01*
X13490Y-528D02*
Y-55D01*
X13790Y-567D02*
Y-55D01*
X13820Y-517D02*
Y-55D01*
X13850Y-496D02*
Y-55D01*
X13970Y-509D02*
Y-55D01*
X14000Y-543D02*
Y-55D01*
X13880Y-487D02*
Y-55D01*
X13910Y-485D02*
Y-55D01*
X13940Y-492D02*
Y-55D01*
X14015Y-600D02*
X14285D01*
X14011Y-570D02*
X14289D01*
X13998Y-540D02*
X14302D01*
X13972Y-510D02*
X14328D01*
X14511Y-630D02*
X15445D01*
X14515Y-600D02*
X15445D01*
X14511Y-570D02*
X15445D01*
X14498Y-540D02*
X15445D01*
X14300Y-543D02*
Y-55D01*
X14330Y-509D02*
Y-55D01*
X14360Y-492D02*
Y-55D01*
X14390Y-485D02*
Y-55D01*
X14480Y-517D02*
Y-55D01*
X14510Y-566D02*
Y-55D01*
X14420Y-487D02*
Y-55D01*
X14472Y-510D02*
X15445D01*
X14450Y-496D02*
Y-55D01*
X1280Y-4145D02*
Y-2017D01*
X1310Y-4145D02*
Y-2020D01*
X1340Y-4145D02*
Y-2020D01*
X1370Y-4145D02*
Y-2020D01*
X1400Y-4145D02*
Y-2020D01*
X3350Y-4145D02*
Y-2049D01*
X1430Y-4145D02*
Y-2020D01*
X1460Y-4145D02*
Y-2020D01*
X1490Y-4145D02*
Y-2020D01*
X1520Y-4145D02*
Y-2020D01*
X1550Y-4145D02*
Y-2020D01*
X1580Y-4145D02*
Y-2020D01*
X3470Y-4145D02*
Y-2750D01*
X3500Y-4145D02*
Y-2750D01*
X3530Y-4145D02*
Y-2750D01*
X3560Y-4145D02*
Y-2750D01*
X3590Y-4145D02*
Y-2750D01*
X3620Y-4145D02*
Y-2750D01*
X3380Y-4145D02*
Y-2067D01*
X3410Y-4145D02*
Y-2236D01*
X3440Y-4145D02*
Y-2263D01*
X3650Y-4145D02*
Y-2750D01*
X3680Y-4145D02*
Y-2750D01*
X3710Y-4145D02*
Y-2750D01*
X3740Y-4145D02*
Y-2750D01*
X3770Y-4145D02*
Y-2750D01*
X3800Y-4145D02*
Y-2750D01*
X3830Y-4145D02*
Y-2750D01*
X3860Y-4145D02*
Y-2750D01*
X3890Y-4145D02*
Y-2750D01*
X3920Y-4145D02*
Y-2750D01*
X3450D02*
Y-2480D01*
X3950Y-4145D02*
Y-2750D01*
X3980Y-4145D02*
Y-2750D01*
X4010Y-4145D02*
Y-2750D01*
X4040Y-4145D02*
Y-2750D01*
X4070Y-4145D02*
Y-2750D01*
X4100Y-4145D02*
Y-2750D01*
X4130Y-4145D02*
Y-2750D01*
X4160Y-4145D02*
Y-2750D01*
X4190Y-4145D02*
Y-2750D01*
X4220Y-4145D02*
Y-2750D01*
X4250Y-4145D02*
Y-2750D01*
X4280Y-4145D02*
Y-2750D01*
X3450D02*
X5250D01*
X4310Y-4145D02*
Y-2750D01*
X4340Y-4145D02*
Y-2750D01*
X4370Y-4145D02*
Y-2750D01*
X4400Y-4145D02*
Y-2750D01*
X4430Y-4145D02*
Y-2750D01*
X4460Y-4145D02*
Y-2750D01*
X4490Y-4145D02*
Y-2750D01*
X4520Y-4145D02*
Y-2750D01*
X4550Y-4145D02*
Y-2750D01*
X4580Y-4145D02*
Y-2750D01*
X4610Y-4145D02*
Y-2750D01*
X4640Y-4145D02*
Y-2750D01*
X4670Y-4145D02*
Y-2750D01*
X4700Y-4145D02*
Y-2750D01*
X4730Y-4145D02*
Y-2750D01*
X4760Y-4145D02*
Y-2750D01*
X4790Y-4145D02*
Y-2750D01*
X4820Y-4145D02*
Y-2750D01*
X4850Y-4145D02*
Y-2750D01*
X4880Y-4145D02*
Y-2750D01*
X4910Y-4145D02*
Y-2750D01*
X4940Y-4145D02*
Y-2750D01*
X4970Y-4145D02*
Y-2750D01*
X5000Y-4145D02*
Y-2750D01*
X5030Y-4145D02*
Y-2750D01*
X5060Y-4145D02*
Y-2750D01*
X5090Y-4145D02*
Y-2750D01*
X5120Y-4145D02*
Y-2750D01*
X5150Y-4145D02*
Y-2750D01*
X5180Y-4145D02*
Y-2750D01*
X5210Y-4145D02*
Y-2750D01*
X5240Y-4145D02*
Y-2750D01*
X5330Y-4145D02*
Y-2732D01*
X5360Y-4145D02*
Y-2734D01*
X5270Y-4145D02*
Y-2702D01*
X5250Y-2750D02*
Y-2680D01*
X5300Y-4145D02*
Y-2722D01*
X5390Y-4145D02*
Y-2728D01*
X5420Y-4145D02*
Y-2715D01*
X5450Y-4145D02*
Y-2688D01*
X5540Y-4145D02*
Y-2715D01*
X5570Y-4145D02*
Y-2728D01*
X5600Y-4145D02*
Y-2734D01*
X5630Y-4145D02*
Y-2732D01*
X5660Y-4145D02*
Y-2722D01*
X5780Y-4145D02*
Y-2706D01*
X5480Y-4145D02*
Y-2500D01*
X5510Y-4145D02*
Y-2688D01*
X5690Y-4145D02*
Y-2702D01*
X5720Y-4145D02*
Y-2662D01*
X5750Y-4145D02*
Y-2672D01*
X55Y-4145D02*
Y-55D01*
X80Y-4145D02*
Y-55D01*
X110Y-4145D02*
Y-55D01*
X140Y-4145D02*
Y-55D01*
X170Y-4145D02*
Y-55D01*
X380Y-4145D02*
Y-1340D01*
X200Y-4145D02*
Y-55D01*
X230Y-4145D02*
Y-55D01*
X260Y-4145D02*
Y-55D01*
X290Y-4145D02*
Y-55D01*
X320Y-4145D02*
Y-55D01*
X350Y-4145D02*
Y-55D01*
X410Y-4145D02*
Y-1340D01*
X440Y-4145D02*
Y-1340D01*
X470Y-4145D02*
Y-1340D01*
X500Y-4145D02*
Y-1340D01*
X530Y-4145D02*
Y-1340D01*
X560Y-4145D02*
Y-1340D01*
X590Y-4145D02*
Y-1340D01*
X620Y-4145D02*
Y-1340D01*
X650Y-4145D02*
Y-55D01*
X680Y-4145D02*
Y-55D01*
X710Y-4145D02*
Y-55D01*
X740Y-4145D02*
Y-55D01*
X770Y-4145D02*
Y-55D01*
X800Y-4145D02*
Y-55D01*
X830Y-4145D02*
Y-55D01*
X860Y-4145D02*
Y-55D01*
X890Y-4145D02*
Y-55D01*
X920Y-4145D02*
Y-55D01*
X950Y-4145D02*
Y-55D01*
X980Y-4145D02*
Y-55D01*
X1010Y-4145D02*
Y-55D01*
X1040Y-4145D02*
Y-55D01*
X1070Y-4145D02*
Y-55D01*
X1100Y-4145D02*
Y-55D01*
X1610Y-4145D02*
Y-2020D01*
X1640Y-4145D02*
Y-2020D01*
X1670Y-4145D02*
Y-2020D01*
X1700Y-4145D02*
Y-2020D01*
X1730Y-4145D02*
Y-2020D01*
X1760Y-4145D02*
Y-2020D01*
X1130Y-4145D02*
Y-55D01*
X1160Y-4145D02*
Y-55D01*
X1190Y-4145D02*
Y-55D01*
X1220Y-4145D02*
Y-55D01*
X1250Y-4145D02*
Y-1999D01*
X1790Y-4145D02*
Y-2020D01*
X1820Y-4145D02*
Y-2020D01*
X1850Y-4145D02*
Y-2020D01*
X1880Y-4145D02*
Y-2020D01*
X1910Y-4145D02*
Y-2020D01*
X1940Y-4145D02*
Y-2020D01*
X1970Y-4145D02*
Y-2020D01*
X2000Y-4145D02*
Y-2020D01*
X2030Y-4145D02*
Y-2020D01*
X2060Y-4145D02*
Y-2020D01*
X2090Y-4145D02*
Y-2020D01*
X2120Y-4145D02*
Y-2020D01*
X2150Y-4145D02*
Y-2020D01*
X2180Y-4145D02*
Y-2020D01*
X2210Y-4145D02*
Y-2020D01*
X2240Y-4145D02*
Y-2020D01*
X2270Y-4145D02*
Y-2020D01*
X2300Y-4145D02*
Y-2020D01*
X2330Y-4145D02*
Y-2020D01*
X2360Y-4145D02*
Y-2020D01*
X2390Y-4145D02*
Y-2020D01*
X2420Y-4145D02*
Y-2020D01*
X2450Y-4145D02*
Y-2020D01*
X2480Y-4145D02*
Y-2020D01*
X2510Y-4145D02*
Y-2020D01*
X2540Y-4145D02*
Y-2020D01*
X2570Y-4145D02*
Y-2020D01*
X2600Y-4145D02*
Y-2020D01*
X2630Y-4145D02*
Y-2020D01*
X2660Y-4145D02*
Y-2020D01*
X2690Y-4145D02*
Y-2020D01*
X2720Y-4145D02*
Y-2020D01*
X2750Y-4145D02*
Y-2020D01*
X2780Y-4145D02*
Y-2020D01*
X2810Y-4145D02*
Y-2020D01*
X2840Y-4145D02*
Y-2020D01*
X2870Y-4145D02*
Y-2020D01*
X2900Y-4145D02*
Y-2020D01*
X2930Y-4145D02*
Y-2020D01*
X2960Y-4145D02*
Y-2020D01*
X2990Y-4145D02*
Y-2020D01*
X3020Y-4145D02*
Y-2020D01*
X3050Y-4145D02*
Y-2020D01*
X3080Y-4145D02*
Y-2020D01*
X3110Y-4145D02*
Y-2020D01*
X3140Y-4145D02*
Y-2020D01*
X3170Y-4145D02*
Y-2020D01*
X3200Y-4145D02*
Y-2020D01*
X3230Y-4145D02*
Y-2020D01*
X3260Y-4145D02*
Y-2020D01*
X3290Y-4145D02*
Y-2020D01*
X3320Y-4145D02*
Y-2020D01*
X55Y-3810D02*
X9585D01*
X55Y-3750D02*
X9544D01*
X55Y-3780D02*
X9574D01*
X55Y-3720D02*
X9514D01*
X55Y-3660D02*
X9454D01*
X55Y-3690D02*
X9484D01*
X55Y-3630D02*
X9424D01*
X55Y-3570D02*
X9364D01*
X55Y-3600D02*
X9394D01*
X5810Y-4145D02*
Y-2724D01*
X55Y-3510D02*
X9304D01*
X55Y-3540D02*
X9334D01*
X55Y-4145D02*
X15445D01*
X55Y-4140D02*
X15445D01*
X55Y-4110D02*
X15445D01*
X55Y-4080D02*
X15445D01*
X55Y-4020D02*
X10953D01*
X55Y-4050D02*
X15445D01*
X55Y-3990D02*
X10923D01*
X55Y-3930D02*
X10894D01*
X55Y-3960D02*
X10904D01*
X55Y-3900D02*
X9643D01*
X55Y-3840D02*
X9592D01*
X55Y-3870D02*
X9609D01*
X55Y-3090D02*
X8884D01*
X55Y-3030D02*
X8824D01*
X55Y-3060D02*
X8854D01*
X55Y-3000D02*
X8794D01*
X55Y-2940D02*
X8734D01*
X55Y-2970D02*
X8764D01*
X55Y-2910D02*
X8704D01*
X55Y-2850D02*
X8644D01*
X55Y-2880D02*
X8674D01*
X55Y-2820D02*
X8614D01*
X55Y-2760D02*
X8554D01*
X55Y-2790D02*
X8584D01*
X55Y-3480D02*
X9274D01*
X55Y-3420D02*
X9214D01*
X55Y-3450D02*
X9244D01*
X55Y-3390D02*
X9184D01*
X55Y-3330D02*
X9124D01*
X55Y-3360D02*
X9154D01*
X55Y-3300D02*
X9094D01*
X55Y-3240D02*
X9034D01*
X55Y-3270D02*
X9064D01*
X55Y-3180D02*
X8974D01*
X55Y-3210D02*
X9004D01*
X55Y-3120D02*
X8914D01*
X55Y-3150D02*
X8944D01*
X5840Y-4145D02*
Y-2732D01*
X8540Y-4145D02*
Y-2746D01*
X8570Y-4145D02*
Y-2776D01*
X8600Y-4145D02*
Y-2806D01*
X8630Y-4145D02*
Y-2836D01*
X8660Y-4145D02*
Y-2866D01*
X5870Y-4145D02*
Y-2734D01*
X5900Y-4145D02*
Y-2728D01*
X5930Y-4145D02*
Y-2714D01*
X5960Y-4145D02*
Y-2688D01*
X8480Y-4145D02*
Y-2686D01*
X8510Y-4145D02*
Y-2716D01*
X8900Y-4145D02*
Y-3106D01*
X8930Y-4145D02*
Y-3136D01*
X8960Y-4145D02*
Y-3166D01*
X8990Y-4145D02*
Y-3196D01*
X9020Y-4145D02*
Y-3226D01*
X9050Y-4145D02*
Y-3256D01*
X8690Y-4145D02*
Y-2896D01*
X8720Y-4145D02*
Y-2926D01*
X8750Y-4145D02*
Y-2956D01*
X8780Y-4145D02*
Y-2986D01*
X8810Y-4145D02*
Y-3016D01*
X8840Y-4145D02*
Y-3046D01*
X8870Y-4145D02*
Y-3076D01*
X9080Y-4145D02*
Y-3286D01*
X9110Y-4145D02*
Y-3316D01*
X9096Y-3090D02*
X9708D01*
X9140Y-4145D02*
Y-3346D01*
X9170Y-4145D02*
Y-3376D01*
X9200Y-4145D02*
Y-3406D01*
X9110Y-3104D02*
Y-2698D01*
X9066Y-3060D02*
X9701D01*
X9036Y-3030D02*
X9702D01*
X9200Y-3194D02*
Y-2734D01*
X9140Y-3134D02*
Y-2719D01*
X9170Y-3164D02*
Y-2730D01*
X9126Y-3120D02*
X9729D01*
X9006Y-3000D02*
X9713D01*
X8976Y-2970D02*
X9740D01*
X9216Y-3210D02*
X10176D01*
X9186Y-3180D02*
X10177D01*
X9156Y-3150D02*
X10188D01*
X8826Y-2820D02*
X12040D01*
X8796Y-2790D02*
X15445D01*
X8766Y-2760D02*
X15445D01*
X8946Y-2940D02*
X9805D01*
X8916Y-2910D02*
X12040D01*
X8886Y-2880D02*
X12040D01*
X8856Y-2850D02*
X12040D01*
X5990Y-4145D02*
Y-2679D01*
X6020Y-4145D02*
Y-2679D01*
X6050Y-4145D02*
Y-2679D01*
X6080Y-4145D02*
Y-2679D01*
X6110Y-4145D02*
Y-2679D01*
X6140Y-4145D02*
Y-2679D01*
X6170Y-4145D02*
Y-2679D01*
X6200Y-4145D02*
Y-2679D01*
X6230Y-4145D02*
Y-2679D01*
X6260Y-4145D02*
Y-2679D01*
X6290Y-4145D02*
Y-2679D01*
X6320Y-4145D02*
Y-2679D01*
X6350Y-4145D02*
Y-2679D01*
X6380Y-4145D02*
Y-2679D01*
X6410Y-4145D02*
Y-2679D01*
X6440Y-4145D02*
Y-2679D01*
X6470Y-4145D02*
Y-2679D01*
X6500Y-4145D02*
Y-2679D01*
X6530Y-4145D02*
Y-2679D01*
X6560Y-4145D02*
Y-2679D01*
X6590Y-4145D02*
Y-2679D01*
X6620Y-4145D02*
Y-2679D01*
X6650Y-4145D02*
Y-2679D01*
X6680Y-4145D02*
Y-2679D01*
X6710Y-4145D02*
Y-2679D01*
X6740Y-4145D02*
Y-2679D01*
X6770Y-4145D02*
Y-2679D01*
X6800Y-4145D02*
Y-2679D01*
X6830Y-4145D02*
Y-2679D01*
X6860Y-4145D02*
Y-2679D01*
X6890Y-4145D02*
Y-2679D01*
X6920Y-4145D02*
Y-2679D01*
X6950Y-4145D02*
Y-2679D01*
X6980Y-4145D02*
Y-2679D01*
X7010Y-4145D02*
Y-2679D01*
X7040Y-4145D02*
Y-2679D01*
X7070Y-4145D02*
Y-2679D01*
X7100Y-4145D02*
Y-2679D01*
X7130Y-4145D02*
Y-2679D01*
X7160Y-4145D02*
Y-2679D01*
X7190Y-4145D02*
Y-2679D01*
X7220Y-4145D02*
Y-2679D01*
X7250Y-4145D02*
Y-2679D01*
X7280Y-4145D02*
Y-2679D01*
X7310Y-4145D02*
Y-2679D01*
X7340Y-4145D02*
Y-2679D01*
X7370Y-4145D02*
Y-2679D01*
X7400Y-4145D02*
Y-2679D01*
X7430Y-4145D02*
Y-2679D01*
X7460Y-4145D02*
Y-2679D01*
X7490Y-4145D02*
Y-2679D01*
X7520Y-4145D02*
Y-2679D01*
X7550Y-4145D02*
Y-2679D01*
X7580Y-4145D02*
Y-2679D01*
X7610Y-4145D02*
Y-2679D01*
X7640Y-4145D02*
Y-2679D01*
X7670Y-4145D02*
Y-2679D01*
X7700Y-4145D02*
Y-2679D01*
X7730Y-4145D02*
Y-2679D01*
X7760Y-4145D02*
Y-2679D01*
X7790Y-4145D02*
Y-2679D01*
X7820Y-4145D02*
Y-2679D01*
X7850Y-4145D02*
Y-2679D01*
X7880Y-4145D02*
Y-2679D01*
X7910Y-4145D02*
Y-2679D01*
X7940Y-4145D02*
Y-2679D01*
X7970Y-4145D02*
Y-2679D01*
X8000Y-4145D02*
Y-2679D01*
X8030Y-4145D02*
Y-2679D01*
X8060Y-4145D02*
Y-2679D01*
X8090Y-4145D02*
Y-2679D01*
X8120Y-4145D02*
Y-2679D01*
X8150Y-4145D02*
Y-2679D01*
X8180Y-4145D02*
Y-2679D01*
X8210Y-4145D02*
Y-2679D01*
X8240Y-4145D02*
Y-2679D01*
X8270Y-4145D02*
Y-2679D01*
X8300Y-4145D02*
Y-2679D01*
X8330Y-4145D02*
Y-2679D01*
X8360Y-4145D02*
Y-2679D01*
X8390Y-4145D02*
Y-2679D01*
X8420Y-4145D02*
Y-2679D01*
X8450Y-4145D02*
Y-2679D01*
X8750Y-2744D02*
Y-2020D01*
X8780Y-2774D02*
Y-2020D01*
X8473Y-2679D02*
X9585Y-3791D01*
X8810Y-2804D02*
Y-2020D01*
X8557Y-2551D02*
X9691Y-3685D01*
X9080Y-3074D02*
Y-2654D01*
X8840Y-2834D02*
Y-2020D01*
X8930Y-2924D02*
Y-2020D01*
X8870Y-2864D02*
Y-2020D01*
X8900Y-2894D02*
Y-2020D01*
X9020Y-3014D02*
Y-2020D01*
X9050Y-3044D02*
Y-2020D01*
X8960Y-2954D02*
Y-2020D01*
X8990Y-2984D02*
Y-2020D01*
X55Y-2730D02*
X3450D01*
X55Y-2700D02*
X3450D01*
X55Y-2670D02*
X3450D01*
X55Y-2640D02*
X3450D01*
X55Y-2220D02*
X3403D01*
X55Y-2250D02*
X3421D01*
X55Y-2190D02*
X3400D01*
X55Y-2160D02*
X3400D01*
X55Y-2130D02*
X3400D01*
X55Y-2100D02*
X3400D01*
X55Y-2040D02*
X3343D01*
X55Y-2070D02*
X3400D01*
X55Y-2610D02*
X3450D01*
X55Y-2580D02*
X3450D01*
X55Y-2550D02*
X3450D01*
X55Y-2520D02*
X3450D01*
X55Y-2490D02*
X3450D01*
X55Y-2460D02*
X3445D01*
X55Y-2430D02*
X3445D01*
X55Y-2400D02*
X3445D01*
X55Y-2370D02*
X3445D01*
X55Y-2340D02*
X3445D01*
X55Y-2310D02*
X3445D01*
X55Y-2280D02*
X3445D01*
X55Y-1950D02*
X1230D01*
X55Y-1920D02*
X1230D01*
X55Y-1890D02*
X1230D01*
X55Y-1860D02*
X1230D01*
X55Y-1830D02*
X1230D01*
X55Y-1800D02*
X1230D01*
X55Y-1770D02*
X1230D01*
X55Y-1740D02*
X1230D01*
X55Y-1710D02*
X1230D01*
X55Y-1680D02*
X1230D01*
X55Y-1320D02*
X355D01*
X55Y-1290D02*
X355D01*
X55Y-2010D02*
X1264D01*
X55Y-1650D02*
X1230D01*
X55Y-1980D02*
X1237D01*
X55Y-1620D02*
X1230D01*
X55Y-1590D02*
X1230D01*
X55Y-1560D02*
X1230D01*
X55Y-1530D02*
X1230D01*
X55Y-1500D02*
X1230D01*
X55Y-1470D02*
X1230D01*
X55Y-1440D02*
X1230D01*
X55Y-1410D02*
X1230D01*
X55Y-1380D02*
X1230D01*
X55Y-1350D02*
X1230D01*
X5250Y-2730D02*
X5322D01*
X5250Y-2700D02*
X5267D01*
X5478Y-2609D02*
Y-2599D01*
X5482Y-2609D02*
Y-2599D01*
X3400Y-2200D02*
Y-2070D01*
X3445Y-2480D02*
Y-2265D01*
X5450Y-2520D02*
Y-2500D01*
X5439Y-2700D02*
X5521D01*
X5429Y-2500D02*
X5500D01*
X5450Y-2520D02*
X5510D01*
X5462Y-2670D02*
X5498D01*
X5474Y-2640D02*
X5486D01*
X5468Y-2550D02*
X5492D01*
X5500Y-2500D02*
Y-2424D01*
Y-2276D02*
Y-2200D01*
Y-2250D02*
X5524D01*
X5510Y-2520D02*
Y-2437D01*
X5500Y-2200D02*
Y-2070D01*
X5510Y-2263D02*
Y-2057D01*
X355Y-1340D02*
X645D01*
Y-1320D02*
X1230D01*
X645Y-1290D02*
X1230D01*
X55Y-1260D02*
X355D01*
X55Y-1230D02*
X355D01*
X645Y-1260D02*
X1230D01*
X645Y-1230D02*
X1230D01*
X1300Y-2020D02*
X3333D01*
X1300D02*
X3333D01*
X1300D02*
X3333D01*
X55Y-1200D02*
X355D01*
X55Y-1170D02*
X355D01*
X55Y-1140D02*
X355D01*
Y-1340D02*
Y-1070D01*
X55Y-1110D02*
X355D01*
X55Y-1080D02*
X355D01*
X55Y-1050D02*
X355D01*
X55Y-1020D02*
X355D01*
X55Y-990D02*
X355D01*
Y-1060D02*
Y-790D01*
X55Y-960D02*
X355D01*
X55Y-930D02*
X355D01*
Y-1070D02*
X645D01*
X55Y-900D02*
X355D01*
X55Y-870D02*
X355D01*
X380Y-1070D02*
Y-1060D01*
X410Y-1070D02*
Y-1060D01*
X355D02*
X645D01*
X55Y-840D02*
X355D01*
X55Y-810D02*
X355D01*
X55Y-780D02*
X425D01*
X355Y-790D02*
X425D01*
X380D02*
Y-55D01*
X55Y-750D02*
X425D01*
X55Y-720D02*
X425D01*
X55Y-660D02*
X402D01*
X55Y-690D02*
X425D01*
X55Y-630D02*
X389D01*
X55Y-600D02*
X385D01*
X55Y-570D02*
X389D01*
X55Y-540D02*
X402D01*
X55Y-510D02*
X428D01*
X55Y-480D02*
X1230D01*
X55Y-450D02*
X1230D01*
X55Y-420D02*
X1230D01*
X55Y-390D02*
X1230D01*
X55Y-360D02*
X1230D01*
X55Y-330D02*
X1230D01*
X55Y-300D02*
X1230D01*
X55Y-270D02*
X1230D01*
X55Y-240D02*
X1230D01*
X55Y-210D02*
X1230D01*
X55Y-180D02*
X1230D01*
X55Y-150D02*
X1230D01*
X55Y-120D02*
X1230D01*
X55Y-90D02*
X1230D01*
X55Y-60D02*
X1230D01*
X55Y-55D02*
X1230D01*
X440Y-1070D02*
Y-1060D01*
X470Y-1070D02*
Y-1060D01*
X645Y-1340D02*
Y-1070D01*
X500D02*
Y-1060D01*
X530Y-1070D02*
Y-1060D01*
X560Y-1070D02*
Y-1060D01*
X590Y-1070D02*
Y-1060D01*
X1230Y-1950D02*
Y-55D01*
X620Y-1070D02*
Y-1060D01*
X645D02*
Y-790D01*
Y-1200D02*
X1230D01*
X645Y-1170D02*
X1230D01*
X645Y-1140D02*
X1230D01*
X645Y-1110D02*
X1230D01*
X645Y-1080D02*
X1230D01*
X645Y-1050D02*
X1230D01*
X645Y-1020D02*
X1230D01*
X645Y-990D02*
X1230D01*
X645Y-960D02*
X1230D01*
X645Y-930D02*
X1230D01*
X645Y-900D02*
X1230D01*
X645Y-870D02*
X1230D01*
X645Y-840D02*
X1230D01*
X410Y-790D02*
Y-672D01*
Y-528D02*
Y-55D01*
X425Y-790D02*
Y-687D01*
X575Y-790D02*
Y-687D01*
X440Y-502D02*
Y-55D01*
X590Y-790D02*
Y-672D01*
X470Y-489D02*
Y-55D01*
X500Y-485D02*
Y-55D01*
X530Y-489D02*
Y-55D01*
X620Y-790D02*
Y-55D01*
X560Y-502D02*
Y-55D01*
X590Y-528D02*
Y-55D01*
X575Y-790D02*
X645D01*
X575Y-780D02*
X1230D01*
X575Y-750D02*
X1230D01*
X645Y-810D02*
X1230D01*
X575Y-720D02*
X1230D01*
X575Y-690D02*
X1230D01*
X598Y-660D02*
X1230D01*
X572Y-510D02*
X1230D01*
X611Y-630D02*
X1230D01*
X615Y-600D02*
X1230D01*
X611Y-570D02*
X1230D01*
X598Y-540D02*
X1230D01*
X5384Y-2730D02*
X5576D01*
X5500Y-2490D02*
X5546D01*
X5728Y-2640D02*
X5736D01*
X5660Y-2486D02*
Y-2469D01*
X5540Y-2493D02*
Y-2461D01*
X5500Y-2460D02*
X5538D01*
X5720Y-2546D02*
Y-2414D01*
X5690Y-2506D02*
Y-2450D01*
X5638Y-2730D02*
X5829D01*
X5693Y-2700D02*
X5773D01*
X5668Y-2490D02*
X5798D01*
X5716Y-2670D02*
X5749D01*
X5722Y-2550D02*
X5743D01*
X5704Y-2520D02*
X5762D01*
X5709Y-2430D02*
X5759D01*
X5676Y-2460D02*
X5792D01*
X5750Y-2536D02*
Y-2418D01*
X5780Y-2502D02*
Y-2452D01*
X5500Y-2220D02*
X5605D01*
X5727Y-2400D02*
X5741D01*
X5540Y-2239D02*
Y-2020D01*
X5570Y-2225D02*
Y-2020D01*
X5600Y-2220D02*
Y-2020D01*
X5630Y-2222D02*
Y-2020D01*
X5720Y-2286D02*
Y-2020D01*
X5660Y-2231D02*
Y-2020D01*
X5690Y-2250D02*
Y-2020D01*
X5609Y-2220D02*
X5859D01*
X5500Y-2190D02*
X9260D01*
X5717Y-2280D02*
X5751D01*
X5690Y-2250D02*
X5778D01*
X5500Y-2160D02*
X9260D01*
X5500Y-2130D02*
X9260D01*
X5500Y-2100D02*
X9260D01*
X5750Y-2282D02*
Y-2020D01*
X5780Y-2248D02*
Y-2020D01*
X5517Y-2040D02*
X9236D01*
X5500Y-2070D02*
X9260D01*
X5893Y-2730D02*
X8524D01*
X5949Y-2700D02*
X8494D01*
X5967Y-2679D02*
X8473D01*
X5960Y-2520D02*
Y-2434D01*
X5967Y-2529D02*
X8504D01*
X5990D02*
Y-2366D01*
X6020Y-2529D02*
Y-2020D01*
X6050Y-2529D02*
Y-2020D01*
X6080Y-2529D02*
Y-2020D01*
X6110Y-2529D02*
Y-2020D01*
X6140Y-2529D02*
Y-2020D01*
X8676Y-2670D02*
X9088D01*
X8616Y-2610D02*
X9070D01*
X8646Y-2640D02*
X9075D01*
X8736Y-2730D02*
X9168D01*
X8706Y-2700D02*
X9112D01*
X5960Y-2520D02*
X9101D01*
X8586Y-2580D02*
X9072D01*
X8556Y-2550D02*
X9082D01*
X9080Y-2554D02*
Y-2480D01*
X5810Y-2484D02*
Y-2470D01*
Y-2230D02*
Y-2020D01*
X5930Y-2494D02*
Y-2460D01*
X9070Y-2480D02*
Y-2220D01*
X5930Y-2460D02*
X9070D01*
X5900Y-2226D02*
Y-2020D01*
X5840Y-2222D02*
Y-2020D01*
X5870Y-2220D02*
Y-2020D01*
X5990Y-2334D02*
Y-2020D01*
X5930Y-2240D02*
Y-2020D01*
X5960Y-2266D02*
Y-2020D01*
X5924Y-2490D02*
X9137D01*
X5963Y-2430D02*
X9070D01*
X5981Y-2400D02*
X9070D01*
X9110Y-2510D02*
Y-2480D01*
X9140Y-2489D02*
Y-2480D01*
X9070D02*
X9161D01*
X5971Y-2280D02*
X9070D01*
X5944Y-2250D02*
X9070D01*
X5863Y-2220D02*
X9070D01*
X5989Y-2370D02*
X9070D01*
X5991Y-2340D02*
X9070D01*
X5985Y-2310D02*
X9070D01*
Y-2220D02*
X9263D01*
X6170Y-2529D02*
Y-2020D01*
X6200Y-2529D02*
Y-2020D01*
X6230Y-2529D02*
Y-2020D01*
X6260Y-2529D02*
Y-2020D01*
X6290Y-2529D02*
Y-2020D01*
X6320Y-2529D02*
Y-2020D01*
X6350Y-2529D02*
Y-2020D01*
X6380Y-2529D02*
Y-2020D01*
X6410Y-2529D02*
Y-2020D01*
X6440Y-2529D02*
Y-2020D01*
X6470Y-2529D02*
Y-2020D01*
X6500Y-2529D02*
Y-2020D01*
X6530Y-2529D02*
Y-2020D01*
X6560Y-2529D02*
Y-2020D01*
X6590Y-2529D02*
Y-2020D01*
X6620Y-2529D02*
Y-2020D01*
X6650Y-2529D02*
Y-2020D01*
X6680Y-2529D02*
Y-2020D01*
X6710Y-2529D02*
Y-2020D01*
X6740Y-2529D02*
Y-2020D01*
X6770Y-2529D02*
Y-2020D01*
X6800Y-2529D02*
Y-2020D01*
X6830Y-2529D02*
Y-2020D01*
X6860Y-2529D02*
Y-2020D01*
X6890Y-2529D02*
Y-2020D01*
X6920Y-2529D02*
Y-2020D01*
X6950Y-2529D02*
Y-2020D01*
X6980Y-2529D02*
Y-2020D01*
X7010Y-2529D02*
Y-2020D01*
X7040Y-2529D02*
Y-2020D01*
X7070Y-2529D02*
Y-2020D01*
X7100Y-2529D02*
Y-2020D01*
X7130Y-2529D02*
Y-2020D01*
X7160Y-2529D02*
Y-2020D01*
X7190Y-2529D02*
Y-2020D01*
X7220Y-2529D02*
Y-2020D01*
X7250Y-2529D02*
Y-2020D01*
X7280Y-2529D02*
Y-2020D01*
X7310Y-2529D02*
Y-2020D01*
X7340Y-2529D02*
Y-2020D01*
X7370Y-2529D02*
Y-2020D01*
X7400Y-2529D02*
Y-2020D01*
X5520D02*
X9230D01*
X5520D02*
X9230D01*
X5520D02*
X9230D01*
X7430Y-2529D02*
Y-2020D01*
X7460Y-2529D02*
Y-2020D01*
X7490Y-2529D02*
Y-2020D01*
X7520Y-2529D02*
Y-2020D01*
X7550Y-2529D02*
Y-2020D01*
X7580Y-2529D02*
Y-2020D01*
X7610Y-2529D02*
Y-2020D01*
X7640Y-2529D02*
Y-2020D01*
X7670Y-2529D02*
Y-2020D01*
X7700Y-2529D02*
Y-2020D01*
X7730Y-2529D02*
Y-2020D01*
X7760Y-2529D02*
Y-2020D01*
X7790Y-2529D02*
Y-2020D01*
X7820Y-2529D02*
Y-2020D01*
X7850Y-2529D02*
Y-2020D01*
X7880Y-2529D02*
Y-2020D01*
X7910Y-2529D02*
Y-2020D01*
X7940Y-2529D02*
Y-2020D01*
X7970Y-2529D02*
Y-2020D01*
X8000Y-2529D02*
Y-2020D01*
X8030Y-2529D02*
Y-2020D01*
X8060Y-2529D02*
Y-2020D01*
X8600Y-2594D02*
Y-2020D01*
X8540Y-2538D02*
Y-2020D01*
X8570Y-2564D02*
Y-2020D01*
X8690Y-2684D02*
Y-2020D01*
X8720Y-2714D02*
Y-2020D01*
X8630Y-2624D02*
Y-2020D01*
X8660Y-2654D02*
Y-2020D01*
X8090Y-2529D02*
Y-2020D01*
X8120Y-2529D02*
Y-2020D01*
X8150Y-2529D02*
Y-2020D01*
X8180Y-2529D02*
Y-2020D01*
X8210Y-2529D02*
Y-2020D01*
X8240Y-2529D02*
Y-2020D01*
X8270Y-2529D02*
Y-2020D01*
X8300Y-2529D02*
Y-2020D01*
X8330Y-2529D02*
Y-2020D01*
X8360Y-2529D02*
Y-2020D01*
X8390Y-2529D02*
Y-2020D01*
X8420Y-2529D02*
Y-2020D01*
X8450Y-2529D02*
Y-2020D01*
X8480Y-2529D02*
Y-2020D01*
X8510Y-2529D02*
Y-2020D01*
X9080Y-2220D02*
Y-2020D01*
X9110Y-2220D02*
Y-2020D01*
X9140Y-2220D02*
Y-2020D01*
X9170Y-2220D02*
Y-2020D01*
X9200Y-2220D02*
Y-2020D01*
X9500Y-4145D02*
Y-3706D01*
X9530Y-4145D02*
Y-3736D01*
X9560Y-4145D02*
Y-3766D01*
X9590Y-4145D02*
Y-3833D01*
X9620Y-4145D02*
Y-3883D01*
X9650Y-4145D02*
Y-3904D01*
X9320Y-4145D02*
Y-3526D01*
X9350Y-4145D02*
Y-3556D01*
X9380Y-4145D02*
Y-3586D01*
X9410Y-4145D02*
Y-3616D01*
X9440Y-4145D02*
Y-3646D01*
X9470Y-4145D02*
Y-3676D01*
X10940Y-4145D02*
Y-4009D01*
X10970Y-4145D02*
Y-4031D01*
X11000Y-4145D02*
Y-4043D01*
X11030Y-4145D02*
Y-4049D01*
X11060Y-4145D02*
Y-4049D01*
X11090Y-4145D02*
Y-4043D01*
X9680Y-4145D02*
Y-3913D01*
X9710Y-4145D02*
Y-3915D01*
X9740Y-4145D02*
Y-3908D01*
X9770Y-4145D02*
Y-3891D01*
X9800Y-4145D02*
Y-3857D01*
X10910Y-4145D02*
Y-3971D01*
X9757Y-3900D02*
X10890D01*
X9791Y-3870D02*
X10892D01*
X9808Y-3840D02*
X10900D01*
X9815Y-3810D02*
X10915D01*
X9813Y-3780D02*
X10941D01*
X9546Y-3540D02*
X10953D01*
X9804Y-3750D02*
X10990D01*
X10940Y-3781D02*
Y-3529D01*
X10970Y-3759D02*
Y-3551D01*
X11000Y-3747D02*
Y-3563D01*
X9666Y-3660D02*
X11120D01*
X9734Y-3690D02*
X11156D01*
X11120Y-4145D02*
Y-4031D01*
Y-3759D02*
Y-3660D01*
X11100Y-3750D02*
X11720D01*
X9636Y-3630D02*
X11105D01*
X9606Y-3600D02*
X11100D01*
X9576Y-3570D02*
X11105D01*
X11030Y-3741D02*
Y-3569D01*
X11060Y-3741D02*
Y-3569D01*
X11090Y-3747D02*
Y-3563D01*
X11150Y-4145D02*
Y-4009D01*
X11180Y-4145D02*
Y-3971D01*
X11210Y-4145D02*
Y-3700D01*
X11240Y-4145D02*
Y-3692D01*
X11270Y-4145D02*
Y-3671D01*
X11630Y-4145D02*
Y-3950D01*
X11360Y-4145D02*
Y-3520D01*
X11390Y-4145D02*
Y-3520D01*
X11420Y-4145D02*
Y-3520D01*
X11450Y-4145D02*
Y-3520D01*
X11480Y-4145D02*
Y-3520D01*
X11510Y-4145D02*
Y-3520D01*
X11720Y-4145D02*
Y-4040D01*
X11137Y-4020D02*
X11683D01*
X11750Y-4145D02*
Y-4048D01*
X11780Y-4145D02*
Y-4050D01*
X11810Y-4145D02*
Y-4046D01*
X11840Y-4145D02*
Y-4036D01*
X11660Y-4145D02*
Y-3999D01*
X11690Y-4145D02*
Y-4025D01*
X11870Y-4145D02*
Y-4017D01*
X11900Y-4145D02*
Y-3987D01*
X11930Y-4145D02*
Y-3898D01*
X11196Y-3930D02*
X11624D01*
X11150Y-3781D02*
Y-3687D01*
X11180Y-3819D02*
Y-3698D01*
X11200Y-3900D02*
X11620D01*
X11198Y-3870D02*
X11622D01*
X11325Y-3550D02*
Y-3520D01*
X11330D02*
X11410D01*
X11330D02*
X11410D01*
X11410D02*
X11490D01*
X11410D02*
X11490D01*
X11167Y-3990D02*
X11653D01*
X11175Y-3810D02*
X11645D01*
X11149Y-3780D02*
X11671D01*
X11186Y-3960D02*
X11634D01*
X11190Y-3840D02*
X11630D01*
X11750Y-3742D02*
Y-3568D01*
X11690Y-3765D02*
Y-3545D01*
X11325Y-3540D02*
X11683D01*
X11720Y-3750D02*
Y-3560D01*
X11840Y-3754D02*
Y-3556D01*
X11870Y-3772D02*
Y-3538D01*
X11780Y-3740D02*
Y-3570D01*
X11810Y-3744D02*
Y-3566D01*
X9230Y-4145D02*
Y-3436D01*
X9260Y-4145D02*
Y-3466D01*
X9290Y-4145D02*
Y-3496D01*
X9830Y-4145D02*
Y-3145D01*
X9770Y-3709D02*
Y-3145D01*
X9800Y-3743D02*
Y-3150D01*
X9860Y-4145D02*
Y-3130D01*
X9740Y-3692D02*
Y-3130D01*
X9890Y-4145D02*
Y-3094D01*
X9920Y-4145D02*
Y-3075D01*
X9950Y-4145D02*
Y-3075D01*
X9980Y-4145D02*
Y-3075D01*
X10190Y-4145D02*
Y-3253D01*
X10220Y-4145D02*
Y-3283D01*
X10250Y-4145D02*
Y-3297D01*
X10280Y-4145D02*
Y-3300D01*
X10310Y-4145D02*
Y-3294D01*
X10340Y-4145D02*
Y-3276D01*
X10010Y-4145D02*
Y-3075D01*
X10040Y-4145D02*
Y-3075D01*
X10070Y-4145D02*
Y-3075D01*
X10100Y-4145D02*
Y-3075D01*
X10130Y-4145D02*
Y-3075D01*
X10160Y-4145D02*
Y-3075D01*
X9380Y-3374D02*
Y-2750D01*
X9320Y-3314D02*
Y-2750D01*
X9350Y-3344D02*
Y-2750D01*
X9470Y-3464D02*
Y-2750D01*
X9410Y-3404D02*
Y-2750D01*
X9440Y-3434D02*
Y-2750D01*
X9530Y-3524D02*
Y-2750D01*
X9290Y-3284D02*
Y-2698D01*
X9500Y-3494D02*
Y-2750D01*
X9620Y-3614D02*
Y-2750D01*
X9560Y-3554D02*
Y-2750D01*
X9590Y-3584D02*
Y-2750D01*
X9426Y-3420D02*
X10890D01*
X9396Y-3390D02*
X10892D01*
X9366Y-3360D02*
X10900D01*
X9516Y-3510D02*
X10923D01*
X9456Y-3450D02*
X10894D01*
X9486Y-3480D02*
X10904D01*
X9336Y-3330D02*
X10915D01*
X9276Y-3270D02*
X10204D01*
X9306Y-3300D02*
X10941D01*
X9680Y-3674D02*
Y-2750D01*
X9710Y-3685D02*
Y-3094D01*
X9650Y-3644D02*
Y-2750D01*
X10370Y-4145D02*
Y-3231D01*
X10400Y-4145D02*
Y-3181D01*
X10430Y-4145D02*
Y-3175D01*
X10460Y-4145D02*
Y-3175D01*
X10490Y-4145D02*
Y-3175D01*
X10520Y-4145D02*
Y-3175D01*
X10550Y-4145D02*
Y-3175D01*
X10580Y-4145D02*
Y-3175D01*
X10610Y-4145D02*
Y-3175D01*
X10640Y-4145D02*
Y-3175D01*
X10670Y-4145D02*
Y-3175D01*
X10700Y-4145D02*
Y-3175D01*
X11540Y-4145D02*
Y-3520D01*
X10910Y-3819D02*
Y-3491D01*
X11570Y-4145D02*
Y-3520D01*
X11600Y-4145D02*
Y-3520D01*
X11630Y-3840D02*
Y-3520D01*
X11900Y-3803D02*
Y-3507D01*
X10730Y-4145D02*
Y-3175D01*
X10760Y-4145D02*
Y-3175D01*
X10790Y-4145D02*
Y-3175D01*
X10820Y-4145D02*
Y-3175D01*
X10850Y-4145D02*
Y-3175D01*
X10880Y-4145D02*
Y-3175D01*
X11930Y-3892D02*
Y-3418D01*
X10910Y-3339D02*
Y-3175D01*
X10346Y-3270D02*
X10990D01*
X10940Y-3301D02*
Y-3175D01*
X11149Y-3300D02*
X11170D01*
X10970Y-3279D02*
Y-3175D01*
X11000Y-3267D02*
Y-3175D01*
X11120Y-3279D02*
Y-3175D01*
X11170Y-3323D02*
Y-3175D01*
X11150Y-3301D02*
Y-3175D01*
X11490Y-3520D02*
X11570D01*
X11490D02*
X11570D01*
X11650D01*
X11660Y-3791D02*
Y-3519D01*
X11650Y-3520D02*
Y-3507D01*
Y-3323D02*
Y-3130D01*
X11660Y-3311D02*
Y-2020D01*
X11650Y-3300D02*
X11671D01*
X11870Y-3292D02*
Y-2020D01*
X11900Y-3323D02*
Y-2020D01*
X11690Y-3285D02*
Y-2020D01*
X11840Y-3274D02*
Y-2020D01*
X12050Y-4145D02*
Y-3455D01*
X12080Y-4145D02*
Y-3455D01*
X12110Y-4145D02*
Y-3455D01*
X12140Y-4145D02*
Y-3455D01*
X12170Y-4145D02*
Y-3455D01*
X12200Y-4145D02*
Y-3455D01*
X12230Y-4145D02*
Y-3455D01*
X12260Y-4145D02*
Y-3455D01*
X12290Y-4145D02*
Y-3455D01*
X12320Y-4145D02*
Y-3455D01*
X12350Y-4145D02*
Y-3455D01*
X12560Y-4145D02*
Y-3397D01*
X11867Y-4020D02*
X15445D01*
X11897Y-3990D02*
X15445D01*
X11916Y-3960D02*
X15445D01*
X12770Y-4145D02*
Y-3551D01*
X12800Y-4145D02*
Y-3581D01*
X11926Y-3930D02*
X15445D01*
X12590Y-4145D02*
Y-3423D01*
X12620Y-4145D02*
Y-3436D01*
X12650Y-4145D02*
Y-3440D01*
X12680Y-4145D02*
Y-3461D01*
X12710Y-4145D02*
Y-3491D01*
X12740Y-4145D02*
Y-3521D01*
X11322Y-3570D02*
X12789D01*
X11897Y-3510D02*
X12729D01*
X11867Y-3540D02*
X12759D01*
X11916Y-3480D02*
X12699D01*
X11926Y-3450D02*
X12040D01*
Y-3455D02*
X12360D01*
X11930Y-3420D02*
X12040D01*
X11928Y-3390D02*
X12040D01*
X12360Y-3450D02*
X12669D01*
X12360Y-3390D02*
X12555D01*
X12360Y-3420D02*
X12585D01*
X11905Y-3810D02*
X15445D01*
X11879Y-3780D02*
X15445D01*
X11830Y-3750D02*
X15445D01*
X11930Y-3900D02*
X15445D01*
X11928Y-3870D02*
X15445D01*
X11920Y-3840D02*
X15445D01*
X9783Y-3720D02*
X15445D01*
X11244Y-3690D02*
X15445D01*
X11280Y-3660D02*
X15445D01*
X11295Y-3630D02*
X15445D01*
X11306Y-3600D02*
X15445D01*
X12659Y-3440D02*
X12797Y-3578D01*
X12830Y-4145D02*
Y-3597D01*
X12860Y-4145D02*
Y-3600D01*
X12890Y-4145D02*
Y-3600D01*
X12920Y-4145D02*
Y-3600D01*
X12950Y-4145D02*
Y-3600D01*
X12980Y-4145D02*
Y-3600D01*
X13010Y-4145D02*
Y-3600D01*
X13040Y-4145D02*
Y-3600D01*
X13070Y-4145D02*
Y-3600D01*
X13100Y-4145D02*
Y-3600D01*
X13130Y-4145D02*
Y-3600D01*
X13160Y-4145D02*
Y-3600D01*
X13190Y-4145D02*
Y-3600D01*
X13220Y-4145D02*
Y-3600D01*
X13250Y-4145D02*
Y-3600D01*
X13280Y-4145D02*
Y-3600D01*
X13310Y-4145D02*
Y-3599D01*
X13340Y-4145D02*
Y-3588D01*
X13370Y-4145D02*
Y-3561D01*
X13400Y-4145D02*
Y-3531D01*
X13430Y-4145D02*
Y-3501D01*
X13460Y-4145D02*
Y-3471D01*
X13490Y-4145D02*
Y-3441D01*
X13520Y-4145D02*
Y-3411D01*
X13550Y-4145D02*
Y-3381D01*
X13250Y-3450D02*
X13269D01*
X12850Y-3600D02*
X13300D01*
X13250Y-3420D02*
X13299D01*
X13760Y-4145D02*
Y-3390D01*
X13250Y-3390D02*
X13329D01*
X13790Y-4145D02*
Y-3390D01*
X13820Y-4145D02*
Y-3390D01*
X13850Y-4145D02*
Y-3390D01*
X13880Y-4145D02*
Y-3390D01*
X13361Y-3570D02*
X15445D01*
X13391Y-3540D02*
X15445D01*
X13421Y-3510D02*
X15445D01*
X13451Y-3480D02*
X15445D01*
X13481Y-3450D02*
X15445D01*
X13511Y-3420D02*
X15445D01*
X13910Y-4145D02*
Y-3390D01*
X13730D02*
X14020D01*
X13541Y-3390D02*
X15445D01*
X13940Y-4145D02*
Y-3390D01*
X13970Y-4145D02*
Y-3390D01*
X14000Y-4145D02*
Y-3390D01*
X14180Y-4145D02*
Y-3363D01*
X12380Y-4145D02*
Y-3261D01*
X12360Y-3455D02*
Y-3281D01*
X12410Y-4145D02*
Y-3231D01*
X12440Y-4145D02*
Y-3225D01*
X12470Y-4145D02*
Y-3225D01*
X11960Y-4145D02*
Y-2020D01*
X11990Y-4145D02*
Y-2020D01*
X12020Y-4145D02*
Y-2020D01*
X12500Y-4145D02*
Y-3225D01*
X12040Y-3455D02*
Y-3215D01*
X12530Y-4145D02*
Y-3225D01*
X13580Y-4145D02*
Y-3351D01*
X13610Y-4145D02*
Y-3321D01*
X13640Y-4145D02*
Y-3291D01*
X13670Y-4145D02*
Y-3261D01*
X14030Y-4145D02*
Y-3325D01*
X14060Y-4145D02*
Y-3325D01*
X13250Y-3450D02*
Y-3215D01*
X13280Y-3439D02*
Y-2020D01*
X13269Y-3450D02*
X13572Y-3147D01*
X13700Y-4145D02*
Y-3231D01*
X13353Y-3578D02*
X13678Y-3253D01*
X13730Y-4145D02*
Y-3201D01*
X11920Y-3360D02*
X12040D01*
X11905Y-3330D02*
X12040D01*
X11879Y-3300D02*
X12040D01*
X12360Y-3360D02*
X12540D01*
X12360Y-3330D02*
X12535D01*
X13250Y-3360D02*
X13359D01*
X11930Y-3412D02*
Y-2020D01*
X12360Y-3300D02*
X12538D01*
X13310Y-3409D02*
Y-2020D01*
X12360Y-3281D02*
X12416Y-3225D01*
X13340Y-3379D02*
Y-2020D01*
X13571Y-3360D02*
X13730D01*
X13250Y-3330D02*
X13389D01*
X13601D02*
X13730D01*
X14020Y-3390D02*
Y-3325D01*
Y-3330D02*
X14117D01*
X14020Y-3360D02*
X14167D01*
X13370Y-3349D02*
Y-2020D01*
X13400Y-3319D02*
Y-2020D01*
X13250Y-3300D02*
X13419D01*
X13730Y-3390D02*
Y-3201D01*
X14020Y-3325D02*
X14113D01*
X13430Y-3289D02*
Y-2020D01*
X13631Y-3300D02*
X13730D01*
X14090Y-4145D02*
Y-3325D01*
X14120Y-4145D02*
Y-3333D01*
X14150Y-4145D02*
Y-3354D01*
X14210Y-4145D02*
Y-3365D01*
X14240Y-4145D02*
Y-3358D01*
X14270Y-4145D02*
Y-3341D01*
X14300Y-4145D02*
Y-3307D01*
X14330Y-4145D02*
Y-2020D01*
X14360Y-4145D02*
Y-2020D01*
X14390Y-4145D02*
Y-2020D01*
X14420Y-4145D02*
Y-2020D01*
X14450Y-4145D02*
Y-2020D01*
X14480Y-4145D02*
Y-2020D01*
X14510Y-4145D02*
Y-2020D01*
X14540Y-4145D02*
Y-2020D01*
X14570Y-4145D02*
Y-2020D01*
X14600Y-4145D02*
Y-2020D01*
X14630Y-4145D02*
Y-2020D01*
X14660Y-4145D02*
Y-2020D01*
X14690Y-4145D02*
Y-2020D01*
X14720Y-4145D02*
Y-2020D01*
X14750Y-4145D02*
Y-2020D01*
X14780Y-4145D02*
Y-2020D01*
X14810Y-4145D02*
Y-2020D01*
X14840Y-4145D02*
Y-2020D01*
X14870Y-4145D02*
Y-2020D01*
X14900Y-4145D02*
Y-2020D01*
X14930Y-4145D02*
Y-2020D01*
X14960Y-4145D02*
Y-2020D01*
X14990Y-4145D02*
Y-2020D01*
X15020Y-4145D02*
Y-2020D01*
X15050Y-4145D02*
Y-2020D01*
X15080Y-4145D02*
Y-2020D01*
X15110Y-4145D02*
Y-2020D01*
X15140Y-4145D02*
Y-2020D01*
X15170Y-4145D02*
Y-2020D01*
X14233Y-3360D02*
X15445D01*
X14283Y-3330D02*
X15445D01*
X14304Y-3300D02*
X15445D01*
X15200Y-4145D02*
Y-2020D01*
X15230Y-4145D02*
Y-2020D01*
X15260Y-4145D02*
Y-2020D01*
X15290Y-4145D02*
Y-2020D01*
X15320Y-4145D02*
Y-2020D01*
X15350Y-4145D02*
Y-2020D01*
X15380Y-4145D02*
Y-2020D01*
X15410Y-4145D02*
Y-2020D01*
X15440Y-4145D02*
Y-2020D01*
X15445Y-4145D02*
Y-2020D01*
X9246Y-3240D02*
X10183D01*
X10190Y-3147D02*
Y-3075D01*
X9871Y-3120D02*
X10215D01*
X9230Y-3224D02*
Y-2730D01*
X9710Y-3006D02*
Y-2750D01*
X9740Y-2970D02*
Y-2750D01*
X9770Y-2955D02*
Y-2750D01*
X9800Y-2944D02*
Y-2750D01*
X9830Y-2928D02*
Y-2750D01*
X10367Y-3240D02*
X11170D01*
X9892Y-3090D02*
X10279D01*
X10374Y-3210D02*
X11170D01*
X10375Y-3206D02*
X10406Y-3175D01*
X10401Y-3180D02*
X11170D01*
X10406Y-3175D02*
X11170D01*
X10220Y-3117D02*
Y-3075D01*
X9897D02*
X10294D01*
X9850Y-2925D02*
X11300D01*
X10250Y-3103D02*
Y-3075D01*
X10280Y-3089D02*
Y-3075D01*
X10269Y-3100D02*
X10294Y-3075D01*
X9860Y-2925D02*
Y-2750D01*
X9890Y-2925D02*
Y-2750D01*
X9920Y-2925D02*
Y-2750D01*
X9950Y-2925D02*
Y-2750D01*
X9980Y-2925D02*
Y-2750D01*
X10010Y-2925D02*
Y-2750D01*
X10040Y-2925D02*
Y-2750D01*
X10070Y-2925D02*
Y-2750D01*
X10100Y-2925D02*
Y-2750D01*
X10130Y-2925D02*
Y-2750D01*
X10160Y-2925D02*
Y-2750D01*
X10190Y-2925D02*
Y-2750D01*
X10220Y-2925D02*
Y-2750D01*
X10250Y-2925D02*
Y-2750D01*
X10280Y-2925D02*
Y-2750D01*
X10310Y-2925D02*
Y-2750D01*
X10340Y-2925D02*
Y-2750D01*
X10370Y-2925D02*
Y-2750D01*
X10400Y-2925D02*
Y-2750D01*
X10430Y-2925D02*
Y-2750D01*
X9300D02*
X11100D01*
X10460Y-2925D02*
Y-2750D01*
X10490Y-2925D02*
Y-2750D01*
X10520Y-2925D02*
Y-2750D01*
X10550Y-2925D02*
Y-2750D01*
X11090Y-3267D02*
Y-3175D01*
X11030Y-3261D02*
Y-3175D01*
X11060Y-3261D02*
Y-3175D01*
X11100Y-3270D02*
X11170D01*
X11490Y-3130D02*
X11570D01*
X11650Y-3270D02*
X11720D01*
X11353Y-2947D02*
X11463Y-3057D01*
X11485Y-3130D02*
Y-3110D01*
X11490Y-3130D02*
X11570D01*
X11650D01*
X11830Y-3270D02*
X12040D01*
X11650Y-3240D02*
X12040D01*
X11650Y-3210D02*
X12219D01*
X12040Y-3215D02*
X12214D01*
X12050D02*
Y-3045D01*
X12080Y-3215D02*
Y-3045D01*
X12110Y-3215D02*
Y-3045D01*
X12040D02*
Y-2805D01*
X11436Y-3030D02*
X12040D01*
X12140Y-3215D02*
Y-3045D01*
X12170Y-3215D02*
Y-3045D01*
X12200Y-3215D02*
Y-3045D01*
X10580Y-2925D02*
Y-2750D01*
X10610Y-2925D02*
Y-2750D01*
X10640Y-2925D02*
Y-2750D01*
X10670Y-2925D02*
Y-2750D01*
X10700Y-2925D02*
Y-2750D01*
X10730Y-2925D02*
Y-2750D01*
X10760Y-2925D02*
Y-2750D01*
X10790Y-2925D02*
Y-2750D01*
X10820Y-2925D02*
Y-2750D01*
X10850Y-2925D02*
Y-2750D01*
X10880Y-2925D02*
Y-2750D01*
X10910Y-2925D02*
Y-2750D01*
X11345Y-2940D02*
X12040D01*
X11406Y-3000D02*
X12040D01*
X11376Y-2970D02*
X12040D01*
X10940Y-2925D02*
Y-2750D01*
X10970Y-2925D02*
Y-2750D01*
X11000Y-2925D02*
Y-2750D01*
X11030Y-2925D02*
Y-2750D01*
X11060Y-2925D02*
Y-2750D01*
X11090Y-2925D02*
Y-2750D01*
X9260Y-3254D02*
Y-2719D01*
X9232Y-2730D02*
X9300D01*
X9288Y-2700D02*
X9300D01*
X11150Y-2925D02*
Y-2705D01*
X11180Y-2925D02*
Y-2723D01*
X11100Y-2730D02*
X11200D01*
X9300Y-2750D02*
Y-2687D01*
X11100Y-2670D02*
X11120D01*
X11100Y-2700D02*
X11144D01*
X11120Y-2925D02*
Y-2670D01*
X11100Y-2750D02*
Y-2649D01*
X11210Y-2925D02*
Y-2732D01*
X11240Y-2925D02*
Y-2734D01*
X11264Y-2730D02*
X11454D01*
X11270Y-2925D02*
Y-2728D01*
X11300Y-2925D02*
Y-2715D01*
X11320Y-2700D02*
X11398D01*
X11330Y-2931D02*
Y-2689D01*
X11300Y-2493D02*
Y-2455D01*
X9260Y-2220D02*
Y-2200D01*
X11170Y-2490D02*
Y-2459D01*
X9260Y-2200D02*
Y-2070D01*
X11180Y-2485D02*
Y-2464D01*
X9230Y-2220D02*
Y-2020D01*
X11170Y-2241D02*
Y-2020D01*
X9260Y-2200D02*
Y-2070D01*
X11180Y-2236D02*
Y-2020D01*
X11295Y-2490D02*
X11423D01*
X11270Y-2480D02*
Y-2469D01*
X11291Y-2460D02*
X11417D01*
X11210Y-2227D02*
Y-2020D01*
X11170Y-2220D02*
X11484D01*
X11300Y-2245D02*
Y-2020D01*
X11307Y-2250D02*
X11403D01*
X11240Y-2225D02*
Y-2020D01*
X11270Y-2231D02*
Y-2020D01*
X11480Y-3083D02*
Y-2734D01*
X11420Y-3014D02*
Y-2716D01*
X11450Y-3044D02*
Y-2729D01*
X11510Y-3130D02*
Y-2732D01*
X11540Y-3130D02*
Y-2722D01*
X11570Y-3130D02*
Y-2703D01*
X11360Y-2954D02*
Y-2636D01*
X11344Y-2670D02*
X11374D01*
X11600Y-3130D02*
Y-2667D01*
X11360Y-2572D02*
Y-2382D01*
X11390Y-2984D02*
Y-2692D01*
X11630Y-3130D02*
Y-2020D01*
X11720Y-3270D02*
Y-2020D01*
X11750Y-3262D02*
Y-2020D01*
X11780Y-3260D02*
Y-2020D01*
X11810Y-3264D02*
Y-2020D01*
X12050Y-2805D02*
Y-2020D01*
X12080Y-2805D02*
Y-2020D01*
X12110Y-2805D02*
Y-2020D01*
X12140Y-2805D02*
Y-2020D01*
X12170Y-2805D02*
Y-2020D01*
X12200Y-2805D02*
Y-2020D01*
X11331Y-2520D02*
X11387D01*
X11330Y-2519D02*
Y-2428D01*
X11328Y-2430D02*
X11384D01*
X11350Y-2550D02*
X11368D01*
X11390Y-2516D02*
Y-2438D01*
X11420Y-2492D02*
Y-2462D01*
X11347Y-2400D02*
X11366D01*
X11330Y-2272D02*
Y-2020D01*
X11336Y-2280D02*
X11376D01*
X11360Y-2318D02*
Y-2020D01*
X11350Y-2310D02*
X11362D01*
X11390Y-2262D02*
Y-2020D01*
X11600Y-2541D02*
Y-2413D01*
X11540Y-2486D02*
Y-2468D01*
X11570Y-2505D02*
Y-2449D01*
X11420Y-2238D02*
Y-2020D01*
X11450Y-2225D02*
Y-2020D01*
X11480Y-2220D02*
Y-2020D01*
X11570Y-2251D02*
Y-2020D01*
X11600Y-2287D02*
Y-2020D01*
X11510Y-2222D02*
Y-2020D01*
X11540Y-2232D02*
Y-2020D01*
X11650Y-3180D02*
X12249D01*
X11650Y-3150D02*
X12279D01*
X11485Y-3120D02*
X12309D01*
X12371Y-3270D02*
X12549D01*
X12560Y-3253D02*
Y-3225D01*
X12416D02*
X12563D01*
X12214Y-3215D02*
X12332Y-3097D01*
X12230Y-3199D02*
Y-3045D01*
X12260Y-3169D02*
Y-3045D01*
X12290Y-3139D02*
Y-3045D01*
X12320Y-3109D02*
Y-3045D01*
X12401Y-3240D02*
X12573D01*
X13011Y-3150D02*
X13569D01*
X13076Y-3215D02*
X13250D01*
X13071Y-3210D02*
X13509D01*
X13041Y-3180D02*
X13539D01*
X12958Y-3097D02*
X13076Y-3215D01*
X12980Y-3119D02*
Y-3045D01*
X12981Y-3120D02*
X13599D01*
X13070Y-3209D02*
Y-3045D01*
X13010Y-3149D02*
Y-3045D01*
X13040Y-3179D02*
Y-3045D01*
X11482Y-3090D02*
X12340D01*
X11466Y-3060D02*
X12578D01*
X12350Y-3084D02*
Y-3045D01*
X12385Y-3075D02*
X12563D01*
X12737D02*
X12905D01*
X12040Y-3045D02*
X12360D01*
Y-3030D02*
X12930D01*
X12360Y-3000D02*
X12930D01*
X12360Y-2970D02*
X12930D01*
X12722Y-3060D02*
X13659D01*
X12950Y-3090D02*
X13629D01*
X12950Y-3090D02*
Y-3045D01*
X12930D02*
X13250D01*
X12360Y-2940D02*
X12930D01*
X12360Y-2910D02*
X12930D01*
X12360Y-2880D02*
X12930D01*
X12360Y-2850D02*
X12930D01*
X13250Y-3270D02*
X13449D01*
X13250Y-3240D02*
X13479D01*
X13661Y-3270D02*
X13730D01*
X13678Y-3253D02*
X13730Y-3201D01*
X13691Y-3240D02*
X13730D01*
X13721Y-3210D02*
X13730D01*
X13100Y-3215D02*
Y-3045D01*
X13130Y-3215D02*
Y-3045D01*
X13160Y-3215D02*
Y-3045D01*
X13190Y-3215D02*
Y-3045D01*
X13220Y-3215D02*
Y-3045D01*
X13250Y-3215D02*
Y-3045D01*
X14020Y-3175D02*
X14113D01*
X14020Y-3150D02*
X14143D01*
X14291Y-3180D02*
X15445D01*
X14313Y-3270D02*
X15445D01*
X14315Y-3240D02*
X15445D01*
X14308Y-3210D02*
X15445D01*
X13572Y-3147D02*
X13730Y-2989D01*
X13811Y-3120D02*
X13821Y-3110D01*
X13811Y-3120D02*
X14020D01*
Y-3175D02*
Y-3120D01*
X13820D02*
Y-3111D01*
X14257Y-3150D02*
X15445D01*
X13850Y-3120D02*
Y-3110D01*
X13250Y-3030D02*
X13689D01*
X13250Y-3000D02*
X13719D01*
X13880Y-3120D02*
Y-3110D01*
X13910Y-3120D02*
Y-3110D01*
X13940Y-3120D02*
Y-3110D01*
X13250Y-2970D02*
X13730D01*
X13250Y-2940D02*
X13730D01*
X13250Y-2910D02*
X13730D01*
Y-2989D02*
Y-2840D01*
X13250Y-2880D02*
X13730D01*
X13250Y-2850D02*
X13730D01*
X13970Y-3120D02*
Y-3110D01*
X14000Y-3120D02*
Y-3110D01*
X13821D02*
X14020D01*
Y-3120D02*
X15445D01*
X14020Y-3090D02*
X15445D01*
X14020Y-3060D02*
X15445D01*
X14020Y-3030D02*
X15445D01*
X14020Y-3000D02*
X15445D01*
X14020Y-2970D02*
X15445D01*
X14020Y-2940D02*
X15445D01*
X14020Y-2910D02*
X15445D01*
X14020Y-2880D02*
X15445D01*
X14020Y-2850D02*
X15445D01*
X12040Y-2805D02*
X12360D01*
X12230D02*
Y-2020D01*
X12260Y-2805D02*
Y-2020D01*
X12360Y-3045D02*
Y-2805D01*
X12290D02*
Y-2020D01*
X12320Y-2805D02*
Y-2020D01*
X12380Y-3075D02*
Y-2020D01*
X12350Y-2805D02*
Y-2020D01*
X12410Y-3075D02*
Y-2020D01*
X12440Y-3075D02*
Y-2020D01*
X12470Y-3075D02*
Y-2020D01*
X12500Y-3075D02*
Y-2020D01*
X12530Y-3075D02*
Y-2020D01*
X12560Y-3075D02*
Y-2020D01*
X12360Y-2820D02*
X12930D01*
X12590Y-3052D02*
Y-2020D01*
X12620Y-3039D02*
Y-2020D01*
X12650Y-3035D02*
Y-2020D01*
X12740Y-3075D02*
Y-2020D01*
X12680Y-3039D02*
Y-2020D01*
X12710Y-3052D02*
Y-2020D01*
X12770Y-3075D02*
Y-2020D01*
X12800Y-3075D02*
Y-2020D01*
X12830Y-3075D02*
Y-2020D01*
X11518Y-2730D02*
X15445D01*
X11574Y-2700D02*
X15445D01*
X11598Y-2670D02*
X15445D01*
X11611Y-2640D02*
X15445D01*
X11616Y-2610D02*
X15445D01*
X11614Y-2580D02*
X15445D01*
X11585Y-2520D02*
X15445D01*
X11549Y-2490D02*
X15445D01*
X11555Y-2460D02*
X15445D01*
X11604Y-2550D02*
X15445D01*
X11588Y-2430D02*
X15445D01*
X11606Y-2400D02*
X15445D01*
X11596Y-2280D02*
X15445D01*
X11569Y-2250D02*
X15445D01*
X11488Y-2220D02*
X15445D01*
X11614Y-2370D02*
X15445D01*
X11616Y-2340D02*
X15445D01*
X11610Y-2310D02*
X15445D01*
X11170Y-2190D02*
X15445D01*
X11170Y-2160D02*
X15445D01*
X11170Y-2130D02*
X15445D01*
X11170Y-2100D02*
X15445D01*
X11170Y-2070D02*
X15445D01*
X11170Y-2040D02*
X15445D01*
X11170Y-2020D02*
X15445D01*
X12860Y-3075D02*
Y-2020D01*
X12890Y-3075D02*
Y-2020D01*
X12920Y-3077D02*
Y-2020D01*
X13460Y-3259D02*
Y-2020D01*
X12930Y-3045D02*
Y-2805D01*
X13250Y-3045D02*
Y-2805D01*
X13490Y-3229D02*
Y-2020D01*
X13520Y-3199D02*
Y-2020D01*
X13550Y-3169D02*
Y-2020D01*
X13580Y-3139D02*
Y-2020D01*
X13610Y-3109D02*
Y-2020D01*
X13640Y-3079D02*
Y-2020D01*
X14020Y-3110D02*
Y-2840D01*
X13670Y-3049D02*
Y-2020D01*
X13700Y-3019D02*
Y-2020D01*
X14030Y-3175D02*
Y-2020D01*
X14060Y-3175D02*
Y-2020D01*
X14090Y-3175D02*
Y-2020D01*
X14120Y-3167D02*
Y-2020D01*
X14150Y-3146D02*
Y-2020D01*
X14180Y-3137D02*
Y-2020D01*
X14270Y-3159D02*
Y-2020D01*
X14300Y-3193D02*
Y-2020D01*
X14210Y-3135D02*
Y-2020D01*
X14240Y-3142D02*
Y-2020D01*
X12930Y-2805D02*
X13250D01*
X12950D02*
Y-2020D01*
X12980Y-2805D02*
Y-2020D01*
X13010Y-2805D02*
Y-2020D01*
X13040Y-2805D02*
Y-2020D01*
X13070Y-2805D02*
Y-2020D01*
X13100Y-2805D02*
Y-2020D01*
X13130Y-2805D02*
Y-2020D01*
X13160Y-2805D02*
Y-2020D01*
X13190Y-2805D02*
Y-2020D01*
X13220Y-2805D02*
Y-2020D01*
X13730Y-2840D02*
X14020D01*
X13250Y-2805D02*
Y-2020D01*
X13250Y-2820D02*
X15445D01*
X13730Y-2989D02*
Y-2020D01*
X13760Y-2840D02*
Y-2020D01*
X13790Y-2840D02*
Y-2020D01*
X13820Y-2840D02*
Y-2020D01*
X13850Y-2840D02*
Y-2020D01*
X13880Y-2840D02*
Y-2020D01*
X13910Y-2840D02*
Y-2020D01*
X13940Y-2840D02*
Y-2020D01*
X13970Y-2840D02*
Y-2020D01*
X14000Y-2840D02*
Y-2020D01*
D11*
X11570Y-3325D02*
D03*
X11490D02*
D03*
X11410D02*
D03*
X11330D02*
D03*
X11250D02*
D03*
D12*
X13090Y-3335D02*
D03*
X12200D02*
D03*
X13090Y-2925D02*
D03*
X12200D02*
D03*
D13*
X13875Y-3255D02*
D03*
Y-2975D02*
D03*
X14400Y-1205D02*
D03*
Y-925D02*
D03*
X13900Y-1205D02*
D03*
Y-925D02*
D03*
X13400Y-1205D02*
D03*
Y-925D02*
D03*
X12900Y-1205D02*
D03*
Y-925D02*
D03*
X12400Y-1205D02*
D03*
Y-925D02*
D03*
X11900Y-1205D02*
D03*
Y-925D02*
D03*
X11400Y-1205D02*
D03*
Y-925D02*
D03*
X10900Y-1205D02*
D03*
Y-925D02*
D03*
X9200Y-1205D02*
D03*
Y-925D02*
D03*
X8700Y-1205D02*
D03*
Y-925D02*
D03*
X8200Y-1205D02*
D03*
Y-925D02*
D03*
X7700Y-1205D02*
D03*
Y-925D02*
D03*
X7200Y-1205D02*
D03*
Y-925D02*
D03*
X6700Y-1205D02*
D03*
Y-925D02*
D03*
X6200Y-1205D02*
D03*
Y-925D02*
D03*
X5700Y-1205D02*
D03*
Y-925D02*
D03*
X4000Y-1205D02*
D03*
Y-925D02*
D03*
X3500Y-1205D02*
D03*
Y-925D02*
D03*
X3000Y-1205D02*
D03*
Y-925D02*
D03*
X2500Y-1205D02*
D03*
Y-925D02*
D03*
X2000Y-1205D02*
D03*
Y-925D02*
D03*
X1500Y-1205D02*
D03*
Y-925D02*
D03*
X500Y-1205D02*
D03*
Y-925D02*
D03*
D14*
X10375Y-3100D02*
X11287D01*
X11330Y-3143D01*
Y-3325D02*
Y-3143D01*
X10275Y-3200D02*
X10375Y-3100D01*
X10724Y-2604D02*
Y-2004D01*
X10978Y-2350D02*
X10980Y-2348D01*
X10724Y-2350D02*
X10978D01*
Y-2604D02*
Y-2350D01*
X10724Y-2604D02*
X10978D01*
X10720Y-2000D02*
X10724Y-2004D01*
X10980Y-2348D02*
Y-2000D01*
X9200Y-3000D02*
X9850Y-3650D01*
X1000Y-1025D02*
Y-600D01*
X500Y-1205D02*
X820D01*
X4500Y-3750D02*
X9175D01*
X12200Y-2925D02*
X13090D01*
X9850Y-3850D02*
Y-3650D01*
X11250Y-3550D02*
Y-3325D01*
X11200Y-3600D02*
X11250Y-3550D01*
X9850Y-3000D02*
X11300D01*
X9800Y-3050D02*
X9850Y-3000D01*
X11410Y-3325D02*
Y-3110D01*
X11300Y-3000D02*
X11410Y-3110D01*
X11570Y-3130D02*
X11775Y-2925D01*
X9471Y-2875D02*
X11315D01*
X11570Y-3130D01*
X12385Y-3150D02*
X12905D01*
X13090Y-3335D01*
X12200D02*
X12385Y-3150D01*
X13880Y-3250D02*
X14200D01*
X12400Y-925D02*
Y-600D01*
X11900Y-925D02*
Y-600D01*
X11400Y-925D02*
Y-600D01*
X10900Y-925D02*
Y-600D01*
X9200Y-925D02*
Y-600D01*
X8700Y-925D02*
Y-600D01*
X8200Y-925D02*
Y-600D01*
X4000Y-925D02*
Y-600D01*
X3500Y-925D02*
Y-600D01*
X3000Y-925D02*
Y-600D01*
X13875Y-3255D02*
X13880Y-3250D01*
X12850Y-3525D02*
X13300D01*
X13625Y-3200D01*
X13625D02*
X13850Y-2975D01*
X820Y-1205D02*
X1000Y-1025D01*
X9175Y-3750D02*
X9375Y-3950D01*
X9750D01*
X9850Y-3850D01*
X1500Y-925D02*
Y-600D01*
X2000Y-925D02*
Y-600D01*
X2500Y-925D02*
Y-600D01*
X5700Y-925D02*
Y-600D01*
X6200Y-925D02*
Y-600D01*
X6700Y-925D02*
Y-600D01*
X7200Y-925D02*
Y-600D01*
X12900Y-925D02*
Y-600D01*
X13400Y-925D02*
Y-600D01*
X13900Y-925D02*
Y-600D01*
X14400Y-925D02*
Y-600D01*
X12650Y-3325D02*
X12850Y-3525D01*
X8504Y-2604D02*
X9700Y-3800D01*
X5861Y-2604D02*
X8504D01*
X9200D02*
X9471Y-2875D01*
X11570Y-3325D02*
X11615D01*
X11690Y-3250D01*
X11775Y-2925D02*
X12200D01*
X11570Y-3600D02*
Y-3130D01*
X7700Y-925D02*
Y-600D01*
X500Y-925D02*
Y-600D01*
D15*
X9200Y-3000D02*
Y-2604D01*
X9450Y-2346D02*
Y-1205D01*
X9454Y-2604D02*
Y-2350D01*
X9450Y-2346D02*
X9454Y-2350D01*
D16*
X5700Y-1205D02*
X9450D01*
X14670D02*
X14900Y-975D01*
X4295Y-1205D02*
X4500Y-1000D01*
Y-600D01*
X14900Y-975D02*
Y-600D01*
X1500Y-1205D02*
X4295D01*
X10900D02*
X14670D01*
D17*
X1370D02*
X1500D01*
Y-1325D02*
Y-1205D01*
X1630D01*
X2000Y-1325D02*
Y-1205D01*
X1870D02*
X2000D01*
X2130D01*
X2500Y-1325D02*
Y-1205D01*
X2370D02*
X2500D01*
X2630D01*
X2870D02*
X3000D01*
Y-1325D02*
Y-1205D01*
X3130D01*
X3500Y-1325D02*
Y-1205D01*
X3370D02*
X3500D01*
X3630D01*
X4000Y-1325D02*
Y-1205D01*
X3870D02*
X4000D01*
X4130D01*
X1500D02*
Y-1085D01*
X2000Y-1205D02*
Y-1085D01*
X2500Y-1205D02*
Y-1085D01*
X3000Y-1205D02*
Y-1085D01*
X3500Y-1205D02*
Y-1085D01*
X4000Y-1205D02*
Y-1085D01*
X5700Y-1325D02*
Y-1205D01*
X5570D02*
X5700D01*
X5830D01*
X6070D02*
X6200D01*
Y-1325D02*
Y-1205D01*
X6700Y-1325D02*
Y-1205D01*
X6200D02*
X6330D01*
X6570D02*
X6700D01*
X7200Y-1325D02*
Y-1205D01*
X6700D02*
X6830D01*
X7070D02*
X7200D01*
X7330D01*
X7700Y-1325D02*
Y-1205D01*
X5700D02*
Y-1085D01*
X6200Y-1205D02*
Y-1085D01*
X6700Y-1205D02*
Y-1085D01*
X7570Y-1205D02*
X7700D01*
X7830D01*
X7200D02*
Y-1085D01*
X7700Y-1205D02*
Y-1085D01*
X8200Y-1325D02*
Y-1205D01*
X8070D02*
X8200D01*
X8330D01*
X8700Y-1325D02*
Y-1205D01*
X8570D02*
X8700D01*
X8830D01*
X9200Y-1325D02*
Y-1205D01*
X10724Y-2350D02*
X10834D01*
X10724D02*
Y-2235D01*
X10868Y-2350D02*
X10978D01*
Y-2235D01*
X8200Y-1205D02*
Y-1085D01*
X8700Y-1205D02*
Y-1085D01*
X9070Y-1205D02*
X9200D01*
X9330D01*
X9200D02*
Y-1085D01*
X10900Y-1325D02*
Y-1205D01*
X10770D02*
X10900D01*
Y-1085D01*
Y-1205D02*
X11030D01*
X11400Y-1325D02*
Y-1205D01*
X11270D02*
X11400D01*
X11530D01*
X11900Y-1325D02*
Y-1205D01*
X11770D02*
X11900D01*
X12030D01*
X12270D02*
X12400D01*
Y-1325D02*
Y-1205D01*
X12530D01*
X12770D02*
X12900D01*
Y-1325D02*
Y-1205D01*
X13400Y-1325D02*
Y-1205D01*
X12900D02*
X13030D01*
X13270D02*
X13400D01*
X13900Y-1325D02*
Y-1205D01*
X13400D02*
X13530D01*
X13770D02*
X13900D01*
X14030D01*
X14270D02*
X14400D01*
Y-1325D02*
Y-1205D01*
X14530D01*
X11400D02*
Y-1085D01*
X11900Y-1205D02*
Y-1085D01*
X12400Y-1205D02*
Y-1085D01*
X12900Y-1205D02*
Y-1085D01*
X13400Y-1205D02*
Y-1085D01*
X13900Y-1205D02*
Y-1085D01*
X14400Y-1205D02*
Y-1085D01*
X5353Y-2719D02*
Y-2604D01*
X5463D01*
X370Y-1205D02*
X500D01*
Y-1325D02*
Y-1205D01*
X630D01*
X500D02*
Y-1085D01*
X9200Y-2719D02*
Y-2604D01*
X9085D02*
X9200D01*
X11570Y-3505D02*
Y-3325D01*
Y-3145D01*
Y-3325D02*
X11635D01*
X12200Y-3030D02*
Y-2925D01*
X12055D02*
X12200D01*
Y-2820D01*
X11232Y-2719D02*
Y-2604D01*
Y-2489D01*
X12200Y-2925D02*
X12345D01*
X13090Y-3030D02*
Y-2925D01*
X12945D02*
X13090D01*
X13235D01*
X13090D02*
Y-2820D01*
D18*
X11775Y-3895D02*
D03*
X11045D02*
D03*
X11775Y-3415D02*
D03*
X11045D02*
D03*
D19*
X3575Y-2350D02*
D03*
X9200D02*
D03*
D20*
X3575Y-2604D02*
D03*
X3829D02*
D03*
X4083Y-2350D02*
D03*
X4337D02*
D03*
X4591D02*
D03*
X4845D02*
D03*
X5099D02*
D03*
X5353D02*
D03*
Y-2604D02*
D03*
X5607D02*
D03*
X9454Y-2350D02*
D03*
X9708D02*
D03*
X9962D02*
D03*
X10216D02*
D03*
X10470D02*
D03*
X10724D02*
D03*
X10978D02*
D03*
D21*
X3829D02*
D03*
X4083Y-2604D02*
D03*
X4337D02*
D03*
X4591D02*
D03*
X4845D02*
D03*
X5099D02*
D03*
X5607Y-2350D02*
D03*
X5861D02*
D03*
Y-2604D02*
D03*
X9200D02*
D03*
X9454D02*
D03*
X9708D02*
D03*
X9962D02*
D03*
X10216D02*
D03*
X10470D02*
D03*
X10724D02*
D03*
X10978D02*
D03*
X11232D02*
D03*
X11486Y-2350D02*
D03*
Y-2604D02*
D03*
D22*
X11232Y-2350D02*
D03*
D23*
X4500Y-600D02*
D03*
X9700Y-3800D02*
D03*
X1500Y-600D02*
D03*
X2000D02*
D03*
X2500D02*
D03*
X3000D02*
D03*
X3500D02*
D03*
X4000D02*
D03*
X5700D02*
D03*
X6200D02*
D03*
X6700D02*
D03*
X7200D02*
D03*
X7700D02*
D03*
X8200D02*
D03*
X8700D02*
D03*
X9200D02*
D03*
X10900D02*
D03*
X11400D02*
D03*
X11900D02*
D03*
X12400D02*
D03*
X12900D02*
D03*
X13400D02*
D03*
X13900D02*
D03*
X14400D02*
D03*
X500D02*
D03*
X14200Y-3250D02*
D03*
X12650Y-2925D02*
D03*
X12650Y-3325D02*
D03*
Y-3150D02*
D03*
X14900Y-600D02*
D03*
X1000D02*
D03*
X4500Y-3800D02*
D03*
X9200Y-3000D02*
D03*
D24*
X11200Y-3600D02*
D03*
X10275Y-3200D02*
D03*
X9800Y-3050D02*
D03*
M02*
