METRIC,LZ
M48
T1F00S00C0.40
T2F00S00C0.60
T3F00S00C0.90
T4F00S00C1.40
%
T01
X0098Y-00305
X010275Y-0032
X0112Y-0036
T02
X0005Y-0006
X001
X0015
X002
X0025
X003
X0035
X004
X0045
X0057
X0062
X0067
X0045Y-0038
X0097
X0092Y-003
Y-0006
X0087
X0082
X0077
X0072
X0109
X0114
X0119
X0124
X0129
X0134
X0139
X0144
X0142Y-00325
X01265Y-003325
Y-00315
X01265Y-002925
X0149Y-0006
T03
X003575Y-00235
Y-002604
X003829
Y-00235
X004083
Y-002604
X004337
Y-00235
X004591
Y-002604
X004845
Y-00235
X005099
Y-002604
X005353
Y-00235
X005607
Y-002604
X005861
Y-00235
X0092
Y-002604
X009454
Y-00235
X009708
Y-002604
X009962
Y-00235
X010216
Y-002604
X01047
Y-00235
X010724
Y-002604
X010978
Y-00235
X011232
Y-002604
X011486
Y-00235
T04
X011045Y-003895
X011775
Y-003415
X011045
M30
