%FSLAX42Y42*%
%MOMM*%
G71*
G01*
G75*
%ADD10C,0.30*%
%ADD11R,0.50X2.80*%
%ADD12R,2.10X1.30*%
%ADD13R,1.80X1.60*%
%ADD14C,0.40*%
%ADD15C,0.60*%
%ADD16C,0.50*%
%ADD17C,0.25*%
%ADD18C,2.00*%
%ADD19R,1.50X1.50*%
%ADD20O,1.40X1.50*%
%ADD21C,1.50*%
%ADD22C,1.40*%
%ADD23C,1.20*%
%ADD24C,0.90*%
%ADD25R,1.60X1.25*%
%ADD26R,1.10X1.00*%
%ADD27R,1.30X1.50*%
%ADD28R,1.00X0.85*%
%ADD29R,1.50X1.30*%
%ADD30R,1.00X0.50*%
%ADD31R,1.50X0.25*%
%ADD32C,0.80*%
%ADD33C,0.20*%
D10*
X775Y-1650D02*
Y-350D01*
D16*
X9450Y-921D02*
Y-900D01*
X5050Y-1650D02*
Y-350D01*
X5150Y-1650D02*
Y-350D01*
X4750Y-1650D02*
Y-350D01*
X5450Y-1650D02*
Y-350D01*
X5950Y-1650D02*
Y-350D01*
X6450Y-1650D02*
Y-350D01*
X6950Y-1650D02*
Y-350D01*
X7450Y-1650D02*
Y-350D01*
X7950Y-1650D02*
Y-350D01*
X8450Y-1650D02*
Y-350D01*
X8950Y-1650D02*
Y-350D01*
X750Y-4100D02*
X750Y-3325D01*
X750Y-4100D02*
X1250Y-4100D01*
X1250Y-3300D02*
X1250Y-4100D01*
X1750Y-3300D02*
X1750Y-4100D01*
X2250D01*
X2250Y-3300D02*
X2250Y-4100D01*
X2750Y-3300D02*
X2750Y-4100D01*
X3250D01*
X3250Y-3300D02*
X3250Y-4100D01*
X3750Y-3300D02*
X3750Y-4100D01*
X4250D01*
X4250Y-3300D02*
X4250Y-4100D01*
X9450Y-1650D02*
Y-350D01*
X9950Y-1650D02*
Y-350D01*
X4250Y-921D02*
Y-900D01*
X1750Y-1650D02*
Y-350D01*
X2250Y-1650D02*
Y-350D01*
X2750Y-1650D02*
Y-350D01*
X3250Y-1650D02*
Y-350D01*
X3750Y-1650D02*
Y-350D01*
X4250Y-1650D02*
Y-350D01*
X14650Y-921D02*
Y-900D01*
X10250Y-1650D02*
Y-350D01*
X10350Y-1650D02*
Y-350D01*
X9950Y-1650D02*
Y-350D01*
X10650Y-1650D02*
Y-350D01*
X11150Y-1650D02*
Y-350D01*
X11650Y-1650D02*
Y-350D01*
X12150Y-1650D02*
Y-350D01*
X12650Y-1650D02*
Y-350D01*
X13150Y-1650D02*
Y-350D01*
X13650Y-1650D02*
Y-350D01*
X14150Y-1650D02*
Y-350D01*
X14650Y-1650D02*
Y-350D01*
X9950Y-1650D02*
Y-350D01*
X5950Y-4100D02*
Y-3300D01*
Y-4100D02*
X6450D01*
Y-3300D01*
X6950Y-4100D02*
Y-3300D01*
Y-4100D02*
X7450D01*
Y-3300D01*
X7950Y-4100D02*
Y-3300D01*
Y-4100D02*
X8450D01*
Y-3300D01*
X8950D02*
X8950Y-4100D01*
X9450D01*
Y-3325D01*
X5050Y-4100D02*
Y-3300D01*
X5150Y-4100D02*
Y-3300D01*
X4750Y-4100D02*
Y-3300D01*
X5450Y-4100D02*
Y-3300D01*
X227Y-2170D02*
X194Y-2181D01*
X172Y-2203D01*
X161Y-2225D01*
X150Y-2269D01*
Y-2301D01*
X161Y-2345D01*
X172Y-2367D01*
X194Y-2389D01*
X227Y-2400D01*
X249D01*
X281Y-2389D01*
X303Y-2367D01*
X314Y-2345D01*
X325Y-2301D01*
Y-2269D01*
X314Y-2225D01*
X303Y-2203D01*
X281Y-2181D01*
X249Y-2170D01*
X227D01*
X205Y-2181D01*
X183Y-2203D01*
X172Y-2225D01*
X161Y-2269D01*
Y-2301D01*
X172Y-2345D01*
X183Y-2367D01*
X205Y-2389D01*
X227Y-2400D01*
X249D02*
X270Y-2389D01*
X292Y-2367D01*
X303Y-2345D01*
X314Y-2301D01*
Y-2269D01*
X303Y-2225D01*
X292Y-2203D01*
X270Y-2181D01*
X249Y-2170D01*
X390Y-2247D02*
Y-2477D01*
X401Y-2247D02*
Y-2477D01*
Y-2280D02*
X423Y-2258D01*
X445Y-2247D01*
X466D01*
X499Y-2258D01*
X521Y-2280D01*
X532Y-2312D01*
Y-2334D01*
X521Y-2367D01*
X499Y-2389D01*
X466Y-2400D01*
X445D01*
X423Y-2389D01*
X401Y-2367D01*
X466Y-2247D02*
X488Y-2258D01*
X510Y-2280D01*
X521Y-2312D01*
Y-2334D01*
X510Y-2367D01*
X488Y-2389D01*
X466Y-2400D01*
X357Y-2247D02*
X401D01*
X357Y-2477D02*
X434D01*
X575Y-2312D02*
X706D01*
Y-2291D01*
X695Y-2269D01*
X684Y-2258D01*
X662Y-2247D01*
X630D01*
X597Y-2258D01*
X575Y-2280D01*
X564Y-2312D01*
Y-2334D01*
X575Y-2367D01*
X597Y-2389D01*
X630Y-2400D01*
X652D01*
X684Y-2389D01*
X706Y-2367D01*
X695Y-2312D02*
Y-2280D01*
X684Y-2258D01*
X630Y-2247D02*
X608Y-2258D01*
X586Y-2280D01*
X575Y-2312D01*
Y-2334D01*
X586Y-2367D01*
X608Y-2389D01*
X630Y-2400D01*
X774Y-2247D02*
Y-2400D01*
X785Y-2247D02*
Y-2400D01*
Y-2280D02*
X807Y-2258D01*
X840Y-2247D01*
X862D01*
X895Y-2258D01*
X906Y-2280D01*
Y-2400D01*
X862Y-2247D02*
X884Y-2258D01*
X895Y-2280D01*
Y-2400D01*
X741Y-2247D02*
X785D01*
X741Y-2400D02*
X818D01*
X862D02*
X938D01*
X1317Y-2203D02*
X1328Y-2170D01*
Y-2236D01*
X1317Y-2203D01*
X1295Y-2181D01*
X1263Y-2170D01*
X1230D01*
X1197Y-2181D01*
X1175Y-2203D01*
Y-2225D01*
X1186Y-2247D01*
X1197Y-2258D01*
X1219Y-2269D01*
X1284Y-2291D01*
X1306Y-2301D01*
X1328Y-2323D01*
X1175Y-2225D02*
X1197Y-2247D01*
X1219Y-2258D01*
X1284Y-2280D01*
X1306Y-2291D01*
X1317Y-2301D01*
X1328Y-2323D01*
Y-2367D01*
X1306Y-2389D01*
X1273Y-2400D01*
X1241D01*
X1208Y-2389D01*
X1186Y-2367D01*
X1175Y-2334D01*
Y-2400D01*
X1186Y-2367D01*
X1428Y-2247D02*
X1395Y-2258D01*
X1373Y-2280D01*
X1362Y-2312D01*
Y-2334D01*
X1373Y-2367D01*
X1395Y-2389D01*
X1428Y-2400D01*
X1450D01*
X1483Y-2389D01*
X1505Y-2367D01*
X1515Y-2334D01*
Y-2312D01*
X1505Y-2280D01*
X1483Y-2258D01*
X1450Y-2247D01*
X1428D01*
X1406Y-2258D01*
X1384Y-2280D01*
X1373Y-2312D01*
Y-2334D01*
X1384Y-2367D01*
X1406Y-2389D01*
X1428Y-2400D01*
X1450D02*
X1472Y-2389D01*
X1494Y-2367D01*
X1505Y-2334D01*
Y-2312D01*
X1494Y-2280D01*
X1472Y-2258D01*
X1450Y-2247D01*
X1582D02*
Y-2367D01*
X1593Y-2389D01*
X1626Y-2400D01*
X1648D01*
X1681Y-2389D01*
X1703Y-2367D01*
X1593Y-2247D02*
Y-2367D01*
X1604Y-2389D01*
X1626Y-2400D01*
X1703Y-2247D02*
Y-2400D01*
X1714Y-2247D02*
Y-2400D01*
X1549Y-2247D02*
X1593D01*
X1670D02*
X1714D01*
X1703Y-2400D02*
X1747D01*
X1809Y-2247D02*
Y-2400D01*
X1820Y-2247D02*
Y-2400D01*
Y-2312D02*
X1831Y-2280D01*
X1853Y-2258D01*
X1875Y-2247D01*
X1907D01*
X1918Y-2258D01*
Y-2269D01*
X1907Y-2280D01*
X1897Y-2269D01*
X1907Y-2258D01*
X1776Y-2247D02*
X1820D01*
X1776Y-2400D02*
X1853D01*
X2085Y-2280D02*
X2074Y-2291D01*
X2085Y-2301D01*
X2096Y-2291D01*
Y-2280D01*
X2074Y-2258D01*
X2052Y-2247D01*
X2019D01*
X1986Y-2258D01*
X1964Y-2280D01*
X1953Y-2312D01*
Y-2334D01*
X1964Y-2367D01*
X1986Y-2389D01*
X2019Y-2400D01*
X2041D01*
X2074Y-2389D01*
X2096Y-2367D01*
X2019Y-2247D02*
X1997Y-2258D01*
X1975Y-2280D01*
X1964Y-2312D01*
Y-2334D01*
X1975Y-2367D01*
X1997Y-2389D01*
X2019Y-2400D01*
X2142Y-2312D02*
X2273D01*
Y-2291D01*
X2262Y-2269D01*
X2251Y-2258D01*
X2229Y-2247D01*
X2197D01*
X2164Y-2258D01*
X2142Y-2280D01*
X2131Y-2312D01*
Y-2334D01*
X2142Y-2367D01*
X2164Y-2389D01*
X2197Y-2400D01*
X2218D01*
X2251Y-2389D01*
X2273Y-2367D01*
X2262Y-2312D02*
Y-2280D01*
X2251Y-2258D01*
X2197Y-2247D02*
X2175Y-2258D01*
X2153Y-2280D01*
X2142Y-2312D01*
Y-2334D01*
X2153Y-2367D01*
X2175Y-2389D01*
X2197Y-2400D01*
X2548Y-2170D02*
Y-2400D01*
X2559Y-2170D02*
Y-2400D01*
X2515Y-2170D02*
X2647D01*
X2679Y-2181D01*
X2690Y-2192D01*
X2701Y-2214D01*
Y-2247D01*
X2690Y-2269D01*
X2679Y-2280D01*
X2647Y-2291D01*
X2559D01*
X2647Y-2170D02*
X2669Y-2181D01*
X2679Y-2192D01*
X2690Y-2214D01*
Y-2247D01*
X2679Y-2269D01*
X2669Y-2280D01*
X2647Y-2291D01*
X2515Y-2400D02*
X2592D01*
X2765Y-2170D02*
Y-2400D01*
X2776Y-2170D02*
Y-2400D01*
X2732Y-2170D02*
X2809D01*
X2732Y-2400D02*
X2896D01*
Y-2334D01*
X2885Y-2400D01*
X3082Y-2203D02*
X3093Y-2236D01*
Y-2170D01*
X3082Y-2203D01*
X3061Y-2181D01*
X3028Y-2170D01*
X3006D01*
X2973Y-2181D01*
X2951Y-2203D01*
X2940Y-2225D01*
X2929Y-2258D01*
Y-2312D01*
X2940Y-2345D01*
X2951Y-2367D01*
X2973Y-2389D01*
X3006Y-2400D01*
X3028D01*
X3061Y-2389D01*
X3082Y-2367D01*
X3093Y-2345D01*
X3006Y-2170D02*
X2984Y-2181D01*
X2962Y-2203D01*
X2951Y-2225D01*
X2940Y-2258D01*
Y-2312D01*
X2951Y-2345D01*
X2962Y-2367D01*
X2984Y-2389D01*
X3006Y-2400D01*
D17*
X12320Y-3460D02*
Y-2810D01*
Y-3460D02*
X12970D01*
Y-2810D01*
X12320D02*
X12970D01*
X12297Y-3660D02*
X12277Y-3667D01*
X12263Y-3680D01*
X12257Y-3693D01*
X12250Y-3720D01*
Y-3740D01*
X12257Y-3767D01*
X12263Y-3780D01*
X12277Y-3793D01*
X12297Y-3800D01*
X12310D01*
X12330Y-3793D01*
X12343Y-3780D01*
X12350Y-3767D01*
X12357Y-3740D01*
Y-3720D01*
X12350Y-3693D01*
X12343Y-3680D01*
X12330Y-3667D01*
X12310Y-3660D01*
X12297D01*
X12283Y-3667D01*
X12270Y-3680D01*
X12263Y-3693D01*
X12257Y-3720D01*
Y-3740D01*
X12263Y-3767D01*
X12270Y-3780D01*
X12283Y-3793D01*
X12297Y-3800D01*
X12310D02*
X12323Y-3793D01*
X12337Y-3780D01*
X12343Y-3767D01*
X12350Y-3740D01*
Y-3720D01*
X12343Y-3693D01*
X12337Y-3680D01*
X12323Y-3667D01*
X12310Y-3660D01*
X12463Y-3680D02*
X12469Y-3660D01*
Y-3700D01*
X12463Y-3680D01*
X12449Y-3667D01*
X12429Y-3660D01*
X12409D01*
X12389Y-3667D01*
X12376Y-3680D01*
Y-3693D01*
X12383Y-3707D01*
X12389Y-3713D01*
X12403Y-3720D01*
X12443Y-3733D01*
X12456Y-3740D01*
X12469Y-3753D01*
X12376Y-3693D02*
X12389Y-3707D01*
X12403Y-3713D01*
X12443Y-3727D01*
X12456Y-3733D01*
X12463Y-3740D01*
X12469Y-3753D01*
Y-3780D01*
X12456Y-3793D01*
X12436Y-3800D01*
X12416D01*
X12396Y-3793D01*
X12383Y-3780D01*
X12376Y-3760D01*
Y-3800D01*
X12383Y-3780D01*
X12510Y-3660D02*
Y-3800D01*
X12517Y-3660D02*
Y-3800D01*
X12490Y-3660D02*
X12570D01*
X12590Y-3667D01*
X12597Y-3673D01*
X12603Y-3687D01*
Y-3707D01*
X12597Y-3720D01*
X12590Y-3727D01*
X12570Y-3733D01*
X12517D01*
X12570Y-3660D02*
X12583Y-3667D01*
X12590Y-3673D01*
X12597Y-3687D01*
Y-3707D01*
X12590Y-3720D01*
X12583Y-3727D01*
X12570Y-3733D01*
X12490Y-3800D02*
X12537D01*
X12642Y-3660D02*
Y-3800D01*
X12649Y-3660D02*
Y-3800D01*
X12622Y-3660D02*
X12669D01*
X12622Y-3800D02*
X12722D01*
Y-3760D01*
X12715Y-3800D01*
X12835Y-3680D02*
X12842Y-3700D01*
Y-3660D01*
X12835Y-3680D01*
X12822Y-3667D01*
X12802Y-3660D01*
X12789D01*
X12769Y-3667D01*
X12755Y-3680D01*
X12749Y-3693D01*
X12742Y-3713D01*
Y-3747D01*
X12749Y-3767D01*
X12755Y-3780D01*
X12769Y-3793D01*
X12789Y-3800D01*
X12802D01*
X12822Y-3793D01*
X12835Y-3780D01*
X12842Y-3767D01*
X12789Y-3660D02*
X12775Y-3667D01*
X12762Y-3680D01*
X12755Y-3693D01*
X12749Y-3713D01*
Y-3747D01*
X12755Y-3767D01*
X12762Y-3780D01*
X12775Y-3793D01*
X12789Y-3800D01*
X13008Y-3660D02*
Y-3800D01*
X13015Y-3660D02*
Y-3800D01*
X12988Y-3660D02*
X13034D01*
X12988Y-3800D02*
X13088D01*
Y-3760D01*
X13081Y-3800D01*
X13168Y-3660D02*
X13121Y-3800D01*
X13168Y-3660D02*
X13214Y-3800D01*
X13168Y-3680D02*
X13208Y-3800D01*
X13134Y-3760D02*
X13194D01*
X13108Y-3800D02*
X13148D01*
X13188D02*
X13228D01*
X13266Y-3660D02*
Y-3800D01*
X13272Y-3660D02*
Y-3800D01*
X13246Y-3660D02*
X13326D01*
X13346Y-3667D01*
X13352Y-3673D01*
X13359Y-3687D01*
Y-3700D01*
X13352Y-3713D01*
X13346Y-3720D01*
X13326Y-3727D01*
X13272D01*
X13326Y-3660D02*
X13339Y-3667D01*
X13346Y-3673D01*
X13352Y-3687D01*
Y-3700D01*
X13346Y-3713D01*
X13339Y-3720D01*
X13326Y-3727D01*
X13246Y-3800D02*
X13292D01*
X13306Y-3727D02*
X13319Y-3733D01*
X13326Y-3740D01*
X13346Y-3787D01*
X13352Y-3793D01*
X13359D01*
X13366Y-3787D01*
X13319Y-3733D02*
X13326Y-3747D01*
X13339Y-3793D01*
X13346Y-3800D01*
X13359D01*
X13366Y-3787D01*
Y-3780D01*
X13477Y-3680D02*
X13484Y-3700D01*
Y-3660D01*
X13477Y-3680D01*
X13464Y-3667D01*
X13444Y-3660D01*
X13430D01*
X13410Y-3667D01*
X13397Y-3680D01*
X13390Y-3693D01*
X13384Y-3713D01*
Y-3747D01*
X13390Y-3767D01*
X13397Y-3780D01*
X13410Y-3793D01*
X13430Y-3800D01*
X13444D01*
X13464Y-3793D01*
X13477Y-3780D01*
X13430Y-3660D02*
X13417Y-3667D01*
X13404Y-3680D01*
X13397Y-3693D01*
X13390Y-3713D01*
Y-3747D01*
X13397Y-3767D01*
X13404Y-3780D01*
X13417Y-3793D01*
X13430Y-3800D01*
X13477Y-3747D02*
Y-3800D01*
X13484Y-3747D02*
Y-3800D01*
X13457Y-3747D02*
X13504D01*
X13542Y-3660D02*
Y-3800D01*
X13548Y-3660D02*
Y-3800D01*
X13588Y-3700D02*
Y-3753D01*
X13522Y-3660D02*
X13628D01*
Y-3700D01*
X13622Y-3660D01*
X13548Y-3727D02*
X13588D01*
X13522Y-3800D02*
X13628D01*
Y-3760D01*
X13622Y-3800D01*
X13794Y-3660D02*
Y-3800D01*
X13800Y-3660D02*
Y-3800D01*
X13774Y-3660D02*
X13854D01*
X13874Y-3667D01*
X13880Y-3673D01*
X13887Y-3687D01*
Y-3700D01*
X13880Y-3713D01*
X13874Y-3720D01*
X13854Y-3727D01*
Y-3660D02*
X13867Y-3667D01*
X13874Y-3673D01*
X13880Y-3687D01*
Y-3700D01*
X13874Y-3713D01*
X13867Y-3720D01*
X13854Y-3727D01*
X13800D02*
X13854D01*
X13874Y-3733D01*
X13880Y-3740D01*
X13887Y-3753D01*
Y-3773D01*
X13880Y-3787D01*
X13874Y-3793D01*
X13854Y-3800D01*
X13774D01*
X13854Y-3727D02*
X13867Y-3733D01*
X13874Y-3740D01*
X13880Y-3753D01*
Y-3773D01*
X13874Y-3787D01*
X13867Y-3793D01*
X13854Y-3800D01*
X13926Y-3660D02*
Y-3800D01*
X13932Y-3660D02*
Y-3800D01*
X13906Y-3660D02*
X13986D01*
X14006Y-3667D01*
X14012Y-3673D01*
X14019Y-3687D01*
Y-3700D01*
X14012Y-3713D01*
X14006Y-3720D01*
X13986Y-3727D01*
X13932D01*
X13986Y-3660D02*
X13999Y-3667D01*
X14006Y-3673D01*
X14012Y-3687D01*
Y-3700D01*
X14006Y-3713D01*
X13999Y-3720D01*
X13986Y-3727D01*
X13906Y-3800D02*
X13952D01*
X13966Y-3727D02*
X13979Y-3733D01*
X13986Y-3740D01*
X14006Y-3787D01*
X14012Y-3793D01*
X14019D01*
X14026Y-3787D01*
X13979Y-3733D02*
X13986Y-3747D01*
X13999Y-3793D01*
X14006Y-3800D01*
X14019D01*
X14026Y-3787D01*
Y-3780D01*
X14064Y-3660D02*
Y-3800D01*
X14070Y-3660D02*
Y-3800D01*
X14044Y-3660D02*
X14090D01*
X14044Y-3800D02*
X14090D01*
X14209Y-3680D02*
X14216Y-3700D01*
Y-3660D01*
X14209Y-3680D01*
X14196Y-3667D01*
X14176Y-3660D01*
X14162D01*
X14142Y-3667D01*
X14129Y-3680D01*
X14122Y-3693D01*
X14116Y-3713D01*
Y-3747D01*
X14122Y-3767D01*
X14129Y-3780D01*
X14142Y-3793D01*
X14162Y-3800D01*
X14176D01*
X14196Y-3793D01*
X14209Y-3780D01*
X14216Y-3767D01*
X14162Y-3660D02*
X14149Y-3667D01*
X14136Y-3680D01*
X14129Y-3693D01*
X14122Y-3713D01*
Y-3747D01*
X14129Y-3767D01*
X14136Y-3780D01*
X14149Y-3793D01*
X14162Y-3800D01*
X14256Y-3660D02*
Y-3800D01*
X14262Y-3660D02*
Y-3800D01*
X14349Y-3660D02*
X14262Y-3747D01*
X14296Y-3720D02*
X14349Y-3800D01*
X14289Y-3720D02*
X14342Y-3800D01*
X14236Y-3660D02*
X14282D01*
X14322D02*
X14362D01*
X14236Y-3800D02*
X14282D01*
X14322D02*
X14362D01*
X1421Y-1400D02*
Y-1550D01*
X1429Y-1400D02*
Y-1550D01*
X1400Y-1400D02*
X1450D01*
X1400Y-1550D02*
X1450D01*
X1477Y-1429D02*
X1491Y-1421D01*
X1513Y-1400D01*
Y-1550D01*
X1506Y-1407D02*
Y-1550D01*
X1477D02*
X1541D01*
X12350Y-3871D02*
X12336Y-3857D01*
X12314Y-3850D01*
X12286D01*
X12264Y-3857D01*
X12250Y-3871D01*
Y-3886D01*
X12257Y-3900D01*
X12264Y-3907D01*
X12279Y-3914D01*
X12321Y-3929D01*
X12336Y-3936D01*
X12343Y-3943D01*
X12350Y-3957D01*
Y-3979D01*
X12336Y-3993D01*
X12314Y-4000D01*
X12286D01*
X12264Y-3993D01*
X12250Y-3979D01*
X12405Y-3850D02*
Y-3971D01*
X12412Y-3993D01*
X12426Y-4000D01*
X12441D01*
X12384Y-3900D02*
X12434D01*
X12548D02*
Y-4000D01*
Y-3921D02*
X12534Y-3907D01*
X12519Y-3900D01*
X12498D01*
X12484Y-3907D01*
X12469Y-3921D01*
X12462Y-3943D01*
Y-3957D01*
X12469Y-3979D01*
X12484Y-3993D01*
X12498Y-4000D01*
X12519D01*
X12534Y-3993D01*
X12548Y-3979D01*
X12588Y-3900D02*
Y-4000D01*
Y-3943D02*
X12595Y-3921D01*
X12609Y-3907D01*
X12623Y-3900D01*
X12645D01*
X12680Y-3850D02*
Y-3971D01*
X12687Y-3993D01*
X12701Y-4000D01*
X12716D01*
X12658Y-3900D02*
X12708D01*
X12751Y-3850D02*
X12758Y-3857D01*
X12766Y-3850D01*
X12758Y-3843D01*
X12751Y-3850D01*
X12758Y-3900D02*
Y-4000D01*
X12792Y-3900D02*
Y-4000D01*
Y-3929D02*
X12813Y-3907D01*
X12828Y-3900D01*
X12849D01*
X12863Y-3907D01*
X12871Y-3929D01*
Y-4000D01*
X12996Y-3900D02*
Y-4014D01*
X12988Y-4036D01*
X12981Y-4043D01*
X12967Y-4050D01*
X12946D01*
X12931Y-4043D01*
X12996Y-3921D02*
X12981Y-3907D01*
X12967Y-3900D01*
X12946D01*
X12931Y-3907D01*
X12917Y-3921D01*
X12910Y-3943D01*
Y-3957D01*
X12917Y-3979D01*
X12931Y-3993D01*
X12946Y-4000D01*
X12967D01*
X12981Y-3993D01*
X12996Y-3979D01*
X13128Y-3850D02*
X13036D01*
Y-4000D01*
X13128D01*
X13036Y-3921D02*
X13093D01*
X13153Y-3850D02*
Y-4000D01*
X13185Y-3943D02*
X13270D01*
Y-3929D01*
X13263Y-3914D01*
X13256Y-3907D01*
X13242Y-3900D01*
X13221D01*
X13206Y-3907D01*
X13192Y-3921D01*
X13185Y-3943D01*
Y-3957D01*
X13192Y-3979D01*
X13206Y-3993D01*
X13221Y-4000D01*
X13242D01*
X13256Y-3993D01*
X13270Y-3979D01*
X13388Y-3921D02*
X13374Y-3907D01*
X13360Y-3900D01*
X13338D01*
X13324Y-3907D01*
X13310Y-3921D01*
X13303Y-3943D01*
Y-3957D01*
X13310Y-3979D01*
X13324Y-3993D01*
X13338Y-4000D01*
X13360D01*
X13374Y-3993D01*
X13388Y-3979D01*
X13442Y-3850D02*
Y-3971D01*
X13449Y-3993D01*
X13463Y-4000D01*
X13478D01*
X13420Y-3900D02*
X13470D01*
X13499D02*
Y-4000D01*
Y-3943D02*
X13506Y-3921D01*
X13520Y-3907D01*
X13535Y-3900D01*
X13556D01*
X13605D02*
X13591Y-3907D01*
X13577Y-3921D01*
X13570Y-3943D01*
Y-3957D01*
X13577Y-3979D01*
X13591Y-3993D01*
X13605Y-4000D01*
X13627D01*
X13641Y-3993D01*
X13655Y-3979D01*
X13663Y-3957D01*
Y-3943D01*
X13655Y-3921D01*
X13641Y-3907D01*
X13627Y-3900D01*
X13605D01*
X13695D02*
Y-4000D01*
Y-3929D02*
X13717Y-3907D01*
X13731Y-3900D01*
X13753D01*
X13767Y-3907D01*
X13774Y-3929D01*
Y-4000D01*
X13828Y-3850D02*
X13835Y-3857D01*
X13842Y-3850D01*
X13835Y-3843D01*
X13828Y-3850D01*
X13835Y-3900D02*
Y-4000D01*
X13954Y-3921D02*
X13940Y-3907D01*
X13925Y-3900D01*
X13904D01*
X13890Y-3907D01*
X13875Y-3921D01*
X13868Y-3943D01*
Y-3957D01*
X13875Y-3979D01*
X13890Y-3993D01*
X13904Y-4000D01*
X13925D01*
X13940Y-3993D01*
X13954Y-3979D01*
X14065Y-3921D02*
X14057Y-3907D01*
X14036Y-3900D01*
X14015D01*
X13993Y-3907D01*
X13986Y-3921D01*
X13993Y-3936D01*
X14007Y-3943D01*
X14043Y-3950D01*
X14057Y-3957D01*
X14065Y-3971D01*
Y-3979D01*
X14057Y-3993D01*
X14036Y-4000D01*
X14015D01*
X13993Y-3993D01*
X13986Y-3979D01*
X14103Y-3986D02*
X14096Y-3993D01*
X14103Y-4000D01*
X14110Y-3993D01*
X14103Y-3986D01*
X14229Y-3921D02*
X14215Y-3907D01*
X14200Y-3900D01*
X14179D01*
X14165Y-3907D01*
X14150Y-3921D01*
X14143Y-3943D01*
Y-3957D01*
X14150Y-3979D01*
X14165Y-3993D01*
X14179Y-4000D01*
X14200D01*
X14215Y-3993D01*
X14229Y-3979D01*
X14297Y-3900D02*
X14282Y-3907D01*
X14268Y-3921D01*
X14261Y-3943D01*
Y-3957D01*
X14268Y-3979D01*
X14282Y-3993D01*
X14297Y-4000D01*
X14318D01*
X14332Y-3993D01*
X14347Y-3979D01*
X14354Y-3957D01*
Y-3943D01*
X14347Y-3921D01*
X14332Y-3907D01*
X14318Y-3900D01*
X14297D01*
X14387D02*
Y-4000D01*
Y-3929D02*
X14408Y-3907D01*
X14422Y-3900D01*
X14444D01*
X14458Y-3907D01*
X14465Y-3929D01*
Y-4000D01*
Y-3929D02*
X14487Y-3907D01*
X14501Y-3900D01*
X14522D01*
X14537Y-3907D01*
X14544Y-3929D01*
Y-4000D01*
X264Y-1421D02*
Y-1550D01*
X200Y-1486D02*
X329D01*
X355Y-1429D02*
X362Y-1436D01*
X355Y-1443D01*
X348Y-1436D01*
Y-1429D01*
X355Y-1414D01*
X362Y-1407D01*
X384Y-1400D01*
X412D01*
X434Y-1407D01*
X441Y-1414D01*
X448Y-1429D01*
Y-1443D01*
X441Y-1457D01*
X419Y-1471D01*
X384Y-1486D01*
X369Y-1493D01*
X355Y-1507D01*
X348Y-1529D01*
Y-1550D01*
X412Y-1400D02*
X426Y-1407D01*
X434Y-1414D01*
X441Y-1429D01*
Y-1443D01*
X434Y-1457D01*
X412Y-1471D01*
X384Y-1486D01*
X348Y-1536D02*
X355Y-1529D01*
X369D01*
X405Y-1543D01*
X426D01*
X441Y-1536D01*
X448Y-1529D01*
Y-1514D01*
X369Y-1529D02*
X405Y-1550D01*
X434D01*
X441Y-1543D01*
X448Y-1529D01*
X541Y-1414D02*
Y-1550D01*
X584Y-1507D02*
X470D01*
X548Y-1400D01*
Y-1550D01*
X520D02*
X570D01*
X619Y-1400D02*
X669Y-1550D01*
X626Y-1400D02*
X669Y-1529D01*
X719Y-1400D02*
X669Y-1550D01*
X605Y-1400D02*
X648D01*
X691D02*
X733D01*
X6121D02*
Y-1550D01*
X6129Y-1400D02*
Y-1550D01*
X6100Y-1400D02*
X6150D01*
X6100Y-1550D02*
X6150D01*
X6213Y-1400D02*
X6191Y-1407D01*
X6184Y-1421D01*
Y-1443D01*
X6191Y-1457D01*
X6213Y-1464D01*
X6241D01*
X6263Y-1457D01*
X6270Y-1443D01*
Y-1421D01*
X6263Y-1407D01*
X6241Y-1400D01*
X6213D01*
X6199Y-1407D01*
X6191Y-1421D01*
Y-1443D01*
X6199Y-1457D01*
X6213Y-1464D01*
X6241D02*
X6256Y-1457D01*
X6263Y-1443D01*
Y-1421D01*
X6256Y-1407D01*
X6241Y-1400D01*
X6213Y-1464D02*
X6191Y-1471D01*
X6184Y-1479D01*
X6177Y-1493D01*
Y-1521D01*
X6184Y-1536D01*
X6191Y-1543D01*
X6213Y-1550D01*
X6241D01*
X6263Y-1543D01*
X6270Y-1536D01*
X6277Y-1521D01*
Y-1493D01*
X6270Y-1479D01*
X6263Y-1471D01*
X6241Y-1464D01*
X6213D02*
X6199Y-1471D01*
X6191Y-1479D01*
X6184Y-1493D01*
Y-1521D01*
X6191Y-1536D01*
X6199Y-1543D01*
X6213Y-1550D01*
X6241D02*
X6256Y-1543D01*
X6263Y-1536D01*
X6270Y-1521D01*
Y-1493D01*
X6263Y-1479D01*
X6256Y-1471D01*
X6241Y-1464D01*
X5621Y-1400D02*
Y-1550D01*
X5629Y-1400D02*
Y-1550D01*
X5600Y-1400D02*
X5650D01*
X5600Y-1550D02*
X5650D01*
X5677Y-1400D02*
Y-1443D01*
Y-1429D02*
X5684Y-1414D01*
X5699Y-1400D01*
X5713D01*
X5749Y-1421D01*
X5763D01*
X5770Y-1414D01*
X5777Y-1400D01*
X5684Y-1414D02*
X5699Y-1407D01*
X5713D01*
X5749Y-1421D01*
X5777Y-1400D02*
Y-1421D01*
X5770Y-1443D01*
X5741Y-1479D01*
X5734Y-1493D01*
X5727Y-1514D01*
Y-1550D01*
X5770Y-1443D02*
X5734Y-1479D01*
X5727Y-1493D01*
X5720Y-1514D01*
Y-1550D01*
X3946Y-1400D02*
Y-1550D01*
X3954Y-1400D02*
Y-1550D01*
X3925Y-1400D02*
X3975D01*
X3925Y-1550D02*
X3975D01*
X4088Y-1421D02*
X4081Y-1429D01*
X4088Y-1436D01*
X4095Y-1429D01*
Y-1421D01*
X4088Y-1407D01*
X4074Y-1400D01*
X4052D01*
X4031Y-1407D01*
X4016Y-1421D01*
X4009Y-1436D01*
X4002Y-1464D01*
Y-1507D01*
X4009Y-1529D01*
X4024Y-1543D01*
X4045Y-1550D01*
X4059D01*
X4081Y-1543D01*
X4095Y-1529D01*
X4102Y-1507D01*
Y-1500D01*
X4095Y-1479D01*
X4081Y-1464D01*
X4059Y-1457D01*
X4052D01*
X4031Y-1464D01*
X4016Y-1479D01*
X4009Y-1500D01*
X4052Y-1400D02*
X4038Y-1407D01*
X4024Y-1421D01*
X4016Y-1436D01*
X4009Y-1464D01*
Y-1507D01*
X4016Y-1529D01*
X4031Y-1543D01*
X4045Y-1550D01*
X4059D02*
X4074Y-1543D01*
X4088Y-1529D01*
X4095Y-1507D01*
Y-1500D01*
X4088Y-1479D01*
X4074Y-1464D01*
X4059Y-1457D01*
X6621Y-1400D02*
Y-1550D01*
X6629Y-1400D02*
Y-1550D01*
X6600Y-1400D02*
X6650D01*
X6600Y-1550D02*
X6650D01*
X6770Y-1450D02*
X6763Y-1471D01*
X6749Y-1486D01*
X6727Y-1493D01*
X6720D01*
X6699Y-1486D01*
X6684Y-1471D01*
X6677Y-1450D01*
Y-1443D01*
X6684Y-1421D01*
X6699Y-1407D01*
X6720Y-1400D01*
X6734D01*
X6756Y-1407D01*
X6770Y-1421D01*
X6777Y-1443D01*
Y-1486D01*
X6770Y-1514D01*
X6763Y-1529D01*
X6749Y-1543D01*
X6727Y-1550D01*
X6706D01*
X6691Y-1543D01*
X6684Y-1529D01*
Y-1521D01*
X6691Y-1514D01*
X6699Y-1521D01*
X6691Y-1529D01*
X6720Y-1493D02*
X6706Y-1486D01*
X6691Y-1471D01*
X6684Y-1450D01*
Y-1443D01*
X6691Y-1421D01*
X6706Y-1407D01*
X6720Y-1400D01*
X6734D02*
X6749Y-1407D01*
X6763Y-1421D01*
X6770Y-1443D01*
Y-1486D01*
X6763Y-1514D01*
X6756Y-1529D01*
X6741Y-1543D01*
X6727Y-1550D01*
X7121Y-1400D02*
Y-1550D01*
X7129Y-1400D02*
Y-1550D01*
X7100Y-1400D02*
X7150D01*
X7100Y-1550D02*
X7150D01*
X7177Y-1429D02*
X7191Y-1421D01*
X7213Y-1400D01*
Y-1550D01*
X7206Y-1407D02*
Y-1550D01*
X7177D02*
X7241D01*
X7310Y-1400D02*
X7289Y-1407D01*
X7274Y-1429D01*
X7267Y-1464D01*
Y-1486D01*
X7274Y-1521D01*
X7289Y-1543D01*
X7310Y-1550D01*
X7324D01*
X7346Y-1543D01*
X7360Y-1521D01*
X7367Y-1486D01*
Y-1464D01*
X7360Y-1429D01*
X7346Y-1407D01*
X7324Y-1400D01*
X7310D01*
X7296Y-1407D01*
X7289Y-1414D01*
X7281Y-1429D01*
X7274Y-1464D01*
Y-1486D01*
X7281Y-1521D01*
X7289Y-1536D01*
X7296Y-1543D01*
X7310Y-1550D01*
X7324D02*
X7339Y-1543D01*
X7346Y-1536D01*
X7353Y-1521D01*
X7360Y-1486D01*
Y-1464D01*
X7353Y-1429D01*
X7346Y-1414D01*
X7339Y-1407D01*
X7324Y-1400D01*
X7621D02*
Y-1550D01*
X7629Y-1400D02*
Y-1550D01*
X7600Y-1400D02*
X7650D01*
X7600Y-1550D02*
X7650D01*
X7677Y-1429D02*
X7691Y-1421D01*
X7713Y-1400D01*
Y-1550D01*
X7706Y-1407D02*
Y-1550D01*
X7677D02*
X7741D01*
X7767Y-1429D02*
X7781Y-1421D01*
X7803Y-1400D01*
Y-1550D01*
X7796Y-1407D02*
Y-1550D01*
X7767D02*
X7831D01*
X8096Y-1400D02*
Y-1550D01*
X8104Y-1400D02*
Y-1550D01*
X8075Y-1400D02*
X8125D01*
X8075Y-1550D02*
X8125D01*
X8152Y-1429D02*
X8166Y-1421D01*
X8188Y-1400D01*
Y-1550D01*
X8181Y-1407D02*
Y-1550D01*
X8152D02*
X8216D01*
X8249Y-1429D02*
X8256Y-1436D01*
X8249Y-1443D01*
X8242Y-1436D01*
Y-1429D01*
X8249Y-1414D01*
X8256Y-1407D01*
X8278Y-1400D01*
X8306D01*
X8328Y-1407D01*
X8335Y-1414D01*
X8342Y-1429D01*
Y-1443D01*
X8335Y-1457D01*
X8314Y-1471D01*
X8278Y-1486D01*
X8264Y-1493D01*
X8249Y-1507D01*
X8242Y-1529D01*
Y-1550D01*
X8306Y-1400D02*
X8321Y-1407D01*
X8328Y-1414D01*
X8335Y-1429D01*
Y-1443D01*
X8328Y-1457D01*
X8306Y-1471D01*
X8278Y-1486D01*
X8242Y-1536D02*
X8249Y-1529D01*
X8264D01*
X8299Y-1543D01*
X8321D01*
X8335Y-1536D01*
X8342Y-1529D01*
Y-1514D01*
X8264Y-1529D02*
X8299Y-1550D01*
X8328D01*
X8335Y-1543D01*
X8342Y-1529D01*
X8596Y-1400D02*
Y-1550D01*
X8604Y-1400D02*
Y-1550D01*
X8575Y-1400D02*
X8625D01*
X8575Y-1550D02*
X8625D01*
X8652Y-1429D02*
X8666Y-1421D01*
X8688Y-1400D01*
Y-1550D01*
X8681Y-1407D02*
Y-1550D01*
X8652D02*
X8716D01*
X8749Y-1429D02*
X8756Y-1436D01*
X8749Y-1443D01*
X8742Y-1436D01*
Y-1429D01*
X8749Y-1414D01*
X8756Y-1407D01*
X8778Y-1400D01*
X8806D01*
X8828Y-1407D01*
X8835Y-1421D01*
Y-1443D01*
X8828Y-1457D01*
X8806Y-1464D01*
X8785D01*
X8806Y-1400D02*
X8821Y-1407D01*
X8828Y-1421D01*
Y-1443D01*
X8821Y-1457D01*
X8806Y-1464D01*
X8821Y-1471D01*
X8835Y-1486D01*
X8842Y-1500D01*
Y-1521D01*
X8835Y-1536D01*
X8828Y-1543D01*
X8806Y-1550D01*
X8778D01*
X8756Y-1543D01*
X8749Y-1536D01*
X8742Y-1521D01*
Y-1514D01*
X8749Y-1507D01*
X8756Y-1514D01*
X8749Y-1521D01*
X8828Y-1479D02*
X8835Y-1500D01*
Y-1521D01*
X8828Y-1536D01*
X8821Y-1543D01*
X8806Y-1550D01*
X9071Y-1400D02*
Y-1550D01*
X9079Y-1400D02*
Y-1550D01*
X9050Y-1400D02*
X9100D01*
X9050Y-1550D02*
X9100D01*
X9127Y-1429D02*
X9141Y-1421D01*
X9163Y-1400D01*
Y-1550D01*
X9156Y-1407D02*
Y-1550D01*
X9127D02*
X9191D01*
X9289Y-1414D02*
Y-1550D01*
X9331Y-1507D02*
X9217D01*
X9296Y-1400D01*
Y-1550D01*
X9267D02*
X9317D01*
X9593Y-1430D02*
X9600Y-1450D01*
Y-1410D01*
X9593Y-1430D01*
X9580Y-1417D01*
X9560Y-1410D01*
X9547D01*
X9527Y-1417D01*
X9513Y-1430D01*
X9507Y-1443D01*
X9500Y-1463D01*
Y-1497D01*
X9507Y-1517D01*
X9513Y-1530D01*
X9527Y-1543D01*
X9547Y-1550D01*
X9560D01*
X9580Y-1543D01*
X9593Y-1530D01*
X9600Y-1517D01*
X9547Y-1410D02*
X9533Y-1417D01*
X9520Y-1430D01*
X9513Y-1443D01*
X9507Y-1463D01*
Y-1497D01*
X9513Y-1517D01*
X9520Y-1530D01*
X9533Y-1543D01*
X9547Y-1550D01*
X9667Y-1410D02*
X9647Y-1417D01*
X9633Y-1430D01*
X9627Y-1443D01*
X9620Y-1470D01*
Y-1490D01*
X9627Y-1517D01*
X9633Y-1530D01*
X9647Y-1543D01*
X9667Y-1550D01*
X9680D01*
X9700Y-1543D01*
X9713Y-1530D01*
X9720Y-1517D01*
X9727Y-1490D01*
Y-1470D01*
X9720Y-1443D01*
X9713Y-1430D01*
X9700Y-1417D01*
X9680Y-1410D01*
X9667D01*
X9653Y-1417D01*
X9640Y-1430D01*
X9633Y-1443D01*
X9627Y-1470D01*
Y-1490D01*
X9633Y-1517D01*
X9640Y-1530D01*
X9653Y-1543D01*
X9667Y-1550D01*
X9680D02*
X9693Y-1543D01*
X9707Y-1530D01*
X9713Y-1517D01*
X9720Y-1490D01*
Y-1470D01*
X9713Y-1443D01*
X9707Y-1430D01*
X9693Y-1417D01*
X9680Y-1410D01*
X9766D02*
Y-1550D01*
X9773Y-1410D02*
X9813Y-1530D01*
X9766Y-1410D02*
X9813Y-1550D01*
X9859Y-1410D02*
X9813Y-1550D01*
X9859Y-1410D02*
Y-1550D01*
X9866Y-1410D02*
Y-1550D01*
X9746Y-1410D02*
X9773D01*
X9859D02*
X9886D01*
X9746Y-1550D02*
X9786D01*
X9839D02*
X9886D01*
X918Y-1400D02*
X896Y-1407D01*
X882Y-1429D01*
X875Y-1464D01*
Y-1486D01*
X882Y-1521D01*
X896Y-1543D01*
X918Y-1550D01*
X932D01*
X954Y-1543D01*
X968Y-1521D01*
X975Y-1486D01*
Y-1464D01*
X968Y-1429D01*
X954Y-1407D01*
X932Y-1400D01*
X918D01*
X904Y-1407D01*
X896Y-1414D01*
X889Y-1429D01*
X882Y-1464D01*
Y-1486D01*
X889Y-1521D01*
X896Y-1536D01*
X904Y-1543D01*
X918Y-1550D01*
X932D02*
X946Y-1543D01*
X954Y-1536D01*
X961Y-1521D01*
X968Y-1486D01*
Y-1464D01*
X961Y-1429D01*
X954Y-1414D01*
X946Y-1407D01*
X932Y-1400D01*
X1011D02*
X1061Y-1550D01*
X1019Y-1400D02*
X1061Y-1529D01*
X1111Y-1400D02*
X1061Y-1550D01*
X997Y-1400D02*
X1040D01*
X1083D02*
X1126D01*
X925Y-3400D02*
X904Y-3407D01*
X889Y-3421D01*
X882Y-3436D01*
X875Y-3464D01*
Y-3486D01*
X882Y-3514D01*
X889Y-3529D01*
X904Y-3543D01*
X925Y-3550D01*
X939D01*
X961Y-3543D01*
X975Y-3529D01*
X982Y-3514D01*
X989Y-3486D01*
Y-3464D01*
X982Y-3436D01*
X975Y-3421D01*
X961Y-3407D01*
X939Y-3400D01*
X925D01*
X911Y-3407D01*
X896Y-3421D01*
X889Y-3436D01*
X882Y-3464D01*
Y-3486D01*
X889Y-3514D01*
X896Y-3529D01*
X911Y-3543D01*
X925Y-3550D01*
X939D02*
X954Y-3543D01*
X968Y-3529D01*
X975Y-3514D01*
X982Y-3486D01*
Y-3464D01*
X975Y-3436D01*
X968Y-3421D01*
X954Y-3407D01*
X939Y-3400D01*
X1017Y-3429D02*
X1024Y-3436D01*
X1017Y-3443D01*
X1010Y-3436D01*
Y-3429D01*
X1017Y-3414D01*
X1024Y-3407D01*
X1046Y-3400D01*
X1074D01*
X1096Y-3407D01*
X1103Y-3414D01*
X1110Y-3429D01*
Y-3443D01*
X1103Y-3457D01*
X1081Y-3471D01*
X1046Y-3486D01*
X1031Y-3493D01*
X1017Y-3507D01*
X1010Y-3529D01*
Y-3550D01*
X1074Y-3400D02*
X1089Y-3407D01*
X1096Y-3414D01*
X1103Y-3429D01*
Y-3443D01*
X1096Y-3457D01*
X1074Y-3471D01*
X1046Y-3486D01*
X1010Y-3536D02*
X1017Y-3529D01*
X1031D01*
X1067Y-3543D01*
X1089D01*
X1103Y-3536D01*
X1110Y-3529D01*
Y-3514D01*
X1031Y-3529D02*
X1067Y-3550D01*
X1096D01*
X1103Y-3543D01*
X1110Y-3529D01*
X1425Y-3400D02*
X1404Y-3407D01*
X1389Y-3421D01*
X1382Y-3436D01*
X1375Y-3464D01*
Y-3486D01*
X1382Y-3514D01*
X1389Y-3529D01*
X1404Y-3543D01*
X1425Y-3550D01*
X1439D01*
X1461Y-3543D01*
X1475Y-3529D01*
X1482Y-3514D01*
X1489Y-3486D01*
Y-3464D01*
X1482Y-3436D01*
X1475Y-3421D01*
X1461Y-3407D01*
X1439Y-3400D01*
X1425D01*
X1411Y-3407D01*
X1396Y-3421D01*
X1389Y-3436D01*
X1382Y-3464D01*
Y-3486D01*
X1389Y-3514D01*
X1396Y-3529D01*
X1411Y-3543D01*
X1425Y-3550D01*
X1439D02*
X1454Y-3543D01*
X1468Y-3529D01*
X1475Y-3514D01*
X1482Y-3486D01*
Y-3464D01*
X1475Y-3436D01*
X1468Y-3421D01*
X1454Y-3407D01*
X1439Y-3400D01*
X1517Y-3429D02*
X1524Y-3436D01*
X1517Y-3443D01*
X1510Y-3436D01*
Y-3429D01*
X1517Y-3414D01*
X1524Y-3407D01*
X1546Y-3400D01*
X1574D01*
X1596Y-3407D01*
X1603Y-3421D01*
Y-3443D01*
X1596Y-3457D01*
X1574Y-3464D01*
X1553D01*
X1574Y-3400D02*
X1589Y-3407D01*
X1596Y-3421D01*
Y-3443D01*
X1589Y-3457D01*
X1574Y-3464D01*
X1589Y-3471D01*
X1603Y-3486D01*
X1610Y-3500D01*
Y-3521D01*
X1603Y-3536D01*
X1596Y-3543D01*
X1574Y-3550D01*
X1546D01*
X1524Y-3543D01*
X1517Y-3536D01*
X1510Y-3521D01*
Y-3514D01*
X1517Y-3507D01*
X1524Y-3514D01*
X1517Y-3521D01*
X1596Y-3479D02*
X1603Y-3500D01*
Y-3521D01*
X1596Y-3536D01*
X1589Y-3543D01*
X1574Y-3550D01*
X1925Y-3400D02*
X1904Y-3407D01*
X1889Y-3421D01*
X1882Y-3436D01*
X1875Y-3464D01*
Y-3486D01*
X1882Y-3514D01*
X1889Y-3529D01*
X1904Y-3543D01*
X1925Y-3550D01*
X1939D01*
X1961Y-3543D01*
X1975Y-3529D01*
X1982Y-3514D01*
X1989Y-3486D01*
Y-3464D01*
X1982Y-3436D01*
X1975Y-3421D01*
X1961Y-3407D01*
X1939Y-3400D01*
X1925D01*
X1911Y-3407D01*
X1896Y-3421D01*
X1889Y-3436D01*
X1882Y-3464D01*
Y-3486D01*
X1889Y-3514D01*
X1896Y-3529D01*
X1911Y-3543D01*
X1925Y-3550D01*
X1939D02*
X1954Y-3543D01*
X1968Y-3529D01*
X1975Y-3514D01*
X1982Y-3486D01*
Y-3464D01*
X1975Y-3436D01*
X1968Y-3421D01*
X1954Y-3407D01*
X1939Y-3400D01*
X2081Y-3414D02*
Y-3550D01*
X2124Y-3507D02*
X2010D01*
X2089Y-3400D01*
Y-3550D01*
X2060D02*
X2110D01*
X2425Y-3400D02*
X2404Y-3407D01*
X2389Y-3421D01*
X2382Y-3436D01*
X2375Y-3464D01*
Y-3486D01*
X2382Y-3514D01*
X2389Y-3529D01*
X2404Y-3543D01*
X2425Y-3550D01*
X2439D01*
X2461Y-3543D01*
X2475Y-3529D01*
X2482Y-3514D01*
X2489Y-3486D01*
Y-3464D01*
X2482Y-3436D01*
X2475Y-3421D01*
X2461Y-3407D01*
X2439Y-3400D01*
X2425D01*
X2411Y-3407D01*
X2396Y-3421D01*
X2389Y-3436D01*
X2382Y-3464D01*
Y-3486D01*
X2389Y-3514D01*
X2396Y-3529D01*
X2411Y-3543D01*
X2425Y-3550D01*
X2439D02*
X2454Y-3543D01*
X2468Y-3529D01*
X2475Y-3514D01*
X2482Y-3486D01*
Y-3464D01*
X2475Y-3436D01*
X2468Y-3421D01*
X2454Y-3407D01*
X2439Y-3400D01*
X2524D02*
X2510Y-3471D01*
X2524Y-3457D01*
X2546Y-3450D01*
X2567D01*
X2589Y-3457D01*
X2603Y-3471D01*
X2610Y-3493D01*
Y-3507D01*
X2603Y-3529D01*
X2589Y-3543D01*
X2567Y-3550D01*
X2546D01*
X2524Y-3543D01*
X2517Y-3536D01*
X2510Y-3521D01*
Y-3514D01*
X2517Y-3507D01*
X2524Y-3514D01*
X2517Y-3521D01*
X2567Y-3450D02*
X2581Y-3457D01*
X2596Y-3471D01*
X2603Y-3493D01*
Y-3507D01*
X2596Y-3529D01*
X2581Y-3543D01*
X2567Y-3550D01*
X2524Y-3400D02*
X2596D01*
X2524Y-3407D02*
X2560D01*
X2596Y-3400D01*
X2925D02*
X2904Y-3407D01*
X2889Y-3421D01*
X2882Y-3436D01*
X2875Y-3464D01*
Y-3486D01*
X2882Y-3514D01*
X2889Y-3529D01*
X2904Y-3543D01*
X2925Y-3550D01*
X2939D01*
X2961Y-3543D01*
X2975Y-3529D01*
X2982Y-3514D01*
X2989Y-3486D01*
Y-3464D01*
X2982Y-3436D01*
X2975Y-3421D01*
X2961Y-3407D01*
X2939Y-3400D01*
X2925D01*
X2911Y-3407D01*
X2896Y-3421D01*
X2889Y-3436D01*
X2882Y-3464D01*
Y-3486D01*
X2889Y-3514D01*
X2896Y-3529D01*
X2911Y-3543D01*
X2925Y-3550D01*
X2939D02*
X2954Y-3543D01*
X2968Y-3529D01*
X2975Y-3514D01*
X2982Y-3486D01*
Y-3464D01*
X2975Y-3436D01*
X2968Y-3421D01*
X2954Y-3407D01*
X2939Y-3400D01*
X3096Y-3421D02*
X3089Y-3429D01*
X3096Y-3436D01*
X3103Y-3429D01*
Y-3421D01*
X3096Y-3407D01*
X3081Y-3400D01*
X3060D01*
X3039Y-3407D01*
X3024Y-3421D01*
X3017Y-3436D01*
X3010Y-3464D01*
Y-3507D01*
X3017Y-3529D01*
X3031Y-3543D01*
X3053Y-3550D01*
X3067D01*
X3089Y-3543D01*
X3103Y-3529D01*
X3110Y-3507D01*
Y-3500D01*
X3103Y-3479D01*
X3089Y-3464D01*
X3067Y-3457D01*
X3060D01*
X3039Y-3464D01*
X3024Y-3479D01*
X3017Y-3500D01*
X3060Y-3400D02*
X3046Y-3407D01*
X3031Y-3421D01*
X3024Y-3436D01*
X3017Y-3464D01*
Y-3507D01*
X3024Y-3529D01*
X3039Y-3543D01*
X3053Y-3550D01*
X3067D02*
X3081Y-3543D01*
X3096Y-3529D01*
X3103Y-3507D01*
Y-3500D01*
X3096Y-3479D01*
X3081Y-3464D01*
X3067Y-3457D01*
X3425Y-3400D02*
X3404Y-3407D01*
X3389Y-3421D01*
X3382Y-3436D01*
X3375Y-3464D01*
Y-3486D01*
X3382Y-3514D01*
X3389Y-3529D01*
X3404Y-3543D01*
X3425Y-3550D01*
X3439D01*
X3461Y-3543D01*
X3475Y-3529D01*
X3482Y-3514D01*
X3489Y-3486D01*
Y-3464D01*
X3482Y-3436D01*
X3475Y-3421D01*
X3461Y-3407D01*
X3439Y-3400D01*
X3425D01*
X3411Y-3407D01*
X3396Y-3421D01*
X3389Y-3436D01*
X3382Y-3464D01*
Y-3486D01*
X3389Y-3514D01*
X3396Y-3529D01*
X3411Y-3543D01*
X3425Y-3550D01*
X3439D02*
X3454Y-3543D01*
X3468Y-3529D01*
X3475Y-3514D01*
X3482Y-3486D01*
Y-3464D01*
X3475Y-3436D01*
X3468Y-3421D01*
X3454Y-3407D01*
X3439Y-3400D01*
X3510D02*
Y-3443D01*
Y-3429D02*
X3517Y-3414D01*
X3531Y-3400D01*
X3546D01*
X3581Y-3421D01*
X3596D01*
X3603Y-3414D01*
X3610Y-3400D01*
X3517Y-3414D02*
X3531Y-3407D01*
X3546D01*
X3581Y-3421D01*
X3610Y-3400D02*
Y-3421D01*
X3603Y-3443D01*
X3574Y-3479D01*
X3567Y-3493D01*
X3560Y-3514D01*
Y-3550D01*
X3603Y-3443D02*
X3567Y-3479D01*
X3560Y-3493D01*
X3553Y-3514D01*
Y-3550D01*
X3925Y-3400D02*
X3904Y-3407D01*
X3889Y-3421D01*
X3882Y-3436D01*
X3875Y-3464D01*
Y-3486D01*
X3882Y-3514D01*
X3889Y-3529D01*
X3904Y-3543D01*
X3925Y-3550D01*
X3939D01*
X3961Y-3543D01*
X3975Y-3529D01*
X3982Y-3514D01*
X3989Y-3486D01*
Y-3464D01*
X3982Y-3436D01*
X3975Y-3421D01*
X3961Y-3407D01*
X3939Y-3400D01*
X3925D01*
X3911Y-3407D01*
X3896Y-3421D01*
X3889Y-3436D01*
X3882Y-3464D01*
Y-3486D01*
X3889Y-3514D01*
X3896Y-3529D01*
X3911Y-3543D01*
X3925Y-3550D01*
X3939D02*
X3954Y-3543D01*
X3968Y-3529D01*
X3975Y-3514D01*
X3982Y-3486D01*
Y-3464D01*
X3975Y-3436D01*
X3968Y-3421D01*
X3954Y-3407D01*
X3939Y-3400D01*
X4046D02*
X4024Y-3407D01*
X4017Y-3421D01*
Y-3443D01*
X4024Y-3457D01*
X4046Y-3464D01*
X4074D01*
X4096Y-3457D01*
X4103Y-3443D01*
Y-3421D01*
X4096Y-3407D01*
X4074Y-3400D01*
X4046D01*
X4031Y-3407D01*
X4024Y-3421D01*
Y-3443D01*
X4031Y-3457D01*
X4046Y-3464D01*
X4074D02*
X4089Y-3457D01*
X4096Y-3443D01*
Y-3421D01*
X4089Y-3407D01*
X4074Y-3400D01*
X4046Y-3464D02*
X4024Y-3471D01*
X4017Y-3479D01*
X4010Y-3493D01*
Y-3521D01*
X4017Y-3536D01*
X4024Y-3543D01*
X4046Y-3550D01*
X4074D01*
X4096Y-3543D01*
X4103Y-3536D01*
X4110Y-3521D01*
Y-3493D01*
X4103Y-3479D01*
X4096Y-3471D01*
X4074Y-3464D01*
X4046D02*
X4031Y-3471D01*
X4024Y-3479D01*
X4017Y-3493D01*
Y-3521D01*
X4024Y-3536D01*
X4031Y-3543D01*
X4046Y-3550D01*
X4074D02*
X4089Y-3543D01*
X4096Y-3536D01*
X4103Y-3521D01*
Y-3493D01*
X4096Y-3479D01*
X4089Y-3471D01*
X4074Y-3464D01*
X4393Y-3430D02*
X4400Y-3450D01*
Y-3410D01*
X4393Y-3430D01*
X4380Y-3417D01*
X4360Y-3410D01*
X4347D01*
X4327Y-3417D01*
X4313Y-3430D01*
X4307Y-3443D01*
X4300Y-3463D01*
Y-3497D01*
X4307Y-3517D01*
X4313Y-3530D01*
X4327Y-3543D01*
X4347Y-3550D01*
X4360D01*
X4380Y-3543D01*
X4393Y-3530D01*
X4400Y-3517D01*
X4347Y-3410D02*
X4333Y-3417D01*
X4320Y-3430D01*
X4313Y-3443D01*
X4307Y-3463D01*
Y-3497D01*
X4313Y-3517D01*
X4320Y-3530D01*
X4333Y-3543D01*
X4347Y-3550D01*
X4467Y-3410D02*
X4447Y-3417D01*
X4433Y-3430D01*
X4427Y-3443D01*
X4420Y-3470D01*
Y-3490D01*
X4427Y-3517D01*
X4433Y-3530D01*
X4447Y-3543D01*
X4467Y-3550D01*
X4480D01*
X4500Y-3543D01*
X4513Y-3530D01*
X4520Y-3517D01*
X4527Y-3490D01*
Y-3470D01*
X4520Y-3443D01*
X4513Y-3430D01*
X4500Y-3417D01*
X4480Y-3410D01*
X4467D01*
X4453Y-3417D01*
X4440Y-3430D01*
X4433Y-3443D01*
X4427Y-3470D01*
Y-3490D01*
X4433Y-3517D01*
X4440Y-3530D01*
X4453Y-3543D01*
X4467Y-3550D01*
X4480D02*
X4493Y-3543D01*
X4507Y-3530D01*
X4513Y-3517D01*
X4520Y-3490D01*
Y-3470D01*
X4513Y-3443D01*
X4507Y-3430D01*
X4493Y-3417D01*
X4480Y-3410D01*
X4566D02*
Y-3550D01*
X4573Y-3410D02*
X4613Y-3530D01*
X4566Y-3410D02*
X4613Y-3550D01*
X4659Y-3410D02*
X4613Y-3550D01*
X4659Y-3410D02*
Y-3550D01*
X4666Y-3410D02*
Y-3550D01*
X4546Y-3410D02*
X4573D01*
X4659D02*
X4686D01*
X4546Y-3550D02*
X4586D01*
X4639D02*
X4686D01*
X307Y-1779D02*
X314Y-1786D01*
X307Y-1793D01*
X300Y-1786D01*
Y-1779D01*
X307Y-1764D01*
X314Y-1757D01*
X336Y-1750D01*
X364D01*
X386Y-1757D01*
X393Y-1764D01*
X400Y-1779D01*
Y-1793D01*
X393Y-1807D01*
X371Y-1821D01*
X336Y-1836D01*
X321Y-1843D01*
X307Y-1857D01*
X300Y-1879D01*
Y-1900D01*
X364Y-1750D02*
X379Y-1757D01*
X386Y-1764D01*
X393Y-1779D01*
Y-1793D01*
X386Y-1807D01*
X364Y-1821D01*
X336Y-1836D01*
X300Y-1886D02*
X307Y-1879D01*
X321D01*
X357Y-1893D01*
X379D01*
X393Y-1886D01*
X400Y-1879D01*
Y-1864D01*
X321Y-1879D02*
X357Y-1900D01*
X386D01*
X393Y-1893D01*
X400Y-1879D01*
X494Y-1764D02*
Y-1900D01*
X536Y-1857D02*
X422D01*
X501Y-1750D01*
Y-1900D01*
X472D02*
X522D01*
X571Y-1750D02*
X621Y-1900D01*
X579Y-1750D02*
X621Y-1879D01*
X671Y-1750D02*
X621Y-1900D01*
X557Y-1750D02*
X600D01*
X643D02*
X686D01*
X861D02*
Y-1900D01*
X868Y-1750D02*
Y-1900D01*
X840Y-1750D02*
X911D01*
X933Y-1757D01*
X947Y-1771D01*
X954Y-1786D01*
X961Y-1807D01*
Y-1843D01*
X954Y-1864D01*
X947Y-1879D01*
X933Y-1893D01*
X911Y-1900D01*
X840D01*
X911Y-1750D02*
X926Y-1757D01*
X940Y-1771D01*
X947Y-1786D01*
X954Y-1807D01*
Y-1843D01*
X947Y-1864D01*
X940Y-1879D01*
X926Y-1893D01*
X911Y-1900D01*
X1081Y-1771D02*
X1088Y-1793D01*
Y-1750D01*
X1081Y-1771D01*
X1067Y-1757D01*
X1046Y-1750D01*
X1031D01*
X1010Y-1757D01*
X996Y-1771D01*
X988Y-1786D01*
X981Y-1807D01*
Y-1843D01*
X988Y-1864D01*
X996Y-1879D01*
X1010Y-1893D01*
X1031Y-1900D01*
X1046D01*
X1067Y-1893D01*
X1081Y-1879D01*
X1088Y-1864D01*
X1031Y-1750D02*
X1017Y-1757D01*
X1003Y-1771D01*
X996Y-1786D01*
X988Y-1807D01*
Y-1843D01*
X996Y-1864D01*
X1003Y-1879D01*
X1017Y-1893D01*
X1031Y-1900D01*
X1521Y-3050D02*
Y-3200D01*
X1529Y-3050D02*
Y-3200D01*
X1500Y-3050D02*
X1571D01*
X1593Y-3057D01*
X1607Y-3071D01*
X1614Y-3086D01*
X1621Y-3107D01*
Y-3143D01*
X1614Y-3164D01*
X1607Y-3179D01*
X1593Y-3193D01*
X1571Y-3200D01*
X1500D01*
X1571Y-3050D02*
X1586Y-3057D01*
X1600Y-3071D01*
X1607Y-3086D01*
X1614Y-3107D01*
Y-3143D01*
X1607Y-3164D01*
X1600Y-3179D01*
X1586Y-3193D01*
X1571Y-3200D01*
X1663Y-3050D02*
Y-3200D01*
X1670Y-3050D02*
Y-3200D01*
X1641Y-3050D02*
X1691D01*
X1641Y-3200D02*
X1691D01*
X1819Y-3071D02*
X1826Y-3093D01*
Y-3050D01*
X1819Y-3071D01*
X1804Y-3057D01*
X1783Y-3050D01*
X1769D01*
X1747Y-3057D01*
X1733Y-3071D01*
X1726Y-3086D01*
X1719Y-3107D01*
Y-3143D01*
X1726Y-3164D01*
X1733Y-3179D01*
X1747Y-3193D01*
X1769Y-3200D01*
X1783D01*
X1804Y-3193D01*
X1819Y-3179D01*
X1769Y-3050D02*
X1754Y-3057D01*
X1740Y-3071D01*
X1733Y-3086D01*
X1726Y-3107D01*
Y-3143D01*
X1733Y-3164D01*
X1740Y-3179D01*
X1754Y-3193D01*
X1769Y-3200D01*
X1819Y-3143D02*
Y-3200D01*
X1826Y-3143D02*
Y-3200D01*
X1797Y-3143D02*
X1847D01*
X1888Y-3050D02*
Y-3200D01*
X1895Y-3050D02*
Y-3200D01*
X1866Y-3050D02*
X1916D01*
X1866Y-3200D02*
X1916D01*
X1993Y-3050D02*
Y-3200D01*
X2001Y-3050D02*
Y-3200D01*
X1951Y-3050D02*
X1943Y-3093D01*
Y-3050D01*
X2051D01*
Y-3093D01*
X2043Y-3050D01*
X1972Y-3200D02*
X2022D01*
X2136Y-3050D02*
X2086Y-3200D01*
X2136Y-3050D02*
X2186Y-3200D01*
X2136Y-3071D02*
X2179Y-3200D01*
X2101Y-3157D02*
X2165D01*
X2072Y-3200D02*
X2115D01*
X2158D02*
X2201D01*
X2241Y-3050D02*
Y-3200D01*
X2248Y-3050D02*
Y-3200D01*
X2220Y-3050D02*
X2270D01*
X2220Y-3200D02*
X2327D01*
Y-3157D01*
X2320Y-3200D01*
X2533Y-3050D02*
X2512Y-3057D01*
X2498Y-3071D01*
X2491Y-3086D01*
X2483Y-3114D01*
Y-3136D01*
X2491Y-3164D01*
X2498Y-3179D01*
X2512Y-3193D01*
X2533Y-3200D01*
X2548D01*
X2569Y-3193D01*
X2583Y-3179D01*
X2590Y-3164D01*
X2598Y-3136D01*
Y-3114D01*
X2590Y-3086D01*
X2583Y-3071D01*
X2569Y-3057D01*
X2548Y-3050D01*
X2533D01*
X2519Y-3057D01*
X2505Y-3071D01*
X2498Y-3086D01*
X2491Y-3114D01*
Y-3136D01*
X2498Y-3164D01*
X2505Y-3179D01*
X2519Y-3193D01*
X2533Y-3200D01*
X2548D02*
X2562Y-3193D01*
X2576Y-3179D01*
X2583Y-3164D01*
X2590Y-3136D01*
Y-3114D01*
X2583Y-3086D01*
X2576Y-3071D01*
X2562Y-3057D01*
X2548Y-3050D01*
X2640D02*
Y-3157D01*
X2647Y-3179D01*
X2661Y-3193D01*
X2683Y-3200D01*
X2697D01*
X2718Y-3193D01*
X2733Y-3179D01*
X2740Y-3157D01*
Y-3050D01*
X2647D02*
Y-3157D01*
X2654Y-3179D01*
X2668Y-3193D01*
X2683Y-3200D01*
X2618Y-3050D02*
X2668D01*
X2718D02*
X2761D01*
X2829D02*
Y-3200D01*
X2836Y-3050D02*
Y-3200D01*
X2786Y-3050D02*
X2779Y-3093D01*
Y-3050D01*
X2886D01*
Y-3093D01*
X2879Y-3050D01*
X2808Y-3200D02*
X2858D01*
X2929Y-3050D02*
Y-3200D01*
X2936Y-3050D02*
Y-3200D01*
X2908Y-3050D02*
X2993D01*
X3015Y-3057D01*
X3022Y-3064D01*
X3029Y-3079D01*
Y-3100D01*
X3022Y-3114D01*
X3015Y-3121D01*
X2993Y-3129D01*
X2936D01*
X2993Y-3050D02*
X3008Y-3057D01*
X3015Y-3064D01*
X3022Y-3079D01*
Y-3100D01*
X3015Y-3114D01*
X3008Y-3121D01*
X2993Y-3129D01*
X2908Y-3200D02*
X2958D01*
X3070Y-3050D02*
Y-3157D01*
X3078Y-3179D01*
X3092Y-3193D01*
X3113Y-3200D01*
X3128D01*
X3149Y-3193D01*
X3163Y-3179D01*
X3170Y-3157D01*
Y-3050D01*
X3078D02*
Y-3157D01*
X3085Y-3179D01*
X3099Y-3193D01*
X3113Y-3200D01*
X3049Y-3050D02*
X3099D01*
X3149D02*
X3192D01*
X3260D02*
Y-3200D01*
X3267Y-3050D02*
Y-3200D01*
X3217Y-3050D02*
X3210Y-3093D01*
Y-3050D01*
X3317D01*
Y-3093D01*
X3310Y-3050D01*
X3238Y-3200D02*
X3288D01*
X3431Y-3071D02*
X3438Y-3050D01*
Y-3093D01*
X3431Y-3071D01*
X3417Y-3057D01*
X3395Y-3050D01*
X3374D01*
X3352Y-3057D01*
X3338Y-3071D01*
Y-3086D01*
X3345Y-3100D01*
X3352Y-3107D01*
X3367Y-3114D01*
X3410Y-3129D01*
X3424Y-3136D01*
X3438Y-3150D01*
X3338Y-3086D02*
X3352Y-3100D01*
X3367Y-3107D01*
X3410Y-3121D01*
X3424Y-3129D01*
X3431Y-3136D01*
X3438Y-3150D01*
Y-3179D01*
X3424Y-3193D01*
X3402Y-3200D01*
X3381D01*
X3360Y-3193D01*
X3345Y-3179D01*
X3338Y-3157D01*
Y-3200D01*
X3345Y-3179D01*
X12371Y-2500D02*
Y-2650D01*
X12379Y-2500D02*
Y-2650D01*
X12350Y-2500D02*
X12436D01*
X12457Y-2507D01*
X12464Y-2514D01*
X12471Y-2529D01*
Y-2543D01*
X12464Y-2557D01*
X12457Y-2564D01*
X12436Y-2571D01*
X12379D01*
X12436Y-2500D02*
X12450Y-2507D01*
X12457Y-2514D01*
X12464Y-2529D01*
Y-2543D01*
X12457Y-2557D01*
X12450Y-2564D01*
X12436Y-2571D01*
X12350Y-2650D02*
X12400D01*
X12414Y-2571D02*
X12429Y-2579D01*
X12436Y-2586D01*
X12457Y-2636D01*
X12464Y-2643D01*
X12471D01*
X12479Y-2636D01*
X12429Y-2579D02*
X12436Y-2593D01*
X12450Y-2643D01*
X12457Y-2650D01*
X12471D01*
X12479Y-2636D01*
Y-2629D01*
X12519Y-2500D02*
Y-2650D01*
X12526Y-2500D02*
Y-2650D01*
X12569Y-2543D02*
Y-2600D01*
X12498Y-2500D02*
X12612D01*
Y-2543D01*
X12605Y-2500D01*
X12526Y-2571D02*
X12569D01*
X12498Y-2650D02*
X12612D01*
Y-2607D01*
X12605Y-2650D01*
X12726Y-2521D02*
X12733Y-2500D01*
Y-2543D01*
X12726Y-2521D01*
X12711Y-2507D01*
X12690Y-2500D01*
X12669D01*
X12647Y-2507D01*
X12633Y-2521D01*
Y-2536D01*
X12640Y-2550D01*
X12647Y-2557D01*
X12661Y-2564D01*
X12704Y-2579D01*
X12718Y-2586D01*
X12733Y-2600D01*
X12633Y-2536D02*
X12647Y-2550D01*
X12661Y-2557D01*
X12704Y-2571D01*
X12718Y-2579D01*
X12726Y-2586D01*
X12733Y-2600D01*
Y-2629D01*
X12718Y-2643D01*
X12697Y-2650D01*
X12676D01*
X12654Y-2643D01*
X12640Y-2629D01*
X12633Y-2607D01*
Y-2650D01*
X12640Y-2629D01*
X12776Y-2500D02*
Y-2650D01*
X12783Y-2500D02*
Y-2650D01*
X12826Y-2543D02*
Y-2600D01*
X12755Y-2500D02*
X12869D01*
Y-2543D01*
X12862Y-2500D01*
X12783Y-2571D02*
X12826D01*
X12755Y-2650D02*
X12869D01*
Y-2607D01*
X12862Y-2650D01*
X12940Y-2500D02*
Y-2650D01*
X12947Y-2500D02*
Y-2650D01*
X12897Y-2500D02*
X12890Y-2543D01*
Y-2500D01*
X12997D01*
Y-2543D01*
X12990Y-2500D01*
X12918Y-2650D02*
X12968D01*
X13568Y-2521D02*
X13575Y-2500D01*
Y-2543D01*
X13568Y-2521D01*
X13554Y-2507D01*
X13532Y-2500D01*
X13511D01*
X13489Y-2507D01*
X13475Y-2521D01*
Y-2536D01*
X13482Y-2550D01*
X13489Y-2557D01*
X13504Y-2564D01*
X13546Y-2579D01*
X13561Y-2586D01*
X13575Y-2600D01*
X13475Y-2536D02*
X13489Y-2550D01*
X13504Y-2557D01*
X13546Y-2571D01*
X13561Y-2579D01*
X13568Y-2586D01*
X13575Y-2600D01*
Y-2629D01*
X13561Y-2643D01*
X13539Y-2650D01*
X13518D01*
X13496Y-2643D01*
X13482Y-2629D01*
X13475Y-2607D01*
Y-2650D01*
X13482Y-2629D01*
X13647Y-2500D02*
Y-2650D01*
X13654Y-2500D02*
Y-2650D01*
X13604Y-2500D02*
X13597Y-2543D01*
Y-2500D01*
X13704D01*
Y-2543D01*
X13697Y-2500D01*
X13626Y-2650D02*
X13676D01*
X13790Y-2500D02*
X13740Y-2650D01*
X13790Y-2500D02*
X13840Y-2650D01*
X13790Y-2521D02*
X13833Y-2650D01*
X13754Y-2607D02*
X13818D01*
X13726Y-2650D02*
X13769D01*
X13811D02*
X13854D01*
X13923Y-2500D02*
Y-2650D01*
X13931Y-2500D02*
Y-2650D01*
X13881Y-2500D02*
X13873Y-2543D01*
Y-2500D01*
X13981D01*
Y-2543D01*
X13973Y-2500D01*
X13902Y-2650D02*
X13952D01*
X14023Y-2500D02*
Y-2607D01*
X14031Y-2629D01*
X14045Y-2643D01*
X14066Y-2650D01*
X14081D01*
X14102Y-2643D01*
X14116Y-2629D01*
X14123Y-2607D01*
Y-2500D01*
X14031D02*
Y-2607D01*
X14038Y-2629D01*
X14052Y-2643D01*
X14066Y-2650D01*
X14002Y-2500D02*
X14052D01*
X14102D02*
X14145D01*
X14256Y-2521D02*
X14263Y-2500D01*
Y-2543D01*
X14256Y-2521D01*
X14241Y-2507D01*
X14220Y-2500D01*
X14198D01*
X14177Y-2507D01*
X14163Y-2521D01*
Y-2536D01*
X14170Y-2550D01*
X14177Y-2557D01*
X14191Y-2564D01*
X14234Y-2579D01*
X14248Y-2586D01*
X14263Y-2600D01*
X14163Y-2536D02*
X14177Y-2550D01*
X14191Y-2557D01*
X14234Y-2571D01*
X14248Y-2579D01*
X14256Y-2586D01*
X14263Y-2600D01*
Y-2629D01*
X14248Y-2643D01*
X14227Y-2650D01*
X14206D01*
X14184Y-2643D01*
X14170Y-2629D01*
X14163Y-2607D01*
Y-2650D01*
X14170Y-2629D01*
X1921Y-1400D02*
Y-1550D01*
X1929Y-1400D02*
Y-1550D01*
X1900Y-1400D02*
X1950D01*
X1900Y-1550D02*
X1950D01*
X1984Y-1429D02*
X1991Y-1436D01*
X1984Y-1443D01*
X1977Y-1436D01*
Y-1429D01*
X1984Y-1414D01*
X1991Y-1407D01*
X2013Y-1400D01*
X2041D01*
X2063Y-1407D01*
X2070Y-1414D01*
X2077Y-1429D01*
Y-1443D01*
X2070Y-1457D01*
X2049Y-1471D01*
X2013Y-1486D01*
X1999Y-1493D01*
X1984Y-1507D01*
X1977Y-1529D01*
Y-1550D01*
X2041Y-1400D02*
X2056Y-1407D01*
X2063Y-1414D01*
X2070Y-1429D01*
Y-1443D01*
X2063Y-1457D01*
X2041Y-1471D01*
X2013Y-1486D01*
X1977Y-1536D02*
X1984Y-1529D01*
X1999D01*
X2034Y-1543D01*
X2056D01*
X2070Y-1536D01*
X2077Y-1529D01*
Y-1514D01*
X1999Y-1529D02*
X2034Y-1550D01*
X2063D01*
X2070Y-1543D01*
X2077Y-1529D01*
X2421Y-1400D02*
Y-1550D01*
X2429Y-1400D02*
Y-1550D01*
X2400Y-1400D02*
X2450D01*
X2400Y-1550D02*
X2450D01*
X2484Y-1429D02*
X2491Y-1436D01*
X2484Y-1443D01*
X2477Y-1436D01*
Y-1429D01*
X2484Y-1414D01*
X2491Y-1407D01*
X2513Y-1400D01*
X2541D01*
X2563Y-1407D01*
X2570Y-1421D01*
Y-1443D01*
X2563Y-1457D01*
X2541Y-1464D01*
X2520D01*
X2541Y-1400D02*
X2556Y-1407D01*
X2563Y-1421D01*
Y-1443D01*
X2556Y-1457D01*
X2541Y-1464D01*
X2556Y-1471D01*
X2570Y-1486D01*
X2577Y-1500D01*
Y-1521D01*
X2570Y-1536D01*
X2563Y-1543D01*
X2541Y-1550D01*
X2513D01*
X2491Y-1543D01*
X2484Y-1536D01*
X2477Y-1521D01*
Y-1514D01*
X2484Y-1507D01*
X2491Y-1514D01*
X2484Y-1521D01*
X2563Y-1479D02*
X2570Y-1500D01*
Y-1521D01*
X2563Y-1536D01*
X2556Y-1543D01*
X2541Y-1550D01*
X2921Y-1400D02*
Y-1550D01*
X2929Y-1400D02*
Y-1550D01*
X2900Y-1400D02*
X2950D01*
X2900Y-1550D02*
X2950D01*
X3049Y-1414D02*
Y-1550D01*
X3091Y-1507D02*
X2977D01*
X3056Y-1400D01*
Y-1550D01*
X3027D02*
X3077D01*
X3421Y-1400D02*
Y-1550D01*
X3429Y-1400D02*
Y-1550D01*
X3400Y-1400D02*
X3450D01*
X3400Y-1550D02*
X3450D01*
X3491Y-1400D02*
X3477Y-1471D01*
X3491Y-1457D01*
X3513Y-1450D01*
X3534D01*
X3556Y-1457D01*
X3570Y-1471D01*
X3577Y-1493D01*
Y-1507D01*
X3570Y-1529D01*
X3556Y-1543D01*
X3534Y-1550D01*
X3513D01*
X3491Y-1543D01*
X3484Y-1536D01*
X3477Y-1521D01*
Y-1514D01*
X3484Y-1507D01*
X3491Y-1514D01*
X3484Y-1521D01*
X3534Y-1450D02*
X3549Y-1457D01*
X3563Y-1471D01*
X3570Y-1493D01*
Y-1507D01*
X3563Y-1529D01*
X3549Y-1543D01*
X3534Y-1550D01*
X3491Y-1400D02*
X3563D01*
X3491Y-1407D02*
X3527D01*
X3563Y-1400D01*
X4393Y-1430D02*
X4400Y-1450D01*
Y-1410D01*
X4393Y-1430D01*
X4380Y-1417D01*
X4360Y-1410D01*
X4347D01*
X4327Y-1417D01*
X4313Y-1430D01*
X4307Y-1443D01*
X4300Y-1463D01*
Y-1497D01*
X4307Y-1517D01*
X4313Y-1530D01*
X4327Y-1543D01*
X4347Y-1550D01*
X4360D01*
X4380Y-1543D01*
X4393Y-1530D01*
X4400Y-1517D01*
X4347Y-1410D02*
X4333Y-1417D01*
X4320Y-1430D01*
X4313Y-1443D01*
X4307Y-1463D01*
Y-1497D01*
X4313Y-1517D01*
X4320Y-1530D01*
X4333Y-1543D01*
X4347Y-1550D01*
X4467Y-1410D02*
X4447Y-1417D01*
X4433Y-1430D01*
X4427Y-1443D01*
X4420Y-1470D01*
Y-1490D01*
X4427Y-1517D01*
X4433Y-1530D01*
X4447Y-1543D01*
X4467Y-1550D01*
X4480D01*
X4500Y-1543D01*
X4513Y-1530D01*
X4520Y-1517D01*
X4527Y-1490D01*
Y-1470D01*
X4520Y-1443D01*
X4513Y-1430D01*
X4500Y-1417D01*
X4480Y-1410D01*
X4467D01*
X4453Y-1417D01*
X4440Y-1430D01*
X4433Y-1443D01*
X4427Y-1470D01*
Y-1490D01*
X4433Y-1517D01*
X4440Y-1530D01*
X4453Y-1543D01*
X4467Y-1550D01*
X4480D02*
X4493Y-1543D01*
X4507Y-1530D01*
X4513Y-1517D01*
X4520Y-1490D01*
Y-1470D01*
X4513Y-1443D01*
X4507Y-1430D01*
X4493Y-1417D01*
X4480Y-1410D01*
X4566D02*
Y-1550D01*
X4573Y-1410D02*
X4613Y-1530D01*
X4566Y-1410D02*
X4613Y-1550D01*
X4659Y-1410D02*
X4613Y-1550D01*
X4659Y-1410D02*
Y-1550D01*
X4666Y-1410D02*
Y-1550D01*
X4546Y-1410D02*
X4573D01*
X4659D02*
X4686D01*
X4546Y-1550D02*
X4586D01*
X4639D02*
X4686D01*
X11296Y-1400D02*
Y-1550D01*
X11304Y-1400D02*
Y-1550D01*
X11275Y-1400D02*
X11325D01*
X11275Y-1550D02*
X11325D01*
X11352Y-1429D02*
X11366Y-1421D01*
X11388Y-1400D01*
Y-1550D01*
X11381Y-1407D02*
Y-1550D01*
X11352D02*
X11416D01*
X11528Y-1421D02*
X11521Y-1429D01*
X11528Y-1436D01*
X11535Y-1429D01*
Y-1421D01*
X11528Y-1407D01*
X11514Y-1400D01*
X11492D01*
X11471Y-1407D01*
X11456Y-1421D01*
X11449Y-1436D01*
X11442Y-1464D01*
Y-1507D01*
X11449Y-1529D01*
X11464Y-1543D01*
X11485Y-1550D01*
X11499D01*
X11521Y-1543D01*
X11535Y-1529D01*
X11542Y-1507D01*
Y-1500D01*
X11535Y-1479D01*
X11521Y-1464D01*
X11499Y-1457D01*
X11492D01*
X11471Y-1464D01*
X11456Y-1479D01*
X11449Y-1500D01*
X11492Y-1400D02*
X11478Y-1407D01*
X11464Y-1421D01*
X11456Y-1436D01*
X11449Y-1464D01*
Y-1507D01*
X11456Y-1529D01*
X11471Y-1543D01*
X11485Y-1550D01*
X11499D02*
X11514Y-1543D01*
X11528Y-1529D01*
X11535Y-1507D01*
Y-1500D01*
X11528Y-1479D01*
X11514Y-1464D01*
X11499Y-1457D01*
X10796Y-1400D02*
Y-1550D01*
X10804Y-1400D02*
Y-1550D01*
X10775Y-1400D02*
X10825D01*
X10775Y-1550D02*
X10825D01*
X10852Y-1429D02*
X10866Y-1421D01*
X10888Y-1400D01*
Y-1550D01*
X10881Y-1407D02*
Y-1550D01*
X10852D02*
X10916D01*
X10956Y-1400D02*
X10942Y-1471D01*
X10956Y-1457D01*
X10978Y-1450D01*
X10999D01*
X11021Y-1457D01*
X11035Y-1471D01*
X11042Y-1493D01*
Y-1507D01*
X11035Y-1529D01*
X11021Y-1543D01*
X10999Y-1550D01*
X10978D01*
X10956Y-1543D01*
X10949Y-1536D01*
X10942Y-1521D01*
Y-1514D01*
X10949Y-1507D01*
X10956Y-1514D01*
X10949Y-1521D01*
X10999Y-1450D02*
X11014Y-1457D01*
X11028Y-1471D01*
X11035Y-1493D01*
Y-1507D01*
X11028Y-1529D01*
X11014Y-1543D01*
X10999Y-1550D01*
X10956Y-1400D02*
X11028D01*
X10956Y-1407D02*
X10992D01*
X11028Y-1400D01*
X11796D02*
Y-1550D01*
X11804Y-1400D02*
Y-1550D01*
X11775Y-1400D02*
X11825D01*
X11775Y-1550D02*
X11825D01*
X11852Y-1429D02*
X11866Y-1421D01*
X11888Y-1400D01*
Y-1550D01*
X11881Y-1407D02*
Y-1550D01*
X11852D02*
X11916D01*
X11942Y-1400D02*
Y-1443D01*
Y-1429D02*
X11949Y-1414D01*
X11964Y-1400D01*
X11978D01*
X12014Y-1421D01*
X12028D01*
X12035Y-1414D01*
X12042Y-1400D01*
X11949Y-1414D02*
X11964Y-1407D01*
X11978D01*
X12014Y-1421D01*
X12042Y-1400D02*
Y-1421D01*
X12035Y-1443D01*
X12006Y-1479D01*
X11999Y-1493D01*
X11992Y-1514D01*
Y-1550D01*
X12035Y-1443D02*
X11999Y-1479D01*
X11992Y-1493D01*
X11985Y-1514D01*
Y-1550D01*
X12296Y-1400D02*
Y-1550D01*
X12304Y-1400D02*
Y-1550D01*
X12275Y-1400D02*
X12325D01*
X12275Y-1550D02*
X12325D01*
X12352Y-1429D02*
X12366Y-1421D01*
X12388Y-1400D01*
Y-1550D01*
X12381Y-1407D02*
Y-1550D01*
X12352D02*
X12416D01*
X12478Y-1400D02*
X12456Y-1407D01*
X12449Y-1421D01*
Y-1443D01*
X12456Y-1457D01*
X12478Y-1464D01*
X12506D01*
X12528Y-1457D01*
X12535Y-1443D01*
Y-1421D01*
X12528Y-1407D01*
X12506Y-1400D01*
X12478D01*
X12464Y-1407D01*
X12456Y-1421D01*
Y-1443D01*
X12464Y-1457D01*
X12478Y-1464D01*
X12506D02*
X12521Y-1457D01*
X12528Y-1443D01*
Y-1421D01*
X12521Y-1407D01*
X12506Y-1400D01*
X12478Y-1464D02*
X12456Y-1471D01*
X12449Y-1479D01*
X12442Y-1493D01*
Y-1521D01*
X12449Y-1536D01*
X12456Y-1543D01*
X12478Y-1550D01*
X12506D01*
X12528Y-1543D01*
X12535Y-1536D01*
X12542Y-1521D01*
Y-1493D01*
X12535Y-1479D01*
X12528Y-1471D01*
X12506Y-1464D01*
X12478D02*
X12464Y-1471D01*
X12456Y-1479D01*
X12449Y-1493D01*
Y-1521D01*
X12456Y-1536D01*
X12464Y-1543D01*
X12478Y-1550D01*
X12506D02*
X12521Y-1543D01*
X12528Y-1536D01*
X12535Y-1521D01*
Y-1493D01*
X12528Y-1479D01*
X12521Y-1471D01*
X12506Y-1464D01*
X12796Y-1400D02*
Y-1550D01*
X12804Y-1400D02*
Y-1550D01*
X12775Y-1400D02*
X12825D01*
X12775Y-1550D02*
X12825D01*
X12852Y-1429D02*
X12866Y-1421D01*
X12888Y-1400D01*
Y-1550D01*
X12881Y-1407D02*
Y-1550D01*
X12852D02*
X12916D01*
X13035Y-1450D02*
X13028Y-1471D01*
X13014Y-1486D01*
X12992Y-1493D01*
X12985D01*
X12964Y-1486D01*
X12949Y-1471D01*
X12942Y-1450D01*
Y-1443D01*
X12949Y-1421D01*
X12964Y-1407D01*
X12985Y-1400D01*
X12999D01*
X13021Y-1407D01*
X13035Y-1421D01*
X13042Y-1443D01*
Y-1486D01*
X13035Y-1514D01*
X13028Y-1529D01*
X13014Y-1543D01*
X12992Y-1550D01*
X12971D01*
X12956Y-1543D01*
X12949Y-1529D01*
Y-1521D01*
X12956Y-1514D01*
X12964Y-1521D01*
X12956Y-1529D01*
X12985Y-1493D02*
X12971Y-1486D01*
X12956Y-1471D01*
X12949Y-1450D01*
Y-1443D01*
X12956Y-1421D01*
X12971Y-1407D01*
X12985Y-1400D01*
X12999D02*
X13014Y-1407D01*
X13028Y-1421D01*
X13035Y-1443D01*
Y-1486D01*
X13028Y-1514D01*
X13021Y-1529D01*
X13006Y-1543D01*
X12992Y-1550D01*
X13271Y-1400D02*
Y-1550D01*
X13279Y-1400D02*
Y-1550D01*
X13250Y-1400D02*
X13300D01*
X13250Y-1550D02*
X13300D01*
X13334Y-1429D02*
X13341Y-1436D01*
X13334Y-1443D01*
X13327Y-1436D01*
Y-1429D01*
X13334Y-1414D01*
X13341Y-1407D01*
X13363Y-1400D01*
X13391D01*
X13413Y-1407D01*
X13420Y-1414D01*
X13427Y-1429D01*
Y-1443D01*
X13420Y-1457D01*
X13399Y-1471D01*
X13363Y-1486D01*
X13349Y-1493D01*
X13334Y-1507D01*
X13327Y-1529D01*
Y-1550D01*
X13391Y-1400D02*
X13406Y-1407D01*
X13413Y-1414D01*
X13420Y-1429D01*
Y-1443D01*
X13413Y-1457D01*
X13391Y-1471D01*
X13363Y-1486D01*
X13327Y-1536D02*
X13334Y-1529D01*
X13349D01*
X13384Y-1543D01*
X13406D01*
X13420Y-1536D01*
X13427Y-1529D01*
Y-1514D01*
X13349Y-1529D02*
X13384Y-1550D01*
X13413D01*
X13420Y-1543D01*
X13427Y-1529D01*
X13492Y-1400D02*
X13471Y-1407D01*
X13456Y-1429D01*
X13449Y-1464D01*
Y-1486D01*
X13456Y-1521D01*
X13471Y-1543D01*
X13492Y-1550D01*
X13506D01*
X13528Y-1543D01*
X13542Y-1521D01*
X13549Y-1486D01*
Y-1464D01*
X13542Y-1429D01*
X13528Y-1407D01*
X13506Y-1400D01*
X13492D01*
X13478Y-1407D01*
X13471Y-1414D01*
X13464Y-1429D01*
X13456Y-1464D01*
Y-1486D01*
X13464Y-1521D01*
X13471Y-1536D01*
X13478Y-1543D01*
X13492Y-1550D01*
X13506D02*
X13521Y-1543D01*
X13528Y-1536D01*
X13535Y-1521D01*
X13542Y-1486D01*
Y-1464D01*
X13535Y-1429D01*
X13528Y-1414D01*
X13521Y-1407D01*
X13506Y-1400D01*
X13796D02*
Y-1550D01*
X13804Y-1400D02*
Y-1550D01*
X13775Y-1400D02*
X13825D01*
X13775Y-1550D02*
X13825D01*
X13859Y-1429D02*
X13866Y-1436D01*
X13859Y-1443D01*
X13852Y-1436D01*
Y-1429D01*
X13859Y-1414D01*
X13866Y-1407D01*
X13888Y-1400D01*
X13916D01*
X13938Y-1407D01*
X13945Y-1414D01*
X13952Y-1429D01*
Y-1443D01*
X13945Y-1457D01*
X13924Y-1471D01*
X13888Y-1486D01*
X13874Y-1493D01*
X13859Y-1507D01*
X13852Y-1529D01*
Y-1550D01*
X13916Y-1400D02*
X13931Y-1407D01*
X13938Y-1414D01*
X13945Y-1429D01*
Y-1443D01*
X13938Y-1457D01*
X13916Y-1471D01*
X13888Y-1486D01*
X13852Y-1536D02*
X13859Y-1529D01*
X13874D01*
X13909Y-1543D01*
X13931D01*
X13945Y-1536D01*
X13952Y-1529D01*
Y-1514D01*
X13874Y-1529D02*
X13909Y-1550D01*
X13938D01*
X13945Y-1543D01*
X13952Y-1529D01*
X13974Y-1429D02*
X13989Y-1421D01*
X14010Y-1400D01*
Y-1550D01*
X14003Y-1407D02*
Y-1550D01*
X13974D02*
X14039D01*
X14271Y-1400D02*
Y-1550D01*
X14279Y-1400D02*
Y-1550D01*
X14250Y-1400D02*
X14300D01*
X14250Y-1550D02*
X14300D01*
X14334Y-1429D02*
X14341Y-1436D01*
X14334Y-1443D01*
X14327Y-1436D01*
Y-1429D01*
X14334Y-1414D01*
X14341Y-1407D01*
X14363Y-1400D01*
X14391D01*
X14413Y-1407D01*
X14420Y-1414D01*
X14427Y-1429D01*
Y-1443D01*
X14420Y-1457D01*
X14399Y-1471D01*
X14363Y-1486D01*
X14349Y-1493D01*
X14334Y-1507D01*
X14327Y-1529D01*
Y-1550D01*
X14391Y-1400D02*
X14406Y-1407D01*
X14413Y-1414D01*
X14420Y-1429D01*
Y-1443D01*
X14413Y-1457D01*
X14391Y-1471D01*
X14363Y-1486D01*
X14327Y-1536D02*
X14334Y-1529D01*
X14349D01*
X14384Y-1543D01*
X14406D01*
X14420Y-1536D01*
X14427Y-1529D01*
Y-1514D01*
X14349Y-1529D02*
X14384Y-1550D01*
X14413D01*
X14420Y-1543D01*
X14427Y-1529D01*
X14456Y-1429D02*
X14464Y-1436D01*
X14456Y-1443D01*
X14449Y-1436D01*
Y-1429D01*
X14456Y-1414D01*
X14464Y-1407D01*
X14485Y-1400D01*
X14514D01*
X14535Y-1407D01*
X14542Y-1414D01*
X14549Y-1429D01*
Y-1443D01*
X14542Y-1457D01*
X14521Y-1471D01*
X14485Y-1486D01*
X14471Y-1493D01*
X14456Y-1507D01*
X14449Y-1529D01*
Y-1550D01*
X14514Y-1400D02*
X14528Y-1407D01*
X14535Y-1414D01*
X14542Y-1429D01*
Y-1443D01*
X14535Y-1457D01*
X14514Y-1471D01*
X14485Y-1486D01*
X14449Y-1536D02*
X14456Y-1529D01*
X14471D01*
X14506Y-1543D01*
X14528D01*
X14542Y-1536D01*
X14549Y-1529D01*
Y-1514D01*
X14471Y-1529D02*
X14506Y-1550D01*
X14535D01*
X14542Y-1543D01*
X14549Y-1529D01*
X14793Y-1430D02*
X14800Y-1450D01*
Y-1410D01*
X14793Y-1430D01*
X14780Y-1417D01*
X14760Y-1410D01*
X14747D01*
X14727Y-1417D01*
X14713Y-1430D01*
X14707Y-1443D01*
X14700Y-1463D01*
Y-1497D01*
X14707Y-1517D01*
X14713Y-1530D01*
X14727Y-1543D01*
X14747Y-1550D01*
X14760D01*
X14780Y-1543D01*
X14793Y-1530D01*
X14800Y-1517D01*
X14747Y-1410D02*
X14733Y-1417D01*
X14720Y-1430D01*
X14713Y-1443D01*
X14707Y-1463D01*
Y-1497D01*
X14713Y-1517D01*
X14720Y-1530D01*
X14733Y-1543D01*
X14747Y-1550D01*
X14867Y-1410D02*
X14847Y-1417D01*
X14833Y-1430D01*
X14827Y-1443D01*
X14820Y-1470D01*
Y-1490D01*
X14827Y-1517D01*
X14833Y-1530D01*
X14847Y-1543D01*
X14867Y-1550D01*
X14880D01*
X14900Y-1543D01*
X14913Y-1530D01*
X14920Y-1517D01*
X14927Y-1490D01*
Y-1470D01*
X14920Y-1443D01*
X14913Y-1430D01*
X14900Y-1417D01*
X14880Y-1410D01*
X14867D01*
X14853Y-1417D01*
X14840Y-1430D01*
X14833Y-1443D01*
X14827Y-1470D01*
Y-1490D01*
X14833Y-1517D01*
X14840Y-1530D01*
X14853Y-1543D01*
X14867Y-1550D01*
X14880D02*
X14893Y-1543D01*
X14907Y-1530D01*
X14913Y-1517D01*
X14920Y-1490D01*
Y-1470D01*
X14913Y-1443D01*
X14907Y-1430D01*
X14893Y-1417D01*
X14880Y-1410D01*
X14966D02*
Y-1550D01*
X14973Y-1410D02*
X15013Y-1530D01*
X14966Y-1410D02*
X15013Y-1550D01*
X15059Y-1410D02*
X15013Y-1550D01*
X15059Y-1410D02*
Y-1550D01*
X15066Y-1410D02*
Y-1550D01*
X14946Y-1410D02*
X14973D01*
X15059D02*
X15086D01*
X14946Y-1550D02*
X14986D01*
X15039D02*
X15086D01*
X5625Y-3400D02*
X5604Y-3407D01*
X5589Y-3421D01*
X5582Y-3436D01*
X5575Y-3464D01*
Y-3486D01*
X5582Y-3514D01*
X5589Y-3529D01*
X5604Y-3543D01*
X5625Y-3550D01*
X5639D01*
X5661Y-3543D01*
X5675Y-3529D01*
X5682Y-3514D01*
X5689Y-3486D01*
Y-3464D01*
X5682Y-3436D01*
X5675Y-3421D01*
X5661Y-3407D01*
X5639Y-3400D01*
X5625D01*
X5611Y-3407D01*
X5596Y-3421D01*
X5589Y-3436D01*
X5582Y-3464D01*
Y-3486D01*
X5589Y-3514D01*
X5596Y-3529D01*
X5611Y-3543D01*
X5625Y-3550D01*
X5639D02*
X5654Y-3543D01*
X5668Y-3529D01*
X5675Y-3514D01*
X5682Y-3486D01*
Y-3464D01*
X5675Y-3436D01*
X5668Y-3421D01*
X5654Y-3407D01*
X5639Y-3400D01*
X5803Y-3450D02*
X5796Y-3471D01*
X5781Y-3486D01*
X5760Y-3493D01*
X5753D01*
X5731Y-3486D01*
X5717Y-3471D01*
X5710Y-3450D01*
Y-3443D01*
X5717Y-3421D01*
X5731Y-3407D01*
X5753Y-3400D01*
X5767D01*
X5789Y-3407D01*
X5803Y-3421D01*
X5810Y-3443D01*
Y-3486D01*
X5803Y-3514D01*
X5796Y-3529D01*
X5781Y-3543D01*
X5760Y-3550D01*
X5739D01*
X5724Y-3543D01*
X5717Y-3529D01*
Y-3521D01*
X5724Y-3514D01*
X5731Y-3521D01*
X5724Y-3529D01*
X5753Y-3493D02*
X5739Y-3486D01*
X5724Y-3471D01*
X5717Y-3450D01*
Y-3443D01*
X5724Y-3421D01*
X5739Y-3407D01*
X5753Y-3400D01*
X5767D02*
X5781Y-3407D01*
X5796Y-3421D01*
X5803Y-3443D01*
Y-3486D01*
X5796Y-3514D01*
X5789Y-3529D01*
X5774Y-3543D01*
X5760Y-3550D01*
X6100Y-3400D02*
X6079Y-3407D01*
X6064Y-3421D01*
X6057Y-3436D01*
X6050Y-3464D01*
Y-3486D01*
X6057Y-3514D01*
X6064Y-3529D01*
X6079Y-3543D01*
X6100Y-3550D01*
X6114D01*
X6136Y-3543D01*
X6150Y-3529D01*
X6157Y-3514D01*
X6164Y-3486D01*
Y-3464D01*
X6157Y-3436D01*
X6150Y-3421D01*
X6136Y-3407D01*
X6114Y-3400D01*
X6100D01*
X6086Y-3407D01*
X6071Y-3421D01*
X6064Y-3436D01*
X6057Y-3464D01*
Y-3486D01*
X6064Y-3514D01*
X6071Y-3529D01*
X6086Y-3543D01*
X6100Y-3550D01*
X6114D02*
X6129Y-3543D01*
X6143Y-3529D01*
X6150Y-3514D01*
X6157Y-3486D01*
Y-3464D01*
X6150Y-3436D01*
X6143Y-3421D01*
X6129Y-3407D01*
X6114Y-3400D01*
X6185Y-3429D02*
X6199Y-3421D01*
X6221Y-3400D01*
Y-3550D01*
X6214Y-3407D02*
Y-3550D01*
X6185D02*
X6249D01*
X6318Y-3400D02*
X6296Y-3407D01*
X6282Y-3429D01*
X6275Y-3464D01*
Y-3486D01*
X6282Y-3521D01*
X6296Y-3543D01*
X6318Y-3550D01*
X6332D01*
X6354Y-3543D01*
X6368Y-3521D01*
X6375Y-3486D01*
Y-3464D01*
X6368Y-3429D01*
X6354Y-3407D01*
X6332Y-3400D01*
X6318D01*
X6304Y-3407D01*
X6296Y-3414D01*
X6289Y-3429D01*
X6282Y-3464D01*
Y-3486D01*
X6289Y-3521D01*
X6296Y-3536D01*
X6304Y-3543D01*
X6318Y-3550D01*
X6332D02*
X6346Y-3543D01*
X6354Y-3536D01*
X6361Y-3521D01*
X6368Y-3486D01*
Y-3464D01*
X6361Y-3429D01*
X6354Y-3414D01*
X6346Y-3407D01*
X6332Y-3400D01*
X6600D02*
X6579Y-3407D01*
X6564Y-3421D01*
X6557Y-3436D01*
X6550Y-3464D01*
Y-3486D01*
X6557Y-3514D01*
X6564Y-3529D01*
X6579Y-3543D01*
X6600Y-3550D01*
X6614D01*
X6636Y-3543D01*
X6650Y-3529D01*
X6657Y-3514D01*
X6664Y-3486D01*
Y-3464D01*
X6657Y-3436D01*
X6650Y-3421D01*
X6636Y-3407D01*
X6614Y-3400D01*
X6600D01*
X6586Y-3407D01*
X6571Y-3421D01*
X6564Y-3436D01*
X6557Y-3464D01*
Y-3486D01*
X6564Y-3514D01*
X6571Y-3529D01*
X6586Y-3543D01*
X6600Y-3550D01*
X6614D02*
X6629Y-3543D01*
X6643Y-3529D01*
X6650Y-3514D01*
X6657Y-3486D01*
Y-3464D01*
X6650Y-3436D01*
X6643Y-3421D01*
X6629Y-3407D01*
X6614Y-3400D01*
X6685Y-3429D02*
X6699Y-3421D01*
X6721Y-3400D01*
Y-3550D01*
X6714Y-3407D02*
Y-3550D01*
X6685D02*
X6749D01*
X6775Y-3429D02*
X6789Y-3421D01*
X6811Y-3400D01*
Y-3550D01*
X6804Y-3407D02*
Y-3550D01*
X6775D02*
X6839D01*
X7075Y-3400D02*
X7054Y-3407D01*
X7039Y-3421D01*
X7032Y-3436D01*
X7025Y-3464D01*
Y-3486D01*
X7032Y-3514D01*
X7039Y-3529D01*
X7054Y-3543D01*
X7075Y-3550D01*
X7089D01*
X7111Y-3543D01*
X7125Y-3529D01*
X7132Y-3514D01*
X7139Y-3486D01*
Y-3464D01*
X7132Y-3436D01*
X7125Y-3421D01*
X7111Y-3407D01*
X7089Y-3400D01*
X7075D01*
X7061Y-3407D01*
X7046Y-3421D01*
X7039Y-3436D01*
X7032Y-3464D01*
Y-3486D01*
X7039Y-3514D01*
X7046Y-3529D01*
X7061Y-3543D01*
X7075Y-3550D01*
X7089D02*
X7104Y-3543D01*
X7118Y-3529D01*
X7125Y-3514D01*
X7132Y-3486D01*
Y-3464D01*
X7125Y-3436D01*
X7118Y-3421D01*
X7104Y-3407D01*
X7089Y-3400D01*
X7160Y-3429D02*
X7174Y-3421D01*
X7196Y-3400D01*
Y-3550D01*
X7189Y-3407D02*
Y-3550D01*
X7160D02*
X7224D01*
X7257Y-3429D02*
X7264Y-3436D01*
X7257Y-3443D01*
X7250Y-3436D01*
Y-3429D01*
X7257Y-3414D01*
X7264Y-3407D01*
X7286Y-3400D01*
X7314D01*
X7336Y-3407D01*
X7343Y-3414D01*
X7350Y-3429D01*
Y-3443D01*
X7343Y-3457D01*
X7321Y-3471D01*
X7286Y-3486D01*
X7271Y-3493D01*
X7257Y-3507D01*
X7250Y-3529D01*
Y-3550D01*
X7314Y-3400D02*
X7329Y-3407D01*
X7336Y-3414D01*
X7343Y-3429D01*
Y-3443D01*
X7336Y-3457D01*
X7314Y-3471D01*
X7286Y-3486D01*
X7250Y-3536D02*
X7257Y-3529D01*
X7271D01*
X7307Y-3543D01*
X7329D01*
X7343Y-3536D01*
X7350Y-3529D01*
Y-3514D01*
X7271Y-3529D02*
X7307Y-3550D01*
X7336D01*
X7343Y-3543D01*
X7350Y-3529D01*
X7575Y-3400D02*
X7554Y-3407D01*
X7539Y-3421D01*
X7532Y-3436D01*
X7525Y-3464D01*
Y-3486D01*
X7532Y-3514D01*
X7539Y-3529D01*
X7554Y-3543D01*
X7575Y-3550D01*
X7589D01*
X7611Y-3543D01*
X7625Y-3529D01*
X7632Y-3514D01*
X7639Y-3486D01*
Y-3464D01*
X7632Y-3436D01*
X7625Y-3421D01*
X7611Y-3407D01*
X7589Y-3400D01*
X7575D01*
X7561Y-3407D01*
X7546Y-3421D01*
X7539Y-3436D01*
X7532Y-3464D01*
Y-3486D01*
X7539Y-3514D01*
X7546Y-3529D01*
X7561Y-3543D01*
X7575Y-3550D01*
X7589D02*
X7604Y-3543D01*
X7618Y-3529D01*
X7625Y-3514D01*
X7632Y-3486D01*
Y-3464D01*
X7625Y-3436D01*
X7618Y-3421D01*
X7604Y-3407D01*
X7589Y-3400D01*
X7660Y-3429D02*
X7674Y-3421D01*
X7696Y-3400D01*
Y-3550D01*
X7689Y-3407D02*
Y-3550D01*
X7660D02*
X7724D01*
X7757Y-3429D02*
X7764Y-3436D01*
X7757Y-3443D01*
X7750Y-3436D01*
Y-3429D01*
X7757Y-3414D01*
X7764Y-3407D01*
X7786Y-3400D01*
X7814D01*
X7836Y-3407D01*
X7843Y-3421D01*
Y-3443D01*
X7836Y-3457D01*
X7814Y-3464D01*
X7793D01*
X7814Y-3400D02*
X7829Y-3407D01*
X7836Y-3421D01*
Y-3443D01*
X7829Y-3457D01*
X7814Y-3464D01*
X7829Y-3471D01*
X7843Y-3486D01*
X7850Y-3500D01*
Y-3521D01*
X7843Y-3536D01*
X7836Y-3543D01*
X7814Y-3550D01*
X7786D01*
X7764Y-3543D01*
X7757Y-3536D01*
X7750Y-3521D01*
Y-3514D01*
X7757Y-3507D01*
X7764Y-3514D01*
X7757Y-3521D01*
X7836Y-3479D02*
X7843Y-3500D01*
Y-3521D01*
X7836Y-3536D01*
X7829Y-3543D01*
X7814Y-3550D01*
X8075Y-3400D02*
X8054Y-3407D01*
X8039Y-3421D01*
X8032Y-3436D01*
X8025Y-3464D01*
Y-3486D01*
X8032Y-3514D01*
X8039Y-3529D01*
X8054Y-3543D01*
X8075Y-3550D01*
X8089D01*
X8111Y-3543D01*
X8125Y-3529D01*
X8132Y-3514D01*
X8139Y-3486D01*
Y-3464D01*
X8132Y-3436D01*
X8125Y-3421D01*
X8111Y-3407D01*
X8089Y-3400D01*
X8075D01*
X8061Y-3407D01*
X8046Y-3421D01*
X8039Y-3436D01*
X8032Y-3464D01*
Y-3486D01*
X8039Y-3514D01*
X8046Y-3529D01*
X8061Y-3543D01*
X8075Y-3550D01*
X8089D02*
X8104Y-3543D01*
X8118Y-3529D01*
X8125Y-3514D01*
X8132Y-3486D01*
Y-3464D01*
X8125Y-3436D01*
X8118Y-3421D01*
X8104Y-3407D01*
X8089Y-3400D01*
X8160Y-3429D02*
X8174Y-3421D01*
X8196Y-3400D01*
Y-3550D01*
X8189Y-3407D02*
Y-3550D01*
X8160D02*
X8224D01*
X8321Y-3414D02*
Y-3550D01*
X8364Y-3507D02*
X8250D01*
X8329Y-3400D01*
Y-3550D01*
X8300D02*
X8350D01*
X8575Y-3400D02*
X8554Y-3407D01*
X8539Y-3421D01*
X8532Y-3436D01*
X8525Y-3464D01*
Y-3486D01*
X8532Y-3514D01*
X8539Y-3529D01*
X8554Y-3543D01*
X8575Y-3550D01*
X8589D01*
X8611Y-3543D01*
X8625Y-3529D01*
X8632Y-3514D01*
X8639Y-3486D01*
Y-3464D01*
X8632Y-3436D01*
X8625Y-3421D01*
X8611Y-3407D01*
X8589Y-3400D01*
X8575D01*
X8561Y-3407D01*
X8546Y-3421D01*
X8539Y-3436D01*
X8532Y-3464D01*
Y-3486D01*
X8539Y-3514D01*
X8546Y-3529D01*
X8561Y-3543D01*
X8575Y-3550D01*
X8589D02*
X8604Y-3543D01*
X8618Y-3529D01*
X8625Y-3514D01*
X8632Y-3486D01*
Y-3464D01*
X8625Y-3436D01*
X8618Y-3421D01*
X8604Y-3407D01*
X8589Y-3400D01*
X8660Y-3429D02*
X8674Y-3421D01*
X8696Y-3400D01*
Y-3550D01*
X8689Y-3407D02*
Y-3550D01*
X8660D02*
X8724D01*
X8764Y-3400D02*
X8750Y-3471D01*
X8764Y-3457D01*
X8786Y-3450D01*
X8807D01*
X8829Y-3457D01*
X8843Y-3471D01*
X8850Y-3493D01*
Y-3507D01*
X8843Y-3529D01*
X8829Y-3543D01*
X8807Y-3550D01*
X8786D01*
X8764Y-3543D01*
X8757Y-3536D01*
X8750Y-3521D01*
Y-3514D01*
X8757Y-3507D01*
X8764Y-3514D01*
X8757Y-3521D01*
X8807Y-3450D02*
X8821Y-3457D01*
X8836Y-3471D01*
X8843Y-3493D01*
Y-3507D01*
X8836Y-3529D01*
X8821Y-3543D01*
X8807Y-3550D01*
X8764Y-3400D02*
X8836D01*
X8764Y-3407D02*
X8800D01*
X8836Y-3400D01*
X9075D02*
X9054Y-3407D01*
X9039Y-3421D01*
X9032Y-3436D01*
X9025Y-3464D01*
Y-3486D01*
X9032Y-3514D01*
X9039Y-3529D01*
X9054Y-3543D01*
X9075Y-3550D01*
X9089D01*
X9111Y-3543D01*
X9125Y-3529D01*
X9132Y-3514D01*
X9139Y-3486D01*
Y-3464D01*
X9132Y-3436D01*
X9125Y-3421D01*
X9111Y-3407D01*
X9089Y-3400D01*
X9075D01*
X9061Y-3407D01*
X9046Y-3421D01*
X9039Y-3436D01*
X9032Y-3464D01*
Y-3486D01*
X9039Y-3514D01*
X9046Y-3529D01*
X9061Y-3543D01*
X9075Y-3550D01*
X9089D02*
X9104Y-3543D01*
X9118Y-3529D01*
X9125Y-3514D01*
X9132Y-3486D01*
Y-3464D01*
X9125Y-3436D01*
X9118Y-3421D01*
X9104Y-3407D01*
X9089Y-3400D01*
X9160Y-3429D02*
X9174Y-3421D01*
X9196Y-3400D01*
Y-3550D01*
X9189Y-3407D02*
Y-3550D01*
X9160D02*
X9224D01*
X9336Y-3421D02*
X9329Y-3429D01*
X9336Y-3436D01*
X9343Y-3429D01*
Y-3421D01*
X9336Y-3407D01*
X9321Y-3400D01*
X9300D01*
X9279Y-3407D01*
X9264Y-3421D01*
X9257Y-3436D01*
X9250Y-3464D01*
Y-3507D01*
X9257Y-3529D01*
X9271Y-3543D01*
X9293Y-3550D01*
X9307D01*
X9329Y-3543D01*
X9343Y-3529D01*
X9350Y-3507D01*
Y-3500D01*
X9343Y-3479D01*
X9329Y-3464D01*
X9307Y-3457D01*
X9300D01*
X9279Y-3464D01*
X9264Y-3479D01*
X9257Y-3500D01*
X9300Y-3400D02*
X9286Y-3407D01*
X9271Y-3421D01*
X9264Y-3436D01*
X9257Y-3464D01*
Y-3507D01*
X9264Y-3529D01*
X9279Y-3543D01*
X9293Y-3550D01*
X9307D02*
X9321Y-3543D01*
X9336Y-3529D01*
X9343Y-3507D01*
Y-3500D01*
X9336Y-3479D01*
X9321Y-3464D01*
X9307Y-3457D01*
X9618Y-3430D02*
X9625Y-3450D01*
Y-3410D01*
X9618Y-3430D01*
X9605Y-3417D01*
X9585Y-3410D01*
X9572D01*
X9552Y-3417D01*
X9538Y-3430D01*
X9532Y-3443D01*
X9525Y-3463D01*
Y-3497D01*
X9532Y-3517D01*
X9538Y-3530D01*
X9552Y-3543D01*
X9572Y-3550D01*
X9585D01*
X9605Y-3543D01*
X9618Y-3530D01*
X9625Y-3517D01*
X9572Y-3410D02*
X9558Y-3417D01*
X9545Y-3430D01*
X9538Y-3443D01*
X9532Y-3463D01*
Y-3497D01*
X9538Y-3517D01*
X9545Y-3530D01*
X9558Y-3543D01*
X9572Y-3550D01*
X9692Y-3410D02*
X9672Y-3417D01*
X9658Y-3430D01*
X9652Y-3443D01*
X9645Y-3470D01*
Y-3490D01*
X9652Y-3517D01*
X9658Y-3530D01*
X9672Y-3543D01*
X9692Y-3550D01*
X9705D01*
X9725Y-3543D01*
X9738Y-3530D01*
X9745Y-3517D01*
X9752Y-3490D01*
Y-3470D01*
X9745Y-3443D01*
X9738Y-3430D01*
X9725Y-3417D01*
X9705Y-3410D01*
X9692D01*
X9678Y-3417D01*
X9665Y-3430D01*
X9658Y-3443D01*
X9652Y-3470D01*
Y-3490D01*
X9658Y-3517D01*
X9665Y-3530D01*
X9678Y-3543D01*
X9692Y-3550D01*
X9705D02*
X9718Y-3543D01*
X9732Y-3530D01*
X9738Y-3517D01*
X9745Y-3490D01*
Y-3470D01*
X9738Y-3443D01*
X9732Y-3430D01*
X9718Y-3417D01*
X9705Y-3410D01*
X9791D02*
Y-3550D01*
X9798Y-3410D02*
X9838Y-3530D01*
X9791Y-3410D02*
X9838Y-3550D01*
X9884Y-3410D02*
X9838Y-3550D01*
X9884Y-3410D02*
Y-3550D01*
X9891Y-3410D02*
Y-3550D01*
X9771Y-3410D02*
X9798D01*
X9884D02*
X9911D01*
X9771Y-3550D02*
X9811D01*
X9864D02*
X9911D01*
X6746Y-3050D02*
Y-3200D01*
X6754Y-3050D02*
Y-3200D01*
X6725Y-3050D02*
X6796D01*
X6818Y-3057D01*
X6832Y-3071D01*
X6839Y-3086D01*
X6846Y-3107D01*
Y-3143D01*
X6839Y-3164D01*
X6832Y-3179D01*
X6818Y-3193D01*
X6796Y-3200D01*
X6725D01*
X6796Y-3050D02*
X6811Y-3057D01*
X6825Y-3071D01*
X6832Y-3086D01*
X6839Y-3107D01*
Y-3143D01*
X6832Y-3164D01*
X6825Y-3179D01*
X6811Y-3193D01*
X6796Y-3200D01*
X6888Y-3050D02*
Y-3200D01*
X6895Y-3050D02*
Y-3200D01*
X6866Y-3050D02*
X6916D01*
X6866Y-3200D02*
X6916D01*
X7044Y-3071D02*
X7051Y-3093D01*
Y-3050D01*
X7044Y-3071D01*
X7029Y-3057D01*
X7008Y-3050D01*
X6994D01*
X6972Y-3057D01*
X6958Y-3071D01*
X6951Y-3086D01*
X6944Y-3107D01*
Y-3143D01*
X6951Y-3164D01*
X6958Y-3179D01*
X6972Y-3193D01*
X6994Y-3200D01*
X7008D01*
X7029Y-3193D01*
X7044Y-3179D01*
X6994Y-3050D02*
X6979Y-3057D01*
X6965Y-3071D01*
X6958Y-3086D01*
X6951Y-3107D01*
Y-3143D01*
X6958Y-3164D01*
X6965Y-3179D01*
X6979Y-3193D01*
X6994Y-3200D01*
X7044Y-3143D02*
Y-3200D01*
X7051Y-3143D02*
Y-3200D01*
X7022Y-3143D02*
X7072D01*
X7113Y-3050D02*
Y-3200D01*
X7120Y-3050D02*
Y-3200D01*
X7091Y-3050D02*
X7141D01*
X7091Y-3200D02*
X7141D01*
X7218Y-3050D02*
Y-3200D01*
X7226Y-3050D02*
Y-3200D01*
X7176Y-3050D02*
X7168Y-3093D01*
Y-3050D01*
X7276D01*
Y-3093D01*
X7268Y-3050D01*
X7197Y-3200D02*
X7247D01*
X7361Y-3050D02*
X7311Y-3200D01*
X7361Y-3050D02*
X7411Y-3200D01*
X7361Y-3071D02*
X7404Y-3200D01*
X7326Y-3157D02*
X7390D01*
X7297Y-3200D02*
X7340D01*
X7383D02*
X7426D01*
X7466Y-3050D02*
Y-3200D01*
X7473Y-3050D02*
Y-3200D01*
X7445Y-3050D02*
X7495D01*
X7445Y-3200D02*
X7552D01*
Y-3157D01*
X7545Y-3200D01*
X7758Y-3050D02*
X7737Y-3057D01*
X7723Y-3071D01*
X7716Y-3086D01*
X7708Y-3114D01*
Y-3136D01*
X7716Y-3164D01*
X7723Y-3179D01*
X7737Y-3193D01*
X7758Y-3200D01*
X7773D01*
X7794Y-3193D01*
X7808Y-3179D01*
X7815Y-3164D01*
X7823Y-3136D01*
Y-3114D01*
X7815Y-3086D01*
X7808Y-3071D01*
X7794Y-3057D01*
X7773Y-3050D01*
X7758D01*
X7744Y-3057D01*
X7730Y-3071D01*
X7723Y-3086D01*
X7716Y-3114D01*
Y-3136D01*
X7723Y-3164D01*
X7730Y-3179D01*
X7744Y-3193D01*
X7758Y-3200D01*
X7773D02*
X7787Y-3193D01*
X7801Y-3179D01*
X7808Y-3164D01*
X7815Y-3136D01*
Y-3114D01*
X7808Y-3086D01*
X7801Y-3071D01*
X7787Y-3057D01*
X7773Y-3050D01*
X7865D02*
Y-3157D01*
X7872Y-3179D01*
X7886Y-3193D01*
X7908Y-3200D01*
X7922D01*
X7943Y-3193D01*
X7958Y-3179D01*
X7965Y-3157D01*
Y-3050D01*
X7872D02*
Y-3157D01*
X7879Y-3179D01*
X7893Y-3193D01*
X7908Y-3200D01*
X7843Y-3050D02*
X7893D01*
X7943D02*
X7986D01*
X8054D02*
Y-3200D01*
X8061Y-3050D02*
Y-3200D01*
X8011Y-3050D02*
X8004Y-3093D01*
Y-3050D01*
X8111D01*
Y-3093D01*
X8104Y-3050D01*
X8033Y-3200D02*
X8083D01*
X8154Y-3050D02*
Y-3200D01*
X8161Y-3050D02*
Y-3200D01*
X8133Y-3050D02*
X8218D01*
X8240Y-3057D01*
X8247Y-3064D01*
X8254Y-3079D01*
Y-3100D01*
X8247Y-3114D01*
X8240Y-3121D01*
X8218Y-3129D01*
X8161D01*
X8218Y-3050D02*
X8233Y-3057D01*
X8240Y-3064D01*
X8247Y-3079D01*
Y-3100D01*
X8240Y-3114D01*
X8233Y-3121D01*
X8218Y-3129D01*
X8133Y-3200D02*
X8183D01*
X8295Y-3050D02*
Y-3157D01*
X8303Y-3179D01*
X8317Y-3193D01*
X8338Y-3200D01*
X8353D01*
X8374Y-3193D01*
X8388Y-3179D01*
X8395Y-3157D01*
Y-3050D01*
X8303D02*
Y-3157D01*
X8310Y-3179D01*
X8324Y-3193D01*
X8338Y-3200D01*
X8274Y-3050D02*
X8324D01*
X8374D02*
X8417D01*
X8485D02*
Y-3200D01*
X8492Y-3050D02*
Y-3200D01*
X8442Y-3050D02*
X8435Y-3093D01*
Y-3050D01*
X8542D01*
Y-3093D01*
X8535Y-3050D01*
X8463Y-3200D02*
X8513D01*
X8656Y-3071D02*
X8663Y-3050D01*
Y-3093D01*
X8656Y-3071D01*
X8642Y-3057D01*
X8620Y-3050D01*
X8599D01*
X8577Y-3057D01*
X8563Y-3071D01*
Y-3086D01*
X8570Y-3100D01*
X8577Y-3107D01*
X8592Y-3114D01*
X8635Y-3129D01*
X8649Y-3136D01*
X8663Y-3150D01*
X8563Y-3086D02*
X8577Y-3100D01*
X8592Y-3107D01*
X8635Y-3121D01*
X8649Y-3129D01*
X8656Y-3136D01*
X8663Y-3150D01*
Y-3179D01*
X8649Y-3193D01*
X8627Y-3200D01*
X8606D01*
X8585Y-3193D01*
X8570Y-3179D01*
X8563Y-3157D01*
Y-3200D01*
X8570Y-3179D01*
X2121Y-1750D02*
Y-1900D01*
X2129Y-1750D02*
Y-1900D01*
X2100Y-1750D02*
X2171D01*
X2193Y-1757D01*
X2207Y-1771D01*
X2214Y-1786D01*
X2221Y-1807D01*
Y-1843D01*
X2214Y-1864D01*
X2207Y-1879D01*
X2193Y-1893D01*
X2171Y-1900D01*
X2100D01*
X2171Y-1750D02*
X2186Y-1757D01*
X2200Y-1771D01*
X2207Y-1786D01*
X2214Y-1807D01*
Y-1843D01*
X2207Y-1864D01*
X2200Y-1879D01*
X2186Y-1893D01*
X2171Y-1900D01*
X2263Y-1750D02*
Y-1900D01*
X2270Y-1750D02*
Y-1900D01*
X2241Y-1750D02*
X2291D01*
X2241Y-1900D02*
X2291D01*
X2419Y-1771D02*
X2426Y-1793D01*
Y-1750D01*
X2419Y-1771D01*
X2404Y-1757D01*
X2383Y-1750D01*
X2369D01*
X2347Y-1757D01*
X2333Y-1771D01*
X2326Y-1786D01*
X2319Y-1807D01*
Y-1843D01*
X2326Y-1864D01*
X2333Y-1879D01*
X2347Y-1893D01*
X2369Y-1900D01*
X2383D01*
X2404Y-1893D01*
X2419Y-1879D01*
X2369Y-1750D02*
X2354Y-1757D01*
X2340Y-1771D01*
X2333Y-1786D01*
X2326Y-1807D01*
Y-1843D01*
X2333Y-1864D01*
X2340Y-1879D01*
X2354Y-1893D01*
X2369Y-1900D01*
X2419Y-1843D02*
Y-1900D01*
X2426Y-1843D02*
Y-1900D01*
X2397Y-1843D02*
X2447D01*
X2488Y-1750D02*
Y-1900D01*
X2495Y-1750D02*
Y-1900D01*
X2466Y-1750D02*
X2516D01*
X2466Y-1900D02*
X2516D01*
X2593Y-1750D02*
Y-1900D01*
X2601Y-1750D02*
Y-1900D01*
X2551Y-1750D02*
X2543Y-1793D01*
Y-1750D01*
X2651D01*
Y-1793D01*
X2643Y-1750D01*
X2572Y-1900D02*
X2622D01*
X2736Y-1750D02*
X2686Y-1900D01*
X2736Y-1750D02*
X2786Y-1900D01*
X2736Y-1771D02*
X2779Y-1900D01*
X2701Y-1857D02*
X2765D01*
X2672Y-1900D02*
X2715D01*
X2758D02*
X2801D01*
X2841Y-1750D02*
Y-1900D01*
X2848Y-1750D02*
Y-1900D01*
X2820Y-1750D02*
X2870D01*
X2820Y-1900D02*
X2927D01*
Y-1857D01*
X2920Y-1900D01*
X3105Y-1750D02*
Y-1900D01*
X3112Y-1750D02*
Y-1900D01*
X3083Y-1750D02*
X3133D01*
X3083Y-1900D02*
X3133D01*
X3182Y-1750D02*
Y-1900D01*
X3189Y-1750D02*
X3275Y-1886D01*
X3189Y-1764D02*
X3275Y-1900D01*
Y-1750D02*
Y-1900D01*
X3160Y-1750D02*
X3189D01*
X3253D02*
X3296D01*
X3160Y-1900D02*
X3203D01*
X3336Y-1750D02*
Y-1900D01*
X3343Y-1750D02*
Y-1900D01*
X3315Y-1750D02*
X3400D01*
X3422Y-1757D01*
X3429Y-1764D01*
X3436Y-1779D01*
Y-1800D01*
X3429Y-1814D01*
X3422Y-1821D01*
X3400Y-1829D01*
X3343D01*
X3400Y-1750D02*
X3415Y-1757D01*
X3422Y-1764D01*
X3429Y-1779D01*
Y-1800D01*
X3422Y-1814D01*
X3415Y-1821D01*
X3400Y-1829D01*
X3315Y-1900D02*
X3365D01*
X3478Y-1750D02*
Y-1857D01*
X3485Y-1879D01*
X3499Y-1893D01*
X3520Y-1900D01*
X3535D01*
X3556Y-1893D01*
X3570Y-1879D01*
X3578Y-1857D01*
Y-1750D01*
X3485D02*
Y-1857D01*
X3492Y-1879D01*
X3506Y-1893D01*
X3520Y-1900D01*
X3456Y-1750D02*
X3506D01*
X3556D02*
X3599D01*
X3667D02*
Y-1900D01*
X3674Y-1750D02*
Y-1900D01*
X3624Y-1750D02*
X3617Y-1793D01*
Y-1750D01*
X3724D01*
Y-1793D01*
X3717Y-1750D01*
X3645Y-1900D02*
X3695D01*
X3838Y-1771D02*
X3845Y-1750D01*
Y-1793D01*
X3838Y-1771D01*
X3824Y-1757D01*
X3802Y-1750D01*
X3781D01*
X3760Y-1757D01*
X3745Y-1771D01*
Y-1786D01*
X3753Y-1800D01*
X3760Y-1807D01*
X3774Y-1814D01*
X3817Y-1829D01*
X3831Y-1836D01*
X3845Y-1850D01*
X3745Y-1786D02*
X3760Y-1800D01*
X3774Y-1807D01*
X3817Y-1821D01*
X3831Y-1829D01*
X3838Y-1836D01*
X3845Y-1850D01*
Y-1879D01*
X3831Y-1893D01*
X3810Y-1900D01*
X3788D01*
X3767Y-1893D01*
X3753Y-1879D01*
X3745Y-1857D01*
Y-1900D01*
X3753Y-1879D01*
X6871Y-1750D02*
Y-1900D01*
X6879Y-1750D02*
Y-1900D01*
X6850Y-1750D02*
X6921D01*
X6943Y-1757D01*
X6957Y-1771D01*
X6964Y-1786D01*
X6971Y-1807D01*
Y-1843D01*
X6964Y-1864D01*
X6957Y-1879D01*
X6943Y-1893D01*
X6921Y-1900D01*
X6850D01*
X6921Y-1750D02*
X6936Y-1757D01*
X6950Y-1771D01*
X6957Y-1786D01*
X6964Y-1807D01*
Y-1843D01*
X6957Y-1864D01*
X6950Y-1879D01*
X6936Y-1893D01*
X6921Y-1900D01*
X7013Y-1750D02*
Y-1900D01*
X7020Y-1750D02*
Y-1900D01*
X6991Y-1750D02*
X7041D01*
X6991Y-1900D02*
X7041D01*
X7169Y-1771D02*
X7176Y-1793D01*
Y-1750D01*
X7169Y-1771D01*
X7154Y-1757D01*
X7133Y-1750D01*
X7119D01*
X7097Y-1757D01*
X7083Y-1771D01*
X7076Y-1786D01*
X7069Y-1807D01*
Y-1843D01*
X7076Y-1864D01*
X7083Y-1879D01*
X7097Y-1893D01*
X7119Y-1900D01*
X7133D01*
X7154Y-1893D01*
X7169Y-1879D01*
X7119Y-1750D02*
X7104Y-1757D01*
X7090Y-1771D01*
X7083Y-1786D01*
X7076Y-1807D01*
Y-1843D01*
X7083Y-1864D01*
X7090Y-1879D01*
X7104Y-1893D01*
X7119Y-1900D01*
X7169Y-1843D02*
Y-1900D01*
X7176Y-1843D02*
Y-1900D01*
X7147Y-1843D02*
X7197D01*
X7238Y-1750D02*
Y-1900D01*
X7245Y-1750D02*
Y-1900D01*
X7216Y-1750D02*
X7266D01*
X7216Y-1900D02*
X7266D01*
X7343Y-1750D02*
Y-1900D01*
X7351Y-1750D02*
Y-1900D01*
X7301Y-1750D02*
X7293Y-1793D01*
Y-1750D01*
X7401D01*
Y-1793D01*
X7393Y-1750D01*
X7322Y-1900D02*
X7372D01*
X7486Y-1750D02*
X7436Y-1900D01*
X7486Y-1750D02*
X7536Y-1900D01*
X7486Y-1771D02*
X7529Y-1900D01*
X7451Y-1857D02*
X7515D01*
X7422Y-1900D02*
X7465D01*
X7508D02*
X7551D01*
X7591Y-1750D02*
Y-1900D01*
X7598Y-1750D02*
Y-1900D01*
X7570Y-1750D02*
X7620D01*
X7570Y-1900D02*
X7677D01*
Y-1857D01*
X7670Y-1900D01*
X7855Y-1750D02*
Y-1900D01*
X7862Y-1750D02*
Y-1900D01*
X7833Y-1750D02*
X7883D01*
X7833Y-1900D02*
X7883D01*
X7932Y-1750D02*
Y-1900D01*
X7939Y-1750D02*
X8025Y-1886D01*
X7939Y-1764D02*
X8025Y-1900D01*
Y-1750D02*
Y-1900D01*
X7910Y-1750D02*
X7939D01*
X8003D02*
X8046D01*
X7910Y-1900D02*
X7953D01*
X8086Y-1750D02*
Y-1900D01*
X8093Y-1750D02*
Y-1900D01*
X8065Y-1750D02*
X8150D01*
X8172Y-1757D01*
X8179Y-1764D01*
X8186Y-1779D01*
Y-1800D01*
X8179Y-1814D01*
X8172Y-1821D01*
X8150Y-1829D01*
X8093D01*
X8150Y-1750D02*
X8165Y-1757D01*
X8172Y-1764D01*
X8179Y-1779D01*
Y-1800D01*
X8172Y-1814D01*
X8165Y-1821D01*
X8150Y-1829D01*
X8065Y-1900D02*
X8115D01*
X8228Y-1750D02*
Y-1857D01*
X8235Y-1879D01*
X8249Y-1893D01*
X8270Y-1900D01*
X8285D01*
X8306Y-1893D01*
X8320Y-1879D01*
X8328Y-1857D01*
Y-1750D01*
X8235D02*
Y-1857D01*
X8242Y-1879D01*
X8256Y-1893D01*
X8270Y-1900D01*
X8206Y-1750D02*
X8256D01*
X8306D02*
X8349D01*
X8417D02*
Y-1900D01*
X8424Y-1750D02*
Y-1900D01*
X8374Y-1750D02*
X8367Y-1793D01*
Y-1750D01*
X8474D01*
Y-1793D01*
X8467Y-1750D01*
X8395Y-1900D02*
X8445D01*
X8588Y-1771D02*
X8595Y-1750D01*
Y-1793D01*
X8588Y-1771D01*
X8574Y-1757D01*
X8552Y-1750D01*
X8531D01*
X8510Y-1757D01*
X8495Y-1771D01*
Y-1786D01*
X8503Y-1800D01*
X8510Y-1807D01*
X8524Y-1814D01*
X8567Y-1829D01*
X8581Y-1836D01*
X8595Y-1850D01*
X8495Y-1786D02*
X8510Y-1800D01*
X8524Y-1807D01*
X8567Y-1821D01*
X8581Y-1829D01*
X8588Y-1836D01*
X8595Y-1850D01*
Y-1879D01*
X8581Y-1893D01*
X8560Y-1900D01*
X8538D01*
X8517Y-1893D01*
X8503Y-1879D01*
X8495Y-1857D01*
Y-1900D01*
X8503Y-1879D01*
X12021Y-1750D02*
Y-1900D01*
X12029Y-1750D02*
Y-1900D01*
X12000Y-1750D02*
X12071D01*
X12093Y-1757D01*
X12107Y-1771D01*
X12114Y-1786D01*
X12121Y-1807D01*
Y-1843D01*
X12114Y-1864D01*
X12107Y-1879D01*
X12093Y-1893D01*
X12071Y-1900D01*
X12000D01*
X12071Y-1750D02*
X12086Y-1757D01*
X12100Y-1771D01*
X12107Y-1786D01*
X12114Y-1807D01*
Y-1843D01*
X12107Y-1864D01*
X12100Y-1879D01*
X12086Y-1893D01*
X12071Y-1900D01*
X12163Y-1750D02*
Y-1900D01*
X12170Y-1750D02*
Y-1900D01*
X12141Y-1750D02*
X12191D01*
X12141Y-1900D02*
X12191D01*
X12319Y-1771D02*
X12326Y-1793D01*
Y-1750D01*
X12319Y-1771D01*
X12304Y-1757D01*
X12283Y-1750D01*
X12269D01*
X12247Y-1757D01*
X12233Y-1771D01*
X12226Y-1786D01*
X12219Y-1807D01*
Y-1843D01*
X12226Y-1864D01*
X12233Y-1879D01*
X12247Y-1893D01*
X12269Y-1900D01*
X12283D01*
X12304Y-1893D01*
X12319Y-1879D01*
X12269Y-1750D02*
X12254Y-1757D01*
X12240Y-1771D01*
X12233Y-1786D01*
X12226Y-1807D01*
Y-1843D01*
X12233Y-1864D01*
X12240Y-1879D01*
X12254Y-1893D01*
X12269Y-1900D01*
X12319Y-1843D02*
Y-1900D01*
X12326Y-1843D02*
Y-1900D01*
X12297Y-1843D02*
X12347D01*
X12388Y-1750D02*
Y-1900D01*
X12395Y-1750D02*
Y-1900D01*
X12366Y-1750D02*
X12416D01*
X12366Y-1900D02*
X12416D01*
X12493Y-1750D02*
Y-1900D01*
X12501Y-1750D02*
Y-1900D01*
X12451Y-1750D02*
X12443Y-1793D01*
Y-1750D01*
X12551D01*
Y-1793D01*
X12543Y-1750D01*
X12472Y-1900D02*
X12522D01*
X12636Y-1750D02*
X12586Y-1900D01*
X12636Y-1750D02*
X12686Y-1900D01*
X12636Y-1771D02*
X12679Y-1900D01*
X12601Y-1857D02*
X12665D01*
X12572Y-1900D02*
X12615D01*
X12658D02*
X12701D01*
X12741Y-1750D02*
Y-1900D01*
X12748Y-1750D02*
Y-1900D01*
X12720Y-1750D02*
X12770D01*
X12720Y-1900D02*
X12827D01*
Y-1857D01*
X12820Y-1900D01*
X13005Y-1750D02*
Y-1900D01*
X13012Y-1750D02*
Y-1900D01*
X12983Y-1750D02*
X13033D01*
X12983Y-1900D02*
X13033D01*
X13082Y-1750D02*
Y-1900D01*
X13089Y-1750D02*
X13175Y-1886D01*
X13089Y-1764D02*
X13175Y-1900D01*
Y-1750D02*
Y-1900D01*
X13060Y-1750D02*
X13089D01*
X13153D02*
X13196D01*
X13060Y-1900D02*
X13103D01*
X13236Y-1750D02*
Y-1900D01*
X13243Y-1750D02*
Y-1900D01*
X13215Y-1750D02*
X13300D01*
X13322Y-1757D01*
X13329Y-1764D01*
X13336Y-1779D01*
Y-1800D01*
X13329Y-1814D01*
X13322Y-1821D01*
X13300Y-1829D01*
X13243D01*
X13300Y-1750D02*
X13315Y-1757D01*
X13322Y-1764D01*
X13329Y-1779D01*
Y-1800D01*
X13322Y-1814D01*
X13315Y-1821D01*
X13300Y-1829D01*
X13215Y-1900D02*
X13265D01*
X13378Y-1750D02*
Y-1857D01*
X13385Y-1879D01*
X13399Y-1893D01*
X13420Y-1900D01*
X13435D01*
X13456Y-1893D01*
X13470Y-1879D01*
X13478Y-1857D01*
Y-1750D01*
X13385D02*
Y-1857D01*
X13392Y-1879D01*
X13406Y-1893D01*
X13420Y-1900D01*
X13356Y-1750D02*
X13406D01*
X13456D02*
X13499D01*
X13567D02*
Y-1900D01*
X13574Y-1750D02*
Y-1900D01*
X13524Y-1750D02*
X13517Y-1793D01*
Y-1750D01*
X13624D01*
Y-1793D01*
X13617Y-1750D01*
X13545Y-1900D02*
X13595D01*
X13738Y-1771D02*
X13745Y-1750D01*
Y-1793D01*
X13738Y-1771D01*
X13724Y-1757D01*
X13702Y-1750D01*
X13681D01*
X13660Y-1757D01*
X13645Y-1771D01*
Y-1786D01*
X13653Y-1800D01*
X13660Y-1807D01*
X13674Y-1814D01*
X13717Y-1829D01*
X13731Y-1836D01*
X13745Y-1850D01*
X13645Y-1786D02*
X13660Y-1800D01*
X13674Y-1807D01*
X13717Y-1821D01*
X13731Y-1829D01*
X13738Y-1836D01*
X13745Y-1850D01*
Y-1879D01*
X13731Y-1893D01*
X13710Y-1900D01*
X13688D01*
X13667Y-1893D01*
X13653Y-1879D01*
X13645Y-1857D01*
Y-1900D01*
X13653Y-1879D01*
X11221Y-2900D02*
Y-3007D01*
X11229Y-3029D01*
X11243Y-3043D01*
X11264Y-3050D01*
X11279D01*
X11300Y-3043D01*
X11314Y-3029D01*
X11321Y-3007D01*
Y-2900D01*
X11229D02*
Y-3007D01*
X11236Y-3029D01*
X11250Y-3043D01*
X11264Y-3050D01*
X11200Y-2900D02*
X11250D01*
X11300D02*
X11343D01*
X11454Y-2921D02*
X11461Y-2900D01*
Y-2943D01*
X11454Y-2921D01*
X11439Y-2907D01*
X11418Y-2900D01*
X11396D01*
X11375Y-2907D01*
X11361Y-2921D01*
Y-2936D01*
X11368Y-2950D01*
X11375Y-2957D01*
X11389Y-2964D01*
X11432Y-2979D01*
X11446Y-2986D01*
X11461Y-3000D01*
X11361Y-2936D02*
X11375Y-2950D01*
X11389Y-2957D01*
X11432Y-2971D01*
X11446Y-2979D01*
X11454Y-2986D01*
X11461Y-3000D01*
Y-3029D01*
X11446Y-3043D01*
X11425Y-3050D01*
X11404D01*
X11382Y-3043D01*
X11368Y-3029D01*
X11361Y-3007D01*
Y-3050D01*
X11368Y-3029D01*
X11504Y-2900D02*
Y-3050D01*
X11511Y-2900D02*
Y-3050D01*
X11483Y-2900D02*
X11568D01*
X11590Y-2907D01*
X11597Y-2914D01*
X11604Y-2929D01*
Y-2943D01*
X11597Y-2957D01*
X11590Y-2964D01*
X11568Y-2971D01*
Y-2900D02*
X11583Y-2907D01*
X11590Y-2914D01*
X11597Y-2929D01*
Y-2943D01*
X11590Y-2957D01*
X11583Y-2964D01*
X11568Y-2971D01*
X11511D02*
X11568D01*
X11590Y-2979D01*
X11597Y-2986D01*
X11604Y-3000D01*
Y-3021D01*
X11597Y-3036D01*
X11590Y-3043D01*
X11568Y-3050D01*
X11483D01*
X11568Y-2971D02*
X11583Y-2979D01*
X11590Y-2986D01*
X11597Y-3000D01*
Y-3021D01*
X11590Y-3036D01*
X11583Y-3043D01*
X11568Y-3050D01*
X450Y-3400D02*
X429Y-3407D01*
X414Y-3421D01*
X407Y-3436D01*
X400Y-3464D01*
Y-3486D01*
X407Y-3514D01*
X414Y-3529D01*
X429Y-3543D01*
X450Y-3550D01*
X464D01*
X486Y-3543D01*
X500Y-3529D01*
X507Y-3514D01*
X514Y-3486D01*
Y-3464D01*
X507Y-3436D01*
X500Y-3421D01*
X486Y-3407D01*
X464Y-3400D01*
X450D01*
X436Y-3407D01*
X421Y-3421D01*
X414Y-3436D01*
X407Y-3464D01*
Y-3486D01*
X414Y-3514D01*
X421Y-3529D01*
X436Y-3543D01*
X450Y-3550D01*
X464D02*
X479Y-3543D01*
X493Y-3529D01*
X500Y-3514D01*
X507Y-3486D01*
Y-3464D01*
X500Y-3436D01*
X493Y-3421D01*
X479Y-3407D01*
X464Y-3400D01*
X535Y-3429D02*
X549Y-3421D01*
X571Y-3400D01*
Y-3550D01*
X564Y-3407D02*
Y-3550D01*
X535D02*
X599D01*
X150Y-2630D02*
Y-2750D01*
Y-2630D02*
X196Y-2750D01*
X241Y-2630D02*
X196Y-2750D01*
X241Y-2630D02*
Y-2750D01*
X304Y-2670D02*
X293Y-2676D01*
X281Y-2687D01*
X276Y-2704D01*
Y-2716D01*
X281Y-2733D01*
X293Y-2744D01*
X304Y-2750D01*
X321D01*
X333Y-2744D01*
X344Y-2733D01*
X350Y-2716D01*
Y-2704D01*
X344Y-2687D01*
X333Y-2676D01*
X321Y-2670D01*
X304D01*
X445Y-2630D02*
Y-2750D01*
Y-2687D02*
X433Y-2676D01*
X422Y-2670D01*
X405D01*
X393Y-2676D01*
X382Y-2687D01*
X376Y-2704D01*
Y-2716D01*
X382Y-2733D01*
X393Y-2744D01*
X405Y-2750D01*
X422D01*
X433Y-2744D01*
X445Y-2733D01*
X477Y-2704D02*
X545D01*
Y-2693D01*
X540Y-2681D01*
X534Y-2676D01*
X522Y-2670D01*
X505D01*
X494Y-2676D01*
X482Y-2687D01*
X477Y-2704D01*
Y-2716D01*
X482Y-2733D01*
X494Y-2744D01*
X505Y-2750D01*
X522D01*
X534Y-2744D01*
X545Y-2733D01*
X571Y-2630D02*
Y-2750D01*
X602Y-2670D02*
X596Y-2676D01*
X602Y-2681D01*
X608Y-2676D01*
X602Y-2670D01*
Y-2739D02*
X596Y-2744D01*
X602Y-2750D01*
X608Y-2744D01*
X602Y-2739D01*
X728Y-2630D02*
Y-2750D01*
Y-2630D02*
X780D01*
X797Y-2636D01*
X802Y-2641D01*
X808Y-2653D01*
Y-2664D01*
X802Y-2676D01*
X797Y-2681D01*
X780Y-2687D01*
X728D02*
X780D01*
X797Y-2693D01*
X802Y-2699D01*
X808Y-2710D01*
Y-2727D01*
X802Y-2739D01*
X797Y-2744D01*
X780Y-2750D01*
X728D01*
X835Y-2630D02*
Y-2750D01*
Y-2630D02*
X886D01*
X904Y-2636D01*
X909Y-2641D01*
X915Y-2653D01*
Y-2664D01*
X909Y-2676D01*
X904Y-2681D01*
X886Y-2687D01*
X835D01*
X875D02*
X915Y-2750D01*
X942Y-2630D02*
Y-2750D01*
X1053Y-2659D02*
X1047Y-2647D01*
X1036Y-2636D01*
X1024Y-2630D01*
X1001D01*
X990Y-2636D01*
X978Y-2647D01*
X973Y-2659D01*
X967Y-2676D01*
Y-2704D01*
X973Y-2721D01*
X978Y-2733D01*
X990Y-2744D01*
X1001Y-2750D01*
X1024D01*
X1036Y-2744D01*
X1047Y-2733D01*
X1053Y-2721D01*
X1086Y-2630D02*
Y-2750D01*
X1166Y-2630D02*
X1086Y-2710D01*
X1115Y-2681D02*
X1166Y-2750D01*
X1193Y-2699D02*
X1296D01*
X1423Y-2750D02*
X1377Y-2630D01*
X1331Y-2750D01*
X1349Y-2710D02*
X1406D01*
X1519Y-2647D02*
X1514Y-2636D01*
X1497Y-2630D01*
X1485D01*
X1468Y-2636D01*
X1457Y-2653D01*
X1451Y-2681D01*
Y-2710D01*
X1457Y-2733D01*
X1468Y-2744D01*
X1485Y-2750D01*
X1491D01*
X1508Y-2744D01*
X1519Y-2733D01*
X1525Y-2716D01*
Y-2710D01*
X1519Y-2693D01*
X1508Y-2681D01*
X1491Y-2676D01*
X1485D01*
X1468Y-2681D01*
X1457Y-2693D01*
X1451Y-2710D01*
X1551Y-2699D02*
X1654D01*
X1690Y-2630D02*
Y-2750D01*
X1721Y-2659D02*
Y-2653D01*
X1726Y-2641D01*
X1732Y-2636D01*
X1743Y-2630D01*
X1766D01*
X1778Y-2636D01*
X1783Y-2641D01*
X1789Y-2653D01*
Y-2664D01*
X1783Y-2676D01*
X1772Y-2693D01*
X1715Y-2750D01*
X1795D01*
X1827Y-2659D02*
Y-2653D01*
X1833Y-2641D01*
X1839Y-2636D01*
X1850Y-2630D01*
X1873D01*
X1884Y-2636D01*
X1890Y-2641D01*
X1896Y-2653D01*
Y-2664D01*
X1890Y-2676D01*
X1879Y-2693D01*
X1822Y-2750D01*
X1902D01*
X1928Y-2699D02*
X2031D01*
X2101Y-2630D02*
X2090Y-2636D01*
X2078Y-2647D01*
X2072Y-2659D01*
X2067Y-2676D01*
Y-2704D01*
X2072Y-2721D01*
X2078Y-2733D01*
X2090Y-2744D01*
X2101Y-2750D01*
X2124D01*
X2135Y-2744D01*
X2147Y-2733D01*
X2152Y-2721D01*
X2158Y-2704D01*
Y-2676D01*
X2152Y-2659D01*
X2147Y-2647D01*
X2135Y-2636D01*
X2124Y-2630D01*
X2101D01*
X2186Y-2653D02*
X2198Y-2647D01*
X2215Y-2630D01*
Y-2750D01*
X2343Y-2647D02*
X2337Y-2636D01*
X2320Y-2630D01*
X2308D01*
X2291Y-2636D01*
X2280Y-2653D01*
X2274Y-2681D01*
Y-2710D01*
X2280Y-2733D01*
X2291Y-2744D01*
X2308Y-2750D01*
X2314D01*
X2331Y-2744D01*
X2343Y-2733D01*
X2348Y-2716D01*
Y-2710D01*
X2343Y-2693D01*
X2331Y-2681D01*
X2314Y-2676D01*
X2308D01*
X2291Y-2681D01*
X2280Y-2693D01*
X2274Y-2710D01*
X2375Y-2699D02*
X2478D01*
X2519Y-2659D02*
Y-2653D01*
X2524Y-2641D01*
X2530Y-2636D01*
X2541Y-2630D01*
X2564D01*
X2576Y-2636D01*
X2581Y-2641D01*
X2587Y-2653D01*
Y-2664D01*
X2581Y-2676D01*
X2570Y-2693D01*
X2513Y-2750D01*
X2593D01*
X2677Y-2630D02*
X2620Y-2710D01*
X2705D01*
X2677Y-2630D02*
Y-2750D01*
X2727Y-2630D02*
X2772Y-2750D01*
X2818Y-2630D02*
X2772Y-2750D01*
X2833Y-2630D02*
Y-2750D01*
Y-2630D02*
X2873D01*
X2891Y-2636D01*
X2902Y-2647D01*
X2908Y-2659D01*
X2913Y-2676D01*
Y-2704D01*
X2908Y-2721D01*
X2902Y-2733D01*
X2891Y-2744D01*
X2873Y-2750D01*
X2833D01*
X3026Y-2659D02*
X3020Y-2647D01*
X3009Y-2636D01*
X2997Y-2630D01*
X2975D01*
X2963Y-2636D01*
X2952Y-2647D01*
X2946Y-2659D01*
X2940Y-2676D01*
Y-2704D01*
X2946Y-2721D01*
X2952Y-2733D01*
X2963Y-2744D01*
X2975Y-2750D01*
X2997D01*
X3009Y-2744D01*
X3020Y-2733D01*
X3026Y-2721D01*
D32*
X9850Y-600D02*
G03*
X9850Y-600I-150J0D01*
G01*
X9350D02*
G03*
X9350Y-600I-150J0D01*
G01*
X8850D02*
G03*
X8850Y-600I-150J0D01*
G01*
X8350D02*
G03*
X8350Y-600I-150J0D01*
G01*
X7850D02*
G03*
X7850Y-600I-150J0D01*
G01*
X7350D02*
G03*
X7350Y-600I-150J0D01*
G01*
X6850D02*
G03*
X6850Y-600I-150J0D01*
G01*
X6350D02*
G03*
X6350Y-600I-150J0D01*
G01*
X5850D02*
G03*
X5850Y-600I-150J0D01*
G01*
X4650D02*
G03*
X4650Y-600I-150J0D01*
G01*
X4150D02*
G03*
X4150Y-600I-150J0D01*
G01*
X3650D02*
G03*
X3650Y-600I-150J0D01*
G01*
X3150D02*
G03*
X3150Y-600I-150J0D01*
G01*
X2650D02*
G03*
X2650Y-600I-150J0D01*
G01*
X2150D02*
G03*
X2150Y-600I-150J0D01*
G01*
X1650D02*
G03*
X1650Y-600I-150J0D01*
G01*
X1150D02*
G03*
X1150Y-600I-150J0D01*
G01*
X650D02*
G03*
X650Y-600I-150J0D01*
G01*
X4650Y-3800D02*
G03*
X4650Y-3800I-150J0D01*
G01*
X4150D02*
G03*
X4150Y-3800I-150J0D01*
G01*
X3650D02*
G03*
X3650Y-3800I-150J0D01*
G01*
X3150D02*
G03*
X3150Y-3800I-150J0D01*
G01*
X2650D02*
G03*
X2650Y-3800I-150J0D01*
G01*
X2150D02*
G03*
X2150Y-3800I-150J0D01*
G01*
X1650D02*
G03*
X1650Y-3800I-150J0D01*
G01*
X1150D02*
G03*
X1150Y-3800I-150J0D01*
G01*
X650D02*
G03*
X650Y-3800I-150J0D01*
G01*
X15050Y-600D02*
G03*
X15050Y-600I-150J0D01*
G01*
X14550D02*
G03*
X14550Y-600I-150J0D01*
G01*
X14050D02*
G03*
X14050Y-600I-150J0D01*
G01*
X13550D02*
G03*
X13550Y-600I-150J0D01*
G01*
X13050D02*
G03*
X13050Y-600I-150J0D01*
G01*
X12550D02*
G03*
X12550Y-600I-150J0D01*
G01*
X12050D02*
G03*
X12050Y-600I-150J0D01*
G01*
X11550D02*
G03*
X11550Y-600I-150J0D01*
G01*
X11050D02*
G03*
X11050Y-600I-150J0D01*
G01*
X9850Y-3800D02*
G03*
X9850Y-3800I-150J0D01*
G01*
X9350D02*
G03*
X9350Y-3800I-150J0D01*
G01*
X8850D02*
G03*
X8850Y-3800I-150J0D01*
G01*
X8350D02*
G03*
X8350Y-3800I-150J0D01*
G01*
X7850D02*
G03*
X7850Y-3800I-150J0D01*
G01*
X7350D02*
G03*
X7350Y-3800I-150J0D01*
G01*
X6850D02*
G03*
X6850Y-3800I-150J0D01*
G01*
X6350D02*
G03*
X6350Y-3800I-150J0D01*
G01*
X5850D02*
G03*
X5850Y-3800I-150J0D01*
G01*
X1250Y-1650D02*
X15150Y-1650D01*
X12000Y-3500D02*
X14400D01*
X150Y-350D02*
X15150D01*
X150Y-2000D02*
Y-350D01*
X200Y-1650D02*
X1250D01*
Y-2000D02*
Y-350D01*
X200Y-2950D02*
X200Y-4100D01*
X10000Y-4100D01*
X200Y-3300D02*
X10000D01*
X150Y-2000D02*
X1250D01*
X15150D01*
X200Y-2950D02*
X10000D01*
X12000Y-3500D02*
Y-2400D01*
X14400Y-2400D01*
X12000Y-2750D02*
X14400Y-2750D01*
Y-3500D02*
Y-2400D01*
X10000Y-4100D02*
Y-3350D01*
Y-3200D01*
Y-2950D01*
X13300Y-3500D02*
Y-2400D01*
X15150Y-350D02*
X15150Y-2000D01*
D33*
X11630Y-3235D02*
X11770D01*
X11040D02*
X11180D01*
X11040Y-4205D02*
X11770D01*
X11040Y-3755D02*
Y-3555D01*
Y-3275D02*
Y-3235D01*
Y-4205D02*
Y-4035D01*
X11770Y-3755D02*
Y-3555D01*
Y-4205D02*
Y-4035D01*
Y-3275D02*
Y-3235D01*
X13745Y-3338D02*
Y-3185D01*
X14005Y-3045D02*
Y-2855D01*
X13745Y-3045D02*
Y-2855D01*
X14005D01*
Y-3338D02*
Y-3185D01*
X13968Y-3375D02*
X14005Y-3338D01*
X13782Y-3375D02*
X13968D01*
X13745Y-3338D02*
X13782Y-3375D01*
X14270Y-1288D02*
Y-1135D01*
X14530Y-995D02*
Y-805D01*
X14270Y-995D02*
Y-805D01*
X14530D01*
Y-1288D02*
Y-1135D01*
X14493Y-1325D02*
X14530Y-1288D01*
X14307Y-1325D02*
X14493D01*
X14270Y-1288D02*
X14307Y-1325D01*
X13770Y-1288D02*
Y-1135D01*
X14030Y-995D02*
Y-805D01*
X13770Y-995D02*
Y-805D01*
X14030D01*
Y-1288D02*
Y-1135D01*
X13993Y-1325D02*
X14030Y-1288D01*
X13807Y-1325D02*
X13993D01*
X13770Y-1288D02*
X13807Y-1325D01*
X13270Y-1288D02*
Y-1135D01*
X13530Y-995D02*
Y-805D01*
X13270Y-995D02*
Y-805D01*
X13530D01*
Y-1288D02*
Y-1135D01*
X13493Y-1325D02*
X13530Y-1288D01*
X13307Y-1325D02*
X13493D01*
X13270Y-1288D02*
X13307Y-1325D01*
X12770Y-1288D02*
Y-1135D01*
X13030Y-995D02*
Y-805D01*
X12770Y-995D02*
Y-805D01*
X13030D01*
Y-1288D02*
Y-1135D01*
X12993Y-1325D02*
X13030Y-1288D01*
X12807Y-1325D02*
X12993D01*
X12770Y-1288D02*
X12807Y-1325D01*
X12270Y-1288D02*
Y-1135D01*
X12530Y-995D02*
Y-805D01*
X12270Y-995D02*
Y-805D01*
X12530D01*
Y-1288D02*
Y-1135D01*
X12493Y-1325D02*
X12530Y-1288D01*
X12307Y-1325D02*
X12493D01*
X12270Y-1288D02*
X12307Y-1325D01*
X11770Y-1288D02*
Y-1135D01*
X12030Y-995D02*
Y-805D01*
X11770Y-995D02*
Y-805D01*
X12030D01*
Y-1288D02*
Y-1135D01*
X11993Y-1325D02*
X12030Y-1288D01*
X11807Y-1325D02*
X11993D01*
X11770Y-1288D02*
X11807Y-1325D01*
X11270Y-1288D02*
Y-1135D01*
X11530Y-995D02*
Y-805D01*
X11270Y-995D02*
Y-805D01*
X11530D01*
Y-1288D02*
Y-1135D01*
X11493Y-1325D02*
X11530Y-1288D01*
X11307Y-1325D02*
X11493D01*
X11270Y-1288D02*
X11307Y-1325D01*
X10770Y-1288D02*
Y-1135D01*
X11030Y-995D02*
Y-805D01*
X10770Y-995D02*
Y-805D01*
X11030D01*
Y-1288D02*
Y-1135D01*
X10993Y-1325D02*
X11030Y-1288D01*
X10807Y-1325D02*
X10993D01*
X10770Y-1288D02*
X10807Y-1325D01*
X9070Y-1288D02*
Y-1135D01*
X9330Y-995D02*
Y-805D01*
X9070Y-995D02*
Y-805D01*
X9330D01*
Y-1288D02*
Y-1135D01*
X9293Y-1325D02*
X9330Y-1288D01*
X9107Y-1325D02*
X9293D01*
X9070Y-1288D02*
X9107Y-1325D01*
X8570Y-1288D02*
Y-1135D01*
X8830Y-995D02*
Y-805D01*
X8570Y-995D02*
Y-805D01*
X8830D01*
Y-1288D02*
Y-1135D01*
X8793Y-1325D02*
X8830Y-1288D01*
X8607Y-1325D02*
X8793D01*
X8570Y-1288D02*
X8607Y-1325D01*
X8070Y-1288D02*
Y-1135D01*
X8330Y-995D02*
Y-805D01*
X8070Y-995D02*
Y-805D01*
X8330D01*
Y-1288D02*
Y-1135D01*
X8293Y-1325D02*
X8330Y-1288D01*
X8107Y-1325D02*
X8293D01*
X8070Y-1288D02*
X8107Y-1325D01*
X7570Y-1288D02*
Y-1135D01*
X7830Y-995D02*
Y-805D01*
X7570Y-995D02*
Y-805D01*
X7830D01*
Y-1288D02*
Y-1135D01*
X7793Y-1325D02*
X7830Y-1288D01*
X7607Y-1325D02*
X7793D01*
X7570Y-1288D02*
X7607Y-1325D01*
X7070Y-1288D02*
Y-1135D01*
X7330Y-995D02*
Y-805D01*
X7070Y-995D02*
Y-805D01*
X7330D01*
Y-1288D02*
Y-1135D01*
X7293Y-1325D02*
X7330Y-1288D01*
X7107Y-1325D02*
X7293D01*
X7070Y-1288D02*
X7107Y-1325D01*
X6570Y-1288D02*
Y-1135D01*
X6830Y-995D02*
Y-805D01*
X6570Y-995D02*
Y-805D01*
X6830D01*
Y-1288D02*
Y-1135D01*
X6793Y-1325D02*
X6830Y-1288D01*
X6607Y-1325D02*
X6793D01*
X6570Y-1288D02*
X6607Y-1325D01*
X6070Y-1288D02*
Y-1135D01*
X6330Y-995D02*
Y-805D01*
X6070Y-995D02*
Y-805D01*
X6330D01*
Y-1288D02*
Y-1135D01*
X6292Y-1325D02*
X6330Y-1288D01*
X6108Y-1325D02*
X6292D01*
X6070Y-1288D02*
X6108Y-1325D01*
X5570Y-1288D02*
Y-1135D01*
X5830Y-995D02*
Y-805D01*
X5570Y-995D02*
Y-805D01*
X5830D01*
Y-1288D02*
Y-1135D01*
X5792Y-1325D02*
X5830Y-1288D01*
X5608Y-1325D02*
X5792D01*
X5570Y-1288D02*
X5608Y-1325D01*
X3870Y-1288D02*
Y-1135D01*
X4130Y-995D02*
Y-805D01*
X3870Y-995D02*
Y-805D01*
X4130D01*
Y-1288D02*
Y-1135D01*
X4092Y-1325D02*
X4130Y-1288D01*
X3908Y-1325D02*
X4092D01*
X3870Y-1288D02*
X3908Y-1325D01*
X3370Y-1288D02*
Y-1135D01*
X3630Y-995D02*
Y-805D01*
X3370Y-995D02*
Y-805D01*
X3630D01*
Y-1288D02*
Y-1135D01*
X3592Y-1325D02*
X3630Y-1288D01*
X3408Y-1325D02*
X3592D01*
X3370Y-1288D02*
X3408Y-1325D01*
X2870Y-1288D02*
Y-1135D01*
X3130Y-995D02*
Y-805D01*
X2870Y-995D02*
Y-805D01*
X3130D01*
Y-1288D02*
Y-1135D01*
X3092Y-1325D02*
X3130Y-1288D01*
X2908Y-1325D02*
X3092D01*
X2870Y-1288D02*
X2908Y-1325D01*
X2370Y-1288D02*
Y-1135D01*
X2630Y-995D02*
Y-805D01*
X2370Y-995D02*
Y-805D01*
X2630D01*
Y-1288D02*
Y-1135D01*
X2592Y-1325D02*
X2630Y-1288D01*
X2408Y-1325D02*
X2592D01*
X2370Y-1288D02*
X2408Y-1325D01*
X1870Y-1288D02*
Y-1135D01*
X2130Y-995D02*
Y-805D01*
X1870Y-995D02*
Y-805D01*
X2130D01*
Y-1288D02*
Y-1135D01*
X2092Y-1325D02*
X2130Y-1288D01*
X1908Y-1325D02*
X2092D01*
X1870Y-1288D02*
X1908Y-1325D01*
X1370Y-1288D02*
Y-1135D01*
X1630Y-995D02*
Y-805D01*
X1370Y-995D02*
Y-805D01*
X1630D01*
Y-1288D02*
Y-1135D01*
X1593Y-1325D02*
X1630Y-1288D01*
X1407Y-1325D02*
X1593D01*
X1370Y-1288D02*
X1407Y-1325D01*
X370Y-1288D02*
Y-1135D01*
X630Y-995D02*
Y-805D01*
X370Y-995D02*
Y-805D01*
X630D01*
Y-1288D02*
Y-1135D01*
X593Y-1325D02*
X630Y-1288D01*
X407Y-1325D02*
X593D01*
X370Y-1288D02*
X407Y-1325D01*
X5744Y-742D02*
X5608Y-507D01*
X5666Y-474D01*
X5802Y-709D01*
X5744Y-742D01*
X5750Y-719D02*
X5631Y-513D01*
X5660Y-496D01*
X5779Y-703D01*
X5750Y-719D01*
X5756Y-697D02*
X5654Y-519D01*
X5654Y-519D01*
X5757Y-697D01*
X5756Y-697D01*
X5747Y-683D02*
X5663Y-533D01*
X6244Y-742D02*
X6108Y-507D01*
X6166Y-474D01*
X6302Y-709D01*
X6244Y-742D01*
X6250Y-719D02*
X6131Y-513D01*
X6160Y-496D01*
X6279Y-703D01*
X6250Y-719D01*
X6256Y-697D02*
X6154Y-519D01*
X6154Y-519D01*
X6257Y-697D01*
X6256Y-697D01*
X6247Y-683D02*
X6163Y-533D01*
X6745Y-737D02*
X6609Y-502D01*
X6667Y-469D01*
X6803Y-704D01*
X6745Y-737D01*
X6751Y-714D02*
X6632Y-508D01*
X6661Y-491D01*
X6780Y-698D01*
X6751Y-714D01*
X6757Y-692D02*
X6655Y-514D01*
X6655Y-514D01*
X6757Y-691D01*
X6757Y-692D01*
X6748Y-678D02*
X6664Y-528D01*
X6745Y-737D02*
X6609Y-502D01*
X6667Y-469D01*
X6803Y-704D01*
X6745Y-737D01*
X6751Y-714D02*
X6632Y-508D01*
X6661Y-491D01*
X6780Y-698D01*
X6751Y-714D01*
X6757Y-692D02*
X6655Y-514D01*
X6655Y-514D01*
X6757Y-691D01*
X6757Y-692D01*
X6748Y-678D02*
X6664Y-528D01*
X7234Y-732D02*
X7098Y-497D01*
X7156Y-464D01*
X7292Y-699D01*
X7234Y-732D01*
X7240Y-709D02*
X7121Y-503D01*
X7150Y-486D01*
X7269Y-693D01*
X7240Y-709D01*
X7246Y-687D02*
X7144Y-509D01*
X7144Y-509D01*
X7247Y-687D01*
X7246Y-687D01*
X7237Y-673D02*
X7153Y-523D01*
X7735Y-737D02*
X7599Y-502D01*
X7657Y-469D01*
X7793Y-704D01*
X7735Y-737D01*
X7741Y-714D02*
X7622Y-508D01*
X7651Y-491D01*
X7770Y-698D01*
X7741Y-714D01*
X7747Y-692D02*
X7645Y-514D01*
X7645Y-514D01*
X7747Y-691D01*
X7747Y-692D01*
X7738Y-678D02*
X7654Y-528D01*
X8245Y-737D02*
X8109Y-502D01*
X8167Y-469D01*
X8303Y-704D01*
X8245Y-737D01*
X8251Y-714D02*
X8132Y-508D01*
X8161Y-491D01*
X8280Y-698D01*
X8251Y-714D01*
X8257Y-692D02*
X8155Y-514D01*
X8155Y-514D01*
X8257Y-691D01*
X8257Y-692D01*
X8248Y-678D02*
X8164Y-528D01*
X8735Y-737D02*
X8599Y-502D01*
X8657Y-469D01*
X8793Y-704D01*
X8735Y-737D01*
X8741Y-714D02*
X8622Y-508D01*
X8651Y-491D01*
X8770Y-698D01*
X8741Y-714D01*
X8747Y-692D02*
X8645Y-514D01*
X8645Y-514D01*
X8747Y-691D01*
X8747Y-692D01*
X8738Y-678D02*
X8654Y-528D01*
X9245Y-737D02*
X9109Y-502D01*
X9167Y-469D01*
X9303Y-704D01*
X9245Y-737D01*
X9251Y-714D02*
X9132Y-508D01*
X9161Y-491D01*
X9280Y-698D01*
X9251Y-714D01*
X9257Y-692D02*
X9155Y-514D01*
X9155Y-514D01*
X9257Y-691D01*
X9257Y-692D01*
X9248Y-678D02*
X9164Y-528D01*
X9745Y-737D02*
X9609Y-502D01*
X9667Y-469D01*
X9803Y-704D01*
X9745Y-737D01*
X9751Y-714D02*
X9632Y-508D01*
X9661Y-491D01*
X9780Y-698D01*
X9751Y-714D01*
X9757Y-692D02*
X9655Y-514D01*
X9655Y-514D01*
X9757Y-691D01*
X9757Y-692D01*
X9748Y-678D02*
X9664Y-528D01*
X544Y-742D02*
X408Y-507D01*
X466Y-474D01*
X602Y-709D01*
X544Y-742D01*
X550Y-719D02*
X431Y-513D01*
X460Y-496D01*
X579Y-703D01*
X550Y-719D01*
X556Y-697D02*
X454Y-519D01*
X454Y-519D01*
X557Y-697D01*
X556Y-697D01*
X547Y-683D02*
X463Y-533D01*
X1044Y-742D02*
X908Y-507D01*
X966Y-474D01*
X1102Y-709D01*
X1044Y-742D01*
X1050Y-719D02*
X931Y-513D01*
X960Y-496D01*
X1079Y-703D01*
X1050Y-719D01*
X1056Y-697D02*
X954Y-519D01*
X954Y-519D01*
X1057Y-697D01*
X1056Y-697D01*
X1047Y-683D02*
X963Y-533D01*
X1545Y-737D02*
X1409Y-502D01*
X1467Y-469D01*
X1603Y-704D01*
X1545Y-737D01*
X1551Y-714D02*
X1432Y-508D01*
X1461Y-491D01*
X1580Y-698D01*
X1551Y-714D01*
X1557Y-692D02*
X1455Y-514D01*
X1455Y-514D01*
X1557Y-691D01*
X1557Y-692D01*
X1548Y-678D02*
X1464Y-528D01*
X1545Y-737D02*
X1409Y-502D01*
X1467Y-469D01*
X1603Y-704D01*
X1545Y-737D01*
X1551Y-714D02*
X1432Y-508D01*
X1461Y-491D01*
X1580Y-698D01*
X1551Y-714D01*
X1557Y-692D02*
X1455Y-514D01*
X1455Y-514D01*
X1557Y-691D01*
X1557Y-692D01*
X1548Y-678D02*
X1464Y-528D01*
X2034Y-732D02*
X1898Y-497D01*
X1956Y-464D01*
X2092Y-699D01*
X2034Y-732D01*
X2040Y-709D02*
X1921Y-503D01*
X1950Y-486D01*
X2069Y-693D01*
X2040Y-709D01*
X2046Y-687D02*
X1944Y-509D01*
X1944Y-509D01*
X2047Y-687D01*
X2046Y-687D01*
X2037Y-673D02*
X1953Y-523D01*
X2535Y-737D02*
X2399Y-502D01*
X2457Y-469D01*
X2593Y-704D01*
X2535Y-737D01*
X2541Y-714D02*
X2422Y-508D01*
X2451Y-491D01*
X2570Y-698D01*
X2541Y-714D01*
X2547Y-692D02*
X2445Y-514D01*
X2445Y-514D01*
X2547Y-691D01*
X2547Y-692D01*
X2538Y-678D02*
X2454Y-528D01*
X3045Y-737D02*
X2909Y-502D01*
X2967Y-469D01*
X3103Y-704D01*
X3045Y-737D01*
X3051Y-714D02*
X2932Y-508D01*
X2961Y-491D01*
X3080Y-698D01*
X3051Y-714D01*
X3057Y-692D02*
X2955Y-514D01*
X2955Y-514D01*
X3057Y-691D01*
X3057Y-692D01*
X3048Y-678D02*
X2964Y-528D01*
X3535Y-737D02*
X3399Y-502D01*
X3457Y-469D01*
X3593Y-704D01*
X3535Y-737D01*
X3541Y-714D02*
X3422Y-508D01*
X3451Y-491D01*
X3570Y-698D01*
X3541Y-714D01*
X3547Y-692D02*
X3445Y-514D01*
X3445Y-514D01*
X3547Y-691D01*
X3547Y-692D01*
X3538Y-678D02*
X3454Y-528D01*
X4045Y-737D02*
X3909Y-502D01*
X3967Y-469D01*
X4103Y-704D01*
X4045Y-737D01*
X4051Y-714D02*
X3932Y-508D01*
X3961Y-491D01*
X4080Y-698D01*
X4051Y-714D01*
X4057Y-692D02*
X3955Y-514D01*
X3955Y-514D01*
X4057Y-691D01*
X4057Y-692D01*
X4048Y-678D02*
X3964Y-528D01*
X4545Y-737D02*
X4409Y-502D01*
X4467Y-469D01*
X4603Y-704D01*
X4545Y-737D01*
X4551Y-714D02*
X4432Y-508D01*
X4461Y-491D01*
X4580Y-698D01*
X4551Y-714D01*
X4557Y-692D02*
X4455Y-514D01*
X4455Y-514D01*
X4557Y-691D01*
X4557Y-692D01*
X4548Y-678D02*
X4464Y-528D01*
X544Y-3942D02*
X408Y-3707D01*
X466Y-3674D01*
X602Y-3909D01*
X544Y-3942D01*
X550Y-3919D02*
X431Y-3713D01*
X460Y-3696D01*
X579Y-3903D01*
X550Y-3919D01*
X556Y-3897D02*
X454Y-3719D01*
X454Y-3719D01*
X557Y-3897D01*
X556Y-3897D01*
X547Y-3883D02*
X463Y-3733D01*
X1044Y-3942D02*
X908Y-3707D01*
X966Y-3674D01*
X1102Y-3909D01*
X1044Y-3942D01*
X1050Y-3919D02*
X931Y-3713D01*
X960Y-3696D01*
X1079Y-3903D01*
X1050Y-3919D01*
X1056Y-3897D02*
X954Y-3719D01*
X954Y-3719D01*
X1057Y-3897D01*
X1056Y-3897D01*
X1047Y-3883D02*
X963Y-3733D01*
X1545Y-3937D02*
X1409Y-3702D01*
X1467Y-3669D01*
X1603Y-3904D01*
X1545Y-3937D01*
X1551Y-3914D02*
X1432Y-3708D01*
X1461Y-3691D01*
X1580Y-3898D01*
X1551Y-3914D01*
X1557Y-3892D02*
X1455Y-3714D01*
X1455Y-3714D01*
X1557Y-3891D01*
X1557Y-3892D01*
X1548Y-3878D02*
X1464Y-3728D01*
X1545Y-3937D02*
X1409Y-3702D01*
X1467Y-3669D01*
X1603Y-3904D01*
X1545Y-3937D01*
X1551Y-3914D02*
X1432Y-3708D01*
X1461Y-3691D01*
X1580Y-3898D01*
X1551Y-3914D01*
X1557Y-3892D02*
X1455Y-3714D01*
X1455Y-3714D01*
X1557Y-3891D01*
X1557Y-3892D01*
X1548Y-3878D02*
X1464Y-3728D01*
X2034Y-3932D02*
X1898Y-3697D01*
X1956Y-3664D01*
X2092Y-3899D01*
X2034Y-3932D01*
X2040Y-3909D02*
X1921Y-3703D01*
X1950Y-3686D01*
X2069Y-3893D01*
X2040Y-3909D01*
X2046Y-3887D02*
X1944Y-3709D01*
X1944Y-3709D01*
X2047Y-3887D01*
X2046Y-3887D01*
X2037Y-3873D02*
X1953Y-3723D01*
X2535Y-3937D02*
X2399Y-3702D01*
X2457Y-3669D01*
X2593Y-3904D01*
X2535Y-3937D01*
X2541Y-3914D02*
X2422Y-3708D01*
X2451Y-3691D01*
X2570Y-3898D01*
X2541Y-3914D01*
X2547Y-3892D02*
X2445Y-3714D01*
X2445Y-3714D01*
X2547Y-3891D01*
X2547Y-3892D01*
X2538Y-3878D02*
X2454Y-3728D01*
X3045Y-3937D02*
X2909Y-3702D01*
X2967Y-3669D01*
X3103Y-3904D01*
X3045Y-3937D01*
X3051Y-3914D02*
X2932Y-3708D01*
X2961Y-3691D01*
X3080Y-3898D01*
X3051Y-3914D01*
X3057Y-3892D02*
X2955Y-3714D01*
X2955Y-3714D01*
X3057Y-3891D01*
X3057Y-3892D01*
X3048Y-3878D02*
X2964Y-3728D01*
X3535Y-3937D02*
X3399Y-3702D01*
X3457Y-3669D01*
X3593Y-3904D01*
X3535Y-3937D01*
X3541Y-3914D02*
X3422Y-3708D01*
X3451Y-3691D01*
X3570Y-3898D01*
X3541Y-3914D01*
X3547Y-3892D02*
X3445Y-3714D01*
X3445Y-3714D01*
X3547Y-3891D01*
X3547Y-3892D01*
X3538Y-3878D02*
X3454Y-3728D01*
X4045Y-3937D02*
X3909Y-3702D01*
X3967Y-3669D01*
X4103Y-3904D01*
X4045Y-3937D01*
X4051Y-3914D02*
X3932Y-3708D01*
X3961Y-3691D01*
X4080Y-3898D01*
X4051Y-3914D01*
X4057Y-3892D02*
X3955Y-3714D01*
X3955Y-3714D01*
X4057Y-3891D01*
X4057Y-3892D01*
X4048Y-3878D02*
X3964Y-3728D01*
X4545Y-3937D02*
X4409Y-3702D01*
X4467Y-3669D01*
X4603Y-3904D01*
X4545Y-3937D01*
X4551Y-3914D02*
X4432Y-3708D01*
X4461Y-3691D01*
X4580Y-3898D01*
X4551Y-3914D01*
X4557Y-3892D02*
X4455Y-3714D01*
X4455Y-3714D01*
X4557Y-3891D01*
X4557Y-3892D01*
X4548Y-3878D02*
X4464Y-3728D01*
X1545Y-737D02*
X1409Y-502D01*
X1467Y-469D01*
X1603Y-704D01*
X1545Y-737D01*
X1551Y-714D02*
X1432Y-508D01*
X1461Y-491D01*
X1580Y-698D01*
X1551Y-714D01*
X1557Y-692D02*
X1455Y-514D01*
X1455Y-514D01*
X1557Y-691D01*
X1557Y-692D01*
X1548Y-678D02*
X1464Y-528D01*
X10944Y-742D02*
X10808Y-507D01*
X10866Y-474D01*
X11002Y-709D01*
X10944Y-742D01*
X10950Y-719D02*
X10831Y-513D01*
X10860Y-496D01*
X10979Y-703D01*
X10950Y-719D01*
X10956Y-697D02*
X10854Y-519D01*
X10854Y-519D01*
X10957Y-697D01*
X10956Y-697D01*
X10947Y-683D02*
X10863Y-533D01*
X11444Y-742D02*
X11308Y-507D01*
X11366Y-474D01*
X11502Y-709D01*
X11444Y-742D01*
X11450Y-719D02*
X11331Y-513D01*
X11360Y-496D01*
X11479Y-703D01*
X11450Y-719D01*
X11456Y-697D02*
X11354Y-519D01*
X11354Y-519D01*
X11457Y-697D01*
X11456Y-697D01*
X11447Y-683D02*
X11363Y-533D01*
X11945Y-737D02*
X11809Y-502D01*
X11867Y-469D01*
X12003Y-704D01*
X11945Y-737D01*
X11951Y-714D02*
X11832Y-508D01*
X11861Y-491D01*
X11980Y-698D01*
X11951Y-714D01*
X11957Y-692D02*
X11855Y-514D01*
X11855Y-514D01*
X11957Y-691D01*
X11957Y-692D01*
X11948Y-678D02*
X11864Y-528D01*
X11945Y-737D02*
X11809Y-502D01*
X11867Y-469D01*
X12003Y-704D01*
X11945Y-737D01*
X11951Y-714D02*
X11832Y-508D01*
X11861Y-491D01*
X11980Y-698D01*
X11951Y-714D01*
X11957Y-692D02*
X11855Y-514D01*
X11855Y-514D01*
X11957Y-691D01*
X11957Y-692D01*
X11948Y-678D02*
X11864Y-528D01*
X12434Y-732D02*
X12298Y-497D01*
X12356Y-464D01*
X12492Y-699D01*
X12434Y-732D01*
X12440Y-709D02*
X12321Y-503D01*
X12350Y-486D01*
X12469Y-693D01*
X12440Y-709D01*
X12446Y-687D02*
X12344Y-509D01*
X12344Y-509D01*
X12447Y-687D01*
X12446Y-687D01*
X12437Y-673D02*
X12353Y-523D01*
X12935Y-737D02*
X12799Y-502D01*
X12857Y-469D01*
X12993Y-704D01*
X12935Y-737D01*
X12941Y-714D02*
X12822Y-508D01*
X12851Y-491D01*
X12970Y-698D01*
X12941Y-714D01*
X12947Y-692D02*
X12845Y-514D01*
X12845Y-514D01*
X12947Y-691D01*
X12947Y-692D01*
X12938Y-678D02*
X12854Y-528D01*
X13445Y-737D02*
X13309Y-502D01*
X13367Y-469D01*
X13503Y-704D01*
X13445Y-737D01*
X13451Y-714D02*
X13332Y-508D01*
X13361Y-491D01*
X13480Y-698D01*
X13451Y-714D01*
X13457Y-692D02*
X13355Y-514D01*
X13355Y-514D01*
X13457Y-691D01*
X13457Y-692D01*
X13448Y-678D02*
X13364Y-528D01*
X13935Y-737D02*
X13799Y-502D01*
X13857Y-469D01*
X13993Y-704D01*
X13935Y-737D01*
X13941Y-714D02*
X13822Y-508D01*
X13851Y-491D01*
X13970Y-698D01*
X13941Y-714D01*
X13947Y-692D02*
X13845Y-514D01*
X13845Y-514D01*
X13947Y-691D01*
X13947Y-692D01*
X13938Y-678D02*
X13854Y-528D01*
X14445Y-737D02*
X14309Y-502D01*
X14367Y-469D01*
X14503Y-704D01*
X14445Y-737D01*
X14451Y-714D02*
X14332Y-508D01*
X14361Y-491D01*
X14480Y-698D01*
X14451Y-714D01*
X14457Y-692D02*
X14355Y-514D01*
X14355Y-514D01*
X14457Y-691D01*
X14457Y-692D01*
X14448Y-678D02*
X14364Y-528D01*
X14945Y-737D02*
X14809Y-502D01*
X14867Y-469D01*
X15003Y-704D01*
X14945Y-737D01*
X14951Y-714D02*
X14832Y-508D01*
X14861Y-491D01*
X14980Y-698D01*
X14951Y-714D01*
X14957Y-692D02*
X14855Y-514D01*
X14855Y-514D01*
X14957Y-691D01*
X14957Y-692D01*
X14948Y-678D02*
X14864Y-528D01*
X5744Y-3942D02*
X5608Y-3707D01*
X5666Y-3674D01*
X5802Y-3909D01*
X5744Y-3942D01*
X5750Y-3919D02*
X5631Y-3713D01*
X5660Y-3696D01*
X5779Y-3903D01*
X5750Y-3919D01*
X5756Y-3897D02*
X5654Y-3719D01*
X5654Y-3719D01*
X5757Y-3897D01*
X5756Y-3897D01*
X5747Y-3883D02*
X5663Y-3733D01*
X6244Y-3942D02*
X6108Y-3707D01*
X6166Y-3674D01*
X6302Y-3909D01*
X6244Y-3942D01*
X6250Y-3919D02*
X6131Y-3713D01*
X6160Y-3696D01*
X6279Y-3903D01*
X6250Y-3919D01*
X6256Y-3897D02*
X6154Y-3719D01*
X6154Y-3719D01*
X6257Y-3897D01*
X6256Y-3897D01*
X6247Y-3883D02*
X6163Y-3733D01*
X6745Y-3937D02*
X6609Y-3702D01*
X6667Y-3669D01*
X6803Y-3904D01*
X6745Y-3937D01*
X6751Y-3914D02*
X6632Y-3708D01*
X6661Y-3691D01*
X6780Y-3898D01*
X6751Y-3914D01*
X6757Y-3892D02*
X6655Y-3714D01*
X6655Y-3714D01*
X6757Y-3891D01*
X6757Y-3892D01*
X6748Y-3878D02*
X6664Y-3728D01*
X6745Y-3937D02*
X6609Y-3702D01*
X6667Y-3669D01*
X6803Y-3904D01*
X6745Y-3937D01*
X6751Y-3914D02*
X6632Y-3708D01*
X6661Y-3691D01*
X6780Y-3898D01*
X6751Y-3914D01*
X6757Y-3892D02*
X6655Y-3714D01*
X6655Y-3714D01*
X6757Y-3891D01*
X6757Y-3892D01*
X6748Y-3878D02*
X6664Y-3728D01*
X7234Y-3932D02*
X7098Y-3697D01*
X7156Y-3664D01*
X7292Y-3899D01*
X7234Y-3932D01*
X7240Y-3909D02*
X7121Y-3703D01*
X7150Y-3686D01*
X7269Y-3893D01*
X7240Y-3909D01*
X7246Y-3887D02*
X7144Y-3709D01*
X7144Y-3709D01*
X7247Y-3887D01*
X7246Y-3887D01*
X7237Y-3873D02*
X7153Y-3723D01*
X7735Y-3937D02*
X7599Y-3702D01*
X7657Y-3669D01*
X7793Y-3904D01*
X7735Y-3937D01*
X7741Y-3914D02*
X7622Y-3708D01*
X7651Y-3691D01*
X7770Y-3898D01*
X7741Y-3914D01*
X7747Y-3892D02*
X7645Y-3714D01*
X7645Y-3714D01*
X7747Y-3891D01*
X7747Y-3892D01*
X7738Y-3878D02*
X7654Y-3728D01*
X8245Y-3937D02*
X8109Y-3702D01*
X8167Y-3669D01*
X8303Y-3904D01*
X8245Y-3937D01*
X8251Y-3914D02*
X8132Y-3708D01*
X8161Y-3691D01*
X8280Y-3898D01*
X8251Y-3914D01*
X8257Y-3892D02*
X8155Y-3714D01*
X8155Y-3714D01*
X8257Y-3891D01*
X8257Y-3892D01*
X8248Y-3878D02*
X8164Y-3728D01*
X8735Y-3937D02*
X8599Y-3702D01*
X8657Y-3669D01*
X8793Y-3904D01*
X8735Y-3937D01*
X8741Y-3914D02*
X8622Y-3708D01*
X8651Y-3691D01*
X8770Y-3898D01*
X8741Y-3914D01*
X8747Y-3892D02*
X8645Y-3714D01*
X8645Y-3714D01*
X8747Y-3891D01*
X8747Y-3892D01*
X8738Y-3878D02*
X8654Y-3728D01*
X9245Y-3937D02*
X9109Y-3702D01*
X9167Y-3669D01*
X9303Y-3904D01*
X9245Y-3937D01*
X9251Y-3914D02*
X9132Y-3708D01*
X9161Y-3691D01*
X9280Y-3898D01*
X9251Y-3914D01*
X9257Y-3892D02*
X9155Y-3714D01*
X9155Y-3714D01*
X9257Y-3891D01*
X9257Y-3892D01*
X9248Y-3878D02*
X9164Y-3728D01*
X9745Y-3937D02*
X9609Y-3702D01*
X9667Y-3669D01*
X9803Y-3904D01*
X9745Y-3937D01*
X9751Y-3914D02*
X9632Y-3708D01*
X9661Y-3691D01*
X9780Y-3898D01*
X9751Y-3914D01*
X9757Y-3892D02*
X9655Y-3714D01*
X9655Y-3714D01*
X9757Y-3891D01*
X9757Y-3892D01*
X9748Y-3878D02*
X9664Y-3728D01*
M02*
