%FSLAX42Y42*%
%MOMM*%
G71*
G01*
G75*
%ADD10C,0.30*%
%ADD11R,0.50X2.80*%
%ADD12R,2.10X1.30*%
%ADD13R,1.80X1.60*%
%ADD14C,0.40*%
%ADD15C,0.60*%
%ADD16C,0.50*%
%ADD17C,0.25*%
%ADD18C,2.00*%
%ADD19R,1.50X1.50*%
%ADD20O,1.40X1.50*%
%ADD21C,1.50*%
%ADD22C,1.40*%
%ADD23C,1.20*%
%ADD24C,0.90*%
%ADD25R,1.60X1.25*%
%ADD26R,1.10X1.00*%
%ADD27R,1.30X1.50*%
%ADD28R,1.00X0.85*%
%ADD29R,1.50X1.30*%
%ADD30R,1.00X0.50*%
%ADD31R,1.50X0.25*%
%ADD32C,0.80*%
%ADD33C,0.20*%
D11*
X11570Y-3325D02*
D03*
X11490D02*
D03*
X11410D02*
D03*
X11330D02*
D03*
X11250D02*
D03*
D12*
X13090Y-3335D02*
D03*
X12200D02*
D03*
X13090Y-2925D02*
D03*
X12200D02*
D03*
D13*
X13875Y-3255D02*
D03*
Y-2975D02*
D03*
X14400Y-1205D02*
D03*
Y-925D02*
D03*
X13900Y-1205D02*
D03*
Y-925D02*
D03*
X13400Y-1205D02*
D03*
Y-925D02*
D03*
X12900Y-1205D02*
D03*
Y-925D02*
D03*
X12400Y-1205D02*
D03*
Y-925D02*
D03*
X11900Y-1205D02*
D03*
Y-925D02*
D03*
X11400Y-1205D02*
D03*
Y-925D02*
D03*
X10900Y-1205D02*
D03*
Y-925D02*
D03*
X9200Y-1205D02*
D03*
Y-925D02*
D03*
X8700Y-1205D02*
D03*
Y-925D02*
D03*
X8200Y-1205D02*
D03*
Y-925D02*
D03*
X7700Y-1205D02*
D03*
Y-925D02*
D03*
X7200Y-1205D02*
D03*
Y-925D02*
D03*
X6700Y-1205D02*
D03*
Y-925D02*
D03*
X6200Y-1205D02*
D03*
Y-925D02*
D03*
X5700Y-1205D02*
D03*
Y-925D02*
D03*
X4000Y-1205D02*
D03*
Y-925D02*
D03*
X3500Y-1205D02*
D03*
Y-925D02*
D03*
X3000Y-1205D02*
D03*
Y-925D02*
D03*
X2500Y-1205D02*
D03*
Y-925D02*
D03*
X2000Y-1205D02*
D03*
Y-925D02*
D03*
X1500Y-1205D02*
D03*
Y-925D02*
D03*
X500Y-1205D02*
D03*
Y-925D02*
D03*
M02*
