%FSLAX42Y42*%
%MOMM*%
G71*
G01*
G75*
%ADD10C,0.20*%
%ADD11O,1.00X1.80*%
%ADD12R,1.00X1.80*%
%ADD13R,3.40X3.00*%
%ADD14R,1.10X1.00*%
%ADD15R,2.20X0.60*%
%ADD16R,1.50X1.30*%
%ADD17R,2.70X3.00*%
%ADD18R,2.60X2.00*%
%ADD19R,1.80X1.00*%
%ADD20O,1.80X1.00*%
%ADD21R,1.30X1.50*%
%ADD22R,1.00X0.85*%
%ADD23R,4.00X3.50*%
%ADD24R,2.00X1.00*%
%ADD25R,7.00X2.80*%
%ADD26R,0.60X1.50*%
%ADD27R,1.80X1.60*%
%ADD28R,2.50X2.70*%
%ADD29R,17.00X11.00*%
%ADD30C,0.25*%
%ADD31C,1.50*%
%ADD32C,2.00*%
%ADD33C,0.30*%
%ADD34C,1.00*%
%ADD35C,0.80*%
%ADD36C,0.40*%
%ADD37C,0.50*%
%ADD38R,3.00X11.50*%
%ADD39R,12.25X11.00*%
%ADD40R,13.50X1.20*%
%ADD41R,3.00X4.40*%
%ADD42R,0.80X4.00*%
%ADD43R,4.55X0.80*%
%ADD44R,7.75X5.25*%
%ADD45R,11.50X1.75*%
%ADD46R,11.75X1.25*%
%ADD47R,2.25X3.90*%
%ADD48R,3.50X23.00*%
%ADD49R,8.25X7.00*%
%ADD50C,4.50*%
%ADD51C,1.50*%
%ADD52R,1.50X1.50*%
%ADD53C,3.25*%
%ADD54C,3.00*%
%ADD55R,1.30X1.30*%
%ADD56C,1.30*%
%ADD57R,1.60X1.60*%
%ADD58C,1.60*%
%ADD59C,2.00*%
%ADD60C,2.50*%
%ADD61R,1.70X1.70*%
%ADD62C,1.70*%
%ADD63C,1.40*%
%ADD64C,1.00*%
%ADD65C,0.60*%
%ADD66C,1.20*%
%ADD67C,0.90*%
%ADD68R,0.85X1.00*%
%ADD69R,1.60X1.80*%
%ADD70R,1.25X1.60*%
%ADD71O,1.25X1.60*%
%ADD72C,0.60*%
%ADD73C,0.25*%
%ADD74R,0.68X5.20*%
%ADD75C,0.13*%
%ADD76R,0.80X0.50*%
%ADD77R,1.61X0.20*%
%ADD78C,0.06*%
%ADD79R,1.70X0.40*%
%ADD80R,7.00X1.50*%
%ADD81R,3.00X12.00*%
%ADD82R,2.00X2.00*%
%ADD83R,2.00X2.00*%
%ADD84O,1.20X2.00*%
%ADD85R,1.20X2.00*%
%ADD86R,3.60X3.20*%
%ADD87R,1.30X1.20*%
%ADD88R,2.40X0.80*%
%ADD89R,1.70X1.50*%
%ADD90R,2.90X3.20*%
%ADD91R,2.80X2.20*%
%ADD92R,2.00X1.20*%
%ADD93O,2.00X1.20*%
%ADD94R,1.50X1.70*%
%ADD95R,1.20X1.05*%
%ADD96R,4.20X3.70*%
%ADD97R,2.20X1.20*%
%ADD98R,7.20X3.00*%
%ADD99R,0.80X1.70*%
%ADD100R,2.00X1.80*%
%ADD101R,2.70X2.90*%
%ADD102R,17.20X11.20*%
%ADD103C,4.70*%
%ADD104C,1.70*%
%ADD105R,1.70X1.70*%
%ADD106C,3.45*%
%ADD107C,3.20*%
%ADD108R,1.50X1.50*%
%ADD109C,1.50*%
%ADD110R,1.80X1.80*%
%ADD111C,1.80*%
%ADD112C,2.20*%
%ADD113C,2.70*%
%ADD114R,1.90X1.90*%
%ADD115C,1.90*%
%ADD116C,1.60*%
%ADD117C,1.20*%
%ADD118C,0.80*%
%ADD119C,1.40*%
%ADD120C,1.10*%
%ADD121R,1.05X1.20*%
%ADD122R,1.80X2.00*%
%ADD123R,1.45X1.80*%
%ADD124O,1.45X1.80*%
%ADD125C,0.00*%
%ADD126C,0.15*%
D30*
X15600Y-9381D02*
Y-8650D01*
X0Y-9381D02*
Y-8700D01*
X8549Y-9356D02*
X15600D01*
X0D02*
X6970D01*
X15448Y-9305D02*
X15600Y-9356D01*
X15448Y-9407D02*
X15600Y-9356D01*
X0D02*
X152Y-9407D01*
X0Y-9356D02*
X152Y-9305D01*
X-991Y0D02*
X-25D01*
X-991Y-8650D02*
X-25D01*
X-966Y-3639D02*
Y0D01*
Y-8650D02*
Y-5092D01*
X-1017Y-152D02*
X-966Y0D01*
X-915Y-152D01*
X-966Y-8650D02*
X-915Y-8498D01*
X-1017D02*
X-966Y-8650D01*
D126*
X7010Y-9447D02*
X7061D01*
X7036D01*
Y-9295D01*
X7010Y-9320D01*
X7239Y-9295D02*
X7137D01*
Y-9371D01*
X7188Y-9346D01*
X7213D01*
X7239Y-9371D01*
Y-9422D01*
X7213Y-9447D01*
X7163D01*
X7137Y-9422D01*
X7391Y-9295D02*
X7340Y-9320D01*
X7290Y-9371D01*
Y-9422D01*
X7315Y-9447D01*
X7366D01*
X7391Y-9422D01*
Y-9396D01*
X7366Y-9371D01*
X7290D01*
X7442Y-9447D02*
Y-9422D01*
X7467D01*
Y-9447D01*
X7442D01*
X7569Y-9320D02*
X7594Y-9295D01*
X7645D01*
X7670Y-9320D01*
Y-9422D01*
X7645Y-9447D01*
X7594D01*
X7569Y-9422D01*
Y-9320D01*
X7721D02*
X7747Y-9295D01*
X7797D01*
X7823Y-9320D01*
Y-9422D01*
X7797Y-9447D01*
X7747D01*
X7721Y-9422D01*
Y-9320D01*
X8077Y-9447D02*
X8026Y-9396D01*
Y-9346D01*
X8077Y-9295D01*
X8153Y-9447D02*
Y-9346D01*
X8178D01*
X8204Y-9371D01*
Y-9447D01*
Y-9371D01*
X8229Y-9346D01*
X8254Y-9371D01*
Y-9447D01*
X8305D02*
Y-9346D01*
X8331D01*
X8356Y-9371D01*
Y-9447D01*
Y-9371D01*
X8381Y-9346D01*
X8407Y-9371D01*
Y-9447D01*
X8458D02*
X8508Y-9396D01*
Y-9346D01*
X8458Y-9295D01*
X-1002Y-5051D02*
X-1027Y-5026D01*
Y-4975D01*
X-1002Y-4950D01*
X-976D01*
X-951Y-4975D01*
X-925Y-4950D01*
X-900D01*
X-875Y-4975D01*
Y-5026D01*
X-900Y-5051D01*
X-925D01*
X-951Y-5026D01*
X-976Y-5051D01*
X-1002D01*
X-951Y-5026D02*
Y-4975D01*
X-1027Y-4797D02*
X-1002Y-4848D01*
X-951Y-4899D01*
X-900D01*
X-875Y-4873D01*
Y-4823D01*
X-900Y-4797D01*
X-925D01*
X-951Y-4823D01*
Y-4899D01*
X-875Y-4747D02*
X-900D01*
Y-4721D01*
X-875D01*
Y-4747D01*
X-1027Y-4518D02*
Y-4620D01*
X-951D01*
X-976Y-4569D01*
Y-4543D01*
X-951Y-4518D01*
X-900D01*
X-875Y-4543D01*
Y-4594D01*
X-900Y-4620D01*
X-1002Y-4467D02*
X-1027Y-4442D01*
Y-4391D01*
X-1002Y-4366D01*
X-900D01*
X-875Y-4391D01*
Y-4442D01*
X-900Y-4467D01*
X-1002D01*
X-875Y-4112D02*
X-925Y-4163D01*
X-976D01*
X-1027Y-4112D01*
X-875Y-4036D02*
X-976D01*
Y-4010D01*
X-951Y-3985D01*
X-875D01*
X-951D01*
X-976Y-3959D01*
X-951Y-3934D01*
X-875D01*
Y-3883D02*
X-976D01*
Y-3858D01*
X-951Y-3832D01*
X-875D01*
X-951D01*
X-976Y-3807D01*
X-951Y-3782D01*
X-875D01*
Y-3731D02*
X-925Y-3680D01*
X-976D01*
X-1027Y-3731D01*
M02*
