%FSLAX42Y42*%
%MOMM*%
G71*
G01*
G75*
%ADD10C,0.20*%
%ADD11O,1.00X1.80*%
%ADD12R,1.00X1.80*%
%ADD13R,3.40X3.00*%
%ADD14R,1.10X1.00*%
%ADD15R,2.20X0.60*%
%ADD16R,1.50X1.30*%
%ADD17R,2.70X3.00*%
%ADD18R,2.60X2.00*%
%ADD19R,1.80X1.00*%
%ADD20O,1.80X1.00*%
%ADD21R,1.30X1.50*%
%ADD22R,1.00X0.85*%
%ADD23R,4.00X3.50*%
%ADD24R,2.00X1.00*%
%ADD25R,7.00X2.80*%
%ADD26R,0.60X1.50*%
%ADD27R,1.80X1.60*%
%ADD28R,2.50X2.70*%
%ADD29R,17.00X11.00*%
%ADD30C,0.25*%
%ADD31C,1.50*%
%ADD32C,2.00*%
%ADD33C,0.30*%
%ADD34C,1.00*%
%ADD35C,0.80*%
%ADD36C,0.40*%
%ADD37C,0.50*%
%ADD38R,3.00X11.50*%
%ADD39R,12.25X11.00*%
%ADD40R,13.50X1.20*%
%ADD41R,3.00X4.40*%
%ADD42R,0.80X4.00*%
%ADD43R,4.55X0.80*%
%ADD44R,7.75X5.25*%
%ADD45R,11.50X1.75*%
%ADD46R,11.75X1.25*%
%ADD47R,2.25X3.90*%
%ADD48R,3.50X23.00*%
%ADD49R,8.25X7.00*%
%ADD50C,4.50*%
%ADD51C,1.50*%
%ADD52R,1.50X1.50*%
%ADD53C,3.25*%
%ADD54C,3.00*%
%ADD55R,1.30X1.30*%
%ADD56C,1.30*%
%ADD57R,1.60X1.60*%
%ADD58C,1.60*%
%ADD59C,2.00*%
%ADD60C,2.50*%
%ADD61R,1.70X1.70*%
%ADD62C,1.70*%
%ADD63C,1.40*%
%ADD64C,1.00*%
%ADD65C,0.60*%
%ADD66C,1.20*%
%ADD67C,0.90*%
%ADD68R,0.85X1.00*%
%ADD69R,1.60X1.80*%
%ADD70R,1.25X1.60*%
%ADD71O,1.25X1.60*%
%ADD72C,0.60*%
%ADD73C,0.25*%
%ADD74R,0.68X5.20*%
%ADD75C,0.13*%
%ADD76R,0.80X0.50*%
%ADD77R,1.61X0.20*%
%ADD78C,0.06*%
%ADD79R,1.70X0.40*%
%ADD80R,7.00X1.50*%
%ADD81R,3.00X12.00*%
%ADD82R,2.00X2.00*%
%ADD83R,2.00X2.00*%
D11*
X3150Y-6095D02*
D03*
X3400D02*
D03*
X3146Y-5475D02*
D03*
X6521Y-6800D02*
D03*
X6775Y-7420D02*
D03*
X6525D02*
D03*
X6096Y-6800D02*
D03*
X6350Y-7420D02*
D03*
X6100D02*
D03*
X1446Y-5475D02*
D03*
X1700Y-6095D02*
D03*
X1450D02*
D03*
X1021Y-5475D02*
D03*
X1275Y-6095D02*
D03*
X1025D02*
D03*
X596Y-5475D02*
D03*
X850Y-6095D02*
D03*
X600D02*
D03*
X171Y-5475D02*
D03*
X425Y-6095D02*
D03*
X175D02*
D03*
X2721Y-5475D02*
D03*
X2975Y-6095D02*
D03*
X2725D02*
D03*
X2296Y-5475D02*
D03*
X2550Y-6095D02*
D03*
X2300D02*
D03*
X1871Y-5475D02*
D03*
X2125Y-6095D02*
D03*
X1875D02*
D03*
X5671Y-6800D02*
D03*
X5925Y-7420D02*
D03*
X5675D02*
D03*
X4446Y-6800D02*
D03*
X4700Y-7420D02*
D03*
X4450D02*
D03*
X4021Y-6800D02*
D03*
X4275Y-7420D02*
D03*
X4025D02*
D03*
X3596Y-6800D02*
D03*
X3850Y-7420D02*
D03*
X3600D02*
D03*
D12*
X3400Y-5475D02*
D03*
X6775Y-6800D02*
D03*
X6350D02*
D03*
X1700Y-5475D02*
D03*
X1275D02*
D03*
X850D02*
D03*
X425D02*
D03*
X2975D02*
D03*
X2550D02*
D03*
X2125D02*
D03*
X5925Y-6800D02*
D03*
X4700D02*
D03*
X4275D02*
D03*
X3850D02*
D03*
D13*
X2700Y-3575D02*
D03*
X3730D02*
D03*
D14*
X14630Y-5825D02*
D03*
X14800D02*
D03*
X13305D02*
D03*
X13475D02*
D03*
X12820Y-7600D02*
D03*
X12650D02*
D03*
D15*
X14465Y-4819D02*
D03*
Y-4946D02*
D03*
Y-5073D02*
D03*
Y-5200D02*
D03*
Y-5327D02*
D03*
Y-5454D02*
D03*
Y-5581D02*
D03*
X14985Y-4819D02*
D03*
Y-4946D02*
D03*
Y-5073D02*
D03*
Y-5200D02*
D03*
Y-5327D02*
D03*
Y-5454D02*
D03*
Y-5581D02*
D03*
X13140Y-4819D02*
D03*
Y-4946D02*
D03*
Y-5073D02*
D03*
Y-5200D02*
D03*
Y-5327D02*
D03*
Y-5454D02*
D03*
Y-5581D02*
D03*
X13660Y-4819D02*
D03*
Y-4946D02*
D03*
Y-5073D02*
D03*
Y-5200D02*
D03*
Y-5327D02*
D03*
Y-5454D02*
D03*
Y-5581D02*
D03*
D16*
X15175Y-4225D02*
D03*
Y-4415D02*
D03*
Y-3250D02*
D03*
Y-3440D02*
D03*
Y-3750D02*
D03*
Y-3940D02*
D03*
X14900Y-4225D02*
D03*
Y-4415D02*
D03*
Y-3250D02*
D03*
Y-3440D02*
D03*
Y-3750D02*
D03*
Y-3940D02*
D03*
X8075Y-5775D02*
D03*
Y-5965D02*
D03*
X7800Y-5775D02*
D03*
Y-5965D02*
D03*
X14600Y-4225D02*
D03*
Y-4415D02*
D03*
X14325Y-4225D02*
D03*
Y-4415D02*
D03*
X14600Y-3250D02*
D03*
Y-3440D02*
D03*
X14325Y-3250D02*
D03*
Y-3440D02*
D03*
X14600Y-3750D02*
D03*
Y-3940D02*
D03*
X14325Y-3750D02*
D03*
Y-3940D02*
D03*
X14050Y-4225D02*
D03*
Y-4415D02*
D03*
X13775Y-4225D02*
D03*
Y-4415D02*
D03*
X14050Y-3250D02*
D03*
Y-3440D02*
D03*
X13775Y-3250D02*
D03*
Y-3440D02*
D03*
X14050Y-3750D02*
D03*
Y-3940D02*
D03*
X13775Y-3750D02*
D03*
Y-3940D02*
D03*
X1050Y-6575D02*
D03*
Y-6765D02*
D03*
X800Y-6575D02*
D03*
Y-6765D02*
D03*
X550Y-6575D02*
D03*
Y-6765D02*
D03*
X5325Y-5775D02*
D03*
Y-5965D02*
D03*
X5050Y-5775D02*
D03*
Y-5965D02*
D03*
X4775Y-5775D02*
D03*
Y-5965D02*
D03*
X4500Y-5775D02*
D03*
Y-5965D02*
D03*
X1800Y-6575D02*
D03*
Y-6765D02*
D03*
X1550Y-6575D02*
D03*
Y-6765D02*
D03*
X1300Y-6575D02*
D03*
Y-6765D02*
D03*
X6425Y-5775D02*
D03*
Y-5965D02*
D03*
X6150Y-5775D02*
D03*
Y-5965D02*
D03*
X5875Y-5775D02*
D03*
Y-5965D02*
D03*
X5600Y-5775D02*
D03*
Y-5965D02*
D03*
X7525Y-5775D02*
D03*
Y-5965D02*
D03*
X7250Y-5775D02*
D03*
Y-5965D02*
D03*
X6975Y-5775D02*
D03*
Y-5965D02*
D03*
X6700Y-5775D02*
D03*
Y-5965D02*
D03*
X10525Y-3150D02*
D03*
Y-3340D02*
D03*
X10275Y-3150D02*
D03*
Y-3340D02*
D03*
X10025Y-3150D02*
D03*
Y-3340D02*
D03*
X9775Y-3150D02*
D03*
Y-3340D02*
D03*
X9525Y-3150D02*
D03*
Y-3340D02*
D03*
X4225Y-5775D02*
D03*
Y-5965D02*
D03*
X5900Y-3150D02*
D03*
Y-3340D02*
D03*
X5650Y-3150D02*
D03*
Y-3340D02*
D03*
X5400Y-3150D02*
D03*
Y-3340D02*
D03*
X5150Y-3150D02*
D03*
Y-3340D02*
D03*
X4900Y-3150D02*
D03*
Y-3340D02*
D03*
X4650Y-3150D02*
D03*
Y-3340D02*
D03*
X4400Y-3150D02*
D03*
Y-3340D02*
D03*
X4150Y-3150D02*
D03*
Y-3340D02*
D03*
X7875Y-3350D02*
D03*
Y-3160D02*
D03*
X7950Y-4075D02*
D03*
Y-3885D02*
D03*
X9275Y-3150D02*
D03*
Y-3340D02*
D03*
X9025Y-3150D02*
D03*
Y-3340D02*
D03*
X8775Y-3150D02*
D03*
Y-3340D02*
D03*
X7400Y-3150D02*
D03*
Y-3340D02*
D03*
X7150Y-3150D02*
D03*
Y-3340D02*
D03*
X6900Y-3150D02*
D03*
Y-3340D02*
D03*
X6650Y-3150D02*
D03*
Y-3340D02*
D03*
X6400Y-3150D02*
D03*
Y-3340D02*
D03*
X6150Y-3150D02*
D03*
Y-3340D02*
D03*
X2050Y-6765D02*
D03*
Y-6575D02*
D03*
X300Y-6765D02*
D03*
Y-6575D02*
D03*
D17*
X6308Y-3775D02*
D03*
X5592D02*
D03*
X6843D02*
D03*
X7557D02*
D03*
D18*
X9850Y-7500D02*
D03*
Y-7070D02*
D03*
X9475Y-7500D02*
D03*
Y-7070D02*
D03*
X9100Y-7500D02*
D03*
Y-7070D02*
D03*
X8725Y-7500D02*
D03*
Y-7070D02*
D03*
X1750Y-7500D02*
D03*
Y-7070D02*
D03*
X1350Y-7500D02*
D03*
Y-7070D02*
D03*
X950Y-7500D02*
D03*
Y-7070D02*
D03*
X550Y-7500D02*
D03*
Y-7070D02*
D03*
X3350Y-7500D02*
D03*
Y-7070D02*
D03*
X2950Y-7500D02*
D03*
Y-7070D02*
D03*
X2550Y-7500D02*
D03*
Y-7070D02*
D03*
X2150Y-7500D02*
D03*
Y-7070D02*
D03*
X8350Y-7500D02*
D03*
Y-7070D02*
D03*
X7975Y-7500D02*
D03*
Y-7070D02*
D03*
X7600Y-7500D02*
D03*
Y-7070D02*
D03*
X7225Y-7500D02*
D03*
Y-7070D02*
D03*
X1700Y-2000D02*
D03*
Y-1570D02*
D03*
X1325Y-1575D02*
D03*
Y-2005D02*
D03*
D19*
X12500Y-7050D02*
D03*
X11525D02*
D03*
D20*
X12500Y-6796D02*
D03*
X11880Y-7050D02*
D03*
Y-6800D02*
D03*
X11525Y-6796D02*
D03*
X10905Y-7050D02*
D03*
Y-6800D02*
D03*
D21*
X10450Y-4650D02*
D03*
X10260D02*
D03*
X10000D02*
D03*
X9810D02*
D03*
X9550D02*
D03*
X9360D02*
D03*
X9100D02*
D03*
X8910D02*
D03*
X9075Y-5975D02*
D03*
X8885D02*
D03*
X8575D02*
D03*
X8385D02*
D03*
X5050Y-4650D02*
D03*
X4860D02*
D03*
X4600D02*
D03*
X4410D02*
D03*
X4150D02*
D03*
X3960D02*
D03*
X3700Y-4650D02*
D03*
X3510D02*
D03*
X6850Y-4650D02*
D03*
X6660D02*
D03*
X6400D02*
D03*
X6210D02*
D03*
X5950D02*
D03*
X5760D02*
D03*
X5500D02*
D03*
X5310D02*
D03*
X8650D02*
D03*
X8460D02*
D03*
X8200D02*
D03*
X8010D02*
D03*
X7750D02*
D03*
X7560D02*
D03*
X7300D02*
D03*
X7110D02*
D03*
X13550Y-7200D02*
D03*
X13360D02*
D03*
X3250Y-4650D02*
D03*
X3060D02*
D03*
X2425Y-3125D02*
D03*
X2615D02*
D03*
X1925Y-2775D02*
D03*
X2115D02*
D03*
X10310Y-6825D02*
D03*
X10500D02*
D03*
Y-7075D02*
D03*
X10310D02*
D03*
D22*
X10470Y-5095D02*
D03*
Y-4905D02*
D03*
X10230Y-5000D02*
D03*
X10020Y-5095D02*
D03*
Y-4905D02*
D03*
X9780Y-5000D02*
D03*
X9570Y-5095D02*
D03*
Y-4905D02*
D03*
X9330Y-5000D02*
D03*
X9120Y-5095D02*
D03*
Y-4905D02*
D03*
X8880Y-5000D02*
D03*
X5070Y-5095D02*
D03*
Y-4905D02*
D03*
X4830Y-5000D02*
D03*
X4620Y-5095D02*
D03*
Y-4905D02*
D03*
X4380Y-5000D02*
D03*
X4170Y-5095D02*
D03*
Y-4905D02*
D03*
X3930Y-5000D02*
D03*
X3720Y-5095D02*
D03*
Y-4905D02*
D03*
X3480Y-5000D02*
D03*
X6870Y-5095D02*
D03*
Y-4905D02*
D03*
X6630Y-5000D02*
D03*
X6420Y-5095D02*
D03*
Y-4905D02*
D03*
X6180Y-5000D02*
D03*
X5970Y-5095D02*
D03*
Y-4905D02*
D03*
X5730Y-5000D02*
D03*
X5520Y-5095D02*
D03*
Y-4905D02*
D03*
X5280Y-5000D02*
D03*
X8670Y-5095D02*
D03*
Y-4905D02*
D03*
X8430Y-5000D02*
D03*
X8220Y-5095D02*
D03*
Y-4905D02*
D03*
X7980Y-5000D02*
D03*
X7770Y-5095D02*
D03*
Y-4905D02*
D03*
X7530Y-5000D02*
D03*
X7320Y-5095D02*
D03*
Y-4905D02*
D03*
X7080Y-5000D02*
D03*
X3270Y-5095D02*
D03*
Y-4905D02*
D03*
X3030Y-5000D02*
D03*
D23*
X9215Y-4055D02*
D03*
D24*
X8575Y-3825D02*
D03*
Y-4055D02*
D03*
Y-4285D02*
D03*
D25*
X1965Y-3495D02*
D03*
D26*
X1775Y-3775D02*
D03*
X1902D02*
D03*
X2029D02*
D03*
X2156D02*
D03*
X1775Y-3215D02*
D03*
X1902D02*
D03*
X2029D02*
D03*
X2156D02*
D03*
D27*
X2175Y-2150D02*
D03*
Y-1870D02*
D03*
D28*
X1280Y-4150D02*
D03*
X1750D02*
D03*
D29*
X11593Y-4053D02*
D03*
M02*
