%FSLAX42Y42*%
%MOMM*%
G71*
G01*
G75*
G04 Layer_Physical_Order=2*
%ADD10C,0.20*%
%ADD11O,1.00X1.80*%
%ADD12R,1.00X1.80*%
%ADD13R,3.40X3.00*%
%ADD14R,1.10X1.00*%
%ADD15R,2.20X0.60*%
%ADD16R,1.50X1.30*%
%ADD17R,2.70X3.00*%
%ADD18R,2.60X2.00*%
%ADD19R,1.80X1.00*%
%ADD20O,1.80X1.00*%
%ADD21R,1.30X1.50*%
%ADD22R,1.00X0.85*%
%ADD23R,4.00X3.50*%
%ADD24R,2.00X1.00*%
%ADD25R,7.00X2.80*%
%ADD26R,0.60X1.50*%
%ADD27R,1.80X1.60*%
%ADD28R,2.50X2.70*%
%ADD29R,17.00X11.00*%
%ADD30C,0.25*%
%ADD31C,1.50*%
%ADD32C,2.00*%
%ADD33C,0.30*%
%ADD34C,1.00*%
%ADD35C,0.80*%
%ADD36C,0.40*%
%ADD37C,0.50*%
%ADD38R,3.00X11.50*%
%ADD39R,12.25X11.00*%
%ADD40R,13.50X1.20*%
%ADD41R,3.00X4.40*%
%ADD42R,0.80X4.00*%
%ADD43R,4.55X0.80*%
%ADD44R,7.75X5.25*%
%ADD45R,11.50X1.75*%
%ADD46R,11.75X1.25*%
%ADD47R,2.25X3.90*%
%ADD48R,3.50X23.00*%
%ADD49R,8.25X7.00*%
%ADD50C,4.50*%
%ADD51C,1.50*%
%ADD52R,1.50X1.50*%
%ADD53C,3.25*%
%ADD54C,3.00*%
%ADD55R,1.30X1.30*%
%ADD56C,1.30*%
%ADD57R,1.60X1.60*%
%ADD58C,1.60*%
%ADD59C,2.00*%
%ADD60C,2.50*%
%ADD61R,1.70X1.70*%
%ADD62C,1.70*%
%ADD63C,1.40*%
%ADD64C,1.00*%
%ADD65C,0.60*%
%ADD66C,1.20*%
%ADD67C,0.90*%
%ADD68R,0.85X1.00*%
%ADD69R,1.60X1.80*%
%ADD70R,1.25X1.60*%
%ADD71O,1.25X1.60*%
%ADD72C,0.60*%
D10*
X9955Y-8175D02*
G03*
X9953Y-8150I-155J0D01*
G01*
X9725Y-8311D02*
G03*
X9955Y-8175I75J136D01*
G01*
X4437Y-8281D02*
G03*
X4656Y-8288I113J106D01*
G01*
X10973Y-1846D02*
G03*
X11078Y-1951I105J0D01*
G01*
Y-1995D02*
G03*
X10973Y-2100I0J-105D01*
G01*
X10824Y-1951D02*
G03*
X10929Y-1846I0J105D01*
G01*
Y-2100D02*
G03*
X10824Y-1995I-105J0D01*
G01*
X10334Y-4190D02*
G03*
X10320Y-4181I-84J-118D01*
G01*
X10105Y-4054D02*
G03*
X10180Y-4181I145J0D01*
G01*
G03*
X10353Y-4410I70J-127D01*
G01*
X10320Y-4181D02*
G03*
X10395Y-4054I-70J127D01*
G01*
X11142Y-4872D02*
G03*
X11410Y-4850I133J22D01*
G01*
G03*
X11297Y-4717I-135J0D01*
G01*
X10803Y-4222D02*
G03*
X10725Y-4190I-78J-78D01*
G01*
X10803Y-4222D02*
G03*
X10725Y-4190I-78J-78D01*
G01*
X12313Y-4054D02*
G03*
X12313Y-4054I-285J0D01*
G01*
X1250Y-3137D02*
G03*
X1356Y-3106I25J112D01*
G01*
X4485Y-6553D02*
G03*
X4630Y-6600I65J-47D01*
G01*
G03*
X4615Y-6553I-80J0D01*
G01*
X7150Y-6645D02*
G03*
X7122Y-6650I0J-80D01*
G01*
X7150Y-6645D02*
G03*
X7122Y-6650I0J-80D01*
G01*
X7803D02*
G03*
X7775Y-6645I-28J-75D01*
G01*
X7803Y-6650D02*
G03*
X7775Y-6645I-28J-75D01*
G01*
X9125Y-6400D02*
G03*
X9125Y-6400I-125J0D01*
G01*
X9200Y-6287D02*
G03*
X9200Y-6513I54J-113D01*
G01*
X9953Y-8150D02*
X9975D01*
X9953Y-8150D02*
X9975D01*
X9955Y-8170D02*
X9975D01*
X9954Y-8190D02*
X9975D01*
X9951Y-8210D02*
X9975D01*
X9945Y-8230D02*
X9975D01*
X9936Y-8250D02*
X9975D01*
Y-8600D02*
Y-8150D01*
X9970Y-8600D02*
Y-8150D01*
X9922Y-8270D02*
X9975D01*
X9904Y-8290D02*
X9975D01*
X9950Y-8600D02*
Y-8214D01*
X9930Y-8600D02*
Y-8259D01*
X9910Y-8600D02*
Y-8284D01*
X9890Y-8600D02*
Y-8301D01*
X9876Y-8310D02*
X9975D01*
X9725Y-8330D02*
X9975D01*
X9725Y-8350D02*
X9975D01*
X9725Y-8370D02*
X9975D01*
X9725Y-8375D02*
Y-8311D01*
X9870Y-8600D02*
Y-8313D01*
X9850Y-8600D02*
Y-8322D01*
X9830Y-8600D02*
Y-8327D01*
X9810Y-8600D02*
Y-8330D01*
X9750Y-8600D02*
Y-8322D01*
X9730Y-8600D02*
Y-8313D01*
X9790Y-8600D02*
Y-8330D01*
X9770Y-8600D02*
Y-8327D01*
X9710Y-8600D02*
Y-8375D01*
X9690Y-8600D02*
Y-8375D01*
X9670Y-8600D02*
Y-8375D01*
X9650Y-8600D02*
Y-8375D01*
X9630Y-8600D02*
Y-8375D01*
X9610Y-8600D02*
Y-8375D01*
X9590Y-8600D02*
Y-8375D01*
X9570Y-8600D02*
Y-8375D01*
X9550Y-8600D02*
Y-8375D01*
X9530Y-8600D02*
Y-8375D01*
X9510Y-8600D02*
Y-8375D01*
X9490Y-8600D02*
Y-8375D01*
X9470Y-8600D02*
Y-8375D01*
X9450Y-8600D02*
Y-8375D01*
X9430Y-8600D02*
Y-8375D01*
X9410Y-8600D02*
Y-8375D01*
X9390Y-8600D02*
Y-8375D01*
X9370Y-8600D02*
Y-8375D01*
X9350Y-8600D02*
Y-8375D01*
X9330Y-8600D02*
Y-8375D01*
X9310Y-8600D02*
Y-8375D01*
X9290Y-8600D02*
Y-8375D01*
X9270Y-8600D02*
Y-8375D01*
X9250Y-8600D02*
Y-8375D01*
X9230Y-8600D02*
Y-8375D01*
X9210Y-8600D02*
Y-8375D01*
X9190Y-8600D02*
Y-8375D01*
X9170Y-8600D02*
Y-8375D01*
X9150Y-8600D02*
Y-8375D01*
X9130Y-8600D02*
Y-8375D01*
X9110Y-8600D02*
Y-8375D01*
X9090Y-8600D02*
Y-8375D01*
X9070Y-8600D02*
Y-8375D01*
X9050Y-8600D02*
Y-8375D01*
X9030Y-8600D02*
Y-8375D01*
X9010Y-8600D02*
Y-8375D01*
X8990Y-8600D02*
Y-8375D01*
X8970Y-8600D02*
Y-8375D01*
X8950Y-8600D02*
Y-8375D01*
X8930Y-8600D02*
Y-8375D01*
X8910Y-8600D02*
Y-8375D01*
X8890Y-8600D02*
Y-8375D01*
X8870Y-8600D02*
Y-8375D01*
X8850Y-8600D02*
Y-8375D01*
X8830Y-8600D02*
Y-8375D01*
X8810Y-8600D02*
Y-8375D01*
X8790Y-8600D02*
Y-8375D01*
X8770Y-8600D02*
Y-8375D01*
X8750Y-8600D02*
Y-8375D01*
X8730Y-8600D02*
Y-8375D01*
X8710Y-8600D02*
Y-8375D01*
X8690Y-8600D02*
Y-8375D01*
X8670Y-8600D02*
Y-8375D01*
X8650Y-8600D02*
Y-8375D01*
X8630Y-8600D02*
Y-8375D01*
X8610Y-8600D02*
Y-8375D01*
X8590Y-8600D02*
Y-8375D01*
X8570Y-8600D02*
Y-8375D01*
X8550Y-8600D02*
Y-8375D01*
X8530Y-8600D02*
Y-8375D01*
X8510Y-8600D02*
Y-8375D01*
X8490Y-8600D02*
Y-8375D01*
X8470Y-8600D02*
Y-8375D01*
X8450Y-8600D02*
Y-8375D01*
X8430Y-8600D02*
Y-8375D01*
X8410Y-8600D02*
Y-8375D01*
X8390Y-8600D02*
Y-8375D01*
X8370Y-8600D02*
Y-8375D01*
X8350Y-8600D02*
Y-8375D01*
X8330Y-8600D02*
Y-8375D01*
X8310Y-8600D02*
Y-8375D01*
X8290Y-8600D02*
Y-8375D01*
X8270Y-8600D02*
Y-8375D01*
X8250Y-8600D02*
Y-8375D01*
X8230Y-8600D02*
Y-8375D01*
X8210Y-8600D02*
Y-8375D01*
X8190Y-8600D02*
Y-8375D01*
X8170Y-8600D02*
Y-8375D01*
X8150Y-8600D02*
Y-8375D01*
X8130Y-8600D02*
Y-8375D01*
X8110Y-8600D02*
Y-8375D01*
X8090Y-8600D02*
Y-8375D01*
X8070Y-8600D02*
Y-8375D01*
X8050Y-8600D02*
Y-8375D01*
X8030Y-8600D02*
Y-8375D01*
X8010Y-8600D02*
Y-8375D01*
X7990Y-8600D02*
Y-8375D01*
X7970Y-8600D02*
Y-8375D01*
X7950Y-8600D02*
Y-8375D01*
X7930Y-8600D02*
Y-8375D01*
X7910Y-8600D02*
Y-8375D01*
X7890Y-8600D02*
Y-8375D01*
X7870Y-8600D02*
Y-8375D01*
X7850Y-8600D02*
Y-8375D01*
X7830Y-8600D02*
Y-8375D01*
X7810Y-8600D02*
Y-8375D01*
X7790Y-8600D02*
Y-8375D01*
X7770Y-8600D02*
Y-8375D01*
X7750Y-8600D02*
Y-8375D01*
X7730Y-8600D02*
Y-8375D01*
X7710Y-8600D02*
Y-8375D01*
X7690Y-8600D02*
Y-8375D01*
X7670Y-8600D02*
Y-8375D01*
X7650Y-8600D02*
Y-8375D01*
X7630Y-8600D02*
Y-8375D01*
X7610Y-8600D02*
Y-8375D01*
X7590Y-8600D02*
Y-8375D01*
X7570Y-8600D02*
Y-8375D01*
X7550Y-8600D02*
Y-8375D01*
X7530Y-8600D02*
Y-8375D01*
X7510Y-8600D02*
Y-8375D01*
X7490Y-8600D02*
Y-8375D01*
X7470Y-8600D02*
Y-8375D01*
X7450Y-8600D02*
Y-8375D01*
X7430Y-8600D02*
Y-8375D01*
X7410Y-8600D02*
Y-8375D01*
X7390Y-8600D02*
Y-8375D01*
X7370Y-8600D02*
Y-8375D01*
X7350Y-8600D02*
Y-8375D01*
X7330Y-8600D02*
Y-8375D01*
X7310Y-8600D02*
Y-8375D01*
X7290Y-8600D02*
Y-8375D01*
X7270Y-8600D02*
Y-8375D01*
X7250Y-8600D02*
Y-8375D01*
X7230Y-8600D02*
Y-8375D01*
X7210Y-8600D02*
Y-8375D01*
X7190Y-8600D02*
Y-8375D01*
X7170Y-8600D02*
Y-8375D01*
X7150Y-8600D02*
Y-8375D01*
X7130Y-8600D02*
Y-8375D01*
X7110Y-8600D02*
Y-8375D01*
X7090Y-8600D02*
Y-8375D01*
X7070Y-8600D02*
Y-8375D01*
X7050Y-8600D02*
Y-8375D01*
X7030Y-8600D02*
Y-8375D01*
X7010Y-8600D02*
Y-8375D01*
X6990Y-8600D02*
Y-8375D01*
X6970Y-8600D02*
Y-8375D01*
X6950Y-8600D02*
Y-8375D01*
X6930Y-8600D02*
Y-8375D01*
X6910Y-8600D02*
Y-8375D01*
X6890Y-8600D02*
Y-8375D01*
X6870Y-8600D02*
Y-8375D01*
X6850Y-8600D02*
Y-8375D01*
X6830Y-8600D02*
Y-8375D01*
X6810Y-8600D02*
Y-8375D01*
X6790Y-8600D02*
Y-8375D01*
X6770Y-8600D02*
Y-8375D01*
X6750Y-8600D02*
Y-8375D01*
X6730Y-8600D02*
Y-8375D01*
X6710Y-8600D02*
Y-8375D01*
X6690Y-8600D02*
Y-8375D01*
X6670Y-8600D02*
Y-8375D01*
X6650Y-8600D02*
Y-8375D01*
X6630Y-8600D02*
Y-8375D01*
X6610Y-8600D02*
Y-8375D01*
X6590Y-8600D02*
Y-8375D01*
X6570Y-8600D02*
Y-8375D01*
X6550Y-8600D02*
Y-8375D01*
X6530Y-8600D02*
Y-8375D01*
X6510Y-8600D02*
Y-8375D01*
X6490Y-8600D02*
Y-8375D01*
X6470Y-8600D02*
Y-8375D01*
X6450Y-8600D02*
Y-8375D01*
X6430Y-8600D02*
Y-8375D01*
X6410Y-8600D02*
Y-8375D01*
X6390Y-8600D02*
Y-8375D01*
X6370Y-8600D02*
Y-8375D01*
X6350Y-8600D02*
Y-8375D01*
X6330Y-8600D02*
Y-8375D01*
X6310Y-8600D02*
Y-8375D01*
X6290Y-8600D02*
Y-8375D01*
X6270Y-8600D02*
Y-8375D01*
X6250Y-8600D02*
Y-8375D01*
X6230Y-8600D02*
Y-8375D01*
X6210Y-8600D02*
Y-8375D01*
X6190Y-8600D02*
Y-8375D01*
X6170Y-8600D02*
Y-8375D01*
X6150Y-8600D02*
Y-8375D01*
X6130Y-8600D02*
Y-8375D01*
X6110Y-8600D02*
Y-8375D01*
X6090Y-8600D02*
Y-8375D01*
X6070Y-8600D02*
Y-8375D01*
X6050Y-8600D02*
Y-8375D01*
X6030Y-8600D02*
Y-8375D01*
X6010Y-8600D02*
Y-8375D01*
X5990Y-8600D02*
Y-8375D01*
X5970Y-8600D02*
Y-8375D01*
X5950Y-8600D02*
Y-8375D01*
X5930Y-8600D02*
Y-8375D01*
X5910Y-8600D02*
Y-8375D01*
X5890Y-8600D02*
Y-8375D01*
X5870Y-8600D02*
Y-8375D01*
X5850Y-8600D02*
Y-8375D01*
X5830Y-8600D02*
Y-8375D01*
X5810Y-8600D02*
Y-8375D01*
X5790Y-8600D02*
Y-8375D01*
X5770Y-8600D02*
Y-8375D01*
X5750Y-8600D02*
Y-8375D01*
X5730Y-8600D02*
Y-8375D01*
X5710Y-8600D02*
Y-8375D01*
X5690Y-8600D02*
Y-8375D01*
X5670Y-8600D02*
Y-8375D01*
X5650Y-8600D02*
Y-8375D01*
X5630Y-8600D02*
Y-8375D01*
X5610Y-8600D02*
Y-8375D01*
X5590Y-8600D02*
Y-8375D01*
X5570Y-8600D02*
Y-8375D01*
X5550Y-8600D02*
Y-8375D01*
X5530Y-8600D02*
Y-8375D01*
X5510Y-8600D02*
Y-8375D01*
X5490Y-8600D02*
Y-8375D01*
X5470Y-8600D02*
Y-8375D01*
X5450Y-8600D02*
Y-8375D01*
X5430Y-8600D02*
Y-8375D01*
X5410Y-8600D02*
Y-8375D01*
X5390Y-8600D02*
Y-8375D01*
X5370Y-8600D02*
Y-8375D01*
X5350Y-8600D02*
Y-8375D01*
X5330Y-8600D02*
Y-8375D01*
X5310Y-8600D02*
Y-8375D01*
X5290Y-8600D02*
Y-8375D01*
X5270Y-8600D02*
Y-8375D01*
X5250Y-8600D02*
Y-8375D01*
X4744D02*
X9725D01*
X5230Y-8600D02*
Y-8375D01*
X5210Y-8600D02*
Y-8375D01*
X4656Y-8288D02*
X4744Y-8375D01*
X4626Y-8310D02*
X4679D01*
X5190Y-8600D02*
Y-8375D01*
X5170Y-8600D02*
Y-8375D01*
X4710Y-8600D02*
Y-8341D01*
X4690Y-8600D02*
Y-8321D01*
X5150Y-8600D02*
Y-8375D01*
X4730Y-8600D02*
Y-8361D01*
X4670Y-8600D02*
Y-8301D01*
X4650Y-8600D02*
Y-8293D01*
X4630Y-8600D02*
Y-8308D01*
X4610Y-8600D02*
Y-8318D01*
X4590Y-8600D02*
Y-8325D01*
X4389Y-8330D02*
X4699D01*
X4369Y-8350D02*
X4719D01*
X4344Y-8375D02*
X4437Y-8281D01*
X4429Y-8290D02*
X4446D01*
X4409Y-8310D02*
X4474D01*
X4570Y-8600D02*
Y-8329D01*
X4510Y-8600D02*
Y-8325D01*
X4550Y-8600D02*
Y-8330D01*
X4530Y-8600D02*
Y-8329D01*
X4450Y-8600D02*
Y-8293D01*
X4430Y-8600D02*
Y-8289D01*
X4490Y-8600D02*
Y-8318D01*
X4470Y-8600D02*
Y-8308D01*
X5130Y-8600D02*
Y-8375D01*
X5110Y-8600D02*
Y-8375D01*
X5090Y-8600D02*
Y-8375D01*
X5070Y-8600D02*
Y-8375D01*
X5050Y-8600D02*
Y-8375D01*
X5030Y-8600D02*
Y-8375D01*
X5010Y-8600D02*
Y-8375D01*
X4990Y-8600D02*
Y-8375D01*
X4970Y-8600D02*
Y-8375D01*
X4950Y-8600D02*
Y-8375D01*
X4930Y-8600D02*
Y-8375D01*
X4910Y-8600D02*
Y-8375D01*
X4890Y-8600D02*
Y-8375D01*
X4870Y-8600D02*
Y-8375D01*
X4850Y-8600D02*
Y-8375D01*
X4830Y-8600D02*
Y-8375D01*
X650Y-8390D02*
X9975D01*
X650Y-8410D02*
X9975D01*
X650Y-8430D02*
X9975D01*
X650Y-8450D02*
X9975D01*
X4349Y-8370D02*
X4739D01*
X650Y-8470D02*
X9975D01*
X650Y-8490D02*
X9975D01*
X650Y-8510D02*
X9975D01*
X650Y-8530D02*
X9975D01*
X650Y-8550D02*
X9975D01*
X650Y-8570D02*
X9975D01*
X650Y-8590D02*
X9975D01*
X4810Y-8600D02*
Y-8375D01*
X4790Y-8600D02*
Y-8375D01*
X4770Y-8600D02*
Y-8375D01*
X4750Y-8600D02*
Y-8375D01*
X4410Y-8600D02*
Y-8309D01*
X4390Y-8600D02*
Y-8329D01*
X4370Y-8600D02*
Y-8349D01*
X4350Y-8600D02*
Y-8369D01*
X4330Y-8600D02*
Y-8375D01*
X4310Y-8600D02*
Y-8375D01*
X4290Y-8600D02*
Y-8375D01*
X4270Y-8600D02*
Y-8375D01*
X4250Y-8600D02*
Y-8375D01*
X4230Y-8600D02*
Y-8375D01*
X4210Y-8600D02*
Y-8375D01*
X4190Y-8600D02*
Y-8375D01*
X4170Y-8600D02*
Y-8375D01*
X4150Y-8600D02*
Y-8375D01*
X4130Y-8600D02*
Y-8375D01*
X4110Y-8600D02*
Y-8375D01*
X4090Y-8600D02*
Y-8375D01*
X650D02*
X4344D01*
X4070Y-8600D02*
Y-8375D01*
X4050Y-8600D02*
Y-8375D01*
X4030Y-8600D02*
Y-8375D01*
X4010Y-8600D02*
Y-8375D01*
X3990Y-8600D02*
Y-8375D01*
X3970Y-8600D02*
Y-8375D01*
X3950Y-8600D02*
Y-8375D01*
X3930Y-8600D02*
Y-8375D01*
X3910Y-8600D02*
Y-8375D01*
X3890Y-8600D02*
Y-8375D01*
X3870Y-8600D02*
Y-8375D01*
X3850Y-8600D02*
Y-8375D01*
X3830Y-8600D02*
Y-8375D01*
X3810Y-8600D02*
Y-8375D01*
X3790Y-8600D02*
Y-8375D01*
X3770Y-8600D02*
Y-8375D01*
X3750Y-8600D02*
Y-8375D01*
X3730Y-8600D02*
Y-8375D01*
X3710Y-8600D02*
Y-8375D01*
X3690Y-8600D02*
Y-8375D01*
X3670Y-8600D02*
Y-8375D01*
X3650Y-8600D02*
Y-8375D01*
X3630Y-8600D02*
Y-8375D01*
X3610Y-8600D02*
Y-8375D01*
X3590Y-8600D02*
Y-8375D01*
X3570Y-8600D02*
Y-8375D01*
X3550Y-8600D02*
Y-8375D01*
X3530Y-8600D02*
Y-8375D01*
X3510Y-8600D02*
Y-8375D01*
X3490Y-8600D02*
Y-8375D01*
X3470Y-8600D02*
Y-8375D01*
X3450Y-8600D02*
Y-8375D01*
X3430Y-8600D02*
Y-8375D01*
X3410Y-8600D02*
Y-8375D01*
X3390Y-8600D02*
Y-8375D01*
X3370Y-8600D02*
Y-8375D01*
X3350Y-8600D02*
Y-8375D01*
X3330Y-8600D02*
Y-8375D01*
X3310Y-8600D02*
Y-8375D01*
X3290Y-8600D02*
Y-8375D01*
X3270Y-8600D02*
Y-8375D01*
X3250Y-8600D02*
Y-8375D01*
X3230Y-8600D02*
Y-8375D01*
X3210Y-8600D02*
Y-8375D01*
X3190Y-8600D02*
Y-8375D01*
X3170Y-8600D02*
Y-8375D01*
X3150Y-8600D02*
Y-8375D01*
X3130Y-8600D02*
Y-8375D01*
X3110Y-8600D02*
Y-8375D01*
X3090Y-8600D02*
Y-8375D01*
X3070Y-8600D02*
Y-8375D01*
X3050Y-8600D02*
Y-8375D01*
X3030Y-8600D02*
Y-8375D01*
X3010Y-8600D02*
Y-8375D01*
X2990Y-8600D02*
Y-8375D01*
X2970Y-8600D02*
Y-8375D01*
X2950Y-8600D02*
Y-8375D01*
X2930Y-8600D02*
Y-8375D01*
X2910Y-8600D02*
Y-8375D01*
X2890Y-8600D02*
Y-8375D01*
X2870Y-8600D02*
Y-8375D01*
X2850Y-8600D02*
Y-8375D01*
X2830Y-8600D02*
Y-8375D01*
X2810Y-8600D02*
Y-8375D01*
X2790Y-8600D02*
Y-8375D01*
X2770Y-8600D02*
Y-8375D01*
X2750Y-8600D02*
Y-8375D01*
X2730Y-8600D02*
Y-8375D01*
X2710Y-8600D02*
Y-8375D01*
X2690Y-8600D02*
Y-8375D01*
X2670Y-8600D02*
Y-8375D01*
X2650Y-8600D02*
Y-8375D01*
X2630Y-8600D02*
Y-8375D01*
X2610Y-8600D02*
Y-8375D01*
X2590Y-8600D02*
Y-8375D01*
X2570Y-8600D02*
Y-8375D01*
X2550Y-8600D02*
Y-8375D01*
X2530Y-8600D02*
Y-8375D01*
X2510Y-8600D02*
Y-8375D01*
X2490Y-8600D02*
Y-8375D01*
X2470Y-8600D02*
Y-8375D01*
X2450Y-8600D02*
Y-8375D01*
X2430Y-8600D02*
Y-8375D01*
X2410Y-8600D02*
Y-8375D01*
X2390Y-8600D02*
Y-8375D01*
X2370Y-8600D02*
Y-8375D01*
X2350Y-8600D02*
Y-8375D01*
X2330Y-8600D02*
Y-8375D01*
X2310Y-8600D02*
Y-8375D01*
X2290Y-8600D02*
Y-8375D01*
X2270Y-8600D02*
Y-8375D01*
X2250Y-8600D02*
Y-8375D01*
X2230Y-8600D02*
Y-8375D01*
X2210Y-8600D02*
Y-8375D01*
X2190Y-8600D02*
Y-8375D01*
X2170Y-8600D02*
Y-8375D01*
X2150Y-8600D02*
Y-8375D01*
X2130Y-8600D02*
Y-8375D01*
X2110Y-8600D02*
Y-8375D01*
X2090Y-8600D02*
Y-8375D01*
X2070Y-8600D02*
Y-8375D01*
X2050Y-8600D02*
Y-8375D01*
X2030Y-8600D02*
Y-8375D01*
X2010Y-8600D02*
Y-8375D01*
X1990Y-8600D02*
Y-8375D01*
X650Y-8600D02*
X9975D01*
X1970D02*
Y-8375D01*
X1950Y-8600D02*
Y-8375D01*
X1930Y-8600D02*
Y-8375D01*
X1910Y-8600D02*
Y-8375D01*
X1890Y-8600D02*
Y-8375D01*
X1870Y-8600D02*
Y-8375D01*
X1850Y-8600D02*
Y-8375D01*
X1830Y-8600D02*
Y-8375D01*
X1810Y-8600D02*
Y-8375D01*
X1790Y-8600D02*
Y-8375D01*
X1770Y-8600D02*
Y-8375D01*
X1750Y-8600D02*
Y-8375D01*
X1730Y-8600D02*
Y-8375D01*
X1710Y-8600D02*
Y-8375D01*
X1690Y-8600D02*
Y-8375D01*
X1670Y-8600D02*
Y-8375D01*
X1650Y-8600D02*
Y-8375D01*
X1630Y-8600D02*
Y-8375D01*
X1610Y-8600D02*
Y-8375D01*
X1590Y-8600D02*
Y-8375D01*
X1570Y-8600D02*
Y-8375D01*
X1550Y-8600D02*
Y-8375D01*
X1530Y-8600D02*
Y-8375D01*
X1510Y-8600D02*
Y-8375D01*
X1490Y-8600D02*
Y-8375D01*
X1470Y-8600D02*
Y-8375D01*
X1450Y-8600D02*
Y-8375D01*
X1430Y-8600D02*
Y-8375D01*
X1410Y-8600D02*
Y-8375D01*
X1390Y-8600D02*
Y-8375D01*
X1370Y-8600D02*
Y-8375D01*
X1350Y-8600D02*
Y-8375D01*
X1330Y-8600D02*
Y-8375D01*
X1310Y-8600D02*
Y-8375D01*
X1290Y-8600D02*
Y-8375D01*
X1270Y-8600D02*
Y-8375D01*
X1250Y-8600D02*
Y-8375D01*
X1230Y-8600D02*
Y-8375D01*
X1210Y-8600D02*
Y-8375D01*
X1190Y-8600D02*
Y-8375D01*
X1170Y-8600D02*
Y-8375D01*
X1150Y-8600D02*
Y-8375D01*
X1130Y-8600D02*
Y-8375D01*
X1110Y-8600D02*
Y-8375D01*
X1090Y-8600D02*
Y-8375D01*
X1070Y-8600D02*
Y-8375D01*
X1050Y-8600D02*
Y-8375D01*
X1030Y-8600D02*
Y-8375D01*
X1010Y-8600D02*
Y-8375D01*
X990Y-8600D02*
Y-8375D01*
X970Y-8600D02*
Y-8375D01*
X950Y-8600D02*
Y-8375D01*
X930Y-8600D02*
Y-8375D01*
X910Y-8600D02*
Y-8375D01*
X890Y-8600D02*
Y-8375D01*
X870Y-8600D02*
Y-8375D01*
X850Y-8600D02*
Y-8375D01*
X830Y-8600D02*
Y-8375D01*
X810Y-8600D02*
Y-8375D01*
X790Y-8600D02*
Y-8375D01*
X770Y-8600D02*
Y-8375D01*
X750Y-8600D02*
Y-8375D01*
X730Y-8600D02*
Y-8375D01*
X710Y-8600D02*
Y-8375D01*
X690Y-8600D02*
Y-8375D01*
X670Y-8600D02*
Y-8375D01*
X650Y-8600D02*
Y-8375D01*
X460Y-7350D02*
Y-7335D01*
X455Y-7355D02*
X460Y-7350D01*
X200Y-7075D02*
X460Y-7335D01*
X10950Y-1015D02*
Y-900D01*
X10950Y-1015D02*
Y-900D01*
X10930Y-1015D02*
Y-900D01*
X10825D02*
X10950D01*
X10910Y-1015D02*
Y-900D01*
X10890Y-1015D02*
Y-900D01*
X10870Y-1015D02*
Y-900D01*
X10850Y-1015D02*
Y-900D01*
X10838Y-1015D02*
X10950D01*
X10838Y-1125D02*
Y-1015D01*
X10825Y-900D02*
Y-150D01*
X10810Y-1125D02*
Y-150D01*
X10790Y-1125D02*
Y-150D01*
X10300Y-790D02*
X10825D01*
X10300Y-810D02*
X10825D01*
X10770Y-1125D02*
Y-150D01*
X10300Y-830D02*
X10825D01*
X10300Y-850D02*
X10825D01*
X10830Y-1125D02*
Y-900D01*
X10300Y-870D02*
X10825D01*
X10300Y-890D02*
X10825D01*
X10750Y-1125D02*
Y-150D01*
X10730Y-1125D02*
Y-150D01*
X10710Y-1125D02*
Y-150D01*
X10690Y-1125D02*
Y-150D01*
X10670Y-1125D02*
Y-150D01*
X10650Y-1125D02*
Y-150D01*
X10630Y-1125D02*
Y-150D01*
X10610Y-1125D02*
Y-150D01*
X10590Y-1125D02*
Y-150D01*
X10570Y-1125D02*
Y-150D01*
X10550Y-1125D02*
Y-150D01*
X10530Y-1125D02*
Y-150D01*
X10510Y-1125D02*
Y-150D01*
X10490Y-1125D02*
Y-150D01*
X10470Y-1125D02*
Y-150D01*
X10450Y-1125D02*
Y-150D01*
X10430Y-1125D02*
Y-150D01*
X10410Y-1125D02*
Y-150D01*
X10390Y-1125D02*
Y-150D01*
X10370Y-1125D02*
Y-150D01*
X10350Y-1125D02*
Y-150D01*
X10330Y-1125D02*
Y-150D01*
X10310Y-1125D02*
Y-150D01*
X10300Y-150D02*
X10825D01*
X10300Y-150D02*
X10825D01*
X10300Y-170D02*
X10825D01*
X10300Y-190D02*
X10825D01*
X10300Y-210D02*
X10825D01*
X10300Y-230D02*
X10825D01*
X10300Y-250D02*
X10825D01*
X10300Y-270D02*
X10825D01*
X10300Y-290D02*
X10825D01*
X10300Y-310D02*
X10825D01*
X10300Y-330D02*
X10825D01*
X10300Y-350D02*
X10825D01*
X10300Y-370D02*
X10825D01*
X10300Y-390D02*
X10825D01*
X10300Y-410D02*
X10825D01*
X10300Y-430D02*
X10825D01*
X10300Y-450D02*
X10825D01*
X10300Y-470D02*
X10825D01*
X10300Y-490D02*
X10825D01*
X10300Y-510D02*
X10825D01*
X10300Y-530D02*
X10825D01*
X10300Y-550D02*
X10825D01*
X10300Y-570D02*
X10825D01*
X10300Y-910D02*
X10950D01*
X10300Y-930D02*
X10950D01*
X10300Y-950D02*
X10950D01*
X10300Y-970D02*
X10950D01*
X10300Y-990D02*
X10950D01*
X10300Y-1010D02*
X10950D01*
X10300Y-1030D02*
X10838D01*
X10300Y-1050D02*
X10838D01*
X10300Y-1070D02*
X10838D01*
X10300Y-1090D02*
X10838D01*
X10300Y-1110D02*
X10838D01*
X10300Y-1125D02*
X10838D01*
X10300Y-590D02*
X10825D01*
X10300Y-610D02*
X10825D01*
X10300Y-1125D02*
Y-150D01*
Y-630D02*
X10825D01*
X10300Y-650D02*
X10825D01*
X10300Y-670D02*
X10825D01*
X10300Y-690D02*
X10825D01*
X10300Y-710D02*
X10825D01*
X10300Y-730D02*
X10825D01*
X10300Y-750D02*
X10825D01*
X10300Y-770D02*
X10825D01*
X11078Y-1995D02*
Y-1951D01*
X11070Y-1995D02*
Y-1951D01*
X11050Y-1999D02*
Y-1947D01*
X10929Y-1846D02*
X10973D01*
X10929Y-1850D02*
X10973D01*
X10919Y-1890D02*
X10983D01*
X11030Y-2007D02*
Y-1939D01*
X11010Y-2020D02*
Y-1926D01*
X10990Y-2043D02*
Y-1903D01*
X10925Y-2070D02*
X10977D01*
X10970Y-2100D02*
Y-1846D01*
X10950Y-2100D02*
Y-1846D01*
X10930Y-2100D02*
Y-1846D01*
X10929Y-2090D02*
X10973D01*
X10929Y-2100D02*
X10973D01*
X10926Y-1870D02*
X10976D01*
X10907Y-1910D02*
X10995D01*
X10887Y-1930D02*
X11015D01*
X10838Y-1950D02*
X11064D01*
X10824Y-1970D02*
X11078D01*
X10824Y-1990D02*
X11078D01*
X10830Y-1995D02*
Y-1951D01*
X10824Y-1995D02*
Y-1951D01*
X10878Y-2010D02*
X11024D01*
X10902Y-2030D02*
X11000D01*
X10916Y-2050D02*
X10986D01*
X10890Y-2018D02*
Y-1928D01*
X10910Y-2040D02*
Y-1906D01*
X10870Y-2006D02*
Y-1940D01*
X10850Y-1998D02*
Y-1948D01*
X645Y-7580D02*
X650Y-7575D01*
X8550Y-5100D02*
Y-3500D01*
X8570Y-5100D02*
Y-3500D01*
X8590Y-5100D02*
Y-3500D01*
X8610Y-5100D02*
Y-3500D01*
X8630Y-5100D02*
Y-3500D01*
X8650Y-5100D02*
Y-3500D01*
X8670Y-5100D02*
Y-3500D01*
X8690Y-5100D02*
Y-3500D01*
X8710Y-5100D02*
Y-3500D01*
X8730Y-5100D02*
Y-3500D01*
X8750Y-5100D02*
Y-3500D01*
X8770Y-5100D02*
Y-3500D01*
X8790Y-5100D02*
Y-3500D01*
X8810Y-5100D02*
Y-3500D01*
X8830Y-5100D02*
Y-3500D01*
X8850Y-5100D02*
Y-3500D01*
X8870Y-5100D02*
Y-3500D01*
X8890Y-5100D02*
Y-3500D01*
X8910Y-5100D02*
Y-3500D01*
X8930Y-5100D02*
Y-3500D01*
X8950Y-5100D02*
Y-3500D01*
X9750Y-5100D02*
Y-3550D01*
X9770Y-5100D02*
Y-3570D01*
X8970Y-5100D02*
Y-3500D01*
X9710Y-5100D02*
Y-3510D01*
X9730Y-5100D02*
Y-3530D01*
X9830Y-5100D02*
Y-3630D01*
X9850Y-5100D02*
Y-3650D01*
X9790Y-5100D02*
Y-3590D01*
X9810Y-5100D02*
Y-3610D01*
X9930Y-5100D02*
Y-3730D01*
X9950Y-5100D02*
Y-3750D01*
X9870Y-5100D02*
Y-3670D01*
X9890Y-5100D02*
Y-3690D01*
X9910Y-5100D02*
Y-3710D01*
X8990Y-5100D02*
Y-3500D01*
X9010Y-5100D02*
Y-3500D01*
X9030Y-5100D02*
Y-3500D01*
X9050Y-5100D02*
Y-3500D01*
X9070Y-5100D02*
Y-3500D01*
X9090Y-5100D02*
Y-3500D01*
X9110Y-5100D02*
Y-3500D01*
X9130Y-5100D02*
Y-3500D01*
X9150Y-5100D02*
Y-3500D01*
X9170Y-5100D02*
Y-3500D01*
X9190Y-5100D02*
Y-3500D01*
X9210Y-5100D02*
Y-3500D01*
X9230Y-5100D02*
Y-3500D01*
X9250Y-5100D02*
Y-3500D01*
X9270Y-5100D02*
Y-3500D01*
X9290Y-5100D02*
Y-3500D01*
X9310Y-5100D02*
Y-3500D01*
X9330Y-5100D02*
Y-3500D01*
X9350Y-5100D02*
Y-3500D01*
X9370Y-5100D02*
Y-3500D01*
X9390Y-5100D02*
Y-3500D01*
X9410Y-5100D02*
Y-3500D01*
X9430Y-5100D02*
Y-3500D01*
X9450Y-5100D02*
Y-3500D01*
X9470Y-5100D02*
Y-3500D01*
X9490Y-5100D02*
Y-3500D01*
X9510Y-5100D02*
Y-3500D01*
X9530Y-5100D02*
Y-3500D01*
X9550Y-5100D02*
Y-3500D01*
X9570Y-5100D02*
Y-3500D01*
X9590Y-5100D02*
Y-3500D01*
X9610Y-5100D02*
Y-3500D01*
X9630Y-5100D02*
Y-3500D01*
X9650Y-5100D02*
Y-3500D01*
X9670Y-5100D02*
Y-3500D01*
X9690Y-5100D02*
Y-3500D01*
X10600Y-5975D02*
X12550D01*
X10600Y-5970D02*
X12550D01*
X10600Y-5950D02*
X12550D01*
X10600Y-5930D02*
X12550D01*
X10600Y-5910D02*
X12550D01*
X10600Y-5890D02*
X12550D01*
X10600Y-5870D02*
X12550D01*
X10600Y-5850D02*
X12550D01*
X10600Y-5830D02*
X12550D01*
X10600Y-5810D02*
X12550D01*
X10580Y-5430D02*
X12550D01*
X10600Y-5790D02*
X12550D01*
X10540Y-5390D02*
X12550D01*
X10560Y-5410D02*
X12550D01*
X10480Y-5330D02*
X12550D01*
X10520Y-5370D02*
X12550D01*
X10500Y-5350D02*
X12550D01*
X10600Y-5770D02*
X12550D01*
X10600Y-5750D02*
X12550D01*
X10600Y-5730D02*
X12550D01*
X10600Y-5975D02*
Y-5450D01*
Y-5710D02*
X12550D01*
X10600Y-5690D02*
X12550D01*
X10600Y-5670D02*
X12550D01*
X10600Y-5650D02*
X12550D01*
X10600Y-5630D02*
X12550D01*
X10600Y-5610D02*
X12550D01*
X10600Y-5590D02*
X12550D01*
X10600Y-5570D02*
X12550D01*
X10600Y-5550D02*
X12550D01*
X10600Y-5530D02*
X12550D01*
X10600Y-5510D02*
X12550D01*
X10600Y-5490D02*
X12550D01*
X10600Y-5470D02*
X12550D01*
X10600Y-5450D02*
X12550D01*
X10310Y-5160D02*
Y-4440D01*
X10330Y-5180D02*
Y-4429D01*
X10350Y-5200D02*
Y-4413D01*
X10370Y-5220D02*
Y-4410D01*
X10340Y-5190D02*
X12550D01*
X10360Y-5210D02*
X12550D01*
X10250Y-5100D02*
X10600Y-5450D01*
X10320Y-5170D02*
X12550D01*
X10300Y-5150D02*
X12550D01*
X10010Y-5100D02*
Y-3810D01*
X10030Y-5100D02*
Y-3830D01*
X9970Y-5100D02*
Y-3770D01*
X9990Y-5100D02*
Y-3790D01*
X10260Y-5110D02*
X12550D01*
X10280Y-5130D02*
X12550D01*
X8550Y-5100D02*
X10250D01*
X10290Y-5140D02*
Y-4447D01*
X10270Y-5120D02*
Y-4452D01*
X10470Y-5320D02*
Y-4410D01*
X10490Y-5340D02*
Y-4410D01*
X10510Y-5360D02*
Y-4410D01*
X10530Y-5380D02*
Y-4410D01*
X10550Y-5400D02*
Y-4410D01*
X10570Y-5420D02*
Y-4410D01*
X10590Y-5440D02*
Y-4410D01*
X10610Y-5975D02*
Y-4410D01*
X10630Y-5975D02*
Y-4410D01*
X10390Y-5240D02*
Y-4410D01*
X10410Y-5260D02*
Y-4410D01*
X10430Y-5280D02*
Y-4410D01*
X10450Y-5300D02*
Y-4410D01*
X10440Y-5290D02*
X12550D01*
X10460Y-5310D02*
X12550D01*
X10380Y-5230D02*
X12550D01*
X10420Y-5270D02*
X12550D01*
X10400Y-5250D02*
X12550D01*
X8550Y-4370D02*
X10119D01*
X8550Y-4350D02*
X10111D01*
X8550Y-4330D02*
X10107D01*
X8550Y-4310D02*
X10105D01*
X8550Y-4450D02*
X10221D01*
X8550Y-4430D02*
X10172D01*
X8550Y-4410D02*
X10147D01*
X8550Y-4390D02*
X10130D01*
X8550Y-4290D02*
X10106D01*
X8550Y-4270D02*
X10110D01*
X8550Y-4250D02*
X10117D01*
X8550Y-4230D02*
X10128D01*
X8550Y-4210D02*
X10143D01*
X8550Y-4190D02*
X10166D01*
X8550Y-4170D02*
X10163D01*
X8550Y-4150D02*
X10141D01*
X8550Y-4130D02*
X10127D01*
X10130Y-5100D02*
Y-4389D01*
X10150Y-5100D02*
Y-4413D01*
X10110Y-5100D02*
Y-4346D01*
Y-4270D02*
Y-4092D01*
X10230Y-5100D02*
Y-4452D01*
X10250Y-5100D02*
Y-4453D01*
X10170Y-5100D02*
Y-4429D01*
X10190Y-5100D02*
Y-4440D01*
X10210Y-5100D02*
Y-4447D01*
X8550Y-4110D02*
X10116D01*
X8550Y-4090D02*
X10110D01*
X8550Y-4070D02*
X10106D01*
X8550Y-4050D02*
X10050D01*
X10170Y-4187D02*
Y-4175D01*
X10330Y-4187D02*
Y-4175D01*
X10130Y-4227D02*
Y-4135D01*
X10150Y-4203D02*
Y-4159D01*
X8550Y-4030D02*
X10050D01*
X8550Y-4010D02*
X10050D01*
X8550Y-3990D02*
X10050D01*
X8550Y-3970D02*
X10050D01*
X8550Y-3950D02*
X10050D01*
X8550Y-3930D02*
X10050D01*
X8550Y-3910D02*
X10050D01*
X8550Y-3890D02*
X10050D01*
X8550Y-3870D02*
X10050D01*
X8550Y-3750D02*
X9950D01*
X8550Y-3730D02*
X9930D01*
X8550Y-3710D02*
X9910D01*
X8550Y-3690D02*
X9890D01*
X8550Y-3850D02*
X10050D01*
X8550Y-3830D02*
X10030D01*
X8550Y-3810D02*
X10010D01*
X8550Y-3790D02*
X9990D01*
X8550Y-3770D02*
X9970D01*
X10050Y-5100D02*
Y-3850D01*
X10050Y-4054D02*
Y-3850D01*
X8550Y-3670D02*
X9870D01*
X9700Y-3500D02*
X10050Y-3850D01*
X10070Y-5100D02*
Y-4054D01*
X10090Y-5100D02*
Y-4054D01*
X10050D02*
X10105D01*
X8550Y-3550D02*
X9750D01*
X8550Y-3530D02*
X9730D01*
X8550Y-3510D02*
X9710D01*
X8550Y-3500D02*
X9700D01*
X8550Y-3650D02*
X9850D01*
X8550Y-3630D02*
X9830D01*
X8550Y-3610D02*
X9810D01*
X8550Y-3590D02*
X9790D01*
X8550Y-3570D02*
X9770D01*
X8550Y-5090D02*
X12550D01*
X8550Y-5070D02*
X12550D01*
X8550Y-4970D02*
X11213D01*
X8550Y-4950D02*
X11184D01*
X8550Y-5050D02*
X12550D01*
X8550Y-5030D02*
X12550D01*
X8550Y-5010D02*
X12550D01*
X8550Y-4990D02*
X12550D01*
X8550Y-4830D02*
X11099D01*
X8550Y-4810D02*
X11079D01*
X8550Y-4790D02*
X11059D01*
X8550Y-4770D02*
X11039D01*
X8550Y-4930D02*
X11166D01*
X8550Y-4910D02*
X11154D01*
X8550Y-4890D02*
X11146D01*
X8550Y-4870D02*
X11139D01*
X8550Y-4850D02*
X11119D01*
X8550Y-4650D02*
X10919D01*
X8550Y-4630D02*
X10899D01*
X8550Y-4610D02*
X10879D01*
X8550Y-4590D02*
X10859D01*
X8550Y-4750D02*
X11019D01*
X8550Y-4730D02*
X10999D01*
X8550Y-4710D02*
X10979D01*
X8550Y-4690D02*
X10959D01*
X8550Y-4670D02*
X10939D01*
X8550Y-4470D02*
X10739D01*
X10279Y-4450D02*
X10719D01*
X10328Y-4430D02*
X10699D01*
X10353Y-4410D02*
X10679D01*
X8550Y-4570D02*
X10839D01*
X8550Y-4550D02*
X10819D01*
X8550Y-4530D02*
X10799D01*
X8550Y-4510D02*
X10779D01*
X8550Y-4490D02*
X10759D01*
X10350Y-4190D02*
Y-4159D01*
X10370Y-4190D02*
Y-4135D01*
X10390Y-4190D02*
Y-4092D01*
X10334Y-4190D02*
X10725D01*
X10353Y-4410D02*
X10679D01*
X10410Y-4190D02*
Y-4054D01*
X10430Y-4190D02*
Y-4054D01*
X10450Y-4190D02*
Y-4054D01*
X10390Y-4090D02*
X11745D01*
X10395Y-4054D02*
X10496D01*
X10337Y-4170D02*
X11768D01*
X10359Y-4150D02*
X11760D01*
X10373Y-4130D02*
X11753D01*
X10384Y-4110D02*
X11749D01*
X10394Y-4070D02*
X11743D01*
X10470Y-4190D02*
Y-4054D01*
X10490Y-4190D02*
Y-4054D01*
X10510Y-4190D02*
Y-4040D01*
X10530Y-4190D02*
Y-4020D01*
X10550Y-4190D02*
Y-4000D01*
X10570Y-4190D02*
Y-3980D01*
X10590Y-4190D02*
Y-3960D01*
X10610Y-4190D02*
Y-3940D01*
X10630Y-4190D02*
Y-3920D01*
X10500Y-4050D02*
X11743D01*
X10520Y-4030D02*
X11744D01*
X10496Y-4054D02*
X11000Y-3550D01*
X10540Y-4010D02*
X11746D01*
X10560Y-3990D02*
X11750D01*
X10580Y-3970D02*
X11756D01*
X10600Y-3950D02*
X11763D01*
X10620Y-3930D02*
X11771D01*
X10640Y-3910D02*
X11782D01*
X10810Y-5975D02*
Y-4541D01*
X10830Y-5975D02*
Y-4561D01*
X10770Y-5975D02*
Y-4501D01*
X10790Y-5975D02*
Y-4521D01*
X10890Y-5975D02*
Y-4621D01*
X10910Y-5975D02*
Y-4641D01*
X10850Y-5975D02*
Y-4581D01*
X10870Y-5975D02*
Y-4601D01*
X10970Y-5975D02*
Y-4701D01*
X10990Y-5975D02*
Y-4721D01*
X10930Y-5975D02*
Y-4661D01*
X10950Y-5975D02*
Y-4681D01*
X11070Y-5975D02*
Y-4801D01*
X11090Y-5975D02*
Y-4821D01*
X11010Y-5975D02*
Y-4741D01*
X11030Y-5975D02*
Y-4761D01*
X11050Y-5975D02*
Y-4781D01*
X11150Y-5975D02*
Y-4901D01*
X11170Y-5975D02*
Y-4935D01*
X11110Y-5975D02*
Y-4841D01*
X11130Y-5975D02*
Y-4861D01*
X11250Y-5975D02*
Y-4983D01*
X11270Y-5975D02*
Y-4985D01*
X11190Y-5975D02*
Y-4955D01*
X11210Y-5975D02*
Y-4968D01*
X11230Y-5975D02*
Y-4977D01*
X11290Y-5975D02*
Y-4984D01*
X11310Y-5975D02*
Y-4980D01*
X11330Y-5975D02*
Y-4973D01*
X11350Y-5975D02*
Y-4962D01*
X11370Y-5975D02*
Y-4946D01*
X11390Y-5975D02*
Y-4921D01*
X11410Y-5975D02*
Y-4853D01*
X10690Y-5975D02*
Y-4421D01*
X10710Y-5975D02*
Y-4441D01*
X10650Y-5975D02*
Y-4410D01*
X10670Y-5975D02*
Y-4410D01*
X10730Y-5975D02*
Y-4461D01*
X10750Y-5975D02*
Y-4481D01*
X10679Y-4410D02*
X11142Y-4872D01*
X10803Y-4222D02*
X11297Y-4717D01*
X11270Y-4689D02*
Y-3150D01*
X11090Y-4509D02*
Y-3150D01*
X11110Y-4529D02*
Y-3150D01*
X11130Y-4549D02*
Y-3150D01*
X11150Y-4569D02*
Y-3150D01*
X11170Y-4589D02*
Y-3150D01*
X11190Y-4609D02*
Y-3150D01*
X11210Y-4629D02*
Y-3150D01*
X11250Y-4669D02*
Y-3150D01*
X11230Y-4649D02*
Y-3150D01*
X11430Y-5975D02*
Y-3150D01*
X11450Y-5975D02*
Y-3150D01*
X11470Y-5975D02*
Y-3150D01*
X11490Y-5975D02*
Y-3150D01*
X11510Y-5975D02*
Y-3150D01*
X11530Y-5975D02*
Y-3150D01*
X11550Y-5975D02*
Y-3150D01*
X11570Y-5975D02*
Y-3150D01*
X11590Y-5975D02*
Y-3150D01*
X11290Y-4709D02*
Y-3150D01*
X11310Y-4720D02*
Y-3150D01*
X11330Y-4727D02*
Y-3150D01*
X11350Y-4738D02*
Y-3150D01*
X11370Y-4754D02*
Y-3150D01*
X11390Y-4779D02*
Y-3150D01*
X11410Y-4847D02*
Y-3150D01*
X11610Y-5975D02*
Y-3150D01*
X11630Y-5975D02*
Y-3150D01*
X11337Y-4970D02*
X12550D01*
X11366Y-4950D02*
X12550D01*
X11384Y-4930D02*
X12550D01*
X11384Y-4770D02*
X12550D01*
X11337Y-4730D02*
X12550D01*
X11366Y-4750D02*
X12550D01*
X11271Y-4690D02*
X12550D01*
X11291Y-4710D02*
X12550D01*
X11231Y-4650D02*
X12550D01*
X11251Y-4670D02*
X12550D01*
X11191Y-4610D02*
X12550D01*
X11211Y-4630D02*
X12550D01*
X11151Y-4570D02*
X12550D01*
X11171Y-4590D02*
X12550D01*
X11091Y-4510D02*
X12550D01*
X11131Y-4550D02*
X12550D01*
X11111Y-4530D02*
X12550D01*
X11970Y-5975D02*
Y-4333D01*
X11990Y-5975D02*
Y-4336D01*
X11930Y-5975D02*
Y-4322D01*
X11950Y-5975D02*
Y-4328D01*
X12010Y-5975D02*
Y-4338D01*
X12030Y-5975D02*
Y-4339D01*
X12050Y-5975D02*
Y-4338D01*
X12070Y-5975D02*
Y-4336D01*
X12090Y-5975D02*
Y-4332D01*
X11396Y-4910D02*
X12550D01*
X11404Y-4890D02*
X12550D01*
X12110Y-5975D02*
Y-4327D01*
X12130Y-5975D02*
Y-4320D01*
X11409Y-4870D02*
X12550D01*
X11410Y-4850D02*
X12550D01*
X11396Y-4790D02*
X12550D01*
X11409Y-4830D02*
X12550D01*
X11404Y-4810D02*
X12550D01*
X11650Y-5975D02*
Y-3150D01*
X11670Y-5975D02*
Y-3150D01*
X11690Y-5975D02*
Y-3150D01*
X11710Y-5975D02*
Y-3150D01*
X11790Y-5975D02*
Y-4211D01*
X11810Y-5975D02*
Y-4238D01*
X11730Y-5975D02*
Y-3150D01*
X11750Y-5975D02*
Y-4117D01*
X11770Y-5975D02*
Y-4175D01*
X11870Y-5975D02*
Y-4291D01*
X11890Y-5975D02*
Y-4303D01*
X11830Y-5975D02*
Y-4259D01*
X11850Y-5975D02*
Y-4277D01*
X11910Y-5975D02*
Y-4313D01*
X12150Y-5975D02*
Y-4312D01*
X12170Y-5975D02*
Y-4301D01*
X12190Y-5975D02*
Y-4289D01*
X12210Y-5975D02*
Y-4273D01*
X12230Y-5975D02*
Y-4255D01*
X12250Y-5975D02*
Y-4233D01*
X12270Y-5975D02*
Y-4205D01*
X12290Y-5975D02*
Y-4166D01*
X12310Y-5975D02*
Y-4095D01*
X12330Y-5975D02*
Y-3150D01*
X12350Y-5975D02*
Y-3150D01*
X12370Y-5975D02*
Y-3150D01*
X12390Y-5975D02*
Y-3150D01*
X12410Y-5975D02*
Y-3150D01*
X12430Y-5975D02*
Y-3150D01*
X12450Y-5975D02*
Y-3150D01*
X12470Y-5975D02*
Y-3150D01*
X12490Y-5975D02*
Y-3150D01*
X12510Y-5975D02*
Y-3150D01*
X12530Y-5975D02*
Y-3150D01*
X12550Y-5975D02*
Y-3150D01*
X12550Y-5975D02*
Y-3150D01*
X10650Y-4190D02*
Y-3900D01*
X10670Y-4190D02*
Y-3880D01*
X10690Y-4190D02*
Y-3860D01*
X10710Y-4190D02*
Y-3840D01*
X10727Y-4190D02*
X11778D01*
X10770Y-4200D02*
Y-3780D01*
X10660Y-3890D02*
X11795D01*
X10680Y-3870D02*
X11810D01*
X10730Y-4190D02*
Y-3820D01*
X10750Y-4193D02*
Y-3800D01*
X10700Y-3850D02*
X11829D01*
X10720Y-3830D02*
X11852D01*
X10740Y-3810D02*
X11881D01*
X10760Y-3790D02*
X11921D01*
X10780Y-3770D02*
X12004D01*
X10870Y-4289D02*
Y-3680D01*
X10890Y-4309D02*
Y-3660D01*
X10910Y-4329D02*
Y-3640D01*
X10930Y-4349D02*
Y-3620D01*
X10891Y-4310D02*
X11903D01*
X10911Y-4330D02*
X11957D01*
X10851Y-4270D02*
X11842D01*
X10871Y-4290D02*
X11868D01*
X10790Y-4211D02*
Y-3760D01*
X10810Y-4229D02*
Y-3740D01*
X10830Y-4249D02*
Y-3720D01*
X10850Y-4269D02*
Y-3700D01*
X10811Y-4230D02*
X11804D01*
X10831Y-4250D02*
X11821D01*
X10788Y-4210D02*
X11790D01*
X10950Y-4369D02*
Y-3600D01*
X10970Y-4389D02*
Y-3580D01*
X10990Y-4409D02*
Y-3560D01*
X11010Y-4429D02*
Y-3150D01*
X11030Y-4449D02*
Y-3150D01*
X11050Y-4469D02*
Y-3150D01*
X11070Y-4489D02*
Y-3150D01*
X11750Y-3991D02*
Y-3150D01*
X11770Y-3933D02*
Y-3150D01*
X11000Y-3550D02*
Y-3150D01*
X11790Y-3897D02*
Y-3150D01*
X11810Y-3870D02*
Y-3150D01*
X11830Y-3849D02*
Y-3150D01*
X11850Y-3831D02*
Y-3150D01*
X11870Y-3817D02*
Y-3150D01*
X11890Y-3805D02*
Y-3150D01*
X11910Y-3795D02*
Y-3150D01*
X11930Y-3786D02*
Y-3150D01*
X12130Y-3788D02*
Y-3150D01*
X12150Y-3796D02*
Y-3150D01*
X12170Y-3807D02*
Y-3150D01*
X12190Y-3819D02*
Y-3150D01*
X12210Y-3835D02*
Y-3150D01*
X12230Y-3853D02*
Y-3150D01*
X12250Y-3875D02*
Y-3150D01*
X12290Y-3942D02*
Y-3150D01*
X12270Y-3903D02*
Y-3150D01*
X11950Y-3780D02*
Y-3150D01*
X11970Y-3775D02*
Y-3150D01*
X11990Y-3772D02*
Y-3150D01*
X12010Y-3770D02*
Y-3150D01*
X12030Y-3769D02*
Y-3150D01*
X12050Y-3770D02*
Y-3150D01*
X12070Y-3772D02*
Y-3150D01*
X12110Y-3781D02*
Y-3150D01*
X12090Y-3776D02*
Y-3150D01*
X11051Y-4470D02*
X12550D01*
X11071Y-4490D02*
X12550D01*
X11011Y-4430D02*
X12550D01*
X11031Y-4450D02*
X12550D01*
X10971Y-4390D02*
X12550D01*
X10991Y-4410D02*
X12550D01*
X10931Y-4350D02*
X12550D01*
X10951Y-4370D02*
X12550D01*
X12099Y-4330D02*
X12550D01*
X12153Y-4310D02*
X12550D01*
X12188Y-4290D02*
X12550D01*
X12214Y-4270D02*
X12550D01*
X12235Y-4250D02*
X12550D01*
X12246Y-3870D02*
X12550D01*
X12175Y-3810D02*
X12550D01*
X12227Y-3850D02*
X12550D01*
X12204Y-3830D02*
X12550D01*
X12252Y-4230D02*
X12550D01*
X12266Y-4210D02*
X12550D01*
X12278Y-4190D02*
X12550D01*
X12288Y-4170D02*
X12550D01*
X12296Y-4150D02*
X12550D01*
X12303Y-4130D02*
X12550D01*
X12307Y-4110D02*
X12550D01*
X12311Y-4090D02*
X12550D01*
X12313Y-4070D02*
X12550D01*
X12313Y-4050D02*
X12550D01*
X12312Y-4030D02*
X12550D01*
X12306Y-3990D02*
X12550D01*
X12310Y-4010D02*
X12550D01*
X12293Y-3950D02*
X12550D01*
X12300Y-3970D02*
X12550D01*
X12261Y-3890D02*
X12550D01*
X12285Y-3930D02*
X12550D01*
X12274Y-3910D02*
X12550D01*
X10800Y-3750D02*
X12550D01*
X10820Y-3730D02*
X12550D01*
X10840Y-3710D02*
X12550D01*
X10860Y-3690D02*
X12550D01*
X10880Y-3670D02*
X12550D01*
X10900Y-3650D02*
X12550D01*
X10920Y-3630D02*
X12550D01*
X10940Y-3610D02*
X12550D01*
X10960Y-3590D02*
X12550D01*
X10980Y-3570D02*
X12550D01*
X11000Y-3550D02*
X12550D01*
X11000Y-3530D02*
X12550D01*
X11000Y-3510D02*
X12550D01*
X11000Y-3490D02*
X12550D01*
X11000Y-3470D02*
X12550D01*
X11000Y-3450D02*
X12550D01*
X11000Y-3430D02*
X12550D01*
X11000Y-3410D02*
X12550D01*
X12135Y-3790D02*
X12550D01*
X12052Y-3770D02*
X12550D01*
X12310Y-4013D02*
Y-3150D01*
X11000Y-3390D02*
X12550D01*
X11000Y-3370D02*
X12550D01*
X11000Y-3350D02*
X12550D01*
X11000Y-3330D02*
X12550D01*
X11000Y-3310D02*
X12550D01*
X11000Y-3290D02*
X12550D01*
X11000Y-3270D02*
X12550D01*
X11000Y-3250D02*
X12550D01*
X11000Y-3230D02*
X12550D01*
X11000Y-3210D02*
X12550D01*
X11000Y-3190D02*
X12550D01*
X11000Y-3170D02*
X12550D01*
X11000Y-3150D02*
X12550D01*
X11000Y-3150D02*
X12550D01*
X1410Y-3925D02*
Y-3160D01*
X1430Y-3925D02*
Y-3175D01*
X1450Y-3925D02*
Y-3175D01*
X1470Y-3925D02*
Y-3175D01*
X1490Y-3925D02*
Y-3175D01*
X1510Y-3925D02*
Y-3175D01*
X1530Y-3925D02*
Y-3175D01*
X1250Y-3925D02*
Y-3137D01*
X1270Y-3925D02*
Y-3140D01*
X1290Y-3925D02*
Y-3139D01*
X1310Y-3925D02*
Y-3135D01*
X1330Y-3925D02*
Y-3126D01*
X1350Y-3925D02*
Y-3112D01*
X1370Y-3925D02*
Y-3120D01*
X1390Y-3925D02*
Y-3140D01*
X1250Y-3925D02*
X2175D01*
X1250Y-3910D02*
X2175D01*
X1250Y-3890D02*
X2175D01*
X1250Y-3870D02*
X2175D01*
X1250Y-3850D02*
X2175D01*
X1250Y-3830D02*
X2175D01*
X1250Y-3810D02*
X2175D01*
X1250Y-3790D02*
X2175D01*
X1250Y-3770D02*
X2175D01*
X1250Y-3750D02*
X2175D01*
X1250Y-3730D02*
X2175D01*
X1250Y-3710D02*
X2175D01*
X1250Y-3690D02*
X2175D01*
X1250Y-3670D02*
X2175D01*
X1250Y-3650D02*
X2175D01*
X1250Y-3630D02*
X2350D01*
X1250Y-3610D02*
X2350D01*
X1250Y-3590D02*
X2350D01*
X1250Y-3570D02*
X2350D01*
X1250Y-3550D02*
X2350D01*
X1250Y-3530D02*
X2350D01*
X1250Y-3510D02*
X2350D01*
X1250Y-3170D02*
X1420D01*
X1250Y-3490D02*
X2350D01*
X1250Y-3150D02*
X1400D01*
X1356Y-3106D02*
X1425Y-3175D01*
X2050D01*
X1322Y-3130D02*
X1380D01*
X1250Y-3470D02*
X2350D01*
X1250Y-3450D02*
X2350D01*
X1250Y-3430D02*
X2350D01*
X1250Y-3410D02*
X2350D01*
X1250Y-3390D02*
X2350D01*
X1250Y-3370D02*
X2350D01*
X1250Y-3350D02*
X2350D01*
X1250Y-3330D02*
X2350D01*
X1250Y-3310D02*
X2350D01*
X1250Y-3290D02*
X2350D01*
X1250Y-3270D02*
X2350D01*
X1250Y-3250D02*
X2350D01*
X1250Y-3230D02*
X2350D01*
X1250Y-3210D02*
X2350D01*
X1250Y-3190D02*
X2350D01*
X1550Y-3925D02*
Y-3175D01*
X1570Y-3925D02*
Y-3175D01*
X1590Y-3925D02*
Y-3175D01*
X1610Y-3925D02*
Y-3175D01*
X1630Y-3925D02*
Y-3175D01*
X1650Y-3925D02*
Y-3175D01*
X1670Y-3925D02*
Y-3175D01*
X1690Y-3925D02*
Y-3175D01*
X1710Y-3925D02*
Y-3175D01*
X1730Y-3925D02*
Y-3175D01*
X1750Y-3925D02*
Y-3175D01*
X1770Y-3925D02*
Y-3175D01*
X1790Y-3925D02*
Y-3175D01*
X1810Y-3925D02*
Y-3175D01*
X1830Y-3925D02*
Y-3175D01*
X1850Y-3925D02*
Y-3175D01*
X1870Y-3925D02*
Y-3175D01*
X1890Y-3925D02*
Y-3175D01*
X1910Y-3925D02*
Y-3175D01*
X1930Y-3925D02*
Y-3175D01*
X1950Y-3925D02*
Y-3175D01*
X1970Y-3925D02*
Y-3175D01*
X1990Y-3925D02*
Y-3175D01*
X2010Y-3925D02*
Y-3175D01*
X2030Y-3925D02*
Y-3175D01*
X2050Y-3925D02*
Y-3175D01*
X2070Y-3925D02*
Y-3155D01*
X2090Y-3925D02*
Y-3135D01*
X2110Y-3925D02*
Y-3115D01*
X2130Y-3925D02*
Y-3095D01*
X2150Y-3925D02*
Y-3075D01*
X2170Y-3925D02*
Y-3055D01*
X2050Y-3175D02*
X2225Y-3000D01*
X2175Y-3925D02*
Y-3650D01*
X2350D01*
X2190D02*
Y-3035D01*
X2210Y-3650D02*
Y-3015D01*
X2230Y-3650D02*
Y-2940D01*
X2250Y-3650D02*
Y-2940D01*
X2225Y-3000D02*
Y-2940D01*
X2270Y-3650D02*
Y-2940D01*
X2290Y-3650D02*
Y-2940D01*
X2310Y-3650D02*
Y-2940D01*
X2330Y-3650D02*
Y-2940D01*
X2055Y-3170D02*
X2350D01*
X2075Y-3150D02*
X2350D01*
X2095Y-3130D02*
X2350D01*
X2115Y-3110D02*
X2350D01*
X2135Y-3090D02*
X2350D01*
X2155Y-3070D02*
X2350D01*
X2175Y-3050D02*
X2350D01*
X2195Y-3030D02*
X2350D01*
X2215Y-3010D02*
X2350D01*
X2225Y-2990D02*
X2350D01*
X2225Y-2970D02*
X2350D01*
Y-3650D02*
Y-2940D01*
X2350Y-3650D02*
Y-2940D01*
X2225Y-2950D02*
X2350D01*
X2225Y-2940D02*
X2350D01*
X3550Y-6600D02*
X3700Y-6750D01*
X3710D02*
Y-6550D01*
X3730Y-6750D02*
Y-6550D01*
X3750Y-6750D02*
Y-6550D01*
X3770Y-6750D02*
Y-6550D01*
X3790Y-6750D02*
Y-6550D01*
X3810Y-6750D02*
Y-6550D01*
X3630Y-6680D02*
Y-6550D01*
X3650Y-6700D02*
Y-6550D01*
X3670Y-6720D02*
Y-6550D01*
X3690Y-6740D02*
Y-6550D01*
X3620Y-6670D02*
X4511D01*
X3830Y-6750D02*
Y-6550D01*
X3850Y-6750D02*
Y-6550D01*
X3870Y-6750D02*
Y-6550D01*
X3890Y-6750D02*
Y-6550D01*
X3910Y-6750D02*
Y-6550D01*
X3930Y-6750D02*
Y-6550D01*
X3950Y-6750D02*
Y-6550D01*
X3970Y-6750D02*
Y-6550D01*
X3990Y-6750D02*
Y-6550D01*
X4010Y-6750D02*
Y-6550D01*
X4530Y-6750D02*
Y-6677D01*
X4550Y-6750D02*
Y-6680D01*
X4490Y-6750D02*
Y-6653D01*
X4510Y-6750D02*
Y-6669D01*
X4570Y-6750D02*
Y-6677D01*
X4590Y-6750D02*
Y-6669D01*
X4610Y-6750D02*
Y-6653D01*
X4630Y-6750D02*
Y-6602D01*
X4030Y-6750D02*
Y-6550D01*
X4050Y-6750D02*
Y-6550D01*
X4070Y-6750D02*
Y-6550D01*
X4090Y-6750D02*
Y-6550D01*
X4110Y-6750D02*
Y-6550D01*
X4130Y-6750D02*
Y-6550D01*
X4150Y-6750D02*
Y-6550D01*
X4170Y-6750D02*
Y-6550D01*
X4190Y-6750D02*
Y-6550D01*
X4210Y-6750D02*
Y-6550D01*
X4230Y-6750D02*
Y-6550D01*
X4250Y-6750D02*
Y-6550D01*
X4270Y-6750D02*
Y-6550D01*
X4290Y-6750D02*
Y-6550D01*
X4310Y-6750D02*
Y-6550D01*
X4330Y-6750D02*
Y-6550D01*
X4350Y-6750D02*
Y-6550D01*
X4370Y-6750D02*
Y-6550D01*
X4390Y-6750D02*
Y-6550D01*
X4410Y-6750D02*
Y-6550D01*
X4430Y-6750D02*
Y-6550D01*
X4450Y-6750D02*
Y-6550D01*
X4470Y-6750D02*
Y-6550D01*
X4650Y-6750D02*
Y-6550D01*
X4670Y-6750D02*
Y-6550D01*
X4690Y-6750D02*
Y-6550D01*
X4710Y-6750D02*
Y-6550D01*
X4730Y-6750D02*
Y-6550D01*
X4750Y-6750D02*
Y-6550D01*
X4770Y-6750D02*
Y-6550D01*
X4790Y-6750D02*
Y-6550D01*
X4810Y-6750D02*
Y-6550D01*
X3700Y-6750D02*
X5050D01*
X4830D02*
Y-6550D01*
X4850Y-6750D02*
Y-6550D01*
X4870Y-6750D02*
Y-6550D01*
X4890Y-6750D02*
Y-6550D01*
X4910Y-6750D02*
Y-6550D01*
X4930Y-6750D02*
Y-6550D01*
X4950Y-6750D02*
Y-6550D01*
X3660Y-6710D02*
X5600D01*
X3680Y-6730D02*
X5600D01*
X3640Y-6690D02*
X5600D01*
X4589Y-6670D02*
X6975D01*
X5250Y-6950D02*
X5600D01*
X5050Y-6750D02*
X5250Y-6950D01*
X5600D02*
Y-6675D01*
X5210Y-6910D02*
X5600D01*
X5230Y-6930D02*
X5600D01*
X5170Y-6870D02*
X5600D01*
X5190Y-6890D02*
X5600D01*
X5130Y-6830D02*
X5600D01*
X5150Y-6850D02*
X5600D01*
X4970Y-6750D02*
Y-6550D01*
X5110Y-6810D02*
X5600D01*
X5070Y-6770D02*
X5600D01*
X5090Y-6790D02*
X5600D01*
X5050Y-6750D02*
X5600D01*
Y-6675D02*
X6975D01*
X5150Y-6850D02*
Y-6550D01*
X5170Y-6870D02*
Y-6550D01*
X5190Y-6890D02*
Y-6550D01*
X5210Y-6910D02*
Y-6550D01*
X5230Y-6930D02*
Y-6550D01*
X5250Y-6950D02*
Y-6550D01*
X5270Y-6950D02*
Y-6550D01*
X4990Y-6750D02*
Y-6550D01*
X5010Y-6750D02*
Y-6550D01*
X5030Y-6750D02*
Y-6550D01*
X5050Y-6750D02*
Y-6550D01*
X5070Y-6770D02*
Y-6550D01*
X5090Y-6790D02*
Y-6550D01*
X5110Y-6810D02*
Y-6550D01*
X5130Y-6830D02*
Y-6550D01*
X5290Y-6950D02*
Y-6550D01*
X5310Y-6950D02*
Y-6550D01*
X5330Y-6950D02*
Y-6550D01*
X5350Y-6950D02*
Y-6550D01*
X5370Y-6950D02*
Y-6550D01*
X5390Y-6950D02*
Y-6550D01*
X5410Y-6950D02*
Y-6550D01*
X5430Y-6950D02*
Y-6550D01*
X5450Y-6950D02*
Y-6550D01*
X5470Y-6950D02*
Y-6550D01*
X5490Y-6950D02*
Y-6550D01*
X5510Y-6950D02*
Y-6550D01*
X5530Y-6950D02*
Y-6550D01*
X5550Y-6950D02*
Y-6550D01*
X5570Y-6950D02*
Y-6550D01*
X5590Y-6950D02*
Y-6550D01*
X3580Y-6630D02*
X4476D01*
X3590Y-6640D02*
Y-6550D01*
X3610Y-6660D02*
Y-6550D01*
X3600Y-6650D02*
X4488D01*
X5610Y-6675D02*
Y-6550D01*
X5630Y-6675D02*
Y-6550D01*
X5650Y-6675D02*
Y-6550D01*
X3550Y-6590D02*
X4471D01*
X3560Y-6610D02*
X4471D01*
X3550Y-6600D02*
Y-6550D01*
X3570Y-6620D02*
Y-6550D01*
X3550Y-6570D02*
X4476D01*
X3550Y-6550D02*
X4485D01*
X4630Y-6598D02*
Y-6550D01*
X5670Y-6675D02*
Y-6550D01*
X5690Y-6675D02*
Y-6550D01*
X5710Y-6675D02*
Y-6550D01*
X5730Y-6675D02*
Y-6550D01*
X5750Y-6675D02*
Y-6550D01*
X5770Y-6675D02*
Y-6550D01*
X5790Y-6675D02*
Y-6550D01*
X5810Y-6675D02*
Y-6550D01*
X5830Y-6675D02*
Y-6550D01*
X5850Y-6675D02*
Y-6550D01*
X5870Y-6675D02*
Y-6550D01*
X5890Y-6675D02*
Y-6550D01*
X5910Y-6675D02*
Y-6550D01*
X5930Y-6675D02*
Y-6550D01*
X5950Y-6675D02*
Y-6550D01*
X5970Y-6675D02*
Y-6550D01*
X5990Y-6675D02*
Y-6550D01*
X6010Y-6675D02*
Y-6550D01*
X6030Y-6675D02*
Y-6550D01*
X6050Y-6675D02*
Y-6550D01*
X6070Y-6675D02*
Y-6550D01*
X6090Y-6675D02*
Y-6550D01*
X6110Y-6675D02*
Y-6550D01*
X6130Y-6675D02*
Y-6550D01*
X6150Y-6675D02*
Y-6550D01*
X6170Y-6675D02*
Y-6550D01*
X6190Y-6675D02*
Y-6550D01*
X6210Y-6675D02*
Y-6550D01*
X6230Y-6675D02*
Y-6550D01*
X6250Y-6675D02*
Y-6550D01*
X6270Y-6675D02*
Y-6550D01*
X6290Y-6675D02*
Y-6550D01*
X6310Y-6675D02*
Y-6550D01*
X6330Y-6675D02*
Y-6550D01*
X6350Y-6675D02*
Y-6550D01*
X6370Y-6675D02*
Y-6550D01*
X6390Y-6675D02*
Y-6550D01*
X6410Y-6675D02*
Y-6550D01*
X6430Y-6675D02*
Y-6550D01*
X6450Y-6675D02*
Y-6550D01*
X6470Y-6675D02*
Y-6550D01*
X6490Y-6675D02*
Y-6550D01*
X6510Y-6675D02*
Y-6550D01*
X6530Y-6675D02*
Y-6550D01*
X6550Y-6675D02*
Y-6550D01*
X6570Y-6675D02*
Y-6550D01*
X6590Y-6675D02*
Y-6550D01*
X6610Y-6675D02*
Y-6550D01*
X6630Y-6675D02*
Y-6550D01*
X6650Y-6675D02*
Y-6550D01*
X6670Y-6675D02*
Y-6550D01*
X6690Y-6675D02*
Y-6550D01*
X4612Y-6650D02*
X6975D01*
X6710Y-6675D02*
Y-6550D01*
X6730Y-6675D02*
Y-6550D01*
X6750Y-6675D02*
Y-6550D01*
X4624Y-6630D02*
X9200D01*
X4629Y-6610D02*
X9200D01*
X4624Y-6570D02*
X9200D01*
X4629Y-6590D02*
X9200D01*
X6770Y-6675D02*
Y-6550D01*
X6790Y-6675D02*
Y-6550D01*
X6810Y-6675D02*
Y-6550D01*
X6830Y-6675D02*
Y-6550D01*
X6850Y-6675D02*
Y-6550D01*
X6870Y-6675D02*
Y-6550D01*
X6890Y-6675D02*
Y-6550D01*
X6910Y-6675D02*
Y-6550D01*
X6975Y-6675D02*
Y-6650D01*
X6930Y-6675D02*
Y-6550D01*
X6950Y-6675D02*
Y-6550D01*
X6975Y-6650D02*
X7122D01*
X7150Y-6645D02*
X7775D01*
X6970Y-6675D02*
Y-6550D01*
X6990Y-6650D02*
Y-6550D01*
X7010Y-6650D02*
Y-6550D01*
X7030Y-6650D02*
Y-6550D01*
X7050Y-6650D02*
Y-6550D01*
X7070Y-6650D02*
Y-6550D01*
X7090Y-6650D02*
Y-6550D01*
X7110Y-6650D02*
Y-6550D01*
X7130Y-6648D02*
Y-6550D01*
X7150Y-6645D02*
Y-6550D01*
X7170Y-6645D02*
Y-6550D01*
X7190Y-6645D02*
Y-6550D01*
X7210Y-6645D02*
Y-6550D01*
X4615D02*
X8875D01*
X7230Y-6645D02*
Y-6550D01*
X7250Y-6645D02*
Y-6550D01*
X7270Y-6645D02*
Y-6550D01*
X7290Y-6645D02*
Y-6550D01*
X7310Y-6645D02*
Y-6550D01*
X7330Y-6645D02*
Y-6550D01*
X7350Y-6645D02*
Y-6550D01*
X7370Y-6645D02*
Y-6550D01*
X7390Y-6645D02*
Y-6550D01*
X7410Y-6645D02*
Y-6550D01*
X7430Y-6645D02*
Y-6550D01*
X7450Y-6645D02*
Y-6550D01*
X7470Y-6645D02*
Y-6550D01*
X7490Y-6645D02*
Y-6550D01*
X7510Y-6645D02*
Y-6550D01*
X7530Y-6645D02*
Y-6550D01*
X7550Y-6645D02*
Y-6550D01*
X7570Y-6645D02*
Y-6550D01*
X7590Y-6645D02*
Y-6550D01*
X7610Y-6645D02*
Y-6550D01*
X7630Y-6645D02*
Y-6550D01*
X7650Y-6645D02*
Y-6550D01*
X7670Y-6645D02*
Y-6550D01*
X7690Y-6645D02*
Y-6550D01*
X7710Y-6645D02*
Y-6550D01*
X7730Y-6645D02*
Y-6550D01*
X7750Y-6645D02*
Y-6550D01*
X7770Y-6645D02*
Y-6550D01*
X7790Y-6646D02*
Y-6550D01*
X7810Y-6650D02*
Y-6550D01*
X7830Y-6650D02*
Y-6550D01*
X7850Y-6650D02*
Y-6550D01*
X7870Y-6650D02*
Y-6550D01*
X7890Y-6650D02*
Y-6550D01*
X7910Y-6650D02*
Y-6550D01*
X7930Y-6650D02*
Y-6550D01*
X7950Y-6650D02*
Y-6550D01*
X7970Y-6650D02*
Y-6550D01*
X7990Y-6650D02*
Y-6550D01*
X8010Y-6650D02*
Y-6550D01*
X8030Y-6650D02*
Y-6550D01*
X8050Y-6650D02*
Y-6550D01*
X8070Y-6650D02*
Y-6550D01*
X8090Y-6650D02*
Y-6550D01*
X8110Y-6650D02*
Y-6550D01*
X8130Y-6650D02*
Y-6550D01*
X8150Y-6650D02*
Y-6550D01*
X8170Y-6650D02*
Y-6550D01*
X8190Y-6650D02*
Y-6550D01*
X8210Y-6650D02*
Y-6550D01*
X8230Y-6650D02*
Y-6550D01*
X8250Y-6650D02*
Y-6550D01*
X8270Y-6650D02*
Y-6550D01*
X8290Y-6650D02*
Y-6550D01*
X8310Y-6650D02*
Y-6550D01*
X8330Y-6650D02*
Y-6550D01*
X8350Y-6650D02*
Y-6550D01*
X8370Y-6650D02*
Y-6550D01*
X8390Y-6650D02*
Y-6550D01*
X8410Y-6650D02*
Y-6550D01*
X8430Y-6650D02*
Y-6550D01*
X8450Y-6650D02*
Y-6550D01*
X8470Y-6650D02*
Y-6550D01*
X8490Y-6650D02*
Y-6550D01*
X8510Y-6650D02*
Y-6550D01*
X8530Y-6650D02*
Y-6550D01*
X8550Y-6650D02*
Y-6550D01*
X8570Y-6650D02*
Y-6550D01*
X8590Y-6650D02*
Y-6550D01*
X8610Y-6650D02*
Y-6550D01*
X8630Y-6650D02*
Y-6550D01*
X8650Y-6650D02*
Y-6550D01*
X8670Y-6650D02*
Y-6550D01*
X8690Y-6650D02*
Y-6550D01*
X8710Y-6650D02*
Y-6550D01*
X8730Y-6650D02*
Y-6550D01*
X8750Y-6650D02*
Y-6550D01*
X8770Y-6650D02*
Y-6550D01*
X7803Y-6650D02*
X9200D01*
X8790D02*
Y-6550D01*
X8810Y-6650D02*
Y-6550D01*
X8830Y-6650D02*
Y-6550D01*
X8850Y-6650D02*
Y-6550D01*
X8870Y-6650D02*
Y-6550D01*
X8875Y-6470D02*
X8896D01*
X8910Y-6650D02*
Y-6487D01*
X8875Y-6530D02*
X9200D01*
X8875Y-6510D02*
X8941D01*
X8875Y-6490D02*
X8913D01*
X8930Y-6650D02*
Y-6504D01*
X8970Y-6650D02*
Y-6521D01*
X8950Y-6650D02*
Y-6515D01*
X8990Y-6650D02*
Y-6525D01*
X9010Y-6650D02*
Y-6525D01*
X9030Y-6650D02*
Y-6521D01*
X9050Y-6650D02*
Y-6515D01*
X9070Y-6650D02*
Y-6504D01*
X9087Y-6490D02*
X9167D01*
X9090Y-6650D02*
Y-6487D01*
X9104Y-6470D02*
X9150D01*
X9150Y-6650D02*
Y-6469D01*
X9190Y-6650D02*
Y-6507D01*
X9200Y-6650D02*
Y-6513D01*
X9059Y-6510D02*
X9195D01*
X9170Y-6650D02*
Y-6493D01*
X8890Y-6650D02*
Y-6459D01*
X8875Y-6450D02*
X8885D01*
X8875Y-6550D02*
Y-5500D01*
Y-6350D02*
X8885D01*
X8875Y-6330D02*
X8896D01*
X8890Y-6341D02*
Y-5500D01*
X8875Y-6310D02*
X8913D01*
X8875Y-6290D02*
X8941D01*
X8910Y-6313D02*
Y-5500D01*
X8930Y-6296D02*
Y-5500D01*
X8950Y-6285D02*
Y-5500D01*
X9059Y-6290D02*
X9195D01*
X9050Y-6285D02*
Y-5500D01*
X9070Y-6296D02*
Y-5500D01*
X9110Y-6650D02*
Y-6459D01*
X9121Y-6430D02*
X9133D01*
X9130Y-6650D02*
Y-6416D01*
Y-6384D02*
Y-5500D01*
X9115Y-6450D02*
X9139D01*
X9121Y-6370D02*
X9133D01*
X9115Y-6350D02*
X9139D01*
X9090Y-6313D02*
Y-5500D01*
X9104Y-6330D02*
X9150D01*
X9110Y-6341D02*
Y-5500D01*
X9150Y-6331D02*
Y-5500D01*
X9087Y-6310D02*
X9167D01*
X9200Y-6287D02*
Y-5975D01*
X9170Y-6307D02*
Y-5500D01*
X9190Y-6293D02*
Y-5500D01*
X8875Y-6270D02*
X9200D01*
X8875Y-6250D02*
X9200D01*
X8875Y-6230D02*
X9200D01*
X8875Y-6210D02*
X9200D01*
X8875Y-6190D02*
X9200D01*
X8875Y-6170D02*
X9200D01*
X8875Y-6150D02*
X9200D01*
X8875Y-6130D02*
X9200D01*
X8875Y-6110D02*
X9200D01*
X8875Y-6090D02*
X9200D01*
X8875Y-6070D02*
X9200D01*
X8875Y-6050D02*
X9200D01*
X8875Y-6030D02*
X9200D01*
X8875Y-6010D02*
X9200D01*
X8875Y-5990D02*
X9200D01*
X8970Y-6279D02*
Y-5500D01*
X8990Y-6275D02*
Y-5500D01*
X9010Y-6275D02*
Y-5500D01*
X9030Y-6279D02*
Y-5500D01*
X9210Y-5975D02*
Y-5500D01*
X9230Y-5975D02*
Y-5500D01*
X9250Y-5975D02*
Y-5500D01*
X9270Y-5975D02*
Y-5500D01*
X9290Y-5975D02*
Y-5500D01*
X9310Y-5975D02*
Y-5500D01*
X9330Y-5975D02*
Y-5500D01*
X9350Y-5975D02*
Y-5500D01*
X9370Y-5975D02*
Y-5500D01*
X9390Y-5975D02*
Y-5500D01*
X9410Y-5975D02*
Y-5500D01*
X9430Y-5975D02*
Y-5500D01*
X9450Y-5975D02*
Y-5500D01*
X9470Y-5975D02*
Y-5500D01*
X9490Y-5975D02*
Y-5500D01*
X9510Y-5975D02*
Y-5500D01*
X9530Y-5975D02*
Y-5500D01*
X9550Y-5975D02*
Y-5500D01*
X9570Y-5975D02*
Y-5500D01*
X9590Y-5975D02*
Y-5500D01*
X9610Y-5975D02*
Y-5500D01*
X9630Y-5975D02*
Y-5500D01*
X9650Y-5975D02*
Y-5500D01*
X9670Y-5975D02*
Y-5500D01*
X9690Y-5975D02*
Y-5500D01*
X9710Y-5975D02*
Y-5500D01*
X9730Y-5975D02*
Y-5500D01*
X9750Y-5975D02*
Y-5500D01*
X9770Y-5975D02*
Y-5500D01*
X9790Y-5975D02*
Y-5500D01*
X9810Y-5975D02*
Y-5500D01*
X9830Y-5975D02*
Y-5500D01*
X9850Y-5975D02*
Y-5500D01*
X9870Y-5975D02*
Y-5500D01*
X9890Y-5975D02*
Y-5500D01*
X9910Y-5975D02*
Y-5500D01*
X9930Y-5975D02*
Y-5500D01*
X9950Y-5975D02*
Y-5500D01*
X9970Y-5975D02*
Y-5500D01*
X9990Y-5975D02*
Y-5500D01*
X10010Y-5975D02*
Y-5500D01*
X10030Y-5975D02*
Y-5500D01*
X8875Y-5970D02*
X10710D01*
X8875Y-5950D02*
X10710D01*
X8875Y-5930D02*
X10710D01*
X8875Y-5910D02*
X10710D01*
X8875Y-5890D02*
X10710D01*
X8875Y-5870D02*
X10710D01*
X8875Y-5850D02*
X10710D01*
X8875Y-5830D02*
X10710D01*
X8875Y-5810D02*
X10710D01*
X8875Y-5790D02*
X10710D01*
X8875Y-5770D02*
X10710D01*
X8875Y-5750D02*
X10710D01*
X8875Y-5730D02*
X10710D01*
X8875Y-5710D02*
X10710D01*
X8875Y-5690D02*
X10710D01*
X10050Y-5975D02*
Y-5500D01*
X10070Y-5975D02*
Y-5500D01*
X10090Y-5975D02*
Y-5500D01*
X9200Y-5975D02*
X10600D01*
X10710D01*
X8875Y-5670D02*
X10710D01*
X10110Y-5975D02*
Y-5500D01*
X8875Y-5650D02*
X10710D01*
X8875Y-5630D02*
X10710D01*
X8875Y-5610D02*
X10710D01*
X8875Y-5590D02*
X10710D01*
X8875Y-5570D02*
X10710D01*
X8875Y-5550D02*
X10710D01*
X8875Y-5530D02*
X10710D01*
X8875Y-5510D02*
X10710D01*
X10130Y-5975D02*
Y-5500D01*
X10150Y-5975D02*
Y-5500D01*
X10170Y-5975D02*
Y-5500D01*
X10190Y-5975D02*
Y-5500D01*
X10210Y-5975D02*
Y-5500D01*
X10230Y-5975D02*
Y-5500D01*
X10250Y-5975D02*
Y-5500D01*
X10270Y-5975D02*
Y-5500D01*
X10290Y-5975D02*
Y-5500D01*
X10310Y-5975D02*
Y-5500D01*
X10330Y-5975D02*
Y-5500D01*
X10350Y-5975D02*
Y-5500D01*
X10370Y-5975D02*
Y-5500D01*
X8875D02*
X10710D01*
X10390Y-5975D02*
Y-5500D01*
X10410Y-5975D02*
Y-5500D01*
X10430Y-5975D02*
Y-5500D01*
X10450Y-5975D02*
Y-5500D01*
X10470Y-5975D02*
Y-5500D01*
X10490Y-5975D02*
Y-5500D01*
X10510Y-5975D02*
Y-5500D01*
X10530Y-5975D02*
Y-5500D01*
X10550Y-5975D02*
Y-5500D01*
X10570Y-5975D02*
Y-5500D01*
X10590Y-5975D02*
Y-5500D01*
X10610Y-5975D02*
Y-5500D01*
X10630Y-5975D02*
Y-5500D01*
X10650Y-5975D02*
Y-5500D01*
X10670Y-5975D02*
Y-5500D01*
X10690Y-5975D02*
Y-5500D01*
X10710Y-5975D02*
Y-5500D01*
D11*
X15275Y-1995D02*
D03*
X15025D02*
D03*
X15279Y-1375D02*
D03*
X14850Y-1995D02*
D03*
X14600D02*
D03*
X14854Y-1375D02*
D03*
X14425Y-1995D02*
D03*
X14175D02*
D03*
X14429Y-1375D02*
D03*
X14000Y-1995D02*
D03*
X13750D02*
D03*
X14004Y-1375D02*
D03*
X13575Y-1995D02*
D03*
X13325D02*
D03*
X13579Y-1375D02*
D03*
X13150Y-1995D02*
D03*
X12900D02*
D03*
X13154Y-1375D02*
D03*
X12725Y-1995D02*
D03*
X12475D02*
D03*
X12729Y-1375D02*
D03*
X12300Y-1995D02*
D03*
X12050D02*
D03*
X12304Y-1375D02*
D03*
D12*
X15025D02*
D03*
X14600D02*
D03*
X14175D02*
D03*
X13750D02*
D03*
X13325D02*
D03*
X12900D02*
D03*
X12475D02*
D03*
X12050D02*
D03*
D16*
X1750Y-2830D02*
D03*
Y-2640D02*
D03*
X2025Y-2635D02*
D03*
Y-2825D02*
D03*
X2300Y-2635D02*
D03*
Y-2825D02*
D03*
D19*
X9650Y-1375D02*
D03*
X9050Y-1950D02*
D03*
X8725Y-1375D02*
D03*
X8125Y-1950D02*
D03*
X7800Y-1375D02*
D03*
X7200Y-1950D02*
D03*
X6875Y-1375D02*
D03*
X6275Y-1950D02*
D03*
X5600Y-1350D02*
D03*
X4725D02*
D03*
X3850D02*
D03*
X2975D02*
D03*
X2575Y-1825D02*
D03*
X2100Y-1350D02*
D03*
D20*
X9030Y-1625D02*
D03*
Y-1375D02*
D03*
X9650Y-1629D02*
D03*
X8430Y-2200D02*
D03*
Y-1950D02*
D03*
X9050Y-2204D02*
D03*
X8105Y-1625D02*
D03*
Y-1375D02*
D03*
X8725Y-1629D02*
D03*
X7505Y-2200D02*
D03*
Y-1950D02*
D03*
X8125Y-2204D02*
D03*
X7180Y-1625D02*
D03*
Y-1375D02*
D03*
X7800Y-1629D02*
D03*
X6580Y-2200D02*
D03*
Y-1950D02*
D03*
X7200Y-2204D02*
D03*
X6255Y-1625D02*
D03*
Y-1375D02*
D03*
X6875Y-1629D02*
D03*
X5655Y-2200D02*
D03*
Y-1950D02*
D03*
X6275Y-2204D02*
D03*
X4980Y-1600D02*
D03*
Y-1350D02*
D03*
X5600Y-1604D02*
D03*
X4105Y-1600D02*
D03*
Y-1350D02*
D03*
X4725Y-1604D02*
D03*
X3230Y-1600D02*
D03*
Y-1350D02*
D03*
X3850Y-1604D02*
D03*
X2355Y-1600D02*
D03*
Y-1350D02*
D03*
X2975Y-1604D02*
D03*
X1955Y-2075D02*
D03*
Y-1825D02*
D03*
X2575Y-2079D02*
D03*
X1480Y-1600D02*
D03*
Y-1350D02*
D03*
X2100Y-1604D02*
D03*
D21*
X9210Y-7350D02*
D03*
X9400D02*
D03*
X8710D02*
D03*
X8900D02*
D03*
X8210D02*
D03*
X8400D02*
D03*
X7710D02*
D03*
X7900D02*
D03*
X7210D02*
D03*
X7400D02*
D03*
X6710D02*
D03*
X6900D02*
D03*
X6210D02*
D03*
X6400D02*
D03*
X5710D02*
D03*
X5900D02*
D03*
X3960D02*
D03*
X4150D02*
D03*
X3460D02*
D03*
X3650D02*
D03*
X2960D02*
D03*
X3150D02*
D03*
X2460D02*
D03*
X2650D02*
D03*
X1960D02*
D03*
X2150D02*
D03*
X1460D02*
D03*
X1650D02*
D03*
X460D02*
D03*
X650D02*
D03*
X960D02*
D03*
X1150D02*
D03*
X3460Y-7100D02*
D03*
X3650D02*
D03*
X3960D02*
D03*
X4150D02*
D03*
X4485D02*
D03*
X4675D02*
D03*
X5710D02*
D03*
X5900D02*
D03*
X6210D02*
D03*
X6400D02*
D03*
X6710D02*
D03*
X6900D02*
D03*
D30*
X9800Y-8175D02*
X9945D01*
X9800Y-8320D02*
Y-8175D01*
X4550Y-8320D02*
Y-8175D01*
X10930Y-1125D02*
Y-1025D01*
X10847Y-1125D02*
X10930D01*
X10983Y-1846D02*
X11078D01*
Y-1941D02*
Y-1846D01*
Y-2100D02*
Y-2005D01*
X10983Y-2100D02*
X11078D01*
X10824Y-1846D02*
X10919D01*
X10824Y-1941D02*
Y-1846D01*
Y-2100D02*
X10919D01*
X10824D02*
Y-2005D01*
X10115Y-4054D02*
X10250D01*
X10385D01*
X12028Y-4329D02*
Y-4054D01*
X11753D02*
X12028D01*
Y-3779D01*
Y-4054D02*
X12303D01*
X1275Y-3130D02*
Y-3025D01*
X2300Y-2930D02*
Y-2825D01*
X1275Y-3130D02*
Y-3025D01*
X1170D02*
X1275D01*
Y-2920D01*
X1170Y-2450D02*
X1275D01*
X1110Y-1225D02*
X1250D01*
X1275Y-2555D02*
Y-2450D01*
Y-2345D01*
X1250Y-1365D02*
Y-1225D01*
X1050Y-665D02*
Y-500D01*
X885D02*
X1050D01*
Y-335D01*
X1585Y-2250D02*
X1700D01*
Y-2135D01*
X1350Y-1600D02*
X1480D01*
Y-1690D02*
Y-1600D01*
D32*
X575Y-4925D02*
Y-3350D01*
X2150Y-6825D02*
X2275D01*
X1325Y-6000D02*
X2150Y-6825D01*
X1700Y-3975D02*
X2865D01*
X1275Y-3550D02*
X1312Y-3588D01*
X4850Y-8475D02*
X9625D01*
X4550Y-8175D02*
X4850Y-8475D01*
X850Y-6000D02*
X1325D01*
X350Y-5500D02*
X850Y-6000D01*
X350Y-5400D02*
Y-5150D01*
X350Y-5500D02*
Y-5400D01*
X1275Y-2300D02*
X1325Y-2250D01*
X1000Y-2175D02*
Y-1475D01*
X225Y-825D02*
X550Y-500D01*
X225Y-3000D02*
Y-825D01*
Y-3000D02*
X550Y-3325D01*
X575Y-3350D01*
X350Y-5150D02*
X575Y-4925D01*
X9625Y-8475D02*
X9800Y-8300D01*
Y-8175D01*
X4250Y-8475D02*
X4550Y-8175D01*
X825Y-8475D02*
X4250D01*
X14875Y-200D02*
X15050Y-375D01*
X9800Y-475D02*
X10075Y-200D01*
X9525D02*
X9800Y-475D01*
X15050Y-500D02*
Y-375D01*
X1000Y-1475D02*
X1250Y-1225D01*
X1050Y-1025D02*
Y-500D01*
Y-1025D02*
X1250Y-1225D01*
X8605Y-3425D02*
X8830Y-3650D01*
X3875Y-3425D02*
X8605D01*
X3412Y-2962D02*
X3875Y-3425D01*
X3412Y-2962D02*
Y-2800D01*
X1312Y-3588D02*
X1427Y-3702D01*
X1325Y-2250D02*
X1700D01*
X1536Y-3811D02*
X1700Y-3975D01*
X2865D02*
X2907Y-3933D01*
X1427Y-3702D02*
X1536Y-3811D01*
X2907Y-3933D02*
X3070Y-3770D01*
X7905D02*
X7985Y-3690D01*
X3070Y-3770D02*
X7905D01*
X10075Y-200D02*
X14875D01*
X4550Y-500D02*
X4850Y-200D01*
X9525D01*
D33*
X9793Y-7393D02*
X10000Y-7600D01*
X9600Y-7200D02*
X9793Y-7393D01*
X9210Y-7350D02*
Y-7240D01*
X10000Y-7600D02*
X10650D01*
X9975Y-7375D02*
X10650D01*
X8710Y-7350D02*
Y-7190D01*
X9650Y-7050D02*
X9975Y-7375D01*
X8850Y-7050D02*
X9650D01*
X8710Y-7190D02*
X8850Y-7050D01*
X15225Y-4875D02*
X15350Y-5000D01*
Y-6150D02*
Y-5000D01*
X15175Y-4875D02*
X15225D01*
X15225Y-5950D02*
Y-5075D01*
X15025Y-6150D02*
X15225Y-5950D01*
X2475Y-6450D02*
Y-6250D01*
X2875Y-5850D01*
X3135Y-7025D02*
X3349Y-7239D01*
X2375Y-6125D02*
X2625Y-5875D01*
X2925Y-7025D02*
X3135D01*
X3349Y-7239D02*
X3460Y-7350D01*
X2375Y-6475D02*
X2925Y-7025D01*
X2375Y-6475D02*
Y-6125D01*
X2960Y-7350D02*
Y-7160D01*
X2950Y-7350D02*
X2960D01*
X2300Y-5950D02*
X2375Y-5875D01*
X2300Y-6500D02*
X2960Y-7160D01*
X2300Y-6500D02*
Y-5950D01*
X2455Y-7355D02*
Y-6755D01*
X1950Y-6250D02*
Y-5875D01*
Y-6250D02*
X2455Y-6755D01*
X5325Y-4375D02*
X6650D01*
X3800Y-5900D02*
X5325Y-4375D01*
X5725Y-4475D02*
X7200D01*
X4050Y-6150D02*
X5725Y-4475D01*
X7250Y-4825D02*
X7625Y-4450D01*
X4550Y-6225D02*
X5950Y-4825D01*
X4550Y-6600D02*
Y-6225D01*
X5950Y-4825D02*
X7250D01*
X13150Y-6675D02*
X14450Y-7975D01*
X11286Y-6400D02*
X11561Y-6675D01*
X14324Y-8325D02*
X14450Y-8199D01*
X11561Y-6675D02*
X13150D01*
X13125Y-6750D02*
X13950Y-7575D01*
X11382Y-6750D02*
X13125D01*
X13950Y-8205D02*
X14070Y-8325D01*
X11032Y-6400D02*
X11382Y-6750D01*
X14450Y-8199D02*
Y-7975D01*
X13950Y-8205D02*
Y-7575D01*
X11203Y-6825D02*
X13100D01*
X10728Y-6604D02*
X11024Y-6900D01*
X13075D01*
X10300Y-6575D02*
X10400Y-6475D01*
X10016Y-6491D02*
Y-6400D01*
X11365Y-6225D02*
X11540Y-6400D01*
X10400Y-6475D02*
Y-6325D01*
X9762Y-6400D02*
X10016D01*
X10100Y-6575D02*
X10300D01*
X10016Y-6491D02*
X10100Y-6575D01*
X10500Y-6650D02*
X10875Y-7025D01*
X9508Y-6558D02*
Y-6400D01*
X10450Y-6725D02*
X10674Y-6949D01*
X10850Y-7125D01*
X9675Y-6725D02*
X10450D01*
X9508Y-6558D02*
X9675Y-6725D01*
X11250Y-7025D02*
X11581Y-7356D01*
X10875Y-7025D02*
X11250D01*
X11175Y-7125D02*
X11454Y-7404D01*
X10850Y-7125D02*
X11175D01*
X11454Y-7450D02*
Y-7404D01*
X12028Y-5472D02*
Y-4054D01*
X11525Y-5975D02*
X12028Y-5472D01*
X3400Y-6800D02*
X3650Y-7050D01*
X8050Y-7300D02*
X8160D01*
X7250Y-7310D02*
Y-6850D01*
X6075Y-7600D02*
X6185D01*
X3250Y-4400D02*
X3925D01*
X4350Y-3975D01*
X3150Y-5300D02*
Y-4500D01*
X4025Y-4500D02*
X4425Y-4100D01*
X3525Y-1425D02*
Y-1375D01*
X3230Y-1350D02*
X3500D01*
X1725D02*
X1800Y-1275D01*
X1480Y-1350D02*
X1725D01*
X4105D02*
X4200D01*
X8600Y-1950D02*
X8675Y-2025D01*
X8430Y-1950D02*
X8600D01*
X5825Y-1875D02*
X5875Y-1925D01*
X5655Y-1950D02*
X5730Y-1875D01*
X14700Y-8203D02*
Y-7250D01*
X10375Y-6150D02*
X13600D01*
X14578Y-8325D02*
X14700Y-8203D01*
X10270Y-6400D02*
Y-6255D01*
X13600Y-6150D02*
X14700Y-7250D01*
X12028Y-4054D02*
X12049Y-4075D01*
X9250Y-7200D02*
X9600D01*
X9210Y-7240D02*
X9250Y-7200D01*
X6900Y-7100D02*
X7010Y-7210D01*
Y-7490D02*
Y-7210D01*
X7210Y-7350D02*
X7250Y-7310D01*
X7205Y-7355D02*
Y-7350D01*
X7210D01*
X9150Y-5975D02*
X11525D01*
X8875Y-6500D02*
Y-6250D01*
X8775Y-6600D02*
X8875Y-6500D01*
X7050Y-6600D02*
X8775D01*
X5925Y-7100D02*
X6050Y-7225D01*
X5900Y-7100D02*
X5925D01*
X6618Y-7257D02*
X6710Y-7350D01*
X3650Y-7100D02*
Y-7050D01*
X2625Y-6600D02*
X3400D01*
X3825Y-7025D01*
X3160Y-6800D02*
X3460Y-7100D01*
X3000Y-6800D02*
X3160D01*
X4200Y-7100D02*
X4300Y-7200D01*
X4150Y-7100D02*
X4200D01*
X1300Y-6690D02*
X1960Y-7350D01*
X1300Y-6690D02*
Y-6300D01*
X9155Y-1125D02*
X9300D01*
X8580D02*
X8700D01*
X8005D02*
X8125D01*
X7430D02*
X7550D01*
X6830D02*
X6950D01*
X2000Y-1250D02*
Y-1125D01*
Y-1250D02*
X2100Y-1350D01*
X5855Y-1300D02*
X6080D01*
X9554Y-2100D02*
Y-1846D01*
X10824D02*
X11078D01*
X10824Y-2100D02*
X11078D01*
X10824D02*
Y-1846D01*
X8200Y-2375D02*
X8492Y-2667D01*
X7680Y-2375D02*
X8200D01*
X11540Y-6400D02*
Y-6340D01*
X10400Y-6325D02*
X10500Y-6225D01*
X11365D01*
X10270Y-6255D02*
X10375Y-6150D01*
X8875Y-6250D02*
X9150Y-5975D01*
X12375Y-1825D02*
X12650D01*
X12725Y-1900D01*
X14100Y-1825D02*
X14325D01*
X14425Y-1925D01*
Y-1995D02*
Y-1925D01*
Y-1995D02*
Y-1875D01*
X14475Y-1825D01*
X14750D01*
X14850Y-1925D01*
Y-1995D02*
Y-1925D01*
Y-1995D02*
Y-1925D01*
X14950Y-1825D01*
X15105D01*
X3666Y-5334D02*
X3675Y-5325D01*
X3666Y-6400D02*
Y-5334D01*
X14425Y-4650D02*
X14475Y-4700D01*
X13650Y-4525D02*
X13775Y-4650D01*
X14425D01*
X13125Y-4525D02*
X13650D01*
X12850Y-4250D02*
X13125Y-4525D01*
X12900Y-5600D02*
X13150Y-5850D01*
X13950D01*
X14575Y-6475D02*
X15025D01*
X13950Y-5850D02*
X14575Y-6475D01*
X12900Y-5225D02*
X12925Y-5200D01*
X12900Y-5600D02*
Y-5225D01*
X1480Y-1600D02*
X1825D01*
X2230Y-1475D02*
X2355Y-1600D01*
X1955Y-2075D02*
Y-2055D01*
X2875Y-2150D02*
Y-2100D01*
X2450Y-2425D02*
X2625Y-2600D01*
X2875Y-2150D02*
X3050Y-2325D01*
Y-2475D02*
Y-2325D01*
X2925Y-2600D02*
X3050Y-2475D01*
X2625Y-2600D02*
X2925D01*
X2475Y-6450D02*
X2625Y-6600D01*
X3150Y-4500D02*
X3250Y-4400D01*
X1450Y-5150D02*
X1625Y-4975D01*
X500Y-6725D02*
X960Y-7185D01*
X500Y-6725D02*
Y-6325D01*
X960Y-7350D02*
Y-7185D01*
X825Y-6625D02*
X1460Y-7260D01*
X825Y-6625D02*
Y-6325D01*
X1460Y-7350D02*
Y-7260D01*
X5425Y-7925D02*
X5710Y-7640D01*
Y-7350D01*
X4675Y-7100D02*
X4700Y-7125D01*
Y-7250D02*
Y-7125D01*
X6185Y-7600D02*
X6205Y-7580D01*
X8160Y-7300D02*
X8210Y-7350D01*
X6400Y-7125D02*
X6575Y-7300D01*
Y-7600D02*
Y-7300D01*
X6400Y-7125D02*
Y-7100D01*
X3650Y-6675D02*
X5100D01*
X13450Y-2150D02*
X13675D01*
X13750Y-2075D01*
Y-1995D01*
X13175Y-2425D02*
X13411Y-2189D01*
X13450Y-2150D01*
X9762Y-2800D02*
X10137Y-2425D01*
X13175D01*
X15025Y-1375D02*
X15275Y-1125D01*
X15300D01*
X14600Y-1375D02*
X14725Y-1250D01*
Y-1125D01*
X14150Y-1350D02*
X14175Y-1375D01*
X14150Y-1350D02*
Y-1125D01*
X13575Y-1150D02*
X13750Y-1325D01*
X13575Y-1150D02*
Y-1125D01*
X13750Y-1375D02*
Y-1325D01*
X11425Y-850D02*
X11450D01*
X15050Y-1125D02*
X15125Y-1050D01*
Y-575D01*
X14955Y-1125D02*
X15050D01*
Y-500D02*
X15125Y-575D01*
X14475Y-1125D02*
X14575Y-1025D01*
Y-725D01*
X14525Y-675D02*
X14575Y-725D01*
X14400Y-675D02*
X14525D01*
X14300Y-575D02*
X14400Y-675D01*
X13925Y-1125D02*
X14025Y-1025D01*
Y-725D01*
X13800Y-500D02*
X14025Y-725D01*
X13800Y-500D02*
Y-225D01*
X13325Y-1125D02*
X13475Y-975D01*
Y-700D01*
X13300Y-525D02*
X13475Y-700D01*
X11055Y-1250D02*
X11380D01*
X9650Y-1375D02*
X9825D01*
X10075Y-1125D01*
X8725Y-1375D02*
X8925Y-1175D01*
Y-1100D01*
X7800Y-1375D02*
Y-1150D01*
X7775Y-1125D02*
X7800Y-1150D01*
X8125Y-1950D02*
X8350Y-1725D01*
Y-1125D01*
X7400Y-1750D02*
Y-1350D01*
X7200Y-1950D02*
X7400Y-1750D01*
X7175Y-1125D02*
X7400Y-1350D01*
X3138Y-1112D02*
X3150Y-1100D01*
X5250Y-1125D02*
X5475Y-1350D01*
X4875Y-1125D02*
X5250D01*
X5475Y-1350D02*
X5600D01*
X4300Y-1275D02*
X4375Y-1350D01*
X4300Y-1275D02*
Y-1125D01*
X4375Y-1350D02*
X4725D01*
X3725Y-1225D02*
Y-1125D01*
Y-1225D02*
X3850Y-1350D01*
X2975D02*
Y-1300D01*
X3150Y-1125D01*
X2575Y-2050D02*
X2775Y-1850D01*
X2575Y-2079D02*
X2646D01*
X2575D02*
Y-2050D01*
X2775Y-1850D02*
X2875D01*
Y-1846D01*
X2675Y-2200D02*
X2725Y-2150D01*
X2475Y-2200D02*
X2675D01*
X2250Y-1975D02*
X2475Y-2200D01*
X2250Y-1975D02*
Y-1754D01*
X3075Y-1975D02*
X3258D01*
X3000Y-1900D02*
X3075Y-1975D01*
X3000Y-1900D02*
Y-1629D01*
X2975Y-1604D02*
X3000Y-1629D01*
X3258Y-1975D02*
X3383Y-2100D01*
X7771Y-1600D02*
X7800Y-1629D01*
X8679Y-1675D02*
X8725Y-1629D01*
X9621Y-1600D02*
X9650Y-1629D01*
X2000Y-1825D02*
X2650Y-2475D01*
X2900D01*
X1955Y-1825D02*
X2000D01*
X3500Y-1350D02*
X3525Y-1375D01*
X4450Y-1975D02*
X4525Y-1900D01*
Y-1775D01*
X4696Y-1604D02*
X4725D01*
X4525Y-1775D02*
X4696Y-1604D01*
X3637Y-2100D02*
X3762Y-1975D01*
X4450D01*
X5425D02*
X5600Y-1800D01*
X5730Y-1875D02*
X5825D01*
X6100Y-1425D02*
X6150Y-1375D01*
X6580Y-1950D02*
X6775D01*
X6825Y-1900D01*
X7025Y-1525D02*
X7175Y-1375D01*
X7180D01*
X7950Y-1800D02*
Y-1500D01*
X8075Y-1375D01*
X7950Y-1800D02*
X7975Y-1825D01*
X8075Y-1375D02*
X8105D01*
X8975D02*
X9030D01*
X1825Y-1600D02*
X1950Y-1475D01*
X2230D01*
X4625D02*
X4855D01*
X2355Y-1600D02*
Y-1595D01*
X2475Y-1475D01*
X3100D02*
X3225Y-1600D01*
X13766Y-8325D02*
X14070D01*
X2550Y-1350D02*
X2675Y-1475D01*
X2355Y-1350D02*
X2550D01*
X2805Y-1125D02*
X2950D01*
X3380D02*
X3525D01*
X3955D02*
X4100D01*
X1325Y-795D02*
Y-350D01*
X1425Y-250D01*
X4300D01*
X3129Y-1846D02*
X3275Y-1700D01*
X3754D02*
X3850Y-1604D01*
X3275Y-1700D02*
X3754D01*
X3600Y-1600D02*
X3725Y-1475D01*
X3980D01*
X4200Y-1350D02*
X4425Y-1575D01*
X4205Y-1700D02*
X4475D01*
X4550Y-1625D01*
Y-1550D01*
X4625Y-1475D01*
X4399Y-2100D02*
X4450D01*
X4575Y-1975D01*
X5425D01*
X11675Y-1175D02*
X11775Y-1275D01*
X11675Y-1175D02*
Y-1075D01*
X11450Y-850D02*
X11675Y-1075D01*
X11775Y-1275D02*
X11950D01*
X12050Y-1375D01*
X12225Y-1250D02*
X12304Y-1329D01*
X12225Y-1250D02*
Y-1225D01*
X12304Y-1375D02*
Y-1329D01*
X6550Y-7190D02*
X6574Y-7214D01*
X7610Y-7250D02*
X7710Y-7350D01*
X7550Y-7250D02*
X7610D01*
X6550Y-7190D02*
Y-7000D01*
X6574Y-7214D02*
X6710Y-7350D01*
X3550Y-6575D02*
X3650Y-6675D01*
X5100D02*
X5350Y-6925D01*
X2296Y-5296D02*
Y-5054D01*
X3375Y-3975D01*
X3775D01*
X6250Y-1620D02*
X6255Y-1625D01*
X5554Y-1604D02*
X5600D01*
X5225Y-1245D02*
X5584Y-1604D01*
X5200Y-1350D02*
X5400Y-1550D01*
X4980Y-1350D02*
X5200D01*
X5400Y-1850D02*
Y-1550D01*
X4855Y-1475D02*
X4980Y-1600D01*
X3980Y-1475D02*
X4205Y-1700D01*
X3225Y-1600D02*
X3600D01*
X6600Y-1150D02*
X6825Y-1375D01*
X6600Y-1150D02*
Y-1125D01*
X6825Y-1375D02*
X6875D01*
X6854Y-1629D02*
X6875D01*
X6575Y-1350D02*
X6854Y-1629D01*
X7525Y-1600D02*
X7771D01*
X8450Y-1675D02*
X8679D01*
X1600Y-2900D02*
X1704Y-3004D01*
X1850Y-600D02*
Y-250D01*
X2775Y-1975D02*
X2975D01*
X2725Y-2150D02*
Y-2025D01*
X2100Y-1604D02*
X2250Y-1754D01*
X2975Y-1975D02*
X3100Y-2100D01*
X2725Y-2025D02*
X2775Y-1975D01*
X3100Y-2100D02*
X3129D01*
X13440Y-8193D02*
Y-7265D01*
X13075Y-6900D02*
X13386Y-7211D01*
X10524Y-6400D02*
X10728Y-6604D01*
X13386Y-7211D02*
X13440Y-7265D01*
X13308Y-8325D02*
X13440Y-8193D01*
X13100Y-6825D02*
X13590Y-7315D01*
X10778Y-6400D02*
X11203Y-6825D01*
X13562Y-8325D02*
X13690Y-8197D01*
Y-7415D01*
X13590Y-7315D02*
X13690Y-7415D01*
X9254Y-6400D02*
X9404Y-6250D01*
X9550D01*
X11581Y-7700D02*
Y-7356D01*
X9640Y-6490D02*
X9800Y-6650D01*
X9640Y-6490D02*
Y-6340D01*
X9800Y-6650D02*
X10500D01*
X9550Y-6250D02*
X9640Y-6340D01*
X13875Y-4850D02*
X13975Y-4750D01*
X14150D01*
X9050Y-1950D02*
Y-1825D01*
X9250Y-1625D02*
Y-1450D01*
X9500Y-1200D01*
Y-1125D01*
X9050Y-1825D02*
X9250Y-1625D01*
X5600Y-1800D02*
X6000D01*
X7830Y-1950D02*
X8084Y-2204D01*
X8125D01*
X7650Y-1950D02*
X7800Y-2100D01*
X7505Y-1950D02*
X7650D01*
X7800Y-2100D02*
X7830D01*
X8780Y-1880D02*
Y-1800D01*
X8875Y-1705D01*
Y-1475D01*
X8975Y-1375D01*
X8800Y-2200D02*
X8890Y-2110D01*
Y-1835D01*
X7830Y-2310D02*
X8944D01*
X8492Y-2800D02*
Y-2667D01*
X7505Y-2200D02*
X7680Y-2375D01*
X7072Y-2950D02*
X7222Y-2800D01*
X4653Y-1772D02*
X4697Y-1728D01*
X4653Y-1846D02*
Y-1772D01*
X4697Y-1728D02*
X4797D01*
X4925Y-1600D01*
X5220Y-2495D02*
X7933D01*
X5130Y-2555D02*
X7739D01*
X4990Y-2615D02*
X7545D01*
X4850Y-2675D02*
X7351D01*
X5175Y-2450D02*
X5220Y-2495D01*
X7933D02*
X8238Y-2800D01*
X4925Y-2550D02*
X4990Y-2615D01*
X7545D02*
X7730Y-2800D01*
X5050Y-2475D02*
X5130Y-2555D01*
X7739D02*
X7984Y-2800D01*
X4775Y-2600D02*
X4850Y-2675D01*
X7351D02*
X7476Y-2800D01*
X4295Y-2250D02*
X5400D01*
X5450Y-2300D01*
X4101Y-2310D02*
X5360D01*
X3891Y-2100D02*
X4101Y-2310D01*
X5360D02*
X5425Y-2375D01*
X6104D02*
X6275Y-2204D01*
X5425Y-2375D02*
X6104D01*
X4550Y-2875D02*
X4625Y-2950D01*
X4550Y-2875D02*
Y-2575D01*
X4525Y-2550D02*
X4550Y-2575D01*
X5655Y-2200D02*
X5850D01*
X5900Y-2150D01*
X4625Y-2950D02*
X7072D01*
X4756Y-2375D02*
X5300D01*
X5360Y-2435D01*
X6425Y-2300D02*
X6475Y-2350D01*
X7054D01*
X7240Y-2435D02*
X7350Y-2325D01*
Y-2125D01*
X7400Y-2075D01*
X4653Y-2478D02*
X4756Y-2375D01*
X7622Y-2102D02*
X7830Y-2310D01*
X8944D02*
X9050Y-2204D01*
X7600Y-2075D02*
X7625Y-2100D01*
X5360Y-2435D02*
X7240D01*
X7400Y-2075D02*
X7600D01*
X6200D02*
X6350D01*
X5450Y-2300D02*
X5975D01*
X4145Y-2100D02*
X4295Y-2250D01*
X6425Y-2300D02*
Y-2150D01*
X7054Y-2350D02*
X7200Y-2204D01*
X5975Y-2300D02*
X6200Y-2075D01*
X6350D02*
X6425Y-2150D01*
X7025Y-1725D02*
Y-1525D01*
X6950Y-1800D02*
X7025Y-1725D01*
X6950Y-2000D02*
Y-1800D01*
X6875Y-2075D02*
X6950Y-2000D01*
Y-2200D02*
X7025Y-2125D01*
Y-1875D01*
X7180Y-1720D01*
X6580Y-2200D02*
X6950D01*
X7180Y-1720D02*
Y-1625D01*
X8430Y-2200D02*
X8800D01*
X8890Y-1835D02*
X8975Y-1750D01*
X9030Y-1695D01*
Y-1625D01*
X1871Y-5304D02*
Y-5029D01*
X2000Y-4900D01*
X1450Y-5300D02*
Y-5150D01*
X1000Y-5300D02*
Y-5200D01*
X1150Y-5050D01*
X600Y-5300D02*
Y-5275D01*
X750Y-5125D01*
X3300Y-4500D02*
X4025D01*
X4425Y-4100D02*
X5025D01*
X15250Y-1404D02*
X15279Y-1375D01*
X10190Y-1974D02*
Y-1710D01*
X13575Y-1375D02*
X13579D01*
X10674Y-2650D02*
X13375D01*
X14850Y-2225D02*
X15025Y-2050D01*
X10524Y-2800D02*
X10674Y-2650D01*
X13375D02*
X13475Y-2550D01*
X14775Y-2225D02*
X14850D01*
X15025Y-2050D02*
Y-1995D01*
X15115Y-2235D02*
X15275Y-2075D01*
Y-1995D01*
X15105Y-1825D02*
X15275Y-1995D01*
X14737Y-2421D02*
X14779D01*
X14965Y-2235D01*
X15115D01*
X10495Y-2575D02*
X13250D01*
X13550Y-2275D01*
X9930Y-1968D02*
Y-1795D01*
X9808Y-1846D02*
Y-1817D01*
X9675Y-1775D02*
X9725Y-1725D01*
X9775D01*
X9675Y-1967D02*
Y-1775D01*
X12250Y-1000D02*
X12300Y-1050D01*
X12125Y-1000D02*
X12250D01*
X11975Y-850D02*
X12125Y-1000D01*
X12475Y-1375D02*
Y-1355D01*
X12300Y-1180D02*
X12475Y-1355D01*
X12300Y-1180D02*
Y-1050D01*
X15250Y-1600D02*
Y-1404D01*
X14425Y-1550D02*
X14429Y-1546D01*
Y-1375D01*
X13550Y-1525D02*
X13579Y-1496D01*
Y-1375D01*
X11380Y-1250D02*
X11505Y-1125D01*
X12080D02*
X12175D01*
X12200Y-1100D01*
X12655Y-1125D02*
X12775D01*
X13230D02*
X13325D01*
X13805D02*
X13925D01*
X14380D02*
X14475D01*
X13300Y-525D02*
Y-200D01*
X13775D02*
X13800Y-225D01*
X14300Y-575D02*
Y-200D01*
X10800Y-995D02*
X11055Y-1250D01*
X10800Y-995D02*
Y-175D01*
X12875Y-1350D02*
Y-1075D01*
X12785Y-985D02*
X12875Y-1075D01*
X12660Y-985D02*
X12785D01*
X12875Y-1350D02*
X12900Y-1375D01*
X12525Y-850D02*
X12660Y-985D01*
X14650Y-1750D02*
X14854Y-1546D01*
X13000Y-1150D02*
Y-1125D01*
X13025Y-1150D01*
Y-1550D02*
X13100Y-1625D01*
X13250D01*
X13325Y-1550D01*
Y-1375D01*
X13025Y-1550D02*
Y-1150D01*
X13835Y-1690D02*
X14004Y-1521D01*
X12725Y-1925D02*
X12825Y-1825D01*
X13050D02*
X13150Y-1925D01*
X12825Y-1825D02*
X13050D01*
X13250D02*
X13475D01*
X13145Y-1995D02*
X13150D01*
Y-1925D02*
X13250Y-1825D01*
X13150Y-1995D02*
Y-1925D01*
X13475Y-1825D02*
X13575Y-1925D01*
Y-1900D02*
X13650Y-1825D01*
X13900D01*
X14000Y-1995D02*
Y-1925D01*
X14100Y-1825D01*
X13575Y-1995D02*
Y-1900D01*
X13900Y-1825D02*
X14000Y-1925D01*
X14450Y-2275D02*
X14600Y-2125D01*
X10270Y-2800D02*
X10495Y-2575D01*
X14600Y-2125D02*
Y-1995D01*
X13550Y-2275D02*
X14450D01*
X14040Y-2210D02*
X14175Y-2075D01*
X10016Y-2800D02*
X10246Y-2570D01*
X10016Y-2800D02*
X10316Y-2500D01*
X13490Y-2210D02*
X14040D01*
X14175Y-2075D02*
Y-1995D01*
X10316Y-2500D02*
X13200D01*
X13490Y-2210D01*
X9675Y-1967D02*
X9808Y-2100D01*
X10175Y-1325D02*
X11550D01*
X11575Y-1300D01*
X9775Y-1725D02*
X10175Y-1325D01*
X10225Y-1400D02*
X11650D01*
X11700Y-1350D01*
X12675Y-1550D02*
X12729Y-1496D01*
Y-1375D01*
X9808Y-1817D02*
X10225Y-1400D01*
X10265Y-1460D02*
X11790D01*
X9930Y-1968D02*
X10062Y-2100D01*
X11790Y-1460D02*
X11875Y-1375D01*
X13154Y-1521D02*
Y-1375D01*
X9930Y-1795D02*
X10265Y-1460D01*
X10380Y-1520D02*
X12170D01*
X10190Y-1974D02*
X10316Y-2100D01*
X12170Y-1520D02*
X12340Y-1690D01*
X14004Y-1521D02*
Y-1375D01*
X10190Y-1710D02*
X10380Y-1520D01*
X12340Y-1690D02*
X13835D01*
X10620Y-1580D02*
X12105D01*
X10450Y-1980D02*
X10570Y-2100D01*
X12105Y-1580D02*
X12275Y-1750D01*
X14854Y-1546D02*
Y-1375D01*
X10450Y-1980D02*
Y-1750D01*
X10620Y-1580D01*
X12275Y-1750D02*
X14650D01*
X11503Y-1675D02*
X12075D01*
X11332Y-1846D02*
X11503Y-1675D01*
X12300Y-1995D02*
Y-1900D01*
X12725Y-1995D02*
Y-1900D01*
X12300Y-1900D02*
X12375Y-1825D01*
X12075Y-1675D02*
X12300Y-1900D01*
X11775Y-2075D02*
X11970D01*
X12050Y-1995D01*
X9575Y-2225D02*
X12350D01*
X12475Y-2100D01*
Y-1995D01*
X9000Y-2800D02*
X9575Y-2225D01*
X9754Y-2300D02*
X12725D01*
X12900Y-2125D01*
Y-1995D01*
X9254Y-2800D02*
X9754Y-2300D01*
X9948Y-2360D02*
X13065D01*
X13325Y-2100D01*
Y-1995D01*
X9508Y-2800D02*
X9948Y-2360D01*
X4980Y-1600D02*
X5100D01*
X5200Y-1500D01*
X6255Y-1625D02*
Y-1525D01*
X7180Y-1625D02*
X7280Y-1525D01*
X6250Y-1520D02*
X6255Y-1525D01*
X7280D02*
X7300D01*
X8105Y-1625D02*
X8225Y-1505D01*
Y-1500D01*
X9380Y-1600D02*
X9621D01*
X1600Y-2900D02*
Y-2775D01*
X1704Y-3004D02*
X2029D01*
X1930Y-680D02*
X2205D01*
X2230Y-705D01*
X1850Y-600D02*
X1930Y-680D01*
X4595Y-1125D02*
X4710Y-1010D01*
Y-660D01*
X1325Y-795D02*
X1655Y-1125D01*
X2230D02*
Y-705D01*
X4300Y-250D02*
X4550Y-500D01*
X4530Y-1125D02*
X4595D01*
X6080Y-1300D02*
X6255Y-1125D01*
X4550Y-500D02*
X4710Y-660D01*
X5500Y-945D02*
X5855Y-1300D01*
X5500Y-945D02*
Y-175D01*
X6210Y-850D02*
X6450Y-1090D01*
X6275Y-1950D02*
X6450Y-1775D01*
X6200Y-850D02*
X6210D01*
X6450Y-1775D02*
Y-1090D01*
X12775Y-4475D02*
X13000Y-4700D01*
X13650D01*
X2725Y-5300D02*
Y-4800D01*
X3385Y-4140D02*
X4010D01*
X4075Y-4075D01*
X2725Y-4800D02*
X3385Y-4140D01*
X3825Y-7275D02*
X3900Y-7350D01*
X2875Y-5850D02*
X3000D01*
X3900Y-7350D02*
X3960D01*
X3825Y-7275D02*
Y-7025D01*
X9910Y-1040D02*
Y-610D01*
X9730Y-1125D02*
X9825D01*
X9800Y-500D02*
X9910Y-610D01*
X9825Y-1125D02*
X9910Y-1040D01*
X6150Y-1850D02*
Y-1740D01*
X6100Y-1900D02*
X6150Y-1850D01*
X6100Y-1690D02*
X6150Y-1740D01*
Y-1375D02*
X6255D01*
X6100Y-1690D02*
Y-1425D01*
D34*
X10725Y-4300D02*
X11275Y-4850D01*
X9250Y-5325D02*
X10175D01*
X8529Y-5304D02*
X9229D01*
X9250Y-5325D01*
X8400Y-5175D02*
X8529Y-5304D01*
X8746Y-6400D02*
Y-5304D01*
X9700Y-3250D02*
X10250Y-3800D01*
X8492Y-2800D02*
X8942Y-3250D01*
X13054Y-8071D02*
Y-7929D01*
X11708Y-7450D02*
X12575D01*
X13054Y-8071D02*
X13308D01*
X12575Y-7450D02*
X13054Y-7929D01*
X14050Y-4550D02*
X14525D01*
X14575Y-4600D02*
X14900D01*
X14525Y-4550D02*
X14575Y-4600D01*
X13575Y-4400D02*
X13900D01*
X12028Y-4054D02*
X13229D01*
X13575Y-4400D01*
X13900D02*
X14050Y-4550D01*
X10250Y-4054D02*
X12028D01*
X10778Y-3272D02*
Y-2800D01*
X8942Y-3250D02*
X9700D01*
X2650Y-6400D02*
X4174D01*
X10250Y-4308D02*
X10258Y-4300D01*
X10725D01*
X1850Y-2075D02*
X1955D01*
X1780Y-2250D02*
X1955Y-2075D01*
X1480Y-1705D02*
Y-1600D01*
X1700Y-2250D02*
X1780D01*
X1480Y-1705D02*
X1850Y-2075D01*
X1000Y-2175D02*
X1275Y-2450D01*
Y-3550D02*
Y-2300D01*
X6975Y-6675D02*
X7050Y-6600D01*
X11540Y-6400D02*
X13550D01*
X10778Y-2953D02*
X10850Y-3025D01*
X13300D01*
X13904Y-2421D01*
X10250Y-3800D02*
X10778Y-3272D01*
X10778Y-2953D02*
Y-2800D01*
X13904Y-2421D02*
X13975D01*
D35*
X8705Y-7355D02*
X8710Y-7350D01*
X8705Y-7580D02*
Y-7355D01*
X455Y-7580D02*
Y-7355D01*
X2955Y-7355D02*
X2960Y-7350D01*
X2955Y-7580D02*
Y-7355D01*
X7705Y-7355D02*
X7710Y-7350D01*
X7705Y-7580D02*
Y-7355D01*
X9205D02*
X9210Y-7350D01*
X9205Y-7580D02*
Y-7400D01*
X6850D02*
X6900Y-7350D01*
X6395Y-7695D02*
Y-7355D01*
X5895Y-7670D02*
Y-7355D01*
X8895Y-7580D02*
X9050Y-7735D01*
X8395Y-7580D02*
X8550Y-7735D01*
X6880Y-7580D02*
X6895D01*
X9050Y-8475D02*
Y-7735D01*
X8550Y-8475D02*
Y-7735D01*
X7895Y-7580D02*
X8050Y-7735D01*
X7395Y-7580D02*
X7550Y-7735D01*
X8050Y-8475D02*
Y-7735D01*
X6895Y-7580D02*
X7050Y-7735D01*
X7550Y-8475D02*
Y-7735D01*
X7050Y-8475D02*
Y-7735D01*
X6550Y-8475D02*
Y-7850D01*
X6050Y-8475D02*
Y-7825D01*
X6850Y-7550D02*
Y-7400D01*
Y-7550D02*
X6880Y-7580D01*
X7205Y-7355D02*
X7210Y-7350D01*
X7205Y-7580D02*
Y-7355D01*
X6395Y-7695D02*
X6550Y-7850D01*
X5895Y-7670D02*
X6050Y-7825D01*
X6705Y-7355D02*
X6710Y-7350D01*
X6705Y-7580D02*
Y-7355D01*
X2455Y-7355D02*
X2460Y-7350D01*
X2455Y-7580D02*
Y-7355D01*
X3455D02*
X3460Y-7350D01*
X3455Y-7580D02*
Y-7355D01*
X9395Y-7355D02*
X9400Y-7350D01*
X8895Y-7355D02*
X8900Y-7350D01*
X8395Y-7355D02*
X8400Y-7350D01*
X7895Y-7355D02*
X7900Y-7350D01*
X7395Y-7355D02*
X7400Y-7350D01*
X6395Y-7355D02*
X6400Y-7350D01*
X6205Y-7355D02*
X6210Y-7350D01*
X5895Y-7355D02*
X5900Y-7350D01*
X3645Y-7355D02*
X3650Y-7350D01*
X3145Y-7355D02*
X3150Y-7350D01*
X2645Y-7355D02*
X2650Y-7350D01*
X645Y-7355D02*
X650Y-7350D01*
X9300Y-8175D02*
Y-7820D01*
X8800Y-8175D02*
Y-7820D01*
X8300Y-8175D02*
Y-7820D01*
X7800Y-8175D02*
Y-7820D01*
X7300Y-8175D02*
Y-7820D01*
X6800Y-8175D02*
Y-7820D01*
X6300Y-8175D02*
Y-7820D01*
X5800Y-8175D02*
Y-7820D01*
X4050Y-8175D02*
Y-7820D01*
X3550Y-8175D02*
Y-7820D01*
X3050Y-8175D02*
Y-7820D01*
X2550Y-8175D02*
Y-7820D01*
X2050Y-8175D02*
Y-7820D01*
X1550Y-8175D02*
Y-7820D01*
X1050Y-8175D02*
Y-7820D01*
X550Y-8175D02*
Y-7820D01*
X955Y-7580D02*
Y-7355D01*
X960Y-7350D01*
X1455Y-7580D02*
Y-7355D01*
X1460Y-7350D01*
X1955Y-7580D02*
Y-7355D01*
X1960Y-7350D01*
X4145Y-7355D02*
X4150Y-7350D01*
X645Y-7580D02*
Y-7355D01*
X1145Y-7580D02*
X1150Y-7575D01*
Y-7350D01*
X1645Y-7580D02*
X1650Y-7575D01*
Y-7350D01*
X2145Y-7580D02*
X2150Y-7575D01*
Y-7350D01*
X2645Y-7580D02*
Y-7355D01*
X3145Y-7580D02*
Y-7355D01*
X3645Y-7580D02*
Y-7355D01*
X4145Y-7580D02*
Y-7355D01*
X9800Y-8175D02*
Y-8025D01*
X9395Y-7620D02*
X9800Y-8025D01*
X4550Y-8175D02*
Y-7985D01*
X4145Y-7580D02*
X4550Y-7985D01*
X9395Y-7620D02*
Y-7355D01*
X8895Y-7580D02*
Y-7355D01*
X8395Y-7580D02*
Y-7355D01*
X7895Y-7580D02*
Y-7355D01*
X7395Y-7580D02*
Y-7355D01*
X800Y-8450D02*
X825Y-8475D01*
X1145Y-7580D02*
X1300Y-7735D01*
X1800Y-8475D02*
Y-7735D01*
X2300Y-8475D02*
Y-7735D01*
X1645Y-7580D02*
X1800Y-7735D01*
X2800Y-8475D02*
Y-7735D01*
X3300Y-8475D02*
Y-7735D01*
X3800Y-8475D02*
Y-7735D01*
X2145Y-7580D02*
X2300Y-7735D01*
X2645Y-7580D02*
X2800Y-7735D01*
X3145Y-7580D02*
X3300Y-7735D01*
X3645Y-7580D02*
X3800Y-7735D01*
X800Y-8450D02*
Y-7735D01*
X1300Y-8500D02*
Y-7735D01*
X645Y-7580D02*
X800Y-7735D01*
X5705Y-7355D02*
X5710Y-7350D01*
X6205Y-7580D02*
Y-7355D01*
X8205Y-7580D02*
Y-7355D01*
X8210Y-7350D01*
X3955Y-7580D02*
Y-7355D01*
X3960Y-7350D01*
D36*
X1350Y-2925D02*
G03*
X1350Y-3125I-75J-100D01*
G01*
X1200Y-1073D02*
G03*
X1250Y-1385I50J-152D01*
G01*
X1200Y-392D02*
G03*
X1200Y-608I-150J-108D01*
G01*
X1350Y-2350D02*
G03*
X1350Y-2550I-75J-100D01*
G01*
X1800Y-2159D02*
G03*
X1575Y-2300I-100J-91D01*
G01*
X1345Y-1545D02*
G03*
X1440Y-1710I95J-55D01*
G01*
X3370Y-3900D02*
G03*
X3322Y-3922I5J-75D01*
G01*
X3370Y-3900D02*
G03*
X3322Y-3922I5J-75D01*
G01*
X3762Y-3538D02*
G03*
X3875Y-3585I113J113D01*
G01*
X3762Y-3538D02*
G03*
X3875Y-3585I113J113D01*
G01*
X2625Y-1825D02*
X2775Y-1675D01*
Y-1400D01*
X2575Y-1825D02*
X2625D01*
X2575Y-1200D02*
Y-1125D01*
Y-1200D02*
X2775Y-1400D01*
X6710Y-7100D02*
Y-7040D01*
X550Y-3050D02*
X800D01*
X550Y-3010D02*
X1151D01*
X550Y-2970D02*
X1163D01*
X550Y-2930D02*
X1194D01*
X550Y-2890D02*
X1350D01*
X550Y-2850D02*
X1350D01*
X550Y-2810D02*
X1350D01*
X800Y-3290D02*
X1350D01*
X800Y-4550D02*
Y-3050D01*
Y-3250D02*
X1350D01*
X800Y-3210D02*
X1350D01*
X800Y-3090D02*
X1168D01*
X800Y-3050D02*
X1153D01*
X800Y-3170D02*
X1350D01*
X800Y-3130D02*
X1207D01*
X550Y-3050D02*
Y-2550D01*
Y-2770D02*
X1350D01*
X550Y-2730D02*
X1350D01*
X550Y-2690D02*
X1350D01*
X550Y-2570D02*
X1240D01*
X550Y-2650D02*
X1350D01*
X550Y-2610D02*
X1350D01*
X570Y-3050D02*
Y-2550D01*
X610Y-3050D02*
Y-2550D01*
X650Y-3050D02*
Y-2550D01*
X690Y-3050D02*
Y-2550D01*
X730Y-3050D02*
Y-2550D01*
X770Y-3050D02*
Y-2550D01*
X550D02*
X800D01*
Y-100D01*
Y-4530D02*
X1500D01*
X800Y-4490D02*
X1500D01*
X800Y-4450D02*
X1500D01*
X800Y-4410D02*
X1500D01*
X800Y-4370D02*
X1500D01*
X800Y-4330D02*
X1500D01*
X800Y-4290D02*
X1500D01*
X800Y-4250D02*
X1500D01*
X800Y-4210D02*
X1500D01*
X800Y-4170D02*
X1500D01*
X800Y-4130D02*
X1500D01*
X800Y-4090D02*
X1500D01*
X800Y-4050D02*
X1500D01*
X800Y-4010D02*
X1500D01*
X800Y-3970D02*
X1500D01*
X800Y-3930D02*
X1500D01*
X800Y-3890D02*
X1500D01*
X800Y-3850D02*
X1500D01*
X800Y-3810D02*
X1500D01*
X800Y-3770D02*
X1500D01*
X800Y-3730D02*
X1500D01*
X800Y-3690D02*
X1500D01*
X800Y-3650D02*
X1500D01*
X800Y-3610D02*
X2300D01*
X800Y-3570D02*
X2300D01*
X800Y-3530D02*
X2300D01*
X800Y-3490D02*
X2300D01*
X800Y-3450D02*
X2300D01*
X800Y-3410D02*
X2300D01*
X800Y-3370D02*
X2300D01*
X800Y-3330D02*
X2300D01*
X800Y-2450D02*
X1150D01*
X800Y-2530D02*
X1179D01*
X800Y-2490D02*
X1157D01*
X800Y-2410D02*
X1157D01*
X800Y-1330D02*
X1129D01*
X800Y-2370D02*
X1179D01*
X800Y-1370D02*
X1182D01*
X800Y-1250D02*
X1092D01*
X800Y-1210D02*
X1091D01*
X800Y-1290D02*
X1104D01*
X800Y-1170D02*
X1100D01*
X800Y-1130D02*
X1121D01*
X800Y-1090D02*
X1164D01*
X800Y-1050D02*
X1200D01*
X800Y-1010D02*
X1200D01*
X800Y-970D02*
X1200D01*
X800Y-930D02*
X1200D01*
X800Y-890D02*
X1200D01*
X800Y-850D02*
X1200D01*
X800Y-810D02*
X1200D01*
X800Y-650D02*
X942D01*
X800Y-770D02*
X1200D01*
X800Y-730D02*
X1200D01*
X800Y-530D02*
X867D01*
X800Y-490D02*
X865D01*
X800Y-610D02*
X901D01*
X800Y-570D02*
X879D01*
X800Y-450D02*
X872D01*
X800Y-410D02*
X888D01*
X800Y-370D02*
X918D01*
X800Y-330D02*
X977D01*
X800Y-2330D02*
X1240D01*
X800Y-2290D02*
X1571D01*
X800Y-2250D02*
X1565D01*
X800Y-2210D02*
X1571D01*
X800Y-2170D02*
X1591D01*
X800Y-2130D02*
X1638D01*
X800Y-2090D02*
X1800D01*
X800Y-1970D02*
X1770D01*
X800Y-1930D02*
X1730D01*
X800Y-2050D02*
X1800D01*
X800Y-2010D02*
X1800D01*
X800Y-1810D02*
X1610D01*
X800Y-1770D02*
X1570D01*
X800Y-1890D02*
X1690D01*
X800Y-1850D02*
X1650D01*
X800Y-1650D02*
X1342D01*
X800Y-1610D02*
X1330D01*
X800Y-1730D02*
X1530D01*
X800Y-1690D02*
X1377D01*
X800Y-1490D02*
X1290D01*
X800Y-1450D02*
X1250D01*
X800Y-1570D02*
X1334D01*
X800Y-1530D02*
X1330D01*
X800Y-690D02*
X1200D01*
X800Y-290D02*
X1200D01*
X800Y-1410D02*
X1250D01*
X800Y-250D02*
X1200D01*
X800Y-210D02*
X1200D01*
X800Y-170D02*
X1200D01*
X800Y-130D02*
X1200D01*
X800Y-100D02*
X1200D01*
X1000Y-4900D02*
Y-4550D01*
Y-4900D02*
X1500D01*
X1170D02*
Y-3093D01*
X800Y-4550D02*
X1000D01*
X1210Y-4900D02*
Y-3132D01*
X1000Y-4890D02*
X1500D01*
X1250Y-4900D02*
Y-3147D01*
X1290Y-4900D02*
Y-3149D01*
X1330Y-4900D02*
Y-3137D01*
X1370Y-4900D02*
Y-3300D01*
X1410Y-4900D02*
Y-3300D01*
X1450Y-4900D02*
Y-3300D01*
X1350D02*
Y-3125D01*
X1500Y-4900D02*
Y-3650D01*
X1490Y-4900D02*
Y-3300D01*
X1010Y-4900D02*
Y-681D01*
X810Y-4550D02*
Y-100D01*
X1050Y-4900D02*
Y-685D01*
X1090Y-4900D02*
Y-681D01*
X890Y-4550D02*
Y-593D01*
X850Y-4550D02*
Y-100D01*
X970Y-4550D02*
Y-667D01*
X930Y-4550D02*
Y-641D01*
X1130Y-4900D02*
Y-1331D01*
X1210Y-2918D02*
Y-2557D01*
X1170Y-2957D02*
Y-2518D01*
X1350Y-2925D02*
Y-2550D01*
X1000Y-4850D02*
X1500D01*
X1000Y-4810D02*
X1500D01*
X1000Y-4770D02*
X1500D01*
X1000Y-4730D02*
X1500D01*
X1000Y-4690D02*
X1500D01*
X1000Y-4650D02*
X1500D01*
X1000Y-4610D02*
X1500D01*
X1000Y-4570D02*
X1500D01*
X1530Y-3650D02*
Y-3300D01*
X1500Y-3650D02*
X2300D01*
X1570D02*
Y-3300D01*
X1610Y-3650D02*
Y-3300D01*
X1650Y-3650D02*
Y-3300D01*
X1690Y-3650D02*
Y-3300D01*
X1730Y-3650D02*
Y-3300D01*
X1770Y-3650D02*
Y-3300D01*
X1810Y-3650D02*
Y-3300D01*
X1850Y-3650D02*
Y-3300D01*
X1890Y-3650D02*
Y-3300D01*
X1930Y-3650D02*
Y-3300D01*
X1970Y-3650D02*
Y-3300D01*
X2010Y-3650D02*
Y-3300D01*
X1350D02*
X2300D01*
X2050Y-3650D02*
Y-3300D01*
X2090Y-3650D02*
Y-3300D01*
X2130Y-3650D02*
Y-3300D01*
X2170Y-3650D02*
Y-3300D01*
X2210Y-3650D02*
Y-3300D01*
X2250Y-3650D02*
Y-3300D01*
X2290Y-3650D02*
Y-3300D01*
X2300Y-3650D02*
Y-3300D01*
X1170Y-2382D02*
Y-1364D01*
X1130Y-1119D02*
Y-667D01*
X1170Y-1086D02*
Y-641D01*
X1158Y-650D02*
X1200D01*
X1250Y-2903D02*
Y-2572D01*
X1290Y-2901D02*
Y-2574D01*
X1210Y-2343D02*
Y-1380D01*
X1250Y-2328D02*
Y-1385D01*
X1250Y-1450D02*
Y-1385D01*
X890Y-407D02*
Y-100D01*
X930Y-359D02*
Y-100D01*
X970Y-333D02*
Y-100D01*
X1010Y-319D02*
Y-100D01*
X1200Y-1073D02*
Y-608D01*
X1170Y-359D02*
Y-100D01*
X1182Y-370D02*
X1200D01*
Y-392D02*
Y-100D01*
X1050Y-315D02*
Y-100D01*
X1090Y-319D02*
Y-100D01*
X1123Y-330D02*
X1200D01*
X1130Y-333D02*
Y-100D01*
X1330Y-2913D02*
Y-2562D01*
X1310Y-2570D02*
X1350D01*
X1310Y-2330D02*
X1350D01*
Y-2350D02*
Y-2300D01*
X1575D01*
X1570D02*
Y-2286D01*
X1800Y-2159D02*
Y-2000D01*
X1730Y-2118D02*
Y-1930D01*
X1690Y-2115D02*
Y-1890D01*
X1762Y-2130D02*
X1800D01*
X1770Y-2135D02*
Y-1970D01*
X1330Y-2338D02*
Y-1530D01*
X1290Y-2326D02*
Y-1490D01*
X1410Y-2300D02*
Y-1706D01*
X1370Y-2300D02*
Y-1685D01*
X1250Y-1450D02*
X1345Y-1545D01*
X1440Y-1710D02*
X1510D01*
X1450Y-2300D02*
Y-1710D01*
X1490Y-2300D02*
Y-1710D01*
X1570Y-2214D02*
Y-1770D01*
X1530Y-2300D02*
Y-1730D01*
X1610Y-2149D02*
Y-1810D01*
X1650Y-2125D02*
Y-1850D01*
X1510Y-1710D02*
X1800Y-2000D01*
X1400Y-4470D02*
X1411D01*
X1400D02*
X1411D01*
X1530D02*
Y-3969D01*
X1570Y-4470D02*
Y-3975D01*
X1610Y-4470D02*
Y-3975D01*
X1411Y-3970D02*
X1531D01*
X1650Y-4470D02*
Y-3975D01*
X1690Y-4470D02*
Y-3975D01*
X1730Y-4470D02*
Y-3975D01*
X1770Y-4470D02*
Y-3975D01*
X1810Y-4470D02*
Y-3975D01*
X1850Y-4470D02*
Y-3975D01*
X1890Y-4470D02*
Y-3975D01*
X1930Y-4470D02*
Y-3975D01*
X1970Y-4470D02*
Y-3975D01*
X2010Y-4470D02*
Y-3975D01*
X2050Y-4470D02*
Y-3975D01*
X2090Y-4470D02*
Y-3975D01*
X2130Y-4470D02*
Y-3975D01*
X2170Y-4470D02*
Y-3975D01*
X2210Y-4470D02*
Y-3975D01*
X1450Y-4470D02*
Y-3889D01*
X1411Y-4470D02*
Y-3850D01*
X2250Y-4470D02*
Y-3975D01*
X1490Y-4470D02*
Y-3929D01*
X2290Y-4470D02*
Y-3975D01*
X1411Y-3930D02*
X1491D01*
X1411Y-3890D02*
X1451D01*
X2330Y-4470D02*
Y-3975D01*
X1411Y-3850D02*
X1536Y-3975D01*
X2600D01*
X2370Y-4470D02*
Y-3975D01*
X2410Y-4470D02*
Y-3975D01*
X2450Y-4470D02*
Y-3975D01*
X2490Y-4470D02*
Y-3975D01*
X2530Y-4470D02*
Y-3975D01*
X2570Y-4470D02*
Y-3975D01*
X2600D02*
Y-3100D01*
X2610Y-4470D02*
Y-3100D01*
X2650Y-4470D02*
Y-3100D01*
X2690Y-4470D02*
Y-3100D01*
X2730Y-4470D02*
Y-3100D01*
X1411Y-4470D02*
X2774D01*
X1411Y-4450D02*
X2794D01*
X1411Y-4410D02*
X2834D01*
X1411Y-4370D02*
X2874D01*
X1411Y-4330D02*
X2914D01*
X1411Y-4290D02*
X2954D01*
X1411Y-4250D02*
X2994D01*
X1411Y-4210D02*
X3034D01*
X1411Y-4170D02*
X3074D01*
X1411Y-4130D02*
X3114D01*
X1411Y-4090D02*
X3154D01*
X1411Y-4050D02*
X3194D01*
X1411Y-4010D02*
X3234D01*
X2600Y-3970D02*
X3274D01*
X2774Y-4470D02*
X3322Y-3922D01*
X2600Y-3930D02*
X3314D01*
X2600Y-3890D02*
X3380D01*
X2600Y-3850D02*
X3420D01*
X2600Y-3810D02*
X3460D01*
X2770Y-4470D02*
Y-3100D01*
X2810Y-4434D02*
Y-3100D01*
X2850Y-4394D02*
Y-3100D01*
X2890Y-4354D02*
Y-3100D01*
X2930Y-4314D02*
Y-3100D01*
X2970Y-4274D02*
Y-3100D01*
X3010Y-4234D02*
Y-3100D01*
X3050Y-4194D02*
Y-3100D01*
X2600Y-3770D02*
X3500D01*
X3090Y-4154D02*
Y-3100D01*
X3130Y-4114D02*
Y-3100D01*
X3170Y-4074D02*
Y-3100D01*
X3210Y-4034D02*
Y-3100D01*
X3330Y-3915D02*
Y-3106D01*
X3250Y-3994D02*
Y-3100D01*
X3290Y-3954D02*
Y-3100D01*
X3450Y-3820D02*
Y-3226D01*
X3370Y-3900D02*
Y-3146D01*
X3410Y-3860D02*
Y-3186D01*
X3370Y-3900D02*
X3570Y-3700D01*
X3490Y-3780D02*
Y-3266D01*
X3530Y-3740D02*
Y-3306D01*
X2600Y-3730D02*
X3540D01*
X3650Y-3700D02*
Y-3426D01*
X3690Y-3700D02*
Y-3466D01*
X3730Y-3700D02*
Y-3506D01*
X2600Y-3490D02*
X3714D01*
X2600Y-3450D02*
X3674D01*
X2600Y-3570D02*
X3807D01*
X2600Y-3530D02*
X3754D01*
X3810Y-3700D02*
Y-3571D01*
X3770Y-3700D02*
Y-3546D01*
X3890Y-3700D02*
Y-3585D01*
X3850Y-3700D02*
Y-3583D01*
X3930Y-3700D02*
Y-3585D01*
X3970Y-3700D02*
Y-3585D01*
X4010Y-3700D02*
Y-3585D01*
X4050Y-3700D02*
Y-3585D01*
X4090Y-3700D02*
Y-3585D01*
X4130Y-3700D02*
Y-3585D01*
X4170Y-3700D02*
Y-3585D01*
X3570Y-3700D02*
Y-3346D01*
X2600Y-3330D02*
X3554D01*
X2600Y-3410D02*
X3634D01*
X2600Y-3370D02*
X3594D01*
X3324Y-3100D02*
X3762Y-3538D01*
X2600Y-3170D02*
X3394D01*
X2600Y-3130D02*
X3354D01*
X2600Y-3100D02*
X3324D01*
X2600Y-3290D02*
X3514D01*
X2600Y-3250D02*
X3474D01*
X2600Y-3210D02*
X3434D01*
X3610Y-3700D02*
Y-3386D01*
X3776Y-3100D02*
X3941Y-3265D01*
X3970D02*
Y-3100D01*
X4010Y-3265D02*
Y-3100D01*
X4050Y-3265D02*
Y-3100D01*
X3810Y-3134D02*
Y-3100D01*
X3850Y-3174D02*
Y-3100D01*
X3890Y-3214D02*
Y-3100D01*
X3930Y-3254D02*
Y-3100D01*
X4090Y-3265D02*
Y-3100D01*
X4130Y-3265D02*
Y-3100D01*
X4210Y-3700D02*
Y-3585D01*
X4250Y-3700D02*
Y-3585D01*
X3570Y-3700D02*
X5100D01*
X4290D02*
Y-3585D01*
X4330Y-3700D02*
Y-3585D01*
X2600Y-3690D02*
X8000D01*
X4370Y-3700D02*
Y-3585D01*
X2600Y-3650D02*
X8000D01*
X2600Y-3610D02*
X8000D01*
X3875Y-3585D02*
X8000D01*
X4410Y-3700D02*
Y-3585D01*
X4450Y-3700D02*
Y-3585D01*
X4490Y-3700D02*
Y-3585D01*
X4530Y-3700D02*
Y-3585D01*
X4570Y-3700D02*
Y-3585D01*
X4610Y-3700D02*
Y-3585D01*
X4650Y-3700D02*
Y-3585D01*
X4690Y-3700D02*
Y-3585D01*
X4730Y-3700D02*
Y-3585D01*
X4770Y-3700D02*
Y-3585D01*
X4810Y-3700D02*
Y-3585D01*
X4170Y-3265D02*
Y-3100D01*
X4210Y-3265D02*
Y-3100D01*
X3941Y-3265D02*
X8000D01*
X4250D02*
Y-3100D01*
X4290Y-3265D02*
Y-3100D01*
X3926Y-3250D02*
X8000D01*
X3886Y-3210D02*
X8000D01*
X4330Y-3265D02*
Y-3100D01*
X3846Y-3170D02*
X8000D01*
X3776Y-3100D02*
X8000D01*
X3806Y-3130D02*
X8000D01*
X4370Y-3265D02*
Y-3100D01*
X4410Y-3265D02*
Y-3100D01*
X4450Y-3265D02*
Y-3100D01*
X4490Y-3265D02*
Y-3100D01*
X4530Y-3265D02*
Y-3100D01*
X4570Y-3265D02*
Y-3100D01*
X4610Y-3265D02*
Y-3100D01*
X4650Y-3265D02*
Y-3100D01*
X4690Y-3265D02*
Y-3100D01*
X4730Y-3265D02*
Y-3100D01*
X4770Y-3265D02*
Y-3100D01*
X5250Y-3850D02*
Y-3585D01*
X5290Y-3890D02*
Y-3585D01*
X5100Y-3700D02*
X5450Y-4050D01*
X5330Y-3930D02*
Y-3585D01*
X5370Y-3970D02*
Y-3585D01*
X4850Y-3700D02*
Y-3585D01*
X4890Y-3700D02*
Y-3585D01*
X5130Y-3730D02*
Y-3585D01*
X5170Y-3770D02*
Y-3585D01*
X5210Y-3810D02*
Y-3585D01*
X5450Y-4050D02*
Y-3585D01*
X5490Y-4050D02*
Y-3585D01*
X5530Y-4050D02*
Y-3585D01*
X5570Y-4050D02*
Y-3585D01*
X5610Y-4050D02*
Y-3585D01*
X5410Y-4010D02*
Y-3585D01*
X5650Y-4050D02*
Y-3585D01*
X5690Y-4050D02*
Y-3585D01*
X5730Y-4050D02*
Y-3585D01*
X5770Y-4050D02*
Y-3585D01*
X5810Y-4050D02*
Y-3585D01*
X5850Y-4050D02*
Y-3585D01*
X5890Y-4050D02*
Y-3585D01*
X5930Y-4050D02*
Y-3585D01*
X5970Y-4050D02*
Y-3585D01*
X6010Y-4050D02*
Y-3585D01*
X6050Y-4050D02*
Y-3585D01*
X6090Y-4050D02*
Y-3585D01*
X6130Y-4050D02*
Y-3585D01*
X6170Y-4050D02*
Y-3585D01*
X6210Y-4050D02*
Y-3585D01*
X6250Y-4050D02*
Y-3585D01*
X6290Y-4050D02*
Y-3585D01*
X6330Y-4050D02*
Y-3585D01*
X6370Y-4050D02*
Y-3585D01*
X6410Y-4050D02*
Y-3585D01*
X6450Y-4050D02*
Y-3585D01*
X6490Y-4050D02*
Y-3585D01*
X6530Y-4050D02*
Y-3585D01*
X6570Y-4050D02*
Y-3585D01*
X6610Y-4050D02*
Y-3585D01*
X6650Y-4050D02*
Y-3585D01*
X5450Y-4050D02*
X8000D01*
X6690D02*
Y-3585D01*
X5410Y-4010D02*
X8000D01*
X5330Y-3930D02*
X8000D01*
X5370Y-3970D02*
X8000D01*
X5290Y-3890D02*
X8000D01*
X5250Y-3850D02*
X8000D01*
X5210Y-3810D02*
X8000D01*
X5130Y-3730D02*
X8000D01*
X5170Y-3770D02*
X8000D01*
X6730Y-4050D02*
Y-3585D01*
X6770Y-4050D02*
Y-3585D01*
X6810Y-4050D02*
Y-3585D01*
X6850Y-4050D02*
Y-3585D01*
X6890Y-4050D02*
Y-3585D01*
X6930Y-4050D02*
Y-3585D01*
X6970Y-4050D02*
Y-3585D01*
X7010Y-4050D02*
Y-3585D01*
X7050Y-4050D02*
Y-3585D01*
X7090Y-4050D02*
Y-3585D01*
X7130Y-4050D02*
Y-3585D01*
X7170Y-4050D02*
Y-3585D01*
X7210Y-4050D02*
Y-3585D01*
X7250Y-4050D02*
Y-3585D01*
X7290Y-4050D02*
Y-3585D01*
X7330Y-4050D02*
Y-3585D01*
X7370Y-4050D02*
Y-3585D01*
X7410Y-4050D02*
Y-3585D01*
X7450Y-4050D02*
Y-3585D01*
X7490Y-4050D02*
Y-3585D01*
X7530Y-4050D02*
Y-3585D01*
X7570Y-4050D02*
Y-3585D01*
X7610Y-4050D02*
Y-3585D01*
X7650Y-4050D02*
Y-3585D01*
X7690Y-4050D02*
Y-3585D01*
X7730Y-4050D02*
Y-3585D01*
X7770Y-4050D02*
Y-3585D01*
X7810Y-4050D02*
Y-3585D01*
X7850Y-4050D02*
Y-3585D01*
X7890Y-4050D02*
Y-3585D01*
X7930Y-4050D02*
Y-3585D01*
X7970Y-4050D02*
Y-3585D01*
X8000Y-4050D02*
Y-3585D01*
X4930Y-3700D02*
Y-3585D01*
X4810Y-3265D02*
Y-3100D01*
X4970Y-3700D02*
Y-3585D01*
X5010Y-3700D02*
Y-3585D01*
X5050Y-3700D02*
Y-3585D01*
X4850Y-3265D02*
Y-3100D01*
X4890Y-3265D02*
Y-3100D01*
X4930Y-3265D02*
Y-3100D01*
X4970Y-3265D02*
Y-3100D01*
X5010Y-3265D02*
Y-3100D01*
X5090Y-3700D02*
Y-3585D01*
X5050Y-3265D02*
Y-3100D01*
X5090Y-3265D02*
Y-3100D01*
X5130Y-3265D02*
Y-3100D01*
X5170Y-3265D02*
Y-3100D01*
X5210Y-3265D02*
Y-3100D01*
X5250Y-3265D02*
Y-3100D01*
X5290Y-3265D02*
Y-3100D01*
X5330Y-3265D02*
Y-3100D01*
X5370Y-3265D02*
Y-3100D01*
X5410Y-3265D02*
Y-3100D01*
X5450Y-3265D02*
Y-3100D01*
X5490Y-3265D02*
Y-3100D01*
X5530Y-3265D02*
Y-3100D01*
X5570Y-3265D02*
Y-3100D01*
X5610Y-3265D02*
Y-3100D01*
X5650Y-3265D02*
Y-3100D01*
X5690Y-3265D02*
Y-3100D01*
X5730Y-3265D02*
Y-3100D01*
X5770Y-3265D02*
Y-3100D01*
X5810Y-3265D02*
Y-3100D01*
X5850Y-3265D02*
Y-3100D01*
X5890Y-3265D02*
Y-3100D01*
X5930Y-3265D02*
Y-3100D01*
X5970Y-3265D02*
Y-3100D01*
X6010Y-3265D02*
Y-3100D01*
X6050Y-3265D02*
Y-3100D01*
X6090Y-3265D02*
Y-3100D01*
X6130Y-3265D02*
Y-3100D01*
X6170Y-3265D02*
Y-3100D01*
X6210Y-3265D02*
Y-3100D01*
X6250Y-3265D02*
Y-3100D01*
X6290Y-3265D02*
Y-3100D01*
X6330Y-3265D02*
Y-3100D01*
X6370Y-3265D02*
Y-3100D01*
X6410Y-3265D02*
Y-3100D01*
X6450Y-3265D02*
Y-3100D01*
X6490Y-3265D02*
Y-3100D01*
X6530Y-3265D02*
Y-3100D01*
X6570Y-3265D02*
Y-3100D01*
X6610Y-3265D02*
Y-3100D01*
X6650Y-3265D02*
Y-3100D01*
X6690Y-3265D02*
Y-3100D01*
X6730Y-3265D02*
Y-3100D01*
X6770Y-3265D02*
Y-3100D01*
X6810Y-3265D02*
Y-3100D01*
X6850Y-3265D02*
Y-3100D01*
X6890Y-3265D02*
Y-3100D01*
X6930Y-3265D02*
Y-3100D01*
X6970Y-3265D02*
Y-3100D01*
X7010Y-3265D02*
Y-3100D01*
X7050Y-3265D02*
Y-3100D01*
X7090Y-3265D02*
Y-3100D01*
X7130Y-3265D02*
Y-3100D01*
X7170Y-3265D02*
Y-3100D01*
X7210Y-3265D02*
Y-3100D01*
X7250Y-3265D02*
Y-3100D01*
X7290Y-3265D02*
Y-3100D01*
X7330Y-3265D02*
Y-3100D01*
X7370Y-3265D02*
Y-3100D01*
X7410Y-3265D02*
Y-3100D01*
X7450Y-3265D02*
Y-3100D01*
X7490Y-3265D02*
Y-3100D01*
X7530Y-3265D02*
Y-3100D01*
X7570Y-3265D02*
Y-3100D01*
X7610Y-3265D02*
Y-3100D01*
X7650Y-3265D02*
Y-3100D01*
X7690Y-3265D02*
Y-3100D01*
X7730Y-3265D02*
Y-3100D01*
X7770Y-3265D02*
Y-3100D01*
X7810Y-3265D02*
Y-3100D01*
X7850Y-3265D02*
Y-3100D01*
X7890Y-3265D02*
Y-3100D01*
X7930Y-3265D02*
Y-3100D01*
X7970Y-3265D02*
Y-3100D01*
X8000Y-3265D02*
Y-3100D01*
D37*
X1725Y-850D02*
X1820D01*
X1550Y-675D02*
Y-500D01*
Y-675D02*
X1725Y-850D01*
X2075Y-875D02*
X2100Y-850D01*
X2075Y-1050D02*
Y-875D01*
X2000Y-1125D02*
X2075Y-1050D01*
X1465Y-2640D02*
X1750D01*
X1275Y-2450D02*
X1465Y-2640D01*
X1425Y-3175D02*
X2050D01*
X2300Y-2925D01*
X1755Y-2825D02*
X2025D01*
X1750Y-2830D02*
X1755Y-2825D01*
X14995Y-850D02*
Y-795D01*
X14050Y-500D02*
X14095D01*
X13550Y-505D02*
Y-500D01*
Y-505D02*
X13895Y-850D01*
X13050Y-500D02*
X13345Y-795D01*
Y-850D02*
Y-795D01*
X12550Y-500D02*
X12795Y-745D01*
Y-850D02*
Y-745D01*
X12050Y-500D02*
X12245Y-695D01*
Y-850D02*
Y-695D01*
X11550Y-500D02*
X11695Y-645D01*
Y-850D02*
Y-645D01*
X11050Y-500D02*
X11145Y-595D01*
Y-850D02*
Y-595D01*
X15275Y-850D02*
X15300Y-875D01*
X14095Y-500D02*
X14445Y-850D01*
X14175Y-1100D02*
Y-850D01*
X13625Y-1075D02*
Y-850D01*
X15300Y-1125D02*
Y-875D01*
X14725Y-1125D02*
Y-850D01*
X14150Y-1125D02*
X14175Y-1100D01*
X13575Y-1125D02*
X13625Y-1075D01*
X11275Y-1125D02*
Y-1000D01*
X11425Y-850D01*
X11850Y-1125D02*
Y-975D01*
X11975Y-850D01*
X14550Y-500D02*
X14700D01*
X14995Y-795D01*
X9475Y-500D02*
X9770Y-795D01*
X9300Y-500D02*
X9475D01*
X9770Y-850D02*
Y-795D01*
X8925Y-500D02*
X9220Y-795D01*
X8800Y-500D02*
X8925D01*
X9220Y-850D02*
Y-795D01*
X8425Y-500D02*
X8670Y-745D01*
X8300Y-500D02*
X8425D01*
X8670Y-850D02*
Y-745D01*
X7925Y-500D02*
X8120Y-695D01*
X7800Y-500D02*
X7925D01*
X8120Y-850D02*
Y-695D01*
X7425Y-500D02*
X7570Y-645D01*
X7300Y-500D02*
X7425D01*
X7570Y-850D02*
Y-645D01*
X6925Y-500D02*
X7020Y-595D01*
X6800Y-500D02*
X6925D01*
X7020Y-850D02*
Y-595D01*
X6425Y-500D02*
X6470Y-545D01*
X6300Y-500D02*
X6425D01*
X6470Y-850D02*
Y-545D01*
X5800Y-500D02*
X5920Y-620D01*
Y-850D02*
Y-620D01*
X4250Y-500D02*
X4570Y-820D01*
X4050Y-500D02*
X4250D01*
X4570Y-850D02*
Y-820D01*
X3725Y-500D02*
X4020Y-795D01*
X3550Y-500D02*
X3725D01*
X4020Y-850D02*
Y-795D01*
X3200Y-500D02*
X3470Y-770D01*
X3050Y-500D02*
X3200D01*
X3470Y-850D02*
Y-770D01*
X2675Y-500D02*
X2920Y-745D01*
X2550Y-500D02*
X2675D01*
X2920Y-850D02*
Y-745D01*
X2175Y-500D02*
X2370Y-695D01*
X2050Y-500D02*
X2175D01*
X2370Y-850D02*
Y-695D01*
X10050Y-850D02*
X10075Y-875D01*
X8925D02*
X8950Y-850D01*
X8350Y-900D02*
X8400Y-850D01*
X7775Y-925D02*
X7850Y-850D01*
X4850D02*
X4875Y-875D01*
X3725D02*
X3750Y-850D01*
X3150Y-900D02*
X3200Y-850D01*
X2575Y-925D02*
X2650Y-850D01*
X10075Y-1125D02*
Y-875D01*
X8925Y-1100D02*
Y-875D01*
X7775Y-1125D02*
Y-925D01*
X8350Y-1125D02*
Y-900D01*
X7175Y-1125D02*
Y-975D01*
X7300Y-850D01*
X4875Y-1125D02*
Y-875D01*
X4300Y-1125D02*
Y-850D01*
X3725Y-1125D02*
Y-875D01*
X3150Y-1125D02*
Y-900D01*
X2575Y-1125D02*
Y-925D01*
X1275Y-3025D02*
X1425Y-3175D01*
X2300Y-2925D02*
Y-2825D01*
X6600Y-1125D02*
Y-1000D01*
X6750Y-850D01*
X9500Y-1125D02*
Y-850D01*
X12425Y-1125D02*
Y-950D01*
X12525Y-850D01*
X13000Y-1125D02*
X13075Y-1050D01*
Y-850D01*
X2400Y-3775D02*
X2450Y-3725D01*
X2385Y-2635D02*
X2450Y-2700D01*
X2325Y-3775D02*
X2400D01*
X2025Y-2635D02*
X2385D01*
X2450Y-3725D02*
Y-2700D01*
X6025Y-1125D02*
Y-1025D01*
X6200Y-850D01*
D50*
X12028Y-4054D02*
D03*
D51*
X15350Y-6150D02*
D03*
X15025D02*
D03*
Y-6475D02*
D03*
X14275Y-5850D02*
D03*
X14125Y-5400D02*
D03*
X13950Y-5850D02*
D03*
X11032Y-2800D02*
D03*
X11286D02*
D03*
X12556Y-6400D02*
D03*
X12302D02*
D03*
X12048D02*
D03*
X11794D02*
D03*
X11540D02*
D03*
X10270D02*
D03*
X10016D02*
D03*
X9762D02*
D03*
X9508D02*
D03*
X9254D02*
D03*
X9000D02*
D03*
X8746D02*
D03*
X8492D02*
D03*
X8238D02*
D03*
X7984D02*
D03*
X7730D02*
D03*
X7476D02*
D03*
X7222D02*
D03*
X6968D02*
D03*
X6714D02*
D03*
X6460D02*
D03*
X6206D02*
D03*
X5952D02*
D03*
X5698D02*
D03*
X5444D02*
D03*
X5190D02*
D03*
X4936D02*
D03*
X4682D02*
D03*
X4428D02*
D03*
X4174D02*
D03*
X3920D02*
D03*
X3666D02*
D03*
X3412D02*
D03*
X3158D02*
D03*
X2904D02*
D03*
X12556Y-2800D02*
D03*
X12302D02*
D03*
X12048D02*
D03*
X11794D02*
D03*
X11540D02*
D03*
X10778D02*
D03*
X10524D02*
D03*
X10270D02*
D03*
X10016D02*
D03*
X9762D02*
D03*
X9508D02*
D03*
X9254D02*
D03*
X9000D02*
D03*
X8746D02*
D03*
X8492D02*
D03*
X8238D02*
D03*
X7984D02*
D03*
X7730D02*
D03*
X7476D02*
D03*
X7222D02*
D03*
X6968D02*
D03*
X6714D02*
D03*
X6460D02*
D03*
X6206D02*
D03*
X5952D02*
D03*
X5698D02*
D03*
X5444D02*
D03*
X5190D02*
D03*
X4936D02*
D03*
X4682D02*
D03*
X4428D02*
D03*
X4174D02*
D03*
X3920D02*
D03*
X3666D02*
D03*
X3412D02*
D03*
X3158D02*
D03*
X2904D02*
D03*
X13975Y-2421D02*
D03*
X14229Y-2675D02*
D03*
Y-2421D02*
D03*
X14483Y-2675D02*
D03*
Y-2421D02*
D03*
X14737Y-2675D02*
D03*
Y-2421D02*
D03*
X14991Y-2675D02*
D03*
Y-2421D02*
D03*
X11586Y-1846D02*
D03*
Y-2100D02*
D03*
X11332Y-1846D02*
D03*
Y-2100D02*
D03*
X11078Y-1846D02*
D03*
Y-2100D02*
D03*
X10824Y-1846D02*
D03*
Y-2100D02*
D03*
X10570Y-1846D02*
D03*
Y-2100D02*
D03*
X10316Y-1846D02*
D03*
Y-2100D02*
D03*
X10062Y-1846D02*
D03*
Y-2100D02*
D03*
X9808Y-1846D02*
D03*
Y-2100D02*
D03*
X9554Y-1846D02*
D03*
Y-2100D02*
D03*
X9300Y-1846D02*
D03*
X5161D02*
D03*
Y-2100D02*
D03*
X4907Y-1846D02*
D03*
Y-2100D02*
D03*
X4653Y-1846D02*
D03*
Y-2100D02*
D03*
X4399Y-1846D02*
D03*
Y-2100D02*
D03*
X4145Y-1846D02*
D03*
Y-2100D02*
D03*
X3891Y-1846D02*
D03*
Y-2100D02*
D03*
X3637Y-1846D02*
D03*
Y-2100D02*
D03*
X3383Y-1846D02*
D03*
Y-2100D02*
D03*
X3129Y-1846D02*
D03*
Y-2100D02*
D03*
X2875Y-1846D02*
D03*
X11454Y-7450D02*
D03*
X11708D02*
D03*
X11327Y-7700D02*
D03*
X11581D02*
D03*
X11835D02*
D03*
X15086Y-8071D02*
D03*
Y-8325D02*
D03*
X14832Y-8071D02*
D03*
Y-8325D02*
D03*
X14578Y-8071D02*
D03*
Y-8325D02*
D03*
X14324Y-8071D02*
D03*
X14070D02*
D03*
Y-8325D02*
D03*
X13816Y-8071D02*
D03*
Y-8325D02*
D03*
X13562Y-8071D02*
D03*
X13308D02*
D03*
X13054D02*
D03*
Y-8325D02*
D03*
X12800Y-8071D02*
D03*
X12821Y-7200D02*
D03*
X1700Y-2250D02*
D03*
X10524Y-6400D02*
D03*
X10778D02*
D03*
X11032D02*
D03*
X11286D02*
D03*
X13308Y-8325D02*
D03*
X13562D02*
D03*
X14324D02*
D03*
X7985Y-3690D02*
D03*
X10825Y-175D02*
D03*
X13550Y-6400D02*
D03*
X7650Y-3210D02*
D03*
X5900Y-3770D02*
D03*
X11275Y-4850D02*
D03*
D52*
X2650Y-6400D02*
D03*
Y-2800D02*
D03*
X13975Y-2675D02*
D03*
X9300Y-2100D02*
D03*
X2875D02*
D03*
X11200Y-7450D02*
D03*
X12800Y-8325D02*
D03*
X13075Y-7200D02*
D03*
D53*
X11010Y-8335D02*
D03*
X12025D02*
D03*
D54*
X575Y-2250D02*
D03*
Y-3350D02*
D03*
Y-3900D02*
D03*
Y-1700D02*
D03*
D55*
X1529Y-3025D02*
D03*
Y-2450D02*
D03*
D56*
X1275Y-3025D02*
D03*
Y-2450D02*
D03*
D57*
X850Y-4725D02*
D03*
D58*
X342D02*
D03*
D59*
X490Y-1225D02*
D03*
X1250D02*
D03*
X2275Y-6825D02*
D03*
D60*
X7300Y-500D02*
D03*
X7800D02*
D03*
X8300D02*
D03*
X8800D02*
D03*
X9300D02*
D03*
X9800D02*
D03*
X11050D02*
D03*
X11550D02*
D03*
X12050D02*
D03*
X550D02*
D03*
X1050D02*
D03*
X1550D02*
D03*
X2050D02*
D03*
X2550D02*
D03*
X3050D02*
D03*
X3550D02*
D03*
X4050D02*
D03*
X4550D02*
D03*
X5800D02*
D03*
X6300D02*
D03*
X6800D02*
D03*
X12550D02*
D03*
X13050D02*
D03*
X13550D02*
D03*
X14050D02*
D03*
X14550D02*
D03*
X15050D02*
D03*
X1550Y-8175D02*
D03*
X1050D02*
D03*
X550D02*
D03*
X3050D02*
D03*
X2550D02*
D03*
X2050D02*
D03*
X4550D02*
D03*
X4050D02*
D03*
X3550D02*
D03*
X6800D02*
D03*
X6300D02*
D03*
X5800D02*
D03*
X8300D02*
D03*
X7800D02*
D03*
X7300D02*
D03*
X9800D02*
D03*
X9300D02*
D03*
X8800D02*
D03*
D61*
X10250Y-3800D02*
D03*
D62*
Y-4054D02*
D03*
Y-4308D02*
D03*
D63*
X2050Y-2400D02*
D03*
D64*
X10650Y-7375D02*
D03*
X9550Y-3850D02*
D03*
Y-4030D02*
D03*
X11725Y-5250D02*
D03*
X11975D02*
D03*
X12225D02*
D03*
X12500D02*
D03*
Y-5500D02*
D03*
X12250D02*
D03*
X12000D02*
D03*
X11750D02*
D03*
X11500D02*
D03*
Y-5250D02*
D03*
Y-5000D02*
D03*
X11750D02*
D03*
X12000D02*
D03*
X12250D02*
D03*
X12500D02*
D03*
Y-4750D02*
D03*
X12250D02*
D03*
X12000D02*
D03*
X11750D02*
D03*
X11500D02*
D03*
X4075Y-4075D02*
D03*
X4350Y-3975D02*
D03*
X5025Y-4100D02*
D03*
X9800Y-4030D02*
D03*
Y-3850D02*
D03*
Y-3650D02*
D03*
X9550D02*
D03*
X9300D02*
D03*
X9050D02*
D03*
X8830Y-3650D02*
D03*
X700Y-2900D02*
D03*
Y-2650D02*
D03*
X1400Y-4470D02*
D03*
X1200D02*
D03*
X1300Y-3850D02*
D03*
Y-3600D02*
D03*
Y-3350D02*
D03*
X1536Y-3811D02*
D03*
X1530Y-3600D02*
D03*
Y-3350D02*
D03*
X970Y-4400D02*
D03*
Y-4150D02*
D03*
Y-3900D02*
D03*
Y-3650D02*
D03*
Y-3400D02*
D03*
Y-3150D02*
D03*
Y-2900D02*
D03*
Y-2650D02*
D03*
Y-2400D02*
D03*
X10650Y-7600D02*
D03*
X7250Y-6850D02*
D03*
X7950Y-6900D02*
D03*
X3400Y-6800D02*
D03*
X3000D02*
D03*
X6950Y-1125D02*
D03*
X7550D02*
D03*
X8125D02*
D03*
X8700D02*
D03*
X9300D02*
D03*
X3525D02*
D03*
X4100D02*
D03*
X11525Y-5975D02*
D03*
X13575Y-4400D02*
D03*
X14050Y-4550D02*
D03*
X14300D02*
D03*
X14575Y-4600D02*
D03*
X14900D02*
D03*
X1800Y-1275D02*
D03*
X200Y-7075D02*
D03*
X500Y-6325D02*
D03*
X825D02*
D03*
X1300Y-6300D02*
D03*
X1950Y-5875D02*
D03*
X2375D02*
D03*
X2625D02*
D03*
X3000Y-5850D02*
D03*
X5425Y-7925D02*
D03*
X4300Y-7200D02*
D03*
X4700Y-7250D02*
D03*
X6075Y-7600D02*
D03*
X6550Y-7000D02*
D03*
X7550Y-7250D02*
D03*
X8050Y-7300D02*
D03*
X6050Y-7225D02*
D03*
X6575Y-7600D02*
D03*
X3550Y-6575D02*
D03*
X5350Y-6925D02*
D03*
X6975Y-6700D02*
D03*
X11875Y-1375D02*
D03*
X11700Y-1350D02*
D03*
X11575Y-1300D02*
D03*
X12800Y-200D02*
D03*
X12300D02*
D03*
X7525Y-1600D02*
D03*
X8450Y-1675D02*
D03*
X9380Y-1600D02*
D03*
X6000Y-1800D02*
D03*
X7830Y-1950D02*
D03*
X2675Y-1475D02*
D03*
X3525Y-1425D02*
D03*
X4425Y-1575D02*
D03*
X5400Y-1850D02*
D03*
X5875Y-1925D02*
D03*
X6100Y-1900D02*
D03*
X6825D02*
D03*
X6875Y-2075D02*
D03*
X7830Y-2100D02*
D03*
X7975Y-1825D02*
D03*
X8675Y-2025D02*
D03*
X5900Y-2150D02*
D03*
X8790Y-1900D02*
D03*
X2475Y-1475D02*
D03*
X3100D02*
D03*
X5225Y-1245D02*
D03*
X6250Y-1520D02*
D03*
X6575Y-1350D02*
D03*
X7300Y-1525D02*
D03*
X8225Y-1500D02*
D03*
X8975Y-1750D02*
D03*
X2950Y-1125D02*
D03*
X1600Y-4470D02*
D03*
X1775Y-4470D02*
D03*
X1975D02*
D03*
X2130Y-4300D02*
D03*
X3775Y-3975D02*
D03*
X4653Y-2478D02*
D03*
X15250Y-1600D02*
D03*
X14425Y-1550D02*
D03*
X13475Y-2550D02*
D03*
X14775Y-2225D02*
D03*
X11775Y-2075D02*
D03*
D65*
X1600Y-2775D02*
D03*
X2029Y-3004D02*
D03*
X8400Y-5175D02*
D03*
X10175Y-5325D02*
D03*
X9725D02*
D03*
X9250D02*
D03*
X8746Y-5304D02*
D03*
X3675Y-5325D02*
D03*
X13875Y-4850D02*
D03*
X13125Y-5825D02*
D03*
X12925Y-5200D02*
D03*
X15225Y-5075D02*
D03*
X15175Y-4875D02*
D03*
X12850Y-4250D02*
D03*
X14475Y-4700D02*
D03*
X13650D02*
D03*
X12775Y-4475D02*
D03*
X14150Y-4750D02*
D03*
X2450Y-2425D02*
D03*
X2000Y-4900D02*
D03*
X1625Y-4975D02*
D03*
X1150Y-5050D02*
D03*
X750Y-5125D02*
D03*
X3150Y-5300D02*
D03*
X2725D02*
D03*
X1871Y-5304D02*
D03*
X2296Y-5296D02*
D03*
X1450Y-5300D02*
D03*
X1000D02*
D03*
X600D02*
D03*
X3300Y-4500D02*
D03*
X6650Y-4375D02*
D03*
X3800Y-5900D02*
D03*
X7200Y-4475D02*
D03*
X4050Y-6150D02*
D03*
X7625Y-4450D02*
D03*
X4550Y-6600D02*
D03*
X2900Y-2475D02*
D03*
X4525Y-2550D02*
D03*
X4775Y-2600D02*
D03*
X4925Y-2550D02*
D03*
X5050Y-2475D02*
D03*
X5175Y-2450D02*
D03*
X5725Y-2950D02*
D03*
D66*
X2325Y-3775D02*
D03*
D67*
X7010Y-7490D02*
D03*
X12225Y-1250D02*
D03*
X12775Y-1125D02*
D03*
X12200Y-1100D02*
D03*
X5200Y-1500D02*
D03*
X13550Y-1525D02*
D03*
X13154Y-1521D02*
D03*
X12675Y-1550D02*
D03*
D68*
X9300Y-7820D02*
D03*
X9395Y-7580D02*
D03*
X9205D02*
D03*
X8800Y-7820D02*
D03*
X8895Y-7580D02*
D03*
X8705D02*
D03*
X8300Y-7820D02*
D03*
X8395Y-7580D02*
D03*
X8205D02*
D03*
X7800Y-7820D02*
D03*
X7895Y-7580D02*
D03*
X7705D02*
D03*
X7300Y-7820D02*
D03*
X7395Y-7580D02*
D03*
X7205D02*
D03*
X6800Y-7820D02*
D03*
X6895Y-7580D02*
D03*
X6705D02*
D03*
X6300Y-7820D02*
D03*
X6395Y-7580D02*
D03*
X6205D02*
D03*
X5800Y-7820D02*
D03*
X5895Y-7580D02*
D03*
X5705D02*
D03*
X4050Y-7820D02*
D03*
X4145Y-7580D02*
D03*
X3955D02*
D03*
X3550Y-7820D02*
D03*
X3645Y-7580D02*
D03*
X3455D02*
D03*
X3050Y-7820D02*
D03*
X3145Y-7580D02*
D03*
X2955D02*
D03*
X2550Y-7820D02*
D03*
X2645Y-7580D02*
D03*
X2455D02*
D03*
X2050Y-7820D02*
D03*
X2145Y-7580D02*
D03*
X1955D02*
D03*
X1550Y-7820D02*
D03*
X1645Y-7580D02*
D03*
X1455D02*
D03*
X1050Y-7820D02*
D03*
X1145Y-7580D02*
D03*
X955D02*
D03*
X550Y-7820D02*
D03*
X645Y-7580D02*
D03*
X455D02*
D03*
D69*
X14995Y-850D02*
D03*
X15275D02*
D03*
X14445D02*
D03*
X14725D02*
D03*
X13895D02*
D03*
X14175D02*
D03*
X13345D02*
D03*
X13625D02*
D03*
X12795D02*
D03*
X13075D02*
D03*
X12245D02*
D03*
X12525D02*
D03*
X11695D02*
D03*
X11975D02*
D03*
X11145D02*
D03*
X11425D02*
D03*
X9770D02*
D03*
X10050D02*
D03*
X9220D02*
D03*
X9500D02*
D03*
X8670D02*
D03*
X8950D02*
D03*
X8120D02*
D03*
X8400D02*
D03*
X7570D02*
D03*
X7850D02*
D03*
X7020D02*
D03*
X7300D02*
D03*
X6470D02*
D03*
X6750D02*
D03*
X5920D02*
D03*
X6200D02*
D03*
X4570D02*
D03*
X4850D02*
D03*
X4020D02*
D03*
X4300D02*
D03*
X3470D02*
D03*
X3750D02*
D03*
X2920D02*
D03*
X3200D02*
D03*
X2370D02*
D03*
X2650D02*
D03*
X1820D02*
D03*
X2100D02*
D03*
D70*
X14955Y-1125D02*
D03*
X15300D02*
D03*
X14380D02*
D03*
X14725D02*
D03*
X13805D02*
D03*
X14150D02*
D03*
X13230D02*
D03*
X13575D02*
D03*
X12655D02*
D03*
X13000D02*
D03*
X12080D02*
D03*
X11505D02*
D03*
X11850D02*
D03*
X10930D02*
D03*
X11275D02*
D03*
X9730D02*
D03*
X10075D02*
D03*
X9155D02*
D03*
X9500D02*
D03*
X8580D02*
D03*
X8925D02*
D03*
X8005D02*
D03*
X8350D02*
D03*
X7430D02*
D03*
X7775D02*
D03*
X6830D02*
D03*
X7175D02*
D03*
X6255D02*
D03*
X6600D02*
D03*
X5680D02*
D03*
X6025D02*
D03*
X4530D02*
D03*
X4875D02*
D03*
X3955D02*
D03*
X4300D02*
D03*
X3380D02*
D03*
X3725D02*
D03*
X2805D02*
D03*
X3150D02*
D03*
X2230D02*
D03*
X2575D02*
D03*
X1655D02*
D03*
X2000D02*
D03*
D71*
X12425D02*
D03*
D72*
X3960Y-6990D02*
X4025Y-6925D01*
X4875D02*
X5050Y-7100D01*
X5710Y-6990D02*
X5875Y-6825D01*
X3960Y-7100D02*
Y-6990D01*
X4485Y-7100D02*
Y-6935D01*
X4475Y-6925D02*
X4485Y-6935D01*
X5050Y-7100D02*
X5710D01*
X4025Y-6925D02*
X4875D01*
X7150Y-6725D02*
X7775D01*
X5710Y-7100D02*
Y-6990D01*
X6210Y-7100D02*
Y-6840D01*
X6225Y-6825D01*
X6710Y-7100D02*
Y-6840D01*
X6725Y-6825D01*
X7775Y-6725D02*
X7950Y-6900D01*
X7050Y-6825D02*
X7150Y-6725D01*
X5875Y-6825D02*
X7050D01*
M02*
