METRIC,LZ
M48
T1F00S00C0.30
T2F00S00C0.50
T3F00S00C0.60
T4F00S00C0.80
T5F00S00C0.90
T6F00S00C1.00
T7F00S00C1.10
T8F00S00C1.30
T9F00S00C1.50
T10F00S00C4.00
T11F00S00C3.25
%
T01
X00075Y-005125
X0006Y-0053
X001
X00115Y-00505
X001625Y-004975
X002Y-0049
X001871Y-005304
X00145Y-0053
X002296Y-005296
X002725Y-0053
X00315
X003675Y-005325
X0038Y-0059
X00405Y-00615
X00455Y-0066
X0033Y-0045
X0072Y-004475
X007625Y-00445
X0084Y-005175
X008746Y-005304
X00925Y-005325
X009725
X010175
X012925Y-0052
X013125Y-005825
X01365Y-0047
X013875Y-00485
X01415Y-00475
X014475Y-0047
X012775Y-004475
X015175Y-004875
X015225Y-005075
X01285Y-00425
X00665Y-004375
X005725Y-00295
X005175Y-00245
X00505Y-002475
X004925Y-00255
X004775Y-0026
X004525Y-00255
X0029Y-002475
X00245Y-002425
X002029Y-003004
X0016Y-002775
T02
X00097Y-0044
X0012Y-00447
X0014
X0016
X001775Y-00447
X001975
X00195Y-005875
X002375
X002625
X0013Y-0063
X000825Y-006325
X0005
X0002Y-007075
X003Y-0068
X0034
X00355Y-006575
X003Y-00585
X0043Y-0072
X0047Y-00725
X00535Y-006925
X00605Y-007225
X006075Y-0076
X006575
X00655Y-007
X005425Y-007925
X00701Y-00749
X00755Y-00725
X00805Y-0073
X00795Y-0069
X00725Y-00685
X006975Y-0067
X01065Y-007375
Y-0076
X011525Y-005975
X0115Y-0055
X01175
X012
X01225
X0125
Y-00525
Y-005
X01225
X012
X01175
X0115
Y-00525
X011725
X011975
X012225
X01225Y-00475
X0125
X012
X01175
X0115
X013575Y-0044
X01405Y-00455
X0143
X014575Y-0046
X0149
X01525Y-0016
X014425Y-00155
X01355Y-001525
X013154Y-001521
X012675Y-00155
X012775Y-001125
X0122Y-0011
X012225Y-00125
X011875Y-001375
X0117Y-00135
X011575Y-0013
X011775Y-002075
X013475Y-00255
X014775Y-002225
X00938Y-0016
X008975Y-00175
X00879Y-0019
X008675Y-002025
X00845Y-001675
X008225Y-0015
X008125Y-001125
X00755
X007525Y-0016
X0073Y-001525
X00695Y-001125
X00783Y-00195
Y-0021
X007975Y-001825
X0087Y-001125
X0093
Y-00365
X00955
Y-00385
Y-00403
X0098
Y-00385
Y-00365
X00905
X00883Y-00365
X006875Y-002075
X006825Y-0019
X0061
X006Y-0018
X005875Y-001925
X0059Y-00215
X0054Y-00185
X0052Y-0015
X005225Y-001245
X004425Y-001575
X0041Y-001125
X003525
Y-001425
X0031Y-001475
X00295Y-001125
X004653Y-002478
X00435Y-003975
X004075Y-004075
X003775Y-003975
X005025Y-0041
X00625Y-00152
X006575Y-00135
X002675Y-001475
X002475
X0018Y-001275
X00097Y-0024
Y-00265
Y-0029
Y-00315
Y-0034
Y-00365
Y-0039
Y-00415
X0013Y-00385
Y-0036
X00153
X001536Y-003811
X00153Y-00335
X0013
X0007Y-0029
Y-00265
X00213Y-0043
X0123Y-0002
X0128
T03
X002325Y-003775
T04
X001275Y-00245
X001529
X00205Y-0024
X001529Y-003025
X001275
T05
X00265Y-0064
X002904
X003158
X003412
X003666
X00392
X004174
X004428
X004682
X004936
X00519
X005444
X005698
X005952
X006206
X00646
X006714
X006968
X007222
X007476
X00773
X007984
X008238
X008492
X008746
X009
X009254
X009508
X009762
X010016
X01027
X010524
X010778
X011032
X011286
X01154
X011794
X012048
X012302
X012556
X012821Y-0072
X013075
X013054Y-008071
X013308
X013562
X013816
X01407
X014324
X014578
Y-008325
X014324
X01407
X013816
X013562
X013308
X013054
X0128
Y-008071
X011835Y-0077
X011581
X011327
X0112Y-00745
X011454
X011708
X01395Y-00585
X014275
X014125Y-0054
X015025Y-00615
X01535
X015025Y-006475
X015086Y-008071
Y-008325
X014832
Y-008071
X014991Y-002675
Y-002421
X014737
X014483
X014229
X013975
Y-002675
X014229
X014483
X014737
X012556Y-0028
X012302
X012048
X011794
X01154
X011286
X011032
X011078Y-0021
X011332
X011586
Y-001846
X011332
X011078
X010824
Y-0021
X01057
Y-001846
X010316
Y-0021
X010062
Y-001846
X009808
Y-0021
X009554
Y-001846
X0093
Y-0021
X009254Y-0028
X009508
X009762
X010016
X01027
X010524
X010778
X009
X008746
X008492
X008238
X007984
X00773
X007476
X007222
X006968
X006714
X00646
X006206
X005952
X005698
X005444
X00519
X004936
X004682
X004428
X004174
X00392
X003666
X003412
X003158
X003129Y-0021
X003383
X003637
X003891
X004145
X004399
X004653
X004907
X005161
Y-001846
X004907
X004653
X004399
X004145
X003891
X003637
X003383
X003129
X002875
Y-0021
X002904Y-0028
X00265
X0017Y-00225
T06
X000342Y-004725
X00085
X002275Y-006825
X011275Y-00485
X01355Y-0064
X007985Y-00369
X00765Y-00321
X0059Y-00377
X00125Y-001225
X00049
X010825Y-000175
T07
X01025Y-0038
Y-004054
Y-004308
T08
X00055Y-008175
X00105
X00155
X00205
X00255
X00305
X00355
X00405
X00455
X0058
X0063
X0068
X0073
X0078
X0083
X0088
X0093
X0098
X01505Y-0005
X01455
X01405
X01355
X01305
X01255
X01205
X01155
X01105
X0098
X0093
X0088
X0083
X0078
X0073
X0068
X0063
X0058
X00455
X00405
X00355
X00305
X00255
X00205
X00155
X00105
X00055
T09
X000575Y-0017
Y-00225
Y-00335
Y-0039
T10
X012028Y-004054
T11
X01101Y-008335
X012025
M30
