%FSLAX42Y42*%
%MOMM*%
G71*
G01*
G75*
%ADD10C,0.20*%
%ADD11O,1.00X1.80*%
%ADD12R,1.00X1.80*%
%ADD13R,3.40X3.00*%
%ADD14R,1.10X1.00*%
%ADD15R,2.20X0.60*%
%ADD16R,1.50X1.30*%
%ADD17R,2.70X3.00*%
%ADD18R,2.60X2.00*%
%ADD19R,1.80X1.00*%
%ADD20O,1.80X1.00*%
%ADD21R,1.30X1.50*%
%ADD22R,1.00X0.85*%
%ADD23R,4.00X3.50*%
%ADD24R,2.00X1.00*%
%ADD25R,7.00X2.80*%
%ADD26R,0.60X1.50*%
%ADD27R,1.80X1.60*%
%ADD28R,2.50X2.70*%
%ADD29R,17.00X11.00*%
%ADD30C,0.25*%
%ADD31C,1.50*%
%ADD32C,2.00*%
%ADD33C,0.30*%
%ADD34C,1.00*%
%ADD35C,0.80*%
%ADD36C,0.40*%
%ADD37C,0.50*%
%ADD38R,3.00X11.50*%
%ADD39R,12.25X11.00*%
%ADD40R,13.50X1.20*%
%ADD41R,3.00X4.40*%
%ADD42R,0.80X4.00*%
%ADD43R,4.55X0.80*%
%ADD44R,7.75X5.25*%
%ADD45R,11.50X1.75*%
%ADD46R,11.75X1.25*%
%ADD47R,2.25X3.90*%
%ADD48R,3.50X23.00*%
%ADD49R,8.25X7.00*%
%ADD50C,4.50*%
%ADD51C,1.50*%
%ADD52R,1.50X1.50*%
%ADD53C,3.25*%
%ADD54C,3.00*%
%ADD55R,1.30X1.30*%
%ADD56C,1.30*%
%ADD57R,1.60X1.60*%
%ADD58C,1.60*%
%ADD59C,2.00*%
%ADD60C,2.50*%
%ADD61R,1.70X1.70*%
%ADD62C,1.70*%
%ADD63C,1.40*%
%ADD64C,1.00*%
%ADD65C,0.60*%
%ADD66C,1.20*%
%ADD67C,0.90*%
%ADD68R,0.85X1.00*%
%ADD69R,1.60X1.80*%
%ADD70R,1.25X1.60*%
%ADD71O,1.25X1.60*%
%ADD72C,0.60*%
%ADD73C,0.25*%
%ADD74R,0.68X5.20*%
%ADD75C,0.13*%
%ADD76R,0.80X0.50*%
%ADD77R,1.61X0.20*%
%ADD78C,0.06*%
%ADD79R,1.70X0.40*%
%ADD80R,7.00X1.50*%
%ADD81R,3.00X12.00*%
%ADD82R,2.00X2.00*%
%ADD83R,2.00X2.00*%
D10*
X14957Y-1725D02*
G03*
X14957Y-1645I0J40D01*
G01*
X14532Y-1725D02*
G03*
X14532Y-1645I0J40D01*
G01*
X14107Y-1725D02*
G03*
X14107Y-1645I0J40D01*
G01*
X13682Y-1725D02*
G03*
X13682Y-1645I0J40D01*
G01*
X13257Y-1725D02*
G03*
X13257Y-1645I0J40D01*
G01*
X12832Y-1725D02*
G03*
X12832Y-1645I0J40D01*
G01*
X12407Y-1725D02*
G03*
X12407Y-1645I0J40D01*
G01*
X11982Y-1725D02*
G03*
X11982Y-1645I0J40D01*
G01*
X9300Y-1307D02*
G03*
X9380Y-1307I40J0D01*
G01*
X8700Y-1883D02*
G03*
X8780Y-1883I40J0D01*
G01*
X8375Y-1307D02*
G03*
X8455Y-1307I40J0D01*
G01*
X7775Y-1883D02*
G03*
X7855Y-1883I40J0D01*
G01*
X7450Y-1307D02*
G03*
X7530Y-1307I40J0D01*
G01*
X6850Y-1883D02*
G03*
X6930Y-1883I40J0D01*
G01*
X6525Y-1307D02*
G03*
X6605Y-1307I40J0D01*
G01*
X5925Y-1883D02*
G03*
X6005Y-1883I40J0D01*
G01*
X5250Y-1282D02*
G03*
X5330Y-1282I40J0D01*
G01*
X4375D02*
G03*
X4455Y-1282I40J0D01*
G01*
X3500D02*
G03*
X3580Y-1282I40J0D01*
G01*
X2625D02*
G03*
X2705Y-1282I40J0D01*
G01*
X2225Y-1758D02*
G03*
X2305Y-1758I40J0D01*
G01*
X1750Y-1282D02*
G03*
X1830Y-1282I40J0D01*
G01*
X1865Y-2935D02*
Y-2775D01*
X1635Y-2935D02*
Y-2775D01*
Y-2935D02*
X1865D01*
X1635Y-2535D02*
X1865D01*
Y-2695D02*
Y-2535D01*
X1635Y-2695D02*
Y-2535D01*
X1910Y-2690D02*
Y-2530D01*
X2140Y-2690D02*
Y-2530D01*
X1910D02*
X2140D01*
X1910Y-2930D02*
X2140D01*
X1910D02*
Y-2770D01*
X2140Y-2930D02*
Y-2770D01*
X2185Y-2690D02*
Y-2530D01*
X2415Y-2690D02*
Y-2530D01*
X2185D02*
X2415D01*
X2185Y-2930D02*
X2415D01*
X2185D02*
Y-2770D01*
X2415Y-2930D02*
Y-2770D01*
X9105Y-7465D02*
X9265D01*
X9105Y-7235D02*
X9265D01*
X9105Y-7465D02*
Y-7235D01*
X9505Y-7465D02*
Y-7235D01*
X9345Y-7465D02*
X9505D01*
X9345Y-7235D02*
X9505D01*
X8605Y-7465D02*
X8765D01*
X8605Y-7235D02*
X8765D01*
X8605Y-7465D02*
Y-7235D01*
X9005Y-7465D02*
Y-7235D01*
X8845Y-7465D02*
X9005D01*
X8845Y-7235D02*
X9005D01*
X8105Y-7465D02*
X8265D01*
X8105Y-7235D02*
X8265D01*
X8105Y-7465D02*
Y-7235D01*
X8505Y-7465D02*
Y-7235D01*
X8345Y-7465D02*
X8505D01*
X8345Y-7235D02*
X8505D01*
X7605Y-7465D02*
X7765D01*
X7605Y-7235D02*
X7765D01*
X7605Y-7465D02*
Y-7235D01*
X8005Y-7465D02*
Y-7235D01*
X7845Y-7465D02*
X8005D01*
X7845Y-7235D02*
X8005D01*
X7105Y-7465D02*
X7265D01*
X7105Y-7235D02*
X7265D01*
X7105Y-7465D02*
Y-7235D01*
X7505Y-7465D02*
Y-7235D01*
X7345Y-7465D02*
X7505D01*
X7345Y-7235D02*
X7505D01*
X6605Y-7465D02*
X6765D01*
X6605Y-7235D02*
X6765D01*
X6605Y-7465D02*
Y-7235D01*
X7005Y-7465D02*
Y-7235D01*
X6845Y-7465D02*
X7005D01*
X6845Y-7235D02*
X7005D01*
X6105Y-7465D02*
X6265D01*
X6105Y-7235D02*
X6265D01*
X6105Y-7465D02*
Y-7235D01*
X6505Y-7465D02*
Y-7235D01*
X6345Y-7465D02*
X6505D01*
X6345Y-7235D02*
X6505D01*
X5605Y-7465D02*
X5765D01*
X5605Y-7235D02*
X5765D01*
X5605Y-7465D02*
Y-7235D01*
X6005Y-7465D02*
Y-7235D01*
X5845Y-7465D02*
X6005D01*
X5845Y-7235D02*
X6005D01*
X3855Y-7465D02*
X4015D01*
X3855Y-7235D02*
X4015D01*
X3855Y-7465D02*
Y-7235D01*
X4255Y-7465D02*
Y-7235D01*
X4095Y-7465D02*
X4255D01*
X4095Y-7235D02*
X4255D01*
X3355Y-7465D02*
X3515D01*
X3355Y-7235D02*
X3515D01*
X3355Y-7465D02*
Y-7235D01*
X3755Y-7465D02*
Y-7235D01*
X3595Y-7465D02*
X3755D01*
X3595Y-7235D02*
X3755D01*
X2855Y-7465D02*
X3015D01*
X2855Y-7235D02*
X3015D01*
X2855Y-7465D02*
Y-7235D01*
X3255Y-7465D02*
Y-7235D01*
X3095Y-7465D02*
X3255D01*
X3095Y-7235D02*
X3255D01*
X2355Y-7465D02*
X2515D01*
X2355Y-7235D02*
X2515D01*
X2355Y-7465D02*
Y-7235D01*
X2755Y-7465D02*
Y-7235D01*
X2595Y-7465D02*
X2755D01*
X2595Y-7235D02*
X2755D01*
X1855Y-7465D02*
X2015D01*
X1855Y-7235D02*
X2015D01*
X1855Y-7465D02*
Y-7235D01*
X2255Y-7465D02*
Y-7235D01*
X2095Y-7465D02*
X2255D01*
X2095Y-7235D02*
X2255D01*
X1355Y-7465D02*
X1515D01*
X1355Y-7235D02*
X1515D01*
X1355Y-7465D02*
Y-7235D01*
X1755Y-7465D02*
Y-7235D01*
X1595Y-7465D02*
X1755D01*
X1595Y-7235D02*
X1755D01*
X355Y-7465D02*
X515D01*
X355Y-7235D02*
X515D01*
X355Y-7465D02*
Y-7235D01*
X755Y-7465D02*
Y-7235D01*
X595Y-7465D02*
X755D01*
X595Y-7235D02*
X755D01*
X855Y-7465D02*
X1015D01*
X855Y-7235D02*
X1015D01*
X855Y-7465D02*
Y-7235D01*
X1255Y-7465D02*
Y-7235D01*
X1095Y-7465D02*
X1255D01*
X1095Y-7235D02*
X1255D01*
X9100Y-7910D02*
X9500D01*
Y-7490D01*
X9100D02*
X9500D01*
X9100Y-7910D02*
Y-7490D01*
X8600Y-7910D02*
X9000D01*
Y-7490D01*
X8600D02*
X9000D01*
X8600Y-7910D02*
Y-7490D01*
X8100Y-7910D02*
X8500D01*
Y-7490D01*
X8100D02*
X8500D01*
X8100Y-7910D02*
Y-7490D01*
X7600Y-7910D02*
X8000D01*
Y-7490D01*
X7600D02*
X8000D01*
X7600Y-7910D02*
Y-7490D01*
X7100Y-7910D02*
X7500D01*
Y-7490D01*
X7100D02*
X7500D01*
X7100Y-7910D02*
Y-7490D01*
X6600Y-7910D02*
X7000D01*
Y-7490D01*
X6600D02*
X7000D01*
X6600Y-7910D02*
Y-7490D01*
X6100Y-7910D02*
X6500D01*
Y-7490D01*
X6100D02*
X6500D01*
X6100Y-7910D02*
Y-7490D01*
X5600Y-7910D02*
X6000D01*
Y-7490D01*
X5600D02*
X6000D01*
X5600Y-7910D02*
Y-7490D01*
X3850Y-7910D02*
X4250D01*
Y-7490D01*
X3850D02*
X4250D01*
X3850Y-7910D02*
Y-7490D01*
X3350Y-7910D02*
X3750D01*
Y-7490D01*
X3350D02*
X3750D01*
X3350Y-7910D02*
Y-7490D01*
X2850Y-7910D02*
X3250D01*
Y-7490D01*
X2850D02*
X3250D01*
X2850Y-7910D02*
Y-7490D01*
X2350Y-7910D02*
X2750D01*
Y-7490D01*
X2350D02*
X2750D01*
X2350Y-7910D02*
Y-7490D01*
X1850Y-7910D02*
X2250D01*
Y-7490D01*
X1850D02*
X2250D01*
X1850Y-7910D02*
Y-7490D01*
X1350Y-7910D02*
X1750D01*
Y-7490D01*
X1350D02*
X1750D01*
X1350Y-7910D02*
Y-7490D01*
X850Y-7910D02*
X1250D01*
Y-7490D01*
X850D02*
X1250D01*
X850Y-7910D02*
Y-7490D01*
X350Y-7910D02*
X750D01*
Y-7490D01*
X350D02*
X750D01*
X350Y-7910D02*
Y-7490D01*
X3355Y-7215D02*
X3515D01*
X3355Y-6985D02*
X3515D01*
X3355Y-7215D02*
Y-6985D01*
X3755Y-7215D02*
Y-6985D01*
X3595Y-7215D02*
X3755D01*
X3595Y-6985D02*
X3755D01*
X3855Y-7215D02*
X4015D01*
X3855Y-6985D02*
X4015D01*
X3855Y-7215D02*
Y-6985D01*
X4255Y-7215D02*
Y-6985D01*
X4095Y-7215D02*
X4255D01*
X4095Y-6985D02*
X4255D01*
X4380Y-7215D02*
X4540D01*
X4380Y-6985D02*
X4540D01*
X4380Y-7215D02*
Y-6985D01*
X4780Y-7215D02*
Y-6985D01*
X4620Y-7215D02*
X4780D01*
X4620Y-6985D02*
X4780D01*
X5605Y-7215D02*
X5765D01*
X5605Y-6985D02*
X5765D01*
X5605Y-7215D02*
Y-6985D01*
X6005Y-7215D02*
Y-6985D01*
X5845Y-7215D02*
X6005D01*
X5845Y-6985D02*
X6005D01*
X6105Y-7215D02*
X6265D01*
X6105Y-6985D02*
X6265D01*
X6105Y-7215D02*
Y-6985D01*
X6505Y-7215D02*
Y-6985D01*
X6345Y-7215D02*
X6505D01*
X6345Y-6985D02*
X6505D01*
X6605Y-7215D02*
X6765D01*
X6605Y-6985D02*
X6765D01*
X6605Y-7215D02*
Y-6985D01*
X7005Y-7215D02*
Y-6985D01*
X6845Y-7215D02*
X7005D01*
X6845Y-6985D02*
X7005D01*
X14875Y-980D02*
Y-720D01*
X15395Y-980D02*
Y-720D01*
X15205Y-980D02*
X15395D01*
X15205Y-720D02*
X15395D01*
X14875Y-980D02*
X15065D01*
X14875Y-720D02*
X15065D01*
X14325Y-980D02*
Y-720D01*
X14845Y-980D02*
Y-720D01*
X14655Y-980D02*
X14845D01*
X14655Y-720D02*
X14845D01*
X14325Y-980D02*
X14515D01*
X14325Y-720D02*
X14515D01*
X13775Y-980D02*
Y-720D01*
X14295Y-980D02*
Y-720D01*
X14105Y-980D02*
X14295D01*
X14105Y-720D02*
X14295D01*
X13775Y-980D02*
X13965D01*
X13775Y-720D02*
X13965D01*
X13225Y-980D02*
Y-720D01*
X13745Y-980D02*
Y-720D01*
X13555Y-980D02*
X13745D01*
X13555Y-720D02*
X13745D01*
X13225Y-980D02*
X13415D01*
X13225Y-720D02*
X13415D01*
X12675Y-980D02*
Y-720D01*
X13195Y-980D02*
Y-720D01*
X13005Y-980D02*
X13195D01*
X13005Y-720D02*
X13195D01*
X12675Y-980D02*
X12865D01*
X12675Y-720D02*
X12865D01*
X12125Y-980D02*
Y-720D01*
X12645Y-980D02*
Y-720D01*
X12455Y-980D02*
X12645D01*
X12455Y-720D02*
X12645D01*
X12125Y-980D02*
X12315D01*
X12125Y-720D02*
X12315D01*
X11575Y-980D02*
Y-720D01*
X12095Y-980D02*
Y-720D01*
X11905Y-980D02*
X12095D01*
X11905Y-720D02*
X12095D01*
X11575Y-980D02*
X11765D01*
X11575Y-720D02*
X11765D01*
X11025Y-980D02*
Y-720D01*
X11545Y-980D02*
Y-720D01*
X11355Y-980D02*
X11545D01*
X11355Y-720D02*
X11545D01*
X11025Y-980D02*
X11215D01*
X11025Y-720D02*
X11215D01*
X15200Y-1245D02*
Y-1005D01*
X15248Y-1006D02*
X15372D01*
X15248Y-1244D02*
X15372D01*
X14852Y-1245D02*
X15007D01*
X15402Y-1212D02*
Y-1038D01*
X14852Y-1005D02*
X15007D01*
X14852Y-1245D02*
Y-1005D01*
X15372Y-1006D02*
X15403Y-1038D01*
X15372Y-1244D02*
X15403Y-1212D01*
X14625Y-1245D02*
Y-1005D01*
X14673Y-1006D02*
X14797D01*
X14673Y-1244D02*
X14797D01*
X14277Y-1245D02*
X14432D01*
X14827Y-1212D02*
Y-1038D01*
X14277Y-1005D02*
X14432D01*
X14277Y-1245D02*
Y-1005D01*
X14797Y-1006D02*
X14828Y-1038D01*
X14797Y-1244D02*
X14828Y-1212D01*
X14050Y-1245D02*
Y-1005D01*
X14098Y-1006D02*
X14222D01*
X14098Y-1244D02*
X14222D01*
X13702Y-1245D02*
X13857D01*
X14252Y-1212D02*
Y-1038D01*
X13702Y-1005D02*
X13857D01*
X13702Y-1245D02*
Y-1005D01*
X14222Y-1006D02*
X14253Y-1038D01*
X14222Y-1244D02*
X14253Y-1212D01*
X13475Y-1245D02*
Y-1005D01*
X13523Y-1006D02*
X13647D01*
X13523Y-1244D02*
X13647D01*
X13127Y-1245D02*
X13282D01*
X13677Y-1212D02*
Y-1038D01*
X13127Y-1005D02*
X13282D01*
X13127Y-1245D02*
Y-1005D01*
X13647Y-1006D02*
X13678Y-1038D01*
X13647Y-1244D02*
X13678Y-1212D01*
X12900Y-1245D02*
Y-1005D01*
X12948Y-1006D02*
X13072D01*
X12948Y-1244D02*
X13072D01*
X12553Y-1245D02*
X12707D01*
X13102Y-1212D02*
Y-1038D01*
X12553Y-1005D02*
X12707D01*
X12553Y-1245D02*
Y-1005D01*
X13072Y-1006D02*
X13103Y-1038D01*
X13072Y-1244D02*
X13103Y-1212D01*
X12325Y-1245D02*
Y-1005D01*
X12372Y-1006D02*
X12497D01*
X12372Y-1244D02*
X12497D01*
X11978Y-1245D02*
X12132D01*
X12528Y-1212D02*
Y-1038D01*
X11978Y-1005D02*
X12132D01*
X11978Y-1245D02*
Y-1005D01*
X12497Y-1006D02*
X12528Y-1038D01*
X12497Y-1244D02*
X12528Y-1212D01*
X11750Y-1245D02*
Y-1005D01*
X11797Y-1006D02*
X11922D01*
X11797Y-1244D02*
X11922D01*
X11403Y-1245D02*
X11557D01*
X11953Y-1212D02*
Y-1038D01*
X11403Y-1005D02*
X11557D01*
X11403Y-1245D02*
Y-1005D01*
X11922Y-1006D02*
X11953Y-1038D01*
X11922Y-1244D02*
X11953Y-1212D01*
X11175Y-1245D02*
Y-1005D01*
X11222Y-1006D02*
X11347D01*
X11222Y-1244D02*
X11347D01*
X10828Y-1245D02*
X10982D01*
X11378Y-1212D02*
Y-1038D01*
X10828Y-1005D02*
X10982D01*
X10828Y-1245D02*
Y-1005D01*
X11347Y-1006D02*
X11378Y-1038D01*
X11347Y-1244D02*
X11378Y-1212D01*
X14957Y-1505D02*
X15345D01*
Y-1865D02*
Y-1505D01*
X14957Y-1865D02*
Y-1725D01*
Y-1865D02*
X15345D01*
X14957Y-1645D02*
Y-1505D01*
X14532D02*
X14920D01*
Y-1865D02*
Y-1505D01*
X14532Y-1865D02*
Y-1725D01*
Y-1865D02*
X14920D01*
X14532Y-1645D02*
Y-1505D01*
X14107D02*
X14495D01*
Y-1865D02*
Y-1505D01*
X14107Y-1865D02*
Y-1725D01*
Y-1865D02*
X14495D01*
X14107Y-1645D02*
Y-1505D01*
X13682D02*
X14070D01*
Y-1865D02*
Y-1505D01*
X13682Y-1865D02*
Y-1725D01*
Y-1865D02*
X14070D01*
X13682Y-1645D02*
Y-1505D01*
X13257D02*
X13645D01*
Y-1865D02*
Y-1505D01*
X13257Y-1865D02*
Y-1725D01*
Y-1865D02*
X13645D01*
X13257Y-1645D02*
Y-1505D01*
X12832D02*
X13220D01*
Y-1865D02*
Y-1505D01*
X12832Y-1865D02*
Y-1725D01*
Y-1865D02*
X13220D01*
X12832Y-1645D02*
Y-1505D01*
X12407D02*
X12795D01*
Y-1865D02*
Y-1505D01*
X12407Y-1865D02*
Y-1725D01*
Y-1865D02*
X12795D01*
X12407Y-1645D02*
Y-1505D01*
X11982D02*
X12370D01*
Y-1865D02*
Y-1505D01*
X11982Y-1865D02*
Y-1725D01*
Y-1865D02*
X12370D01*
X11982Y-1645D02*
Y-1505D01*
X9650Y-980D02*
Y-720D01*
X10170Y-980D02*
Y-720D01*
X9980Y-980D02*
X10170D01*
X9980Y-720D02*
X10170D01*
X9650Y-980D02*
X9840D01*
X9650Y-720D02*
X9840D01*
X9100Y-980D02*
Y-720D01*
X9620Y-980D02*
Y-720D01*
X9430Y-980D02*
X9620D01*
X9430Y-720D02*
X9620D01*
X9100Y-980D02*
X9290D01*
X9100Y-720D02*
X9290D01*
X8550Y-980D02*
Y-720D01*
X9070Y-980D02*
Y-720D01*
X8880Y-980D02*
X9070D01*
X8880Y-720D02*
X9070D01*
X8550Y-980D02*
X8740D01*
X8550Y-720D02*
X8740D01*
X8000Y-980D02*
Y-720D01*
X8520Y-980D02*
Y-720D01*
X8330Y-980D02*
X8520D01*
X8330Y-720D02*
X8520D01*
X8000Y-980D02*
X8190D01*
X8000Y-720D02*
X8190D01*
X7450Y-980D02*
Y-720D01*
X7970Y-980D02*
Y-720D01*
X7780Y-980D02*
X7970D01*
X7780Y-720D02*
X7970D01*
X7450Y-980D02*
X7640D01*
X7450Y-720D02*
X7640D01*
X6900Y-980D02*
Y-720D01*
X7420Y-980D02*
Y-720D01*
X7230Y-980D02*
X7420D01*
X7230Y-720D02*
X7420D01*
X6900Y-980D02*
X7090D01*
X6900Y-720D02*
X7090D01*
X6350Y-980D02*
Y-720D01*
X6870Y-980D02*
Y-720D01*
X6680Y-980D02*
X6870D01*
X6680Y-720D02*
X6870D01*
X6350Y-980D02*
X6540D01*
X6350Y-720D02*
X6540D01*
X5800Y-980D02*
Y-720D01*
X6320Y-980D02*
Y-720D01*
X6130Y-980D02*
X6320D01*
X6130Y-720D02*
X6320D01*
X5800Y-980D02*
X5990D01*
X5800Y-720D02*
X5990D01*
X4450Y-980D02*
Y-720D01*
X4970Y-980D02*
Y-720D01*
X4780Y-980D02*
X4970D01*
X4780Y-720D02*
X4970D01*
X4450Y-980D02*
X4640D01*
X4450Y-720D02*
X4640D01*
X3900Y-980D02*
Y-720D01*
X4420Y-980D02*
Y-720D01*
X4230Y-980D02*
X4420D01*
X4230Y-720D02*
X4420D01*
X3900Y-980D02*
X4090D01*
X3900Y-720D02*
X4090D01*
X3350Y-980D02*
Y-720D01*
X3870Y-980D02*
Y-720D01*
X3680Y-980D02*
X3870D01*
X3680Y-720D02*
X3870D01*
X3350Y-980D02*
X3540D01*
X3350Y-720D02*
X3540D01*
X2800Y-980D02*
Y-720D01*
X3320Y-980D02*
Y-720D01*
X3130Y-980D02*
X3320D01*
X3130Y-720D02*
X3320D01*
X2800Y-980D02*
X2990D01*
X2800Y-720D02*
X2990D01*
X2250Y-980D02*
Y-720D01*
X2770Y-980D02*
Y-720D01*
X2580Y-980D02*
X2770D01*
X2580Y-720D02*
X2770D01*
X2250Y-980D02*
X2440D01*
X2250Y-720D02*
X2440D01*
X1700Y-980D02*
Y-720D01*
X2220Y-980D02*
Y-720D01*
X2030Y-980D02*
X2220D01*
X2030Y-720D02*
X2220D01*
X1700Y-980D02*
X1890D01*
X1700Y-720D02*
X1890D01*
X9975Y-1245D02*
Y-1005D01*
X10022Y-1006D02*
X10147D01*
X10022Y-1244D02*
X10147D01*
X9628Y-1245D02*
X9782D01*
X10178Y-1212D02*
Y-1038D01*
X9628Y-1005D02*
X9782D01*
X9628Y-1245D02*
Y-1005D01*
X10147Y-1006D02*
X10178Y-1038D01*
X10147Y-1244D02*
X10178Y-1212D01*
X9400Y-1245D02*
Y-1005D01*
X9447Y-1006D02*
X9572D01*
X9447Y-1244D02*
X9572D01*
X9053Y-1245D02*
X9207D01*
X9603Y-1212D02*
Y-1038D01*
X9053Y-1005D02*
X9207D01*
X9053Y-1245D02*
Y-1005D01*
X9572Y-1006D02*
X9603Y-1038D01*
X9572Y-1244D02*
X9603Y-1212D01*
X8825Y-1245D02*
Y-1005D01*
X8872Y-1006D02*
X8997D01*
X8872Y-1244D02*
X8997D01*
X8478Y-1245D02*
X8632D01*
X9028Y-1212D02*
Y-1038D01*
X8478Y-1005D02*
X8632D01*
X8478Y-1245D02*
Y-1005D01*
X8997Y-1006D02*
X9028Y-1038D01*
X8997Y-1244D02*
X9028Y-1212D01*
X8250Y-1245D02*
Y-1005D01*
X8297Y-1006D02*
X8422D01*
X8297Y-1244D02*
X8422D01*
X7903Y-1245D02*
X8057D01*
X8453Y-1212D02*
Y-1038D01*
X7903Y-1005D02*
X8057D01*
X7903Y-1245D02*
Y-1005D01*
X8422Y-1006D02*
X8453Y-1038D01*
X8422Y-1244D02*
X8453Y-1212D01*
X7675Y-1245D02*
Y-1005D01*
X7722Y-1006D02*
X7847D01*
X7722Y-1244D02*
X7847D01*
X7328Y-1245D02*
X7482D01*
X7878Y-1212D02*
Y-1038D01*
X7328Y-1005D02*
X7482D01*
X7328Y-1245D02*
Y-1005D01*
X7847Y-1006D02*
X7878Y-1038D01*
X7847Y-1244D02*
X7878Y-1212D01*
X7075Y-1245D02*
Y-1005D01*
X7122Y-1006D02*
X7247D01*
X7122Y-1244D02*
X7247D01*
X6728Y-1245D02*
X6882D01*
X7278Y-1212D02*
Y-1038D01*
X6728Y-1005D02*
X6882D01*
X6728Y-1245D02*
Y-1005D01*
X7247Y-1006D02*
X7278Y-1038D01*
X7247Y-1244D02*
X7278Y-1212D01*
X6500Y-1245D02*
Y-1005D01*
X6547Y-1006D02*
X6672D01*
X6547Y-1244D02*
X6672D01*
X6153Y-1245D02*
X6308D01*
X6703Y-1212D02*
Y-1038D01*
X6153Y-1005D02*
X6308D01*
X6153Y-1245D02*
Y-1005D01*
X6672Y-1006D02*
X6703Y-1038D01*
X6672Y-1244D02*
X6703Y-1212D01*
X5925Y-1245D02*
Y-1005D01*
X5972Y-1006D02*
X6097D01*
X5972Y-1244D02*
X6097D01*
X5578Y-1245D02*
X5733D01*
X6128Y-1212D02*
Y-1038D01*
X5578Y-1005D02*
X5733D01*
X5578Y-1245D02*
Y-1005D01*
X6097Y-1006D02*
X6128Y-1038D01*
X6097Y-1244D02*
X6128Y-1212D01*
X4775Y-1245D02*
Y-1005D01*
X4822Y-1006D02*
X4947D01*
X4822Y-1244D02*
X4947D01*
X4428Y-1245D02*
X4583D01*
X4978Y-1212D02*
Y-1038D01*
X4428Y-1005D02*
X4583D01*
X4428Y-1245D02*
Y-1005D01*
X4947Y-1006D02*
X4978Y-1038D01*
X4947Y-1244D02*
X4978Y-1212D01*
X4200Y-1245D02*
Y-1005D01*
X4247Y-1006D02*
X4372D01*
X4247Y-1244D02*
X4372D01*
X3853Y-1245D02*
X4008D01*
X4403Y-1212D02*
Y-1038D01*
X3853Y-1005D02*
X4008D01*
X3853Y-1245D02*
Y-1005D01*
X4372Y-1006D02*
X4403Y-1038D01*
X4372Y-1244D02*
X4403Y-1212D01*
X3625Y-1245D02*
Y-1005D01*
X3672Y-1006D02*
X3797D01*
X3672Y-1244D02*
X3797D01*
X3278Y-1245D02*
X3433D01*
X3828Y-1212D02*
Y-1038D01*
X3278Y-1005D02*
X3433D01*
X3278Y-1245D02*
Y-1005D01*
X3797Y-1006D02*
X3828Y-1038D01*
X3797Y-1244D02*
X3828Y-1212D01*
X3050Y-1245D02*
Y-1005D01*
X3098Y-1006D02*
X3222D01*
X3098Y-1244D02*
X3222D01*
X2702Y-1245D02*
X2858D01*
X3253Y-1212D02*
Y-1038D01*
X2702Y-1005D02*
X2858D01*
X2702Y-1245D02*
Y-1005D01*
X3222Y-1006D02*
X3253Y-1038D01*
X3222Y-1244D02*
X3253Y-1212D01*
X2475Y-1245D02*
Y-1005D01*
X2523Y-1006D02*
X2647D01*
X2523Y-1244D02*
X2647D01*
X2127Y-1245D02*
X2283D01*
X2677Y-1212D02*
Y-1038D01*
X2127Y-1005D02*
X2283D01*
X2127Y-1245D02*
Y-1005D01*
X2647Y-1006D02*
X2678Y-1038D01*
X2647Y-1244D02*
X2678Y-1212D01*
X1900Y-1245D02*
Y-1005D01*
X1948Y-1006D02*
X2072D01*
X1948Y-1244D02*
X2072D01*
X1552Y-1245D02*
X1708D01*
X2102Y-1212D02*
Y-1038D01*
X1552Y-1005D02*
X1708D01*
X1552Y-1245D02*
Y-1005D01*
X2072Y-1006D02*
X2103Y-1038D01*
X2072Y-1244D02*
X2103Y-1212D01*
X9520Y-1695D02*
Y-1307D01*
X9160Y-1695D02*
X9520D01*
X9160Y-1307D02*
X9300D01*
X9160Y-1695D02*
Y-1307D01*
X9380D02*
X9520D01*
X8920Y-2270D02*
Y-1883D01*
X8560Y-2270D02*
X8920D01*
X8560Y-1883D02*
X8700D01*
X8560Y-2270D02*
Y-1883D01*
X8780D02*
X8920D01*
X8595Y-1695D02*
Y-1307D01*
X8235Y-1695D02*
X8595D01*
X8235Y-1307D02*
X8375D01*
X8235Y-1695D02*
Y-1307D01*
X8455D02*
X8595D01*
X7995Y-2270D02*
Y-1883D01*
X7635Y-2270D02*
X7995D01*
X7635Y-1883D02*
X7775D01*
X7635Y-2270D02*
Y-1883D01*
X7855D02*
X7995D01*
X7670Y-1695D02*
Y-1307D01*
X7310Y-1695D02*
X7670D01*
X7310Y-1307D02*
X7450D01*
X7310Y-1695D02*
Y-1307D01*
X7530D02*
X7670D01*
X7070Y-2270D02*
Y-1883D01*
X6710Y-2270D02*
X7070D01*
X6710Y-1883D02*
X6850D01*
X6710Y-2270D02*
Y-1883D01*
X6930D02*
X7070D01*
X6745Y-1695D02*
Y-1307D01*
X6385Y-1695D02*
X6745D01*
X6385Y-1307D02*
X6525D01*
X6385Y-1695D02*
Y-1307D01*
X6605D02*
X6745D01*
X6145Y-2270D02*
Y-1883D01*
X5785Y-2270D02*
X6145D01*
X5785Y-1883D02*
X5925D01*
X5785Y-2270D02*
Y-1883D01*
X6005D02*
X6145D01*
X5470Y-1670D02*
Y-1282D01*
X5110Y-1670D02*
X5470D01*
X5110Y-1282D02*
X5250D01*
X5110Y-1670D02*
Y-1282D01*
X5330D02*
X5470D01*
X4595Y-1670D02*
Y-1282D01*
X4235Y-1670D02*
X4595D01*
X4235Y-1282D02*
X4375D01*
X4235Y-1670D02*
Y-1282D01*
X4455D02*
X4595D01*
X3720Y-1670D02*
Y-1282D01*
X3360Y-1670D02*
X3720D01*
X3360Y-1282D02*
X3500D01*
X3360Y-1670D02*
Y-1282D01*
X3580D02*
X3720D01*
X2845Y-1670D02*
Y-1282D01*
X2485Y-1670D02*
X2845D01*
X2485Y-1282D02*
X2625D01*
X2485Y-1670D02*
Y-1282D01*
X2705D02*
X2845D01*
X2445Y-2145D02*
Y-1758D01*
X2085Y-2145D02*
X2445D01*
X2085Y-1758D02*
X2225D01*
X2085Y-2145D02*
Y-1758D01*
X2305D02*
X2445D01*
X1970Y-1670D02*
Y-1282D01*
X1610Y-1670D02*
X1970D01*
X1610Y-1282D02*
X1750D01*
X1610Y-1670D02*
Y-1282D01*
X1830D02*
X1970D01*
D30*
X15275Y-2150D02*
Y-2233D01*
X15258Y-2250D01*
X15225D01*
X15208Y-2233D01*
Y-2150D01*
X15108Y-2250D02*
X15175D01*
X15108Y-2183D01*
Y-2167D01*
X15125Y-2150D01*
X15158D01*
X15175Y-2167D01*
X15008Y-2250D02*
X15075D01*
X15008Y-2183D01*
Y-2167D01*
X15025Y-2150D01*
X15058D01*
X15075Y-2167D01*
X14850Y-2150D02*
Y-2233D01*
X14833Y-2250D01*
X14800D01*
X14783Y-2233D01*
Y-2150D01*
X14683Y-2250D02*
X14750D01*
X14683Y-2183D01*
Y-2167D01*
X14700Y-2150D01*
X14733D01*
X14750Y-2167D01*
X14650Y-2250D02*
X14617D01*
X14633D01*
Y-2150D01*
X14650Y-2167D01*
X14425Y-2150D02*
Y-2233D01*
X14408Y-2250D01*
X14375D01*
X14358Y-2233D01*
Y-2150D01*
X14258Y-2250D02*
X14325D01*
X14258Y-2183D01*
Y-2167D01*
X14275Y-2150D01*
X14308D01*
X14325Y-2167D01*
X14225D02*
X14208Y-2150D01*
X14175D01*
X14158Y-2167D01*
Y-2233D01*
X14175Y-2250D01*
X14208D01*
X14225Y-2233D01*
Y-2167D01*
X13975Y-2150D02*
Y-2233D01*
X13958Y-2250D01*
X13925D01*
X13908Y-2233D01*
Y-2150D01*
X13875Y-2250D02*
X13842D01*
X13858D01*
Y-2150D01*
X13875Y-2167D01*
X13792Y-2233D02*
X13775Y-2250D01*
X13742D01*
X13725Y-2233D01*
Y-2167D01*
X13742Y-2150D01*
X13775D01*
X13792Y-2167D01*
Y-2183D01*
X13775Y-2200D01*
X13725D01*
X13575Y-2150D02*
Y-2233D01*
X13558Y-2250D01*
X13525D01*
X13508Y-2233D01*
Y-2150D01*
X13475Y-2250D02*
X13442D01*
X13458D01*
Y-2150D01*
X13475Y-2167D01*
X13392D02*
X13375Y-2150D01*
X13342D01*
X13325Y-2167D01*
Y-2183D01*
X13342Y-2200D01*
X13325Y-2217D01*
Y-2233D01*
X13342Y-2250D01*
X13375D01*
X13392Y-2233D01*
Y-2217D01*
X13375Y-2200D01*
X13392Y-2183D01*
Y-2167D01*
X13375Y-2200D02*
X13342D01*
X13150Y-2150D02*
Y-2233D01*
X13133Y-2250D01*
X13100D01*
X13083Y-2233D01*
Y-2150D01*
X13050Y-2250D02*
X13017D01*
X13033D01*
Y-2150D01*
X13050Y-2167D01*
X12967Y-2150D02*
X12900D01*
Y-2167D01*
X12967Y-2233D01*
Y-2250D01*
X12725Y-2150D02*
Y-2233D01*
X12708Y-2250D01*
X12675D01*
X12658Y-2233D01*
Y-2150D01*
X12625Y-2250D02*
X12592D01*
X12608D01*
Y-2150D01*
X12625Y-2167D01*
X12475Y-2150D02*
X12508Y-2167D01*
X12542Y-2200D01*
Y-2233D01*
X12525Y-2250D01*
X12492D01*
X12475Y-2233D01*
Y-2217D01*
X12492Y-2200D01*
X12542D01*
X12275Y-2150D02*
Y-2233D01*
X12258Y-2250D01*
X12225D01*
X12208Y-2233D01*
Y-2150D01*
X12175Y-2250D02*
X12142D01*
X12158D01*
Y-2150D01*
X12175Y-2167D01*
X12025Y-2150D02*
X12092D01*
Y-2200D01*
X12058Y-2183D01*
X12042D01*
X12025Y-2200D01*
Y-2233D01*
X12042Y-2250D01*
X12075D01*
X12092Y-2233D01*
X10000Y-1450D02*
Y-1533D01*
X9983Y-1550D01*
X9950D01*
X9933Y-1533D01*
Y-1450D01*
X9900Y-1550D02*
X9867D01*
X9883D01*
Y-1450D01*
X9900Y-1467D01*
X9767Y-1550D02*
Y-1450D01*
X9817Y-1500D01*
X9750D01*
X8875Y-2300D02*
Y-2383D01*
X8858Y-2400D01*
X8825D01*
X8808Y-2383D01*
Y-2300D01*
X8775Y-2400D02*
X8742D01*
X8758D01*
Y-2300D01*
X8775Y-2317D01*
X8692D02*
X8675Y-2300D01*
X8642D01*
X8625Y-2317D01*
Y-2333D01*
X8642Y-2350D01*
X8658D01*
X8642D01*
X8625Y-2367D01*
Y-2383D01*
X8642Y-2400D01*
X8675D01*
X8692Y-2383D01*
X8525Y-1725D02*
Y-1808D01*
X8508Y-1825D01*
X8475D01*
X8458Y-1808D01*
Y-1725D01*
X8425Y-1825D02*
X8392D01*
X8408D01*
Y-1725D01*
X8425Y-1742D01*
X8275Y-1825D02*
X8342D01*
X8275Y-1758D01*
Y-1742D01*
X8292Y-1725D01*
X8325D01*
X8342Y-1742D01*
X7950Y-2300D02*
Y-2383D01*
X7933Y-2400D01*
X7900D01*
X7883Y-2383D01*
Y-2300D01*
X7850Y-2400D02*
X7817D01*
X7833D01*
Y-2300D01*
X7850Y-2317D01*
X7767Y-2400D02*
X7733D01*
X7750D01*
Y-2300D01*
X7767Y-2317D01*
X7600Y-1725D02*
Y-1808D01*
X7583Y-1825D01*
X7550D01*
X7533Y-1808D01*
Y-1725D01*
X7500Y-1825D02*
X7467D01*
X7483D01*
Y-1725D01*
X7500Y-1742D01*
X7417D02*
X7400Y-1725D01*
X7367D01*
X7350Y-1742D01*
Y-1808D01*
X7367Y-1825D01*
X7400D01*
X7417Y-1808D01*
Y-1742D01*
X7000Y-2300D02*
Y-2383D01*
X6983Y-2400D01*
X6950D01*
X6933Y-2383D01*
Y-2300D01*
X6900Y-2383D02*
X6883Y-2400D01*
X6850D01*
X6833Y-2383D01*
Y-2317D01*
X6850Y-2300D01*
X6883D01*
X6900Y-2317D01*
Y-2333D01*
X6883Y-2350D01*
X6833D01*
X6650Y-1700D02*
Y-1783D01*
X6633Y-1800D01*
X6600D01*
X6583Y-1783D01*
Y-1700D01*
X6550Y-1717D02*
X6533Y-1700D01*
X6500D01*
X6483Y-1717D01*
Y-1733D01*
X6500Y-1750D01*
X6483Y-1767D01*
Y-1783D01*
X6500Y-1800D01*
X6533D01*
X6550Y-1783D01*
Y-1767D01*
X6533Y-1750D01*
X6550Y-1733D01*
Y-1717D01*
X6533Y-1750D02*
X6500D01*
X6050Y-2300D02*
Y-2383D01*
X6033Y-2400D01*
X6000D01*
X5983Y-2383D01*
Y-2300D01*
X5950D02*
X5883D01*
Y-2317D01*
X5950Y-2383D01*
Y-2400D01*
X5650Y-1700D02*
Y-1783D01*
X5633Y-1800D01*
X5600D01*
X5583Y-1783D01*
Y-1700D01*
X5483D02*
X5517Y-1717D01*
X5550Y-1750D01*
Y-1783D01*
X5533Y-1800D01*
X5500D01*
X5483Y-1783D01*
Y-1767D01*
X5500Y-1750D01*
X5550D01*
X4800Y-1670D02*
Y-1737D01*
X4787Y-1750D01*
X4760D01*
X4747Y-1737D01*
Y-1670D01*
X4667D02*
X4720D01*
Y-1710D01*
X4693Y-1697D01*
X4680D01*
X4667Y-1710D01*
Y-1737D01*
X4680Y-1750D01*
X4707D01*
X4720Y-1737D01*
X3900Y-1670D02*
Y-1737D01*
X3887Y-1750D01*
X3860D01*
X3847Y-1737D01*
Y-1670D01*
X3780Y-1750D02*
Y-1670D01*
X3820Y-1710D01*
X3767D01*
X3000Y-1670D02*
Y-1737D01*
X2987Y-1750D01*
X2960D01*
X2947Y-1737D01*
Y-1670D01*
X2920Y-1683D02*
X2907Y-1670D01*
X2880D01*
X2867Y-1683D01*
Y-1697D01*
X2880Y-1710D01*
X2893D01*
X2880D01*
X2867Y-1723D01*
Y-1737D01*
X2880Y-1750D01*
X2907D01*
X2920Y-1737D01*
X2350Y-2200D02*
Y-2283D01*
X2333Y-2300D01*
X2300D01*
X2283Y-2283D01*
Y-2200D01*
X2183Y-2300D02*
X2250D01*
X2183Y-2233D01*
Y-2217D01*
X2200Y-2200D01*
X2233D01*
X2250Y-2217D01*
X1750Y-1750D02*
Y-1833D01*
X1733Y-1850D01*
X1700D01*
X1683Y-1833D01*
Y-1750D01*
X1650Y-1850D02*
X1617D01*
X1633D01*
Y-1750D01*
X1650Y-1767D01*
X6975Y-6900D02*
Y-6800D01*
X6925D01*
X6908Y-6817D01*
Y-6850D01*
X6925Y-6867D01*
X6975D01*
X6942D02*
X6908Y-6900D01*
X6875Y-6883D02*
X6858Y-6900D01*
X6825D01*
X6808Y-6883D01*
Y-6817D01*
X6825Y-6800D01*
X6858D01*
X6875Y-6817D01*
Y-6833D01*
X6858Y-6850D01*
X6808D01*
X6725Y-6900D02*
Y-6800D01*
X6775Y-6850D01*
X6708D01*
X6491Y-6898D02*
Y-6798D01*
X6441D01*
X6424Y-6815D01*
Y-6848D01*
X6441Y-6865D01*
X6491D01*
X6457D02*
X6424Y-6898D01*
X6391Y-6881D02*
X6374Y-6898D01*
X6341D01*
X6324Y-6881D01*
Y-6815D01*
X6341Y-6798D01*
X6374D01*
X6391Y-6815D01*
Y-6831D01*
X6374Y-6848D01*
X6324D01*
X6291Y-6815D02*
X6274Y-6798D01*
X6241D01*
X6224Y-6815D01*
Y-6831D01*
X6241Y-6848D01*
X6257D01*
X6241D01*
X6224Y-6865D01*
Y-6881D01*
X6241Y-6898D01*
X6274D01*
X6291Y-6881D01*
X5990Y-6898D02*
Y-6798D01*
X5941D01*
X5924Y-6815D01*
Y-6848D01*
X5941Y-6865D01*
X5990D01*
X5957D02*
X5924Y-6898D01*
X5891Y-6881D02*
X5874Y-6898D01*
X5841D01*
X5824Y-6881D01*
Y-6815D01*
X5841Y-6798D01*
X5874D01*
X5891Y-6815D01*
Y-6831D01*
X5874Y-6848D01*
X5824D01*
X5724Y-6898D02*
X5791D01*
X5724Y-6831D01*
Y-6815D01*
X5741Y-6798D01*
X5774D01*
X5791Y-6815D01*
X4764Y-6898D02*
Y-6798D01*
X4714D01*
X4697Y-6815D01*
Y-6848D01*
X4714Y-6865D01*
X4764D01*
X4731D02*
X4697Y-6898D01*
X4664Y-6881D02*
X4647Y-6898D01*
X4614D01*
X4598Y-6881D01*
Y-6815D01*
X4614Y-6798D01*
X4647D01*
X4664Y-6815D01*
Y-6831D01*
X4647Y-6848D01*
X4598D01*
X4564Y-6898D02*
X4531D01*
X4548D01*
Y-6798D01*
X4564Y-6815D01*
X4240Y-6898D02*
Y-6798D01*
X4190D01*
X4174Y-6815D01*
Y-6848D01*
X4190Y-6865D01*
X4240D01*
X4207D02*
X4174Y-6898D01*
X4140Y-6881D02*
X4124Y-6898D01*
X4090D01*
X4074Y-6881D01*
Y-6815D01*
X4090Y-6798D01*
X4124D01*
X4140Y-6815D01*
Y-6831D01*
X4124Y-6848D01*
X4074D01*
X4040Y-6815D02*
X4024Y-6798D01*
X3990D01*
X3974Y-6815D01*
Y-6881D01*
X3990Y-6898D01*
X4024D01*
X4040Y-6881D01*
Y-6815D01*
X3739Y-6898D02*
Y-6798D01*
X3689D01*
X3672Y-6815D01*
Y-6848D01*
X3689Y-6865D01*
X3739D01*
X3706D02*
X3672Y-6898D01*
X3639Y-6815D02*
X3622Y-6798D01*
X3589D01*
X3572Y-6815D01*
Y-6831D01*
X3589Y-6848D01*
X3572Y-6865D01*
Y-6881D01*
X3589Y-6898D01*
X3622D01*
X3639Y-6881D01*
Y-6865D01*
X3622Y-6848D01*
X3639Y-6831D01*
Y-6815D01*
X3622Y-6848D02*
X3589D01*
X3539Y-6881D02*
X3522Y-6898D01*
X3489D01*
X3472Y-6881D01*
Y-6815D01*
X3489Y-6798D01*
X3522D01*
X3539Y-6815D01*
Y-6831D01*
X3522Y-6848D01*
X3472D01*
X15450Y-700D02*
Y-600D01*
X15400D01*
X15383Y-617D01*
Y-650D01*
X15400Y-667D01*
X15450D01*
X15417D02*
X15383Y-700D01*
X15283D02*
X15350D01*
X15283Y-633D01*
Y-617D01*
X15300Y-600D01*
X15333D01*
X15350Y-617D01*
X15183Y-700D02*
X15250D01*
X15183Y-633D01*
Y-617D01*
X15200Y-600D01*
X15233D01*
X15250Y-617D01*
X14800Y-700D02*
Y-620D01*
X14760D01*
X14747Y-633D01*
Y-660D01*
X14760Y-673D01*
X14800D01*
X14773D02*
X14747Y-700D01*
X14667D02*
X14720D01*
X14667Y-647D01*
Y-633D01*
X14680Y-620D01*
X14707D01*
X14720Y-633D01*
X14640Y-700D02*
X14613D01*
X14627D01*
Y-620D01*
X14640Y-633D01*
X13975Y-700D02*
Y-620D01*
X13935D01*
X13922Y-633D01*
Y-660D01*
X13935Y-673D01*
X13975D01*
X13948D02*
X13922Y-700D01*
X13842D02*
X13895D01*
X13842Y-647D01*
Y-633D01*
X13855Y-620D01*
X13882D01*
X13895Y-633D01*
X13815D02*
X13802Y-620D01*
X13775D01*
X13762Y-633D01*
Y-687D01*
X13775Y-700D01*
X13802D01*
X13815Y-687D01*
Y-633D01*
X13450Y-700D02*
Y-620D01*
X13410D01*
X13397Y-633D01*
Y-660D01*
X13410Y-673D01*
X13450D01*
X13423D02*
X13397Y-700D01*
X13370D02*
X13343D01*
X13357D01*
Y-620D01*
X13370Y-633D01*
X13303Y-687D02*
X13290Y-700D01*
X13263D01*
X13250Y-687D01*
Y-633D01*
X13263Y-620D01*
X13290D01*
X13303Y-633D01*
Y-647D01*
X13290Y-660D01*
X13250D01*
X12950Y-700D02*
Y-620D01*
X12910D01*
X12897Y-633D01*
Y-660D01*
X12910Y-673D01*
X12950D01*
X12923D02*
X12897Y-700D01*
X12870D02*
X12843D01*
X12857D01*
Y-620D01*
X12870Y-633D01*
X12803D02*
X12790Y-620D01*
X12763D01*
X12750Y-633D01*
Y-647D01*
X12763Y-660D01*
X12750Y-673D01*
Y-687D01*
X12763Y-700D01*
X12790D01*
X12803Y-687D01*
Y-673D01*
X12790Y-660D01*
X12803Y-647D01*
Y-633D01*
X12790Y-660D02*
X12763D01*
X12450Y-700D02*
Y-620D01*
X12410D01*
X12397Y-633D01*
Y-660D01*
X12410Y-673D01*
X12450D01*
X12423D02*
X12397Y-700D01*
X12370D02*
X12343D01*
X12357D01*
Y-620D01*
X12370Y-633D01*
X12303Y-620D02*
X12250D01*
Y-633D01*
X12303Y-687D01*
Y-700D01*
X11925D02*
Y-620D01*
X11885D01*
X11872Y-633D01*
Y-660D01*
X11885Y-673D01*
X11925D01*
X11898D02*
X11872Y-700D01*
X11845D02*
X11818D01*
X11832D01*
Y-620D01*
X11845Y-633D01*
X11725Y-620D02*
X11752Y-633D01*
X11778Y-660D01*
Y-687D01*
X11765Y-700D01*
X11738D01*
X11725Y-687D01*
Y-673D01*
X11738Y-660D01*
X11778D01*
X11375Y-700D02*
Y-620D01*
X11335D01*
X11322Y-633D01*
Y-660D01*
X11335Y-673D01*
X11375D01*
X11348D02*
X11322Y-700D01*
X11295D02*
X11268D01*
X11282D01*
Y-620D01*
X11295Y-633D01*
X11175Y-620D02*
X11228D01*
Y-660D01*
X11202Y-647D01*
X11188D01*
X11175Y-660D01*
Y-687D01*
X11188Y-700D01*
X11215D01*
X11228Y-687D01*
X10300Y-650D02*
Y-550D01*
X10250D01*
X10233Y-567D01*
Y-600D01*
X10250Y-617D01*
X10300D01*
X10267D02*
X10233Y-650D01*
X10200D02*
X10167D01*
X10183D01*
Y-550D01*
X10200Y-567D01*
X10067Y-650D02*
Y-550D01*
X10117Y-600D01*
X10050D01*
X9600Y-675D02*
Y-595D01*
X9560D01*
X9547Y-608D01*
Y-635D01*
X9560Y-648D01*
X9600D01*
X9573D02*
X9547Y-675D01*
X9520D02*
X9493D01*
X9507D01*
Y-595D01*
X9520Y-608D01*
X9453D02*
X9440Y-595D01*
X9413D01*
X9400Y-608D01*
Y-622D01*
X9413Y-635D01*
X9427D01*
X9413D01*
X9400Y-648D01*
Y-662D01*
X9413Y-675D01*
X9440D01*
X9453Y-662D01*
X9100Y-675D02*
Y-595D01*
X9060D01*
X9047Y-608D01*
Y-635D01*
X9060Y-648D01*
X9100D01*
X9073D02*
X9047Y-675D01*
X9020D02*
X8993D01*
X9007D01*
Y-595D01*
X9020Y-608D01*
X8900Y-675D02*
X8953D01*
X8900Y-622D01*
Y-608D01*
X8913Y-595D01*
X8940D01*
X8953Y-608D01*
X8175Y-675D02*
Y-595D01*
X8135D01*
X8122Y-608D01*
Y-635D01*
X8135Y-648D01*
X8175D01*
X8148D02*
X8122Y-675D01*
X8095D02*
X8068D01*
X8082D01*
Y-595D01*
X8095Y-608D01*
X8028Y-675D02*
X8002D01*
X8015D01*
Y-595D01*
X8028Y-608D01*
X7675Y-675D02*
Y-595D01*
X7635D01*
X7622Y-608D01*
Y-635D01*
X7635Y-648D01*
X7675D01*
X7648D02*
X7622Y-675D01*
X7595D02*
X7568D01*
X7582D01*
Y-595D01*
X7595Y-608D01*
X7528D02*
X7515Y-595D01*
X7488D01*
X7475Y-608D01*
Y-662D01*
X7488Y-675D01*
X7515D01*
X7528Y-662D01*
Y-608D01*
X7150Y-675D02*
Y-595D01*
X7110D01*
X7097Y-608D01*
Y-635D01*
X7110Y-648D01*
X7150D01*
X7123D02*
X7097Y-675D01*
X7070Y-662D02*
X7057Y-675D01*
X7030D01*
X7017Y-662D01*
Y-608D01*
X7030Y-595D01*
X7057D01*
X7070Y-608D01*
Y-622D01*
X7057Y-635D01*
X7017D01*
X6650Y-675D02*
Y-595D01*
X6610D01*
X6597Y-608D01*
Y-635D01*
X6610Y-648D01*
X6650D01*
X6623D02*
X6597Y-675D01*
X6570Y-608D02*
X6557Y-595D01*
X6530D01*
X6517Y-608D01*
Y-622D01*
X6530Y-635D01*
X6517Y-648D01*
Y-662D01*
X6530Y-675D01*
X6557D01*
X6570Y-662D01*
Y-648D01*
X6557Y-635D01*
X6570Y-622D01*
Y-608D01*
X6557Y-635D02*
X6530D01*
X6100Y-675D02*
Y-595D01*
X6060D01*
X6047Y-608D01*
Y-635D01*
X6060Y-648D01*
X6100D01*
X6073D02*
X6047Y-675D01*
X6020Y-595D02*
X5967D01*
Y-608D01*
X6020Y-662D01*
Y-675D01*
X4954Y-634D02*
Y-534D01*
X4904D01*
X4888Y-551D01*
Y-584D01*
X4904Y-601D01*
X4954D01*
X4921D02*
X4888Y-634D01*
X4788Y-534D02*
X4821Y-551D01*
X4855Y-584D01*
Y-617D01*
X4838Y-634D01*
X4805D01*
X4788Y-617D01*
Y-601D01*
X4805Y-584D01*
X4855D01*
X4375Y-650D02*
Y-550D01*
X4325D01*
X4308Y-567D01*
Y-600D01*
X4325Y-617D01*
X4375D01*
X4342D02*
X4308Y-650D01*
X4208Y-550D02*
X4275D01*
Y-600D01*
X4242Y-583D01*
X4225D01*
X4208Y-600D01*
Y-633D01*
X4225Y-650D01*
X4258D01*
X4275Y-633D01*
X3825Y-675D02*
Y-575D01*
X3775D01*
X3758Y-592D01*
Y-625D01*
X3775Y-642D01*
X3825D01*
X3792D02*
X3758Y-675D01*
X3675D02*
Y-575D01*
X3725Y-625D01*
X3658D01*
X3300Y-700D02*
Y-600D01*
X3250D01*
X3233Y-617D01*
Y-650D01*
X3250Y-667D01*
X3300D01*
X3267D02*
X3233Y-700D01*
X3200Y-617D02*
X3183Y-600D01*
X3150D01*
X3133Y-617D01*
Y-633D01*
X3150Y-650D01*
X3167D01*
X3150D01*
X3133Y-667D01*
Y-683D01*
X3150Y-700D01*
X3183D01*
X3200Y-683D01*
X2425Y-675D02*
Y-575D01*
X2375D01*
X2358Y-592D01*
Y-625D01*
X2375Y-642D01*
X2425D01*
X2392D02*
X2358Y-675D01*
X2258D02*
X2325D01*
X2258Y-608D01*
Y-592D01*
X2275Y-575D01*
X2308D01*
X2325Y-592D01*
X1625Y-875D02*
Y-775D01*
X1575D01*
X1558Y-792D01*
Y-825D01*
X1575Y-842D01*
X1625D01*
X1592D02*
X1558Y-875D01*
X1525D02*
X1492D01*
X1508D01*
Y-775D01*
X1525Y-792D01*
X15505Y-1225D02*
X15425D01*
Y-1185D01*
X15438Y-1172D01*
X15492D01*
X15505Y-1185D01*
Y-1225D01*
X15425Y-1092D02*
Y-1145D01*
X15478Y-1092D01*
X15492D01*
X15505Y-1105D01*
Y-1132D01*
X15492Y-1145D01*
X15425Y-1012D02*
Y-1065D01*
X15478Y-1012D01*
X15492D01*
X15505Y-1025D01*
Y-1052D01*
X15492Y-1065D01*
X14355Y-1450D02*
X14275D01*
Y-1410D01*
X14288Y-1397D01*
X14342D01*
X14355Y-1410D01*
Y-1450D01*
X14275Y-1317D02*
Y-1370D01*
X14328Y-1317D01*
X14342D01*
X14355Y-1330D01*
Y-1357D01*
X14342Y-1370D01*
X14275Y-1290D02*
Y-1263D01*
Y-1277D01*
X14355D01*
X14342Y-1290D01*
X13930Y-1450D02*
X13850D01*
Y-1410D01*
X13863Y-1397D01*
X13917D01*
X13930Y-1410D01*
Y-1450D01*
X13850Y-1317D02*
Y-1370D01*
X13903Y-1317D01*
X13917D01*
X13930Y-1330D01*
Y-1357D01*
X13917Y-1370D01*
Y-1290D02*
X13930Y-1277D01*
Y-1250D01*
X13917Y-1237D01*
X13863D01*
X13850Y-1250D01*
Y-1277D01*
X13863Y-1290D01*
X13917D01*
X13505Y-1425D02*
X13425D01*
Y-1385D01*
X13438Y-1372D01*
X13492D01*
X13505Y-1385D01*
Y-1425D01*
X13425Y-1345D02*
Y-1318D01*
Y-1332D01*
X13505D01*
X13492Y-1345D01*
X13438Y-1278D02*
X13425Y-1265D01*
Y-1238D01*
X13438Y-1225D01*
X13492D01*
X13505Y-1238D01*
Y-1265D01*
X13492Y-1278D01*
X13478D01*
X13465Y-1265D01*
Y-1225D01*
X12655Y-1450D02*
X12575D01*
Y-1410D01*
X12588Y-1397D01*
X12642D01*
X12655Y-1410D01*
Y-1450D01*
X12575Y-1370D02*
Y-1343D01*
Y-1357D01*
X12655D01*
X12642Y-1370D01*
Y-1303D02*
X12655Y-1290D01*
Y-1263D01*
X12642Y-1250D01*
X12628D01*
X12615Y-1263D01*
X12602Y-1250D01*
X12588D01*
X12575Y-1263D01*
Y-1290D01*
X12588Y-1303D01*
X12602D01*
X12615Y-1290D01*
X12628Y-1303D01*
X12642D01*
X12615Y-1290D02*
Y-1263D01*
X12205Y-1450D02*
X12125D01*
Y-1410D01*
X12138Y-1397D01*
X12192D01*
X12205Y-1410D01*
Y-1450D01*
X12125Y-1370D02*
Y-1343D01*
Y-1357D01*
X12205D01*
X12192Y-1370D01*
X12205Y-1303D02*
Y-1250D01*
X12192D01*
X12138Y-1303D01*
X12125D01*
X11850Y-1450D02*
Y-1550D01*
X11800D01*
X11783Y-1533D01*
Y-1467D01*
X11800Y-1450D01*
X11850D01*
X11750Y-1550D02*
X11717D01*
X11733D01*
Y-1450D01*
X11750Y-1467D01*
X11600Y-1450D02*
X11633Y-1467D01*
X11667Y-1500D01*
Y-1533D01*
X11650Y-1550D01*
X11617D01*
X11600Y-1533D01*
Y-1517D01*
X11617Y-1500D01*
X11667D01*
X11200Y-1300D02*
Y-1400D01*
X11150D01*
X11133Y-1383D01*
Y-1317D01*
X11150Y-1300D01*
X11200D01*
X11100Y-1400D02*
X11067D01*
X11083D01*
Y-1300D01*
X11100Y-1317D01*
X10950Y-1300D02*
X11017D01*
Y-1350D01*
X10983Y-1333D01*
X10967D01*
X10950Y-1350D01*
Y-1383D01*
X10967Y-1400D01*
X11000D01*
X11017Y-1383D01*
X10525Y-1075D02*
Y-1175D01*
X10475D01*
X10458Y-1158D01*
Y-1092D01*
X10475Y-1075D01*
X10525D01*
X10425Y-1175D02*
X10392D01*
X10408D01*
Y-1075D01*
X10425Y-1092D01*
X10292Y-1175D02*
Y-1075D01*
X10342Y-1125D01*
X10275D01*
X9375Y-200D02*
Y-300D01*
X9325D01*
X9308Y-283D01*
Y-217D01*
X9325Y-200D01*
X9375D01*
X9275Y-300D02*
X9242D01*
X9258D01*
Y-200D01*
X9275Y-217D01*
X9192D02*
X9175Y-200D01*
X9142D01*
X9125Y-217D01*
Y-233D01*
X9142Y-250D01*
X9158D01*
X9142D01*
X9125Y-267D01*
Y-283D01*
X9142Y-300D01*
X9175D01*
X9192Y-283D01*
X8800Y-200D02*
Y-300D01*
X8750D01*
X8733Y-283D01*
Y-217D01*
X8750Y-200D01*
X8800D01*
X8700Y-300D02*
X8667D01*
X8683D01*
Y-200D01*
X8700Y-217D01*
X8550Y-300D02*
X8617D01*
X8550Y-233D01*
Y-217D01*
X8567Y-200D01*
X8600D01*
X8617Y-217D01*
X8200Y-200D02*
Y-300D01*
X8150D01*
X8133Y-283D01*
Y-217D01*
X8150Y-200D01*
X8200D01*
X8100Y-300D02*
X8067D01*
X8083D01*
Y-200D01*
X8100Y-217D01*
X8017Y-300D02*
X7983D01*
X8000D01*
Y-200D01*
X8017Y-217D01*
X7675Y-200D02*
Y-300D01*
X7625D01*
X7608Y-283D01*
Y-217D01*
X7625Y-200D01*
X7675D01*
X7575Y-300D02*
X7542D01*
X7558D01*
Y-200D01*
X7575Y-217D01*
X7492D02*
X7475Y-200D01*
X7442D01*
X7425Y-217D01*
Y-283D01*
X7442Y-300D01*
X7475D01*
X7492Y-283D01*
Y-217D01*
X7025Y-200D02*
Y-300D01*
X6975D01*
X6958Y-283D01*
Y-217D01*
X6975Y-200D01*
X7025D01*
X6925Y-283D02*
X6908Y-300D01*
X6875D01*
X6858Y-283D01*
Y-217D01*
X6875Y-200D01*
X6908D01*
X6925Y-217D01*
Y-233D01*
X6908Y-250D01*
X6858D01*
X6475Y-200D02*
Y-300D01*
X6425D01*
X6408Y-283D01*
Y-217D01*
X6425Y-200D01*
X6475D01*
X6375Y-217D02*
X6358Y-200D01*
X6325D01*
X6308Y-217D01*
Y-233D01*
X6325Y-250D01*
X6308Y-267D01*
Y-283D01*
X6325Y-300D01*
X6358D01*
X6375Y-283D01*
Y-267D01*
X6358Y-250D01*
X6375Y-233D01*
Y-217D01*
X6358Y-250D02*
X6325D01*
X5675Y-850D02*
Y-950D01*
X5625D01*
X5608Y-933D01*
Y-867D01*
X5625Y-850D01*
X5675D01*
X5575D02*
X5508D01*
Y-867D01*
X5575Y-933D01*
Y-950D01*
X5225Y-1050D02*
Y-1150D01*
X5175D01*
X5158Y-1133D01*
Y-1067D01*
X5175Y-1050D01*
X5225D01*
X5058D02*
X5092Y-1067D01*
X5125Y-1100D01*
Y-1133D01*
X5108Y-1150D01*
X5075D01*
X5058Y-1133D01*
Y-1117D01*
X5075Y-1100D01*
X5125D01*
X4150Y-200D02*
Y-300D01*
X4100D01*
X4083Y-283D01*
Y-217D01*
X4100Y-200D01*
X4150D01*
X3983D02*
X4050D01*
Y-250D01*
X4017Y-233D01*
X4000D01*
X3983Y-250D01*
Y-283D01*
X4000Y-300D01*
X4033D01*
X4050Y-283D01*
X3600Y-200D02*
Y-300D01*
X3550D01*
X3533Y-283D01*
Y-217D01*
X3550Y-200D01*
X3600D01*
X3450Y-300D02*
Y-200D01*
X3500Y-250D01*
X3433D01*
X3000Y-200D02*
Y-300D01*
X2950D01*
X2933Y-283D01*
Y-217D01*
X2950Y-200D01*
X3000D01*
X2900Y-217D02*
X2883Y-200D01*
X2850D01*
X2833Y-217D01*
Y-233D01*
X2850Y-250D01*
X2867D01*
X2850D01*
X2833Y-267D01*
Y-283D01*
X2850Y-300D01*
X2883D01*
X2900Y-283D01*
X2400Y-200D02*
Y-300D01*
X2350D01*
X2333Y-283D01*
Y-217D01*
X2350Y-200D01*
X2400D01*
X2233Y-300D02*
X2300D01*
X2233Y-233D01*
Y-217D01*
X2250Y-200D01*
X2283D01*
X2300Y-217D01*
X1500Y-1000D02*
Y-1100D01*
X1450D01*
X1433Y-1083D01*
Y-1017D01*
X1450Y-1000D01*
X1500D01*
X1400Y-1100D02*
X1367D01*
X1383D01*
Y-1000D01*
X1400Y-1017D01*
X597Y-8012D02*
Y-7958D01*
X610Y-7945D01*
X637D01*
X650Y-7958D01*
Y-8012D01*
X637Y-8025D01*
X610D01*
X623Y-7998D02*
X597Y-8025D01*
X610D02*
X597Y-8012D01*
X517Y-8025D02*
X570D01*
X517Y-7972D01*
Y-7958D01*
X530Y-7945D01*
X557D01*
X570Y-7958D01*
X490Y-8025D02*
X463D01*
X477D01*
Y-7945D01*
X490Y-7958D01*
X9489Y-7148D02*
Y-7048D01*
X9439D01*
X9422Y-7065D01*
Y-7098D01*
X9439Y-7115D01*
X9489D01*
X9456D02*
X9422Y-7148D01*
X9389D02*
X9356D01*
X9372D01*
Y-7048D01*
X9389Y-7065D01*
X9306Y-7148D02*
X9272D01*
X9289D01*
Y-7048D01*
X9306Y-7065D01*
X9156Y-7048D02*
X9189Y-7065D01*
X9222Y-7098D01*
Y-7131D01*
X9206Y-7148D01*
X9172D01*
X9156Y-7131D01*
Y-7115D01*
X9172Y-7098D01*
X9222D01*
X8990Y-7148D02*
Y-7048D01*
X8940D01*
X8923Y-7065D01*
Y-7098D01*
X8940Y-7115D01*
X8990D01*
X8956D02*
X8923Y-7148D01*
X8890D02*
X8856D01*
X8873D01*
Y-7048D01*
X8890Y-7065D01*
X8806Y-7148D02*
X8773D01*
X8790D01*
Y-7048D01*
X8806Y-7065D01*
X8656Y-7048D02*
X8723D01*
Y-7098D01*
X8690Y-7081D01*
X8673D01*
X8656Y-7098D01*
Y-7131D01*
X8673Y-7148D01*
X8706D01*
X8723Y-7131D01*
X8488Y-7148D02*
Y-7048D01*
X8438D01*
X8422Y-7065D01*
Y-7098D01*
X8438Y-7115D01*
X8488D01*
X8455D02*
X8422Y-7148D01*
X8388D02*
X8355D01*
X8372D01*
Y-7048D01*
X8388Y-7065D01*
X8305Y-7148D02*
X8272D01*
X8288D01*
Y-7048D01*
X8305Y-7065D01*
X8172Y-7148D02*
Y-7048D01*
X8222Y-7098D01*
X8155D01*
X7990Y-7148D02*
Y-7048D01*
X7940D01*
X7923Y-7065D01*
Y-7098D01*
X7940Y-7115D01*
X7990D01*
X7956D02*
X7923Y-7148D01*
X7890D02*
X7856D01*
X7873D01*
Y-7048D01*
X7890Y-7065D01*
X7806Y-7148D02*
X7773D01*
X7790D01*
Y-7048D01*
X7806Y-7065D01*
X7723D02*
X7706Y-7048D01*
X7673D01*
X7656Y-7065D01*
Y-7081D01*
X7673Y-7098D01*
X7690D01*
X7673D01*
X7656Y-7115D01*
Y-7131D01*
X7673Y-7148D01*
X7706D01*
X7723Y-7131D01*
X7450Y-7150D02*
Y-7050D01*
X7400D01*
X7383Y-7067D01*
Y-7100D01*
X7400Y-7117D01*
X7450D01*
X7417D02*
X7383Y-7150D01*
X7350D02*
X7317D01*
X7333D01*
Y-7050D01*
X7350Y-7067D01*
X7267Y-7150D02*
X7233D01*
X7250D01*
Y-7050D01*
X7267Y-7067D01*
X7117Y-7150D02*
X7183D01*
X7117Y-7083D01*
Y-7067D01*
X7133Y-7050D01*
X7167D01*
X7183Y-7067D01*
X6925Y-8475D02*
Y-8375D01*
X6875D01*
X6858Y-8392D01*
Y-8425D01*
X6875Y-8442D01*
X6925D01*
X6892D02*
X6858Y-8475D01*
X6825D02*
X6792D01*
X6808D01*
Y-8375D01*
X6825Y-8392D01*
X6742Y-8475D02*
X6708D01*
X6725D01*
Y-8375D01*
X6742Y-8392D01*
X6658Y-8475D02*
X6625D01*
X6642D01*
Y-8375D01*
X6658Y-8392D01*
X6450Y-8475D02*
Y-8375D01*
X6400D01*
X6383Y-8392D01*
Y-8425D01*
X6400Y-8442D01*
X6450D01*
X6417D02*
X6383Y-8475D01*
X6350D02*
X6317D01*
X6333D01*
Y-8375D01*
X6350Y-8392D01*
X6267Y-8475D02*
X6233D01*
X6250D01*
Y-8375D01*
X6267Y-8392D01*
X6183D02*
X6167Y-8375D01*
X6133D01*
X6117Y-8392D01*
Y-8458D01*
X6133Y-8475D01*
X6167D01*
X6183Y-8458D01*
Y-8392D01*
X5550Y-7400D02*
Y-7300D01*
X5500D01*
X5483Y-7317D01*
Y-7350D01*
X5500Y-7367D01*
X5550D01*
X5517D02*
X5483Y-7400D01*
X5450D02*
X5417D01*
X5433D01*
Y-7300D01*
X5450Y-7317D01*
X5367D02*
X5350Y-7300D01*
X5317D01*
X5300Y-7317D01*
Y-7383D01*
X5317Y-7400D01*
X5350D01*
X5367Y-7383D01*
Y-7317D01*
X5267Y-7383D02*
X5250Y-7400D01*
X5217D01*
X5200Y-7383D01*
Y-7317D01*
X5217Y-7300D01*
X5250D01*
X5267Y-7317D01*
Y-7333D01*
X5250Y-7350D01*
X5200D01*
X4650Y-7425D02*
Y-7325D01*
X4600D01*
X4583Y-7342D01*
Y-7375D01*
X4600Y-7392D01*
X4650D01*
X4617D02*
X4583Y-7425D01*
X4550D02*
X4517D01*
X4533D01*
Y-7325D01*
X4550Y-7342D01*
X4467D02*
X4450Y-7325D01*
X4417D01*
X4400Y-7342D01*
Y-7408D01*
X4417Y-7425D01*
X4450D01*
X4467Y-7408D01*
Y-7342D01*
X4367D02*
X4350Y-7325D01*
X4317D01*
X4300Y-7342D01*
Y-7358D01*
X4317Y-7375D01*
X4300Y-7392D01*
Y-7408D01*
X4317Y-7425D01*
X4350D01*
X4367Y-7408D01*
Y-7392D01*
X4350Y-7375D01*
X4367Y-7358D01*
Y-7342D01*
X4350Y-7375D02*
X4317D01*
X3725Y-8500D02*
Y-8400D01*
X3675D01*
X3658Y-8417D01*
Y-8450D01*
X3675Y-8467D01*
X3725D01*
X3692D02*
X3658Y-8500D01*
X3625D02*
X3592D01*
X3608D01*
Y-8400D01*
X3625Y-8417D01*
X3542D02*
X3525Y-8400D01*
X3492D01*
X3475Y-8417D01*
Y-8483D01*
X3492Y-8500D01*
X3525D01*
X3542Y-8483D01*
Y-8417D01*
X3442Y-8400D02*
X3375D01*
Y-8417D01*
X3442Y-8483D01*
Y-8500D01*
X3241Y-7148D02*
Y-7048D01*
X3191D01*
X3174Y-7065D01*
Y-7098D01*
X3191Y-7115D01*
X3241D01*
X3207D02*
X3174Y-7148D01*
X3141D02*
X3107D01*
X3124D01*
Y-7048D01*
X3141Y-7065D01*
X3057D02*
X3041Y-7048D01*
X3007D01*
X2991Y-7065D01*
Y-7131D01*
X3007Y-7148D01*
X3041D01*
X3057Y-7131D01*
Y-7065D01*
X2891Y-7048D02*
X2924Y-7065D01*
X2957Y-7098D01*
Y-7131D01*
X2941Y-7148D01*
X2907D01*
X2891Y-7131D01*
Y-7115D01*
X2907Y-7098D01*
X2957D01*
X2739Y-7148D02*
Y-7048D01*
X2689D01*
X2673Y-7065D01*
Y-7098D01*
X2689Y-7115D01*
X2739D01*
X2706D02*
X2673Y-7148D01*
X2639D02*
X2606D01*
X2623D01*
Y-7048D01*
X2639Y-7065D01*
X2556D02*
X2539Y-7048D01*
X2506D01*
X2489Y-7065D01*
Y-7131D01*
X2506Y-7148D01*
X2539D01*
X2556Y-7131D01*
Y-7065D01*
X2389Y-7048D02*
X2456D01*
Y-7098D01*
X2423Y-7081D01*
X2406D01*
X2389Y-7098D01*
Y-7131D01*
X2406Y-7148D01*
X2439D01*
X2456Y-7131D01*
X2240Y-7148D02*
Y-7048D01*
X2190D01*
X2173Y-7065D01*
Y-7098D01*
X2190Y-7115D01*
X2240D01*
X2206D02*
X2173Y-7148D01*
X2140D02*
X2106D01*
X2123D01*
Y-7048D01*
X2140Y-7065D01*
X2056D02*
X2040Y-7048D01*
X2006D01*
X1990Y-7065D01*
Y-7131D01*
X2006Y-7148D01*
X2040D01*
X2056Y-7131D01*
Y-7065D01*
X1906Y-7148D02*
Y-7048D01*
X1956Y-7098D01*
X1890D01*
X1741Y-7148D02*
Y-7048D01*
X1691D01*
X1674Y-7065D01*
Y-7098D01*
X1691Y-7115D01*
X1741D01*
X1707D02*
X1674Y-7148D01*
X1641D02*
X1607D01*
X1624D01*
Y-7048D01*
X1641Y-7065D01*
X1558D02*
X1541Y-7048D01*
X1508D01*
X1491Y-7065D01*
Y-7131D01*
X1508Y-7148D01*
X1541D01*
X1558Y-7131D01*
Y-7065D01*
X1458D02*
X1441Y-7048D01*
X1408D01*
X1391Y-7065D01*
Y-7081D01*
X1408Y-7098D01*
X1424D01*
X1408D01*
X1391Y-7115D01*
Y-7131D01*
X1408Y-7148D01*
X1441D01*
X1458Y-7131D01*
X1250Y-7150D02*
Y-7050D01*
X1200D01*
X1183Y-7067D01*
Y-7100D01*
X1200Y-7117D01*
X1250D01*
X1217D02*
X1183Y-7150D01*
X1150D02*
X1117D01*
X1133D01*
Y-7050D01*
X1150Y-7067D01*
X1067D02*
X1050Y-7050D01*
X1017D01*
X1000Y-7067D01*
Y-7133D01*
X1017Y-7150D01*
X1050D01*
X1067Y-7133D01*
Y-7067D01*
X900Y-7150D02*
X967D01*
X900Y-7083D01*
Y-7067D01*
X917Y-7050D01*
X950D01*
X967Y-7067D01*
X740Y-7148D02*
Y-7048D01*
X690D01*
X674Y-7065D01*
Y-7098D01*
X690Y-7115D01*
X740D01*
X707D02*
X674Y-7148D01*
X640D02*
X607D01*
X624D01*
Y-7048D01*
X640Y-7065D01*
X557D02*
X540Y-7048D01*
X507D01*
X490Y-7065D01*
Y-7131D01*
X507Y-7148D01*
X540D01*
X557Y-7131D01*
Y-7065D01*
X457Y-7148D02*
X424D01*
X440D01*
Y-7048D01*
X457Y-7065D01*
X9733Y-7833D02*
Y-7767D01*
X9750Y-7750D01*
X9783D01*
X9800Y-7767D01*
Y-7833D01*
X9783Y-7850D01*
X9750D01*
X9767Y-7817D02*
X9733Y-7850D01*
X9750D02*
X9733Y-7833D01*
X9700Y-7767D02*
X9683Y-7750D01*
X9650D01*
X9633Y-7767D01*
Y-7783D01*
X9650Y-7800D01*
X9667D01*
X9650D01*
X9633Y-7817D01*
Y-7833D01*
X9650Y-7850D01*
X9683D01*
X9700Y-7833D01*
X9533Y-7750D02*
X9567Y-7767D01*
X9600Y-7800D01*
Y-7833D01*
X9583Y-7850D01*
X9550D01*
X9533Y-7833D01*
Y-7817D01*
X9550Y-7800D01*
X9600D01*
X8872Y-8012D02*
Y-7958D01*
X8885Y-7945D01*
X8912D01*
X8925Y-7958D01*
Y-8012D01*
X8912Y-8025D01*
X8885D01*
X8898Y-7998D02*
X8872Y-8025D01*
X8885D02*
X8872Y-8012D01*
X8845Y-7958D02*
X8832Y-7945D01*
X8805D01*
X8792Y-7958D01*
Y-7972D01*
X8805Y-7985D01*
X8818D01*
X8805D01*
X8792Y-7998D01*
Y-8012D01*
X8805Y-8025D01*
X8832D01*
X8845Y-8012D01*
X8712Y-7945D02*
X8765D01*
Y-7985D01*
X8738Y-7972D01*
X8725D01*
X8712Y-7985D01*
Y-8012D01*
X8725Y-8025D01*
X8752D01*
X8765Y-8012D01*
X8372D02*
Y-7958D01*
X8385Y-7945D01*
X8412D01*
X8425Y-7958D01*
Y-8012D01*
X8412Y-8025D01*
X8385D01*
X8398Y-7998D02*
X8372Y-8025D01*
X8385D02*
X8372Y-8012D01*
X8345Y-7958D02*
X8332Y-7945D01*
X8305D01*
X8292Y-7958D01*
Y-7972D01*
X8305Y-7985D01*
X8318D01*
X8305D01*
X8292Y-7998D01*
Y-8012D01*
X8305Y-8025D01*
X8332D01*
X8345Y-8012D01*
X8225Y-8025D02*
Y-7945D01*
X8265Y-7985D01*
X8212D01*
X7872Y-8012D02*
Y-7958D01*
X7885Y-7945D01*
X7912D01*
X7925Y-7958D01*
Y-8012D01*
X7912Y-8025D01*
X7885D01*
X7898Y-7998D02*
X7872Y-8025D01*
X7885D02*
X7872Y-8012D01*
X7845Y-7958D02*
X7832Y-7945D01*
X7805D01*
X7792Y-7958D01*
Y-7972D01*
X7805Y-7985D01*
X7818D01*
X7805D01*
X7792Y-7998D01*
Y-8012D01*
X7805Y-8025D01*
X7832D01*
X7845Y-8012D01*
X7765Y-7958D02*
X7752Y-7945D01*
X7725D01*
X7712Y-7958D01*
Y-7972D01*
X7725Y-7985D01*
X7738D01*
X7725D01*
X7712Y-7998D01*
Y-8012D01*
X7725Y-8025D01*
X7752D01*
X7765Y-8012D01*
X7372D02*
Y-7958D01*
X7385Y-7945D01*
X7412D01*
X7425Y-7958D01*
Y-8012D01*
X7412Y-8025D01*
X7385D01*
X7398Y-7998D02*
X7372Y-8025D01*
X7385D02*
X7372Y-8012D01*
X7345Y-7958D02*
X7332Y-7945D01*
X7305D01*
X7292Y-7958D01*
Y-7972D01*
X7305Y-7985D01*
X7318D01*
X7305D01*
X7292Y-7998D01*
Y-8012D01*
X7305Y-8025D01*
X7332D01*
X7345Y-8012D01*
X7212Y-8025D02*
X7265D01*
X7212Y-7972D01*
Y-7958D01*
X7225Y-7945D01*
X7252D01*
X7265Y-7958D01*
X6847Y-8012D02*
Y-7958D01*
X6860Y-7945D01*
X6887D01*
X6900Y-7958D01*
Y-8012D01*
X6887Y-8025D01*
X6860D01*
X6873Y-7998D02*
X6847Y-8025D01*
X6860D02*
X6847Y-8012D01*
X6820Y-7958D02*
X6807Y-7945D01*
X6780D01*
X6767Y-7958D01*
Y-7972D01*
X6780Y-7985D01*
X6793D01*
X6780D01*
X6767Y-7998D01*
Y-8012D01*
X6780Y-8025D01*
X6807D01*
X6820Y-8012D01*
X6740Y-8025D02*
X6713D01*
X6727D01*
Y-7945D01*
X6740Y-7958D01*
X6347Y-8012D02*
Y-7958D01*
X6360Y-7945D01*
X6387D01*
X6400Y-7958D01*
Y-8012D01*
X6387Y-8025D01*
X6360D01*
X6373Y-7998D02*
X6347Y-8025D01*
X6360D02*
X6347Y-8012D01*
X6320Y-7958D02*
X6307Y-7945D01*
X6280D01*
X6267Y-7958D01*
Y-7972D01*
X6280Y-7985D01*
X6293D01*
X6280D01*
X6267Y-7998D01*
Y-8012D01*
X6280Y-8025D01*
X6307D01*
X6320Y-8012D01*
X6240Y-7958D02*
X6227Y-7945D01*
X6200D01*
X6187Y-7958D01*
Y-8012D01*
X6200Y-8025D01*
X6227D01*
X6240Y-8012D01*
Y-7958D01*
X5433Y-7758D02*
Y-7692D01*
X5450Y-7675D01*
X5483D01*
X5500Y-7692D01*
Y-7758D01*
X5483Y-7775D01*
X5450D01*
X5467Y-7742D02*
X5433Y-7775D01*
X5450D02*
X5433Y-7758D01*
X5333Y-7775D02*
X5400D01*
X5333Y-7708D01*
Y-7692D01*
X5350Y-7675D01*
X5383D01*
X5400Y-7692D01*
X5300Y-7758D02*
X5283Y-7775D01*
X5250D01*
X5233Y-7758D01*
Y-7692D01*
X5250Y-7675D01*
X5283D01*
X5300Y-7692D01*
Y-7708D01*
X5283Y-7725D01*
X5233D01*
X4508Y-7733D02*
Y-7667D01*
X4525Y-7650D01*
X4558D01*
X4575Y-7667D01*
Y-7733D01*
X4558Y-7750D01*
X4525D01*
X4542Y-7717D02*
X4508Y-7750D01*
X4525D02*
X4508Y-7733D01*
X4408Y-7750D02*
X4475D01*
X4408Y-7683D01*
Y-7667D01*
X4425Y-7650D01*
X4458D01*
X4475Y-7667D01*
X4375D02*
X4358Y-7650D01*
X4325D01*
X4308Y-7667D01*
Y-7683D01*
X4325Y-7700D01*
X4308Y-7717D01*
Y-7733D01*
X4325Y-7750D01*
X4358D01*
X4375Y-7733D01*
Y-7717D01*
X4358Y-7700D01*
X4375Y-7683D01*
Y-7667D01*
X4358Y-7700D02*
X4325D01*
X3622Y-8012D02*
Y-7958D01*
X3635Y-7945D01*
X3662D01*
X3675Y-7958D01*
Y-8012D01*
X3662Y-8025D01*
X3635D01*
X3648Y-7998D02*
X3622Y-8025D01*
X3635D02*
X3622Y-8012D01*
X3542Y-8025D02*
X3595D01*
X3542Y-7972D01*
Y-7958D01*
X3555Y-7945D01*
X3582D01*
X3595Y-7958D01*
X3515Y-7945D02*
X3462D01*
Y-7958D01*
X3515Y-8012D01*
Y-8025D01*
X3147Y-8012D02*
Y-7958D01*
X3160Y-7945D01*
X3187D01*
X3200Y-7958D01*
Y-8012D01*
X3187Y-8025D01*
X3160D01*
X3173Y-7998D02*
X3147Y-8025D01*
X3160D02*
X3147Y-8012D01*
X3067Y-8025D02*
X3120D01*
X3067Y-7972D01*
Y-7958D01*
X3080Y-7945D01*
X3107D01*
X3120Y-7958D01*
X2987Y-7945D02*
X3013Y-7958D01*
X3040Y-7985D01*
Y-8012D01*
X3027Y-8025D01*
X3000D01*
X2987Y-8012D01*
Y-7998D01*
X3000Y-7985D01*
X3040D01*
X2622Y-8012D02*
Y-7958D01*
X2635Y-7945D01*
X2662D01*
X2675Y-7958D01*
Y-8012D01*
X2662Y-8025D01*
X2635D01*
X2648Y-7998D02*
X2622Y-8025D01*
X2635D02*
X2622Y-8012D01*
X2542Y-8025D02*
X2595D01*
X2542Y-7972D01*
Y-7958D01*
X2555Y-7945D01*
X2582D01*
X2595Y-7958D01*
X2462Y-7945D02*
X2515D01*
Y-7985D01*
X2488Y-7972D01*
X2475D01*
X2462Y-7985D01*
Y-8012D01*
X2475Y-8025D01*
X2502D01*
X2515Y-8012D01*
X2122D02*
Y-7958D01*
X2135Y-7945D01*
X2162D01*
X2175Y-7958D01*
Y-8012D01*
X2162Y-8025D01*
X2135D01*
X2148Y-7998D02*
X2122Y-8025D01*
X2135D02*
X2122Y-8012D01*
X2042Y-8025D02*
X2095D01*
X2042Y-7972D01*
Y-7958D01*
X2055Y-7945D01*
X2082D01*
X2095Y-7958D01*
X1975Y-8025D02*
Y-7945D01*
X2015Y-7985D01*
X1962D01*
X1622Y-8012D02*
Y-7958D01*
X1635Y-7945D01*
X1662D01*
X1675Y-7958D01*
Y-8012D01*
X1662Y-8025D01*
X1635D01*
X1648Y-7998D02*
X1622Y-8025D01*
X1635D02*
X1622Y-8012D01*
X1542Y-8025D02*
X1595D01*
X1542Y-7972D01*
Y-7958D01*
X1555Y-7945D01*
X1582D01*
X1595Y-7958D01*
X1515D02*
X1502Y-7945D01*
X1475D01*
X1462Y-7958D01*
Y-7972D01*
X1475Y-7985D01*
X1488D01*
X1475D01*
X1462Y-7998D01*
Y-8012D01*
X1475Y-8025D01*
X1502D01*
X1515Y-8012D01*
X1122D02*
Y-7958D01*
X1135Y-7945D01*
X1162D01*
X1175Y-7958D01*
Y-8012D01*
X1162Y-8025D01*
X1135D01*
X1148Y-7998D02*
X1122Y-8025D01*
X1135D02*
X1122Y-8012D01*
X1042Y-8025D02*
X1095D01*
X1042Y-7972D01*
Y-7958D01*
X1055Y-7945D01*
X1082D01*
X1095Y-7958D01*
X962Y-8025D02*
X1015D01*
X962Y-7972D01*
Y-7958D01*
X975Y-7945D01*
X1002D01*
X1015Y-7958D01*
X1575Y-2700D02*
Y-2600D01*
X1525D01*
X1508Y-2617D01*
Y-2650D01*
X1525Y-2667D01*
X1575D01*
X1542D02*
X1508Y-2700D01*
X1408D02*
X1475D01*
X1408Y-2633D01*
Y-2617D01*
X1425Y-2600D01*
X1458D01*
X1475Y-2617D01*
X1308Y-2600D02*
X1375D01*
Y-2650D01*
X1342Y-2633D01*
X1325D01*
X1308Y-2650D01*
Y-2683D01*
X1325Y-2700D01*
X1358D01*
X1375Y-2683D01*
X2558Y-2567D02*
X2575Y-2550D01*
X2608D01*
X2625Y-2567D01*
Y-2633D01*
X2608Y-2650D01*
X2575D01*
X2558Y-2633D01*
X2525Y-2550D02*
X2458D01*
Y-2567D01*
X2525Y-2633D01*
Y-2650D01*
X2033Y-3092D02*
X2050Y-3075D01*
X2083D01*
X2100Y-3092D01*
Y-3158D01*
X2083Y-3175D01*
X2050D01*
X2033Y-3158D01*
X1933Y-3075D02*
X1967Y-3092D01*
X2000Y-3125D01*
Y-3158D01*
X1983Y-3175D01*
X1950D01*
X1933Y-3158D01*
Y-3142D01*
X1950Y-3125D01*
X2000D01*
X8700Y-6030D02*
Y-6150D01*
X8620D01*
X8560Y-6070D02*
X8520D01*
X8500Y-6090D01*
Y-6150D01*
X8560D01*
X8580Y-6130D01*
X8560Y-6110D01*
X8500D01*
X8460Y-6070D02*
Y-6150D01*
Y-6110D01*
X8440Y-6090D01*
X8420Y-6070D01*
X8400D01*
X8300Y-6190D02*
X8280D01*
X8260Y-6170D01*
Y-6070D01*
X8320D01*
X8340Y-6090D01*
Y-6130D01*
X8320Y-6150D01*
X8260D01*
X8160D02*
X8200D01*
X8220Y-6130D01*
Y-6090D01*
X8200Y-6070D01*
X8160D01*
X8140Y-6090D01*
Y-6110D01*
X8220D01*
X7980Y-6030D02*
Y-6150D01*
X7920D01*
X7900Y-6130D01*
Y-6110D01*
X7920Y-6090D01*
X7980D01*
X7920D01*
X7900Y-6070D01*
Y-6050D01*
X7920Y-6030D01*
X7980D01*
X7860Y-6070D02*
Y-6150D01*
Y-6110D01*
X7840Y-6090D01*
X7820Y-6070D01*
X7800D01*
X7740Y-6150D02*
X7700D01*
X7720D01*
Y-6070D01*
X7740D01*
X7560D02*
X7620D01*
X7640Y-6090D01*
Y-6130D01*
X7620Y-6150D01*
X7560D01*
X7520D02*
Y-6030D01*
Y-6110D02*
X7460Y-6070D01*
X7520Y-6110D02*
X7460Y-6150D01*
X7220Y-6030D02*
X7260D01*
X7280Y-6050D01*
Y-6130D01*
X7260Y-6150D01*
X7220D01*
X7200Y-6130D01*
Y-6050D01*
X7220Y-6030D01*
X7160Y-6190D02*
Y-6070D01*
X7101D01*
X7081Y-6090D01*
Y-6130D01*
X7101Y-6150D01*
X7160D01*
X6981D02*
X7021D01*
X7041Y-6130D01*
Y-6090D01*
X7021Y-6070D01*
X6981D01*
X6961Y-6090D01*
Y-6110D01*
X7041D01*
X6921Y-6150D02*
Y-6070D01*
X6861D01*
X6841Y-6090D01*
Y-6150D01*
X6601Y-6050D02*
X6621Y-6030D01*
X6661D01*
X6681Y-6050D01*
Y-6070D01*
X6661Y-6090D01*
X6621D01*
X6601Y-6110D01*
Y-6130D01*
X6621Y-6150D01*
X6661D01*
X6681Y-6130D01*
X6541Y-6150D02*
X6501D01*
X6481Y-6130D01*
Y-6090D01*
X6501Y-6070D01*
X6541D01*
X6561Y-6090D01*
Y-6130D01*
X6541Y-6150D01*
X6441Y-6070D02*
Y-6130D01*
X6421Y-6150D01*
X6361D01*
Y-6070D01*
X6321D02*
Y-6150D01*
Y-6110D01*
X6301Y-6090D01*
X6281Y-6070D01*
X6261D01*
X6121D02*
X6181D01*
X6201Y-6090D01*
Y-6130D01*
X6181Y-6150D01*
X6121D01*
X6021D02*
X6061D01*
X6081Y-6130D01*
Y-6090D01*
X6061Y-6070D01*
X6021D01*
X6001Y-6090D01*
Y-6110D01*
X6081D01*
X5841Y-6150D02*
Y-6030D01*
X5781D01*
X5761Y-6050D01*
Y-6090D01*
X5781Y-6110D01*
X5841D01*
X5721Y-6030D02*
Y-6150D01*
X5641D01*
X5521Y-6050D02*
X5541Y-6030D01*
X5581D01*
X5601Y-6050D01*
Y-6130D01*
X5581Y-6150D01*
X5541D01*
X5521Y-6130D01*
X8675Y-5550D02*
X8742D01*
X8775Y-5583D01*
Y-5717D01*
X8742Y-5750D01*
X8675D01*
X8642Y-5717D01*
Y-5583D01*
X8675Y-5550D01*
X8442Y-5583D02*
X8475Y-5550D01*
X8542D01*
X8575Y-5583D01*
Y-5617D01*
X8542Y-5650D01*
X8475D01*
X8442Y-5683D01*
Y-5717D01*
X8475Y-5750D01*
X8542D01*
X8575Y-5717D01*
X8375Y-5750D02*
Y-5550D01*
X8275D01*
X8242Y-5583D01*
Y-5650D01*
X8275Y-5683D01*
X8375D01*
X8175Y-5550D02*
Y-5750D01*
X8042D01*
X7842Y-5583D02*
X7875Y-5550D01*
X7942D01*
X7975Y-5583D01*
Y-5717D01*
X7942Y-5750D01*
X7875D01*
X7842Y-5717D01*
X7442Y-5750D02*
X7575D01*
X7442Y-5617D01*
Y-5583D01*
X7475Y-5550D01*
X7542D01*
X7575Y-5583D01*
X7375Y-5750D02*
Y-5717D01*
X7342D01*
Y-5750D01*
X7375D01*
X7076D02*
X7209D01*
X7076Y-5617D01*
Y-5583D01*
X7109Y-5550D01*
X7176D01*
X7209Y-5583D01*
X6809Y-5550D02*
X6742D01*
X6776D01*
Y-5750D01*
X6809D01*
X6742D01*
X6542Y-5550D02*
X6609D01*
X6642Y-5583D01*
Y-5717D01*
X6609Y-5750D01*
X6542D01*
X6509Y-5717D01*
Y-5583D01*
X6542Y-5550D01*
X6242D02*
Y-5750D01*
X6143D01*
X6109Y-5717D01*
Y-5683D01*
X6143Y-5650D01*
X6242D01*
X6143D01*
X6109Y-5617D01*
Y-5583D01*
X6143Y-5550D01*
X6242D01*
X6009Y-5750D02*
X5943D01*
X5909Y-5717D01*
Y-5650D01*
X5943Y-5617D01*
X6009D01*
X6043Y-5650D01*
Y-5717D01*
X6009Y-5750D01*
X5809Y-5617D02*
X5743D01*
X5709Y-5650D01*
Y-5750D01*
X5809D01*
X5843Y-5717D01*
X5809Y-5683D01*
X5709D01*
X5643Y-5617D02*
Y-5750D01*
Y-5683D01*
X5609Y-5650D01*
X5576Y-5617D01*
X5543D01*
X5309Y-5550D02*
Y-5750D01*
X5409D01*
X5443Y-5717D01*
Y-5650D01*
X5409Y-5617D01*
X5309D01*
X8620Y-5825D02*
X8640Y-5805D01*
X8680D01*
X8700Y-5825D01*
Y-5845D01*
X8680Y-5865D01*
X8640D01*
X8620Y-5885D01*
Y-5905D01*
X8640Y-5925D01*
X8680D01*
X8700Y-5905D01*
X8560Y-5825D02*
Y-5845D01*
X8580D01*
X8540D01*
X8560D01*
Y-5905D01*
X8540Y-5925D01*
X8460Y-5845D02*
X8420D01*
X8400Y-5865D01*
Y-5925D01*
X8460D01*
X8480Y-5905D01*
X8460Y-5885D01*
X8400D01*
X8360Y-5845D02*
Y-5925D01*
Y-5885D01*
X8340Y-5865D01*
X8320Y-5845D01*
X8300D01*
X8220Y-5825D02*
Y-5845D01*
X8240D01*
X8200D01*
X8220D01*
Y-5905D01*
X8200Y-5925D01*
X8140D02*
X8100D01*
X8120D01*
Y-5845D01*
X8140D01*
X8040Y-5925D02*
Y-5845D01*
X7980D01*
X7960Y-5865D01*
Y-5925D01*
X7880Y-5965D02*
X7860D01*
X7840Y-5945D01*
Y-5845D01*
X7900D01*
X7920Y-5865D01*
Y-5905D01*
X7900Y-5925D01*
X7840D01*
X7720Y-5805D02*
X7800D01*
Y-5925D01*
X7720D01*
X7800Y-5865D02*
X7760D01*
X7680Y-5925D02*
X7640D01*
X7660D01*
Y-5805D01*
X7680D01*
X7520Y-5925D02*
X7560D01*
X7580Y-5905D01*
Y-5865D01*
X7560Y-5845D01*
X7520D01*
X7500Y-5865D01*
Y-5885D01*
X7580D01*
X7380Y-5845D02*
X7440D01*
X7460Y-5865D01*
Y-5905D01*
X7440Y-5925D01*
X7380D01*
X7320Y-5825D02*
Y-5845D01*
X7340D01*
X7300D01*
X7320D01*
Y-5905D01*
X7300Y-5925D01*
X7240Y-5845D02*
Y-5925D01*
Y-5885D01*
X7220Y-5865D01*
X7200Y-5845D01*
X7180D01*
X7101Y-5925D02*
X7061D01*
X7041Y-5905D01*
Y-5865D01*
X7061Y-5845D01*
X7101D01*
X7121Y-5865D01*
Y-5905D01*
X7101Y-5925D01*
X7001D02*
Y-5845D01*
X6941D01*
X6921Y-5865D01*
Y-5925D01*
X6881D02*
X6841D01*
X6861D01*
Y-5845D01*
X6881D01*
X6701D02*
X6761D01*
X6781Y-5865D01*
Y-5905D01*
X6761Y-5925D01*
X6701D01*
X6661D02*
X6601D01*
X6581Y-5905D01*
X6601Y-5885D01*
X6641D01*
X6661Y-5865D01*
X6641Y-5845D01*
X6581D01*
X6541Y-5925D02*
Y-5905D01*
X6521D01*
Y-5925D01*
X6541D01*
X6361Y-5845D02*
X6421D01*
X6441Y-5865D01*
Y-5905D01*
X6421Y-5925D01*
X6361D01*
X6301D02*
X6261D01*
X6241Y-5905D01*
Y-5865D01*
X6261Y-5845D01*
X6301D01*
X6321Y-5865D01*
Y-5905D01*
X6301Y-5925D01*
X6201D02*
Y-5845D01*
X6181D01*
X6161Y-5865D01*
Y-5925D01*
Y-5865D01*
X6141Y-5845D01*
X6121Y-5865D01*
Y-5925D01*
D73*
X9047Y-7580D02*
G03*
X9047Y-7580I-12J0D01*
G01*
X8547D02*
G03*
X8547Y-7580I-12J0D01*
G01*
X8047D02*
G03*
X8047Y-7580I-12J0D01*
G01*
X7547D02*
G03*
X7547Y-7580I-12J0D01*
G01*
X7047D02*
G03*
X7047Y-7580I-12J0D01*
G01*
X6547D02*
G03*
X6547Y-7580I-12J0D01*
G01*
X6047D02*
G03*
X6047Y-7580I-12J0D01*
G01*
X5547D02*
G03*
X5547Y-7580I-12J0D01*
G01*
X3797D02*
G03*
X3797Y-7580I-12J0D01*
G01*
X3297D02*
G03*
X3297Y-7580I-12J0D01*
G01*
X2797D02*
G03*
X2797Y-7580I-12J0D01*
G01*
X2297D02*
G03*
X2297Y-7580I-12J0D01*
G01*
X1797D02*
G03*
X1797Y-7580I-12J0D01*
G01*
X1297D02*
G03*
X1297Y-7580I-12J0D01*
G01*
X797D02*
G03*
X797Y-7580I-12J0D01*
G01*
X297D02*
G03*
X297Y-7580I-12J0D01*
G01*
M02*
