%FSLAX42Y42*%
%MOMM*%
G71*
G01*
G75*
%ADD10C,0.20*%
%ADD11O,1.00X1.80*%
%ADD12R,1.00X1.80*%
%ADD13R,3.40X3.00*%
%ADD14R,1.10X1.00*%
%ADD15R,2.20X0.60*%
%ADD16R,1.50X1.30*%
%ADD17R,2.70X3.00*%
%ADD18R,2.60X2.00*%
%ADD19R,1.80X1.00*%
%ADD20O,1.80X1.00*%
%ADD21R,1.30X1.50*%
%ADD22R,1.00X0.85*%
%ADD23R,4.00X3.50*%
%ADD24R,2.00X1.00*%
%ADD25R,7.00X2.80*%
%ADD26R,0.60X1.50*%
%ADD27R,1.80X1.60*%
%ADD28R,2.50X2.70*%
%ADD29R,17.00X11.00*%
%ADD30C,0.25*%
%ADD31C,1.50*%
%ADD32C,2.00*%
%ADD33C,0.30*%
%ADD34C,1.00*%
%ADD35C,0.80*%
%ADD36C,0.40*%
%ADD37C,0.50*%
%ADD38R,3.00X11.50*%
%ADD39R,12.25X11.00*%
%ADD40R,13.50X1.20*%
%ADD41R,3.00X4.40*%
%ADD42R,0.80X4.00*%
%ADD43R,4.55X0.80*%
%ADD44R,7.75X5.25*%
%ADD45R,11.50X1.75*%
%ADD46R,11.75X1.25*%
%ADD47R,2.25X3.90*%
%ADD48R,3.50X23.00*%
%ADD49R,8.25X7.00*%
%ADD50C,4.50*%
%ADD51C,1.50*%
%ADD52R,1.50X1.50*%
%ADD53C,3.25*%
%ADD54C,3.00*%
%ADD55R,1.30X1.30*%
%ADD56C,1.30*%
%ADD57R,1.60X1.60*%
%ADD58C,1.60*%
%ADD59C,2.00*%
%ADD60C,2.50*%
%ADD61R,1.70X1.70*%
%ADD62C,1.70*%
%ADD63C,1.40*%
%ADD64C,1.00*%
%ADD65C,0.60*%
%ADD66C,1.20*%
%ADD67C,0.90*%
%ADD68R,0.85X1.00*%
%ADD69R,1.60X1.80*%
%ADD70R,1.25X1.60*%
%ADD71O,1.25X1.60*%
%ADD72C,0.60*%
%ADD73C,0.25*%
%ADD74R,0.68X5.20*%
%ADD75C,0.13*%
%ADD76R,0.80X0.50*%
%ADD77R,1.61X0.20*%
%ADD78C,0.06*%
%ADD79R,1.70X0.40*%
%ADD80R,7.00X1.50*%
%ADD81R,3.00X12.00*%
%ADD82R,2.00X2.00*%
%ADD83R,2.00X2.00*%
D10*
X3467Y-5745D02*
G03*
X3467Y-5825I0J-40D01*
G01*
X14762Y-5638D02*
G03*
X14688Y-5638I-37J0D01*
G01*
X12230Y-7118D02*
G03*
X12150Y-7118I-40J0D01*
G01*
X11255D02*
G03*
X11175Y-7118I-40J0D01*
G01*
X6843Y-7070D02*
G03*
X6843Y-7150I0J-40D01*
G01*
X6418Y-7070D02*
G03*
X6418Y-7150I0J-40D01*
G01*
X13437Y-5638D02*
G03*
X13363Y-5638I-37J0D01*
G01*
X1767Y-5745D02*
G03*
X1767Y-5825I0J-40D01*
G01*
X1343Y-5745D02*
G03*
X1343Y-5825I0J-40D01*
G01*
X918Y-5745D02*
G03*
X918Y-5825I0J-40D01*
G01*
X493Y-5745D02*
G03*
X493Y-5825I0J-40D01*
G01*
X3042Y-5745D02*
G03*
X3042Y-5825I0J-40D01*
G01*
X2617Y-5745D02*
G03*
X2617Y-5825I0J-40D01*
G01*
X2192Y-5745D02*
G03*
X2192Y-5825I0J-40D01*
G01*
X5992Y-7070D02*
G03*
X5992Y-7150I0J-40D01*
G01*
X4767Y-7070D02*
G03*
X4767Y-7150I0J-40D01*
G01*
X4342Y-7070D02*
G03*
X4342Y-7150I0J-40D01*
G01*
X3917Y-7070D02*
G03*
X3917Y-7150I0J-40D01*
G01*
X1711Y-3527D02*
G03*
X1711Y-3463I0J32D01*
G01*
X1656Y-3025D02*
G03*
X1656Y-3025I-254J0D01*
G01*
Y-2450D02*
G03*
X1656Y-2450I-254J0D01*
G01*
X490Y-1075D02*
G03*
X490Y-1375I0J-150D01*
G01*
X1250D02*
G03*
X1250Y-1075I0J150D01*
G01*
X3080Y-5605D02*
X3467D01*
X3080Y-5965D02*
Y-5605D01*
X3467Y-5965D02*
Y-5825D01*
X3080Y-5965D02*
X3467D01*
Y-5745D02*
Y-5605D01*
X2505Y-3725D02*
X3065Y-4045D01*
X3365D02*
X3925Y-3725D01*
X2500Y-3425D02*
X3060Y-3105D01*
X3365D02*
X3925Y-3425D01*
X3065Y-4045D02*
X3365D01*
X3065Y-3105D02*
X3365D01*
X3925Y-3725D02*
Y-3425D01*
X2500Y-3725D02*
Y-3425D01*
X14535Y-5735D02*
X14680D01*
X14535Y-5915D02*
X14680D01*
X14535D02*
Y-5735D01*
X14895Y-5915D02*
Y-5735D01*
X14750D02*
X14895D01*
X14750Y-5915D02*
X14895D01*
X14615Y-5638D02*
Y-4762D01*
X14835Y-5638D02*
Y-4762D01*
X14615D02*
X14835D01*
X14615Y-5638D02*
X14688D01*
X14762D02*
X14835D01*
X15290Y-4280D02*
Y-4120D01*
X15060Y-4280D02*
Y-4120D01*
X15290D01*
X15060Y-4520D02*
X15290D01*
Y-4360D01*
X15060Y-4520D02*
Y-4360D01*
X15290Y-3305D02*
Y-3145D01*
X15060Y-3305D02*
Y-3145D01*
X15290D01*
X15060Y-3545D02*
X15290D01*
Y-3385D01*
X15060Y-3545D02*
Y-3385D01*
X15290Y-3805D02*
Y-3645D01*
X15060Y-3805D02*
Y-3645D01*
X15290D01*
X15060Y-4045D02*
X15290D01*
Y-3885D01*
X15060Y-4045D02*
Y-3885D01*
X15015Y-4280D02*
Y-4120D01*
X14785Y-4280D02*
Y-4120D01*
X15015D01*
X14785Y-4520D02*
X15015D01*
Y-4360D01*
X14785Y-4520D02*
Y-4360D01*
X15015Y-3305D02*
Y-3145D01*
X14785Y-3305D02*
Y-3145D01*
X15015D01*
X14785Y-3545D02*
X15015D01*
Y-3385D01*
X14785Y-3545D02*
Y-3385D01*
X15015Y-3805D02*
Y-3645D01*
X14785Y-3805D02*
Y-3645D01*
X15015D01*
X14785Y-4045D02*
X15015D01*
Y-3885D01*
X14785Y-4045D02*
Y-3885D01*
X5415Y-3775D02*
Y-3525D01*
X6528D01*
X5415Y-4025D02*
X6528D01*
X5415D02*
Y-3775D01*
X7735Y-4025D02*
Y-3775D01*
X6622Y-4025D02*
X7735D01*
X6622Y-3525D02*
X7735D01*
Y-3775D02*
Y-3525D01*
X9680Y-7210D02*
X10020D01*
Y-7638D02*
Y-7457D01*
X9680Y-7643D02*
Y-7457D01*
Y-7643D02*
X10020D01*
X9705Y-6933D02*
X9994D01*
X9680Y-6959D02*
X9705Y-6934D01*
X9994Y-6933D02*
X10019Y-6958D01*
X9680Y-7118D02*
Y-6959D01*
X10019Y-7118D02*
Y-6958D01*
X9305Y-7210D02*
X9645D01*
Y-7638D02*
Y-7457D01*
X9305Y-7643D02*
Y-7457D01*
Y-7643D02*
X9645D01*
X9330Y-6933D02*
X9619D01*
X9305Y-6959D02*
X9330Y-6934D01*
X9619Y-6933D02*
X9644Y-6958D01*
X9305Y-7118D02*
Y-6959D01*
X9644Y-7118D02*
Y-6958D01*
X8930Y-7210D02*
X9270D01*
Y-7638D02*
Y-7457D01*
X8930Y-7643D02*
Y-7457D01*
Y-7643D02*
X9270D01*
X8955Y-6933D02*
X9244D01*
X8930Y-6959D02*
X8955Y-6934D01*
X9244Y-6933D02*
X9269Y-6958D01*
X8930Y-7118D02*
Y-6959D01*
X9269Y-7118D02*
Y-6958D01*
X8555Y-7210D02*
X8895D01*
Y-7638D02*
Y-7457D01*
X8555Y-7643D02*
Y-7457D01*
Y-7643D02*
X8895D01*
X8580Y-6933D02*
X8869D01*
X8555Y-6959D02*
X8580Y-6934D01*
X8869Y-6933D02*
X8894Y-6958D01*
X8555Y-7118D02*
Y-6959D01*
X8894Y-7118D02*
Y-6958D01*
X12230Y-7118D02*
X12370D01*
X12010D02*
Y-6730D01*
Y-7118D02*
X12150D01*
X12010Y-6730D02*
X12370D01*
Y-7118D02*
Y-6730D01*
X11255Y-7118D02*
X11395D01*
X11035D02*
Y-6730D01*
Y-7118D02*
X11175D01*
X11035Y-6730D02*
X11395D01*
Y-7118D02*
Y-6730D01*
X6843Y-7070D02*
Y-6930D01*
X6455Y-7290D02*
X6843D01*
Y-7150D01*
X6455Y-7290D02*
Y-6930D01*
X6843D01*
X6418Y-7070D02*
Y-6930D01*
X6030Y-7290D02*
X6418D01*
Y-7150D01*
X6030Y-7290D02*
Y-6930D01*
X6418D01*
X10395Y-4765D02*
X10555D01*
X10395Y-4535D02*
X10555D01*
Y-4765D02*
Y-4535D01*
X10155Y-4765D02*
Y-4535D01*
Y-4765D02*
X10315D01*
X10155Y-4535D02*
X10315D01*
X9945Y-4765D02*
X10105D01*
X9945Y-4535D02*
X10105D01*
Y-4765D02*
Y-4535D01*
X9705Y-4765D02*
Y-4535D01*
Y-4765D02*
X9865D01*
X9705Y-4535D02*
X9865D01*
X9495Y-4765D02*
X9655D01*
X9495Y-4535D02*
X9655D01*
Y-4765D02*
Y-4535D01*
X9255Y-4765D02*
Y-4535D01*
Y-4765D02*
X9415D01*
X9255Y-4535D02*
X9415D01*
X9045Y-4765D02*
X9205D01*
X9045Y-4535D02*
X9205D01*
Y-4765D02*
Y-4535D01*
X8805Y-4765D02*
Y-4535D01*
Y-4765D02*
X8965D01*
X8805Y-4535D02*
X8965D01*
X9020Y-6090D02*
X9180D01*
X9020Y-5860D02*
X9180D01*
Y-6090D02*
Y-5860D01*
X8780Y-6090D02*
Y-5860D01*
Y-6090D02*
X8940D01*
X8780Y-5860D02*
X8940D01*
X8520Y-6090D02*
X8680D01*
X8520Y-5860D02*
X8680D01*
Y-6090D02*
Y-5860D01*
X8280Y-6090D02*
Y-5860D01*
Y-6090D02*
X8440D01*
X8280Y-5860D02*
X8440D01*
X8190Y-5830D02*
Y-5670D01*
X7960Y-5830D02*
Y-5670D01*
X8190D01*
X7960Y-6070D02*
X8190D01*
Y-5910D01*
X7960Y-6070D02*
Y-5910D01*
X7915Y-5830D02*
Y-5670D01*
X7685Y-5830D02*
Y-5670D01*
X7915D01*
X7685Y-6070D02*
X7915D01*
Y-5910D01*
X7685Y-6070D02*
Y-5910D01*
X10140Y-5200D02*
X10560D01*
Y-4800D01*
X10140D02*
X10560D01*
X10140Y-5200D02*
Y-4800D01*
X9690Y-5200D02*
X10110D01*
Y-4800D01*
X9690D02*
X10110D01*
X9690Y-5200D02*
Y-4800D01*
X9240Y-5200D02*
X9660D01*
Y-4800D01*
X9240D02*
X9660D01*
X9240Y-5200D02*
Y-4800D01*
X8790Y-5200D02*
X9210D01*
Y-4800D01*
X8790D02*
X9210D01*
X8790Y-5200D02*
Y-4800D01*
X13210Y-5735D02*
X13355D01*
X13210Y-5915D02*
X13355D01*
X13210D02*
Y-5735D01*
X13570Y-5915D02*
Y-5735D01*
X13425D02*
X13570D01*
X13425Y-5915D02*
X13570D01*
X13290Y-5638D02*
Y-4762D01*
X13510Y-5638D02*
Y-4762D01*
X13290D02*
X13510D01*
X13290Y-5638D02*
X13363D01*
X13437D02*
X13510D01*
X14715Y-4280D02*
Y-4120D01*
X14485Y-4280D02*
Y-4120D01*
X14715D01*
X14485Y-4520D02*
X14715D01*
Y-4360D01*
X14485Y-4520D02*
Y-4360D01*
X14440Y-4280D02*
Y-4120D01*
X14210Y-4280D02*
Y-4120D01*
X14440D01*
X14210Y-4520D02*
X14440D01*
Y-4360D01*
X14210Y-4520D02*
Y-4360D01*
X14715Y-3305D02*
Y-3145D01*
X14485Y-3305D02*
Y-3145D01*
X14715D01*
X14485Y-3545D02*
X14715D01*
Y-3385D01*
X14485Y-3545D02*
Y-3385D01*
X14440Y-3305D02*
Y-3145D01*
X14210Y-3305D02*
Y-3145D01*
X14440D01*
X14210Y-3545D02*
X14440D01*
Y-3385D01*
X14210Y-3545D02*
Y-3385D01*
X14715Y-3805D02*
Y-3645D01*
X14485Y-3805D02*
Y-3645D01*
X14715D01*
X14485Y-4045D02*
X14715D01*
Y-3885D01*
X14485Y-4045D02*
Y-3885D01*
X14440Y-3805D02*
Y-3645D01*
X14210Y-3805D02*
Y-3645D01*
X14440D01*
X14210Y-4045D02*
X14440D01*
Y-3885D01*
X14210Y-4045D02*
Y-3885D01*
X14165Y-4280D02*
Y-4120D01*
X13935Y-4280D02*
Y-4120D01*
X14165D01*
X13935Y-4520D02*
X14165D01*
Y-4360D01*
X13935Y-4520D02*
Y-4360D01*
X13890Y-4280D02*
Y-4120D01*
X13660Y-4280D02*
Y-4120D01*
X13890D01*
X13660Y-4520D02*
X13890D01*
Y-4360D01*
X13660Y-4520D02*
Y-4360D01*
X13467Y-2980D02*
X14204D01*
X13873Y-3107D02*
X13975Y-3005D01*
X13873Y-3107D02*
X14077D01*
X13975Y-3005D02*
X14077Y-3107D01*
X13467Y-2980D02*
Y-2116D01*
X14762Y-2980D02*
Y-2802D01*
X14204D02*
X14762D01*
X14204Y-2980D02*
Y-2802D01*
X13467Y-2116D02*
X15499D01*
Y-2980D02*
Y-2116D01*
X14762Y-2980D02*
X15499D01*
X14165Y-3305D02*
Y-3145D01*
X13935Y-3305D02*
Y-3145D01*
X14165D01*
X13935Y-3545D02*
X14165D01*
Y-3385D01*
X13935Y-3545D02*
Y-3385D01*
X13890Y-3305D02*
Y-3145D01*
X13660Y-3305D02*
Y-3145D01*
X13890D01*
X13660Y-3545D02*
X13890D01*
Y-3385D01*
X13660Y-3545D02*
Y-3385D01*
X14165Y-3805D02*
Y-3645D01*
X13935Y-3805D02*
Y-3645D01*
X14165D01*
X13935Y-4045D02*
X14165D01*
Y-3885D01*
X13935Y-4045D02*
Y-3885D01*
X13890Y-3805D02*
Y-3645D01*
X13660Y-3805D02*
Y-3645D01*
X13890D01*
X13660Y-4045D02*
X13890D01*
Y-3885D01*
X13660Y-4045D02*
Y-3885D01*
X1580Y-7210D02*
X1920D01*
Y-7638D02*
Y-7457D01*
X1580Y-7643D02*
Y-7457D01*
Y-7643D02*
X1920D01*
X1605Y-6933D02*
X1894D01*
X1580Y-6959D02*
X1605Y-6934D01*
X1894Y-6933D02*
X1919Y-6958D01*
X1580Y-7118D02*
Y-6959D01*
X1919Y-7118D02*
Y-6958D01*
X1180Y-7210D02*
X1520D01*
Y-7638D02*
Y-7457D01*
X1180Y-7643D02*
Y-7457D01*
Y-7643D02*
X1520D01*
X1205Y-6933D02*
X1494D01*
X1180Y-6959D02*
X1205Y-6934D01*
X1494Y-6933D02*
X1519Y-6958D01*
X1180Y-7118D02*
Y-6959D01*
X1519Y-7118D02*
Y-6958D01*
X780Y-7210D02*
X1120D01*
Y-7638D02*
Y-7457D01*
X780Y-7643D02*
Y-7457D01*
Y-7643D02*
X1120D01*
X805Y-6933D02*
X1094D01*
X780Y-6959D02*
X805Y-6934D01*
X1094Y-6933D02*
X1119Y-6958D01*
X780Y-7118D02*
Y-6959D01*
X1119Y-7118D02*
Y-6958D01*
X380Y-7210D02*
X720D01*
Y-7638D02*
Y-7457D01*
X380Y-7643D02*
Y-7457D01*
Y-7643D02*
X720D01*
X405Y-6933D02*
X694D01*
X380Y-6959D02*
X405Y-6934D01*
X694Y-6933D02*
X719Y-6958D01*
X380Y-7118D02*
Y-6959D01*
X719Y-7118D02*
Y-6958D01*
X1165Y-6630D02*
Y-6470D01*
X935Y-6630D02*
Y-6470D01*
X1165D01*
X935Y-6870D02*
X1165D01*
Y-6710D01*
X935Y-6870D02*
Y-6710D01*
X915Y-6630D02*
Y-6470D01*
X685Y-6630D02*
Y-6470D01*
X915D01*
X685Y-6870D02*
X915D01*
Y-6710D01*
X685Y-6870D02*
Y-6710D01*
X665Y-6630D02*
Y-6470D01*
X435Y-6630D02*
Y-6470D01*
X665D01*
X435Y-6870D02*
X665D01*
Y-6710D01*
X435Y-6870D02*
Y-6710D01*
X1767Y-5745D02*
Y-5605D01*
X1380Y-5965D02*
X1767D01*
Y-5825D01*
X1380Y-5965D02*
Y-5605D01*
X1767D01*
X1343Y-5745D02*
Y-5605D01*
X955Y-5965D02*
X1343D01*
Y-5825D01*
X955Y-5965D02*
Y-5605D01*
X1343D01*
X918Y-5745D02*
Y-5605D01*
X530Y-5965D02*
X918D01*
Y-5825D01*
X530Y-5965D02*
Y-5605D01*
X918D01*
X493Y-5745D02*
Y-5605D01*
X105Y-5965D02*
X493D01*
Y-5825D01*
X105Y-5965D02*
Y-5605D01*
X493D01*
X4995Y-4765D02*
X5155D01*
X4995Y-4535D02*
X5155D01*
Y-4765D02*
Y-4535D01*
X4755Y-4765D02*
Y-4535D01*
Y-4765D02*
X4915D01*
X4755Y-4535D02*
X4915D01*
X4545Y-4765D02*
X4705D01*
X4545Y-4535D02*
X4705D01*
Y-4765D02*
Y-4535D01*
X4305Y-4765D02*
Y-4535D01*
Y-4765D02*
X4465D01*
X4305Y-4535D02*
X4465D01*
X4095Y-4765D02*
X4255D01*
X4095Y-4535D02*
X4255D01*
Y-4765D02*
Y-4535D01*
X3855Y-4765D02*
Y-4535D01*
Y-4765D02*
X4015D01*
X3855Y-4535D02*
X4015D01*
X3645Y-4765D02*
X3805D01*
X3645Y-4535D02*
X3805D01*
Y-4765D02*
Y-4535D01*
X3405Y-4765D02*
Y-4535D01*
Y-4765D02*
X3565D01*
X3405Y-4535D02*
X3565D01*
X5440Y-5830D02*
Y-5670D01*
X5210Y-5830D02*
Y-5670D01*
X5440D01*
X5210Y-6070D02*
X5440D01*
Y-5910D01*
X5210Y-6070D02*
Y-5910D01*
X5165Y-5830D02*
Y-5670D01*
X4935Y-5830D02*
Y-5670D01*
X5165D01*
X4935Y-6070D02*
X5165D01*
Y-5910D01*
X4935Y-6070D02*
Y-5910D01*
X4890Y-5830D02*
Y-5670D01*
X4660Y-5830D02*
Y-5670D01*
X4890D01*
X4660Y-6070D02*
X4890D01*
Y-5910D01*
X4660Y-6070D02*
Y-5910D01*
X4615Y-5830D02*
Y-5670D01*
X4385Y-5830D02*
Y-5670D01*
X4615D01*
X4385Y-6070D02*
X4615D01*
Y-5910D01*
X4385Y-6070D02*
Y-5910D01*
X4740Y-5200D02*
X5160D01*
Y-4800D01*
X4740D02*
X5160D01*
X4740Y-5200D02*
Y-4800D01*
X4290Y-5200D02*
X4710D01*
Y-4800D01*
X4290D02*
X4710D01*
X4290Y-5200D02*
Y-4800D01*
X3840Y-5200D02*
X4260D01*
Y-4800D01*
X3840D02*
X4260D01*
X3840Y-5200D02*
Y-4800D01*
X3390Y-5200D02*
X3810D01*
Y-4800D01*
X3390D02*
X3810D01*
X3390Y-5200D02*
Y-4800D01*
X3180Y-7210D02*
X3520D01*
Y-7638D02*
Y-7457D01*
X3180Y-7643D02*
Y-7457D01*
Y-7643D02*
X3520D01*
X3205Y-6933D02*
X3494D01*
X3180Y-6959D02*
X3205Y-6934D01*
X3494Y-6933D02*
X3519Y-6958D01*
X3180Y-7118D02*
Y-6959D01*
X3519Y-7118D02*
Y-6958D01*
X2780Y-7210D02*
X3120D01*
Y-7638D02*
Y-7457D01*
X2780Y-7643D02*
Y-7457D01*
Y-7643D02*
X3120D01*
X2805Y-6933D02*
X3094D01*
X2780Y-6959D02*
X2805Y-6934D01*
X3094Y-6933D02*
X3119Y-6958D01*
X2780Y-7118D02*
Y-6959D01*
X3119Y-7118D02*
Y-6958D01*
X2380Y-7210D02*
X2720D01*
Y-7638D02*
Y-7457D01*
X2380Y-7643D02*
Y-7457D01*
Y-7643D02*
X2720D01*
X2405Y-6933D02*
X2694D01*
X2380Y-6959D02*
X2405Y-6934D01*
X2694Y-6933D02*
X2719Y-6958D01*
X2380Y-7118D02*
Y-6959D01*
X2719Y-7118D02*
Y-6958D01*
X1980Y-7210D02*
X2320D01*
Y-7638D02*
Y-7457D01*
X1980Y-7643D02*
Y-7457D01*
Y-7643D02*
X2320D01*
X2005Y-6933D02*
X2294D01*
X1980Y-6959D02*
X2005Y-6934D01*
X2294Y-6933D02*
X2319Y-6958D01*
X1980Y-7118D02*
Y-6959D01*
X2319Y-7118D02*
Y-6958D01*
X1915Y-6630D02*
Y-6470D01*
X1685Y-6630D02*
Y-6470D01*
X1915D01*
X1685Y-6870D02*
X1915D01*
Y-6710D01*
X1685Y-6870D02*
Y-6710D01*
X1665Y-6630D02*
Y-6470D01*
X1435Y-6630D02*
Y-6470D01*
X1665D01*
X1435Y-6870D02*
X1665D01*
Y-6710D01*
X1435Y-6870D02*
Y-6710D01*
X1415Y-6630D02*
Y-6470D01*
X1185Y-6630D02*
Y-6470D01*
X1415D01*
X1185Y-6870D02*
X1415D01*
Y-6710D01*
X1185Y-6870D02*
Y-6710D01*
X3042Y-5745D02*
Y-5605D01*
X2655Y-5965D02*
X3042D01*
Y-5825D01*
X2655Y-5965D02*
Y-5605D01*
X3042D01*
X2617Y-5745D02*
Y-5605D01*
X2230Y-5965D02*
X2617D01*
Y-5825D01*
X2230Y-5965D02*
Y-5605D01*
X2617D01*
X2192Y-5745D02*
Y-5605D01*
X1805Y-5965D02*
X2192D01*
Y-5825D01*
X1805Y-5965D02*
Y-5605D01*
X2192D01*
X6795Y-4765D02*
X6955D01*
X6795Y-4535D02*
X6955D01*
Y-4765D02*
Y-4535D01*
X6555Y-4765D02*
Y-4535D01*
Y-4765D02*
X6715D01*
X6555Y-4535D02*
X6715D01*
X6345Y-4765D02*
X6505D01*
X6345Y-4535D02*
X6505D01*
Y-4765D02*
Y-4535D01*
X6105Y-4765D02*
Y-4535D01*
Y-4765D02*
X6265D01*
X6105Y-4535D02*
X6265D01*
X5895Y-4765D02*
X6055D01*
X5895Y-4535D02*
X6055D01*
Y-4765D02*
Y-4535D01*
X5655Y-4765D02*
Y-4535D01*
Y-4765D02*
X5815D01*
X5655Y-4535D02*
X5815D01*
X5445Y-4765D02*
X5605D01*
X5445Y-4535D02*
X5605D01*
Y-4765D02*
Y-4535D01*
X5205Y-4765D02*
Y-4535D01*
Y-4765D02*
X5365D01*
X5205Y-4535D02*
X5365D01*
X6540Y-5830D02*
Y-5670D01*
X6310Y-5830D02*
Y-5670D01*
X6540D01*
X6310Y-6070D02*
X6540D01*
Y-5910D01*
X6310Y-6070D02*
Y-5910D01*
X6265Y-5830D02*
Y-5670D01*
X6035Y-5830D02*
Y-5670D01*
X6265D01*
X6035Y-6070D02*
X6265D01*
Y-5910D01*
X6035Y-6070D02*
Y-5910D01*
X5990Y-5830D02*
Y-5670D01*
X5760Y-5830D02*
Y-5670D01*
X5990D01*
X5760Y-6070D02*
X5990D01*
Y-5910D01*
X5760Y-6070D02*
Y-5910D01*
X5715Y-5830D02*
Y-5670D01*
X5485Y-5830D02*
Y-5670D01*
X5715D01*
X5485Y-6070D02*
X5715D01*
Y-5910D01*
X5485Y-6070D02*
Y-5910D01*
X6540Y-5200D02*
X6960D01*
Y-4800D01*
X6540D02*
X6960D01*
X6540Y-5200D02*
Y-4800D01*
X6090Y-5200D02*
X6510D01*
Y-4800D01*
X6090D02*
X6510D01*
X6090Y-5200D02*
Y-4800D01*
X5640Y-5200D02*
X6060D01*
Y-4800D01*
X5640D02*
X6060D01*
X5640Y-5200D02*
Y-4800D01*
X5190Y-5200D02*
X5610D01*
Y-4800D01*
X5190D02*
X5610D01*
X5190Y-5200D02*
Y-4800D01*
X8180Y-7210D02*
X8520D01*
Y-7638D02*
Y-7457D01*
X8180Y-7643D02*
Y-7457D01*
Y-7643D02*
X8520D01*
X8205Y-6933D02*
X8494D01*
X8180Y-6959D02*
X8205Y-6934D01*
X8494Y-6933D02*
X8519Y-6958D01*
X8180Y-7118D02*
Y-6959D01*
X8519Y-7118D02*
Y-6958D01*
X7805Y-7210D02*
X8145D01*
Y-7638D02*
Y-7457D01*
X7805Y-7643D02*
Y-7457D01*
Y-7643D02*
X8145D01*
X7830Y-6933D02*
X8119D01*
X7805Y-6959D02*
X7830Y-6934D01*
X8119Y-6933D02*
X8144Y-6958D01*
X7805Y-7118D02*
Y-6959D01*
X8144Y-7118D02*
Y-6958D01*
X7430Y-7210D02*
X7770D01*
Y-7638D02*
Y-7457D01*
X7430Y-7643D02*
Y-7457D01*
Y-7643D02*
X7770D01*
X7455Y-6933D02*
X7744D01*
X7430Y-6959D02*
X7455Y-6934D01*
X7744Y-6933D02*
X7769Y-6958D01*
X7430Y-7118D02*
Y-6959D01*
X7769Y-7118D02*
Y-6958D01*
X7055Y-7210D02*
X7395D01*
Y-7638D02*
Y-7457D01*
X7055Y-7643D02*
Y-7457D01*
Y-7643D02*
X7395D01*
X7080Y-6933D02*
X7369D01*
X7055Y-6959D02*
X7080Y-6934D01*
X7369Y-6933D02*
X7394Y-6958D01*
X7055Y-7118D02*
Y-6959D01*
X7394Y-7118D02*
Y-6958D01*
X5992Y-7070D02*
Y-6930D01*
X5605Y-7290D02*
X5992D01*
Y-7150D01*
X5605Y-7290D02*
Y-6930D01*
X5992D01*
X4767Y-7070D02*
Y-6930D01*
X4380Y-7290D02*
X4767D01*
Y-7150D01*
X4380Y-7290D02*
Y-6930D01*
X4767D01*
X4342Y-7070D02*
Y-6930D01*
X3955Y-7290D02*
X4342D01*
Y-7150D01*
X3955Y-7290D02*
Y-6930D01*
X4342D01*
X3917Y-7070D02*
Y-6930D01*
X3530Y-7290D02*
X3917D01*
Y-7150D01*
X3530Y-7290D02*
Y-6930D01*
X3917D01*
X8595Y-4765D02*
X8755D01*
X8595Y-4535D02*
X8755D01*
Y-4765D02*
Y-4535D01*
X8355Y-4765D02*
Y-4535D01*
Y-4765D02*
X8515D01*
X8355Y-4535D02*
X8515D01*
X8145Y-4765D02*
X8305D01*
X8145Y-4535D02*
X8305D01*
Y-4765D02*
Y-4535D01*
X7905Y-4765D02*
Y-4535D01*
Y-4765D02*
X8065D01*
X7905Y-4535D02*
X8065D01*
X7695Y-4765D02*
X7855D01*
X7695Y-4535D02*
X7855D01*
Y-4765D02*
Y-4535D01*
X7455Y-4765D02*
Y-4535D01*
Y-4765D02*
X7615D01*
X7455Y-4535D02*
X7615D01*
X7245Y-4765D02*
X7405D01*
X7245Y-4535D02*
X7405D01*
Y-4765D02*
Y-4535D01*
X7005Y-4765D02*
Y-4535D01*
Y-4765D02*
X7165D01*
X7005Y-4535D02*
X7165D01*
X7640Y-5830D02*
Y-5670D01*
X7410Y-5830D02*
Y-5670D01*
X7640D01*
X7410Y-6070D02*
X7640D01*
Y-5910D01*
X7410Y-6070D02*
Y-5910D01*
X7365Y-5830D02*
Y-5670D01*
X7135Y-5830D02*
Y-5670D01*
X7365D01*
X7135Y-6070D02*
X7365D01*
Y-5910D01*
X7135Y-6070D02*
Y-5910D01*
X7090Y-5830D02*
Y-5670D01*
X6860Y-5830D02*
Y-5670D01*
X7090D01*
X6860Y-6070D02*
X7090D01*
Y-5910D01*
X6860Y-6070D02*
Y-5910D01*
X6815Y-5830D02*
Y-5670D01*
X6585Y-5830D02*
Y-5670D01*
X6815D01*
X6585Y-6070D02*
X6815D01*
Y-5910D01*
X6585Y-6070D02*
Y-5910D01*
X8340Y-5200D02*
X8760D01*
Y-4800D01*
X8340D02*
X8760D01*
X8340Y-5200D02*
Y-4800D01*
X7890Y-5200D02*
X8310D01*
Y-4800D01*
X7890D02*
X8310D01*
X7890Y-5200D02*
Y-4800D01*
X7440Y-5200D02*
X7860D01*
Y-4800D01*
X7440D02*
X7860D01*
X7440Y-5200D02*
Y-4800D01*
X6990Y-5200D02*
X7410D01*
Y-4800D01*
X6990D02*
X7410D01*
X6990Y-5200D02*
Y-4800D01*
X10640Y-3205D02*
Y-3045D01*
X10410Y-3205D02*
Y-3045D01*
X10640D01*
X10410Y-3445D02*
X10640D01*
Y-3285D01*
X10410Y-3445D02*
Y-3285D01*
X10390Y-3205D02*
Y-3045D01*
X10160Y-3205D02*
Y-3045D01*
X10390D01*
X10160Y-3445D02*
X10390D01*
Y-3285D01*
X10160Y-3445D02*
Y-3285D01*
X10140Y-3205D02*
Y-3045D01*
X9910Y-3205D02*
Y-3045D01*
X10140D01*
X9910Y-3445D02*
X10140D01*
Y-3285D01*
X9910Y-3445D02*
Y-3285D01*
X9890Y-3205D02*
Y-3045D01*
X9660Y-3205D02*
Y-3045D01*
X9890D01*
X9660Y-3445D02*
X9890D01*
Y-3285D01*
X9660Y-3445D02*
Y-3285D01*
X9640Y-3205D02*
Y-3045D01*
X9410Y-3205D02*
Y-3045D01*
X9640D01*
X9410Y-3445D02*
X9640D01*
Y-3285D01*
X9410Y-3445D02*
Y-3285D01*
X10722Y-2405D02*
X12094D01*
X8792Y-1541D02*
X12094D01*
Y-2405D02*
Y-1541D01*
X8792Y-2405D02*
X10164D01*
Y-2227D01*
X10722D01*
Y-2405D02*
Y-2227D01*
X8792Y-2405D02*
Y-1541D01*
X9300Y-2430D02*
X9402Y-2532D01*
X9198D02*
X9402D01*
X9198D02*
X9300Y-2430D01*
X4297Y-2405D02*
X5669D01*
X2367Y-1541D02*
X5669D01*
Y-2405D02*
Y-1541D01*
X2367Y-2405D02*
X3739D01*
Y-2227D01*
X4297D01*
Y-2405D02*
Y-2227D01*
X2367Y-2405D02*
Y-1541D01*
X2875Y-2430D02*
X2977Y-2532D01*
X2773D02*
X2977D01*
X2773D02*
X2875Y-2430D01*
X12770Y-7690D02*
X12915D01*
X12770Y-7510D02*
X12915D01*
Y-7690D02*
Y-7510D01*
X12555Y-7690D02*
Y-7510D01*
Y-7690D02*
X12700D01*
X12555Y-7510D02*
X12700D01*
X14222Y-8630D02*
X15594D01*
X12292Y-7766D02*
X15594D01*
Y-8630D02*
Y-7766D01*
X12292Y-8630D02*
X13664D01*
Y-8452D01*
X14222D01*
Y-8630D02*
Y-8452D01*
X12292Y-8630D02*
Y-7766D01*
X12800Y-8655D02*
X12902Y-8757D01*
X12698D02*
X12902D01*
X12698D02*
X12800Y-8655D01*
X13495Y-7315D02*
X13655D01*
X13495Y-7085D02*
X13655D01*
Y-7315D02*
Y-7085D01*
X13255Y-7315D02*
Y-7085D01*
Y-7315D02*
X13415D01*
X13255Y-7085D02*
X13415D01*
X3195Y-4765D02*
X3355D01*
X3195Y-4535D02*
X3355D01*
Y-4765D02*
Y-4535D01*
X2955Y-4765D02*
Y-4535D01*
Y-4765D02*
X3115D01*
X2955Y-4535D02*
X3115D01*
X4340Y-5830D02*
Y-5670D01*
X4110Y-5830D02*
Y-5670D01*
X4340D01*
X4110Y-6070D02*
X4340D01*
Y-5910D01*
X4110Y-6070D02*
Y-5910D01*
X2940Y-5200D02*
X3360D01*
Y-4800D01*
X2940D02*
X3360D01*
X2940Y-5200D02*
Y-4800D01*
X12694Y-7327D02*
X13202D01*
Y-7073D01*
X12694D02*
X13202D01*
X12694Y-7327D02*
Y-7073D01*
X6015Y-3205D02*
Y-3045D01*
X5785Y-3205D02*
Y-3045D01*
X6015D01*
X5785Y-3445D02*
X6015D01*
Y-3285D01*
X5785Y-3445D02*
Y-3285D01*
X5765Y-3205D02*
Y-3045D01*
X5535Y-3205D02*
Y-3045D01*
X5765D01*
X5535Y-3445D02*
X5765D01*
Y-3285D01*
X5535Y-3445D02*
Y-3285D01*
X5515Y-3205D02*
Y-3045D01*
X5285Y-3205D02*
Y-3045D01*
X5515D01*
X5285Y-3445D02*
X5515D01*
Y-3285D01*
X5285Y-3445D02*
Y-3285D01*
X5265Y-3205D02*
Y-3045D01*
X5035Y-3205D02*
Y-3045D01*
X5265D01*
X5035Y-3445D02*
X5265D01*
Y-3285D01*
X5035Y-3445D02*
Y-3285D01*
X5015Y-3205D02*
Y-3045D01*
X4785Y-3205D02*
Y-3045D01*
X5015D01*
X4785Y-3445D02*
X5015D01*
Y-3285D01*
X4785Y-3445D02*
Y-3285D01*
X4765Y-3205D02*
Y-3045D01*
X4535Y-3205D02*
Y-3045D01*
X4765D01*
X4535Y-3445D02*
X4765D01*
Y-3285D01*
X4535Y-3445D02*
Y-3285D01*
X4515Y-3205D02*
Y-3045D01*
X4285Y-3205D02*
Y-3045D01*
X4515D01*
X4285Y-3445D02*
X4515D01*
Y-3285D01*
X4285Y-3445D02*
Y-3285D01*
X4265Y-3205D02*
Y-3045D01*
X4035Y-3205D02*
Y-3045D01*
X4265D01*
X4035Y-3445D02*
X4265D01*
Y-3285D01*
X4035Y-3445D02*
Y-3285D01*
X9035Y-4395D02*
Y-4255D01*
Y-3855D02*
Y-3715D01*
X8665D02*
X9035D01*
X8665Y-4395D02*
X9035D01*
X8665Y-3745D02*
Y-3715D01*
Y-4395D02*
Y-4365D01*
X1711Y-3592D02*
Y-3527D01*
Y-3463D02*
Y-3399D01*
X2219Y-3592D02*
Y-3399D01*
X1711Y-3395D02*
X1745D01*
X2186Y-3399D02*
X2219D01*
X1711Y-3592D02*
X1745D01*
X2186D02*
X2219D01*
X1530Y-1710D02*
X1870D01*
Y-2138D02*
Y-1958D01*
X1530Y-2142D02*
Y-1958D01*
Y-2142D02*
X1870D01*
X1555Y-1433D02*
X1844D01*
X1530Y-1459D02*
X1555Y-1434D01*
X1844Y-1433D02*
X1869Y-1458D01*
X1530Y-1617D02*
Y-1459D01*
X1869Y-1617D02*
Y-1458D01*
X7760Y-3455D02*
Y-3295D01*
X7990Y-3455D02*
Y-3295D01*
X7760Y-3455D02*
X7990D01*
X7760Y-3055D02*
X7990D01*
X7760Y-3215D02*
Y-3055D01*
X7990Y-3215D02*
Y-3055D01*
X2320Y-3010D02*
X2480D01*
X2320Y-3240D02*
X2480D01*
X2320D02*
Y-3010D01*
X2720Y-3240D02*
Y-3010D01*
X2560D02*
X2720D01*
X2560Y-3240D02*
X2720D01*
X7835Y-4180D02*
Y-4020D01*
X8065Y-4180D02*
Y-4020D01*
X7835Y-4180D02*
X8065D01*
X7835Y-3780D02*
X8065D01*
X7835Y-3940D02*
Y-3780D01*
X8065Y-3940D02*
Y-3780D01*
X9390Y-3205D02*
Y-3045D01*
X9160Y-3205D02*
Y-3045D01*
X9390D01*
X9160Y-3445D02*
X9390D01*
Y-3285D01*
X9160Y-3445D02*
Y-3285D01*
X2045Y-1940D02*
Y-1750D01*
X2305Y-1940D02*
Y-1750D01*
X2045Y-2270D02*
Y-2080D01*
X2305Y-2270D02*
Y-2080D01*
X2045Y-2270D02*
X2305D01*
X2045Y-1750D02*
X2305D01*
X1895Y-4350D02*
Y-4150D01*
Y-3950D01*
X1895D02*
X1915D01*
Y-4350D02*
Y-3950D01*
X1895Y-4350D02*
X1915D01*
X1130Y-3950D02*
X1900D01*
X1130Y-4350D02*
Y-3950D01*
Y-4350D02*
X1900D01*
X490Y-1075D02*
X1250D01*
X490Y-1375D02*
X1250D01*
X1155Y-1865D02*
X1495D01*
X1155Y-1617D02*
Y-1438D01*
X1495Y-1617D02*
Y-1432D01*
X1155Y-1432D02*
X1495D01*
X1181Y-2142D02*
X1470D01*
X1470Y-2141D02*
X1495Y-2116D01*
X1156Y-2117D02*
X1181Y-2142D01*
X1495Y-2116D02*
Y-1958D01*
X1156Y-2117D02*
Y-1958D01*
X1820Y-2660D02*
X1980D01*
X1820Y-2890D02*
X1980D01*
X1820D02*
Y-2660D01*
X2220Y-2890D02*
Y-2660D01*
X2060D02*
X2220D01*
X2060Y-2890D02*
X2220D01*
X9140Y-3205D02*
Y-3045D01*
X8910Y-3205D02*
Y-3045D01*
X9140D01*
X8910Y-3445D02*
X9140D01*
Y-3285D01*
X8910Y-3445D02*
Y-3285D01*
X8890Y-3205D02*
Y-3045D01*
X8660Y-3205D02*
Y-3045D01*
X8890D01*
X8660Y-3445D02*
X8890D01*
Y-3285D01*
X8660Y-3445D02*
Y-3285D01*
X7515Y-3205D02*
Y-3045D01*
X7285Y-3205D02*
Y-3045D01*
X7515D01*
X7285Y-3445D02*
X7515D01*
Y-3285D01*
X7285Y-3445D02*
Y-3285D01*
X7265Y-3205D02*
Y-3045D01*
X7035Y-3205D02*
Y-3045D01*
X7265D01*
X7035Y-3445D02*
X7265D01*
Y-3285D01*
X7035Y-3445D02*
Y-3285D01*
X7015Y-3205D02*
Y-3045D01*
X6785Y-3205D02*
Y-3045D01*
X7015D01*
X6785Y-3445D02*
X7015D01*
Y-3285D01*
X6785Y-3445D02*
Y-3285D01*
X6765Y-3205D02*
Y-3045D01*
X6535Y-3205D02*
Y-3045D01*
X6765D01*
X6535Y-3445D02*
X6765D01*
Y-3285D01*
X6535Y-3445D02*
Y-3285D01*
X6515Y-3205D02*
Y-3045D01*
X6285Y-3205D02*
Y-3045D01*
X6515D01*
X6285Y-3445D02*
X6515D01*
Y-3285D01*
X6285Y-3445D02*
Y-3285D01*
X6265Y-3205D02*
Y-3045D01*
X6035Y-3205D02*
Y-3045D01*
X6265D01*
X6035Y-3445D02*
X6265D01*
Y-3285D01*
X6035Y-3445D02*
Y-3285D01*
X1935Y-6870D02*
Y-6710D01*
X2165Y-6870D02*
Y-6710D01*
X1935Y-6870D02*
X2165D01*
X1935Y-6470D02*
X2165D01*
X1935Y-6630D02*
Y-6470D01*
X2165Y-6630D02*
Y-6470D01*
X185Y-6870D02*
Y-6710D01*
X415Y-6870D02*
Y-6710D01*
X185Y-6870D02*
X415D01*
X185Y-6470D02*
X415D01*
X185Y-6630D02*
Y-6470D01*
X415Y-6630D02*
Y-6470D01*
X10205Y-6710D02*
X10365D01*
X10205Y-6940D02*
X10365D01*
X10205D02*
Y-6710D01*
X10605Y-6940D02*
Y-6710D01*
X10445D02*
X10605D01*
X10445Y-6940D02*
X10605D01*
X10080Y-3534D02*
Y-3460D01*
X10080Y-3460D01*
X12480D01*
X10080Y-4574D02*
X10080Y-4642D01*
Y-4640D01*
Y-4642D02*
X12480D01*
Y-4642D02*
Y-3460D01*
X10080Y-4574D02*
Y-3534D01*
X10445Y-7190D02*
X10605D01*
X10445Y-6960D02*
X10605D01*
Y-7190D02*
Y-6960D01*
X10205Y-7190D02*
Y-6960D01*
Y-7190D02*
X10365D01*
X10205Y-6960D02*
X10365D01*
D30*
X15462Y-6150D02*
G03*
X15462Y-6150I-112J0D01*
G01*
X15137D02*
G03*
X15137Y-6150I-112J0D01*
G01*
Y-6475D02*
G03*
X15137Y-6475I-112J0D01*
G01*
X14387Y-5850D02*
G03*
X14387Y-5850I-112J0D01*
G01*
X14237Y-5400D02*
G03*
X14237Y-5400I-112J0D01*
G01*
X14062Y-5850D02*
G03*
X14062Y-5850I-112J0D01*
G01*
X1812Y-2250D02*
G03*
X1812Y-2250I-112J0D01*
G01*
X1114Y-4725D02*
G03*
X1114Y-4725I-518J0D01*
G01*
X2162Y-2400D02*
G03*
X2162Y-2400I-112J0D01*
G01*
X2500Y-6550D02*
X12700D01*
X2548Y-6130D02*
X2650Y-6232D01*
X2548Y-6130D02*
X2752D01*
X2650Y-6232D02*
X2752Y-6130D01*
X2500Y-6550D02*
Y-6250D01*
X12700D01*
Y-6550D02*
Y-6250D01*
X2500Y-2950D02*
X12700D01*
X2548Y-2530D02*
X2650Y-2632D01*
X2548Y-2530D02*
X2752D01*
X2650Y-2632D02*
X2752Y-2530D01*
X2500Y-2950D02*
Y-2650D01*
X12700D01*
Y-2950D02*
Y-2650D01*
X2350Y-6700D02*
Y-2500D01*
Y-6700D02*
X13350D01*
Y-2500D01*
X2350D02*
X13350D01*
X1745Y-3076D02*
Y-2974D01*
X1694Y-3025D02*
X1796D01*
X1745Y-2501D02*
Y-2399D01*
X1694Y-2450D02*
X1796D01*
X1224Y-4776D02*
Y-4674D01*
X1173Y-4725D02*
X1275D01*
X15050Y-5675D02*
Y-5758D01*
X15067Y-5775D01*
X15100D01*
X15117Y-5758D01*
Y-5675D01*
X15217Y-5775D02*
X15150D01*
X15217Y-5708D01*
Y-5692D01*
X15200Y-5675D01*
X15167D01*
X15150Y-5692D01*
X15250Y-5675D02*
X15317D01*
Y-5692D01*
X15250Y-5758D01*
Y-5775D01*
X13825Y-5625D02*
X13892D01*
X13858D01*
Y-5725D01*
X13925D02*
Y-5625D01*
X13975D01*
X13992Y-5642D01*
Y-5675D01*
X13975Y-5692D01*
X13925D01*
X14025Y-5642D02*
X14042Y-5625D01*
X14075D01*
X14092Y-5642D01*
Y-5658D01*
X14075Y-5675D01*
X14092Y-5692D01*
Y-5708D01*
X14075Y-5725D01*
X14042D01*
X14025Y-5708D01*
Y-5692D01*
X14042Y-5675D01*
X14025Y-5658D01*
Y-5642D01*
X14042Y-5675D02*
X14075D01*
X14025Y-5150D02*
X14092D01*
X14058D01*
Y-5250D01*
X14125D02*
Y-5150D01*
X14175D01*
X14192Y-5167D01*
Y-5200D01*
X14175Y-5217D01*
X14125D01*
X14225Y-5150D02*
X14292D01*
Y-5167D01*
X14225Y-5233D01*
Y-5250D01*
X14175Y-5975D02*
X14242D01*
X14208D01*
Y-6075D01*
X14275D02*
Y-5975D01*
X14325D01*
X14342Y-5992D01*
Y-6025D01*
X14325Y-6042D01*
X14275D01*
X14442Y-5975D02*
X14408Y-5992D01*
X14375Y-6025D01*
Y-6058D01*
X14392Y-6075D01*
X14425D01*
X14442Y-6058D01*
Y-6042D01*
X14425Y-6025D01*
X14375D01*
X14925Y-6625D02*
X14992D01*
X14958D01*
Y-6725D01*
X15025D02*
Y-6625D01*
X15075D01*
X15092Y-6642D01*
Y-6675D01*
X15075Y-6692D01*
X15025D01*
X15192Y-6625D02*
X15125D01*
Y-6675D01*
X15158Y-6658D01*
X15175D01*
X15192Y-6675D01*
Y-6708D01*
X15175Y-6725D01*
X15142D01*
X15125Y-6708D01*
X14600Y-6175D02*
X14667D01*
X14633D01*
Y-6275D01*
X14700D02*
Y-6175D01*
X14750D01*
X14767Y-6192D01*
Y-6225D01*
X14750Y-6242D01*
X14700D01*
X14850Y-6275D02*
Y-6175D01*
X14800Y-6225D01*
X14867D01*
X15250Y-6300D02*
X15317D01*
X15283D01*
Y-6400D01*
X15350D02*
Y-6300D01*
X15400D01*
X15417Y-6317D01*
Y-6350D01*
X15400Y-6367D01*
X15350D01*
X15450Y-6317D02*
X15467Y-6300D01*
X15500D01*
X15517Y-6317D01*
Y-6333D01*
X15500Y-6350D01*
X15483D01*
X15500D01*
X15517Y-6367D01*
Y-6383D01*
X15500Y-6400D01*
X15467D01*
X15450Y-6383D01*
X14785Y-3645D02*
Y-3565D01*
X14825D01*
X14838Y-3578D01*
Y-3605D01*
X14825Y-3618D01*
X14785D01*
X14812D02*
X14838Y-3645D01*
X14865D02*
X14892D01*
X14878D01*
Y-3565D01*
X14865Y-3578D01*
X14932Y-3645D02*
X14958D01*
X14945D01*
Y-3565D01*
X14932Y-3578D01*
X14998Y-3565D02*
X15052D01*
Y-3578D01*
X14998Y-3632D01*
Y-3645D01*
X14825Y-3100D02*
Y-3020D01*
X14865D01*
X14878Y-3033D01*
Y-3060D01*
X14865Y-3073D01*
X14825D01*
X14852D02*
X14878Y-3100D01*
X14905D02*
X14932D01*
X14918D01*
Y-3020D01*
X14905Y-3033D01*
X14972D02*
X14985Y-3020D01*
X15012D01*
X15025Y-3033D01*
Y-3087D01*
X15012Y-3100D01*
X14985D01*
X14972Y-3087D01*
Y-3033D01*
X15052D02*
X15065Y-3020D01*
X15092D01*
X15105Y-3033D01*
Y-3087D01*
X15092Y-3100D01*
X15065D01*
X15052Y-3087D01*
Y-3033D01*
X14875Y-4750D02*
Y-4670D01*
X14915D01*
X14928Y-4683D01*
Y-4710D01*
X14915Y-4723D01*
X14875D01*
X14902D02*
X14928Y-4750D01*
X14955Y-4737D02*
X14968Y-4750D01*
X14995D01*
X15008Y-4737D01*
Y-4683D01*
X14995Y-4670D01*
X14968D01*
X14955Y-4683D01*
Y-4697D01*
X14968Y-4710D01*
X15008D01*
X15035Y-4737D02*
X15048Y-4750D01*
X15075D01*
X15088Y-4737D01*
Y-4683D01*
X15075Y-4670D01*
X15048D01*
X15035Y-4683D01*
Y-4697D01*
X15048Y-4710D01*
X15088D01*
X15325Y-3775D02*
Y-3695D01*
X15365D01*
X15378Y-3708D01*
Y-3735D01*
X15365Y-3748D01*
X15325D01*
X15352D02*
X15378Y-3775D01*
X15405Y-3762D02*
X15418Y-3775D01*
X15445D01*
X15458Y-3762D01*
Y-3708D01*
X15445Y-3695D01*
X15418D01*
X15405Y-3708D01*
Y-3722D01*
X15418Y-3735D01*
X15458D01*
X15485Y-3708D02*
X15498Y-3695D01*
X15525D01*
X15538Y-3708D01*
Y-3722D01*
X15525Y-3735D01*
X15538Y-3748D01*
Y-3762D01*
X15525Y-3775D01*
X15498D01*
X15485Y-3762D01*
Y-3748D01*
X15498Y-3735D01*
X15485Y-3722D01*
Y-3708D01*
X15498Y-3735D02*
X15525D01*
X15325Y-3250D02*
Y-3170D01*
X15365D01*
X15378Y-3183D01*
Y-3210D01*
X15365Y-3223D01*
X15325D01*
X15352D02*
X15378Y-3250D01*
X15405Y-3237D02*
X15418Y-3250D01*
X15445D01*
X15458Y-3237D01*
Y-3183D01*
X15445Y-3170D01*
X15418D01*
X15405Y-3183D01*
Y-3197D01*
X15418Y-3210D01*
X15458D01*
X15485Y-3170D02*
X15538D01*
Y-3183D01*
X15485Y-3237D01*
Y-3250D01*
X15325Y-4225D02*
Y-4145D01*
X15365D01*
X15378Y-4158D01*
Y-4185D01*
X15365Y-4198D01*
X15325D01*
X15352D02*
X15378Y-4225D01*
X15405Y-4158D02*
X15418Y-4145D01*
X15445D01*
X15458Y-4158D01*
Y-4172D01*
X15445Y-4185D01*
X15458Y-4198D01*
Y-4212D01*
X15445Y-4225D01*
X15418D01*
X15405Y-4212D01*
Y-4198D01*
X15418Y-4185D01*
X15405Y-4172D01*
Y-4158D01*
X15418Y-4185D02*
X15445D01*
X15485Y-4158D02*
X15498Y-4145D01*
X15525D01*
X15538Y-4158D01*
Y-4212D01*
X15525Y-4225D01*
X15498D01*
X15485Y-4212D01*
Y-4158D01*
X14617Y-5992D02*
X14600Y-5975D01*
X14567D01*
X14550Y-5992D01*
Y-6058D01*
X14567Y-6075D01*
X14600D01*
X14617Y-6058D01*
X14650Y-6075D02*
X14683D01*
X14667D01*
Y-5975D01*
X14650Y-5992D01*
X14800Y-6075D02*
X14733D01*
X14800Y-6008D01*
Y-5992D01*
X14783Y-5975D01*
X14750D01*
X14733Y-5992D01*
X12050Y-7150D02*
Y-7233D01*
X12067Y-7250D01*
X12100D01*
X12117Y-7233D01*
Y-7150D01*
X12200Y-7250D02*
Y-7150D01*
X12150Y-7200D01*
X12217D01*
X12317Y-7150D02*
X12283Y-7167D01*
X12250Y-7200D01*
Y-7233D01*
X12267Y-7250D01*
X12300D01*
X12317Y-7233D01*
Y-7217D01*
X12300Y-7200D01*
X12250D01*
X11125Y-7150D02*
Y-7233D01*
X11142Y-7250D01*
X11175D01*
X11192Y-7233D01*
Y-7150D01*
X11275Y-7250D02*
Y-7150D01*
X11225Y-7200D01*
X11292D01*
X11392Y-7150D02*
X11325D01*
Y-7200D01*
X11358Y-7183D01*
X11375D01*
X11392Y-7200D01*
Y-7233D01*
X11375Y-7250D01*
X11342D01*
X11325Y-7233D01*
X6700Y-7550D02*
Y-7633D01*
X6717Y-7650D01*
X6750D01*
X6767Y-7633D01*
Y-7550D01*
X6850Y-7650D02*
Y-7550D01*
X6800Y-7600D01*
X6867D01*
X6950Y-7650D02*
Y-7550D01*
X6900Y-7600D01*
X6967D01*
X6200Y-7550D02*
Y-7633D01*
X6217Y-7650D01*
X6250D01*
X6267Y-7633D01*
Y-7550D01*
X6350Y-7650D02*
Y-7550D01*
X6300Y-7600D01*
X6367D01*
X6400Y-7567D02*
X6417Y-7550D01*
X6450D01*
X6467Y-7567D01*
Y-7583D01*
X6450Y-7600D01*
X6433D01*
X6450D01*
X6467Y-7617D01*
Y-7633D01*
X6450Y-7650D01*
X6417D01*
X6400Y-7633D01*
X5650Y-7550D02*
Y-7633D01*
X5667Y-7650D01*
X5700D01*
X5717Y-7633D01*
Y-7550D01*
X5800Y-7650D02*
Y-7550D01*
X5750Y-7600D01*
X5817D01*
X5917Y-7650D02*
X5850D01*
X5917Y-7583D01*
Y-7567D01*
X5900Y-7550D01*
X5867D01*
X5850Y-7567D01*
X4450Y-7575D02*
Y-7658D01*
X4467Y-7675D01*
X4500D01*
X4517Y-7658D01*
Y-7575D01*
X4600Y-7675D02*
Y-7575D01*
X4550Y-7625D01*
X4617D01*
X4650Y-7675D02*
X4683D01*
X4667D01*
Y-7575D01*
X4650Y-7592D01*
X4025Y-7575D02*
Y-7658D01*
X4042Y-7675D01*
X4075D01*
X4092Y-7658D01*
Y-7575D01*
X4175Y-7675D02*
Y-7575D01*
X4125Y-7625D01*
X4192D01*
X4225Y-7592D02*
X4242Y-7575D01*
X4275D01*
X4292Y-7592D01*
Y-7658D01*
X4275Y-7675D01*
X4242D01*
X4225Y-7658D01*
Y-7592D01*
X3600Y-7575D02*
Y-7658D01*
X3617Y-7675D01*
X3650D01*
X3667Y-7658D01*
Y-7575D01*
X3700Y-7592D02*
X3717Y-7575D01*
X3750D01*
X3767Y-7592D01*
Y-7608D01*
X3750Y-7625D01*
X3733D01*
X3750D01*
X3767Y-7642D01*
Y-7658D01*
X3750Y-7675D01*
X3717D01*
X3700Y-7658D01*
X3800D02*
X3817Y-7675D01*
X3850D01*
X3867Y-7658D01*
Y-7592D01*
X3850Y-7575D01*
X3817D01*
X3800Y-7592D01*
Y-7608D01*
X3817Y-7625D01*
X3867D01*
X3500Y-5675D02*
Y-5758D01*
X3517Y-5775D01*
X3550D01*
X3567Y-5758D01*
Y-5675D01*
X3600Y-5692D02*
X3617Y-5675D01*
X3650D01*
X3667Y-5692D01*
Y-5708D01*
X3650Y-5725D01*
X3633D01*
X3650D01*
X3667Y-5742D01*
Y-5758D01*
X3650Y-5775D01*
X3617D01*
X3600Y-5758D01*
X3700Y-5692D02*
X3717Y-5675D01*
X3750D01*
X3767Y-5692D01*
Y-5708D01*
X3750Y-5725D01*
X3767Y-5742D01*
Y-5758D01*
X3750Y-5775D01*
X3717D01*
X3700Y-5758D01*
Y-5742D01*
X3717Y-5725D01*
X3700Y-5708D01*
Y-5692D01*
X3717Y-5725D02*
X3750D01*
X2775Y-5250D02*
Y-5333D01*
X2792Y-5350D01*
X2825D01*
X2842Y-5333D01*
Y-5250D01*
X2875Y-5267D02*
X2892Y-5250D01*
X2925D01*
X2942Y-5267D01*
Y-5283D01*
X2925Y-5300D01*
X2908D01*
X2925D01*
X2942Y-5317D01*
Y-5333D01*
X2925Y-5350D01*
X2892D01*
X2875Y-5333D01*
X2975Y-5250D02*
X3042D01*
Y-5267D01*
X2975Y-5333D01*
Y-5350D01*
X2350Y-5250D02*
Y-5333D01*
X2367Y-5350D01*
X2400D01*
X2417Y-5333D01*
Y-5250D01*
X2450Y-5267D02*
X2467Y-5250D01*
X2500D01*
X2517Y-5267D01*
Y-5283D01*
X2500Y-5300D01*
X2483D01*
X2500D01*
X2517Y-5317D01*
Y-5333D01*
X2500Y-5350D01*
X2467D01*
X2450Y-5333D01*
X2617Y-5250D02*
X2583Y-5267D01*
X2550Y-5300D01*
Y-5333D01*
X2567Y-5350D01*
X2600D01*
X2617Y-5333D01*
Y-5317D01*
X2600Y-5300D01*
X2550D01*
X1925Y-5200D02*
Y-5283D01*
X1942Y-5300D01*
X1975D01*
X1992Y-5283D01*
Y-5200D01*
X2025Y-5217D02*
X2042Y-5200D01*
X2075D01*
X2092Y-5217D01*
Y-5233D01*
X2075Y-5250D01*
X2058D01*
X2075D01*
X2092Y-5267D01*
Y-5283D01*
X2075Y-5300D01*
X2042D01*
X2025Y-5283D01*
X2192Y-5200D02*
X2125D01*
Y-5250D01*
X2158Y-5233D01*
X2175D01*
X2192Y-5250D01*
Y-5283D01*
X2175Y-5300D01*
X2142D01*
X2125Y-5283D01*
X1500Y-5200D02*
Y-5283D01*
X1517Y-5300D01*
X1550D01*
X1567Y-5283D01*
Y-5200D01*
X1600Y-5217D02*
X1617Y-5200D01*
X1650D01*
X1667Y-5217D01*
Y-5233D01*
X1650Y-5250D01*
X1633D01*
X1650D01*
X1667Y-5267D01*
Y-5283D01*
X1650Y-5300D01*
X1617D01*
X1600Y-5283D01*
X1750Y-5300D02*
Y-5200D01*
X1700Y-5250D01*
X1767D01*
X1050Y-5200D02*
Y-5283D01*
X1067Y-5300D01*
X1100D01*
X1117Y-5283D01*
Y-5200D01*
X1150Y-5217D02*
X1167Y-5200D01*
X1200D01*
X1217Y-5217D01*
Y-5233D01*
X1200Y-5250D01*
X1183D01*
X1200D01*
X1217Y-5267D01*
Y-5283D01*
X1200Y-5300D01*
X1167D01*
X1150Y-5283D01*
X1250Y-5217D02*
X1267Y-5200D01*
X1300D01*
X1317Y-5217D01*
Y-5233D01*
X1300Y-5250D01*
X1283D01*
X1300D01*
X1317Y-5267D01*
Y-5283D01*
X1300Y-5300D01*
X1267D01*
X1250Y-5283D01*
X675Y-5225D02*
Y-5308D01*
X692Y-5325D01*
X725D01*
X742Y-5308D01*
Y-5225D01*
X775Y-5242D02*
X792Y-5225D01*
X825D01*
X842Y-5242D01*
Y-5258D01*
X825Y-5275D01*
X808D01*
X825D01*
X842Y-5292D01*
Y-5308D01*
X825Y-5325D01*
X792D01*
X775Y-5308D01*
X942Y-5325D02*
X875D01*
X942Y-5258D01*
Y-5242D01*
X925Y-5225D01*
X892D01*
X875Y-5242D01*
X125Y-5225D02*
Y-5308D01*
X142Y-5325D01*
X175D01*
X192Y-5308D01*
Y-5225D01*
X225Y-5242D02*
X242Y-5225D01*
X275D01*
X292Y-5242D01*
Y-5258D01*
X275Y-5275D01*
X258D01*
X275D01*
X292Y-5292D01*
Y-5308D01*
X275Y-5325D01*
X242D01*
X225Y-5308D01*
X325Y-5325D02*
X358D01*
X342D01*
Y-5225D01*
X325Y-5242D01*
X13045Y-4577D02*
Y-4660D01*
X13062Y-4677D01*
X13095D01*
X13112Y-4660D01*
Y-4577D01*
X13212Y-4677D02*
X13145D01*
X13212Y-4610D01*
Y-4593D01*
X13195Y-4577D01*
X13162D01*
X13145Y-4593D01*
X13312Y-4577D02*
X13278Y-4593D01*
X13245Y-4627D01*
Y-4660D01*
X13262Y-4677D01*
X13295D01*
X13312Y-4660D01*
Y-4643D01*
X13295Y-4627D01*
X13245D01*
X11225Y-3325D02*
Y-3408D01*
X11242Y-3425D01*
X11275D01*
X11292Y-3408D01*
Y-3325D01*
X11392Y-3425D02*
X11325D01*
X11392Y-3358D01*
Y-3342D01*
X11375Y-3325D01*
X11342D01*
X11325Y-3342D01*
X11492Y-3325D02*
X11425D01*
Y-3375D01*
X11458Y-3358D01*
X11475D01*
X11492Y-3375D01*
Y-3408D01*
X11475Y-3425D01*
X11442D01*
X11425Y-3408D01*
X2000Y-3900D02*
Y-3983D01*
X2017Y-4000D01*
X2050D01*
X2067Y-3983D01*
Y-3900D01*
X2167Y-4000D02*
X2100D01*
X2167Y-3933D01*
Y-3917D01*
X2150Y-3900D01*
X2117D01*
X2100Y-3917D01*
X2250Y-4000D02*
Y-3900D01*
X2200Y-3950D01*
X2267D01*
X8400Y-3575D02*
Y-3658D01*
X8417Y-3675D01*
X8450D01*
X8467Y-3658D01*
Y-3575D01*
X8567Y-3675D02*
X8500D01*
X8567Y-3608D01*
Y-3592D01*
X8550Y-3575D01*
X8517D01*
X8500Y-3592D01*
X8600D02*
X8617Y-3575D01*
X8650D01*
X8667Y-3592D01*
Y-3608D01*
X8650Y-3625D01*
X8633D01*
X8650D01*
X8667Y-3642D01*
Y-3658D01*
X8650Y-3675D01*
X8617D01*
X8600Y-3658D01*
X2175Y-2395D02*
X2228D01*
X2202D01*
Y-2475D01*
X2255D02*
Y-2395D01*
X2295D01*
X2308Y-2408D01*
Y-2435D01*
X2295Y-2448D01*
X2255D01*
X2388Y-2475D02*
X2335D01*
X2388Y-2422D01*
Y-2408D01*
X2375Y-2395D01*
X2348D01*
X2335Y-2408D01*
X1825Y-2170D02*
X1878D01*
X1852D01*
Y-2250D01*
X1905D02*
Y-2170D01*
X1945D01*
X1958Y-2183D01*
Y-2210D01*
X1945Y-2223D01*
X1905D01*
X1985Y-2250D02*
X2012D01*
X1998D01*
Y-2170D01*
X1985Y-2183D01*
X10175Y-4500D02*
Y-4400D01*
X10225D01*
X10242Y-4417D01*
Y-4450D01*
X10225Y-4467D01*
X10175D01*
X10208D02*
X10242Y-4500D01*
X10275D02*
X10308D01*
X10292D01*
Y-4400D01*
X10275Y-4417D01*
X10358D02*
X10375Y-4400D01*
X10408D01*
X10425Y-4417D01*
Y-4433D01*
X10408Y-4450D01*
X10392D01*
X10408D01*
X10425Y-4467D01*
Y-4483D01*
X10408Y-4500D01*
X10375D01*
X10358Y-4483D01*
X10525Y-4400D02*
X10492Y-4417D01*
X10458Y-4450D01*
Y-4483D01*
X10475Y-4500D01*
X10508D01*
X10525Y-4483D01*
Y-4467D01*
X10508Y-4450D01*
X10458D01*
X9700Y-4500D02*
Y-4400D01*
X9750D01*
X9767Y-4417D01*
Y-4450D01*
X9750Y-4467D01*
X9700D01*
X9733D02*
X9767Y-4500D01*
X9800D02*
X9833D01*
X9817D01*
Y-4400D01*
X9800Y-4417D01*
X9883D02*
X9900Y-4400D01*
X9933D01*
X9950Y-4417D01*
Y-4433D01*
X9933Y-4450D01*
X9917D01*
X9933D01*
X9950Y-4467D01*
Y-4483D01*
X9933Y-4500D01*
X9900D01*
X9883Y-4483D01*
X10050Y-4400D02*
X9983D01*
Y-4450D01*
X10017Y-4433D01*
X10033D01*
X10050Y-4450D01*
Y-4483D01*
X10033Y-4500D01*
X10000D01*
X9983Y-4483D01*
X9275Y-4500D02*
Y-4400D01*
X9325D01*
X9342Y-4417D01*
Y-4450D01*
X9325Y-4467D01*
X9275D01*
X9308D02*
X9342Y-4500D01*
X9375D02*
X9408D01*
X9392D01*
Y-4400D01*
X9375Y-4417D01*
X9458D02*
X9475Y-4400D01*
X9508D01*
X9525Y-4417D01*
Y-4433D01*
X9508Y-4450D01*
X9492D01*
X9508D01*
X9525Y-4467D01*
Y-4483D01*
X9508Y-4500D01*
X9475D01*
X9458Y-4483D01*
X9608Y-4500D02*
Y-4400D01*
X9558Y-4450D01*
X9625D01*
X8825Y-4500D02*
Y-4400D01*
X8875D01*
X8892Y-4417D01*
Y-4450D01*
X8875Y-4467D01*
X8825D01*
X8858D02*
X8892Y-4500D01*
X8925D02*
X8958D01*
X8942D01*
Y-4400D01*
X8925Y-4417D01*
X9008D02*
X9025Y-4400D01*
X9058D01*
X9075Y-4417D01*
Y-4433D01*
X9058Y-4450D01*
X9042D01*
X9058D01*
X9075Y-4467D01*
Y-4483D01*
X9058Y-4500D01*
X9025D01*
X9008Y-4483D01*
X9108Y-4417D02*
X9125Y-4400D01*
X9158D01*
X9175Y-4417D01*
Y-4433D01*
X9158Y-4450D01*
X9142D01*
X9158D01*
X9175Y-4467D01*
Y-4483D01*
X9158Y-4500D01*
X9125D01*
X9108Y-4483D01*
X8375Y-4500D02*
Y-4400D01*
X8425D01*
X8442Y-4417D01*
Y-4450D01*
X8425Y-4467D01*
X8375D01*
X8408D02*
X8442Y-4500D01*
X8475D02*
X8508D01*
X8492D01*
Y-4400D01*
X8475Y-4417D01*
X8558D02*
X8575Y-4400D01*
X8608D01*
X8625Y-4417D01*
Y-4433D01*
X8608Y-4450D01*
X8592D01*
X8608D01*
X8625Y-4467D01*
Y-4483D01*
X8608Y-4500D01*
X8575D01*
X8558Y-4483D01*
X8725Y-4500D02*
X8658D01*
X8725Y-4433D01*
Y-4417D01*
X8708Y-4400D01*
X8675D01*
X8658Y-4417D01*
X7925Y-4500D02*
Y-4400D01*
X7975D01*
X7992Y-4417D01*
Y-4450D01*
X7975Y-4467D01*
X7925D01*
X7958D02*
X7992Y-4500D01*
X8025D02*
X8058D01*
X8042D01*
Y-4400D01*
X8025Y-4417D01*
X8108D02*
X8125Y-4400D01*
X8158D01*
X8175Y-4417D01*
Y-4433D01*
X8158Y-4450D01*
X8142D01*
X8158D01*
X8175Y-4467D01*
Y-4483D01*
X8158Y-4500D01*
X8125D01*
X8108Y-4483D01*
X8208Y-4500D02*
X8242D01*
X8225D01*
Y-4400D01*
X8208Y-4417D01*
X7475Y-4400D02*
Y-4300D01*
X7525D01*
X7542Y-4317D01*
Y-4350D01*
X7525Y-4367D01*
X7475D01*
X7508D02*
X7542Y-4400D01*
X7575D02*
X7608D01*
X7592D01*
Y-4300D01*
X7575Y-4317D01*
X7658D02*
X7675Y-4300D01*
X7708D01*
X7725Y-4317D01*
Y-4333D01*
X7708Y-4350D01*
X7692D01*
X7708D01*
X7725Y-4367D01*
Y-4383D01*
X7708Y-4400D01*
X7675D01*
X7658Y-4383D01*
X7758Y-4317D02*
X7775Y-4300D01*
X7808D01*
X7825Y-4317D01*
Y-4383D01*
X7808Y-4400D01*
X7775D01*
X7758Y-4383D01*
Y-4317D01*
X7025Y-4400D02*
Y-4300D01*
X7075D01*
X7092Y-4317D01*
Y-4350D01*
X7075Y-4367D01*
X7025D01*
X7058D02*
X7092Y-4400D01*
X7125D02*
X7158D01*
X7142D01*
Y-4300D01*
X7125Y-4317D01*
X7275Y-4400D02*
X7208D01*
X7275Y-4333D01*
Y-4317D01*
X7258Y-4300D01*
X7225D01*
X7208Y-4317D01*
X7308Y-4383D02*
X7325Y-4400D01*
X7358D01*
X7375Y-4383D01*
Y-4317D01*
X7358Y-4300D01*
X7325D01*
X7308Y-4317D01*
Y-4333D01*
X7325Y-4350D01*
X7375D01*
X6575Y-4500D02*
Y-4400D01*
X6625D01*
X6642Y-4417D01*
Y-4450D01*
X6625Y-4467D01*
X6575D01*
X6608D02*
X6642Y-4500D01*
X6675D02*
X6708D01*
X6692D01*
Y-4400D01*
X6675Y-4417D01*
X6825Y-4500D02*
X6758D01*
X6825Y-4433D01*
Y-4417D01*
X6808Y-4400D01*
X6775D01*
X6758Y-4417D01*
X6858D02*
X6875Y-4400D01*
X6908D01*
X6925Y-4417D01*
Y-4433D01*
X6908Y-4450D01*
X6925Y-4467D01*
Y-4483D01*
X6908Y-4500D01*
X6875D01*
X6858Y-4483D01*
Y-4467D01*
X6875Y-4450D01*
X6858Y-4433D01*
Y-4417D01*
X6875Y-4450D02*
X6908D01*
X6125Y-4500D02*
Y-4400D01*
X6175D01*
X6192Y-4417D01*
Y-4450D01*
X6175Y-4467D01*
X6125D01*
X6158D02*
X6192Y-4500D01*
X6225D02*
X6258D01*
X6242D01*
Y-4400D01*
X6225Y-4417D01*
X6375Y-4500D02*
X6308D01*
X6375Y-4433D01*
Y-4417D01*
X6358Y-4400D01*
X6325D01*
X6308Y-4417D01*
X6408Y-4400D02*
X6475D01*
Y-4417D01*
X6408Y-4483D01*
Y-4500D01*
X5675D02*
Y-4400D01*
X5725D01*
X5742Y-4417D01*
Y-4450D01*
X5725Y-4467D01*
X5675D01*
X5708D02*
X5742Y-4500D01*
X5775D02*
X5808D01*
X5792D01*
Y-4400D01*
X5775Y-4417D01*
X5925Y-4500D02*
X5858D01*
X5925Y-4433D01*
Y-4417D01*
X5908Y-4400D01*
X5875D01*
X5858Y-4417D01*
X6025Y-4400D02*
X5992Y-4417D01*
X5958Y-4450D01*
Y-4483D01*
X5975Y-4500D01*
X6008D01*
X6025Y-4483D01*
Y-4467D01*
X6008Y-4450D01*
X5958D01*
X5225Y-4500D02*
Y-4400D01*
X5275D01*
X5292Y-4417D01*
Y-4450D01*
X5275Y-4467D01*
X5225D01*
X5258D02*
X5292Y-4500D01*
X5325D02*
X5358D01*
X5342D01*
Y-4400D01*
X5325Y-4417D01*
X5475Y-4500D02*
X5408D01*
X5475Y-4433D01*
Y-4417D01*
X5458Y-4400D01*
X5425D01*
X5408Y-4417D01*
X5575Y-4400D02*
X5508D01*
Y-4450D01*
X5542Y-4433D01*
X5558D01*
X5575Y-4450D01*
Y-4483D01*
X5558Y-4500D01*
X5525D01*
X5508Y-4483D01*
X4750Y-4500D02*
Y-4400D01*
X4800D01*
X4817Y-4417D01*
Y-4450D01*
X4800Y-4467D01*
X4750D01*
X4783D02*
X4817Y-4500D01*
X4850D02*
X4883D01*
X4867D01*
Y-4400D01*
X4850Y-4417D01*
X5000Y-4500D02*
X4933D01*
X5000Y-4433D01*
Y-4417D01*
X4983Y-4400D01*
X4950D01*
X4933Y-4417D01*
X5083Y-4500D02*
Y-4400D01*
X5033Y-4450D01*
X5100D01*
X4300Y-4500D02*
Y-4400D01*
X4350D01*
X4367Y-4417D01*
Y-4450D01*
X4350Y-4467D01*
X4300D01*
X4333D02*
X4367Y-4500D01*
X4400D02*
X4433D01*
X4417D01*
Y-4400D01*
X4400Y-4417D01*
X4550Y-4500D02*
X4483D01*
X4550Y-4433D01*
Y-4417D01*
X4533Y-4400D01*
X4500D01*
X4483Y-4417D01*
X4583D02*
X4600Y-4400D01*
X4633D01*
X4650Y-4417D01*
Y-4433D01*
X4633Y-4450D01*
X4617D01*
X4633D01*
X4650Y-4467D01*
Y-4483D01*
X4633Y-4500D01*
X4600D01*
X4583Y-4483D01*
X3850Y-4500D02*
Y-4400D01*
X3900D01*
X3917Y-4417D01*
Y-4450D01*
X3900Y-4467D01*
X3850D01*
X3883D02*
X3917Y-4500D01*
X3950D02*
X3983D01*
X3967D01*
Y-4400D01*
X3950Y-4417D01*
X4100Y-4500D02*
X4033D01*
X4100Y-4433D01*
Y-4417D01*
X4083Y-4400D01*
X4050D01*
X4033Y-4417D01*
X4200Y-4500D02*
X4133D01*
X4200Y-4433D01*
Y-4417D01*
X4183Y-4400D01*
X4150D01*
X4133Y-4417D01*
X3425Y-4500D02*
Y-4400D01*
X3475D01*
X3492Y-4417D01*
Y-4450D01*
X3475Y-4467D01*
X3425D01*
X3458D02*
X3492Y-4500D01*
X3525D02*
X3558D01*
X3542D01*
Y-4400D01*
X3525Y-4417D01*
X3675Y-4500D02*
X3608D01*
X3675Y-4433D01*
Y-4417D01*
X3658Y-4400D01*
X3625D01*
X3608Y-4417D01*
X3708Y-4500D02*
X3742D01*
X3725D01*
Y-4400D01*
X3708Y-4417D01*
X10275Y-6700D02*
Y-6600D01*
X10325D01*
X10342Y-6617D01*
Y-6650D01*
X10325Y-6667D01*
X10275D01*
X10308D02*
X10342Y-6700D01*
X10375Y-6683D02*
X10392Y-6700D01*
X10425D01*
X10442Y-6683D01*
Y-6617D01*
X10425Y-6600D01*
X10392D01*
X10375Y-6617D01*
Y-6633D01*
X10392Y-6650D01*
X10442D01*
X10542Y-6600D02*
X10508Y-6617D01*
X10475Y-6650D01*
Y-6683D01*
X10492Y-6700D01*
X10525D01*
X10542Y-6683D01*
Y-6667D01*
X10525Y-6650D01*
X10475D01*
X10600Y-7200D02*
Y-7120D01*
X10640D01*
X10653Y-7133D01*
Y-7160D01*
X10640Y-7173D01*
X10600D01*
X10627D02*
X10653Y-7200D01*
X10680Y-7187D02*
X10693Y-7200D01*
X10720D01*
X10733Y-7187D01*
Y-7133D01*
X10720Y-7120D01*
X10693D01*
X10680Y-7133D01*
Y-7147D01*
X10693Y-7160D01*
X10733D01*
X10813Y-7120D02*
X10760D01*
Y-7160D01*
X10787Y-7147D01*
X10800D01*
X10813Y-7160D01*
Y-7187D01*
X10800Y-7200D01*
X10773D01*
X10760Y-7187D01*
X1975Y-6450D02*
Y-6370D01*
X2015D01*
X2028Y-6383D01*
Y-6410D01*
X2015Y-6423D01*
X1975D01*
X2002D02*
X2028Y-6450D01*
X2055Y-6383D02*
X2068Y-6370D01*
X2095D01*
X2108Y-6383D01*
Y-6397D01*
X2095Y-6410D01*
X2108Y-6423D01*
Y-6437D01*
X2095Y-6450D01*
X2068D01*
X2055Y-6437D01*
Y-6423D01*
X2068Y-6410D01*
X2055Y-6397D01*
Y-6383D01*
X2068Y-6410D02*
X2095D01*
X2135Y-6383D02*
X2148Y-6370D01*
X2175D01*
X2188Y-6383D01*
Y-6397D01*
X2175Y-6410D01*
X2188Y-6423D01*
Y-6437D01*
X2175Y-6450D01*
X2148D01*
X2135Y-6437D01*
Y-6423D01*
X2148Y-6410D01*
X2135Y-6397D01*
Y-6383D01*
X2148Y-6410D02*
X2175D01*
X1700Y-6450D02*
Y-6370D01*
X1740D01*
X1753Y-6383D01*
Y-6410D01*
X1740Y-6423D01*
X1700D01*
X1727D02*
X1753Y-6450D01*
X1780Y-6383D02*
X1793Y-6370D01*
X1820D01*
X1833Y-6383D01*
Y-6397D01*
X1820Y-6410D01*
X1833Y-6423D01*
Y-6437D01*
X1820Y-6450D01*
X1793D01*
X1780Y-6437D01*
Y-6423D01*
X1793Y-6410D01*
X1780Y-6397D01*
Y-6383D01*
X1793Y-6410D02*
X1820D01*
X1860Y-6370D02*
X1913D01*
Y-6383D01*
X1860Y-6437D01*
Y-6450D01*
X1450D02*
Y-6370D01*
X1490D01*
X1503Y-6383D01*
Y-6410D01*
X1490Y-6423D01*
X1450D01*
X1477D02*
X1503Y-6450D01*
X1530Y-6383D02*
X1543Y-6370D01*
X1570D01*
X1583Y-6383D01*
Y-6397D01*
X1570Y-6410D01*
X1583Y-6423D01*
Y-6437D01*
X1570Y-6450D01*
X1543D01*
X1530Y-6437D01*
Y-6423D01*
X1543Y-6410D01*
X1530Y-6397D01*
Y-6383D01*
X1543Y-6410D02*
X1570D01*
X1663Y-6370D02*
X1637Y-6383D01*
X1610Y-6410D01*
Y-6437D01*
X1623Y-6450D01*
X1650D01*
X1663Y-6437D01*
Y-6423D01*
X1650Y-6410D01*
X1610D01*
X1200Y-6450D02*
Y-6370D01*
X1240D01*
X1253Y-6383D01*
Y-6410D01*
X1240Y-6423D01*
X1200D01*
X1227D02*
X1253Y-6450D01*
X1280Y-6383D02*
X1293Y-6370D01*
X1320D01*
X1333Y-6383D01*
Y-6397D01*
X1320Y-6410D01*
X1333Y-6423D01*
Y-6437D01*
X1320Y-6450D01*
X1293D01*
X1280Y-6437D01*
Y-6423D01*
X1293Y-6410D01*
X1280Y-6397D01*
Y-6383D01*
X1293Y-6410D02*
X1320D01*
X1413Y-6370D02*
X1360D01*
Y-6410D01*
X1387Y-6397D01*
X1400D01*
X1413Y-6410D01*
Y-6437D01*
X1400Y-6450D01*
X1373D01*
X1360Y-6437D01*
X950Y-6450D02*
Y-6370D01*
X990D01*
X1003Y-6383D01*
Y-6410D01*
X990Y-6423D01*
X950D01*
X977D02*
X1003Y-6450D01*
X1030Y-6383D02*
X1043Y-6370D01*
X1070D01*
X1083Y-6383D01*
Y-6397D01*
X1070Y-6410D01*
X1083Y-6423D01*
Y-6437D01*
X1070Y-6450D01*
X1043D01*
X1030Y-6437D01*
Y-6423D01*
X1043Y-6410D01*
X1030Y-6397D01*
Y-6383D01*
X1043Y-6410D02*
X1070D01*
X1150Y-6450D02*
Y-6370D01*
X1110Y-6410D01*
X1163D01*
X700Y-6450D02*
Y-6370D01*
X740D01*
X753Y-6383D01*
Y-6410D01*
X740Y-6423D01*
X700D01*
X727D02*
X753Y-6450D01*
X780Y-6383D02*
X793Y-6370D01*
X820D01*
X833Y-6383D01*
Y-6397D01*
X820Y-6410D01*
X833Y-6423D01*
Y-6437D01*
X820Y-6450D01*
X793D01*
X780Y-6437D01*
Y-6423D01*
X793Y-6410D01*
X780Y-6397D01*
Y-6383D01*
X793Y-6410D02*
X820D01*
X860Y-6383D02*
X873Y-6370D01*
X900D01*
X913Y-6383D01*
Y-6397D01*
X900Y-6410D01*
X887D01*
X900D01*
X913Y-6423D01*
Y-6437D01*
X900Y-6450D01*
X873D01*
X860Y-6437D01*
X450Y-6450D02*
Y-6370D01*
X490D01*
X503Y-6383D01*
Y-6410D01*
X490Y-6423D01*
X450D01*
X477D02*
X503Y-6450D01*
X530Y-6383D02*
X543Y-6370D01*
X570D01*
X583Y-6383D01*
Y-6397D01*
X570Y-6410D01*
X583Y-6423D01*
Y-6437D01*
X570Y-6450D01*
X543D01*
X530Y-6437D01*
Y-6423D01*
X543Y-6410D01*
X530Y-6397D01*
Y-6383D01*
X543Y-6410D02*
X570D01*
X663Y-6450D02*
X610D01*
X663Y-6397D01*
Y-6383D01*
X650Y-6370D01*
X623D01*
X610Y-6383D01*
X200Y-6450D02*
Y-6370D01*
X240D01*
X253Y-6383D01*
Y-6410D01*
X240Y-6423D01*
X200D01*
X227D02*
X253Y-6450D01*
X280Y-6383D02*
X293Y-6370D01*
X320D01*
X333Y-6383D01*
Y-6397D01*
X320Y-6410D01*
X333Y-6423D01*
Y-6437D01*
X320Y-6450D01*
X293D01*
X280Y-6437D01*
Y-6423D01*
X293Y-6410D01*
X280Y-6397D01*
Y-6383D01*
X293Y-6410D02*
X320D01*
X360Y-6450D02*
X387D01*
X373D01*
Y-6370D01*
X360Y-6383D01*
X13935Y-3645D02*
Y-3565D01*
X13975D01*
X13988Y-3578D01*
Y-3605D01*
X13975Y-3618D01*
X13935D01*
X13962D02*
X13988Y-3645D01*
X14015Y-3565D02*
X14068D01*
Y-3578D01*
X14015Y-3632D01*
Y-3645D01*
X14095Y-3632D02*
X14108Y-3645D01*
X14135D01*
X14148Y-3632D01*
Y-3578D01*
X14135Y-3565D01*
X14108D01*
X14095Y-3578D01*
Y-3592D01*
X14108Y-3605D01*
X14148D01*
X13400Y-3800D02*
Y-3720D01*
X13440D01*
X13453Y-3733D01*
Y-3760D01*
X13440Y-3773D01*
X13400D01*
X13427D02*
X13453Y-3800D01*
X13480Y-3720D02*
X13533D01*
Y-3733D01*
X13480Y-3787D01*
Y-3800D01*
X13560Y-3733D02*
X13573Y-3720D01*
X13600D01*
X13613Y-3733D01*
Y-3747D01*
X13600Y-3760D01*
X13613Y-3773D01*
Y-3787D01*
X13600Y-3800D01*
X13573D01*
X13560Y-3787D01*
Y-3773D01*
X13573Y-3760D01*
X13560Y-3747D01*
Y-3733D01*
X13573Y-3760D02*
X13600D01*
X14100Y-3100D02*
Y-3020D01*
X14140D01*
X14153Y-3033D01*
Y-3060D01*
X14140Y-3073D01*
X14100D01*
X14127D02*
X14153Y-3100D01*
X14180Y-3020D02*
X14233D01*
Y-3033D01*
X14180Y-3087D01*
Y-3100D01*
X14260Y-3020D02*
X14313D01*
Y-3033D01*
X14260Y-3087D01*
Y-3100D01*
X8850Y-5825D02*
Y-5725D01*
X8900D01*
X8917Y-5742D01*
Y-5775D01*
X8900Y-5792D01*
X8850D01*
X8883D02*
X8917Y-5825D01*
X8950Y-5725D02*
X9017D01*
Y-5742D01*
X8950Y-5808D01*
Y-5825D01*
X9117Y-5725D02*
X9083Y-5742D01*
X9050Y-5775D01*
Y-5808D01*
X9067Y-5825D01*
X9100D01*
X9117Y-5808D01*
Y-5792D01*
X9100Y-5775D01*
X9050D01*
X8350Y-5825D02*
Y-5725D01*
X8400D01*
X8417Y-5742D01*
Y-5775D01*
X8400Y-5792D01*
X8350D01*
X8383D02*
X8417Y-5825D01*
X8450Y-5725D02*
X8517D01*
Y-5742D01*
X8450Y-5808D01*
Y-5825D01*
X8617Y-5725D02*
X8550D01*
Y-5775D01*
X8583Y-5758D01*
X8600D01*
X8617Y-5775D01*
Y-5808D01*
X8600Y-5825D01*
X8567D01*
X8550Y-5808D01*
X7950Y-6200D02*
Y-6100D01*
X8000D01*
X8017Y-6117D01*
Y-6150D01*
X8000Y-6167D01*
X7950D01*
X7983D02*
X8017Y-6200D01*
X8050Y-6100D02*
X8117D01*
Y-6117D01*
X8050Y-6183D01*
Y-6200D01*
X8200D02*
Y-6100D01*
X8150Y-6150D01*
X8217D01*
X7650Y-5625D02*
Y-5525D01*
X7700D01*
X7717Y-5542D01*
Y-5575D01*
X7700Y-5592D01*
X7650D01*
X7683D02*
X7717Y-5625D01*
X7750Y-5525D02*
X7817D01*
Y-5542D01*
X7750Y-5608D01*
Y-5625D01*
X7850Y-5542D02*
X7867Y-5525D01*
X7900D01*
X7917Y-5542D01*
Y-5558D01*
X7900Y-5575D01*
X7883D01*
X7900D01*
X7917Y-5592D01*
Y-5608D01*
X7900Y-5625D01*
X7867D01*
X7850Y-5608D01*
X7400Y-6200D02*
Y-6100D01*
X7450D01*
X7467Y-6117D01*
Y-6150D01*
X7450Y-6167D01*
X7400D01*
X7433D02*
X7467Y-6200D01*
X7500Y-6100D02*
X7567D01*
Y-6117D01*
X7500Y-6183D01*
Y-6200D01*
X7667D02*
X7600D01*
X7667Y-6133D01*
Y-6117D01*
X7650Y-6100D01*
X7617D01*
X7600Y-6117D01*
X7125Y-5625D02*
Y-5525D01*
X7175D01*
X7192Y-5542D01*
Y-5575D01*
X7175Y-5592D01*
X7125D01*
X7158D02*
X7192Y-5625D01*
X7225Y-5525D02*
X7292D01*
Y-5542D01*
X7225Y-5608D01*
Y-5625D01*
X7325D02*
X7358D01*
X7342D01*
Y-5525D01*
X7325Y-5542D01*
X6850Y-6200D02*
Y-6100D01*
X6900D01*
X6917Y-6117D01*
Y-6150D01*
X6900Y-6167D01*
X6850D01*
X6883D02*
X6917Y-6200D01*
X6950Y-6100D02*
X7017D01*
Y-6117D01*
X6950Y-6183D01*
Y-6200D01*
X7050Y-6117D02*
X7067Y-6100D01*
X7100D01*
X7117Y-6117D01*
Y-6183D01*
X7100Y-6200D01*
X7067D01*
X7050Y-6183D01*
Y-6117D01*
X6550Y-5625D02*
Y-5525D01*
X6600D01*
X6617Y-5542D01*
Y-5575D01*
X6600Y-5592D01*
X6550D01*
X6583D02*
X6617Y-5625D01*
X6717Y-5525D02*
X6683Y-5542D01*
X6650Y-5575D01*
Y-5608D01*
X6667Y-5625D01*
X6700D01*
X6717Y-5608D01*
Y-5592D01*
X6700Y-5575D01*
X6650D01*
X6750Y-5608D02*
X6767Y-5625D01*
X6800D01*
X6817Y-5608D01*
Y-5542D01*
X6800Y-5525D01*
X6767D01*
X6750Y-5542D01*
Y-5558D01*
X6767Y-5575D01*
X6817D01*
X6300Y-6200D02*
Y-6100D01*
X6350D01*
X6367Y-6117D01*
Y-6150D01*
X6350Y-6167D01*
X6300D01*
X6333D02*
X6367Y-6200D01*
X6467Y-6100D02*
X6433Y-6117D01*
X6400Y-6150D01*
Y-6183D01*
X6417Y-6200D01*
X6450D01*
X6467Y-6183D01*
Y-6167D01*
X6450Y-6150D01*
X6400D01*
X6500Y-6117D02*
X6517Y-6100D01*
X6550D01*
X6567Y-6117D01*
Y-6133D01*
X6550Y-6150D01*
X6567Y-6167D01*
Y-6183D01*
X6550Y-6200D01*
X6517D01*
X6500Y-6183D01*
Y-6167D01*
X6517Y-6150D01*
X6500Y-6133D01*
Y-6117D01*
X6517Y-6150D02*
X6550D01*
X6025Y-5625D02*
Y-5525D01*
X6075D01*
X6092Y-5542D01*
Y-5575D01*
X6075Y-5592D01*
X6025D01*
X6058D02*
X6092Y-5625D01*
X6192Y-5525D02*
X6158Y-5542D01*
X6125Y-5575D01*
Y-5608D01*
X6142Y-5625D01*
X6175D01*
X6192Y-5608D01*
Y-5592D01*
X6175Y-5575D01*
X6125D01*
X6225Y-5525D02*
X6292D01*
Y-5542D01*
X6225Y-5608D01*
Y-5625D01*
X5725Y-6200D02*
Y-6100D01*
X5775D01*
X5792Y-6117D01*
Y-6150D01*
X5775Y-6167D01*
X5725D01*
X5758D02*
X5792Y-6200D01*
X5892Y-6100D02*
X5858Y-6117D01*
X5825Y-6150D01*
Y-6183D01*
X5842Y-6200D01*
X5875D01*
X5892Y-6183D01*
Y-6167D01*
X5875Y-6150D01*
X5825D01*
X5992Y-6100D02*
X5958Y-6117D01*
X5925Y-6150D01*
Y-6183D01*
X5942Y-6200D01*
X5975D01*
X5992Y-6183D01*
Y-6167D01*
X5975Y-6150D01*
X5925D01*
X5450Y-5625D02*
Y-5525D01*
X5500D01*
X5517Y-5542D01*
Y-5575D01*
X5500Y-5592D01*
X5450D01*
X5483D02*
X5517Y-5625D01*
X5617Y-5525D02*
X5583Y-5542D01*
X5550Y-5575D01*
Y-5608D01*
X5567Y-5625D01*
X5600D01*
X5617Y-5608D01*
Y-5592D01*
X5600Y-5575D01*
X5550D01*
X5717Y-5525D02*
X5650D01*
Y-5575D01*
X5683Y-5558D01*
X5700D01*
X5717Y-5575D01*
Y-5608D01*
X5700Y-5625D01*
X5667D01*
X5650Y-5608D01*
X5200Y-6200D02*
Y-6100D01*
X5250D01*
X5267Y-6117D01*
Y-6150D01*
X5250Y-6167D01*
X5200D01*
X5233D02*
X5267Y-6200D01*
X5367Y-6100D02*
X5333Y-6117D01*
X5300Y-6150D01*
Y-6183D01*
X5317Y-6200D01*
X5350D01*
X5367Y-6183D01*
Y-6167D01*
X5350Y-6150D01*
X5300D01*
X5450Y-6200D02*
Y-6100D01*
X5400Y-6150D01*
X5467D01*
X4900Y-5625D02*
Y-5525D01*
X4950D01*
X4967Y-5542D01*
Y-5575D01*
X4950Y-5592D01*
X4900D01*
X4933D02*
X4967Y-5625D01*
X5067Y-5525D02*
X5033Y-5542D01*
X5000Y-5575D01*
Y-5608D01*
X5017Y-5625D01*
X5050D01*
X5067Y-5608D01*
Y-5592D01*
X5050Y-5575D01*
X5000D01*
X5100Y-5542D02*
X5117Y-5525D01*
X5150D01*
X5167Y-5542D01*
Y-5558D01*
X5150Y-5575D01*
X5133D01*
X5150D01*
X5167Y-5592D01*
Y-5608D01*
X5150Y-5625D01*
X5117D01*
X5100Y-5608D01*
X4650Y-6200D02*
Y-6100D01*
X4700D01*
X4717Y-6117D01*
Y-6150D01*
X4700Y-6167D01*
X4650D01*
X4683D02*
X4717Y-6200D01*
X4817Y-6100D02*
X4783Y-6117D01*
X4750Y-6150D01*
Y-6183D01*
X4767Y-6200D01*
X4800D01*
X4817Y-6183D01*
Y-6167D01*
X4800Y-6150D01*
X4750D01*
X4917Y-6200D02*
X4850D01*
X4917Y-6133D01*
Y-6117D01*
X4900Y-6100D01*
X4867D01*
X4850Y-6117D01*
X4375Y-5625D02*
Y-5525D01*
X4425D01*
X4442Y-5542D01*
Y-5575D01*
X4425Y-5592D01*
X4375D01*
X4408D02*
X4442Y-5625D01*
X4542Y-5525D02*
X4508Y-5542D01*
X4475Y-5575D01*
Y-5608D01*
X4492Y-5625D01*
X4525D01*
X4542Y-5608D01*
Y-5592D01*
X4525Y-5575D01*
X4475D01*
X4575Y-5625D02*
X4608D01*
X4592D01*
Y-5525D01*
X4575Y-5542D01*
X13425Y-3275D02*
Y-3195D01*
X13465D01*
X13478Y-3208D01*
Y-3235D01*
X13465Y-3248D01*
X13425D01*
X13452D02*
X13478Y-3275D01*
X13558Y-3195D02*
X13532Y-3208D01*
X13505Y-3235D01*
Y-3262D01*
X13518Y-3275D01*
X13545D01*
X13558Y-3262D01*
Y-3248D01*
X13545Y-3235D01*
X13505D01*
X13585Y-3208D02*
X13598Y-3195D01*
X13625D01*
X13638Y-3208D01*
Y-3262D01*
X13625Y-3275D01*
X13598D01*
X13585Y-3262D01*
Y-3208D01*
X13900Y-4700D02*
Y-4620D01*
X13940D01*
X13953Y-4633D01*
Y-4660D01*
X13940Y-4673D01*
X13900D01*
X13927D02*
X13953Y-4700D01*
X14033Y-4620D02*
X13980D01*
Y-4660D01*
X14007Y-4647D01*
X14020D01*
X14033Y-4660D01*
Y-4687D01*
X14020Y-4700D01*
X13993D01*
X13980Y-4687D01*
X14060D02*
X14073Y-4700D01*
X14100D01*
X14113Y-4687D01*
Y-4633D01*
X14100Y-4620D01*
X14073D01*
X14060Y-4633D01*
Y-4647D01*
X14073Y-4660D01*
X14113D01*
X13400Y-4200D02*
Y-4120D01*
X13440D01*
X13453Y-4133D01*
Y-4160D01*
X13440Y-4173D01*
X13400D01*
X13427D02*
X13453Y-4200D01*
X13533Y-4120D02*
X13480D01*
Y-4160D01*
X13507Y-4147D01*
X13520D01*
X13533Y-4160D01*
Y-4187D01*
X13520Y-4200D01*
X13493D01*
X13480Y-4187D01*
X13560Y-4133D02*
X13573Y-4120D01*
X13600D01*
X13613Y-4133D01*
Y-4147D01*
X13600Y-4160D01*
X13613Y-4173D01*
Y-4187D01*
X13600Y-4200D01*
X13573D01*
X13560Y-4187D01*
Y-4173D01*
X13573Y-4160D01*
X13560Y-4147D01*
Y-4133D01*
X13573Y-4160D02*
X13600D01*
X14525Y-3645D02*
Y-3565D01*
X14565D01*
X14578Y-3578D01*
Y-3605D01*
X14565Y-3618D01*
X14525D01*
X14552D02*
X14578Y-3645D01*
X14658Y-3565D02*
X14605D01*
Y-3605D01*
X14632Y-3592D01*
X14645D01*
X14658Y-3605D01*
Y-3632D01*
X14645Y-3645D01*
X14618D01*
X14605Y-3632D01*
X14685Y-3565D02*
X14738D01*
Y-3578D01*
X14685Y-3632D01*
Y-3645D01*
X14225D02*
Y-3565D01*
X14265D01*
X14278Y-3578D01*
Y-3605D01*
X14265Y-3618D01*
X14225D01*
X14252D02*
X14278Y-3645D01*
X14358Y-3565D02*
X14305D01*
Y-3605D01*
X14332Y-3592D01*
X14345D01*
X14358Y-3605D01*
Y-3632D01*
X14345Y-3645D01*
X14318D01*
X14305Y-3632D01*
X14438Y-3565D02*
X14412Y-3578D01*
X14385Y-3605D01*
Y-3632D01*
X14398Y-3645D01*
X14425D01*
X14438Y-3632D01*
Y-3618D01*
X14425Y-3605D01*
X14385D01*
X14715Y-3145D02*
X14635D01*
Y-3105D01*
X14648Y-3092D01*
X14675D01*
X14688Y-3105D01*
Y-3145D01*
Y-3118D02*
X14715Y-3092D01*
X14635Y-3012D02*
Y-3065D01*
X14675D01*
X14662Y-3038D01*
Y-3025D01*
X14675Y-3012D01*
X14702D01*
X14715Y-3025D01*
Y-3052D01*
X14702Y-3065D01*
X14635Y-2932D02*
Y-2985D01*
X14675D01*
X14662Y-2958D01*
Y-2945D01*
X14675Y-2932D01*
X14702D01*
X14715Y-2945D01*
Y-2972D01*
X14702Y-2985D01*
X14440Y-3145D02*
X14360D01*
Y-3105D01*
X14373Y-3092D01*
X14400D01*
X14413Y-3105D01*
Y-3145D01*
Y-3118D02*
X14440Y-3092D01*
X14360Y-3012D02*
Y-3065D01*
X14400D01*
X14387Y-3038D01*
Y-3025D01*
X14400Y-3012D01*
X14427D01*
X14440Y-3025D01*
Y-3052D01*
X14427Y-3065D01*
X14440Y-2945D02*
X14360D01*
X14400Y-2985D01*
Y-2932D01*
X14550Y-4725D02*
Y-4645D01*
X14590D01*
X14603Y-4658D01*
Y-4685D01*
X14590Y-4698D01*
X14550D01*
X14577D02*
X14603Y-4725D01*
X14683Y-4645D02*
X14630D01*
Y-4685D01*
X14657Y-4672D01*
X14670D01*
X14683Y-4685D01*
Y-4712D01*
X14670Y-4725D01*
X14643D01*
X14630Y-4712D01*
X14710Y-4658D02*
X14723Y-4645D01*
X14750D01*
X14763Y-4658D01*
Y-4672D01*
X14750Y-4685D01*
X14737D01*
X14750D01*
X14763Y-4698D01*
Y-4712D01*
X14750Y-4725D01*
X14723D01*
X14710Y-4712D01*
X10700Y-3225D02*
Y-3125D01*
X10750D01*
X10767Y-3142D01*
Y-3175D01*
X10750Y-3192D01*
X10700D01*
X10733D02*
X10767Y-3225D01*
X10867Y-3125D02*
X10800D01*
Y-3175D01*
X10833Y-3158D01*
X10850D01*
X10867Y-3175D01*
Y-3208D01*
X10850Y-3225D01*
X10817D01*
X10800Y-3208D01*
X10967Y-3225D02*
X10900D01*
X10967Y-3158D01*
Y-3142D01*
X10950Y-3125D01*
X10917D01*
X10900Y-3142D01*
X10200Y-3550D02*
Y-3470D01*
X10240D01*
X10253Y-3483D01*
Y-3510D01*
X10240Y-3523D01*
X10200D01*
X10227D02*
X10253Y-3550D01*
X10333Y-3470D02*
X10280D01*
Y-3510D01*
X10307Y-3497D01*
X10320D01*
X10333Y-3510D01*
Y-3537D01*
X10320Y-3550D01*
X10293D01*
X10280Y-3537D01*
X10360Y-3550D02*
X10387D01*
X10373D01*
Y-3470D01*
X10360Y-3483D01*
X9925Y-3550D02*
Y-3470D01*
X9965D01*
X9978Y-3483D01*
Y-3510D01*
X9965Y-3523D01*
X9925D01*
X9952D02*
X9978Y-3550D01*
X10058Y-3470D02*
X10005D01*
Y-3510D01*
X10032Y-3497D01*
X10045D01*
X10058Y-3510D01*
Y-3537D01*
X10045Y-3550D01*
X10018D01*
X10005Y-3537D01*
X10085Y-3483D02*
X10098Y-3470D01*
X10125D01*
X10138Y-3483D01*
Y-3537D01*
X10125Y-3550D01*
X10098D01*
X10085Y-3537D01*
Y-3483D01*
X9650Y-3550D02*
Y-3470D01*
X9690D01*
X9703Y-3483D01*
Y-3510D01*
X9690Y-3523D01*
X9650D01*
X9677D02*
X9703Y-3550D01*
X9770D02*
Y-3470D01*
X9730Y-3510D01*
X9783D01*
X9810Y-3537D02*
X9823Y-3550D01*
X9850D01*
X9863Y-3537D01*
Y-3483D01*
X9850Y-3470D01*
X9823D01*
X9810Y-3483D01*
Y-3497D01*
X9823Y-3510D01*
X9863D01*
X9400Y-3550D02*
Y-3470D01*
X9440D01*
X9453Y-3483D01*
Y-3510D01*
X9440Y-3523D01*
X9400D01*
X9427D02*
X9453Y-3550D01*
X9520D02*
Y-3470D01*
X9480Y-3510D01*
X9533D01*
X9560Y-3483D02*
X9573Y-3470D01*
X9600D01*
X9613Y-3483D01*
Y-3497D01*
X9600Y-3510D01*
X9613Y-3523D01*
Y-3537D01*
X9600Y-3550D01*
X9573D01*
X9560Y-3537D01*
Y-3523D01*
X9573Y-3510D01*
X9560Y-3497D01*
Y-3483D01*
X9573Y-3510D02*
X9600D01*
X9150Y-3550D02*
Y-3470D01*
X9190D01*
X9203Y-3483D01*
Y-3510D01*
X9190Y-3523D01*
X9150D01*
X9177D02*
X9203Y-3550D01*
X9270D02*
Y-3470D01*
X9230Y-3510D01*
X9283D01*
X9310Y-3470D02*
X9363D01*
Y-3483D01*
X9310Y-3537D01*
Y-3550D01*
X8900D02*
Y-3470D01*
X8940D01*
X8953Y-3483D01*
Y-3510D01*
X8940Y-3523D01*
X8900D01*
X8927D02*
X8953Y-3550D01*
X9020D02*
Y-3470D01*
X8980Y-3510D01*
X9033D01*
X9113Y-3470D02*
X9087Y-3483D01*
X9060Y-3510D01*
Y-3537D01*
X9073Y-3550D01*
X9100D01*
X9113Y-3537D01*
Y-3523D01*
X9100Y-3510D01*
X9060D01*
X8350Y-3175D02*
Y-3075D01*
X8400D01*
X8417Y-3092D01*
Y-3125D01*
X8400Y-3142D01*
X8350D01*
X8383D02*
X8417Y-3175D01*
X8500D02*
Y-3075D01*
X8450Y-3125D01*
X8517D01*
X8617Y-3075D02*
X8550D01*
Y-3125D01*
X8583Y-3108D01*
X8600D01*
X8617Y-3125D01*
Y-3158D01*
X8600Y-3175D01*
X8567D01*
X8550Y-3158D01*
X7500Y-3050D02*
Y-2970D01*
X7540D01*
X7553Y-2983D01*
Y-3010D01*
X7540Y-3023D01*
X7500D01*
X7527D02*
X7553Y-3050D01*
X7620D02*
Y-2970D01*
X7580Y-3010D01*
X7633D01*
X7700Y-3050D02*
Y-2970D01*
X7660Y-3010D01*
X7713D01*
X7050Y-3550D02*
Y-3470D01*
X7090D01*
X7103Y-3483D01*
Y-3510D01*
X7090Y-3523D01*
X7050D01*
X7077D02*
X7103Y-3550D01*
X7170D02*
Y-3470D01*
X7130Y-3510D01*
X7183D01*
X7210Y-3483D02*
X7223Y-3470D01*
X7250D01*
X7263Y-3483D01*
Y-3497D01*
X7250Y-3510D01*
X7237D01*
X7250D01*
X7263Y-3523D01*
Y-3537D01*
X7250Y-3550D01*
X7223D01*
X7210Y-3537D01*
X6800Y-3550D02*
Y-3470D01*
X6840D01*
X6853Y-3483D01*
Y-3510D01*
X6840Y-3523D01*
X6800D01*
X6827D02*
X6853Y-3550D01*
X6920D02*
Y-3470D01*
X6880Y-3510D01*
X6933D01*
X7013Y-3550D02*
X6960D01*
X7013Y-3497D01*
Y-3483D01*
X7000Y-3470D01*
X6973D01*
X6960Y-3483D01*
X6550Y-3525D02*
Y-3445D01*
X6590D01*
X6603Y-3458D01*
Y-3485D01*
X6590Y-3498D01*
X6550D01*
X6577D02*
X6603Y-3525D01*
X6670D02*
Y-3445D01*
X6630Y-3485D01*
X6683D01*
X6710Y-3525D02*
X6737D01*
X6723D01*
Y-3445D01*
X6710Y-3458D01*
X6308Y-3550D02*
Y-3470D01*
X6347D01*
X6361Y-3483D01*
Y-3510D01*
X6347Y-3523D01*
X6308D01*
X6334D02*
X6361Y-3550D01*
X6427D02*
Y-3470D01*
X6387Y-3510D01*
X6441D01*
X6467Y-3483D02*
X6481Y-3470D01*
X6507D01*
X6521Y-3483D01*
Y-3537D01*
X6507Y-3550D01*
X6481D01*
X6467Y-3537D01*
Y-3483D01*
X6050Y-3550D02*
Y-3470D01*
X6090D01*
X6103Y-3483D01*
Y-3510D01*
X6090Y-3523D01*
X6050D01*
X6077D02*
X6103Y-3550D01*
X6130Y-3483D02*
X6143Y-3470D01*
X6170D01*
X6183Y-3483D01*
Y-3497D01*
X6170Y-3510D01*
X6157D01*
X6170D01*
X6183Y-3523D01*
Y-3537D01*
X6170Y-3550D01*
X6143D01*
X6130Y-3537D01*
X6210D02*
X6223Y-3550D01*
X6250D01*
X6263Y-3537D01*
Y-3483D01*
X6250Y-3470D01*
X6223D01*
X6210Y-3483D01*
Y-3497D01*
X6223Y-3510D01*
X6263D01*
X5800Y-3550D02*
Y-3470D01*
X5840D01*
X5853Y-3483D01*
Y-3510D01*
X5840Y-3523D01*
X5800D01*
X5827D02*
X5853Y-3550D01*
X5880Y-3483D02*
X5893Y-3470D01*
X5920D01*
X5933Y-3483D01*
Y-3497D01*
X5920Y-3510D01*
X5907D01*
X5920D01*
X5933Y-3523D01*
Y-3537D01*
X5920Y-3550D01*
X5893D01*
X5880Y-3537D01*
X5960Y-3483D02*
X5973Y-3470D01*
X6000D01*
X6013Y-3483D01*
Y-3497D01*
X6000Y-3510D01*
X6013Y-3523D01*
Y-3537D01*
X6000Y-3550D01*
X5973D01*
X5960Y-3537D01*
Y-3523D01*
X5973Y-3510D01*
X5960Y-3497D01*
Y-3483D01*
X5973Y-3510D02*
X6000D01*
X5525Y-3550D02*
Y-3470D01*
X5565D01*
X5578Y-3483D01*
Y-3510D01*
X5565Y-3523D01*
X5525D01*
X5552D02*
X5578Y-3550D01*
X5605Y-3483D02*
X5618Y-3470D01*
X5645D01*
X5658Y-3483D01*
Y-3497D01*
X5645Y-3510D01*
X5632D01*
X5645D01*
X5658Y-3523D01*
Y-3537D01*
X5645Y-3550D01*
X5618D01*
X5605Y-3537D01*
X5685Y-3470D02*
X5738D01*
Y-3483D01*
X5685Y-3537D01*
Y-3550D01*
X5375Y-3725D02*
X5275D01*
Y-3675D01*
X5292Y-3658D01*
X5325D01*
X5342Y-3675D01*
Y-3725D01*
Y-3692D02*
X5375Y-3658D01*
X5292Y-3625D02*
X5275Y-3608D01*
Y-3575D01*
X5292Y-3558D01*
X5308D01*
X5325Y-3575D01*
Y-3592D01*
Y-3575D01*
X5342Y-3558D01*
X5358D01*
X5375Y-3575D01*
Y-3608D01*
X5358Y-3625D01*
X5275Y-3458D02*
X5292Y-3492D01*
X5325Y-3525D01*
X5358D01*
X5375Y-3508D01*
Y-3475D01*
X5358Y-3458D01*
X5342D01*
X5325Y-3475D01*
Y-3525D01*
X5200Y-3750D02*
X5100D01*
Y-3700D01*
X5117Y-3683D01*
X5150D01*
X5167Y-3700D01*
Y-3750D01*
Y-3717D02*
X5200Y-3683D01*
X5117Y-3650D02*
X5100Y-3633D01*
Y-3600D01*
X5117Y-3583D01*
X5133D01*
X5150Y-3600D01*
Y-3617D01*
Y-3600D01*
X5167Y-3583D01*
X5183D01*
X5200Y-3600D01*
Y-3633D01*
X5183Y-3650D01*
X5100Y-3483D02*
Y-3550D01*
X5150D01*
X5133Y-3517D01*
Y-3500D01*
X5150Y-3483D01*
X5183D01*
X5200Y-3500D01*
Y-3533D01*
X5183Y-3550D01*
X4950Y-3750D02*
X4850D01*
Y-3700D01*
X4867Y-3683D01*
X4900D01*
X4917Y-3700D01*
Y-3750D01*
Y-3717D02*
X4950Y-3683D01*
X4867Y-3650D02*
X4850Y-3633D01*
Y-3600D01*
X4867Y-3583D01*
X4883D01*
X4900Y-3600D01*
Y-3617D01*
Y-3600D01*
X4917Y-3583D01*
X4933D01*
X4950Y-3600D01*
Y-3633D01*
X4933Y-3650D01*
X4950Y-3500D02*
X4850D01*
X4900Y-3550D01*
Y-3483D01*
X4700Y-3750D02*
X4600D01*
Y-3700D01*
X4617Y-3683D01*
X4650D01*
X4667Y-3700D01*
Y-3750D01*
Y-3717D02*
X4700Y-3683D01*
X4617Y-3650D02*
X4600Y-3633D01*
Y-3600D01*
X4617Y-3583D01*
X4633D01*
X4650Y-3600D01*
Y-3617D01*
Y-3600D01*
X4667Y-3583D01*
X4683D01*
X4700Y-3600D01*
Y-3633D01*
X4683Y-3650D01*
X4617Y-3550D02*
X4600Y-3533D01*
Y-3500D01*
X4617Y-3483D01*
X4633D01*
X4650Y-3500D01*
Y-3517D01*
Y-3500D01*
X4667Y-3483D01*
X4683D01*
X4700Y-3500D01*
Y-3533D01*
X4683Y-3550D01*
X4450Y-3750D02*
X4350D01*
Y-3700D01*
X4367Y-3683D01*
X4400D01*
X4417Y-3700D01*
Y-3750D01*
Y-3717D02*
X4450Y-3683D01*
X4367Y-3650D02*
X4350Y-3633D01*
Y-3600D01*
X4367Y-3583D01*
X4383D01*
X4400Y-3600D01*
Y-3617D01*
Y-3600D01*
X4417Y-3583D01*
X4433D01*
X4450Y-3600D01*
Y-3633D01*
X4433Y-3650D01*
X4450Y-3483D02*
Y-3550D01*
X4383Y-3483D01*
X4367D01*
X4350Y-3500D01*
Y-3533D01*
X4367Y-3550D01*
X4200Y-3725D02*
X4100D01*
Y-3675D01*
X4117Y-3658D01*
X4150D01*
X4167Y-3675D01*
Y-3725D01*
Y-3692D02*
X4200Y-3658D01*
X4117Y-3625D02*
X4100Y-3608D01*
Y-3575D01*
X4117Y-3558D01*
X4133D01*
X4150Y-3575D01*
Y-3592D01*
Y-3575D01*
X4167Y-3558D01*
X4183D01*
X4200Y-3575D01*
Y-3608D01*
X4183Y-3625D01*
X4200Y-3525D02*
Y-3492D01*
Y-3508D01*
X4100D01*
X4117Y-3525D01*
X14200Y-4700D02*
Y-4620D01*
X14240D01*
X14253Y-4633D01*
Y-4660D01*
X14240Y-4673D01*
X14200D01*
X14227D02*
X14253Y-4700D01*
X14280Y-4633D02*
X14293Y-4620D01*
X14320D01*
X14333Y-4633D01*
Y-4647D01*
X14320Y-4660D01*
X14307D01*
X14320D01*
X14333Y-4673D01*
Y-4687D01*
X14320Y-4700D01*
X14293D01*
X14280Y-4687D01*
X14360Y-4633D02*
X14373Y-4620D01*
X14400D01*
X14413Y-4633D01*
Y-4687D01*
X14400Y-4700D01*
X14373D01*
X14360Y-4687D01*
Y-4633D01*
X4000Y-5625D02*
Y-5525D01*
X4050D01*
X4067Y-5542D01*
Y-5575D01*
X4050Y-5592D01*
X4000D01*
X4033D02*
X4067Y-5625D01*
X4167D02*
X4100D01*
X4167Y-5558D01*
Y-5542D01*
X4150Y-5525D01*
X4117D01*
X4100Y-5542D01*
X4200Y-5608D02*
X4217Y-5625D01*
X4250D01*
X4267Y-5608D01*
Y-5542D01*
X4250Y-5525D01*
X4217D01*
X4200Y-5542D01*
Y-5558D01*
X4217Y-5575D01*
X4267D01*
X2950Y-4500D02*
Y-4400D01*
X3000D01*
X3017Y-4417D01*
Y-4450D01*
X3000Y-4467D01*
X2950D01*
X2983D02*
X3017Y-4500D01*
X3117D02*
X3050D01*
X3117Y-4433D01*
Y-4417D01*
X3100Y-4400D01*
X3067D01*
X3050Y-4417D01*
X3150D02*
X3167Y-4400D01*
X3200D01*
X3217Y-4417D01*
Y-4433D01*
X3200Y-4450D01*
X3217Y-4467D01*
Y-4483D01*
X3200Y-4500D01*
X3167D01*
X3150Y-4483D01*
Y-4467D01*
X3167Y-4450D01*
X3150Y-4433D01*
Y-4417D01*
X3167Y-4450D02*
X3200D01*
X13325Y-7050D02*
Y-6950D01*
X13375D01*
X13392Y-6967D01*
Y-7000D01*
X13375Y-7017D01*
X13325D01*
X13358D02*
X13392Y-7050D01*
X13492D02*
X13425D01*
X13492Y-6983D01*
Y-6967D01*
X13475Y-6950D01*
X13442D01*
X13425Y-6967D01*
X13525Y-6950D02*
X13592D01*
Y-6967D01*
X13525Y-7033D01*
Y-7050D01*
X2000Y-2650D02*
Y-2570D01*
X2040D01*
X2053Y-2583D01*
Y-2610D01*
X2040Y-2623D01*
X2000D01*
X2027D02*
X2053Y-2650D01*
X2133D02*
X2080D01*
X2133Y-2597D01*
Y-2583D01*
X2120Y-2570D01*
X2093D01*
X2080Y-2583D01*
X2213Y-2570D02*
X2187Y-2583D01*
X2160Y-2610D01*
Y-2637D01*
X2173Y-2650D01*
X2200D01*
X2213Y-2637D01*
Y-2623D01*
X2200Y-2610D01*
X2160D01*
X2725Y-3100D02*
Y-3000D01*
X2775D01*
X2792Y-3017D01*
Y-3050D01*
X2775Y-3067D01*
X2725D01*
X2758D02*
X2792Y-3100D01*
X2892D02*
X2825D01*
X2892Y-3033D01*
Y-3017D01*
X2875Y-3000D01*
X2842D01*
X2825Y-3017D01*
X2975Y-3100D02*
Y-3000D01*
X2925Y-3050D01*
X2992D01*
X2025Y-1725D02*
Y-1625D01*
X2075D01*
X2092Y-1642D01*
Y-1675D01*
X2075Y-1692D01*
X2025D01*
X2058D02*
X2092Y-1725D01*
X2192D02*
X2125D01*
X2192Y-1658D01*
Y-1642D01*
X2175Y-1625D01*
X2142D01*
X2125Y-1642D01*
X2225D02*
X2242Y-1625D01*
X2275D01*
X2292Y-1642D01*
Y-1658D01*
X2275Y-1675D01*
X2258D01*
X2275D01*
X2292Y-1692D01*
Y-1708D01*
X2275Y-1725D01*
X2242D01*
X2225Y-1708D01*
X2717Y-5058D02*
Y-4992D01*
X2700Y-4975D01*
X2667D01*
X2650Y-4992D01*
Y-5058D01*
X2667Y-5075D01*
X2700D01*
X2683Y-5042D02*
X2717Y-5075D01*
X2700D02*
X2717Y-5058D01*
X2750Y-5075D02*
X2783D01*
X2767D01*
Y-4975D01*
X2750Y-4992D01*
X2833Y-4975D02*
X2900D01*
Y-4992D01*
X2833Y-5058D01*
Y-5075D01*
X10358Y-5433D02*
X10292D01*
X10275Y-5450D01*
Y-5483D01*
X10292Y-5500D01*
X10358D01*
X10375Y-5483D01*
Y-5450D01*
X10342Y-5467D02*
X10375Y-5433D01*
Y-5450D02*
X10358Y-5433D01*
X10375Y-5400D02*
Y-5367D01*
Y-5383D01*
X10275D01*
X10292Y-5400D01*
X10275Y-5250D02*
X10292Y-5283D01*
X10325Y-5317D01*
X10358D01*
X10375Y-5300D01*
Y-5267D01*
X10358Y-5250D01*
X10342D01*
X10325Y-5267D01*
Y-5317D01*
X9908Y-5433D02*
X9842D01*
X9825Y-5450D01*
Y-5483D01*
X9842Y-5500D01*
X9908D01*
X9925Y-5483D01*
Y-5450D01*
X9892Y-5467D02*
X9925Y-5433D01*
Y-5450D02*
X9908Y-5433D01*
X9925Y-5400D02*
Y-5367D01*
Y-5383D01*
X9825D01*
X9842Y-5400D01*
X9825Y-5250D02*
Y-5317D01*
X9875D01*
X9858Y-5283D01*
Y-5267D01*
X9875Y-5250D01*
X9908D01*
X9925Y-5267D01*
Y-5300D01*
X9908Y-5317D01*
X9458Y-5433D02*
X9392D01*
X9375Y-5450D01*
Y-5483D01*
X9392Y-5500D01*
X9458D01*
X9475Y-5483D01*
Y-5450D01*
X9442Y-5467D02*
X9475Y-5433D01*
Y-5450D02*
X9458Y-5433D01*
X9475Y-5400D02*
Y-5367D01*
Y-5383D01*
X9375D01*
X9392Y-5400D01*
X9475Y-5267D02*
X9375D01*
X9425Y-5317D01*
Y-5250D01*
X8867Y-5308D02*
Y-5242D01*
X8850Y-5225D01*
X8817D01*
X8800Y-5242D01*
Y-5308D01*
X8817Y-5325D01*
X8850D01*
X8833Y-5292D02*
X8867Y-5325D01*
X8850D02*
X8867Y-5308D01*
X8900Y-5325D02*
X8933D01*
X8917D01*
Y-5225D01*
X8900Y-5242D01*
X8983D02*
X9000Y-5225D01*
X9033D01*
X9050Y-5242D01*
Y-5258D01*
X9033Y-5275D01*
X9017D01*
X9033D01*
X9050Y-5292D01*
Y-5308D01*
X9033Y-5325D01*
X9000D01*
X8983Y-5308D01*
X8417D02*
Y-5242D01*
X8400Y-5225D01*
X8367D01*
X8350Y-5242D01*
Y-5308D01*
X8367Y-5325D01*
X8400D01*
X8383Y-5292D02*
X8417Y-5325D01*
X8400D02*
X8417Y-5308D01*
X8450Y-5325D02*
X8483D01*
X8467D01*
Y-5225D01*
X8450Y-5242D01*
X8600Y-5325D02*
X8533D01*
X8600Y-5258D01*
Y-5242D01*
X8583Y-5225D01*
X8550D01*
X8533Y-5242D01*
X7967Y-5308D02*
Y-5242D01*
X7950Y-5225D01*
X7917D01*
X7900Y-5242D01*
Y-5308D01*
X7917Y-5325D01*
X7950D01*
X7933Y-5292D02*
X7967Y-5325D01*
X7950D02*
X7967Y-5308D01*
X8000Y-5325D02*
X8033D01*
X8017D01*
Y-5225D01*
X8000Y-5242D01*
X8083Y-5325D02*
X8117D01*
X8100D01*
Y-5225D01*
X8083Y-5242D01*
X7517Y-5308D02*
Y-5242D01*
X7500Y-5225D01*
X7467D01*
X7450Y-5242D01*
Y-5308D01*
X7467Y-5325D01*
X7500D01*
X7483Y-5292D02*
X7517Y-5325D01*
X7500D02*
X7517Y-5308D01*
X7550Y-5325D02*
X7583D01*
X7567D01*
Y-5225D01*
X7550Y-5242D01*
X7633D02*
X7650Y-5225D01*
X7683D01*
X7700Y-5242D01*
Y-5308D01*
X7683Y-5325D01*
X7650D01*
X7633Y-5308D01*
Y-5242D01*
X7092Y-5308D02*
Y-5242D01*
X7075Y-5225D01*
X7042D01*
X7025Y-5242D01*
Y-5308D01*
X7042Y-5325D01*
X7075D01*
X7058Y-5292D02*
X7092Y-5325D01*
X7075D02*
X7092Y-5308D01*
X7125D02*
X7142Y-5325D01*
X7175D01*
X7192Y-5308D01*
Y-5242D01*
X7175Y-5225D01*
X7142D01*
X7125Y-5242D01*
Y-5258D01*
X7142Y-5275D01*
X7192D01*
X6642Y-5308D02*
Y-5242D01*
X6625Y-5225D01*
X6592D01*
X6575Y-5242D01*
Y-5308D01*
X6592Y-5325D01*
X6625D01*
X6608Y-5292D02*
X6642Y-5325D01*
X6625D02*
X6642Y-5308D01*
X6675Y-5242D02*
X6692Y-5225D01*
X6725D01*
X6742Y-5242D01*
Y-5258D01*
X6725Y-5275D01*
X6742Y-5292D01*
Y-5308D01*
X6725Y-5325D01*
X6692D01*
X6675Y-5308D01*
Y-5292D01*
X6692Y-5275D01*
X6675Y-5258D01*
Y-5242D01*
X6692Y-5275D02*
X6725D01*
X6192Y-5308D02*
Y-5242D01*
X6175Y-5225D01*
X6142D01*
X6125Y-5242D01*
Y-5308D01*
X6142Y-5325D01*
X6175D01*
X6158Y-5292D02*
X6192Y-5325D01*
X6175D02*
X6192Y-5308D01*
X6225Y-5225D02*
X6292D01*
Y-5242D01*
X6225Y-5308D01*
Y-5325D01*
X5717Y-5308D02*
Y-5242D01*
X5700Y-5225D01*
X5667D01*
X5650Y-5242D01*
Y-5308D01*
X5667Y-5325D01*
X5700D01*
X5683Y-5292D02*
X5717Y-5325D01*
X5700D02*
X5717Y-5308D01*
X5817Y-5225D02*
X5783Y-5242D01*
X5750Y-5275D01*
Y-5308D01*
X5767Y-5325D01*
X5800D01*
X5817Y-5308D01*
Y-5292D01*
X5800Y-5275D01*
X5750D01*
X5267Y-5308D02*
Y-5242D01*
X5250Y-5225D01*
X5217D01*
X5200Y-5242D01*
Y-5308D01*
X5217Y-5325D01*
X5250D01*
X5233Y-5292D02*
X5267Y-5325D01*
X5250D02*
X5267Y-5308D01*
X5367Y-5225D02*
X5300D01*
Y-5275D01*
X5333Y-5258D01*
X5350D01*
X5367Y-5275D01*
Y-5308D01*
X5350Y-5325D01*
X5317D01*
X5300Y-5308D01*
X4817D02*
Y-5242D01*
X4800Y-5225D01*
X4767D01*
X4750Y-5242D01*
Y-5308D01*
X4767Y-5325D01*
X4800D01*
X4783Y-5292D02*
X4817Y-5325D01*
X4800D02*
X4817Y-5308D01*
X4900Y-5325D02*
Y-5225D01*
X4850Y-5275D01*
X4917D01*
X4367Y-5308D02*
Y-5242D01*
X4350Y-5225D01*
X4317D01*
X4300Y-5242D01*
Y-5308D01*
X4317Y-5325D01*
X4350D01*
X4333Y-5292D02*
X4367Y-5325D01*
X4350D02*
X4367Y-5308D01*
X4400Y-5242D02*
X4417Y-5225D01*
X4450D01*
X4467Y-5242D01*
Y-5258D01*
X4450Y-5275D01*
X4433D01*
X4450D01*
X4467Y-5292D01*
Y-5308D01*
X4450Y-5325D01*
X4417D01*
X4400Y-5308D01*
X3942D02*
Y-5242D01*
X3925Y-5225D01*
X3892D01*
X3875Y-5242D01*
Y-5308D01*
X3892Y-5325D01*
X3925D01*
X3908Y-5292D02*
X3942Y-5325D01*
X3925D02*
X3942Y-5308D01*
X4042Y-5325D02*
X3975D01*
X4042Y-5258D01*
Y-5242D01*
X4025Y-5225D01*
X3992D01*
X3975Y-5242D01*
X3492Y-5308D02*
Y-5242D01*
X3475Y-5225D01*
X3442D01*
X3425Y-5242D01*
Y-5308D01*
X3442Y-5325D01*
X3475D01*
X3458Y-5292D02*
X3492Y-5325D01*
X3475D02*
X3492Y-5308D01*
X3525Y-5325D02*
X3558D01*
X3542D01*
Y-5225D01*
X3525Y-5242D01*
X200Y-1125D02*
Y-1025D01*
X233Y-1058D01*
X267Y-1025D01*
Y-1125D01*
X300D02*
X333D01*
X317D01*
Y-1025D01*
X300Y-1042D01*
X3650Y-3100D02*
Y-3200D01*
X3717D01*
X3750D02*
X3783D01*
X3767D01*
Y-3100D01*
X3750Y-3117D01*
X12842Y-6950D02*
X12808D01*
X12825D01*
Y-7033D01*
X12808Y-7050D01*
X12792D01*
X12775Y-7033D01*
X12875Y-7050D02*
Y-6950D01*
X12925D01*
X12942Y-6967D01*
Y-7000D01*
X12925Y-7017D01*
X12875D01*
X13025Y-7050D02*
Y-6950D01*
X12975Y-7000D01*
X13042D01*
X14742Y-7600D02*
X14708D01*
X14725D01*
Y-7683D01*
X14708Y-7700D01*
X14692D01*
X14675Y-7683D01*
X14775Y-7700D02*
Y-7600D01*
X14825D01*
X14842Y-7617D01*
Y-7650D01*
X14825Y-7667D01*
X14775D01*
X14875Y-7617D02*
X14892Y-7600D01*
X14925D01*
X14942Y-7617D01*
Y-7633D01*
X14925Y-7650D01*
X14908D01*
X14925D01*
X14942Y-7667D01*
Y-7683D01*
X14925Y-7700D01*
X14892D01*
X14875Y-7683D01*
X12267Y-1900D02*
X12233D01*
X12250D01*
Y-1983D01*
X12233Y-2000D01*
X12217D01*
X12200Y-1983D01*
X12300Y-2000D02*
Y-1900D01*
X12350D01*
X12367Y-1917D01*
Y-1950D01*
X12350Y-1967D01*
X12300D01*
X12467Y-2000D02*
X12400D01*
X12467Y-1933D01*
Y-1917D01*
X12450Y-1900D01*
X12417D01*
X12400Y-1917D01*
X2442Y-1275D02*
X2408D01*
X2425D01*
Y-1358D01*
X2408Y-1375D01*
X2392D01*
X2375Y-1358D01*
X2475Y-1375D02*
Y-1275D01*
X2525D01*
X2542Y-1292D01*
Y-1325D01*
X2525Y-1342D01*
X2475D01*
X2575Y-1375D02*
X2608D01*
X2592D01*
Y-1275D01*
X2575Y-1292D01*
X13442Y-1850D02*
X13408D01*
X13425D01*
Y-1933D01*
X13408Y-1950D01*
X13392D01*
X13375Y-1933D01*
X13475Y-1950D02*
X13508D01*
X13492D01*
Y-1850D01*
X13475Y-1867D01*
X13558Y-1933D02*
X13575Y-1950D01*
X13608D01*
X13625Y-1933D01*
Y-1867D01*
X13608Y-1850D01*
X13575D01*
X13558Y-1867D01*
Y-1883D01*
X13575Y-1900D01*
X13625D01*
X12287Y-7450D02*
X12253D01*
X12270D01*
Y-7533D01*
X12253Y-7550D01*
X12237D01*
X12220Y-7533D01*
X12320Y-7550D02*
X12353D01*
X12337D01*
Y-7450D01*
X12320Y-7467D01*
X12403D02*
X12420Y-7450D01*
X12453D01*
X12470Y-7467D01*
Y-7483D01*
X12453Y-7500D01*
X12470Y-7517D01*
Y-7533D01*
X12453Y-7550D01*
X12420D01*
X12403Y-7533D01*
Y-7517D01*
X12420Y-7500D01*
X12403Y-7483D01*
Y-7467D01*
X12420Y-7500D02*
X12453D01*
X12792Y-6350D02*
X12758D01*
X12775D01*
Y-6433D01*
X12758Y-6450D01*
X12742D01*
X12725Y-6433D01*
X12825Y-6450D02*
X12858D01*
X12842D01*
Y-6350D01*
X12825Y-6367D01*
X12908Y-6350D02*
X12975D01*
Y-6367D01*
X12908Y-6433D01*
Y-6450D01*
X12817Y-2750D02*
X12783D01*
X12800D01*
Y-2833D01*
X12783Y-2850D01*
X12767D01*
X12750Y-2833D01*
X12850Y-2850D02*
X12883D01*
X12867D01*
Y-2750D01*
X12850Y-2767D01*
X13000Y-2750D02*
X12967Y-2767D01*
X12933Y-2800D01*
Y-2833D01*
X12950Y-2850D01*
X12983D01*
X13000Y-2833D01*
Y-2817D01*
X12983Y-2800D01*
X12933D01*
X1167Y-3650D02*
X1100D01*
Y-3700D01*
X1133D01*
X1100D01*
Y-3750D01*
X1200D02*
X1233D01*
X1217D01*
Y-3650D01*
X1200Y-3667D01*
X9750Y-6800D02*
Y-6900D01*
X9800D01*
X9817Y-6883D01*
Y-6817D01*
X9800Y-6800D01*
X9750D01*
X9850D02*
X9917D01*
Y-6817D01*
X9850Y-6883D01*
Y-6900D01*
X10017Y-6800D02*
X9983Y-6817D01*
X9950Y-6850D01*
Y-6883D01*
X9967Y-6900D01*
X10000D01*
X10017Y-6883D01*
Y-6867D01*
X10000Y-6850D01*
X9950D01*
X9350Y-6800D02*
Y-6900D01*
X9400D01*
X9417Y-6883D01*
Y-6817D01*
X9400Y-6800D01*
X9350D01*
X9450D02*
X9517D01*
Y-6817D01*
X9450Y-6883D01*
Y-6900D01*
X9617Y-6800D02*
X9550D01*
Y-6850D01*
X9583Y-6833D01*
X9600D01*
X9617Y-6850D01*
Y-6883D01*
X9600Y-6900D01*
X9567D01*
X9550Y-6883D01*
X8975Y-6800D02*
Y-6900D01*
X9025D01*
X9042Y-6883D01*
Y-6817D01*
X9025Y-6800D01*
X8975D01*
X9075D02*
X9142D01*
Y-6817D01*
X9075Y-6883D01*
Y-6900D01*
X9225D02*
Y-6800D01*
X9175Y-6850D01*
X9242D01*
X8600Y-6800D02*
Y-6900D01*
X8650D01*
X8667Y-6883D01*
Y-6817D01*
X8650Y-6800D01*
X8600D01*
X8700D02*
X8767D01*
Y-6817D01*
X8700Y-6883D01*
Y-6900D01*
X8800Y-6817D02*
X8817Y-6800D01*
X8850D01*
X8867Y-6817D01*
Y-6833D01*
X8850Y-6850D01*
X8833D01*
X8850D01*
X8867Y-6867D01*
Y-6883D01*
X8850Y-6900D01*
X8817D01*
X8800Y-6883D01*
X8225Y-6800D02*
Y-6900D01*
X8275D01*
X8292Y-6883D01*
Y-6817D01*
X8275Y-6800D01*
X8225D01*
X8325D02*
X8392D01*
Y-6817D01*
X8325Y-6883D01*
Y-6900D01*
X8492D02*
X8425D01*
X8492Y-6833D01*
Y-6817D01*
X8475Y-6800D01*
X8442D01*
X8425Y-6817D01*
X7820Y-6748D02*
Y-6848D01*
X7870D01*
X7887Y-6831D01*
Y-6765D01*
X7870Y-6748D01*
X7820D01*
X7920D02*
X7987D01*
Y-6765D01*
X7920Y-6831D01*
Y-6848D01*
X8020D02*
X8054D01*
X8037D01*
Y-6748D01*
X8020Y-6765D01*
X7445Y-6748D02*
Y-6848D01*
X7495D01*
X7512Y-6831D01*
Y-6765D01*
X7495Y-6748D01*
X7445D01*
X7545D02*
X7612D01*
Y-6765D01*
X7545Y-6831D01*
Y-6848D01*
X7645Y-6765D02*
X7662Y-6748D01*
X7695D01*
X7712Y-6765D01*
Y-6831D01*
X7695Y-6848D01*
X7662D01*
X7645Y-6831D01*
Y-6765D01*
X6925Y-7150D02*
X7025D01*
Y-7100D01*
X7008Y-7083D01*
X6942D01*
X6925Y-7100D01*
Y-7150D01*
Y-6983D02*
X6942Y-7017D01*
X6975Y-7050D01*
X7008D01*
X7025Y-7033D01*
Y-7000D01*
X7008Y-6983D01*
X6992D01*
X6975Y-7000D01*
Y-7050D01*
X7008Y-6950D02*
X7025Y-6933D01*
Y-6900D01*
X7008Y-6883D01*
X6942D01*
X6925Y-6900D01*
Y-6933D01*
X6942Y-6950D01*
X6958D01*
X6975Y-6933D01*
Y-6883D01*
X3225Y-7250D02*
Y-7350D01*
X3275D01*
X3292Y-7333D01*
Y-7267D01*
X3275Y-7250D01*
X3225D01*
X3392D02*
X3358Y-7267D01*
X3325Y-7300D01*
Y-7333D01*
X3342Y-7350D01*
X3375D01*
X3392Y-7333D01*
Y-7317D01*
X3375Y-7300D01*
X3325D01*
X3425Y-7267D02*
X3442Y-7250D01*
X3475D01*
X3492Y-7267D01*
Y-7283D01*
X3475Y-7300D01*
X3492Y-7317D01*
Y-7333D01*
X3475Y-7350D01*
X3442D01*
X3425Y-7333D01*
Y-7317D01*
X3442Y-7300D01*
X3425Y-7283D01*
Y-7267D01*
X3442Y-7300D02*
X3475D01*
X2825Y-7250D02*
Y-7350D01*
X2875D01*
X2892Y-7333D01*
Y-7267D01*
X2875Y-7250D01*
X2825D01*
X2992D02*
X2958Y-7267D01*
X2925Y-7300D01*
Y-7333D01*
X2942Y-7350D01*
X2975D01*
X2992Y-7333D01*
Y-7317D01*
X2975Y-7300D01*
X2925D01*
X3025Y-7250D02*
X3092D01*
Y-7267D01*
X3025Y-7333D01*
Y-7350D01*
X2450Y-6775D02*
Y-6875D01*
X2500D01*
X2517Y-6858D01*
Y-6792D01*
X2500Y-6775D01*
X2450D01*
X2617D02*
X2583Y-6792D01*
X2550Y-6825D01*
Y-6858D01*
X2567Y-6875D01*
X2600D01*
X2617Y-6858D01*
Y-6842D01*
X2600Y-6825D01*
X2550D01*
X2717Y-6775D02*
X2683Y-6792D01*
X2650Y-6825D01*
Y-6858D01*
X2667Y-6875D01*
X2700D01*
X2717Y-6858D01*
Y-6842D01*
X2700Y-6825D01*
X2650D01*
X2025Y-7250D02*
Y-7350D01*
X2075D01*
X2092Y-7333D01*
Y-7267D01*
X2075Y-7250D01*
X2025D01*
X2192D02*
X2158Y-7267D01*
X2125Y-7300D01*
Y-7333D01*
X2142Y-7350D01*
X2175D01*
X2192Y-7333D01*
Y-7317D01*
X2175Y-7300D01*
X2125D01*
X2292Y-7250D02*
X2225D01*
Y-7300D01*
X2258Y-7283D01*
X2275D01*
X2292Y-7300D01*
Y-7333D01*
X2275Y-7350D01*
X2242D01*
X2225Y-7333D01*
X1625Y-7250D02*
Y-7350D01*
X1675D01*
X1692Y-7333D01*
Y-7267D01*
X1675Y-7250D01*
X1625D01*
X1792D02*
X1758Y-7267D01*
X1725Y-7300D01*
Y-7333D01*
X1742Y-7350D01*
X1775D01*
X1792Y-7333D01*
Y-7317D01*
X1775Y-7300D01*
X1725D01*
X1875Y-7350D02*
Y-7250D01*
X1825Y-7300D01*
X1892D01*
X1225Y-7250D02*
Y-7350D01*
X1275D01*
X1292Y-7333D01*
Y-7267D01*
X1275Y-7250D01*
X1225D01*
X1392D02*
X1358Y-7267D01*
X1325Y-7300D01*
Y-7333D01*
X1342Y-7350D01*
X1375D01*
X1392Y-7333D01*
Y-7317D01*
X1375Y-7300D01*
X1325D01*
X1425Y-7267D02*
X1442Y-7250D01*
X1475D01*
X1492Y-7267D01*
Y-7283D01*
X1475Y-7300D01*
X1458D01*
X1475D01*
X1492Y-7317D01*
Y-7333D01*
X1475Y-7350D01*
X1442D01*
X1425Y-7333D01*
X800Y-7250D02*
Y-7350D01*
X850D01*
X867Y-7333D01*
Y-7267D01*
X850Y-7250D01*
X800D01*
X967D02*
X933Y-7267D01*
X900Y-7300D01*
Y-7333D01*
X917Y-7350D01*
X950D01*
X967Y-7333D01*
Y-7317D01*
X950Y-7300D01*
X900D01*
X1067Y-7350D02*
X1000D01*
X1067Y-7283D01*
Y-7267D01*
X1050Y-7250D01*
X1017D01*
X1000Y-7267D01*
X100Y-7525D02*
Y-7625D01*
X150D01*
X167Y-7608D01*
Y-7542D01*
X150Y-7525D01*
X100D01*
X267D02*
X233Y-7542D01*
X200Y-7575D01*
Y-7608D01*
X217Y-7625D01*
X250D01*
X267Y-7608D01*
Y-7592D01*
X250Y-7575D01*
X200D01*
X300Y-7625D02*
X333D01*
X317D01*
Y-7525D01*
X300Y-7542D01*
X2000Y-4200D02*
Y-4300D01*
X2050D01*
X2067Y-4283D01*
Y-4217D01*
X2050Y-4200D01*
X2000D01*
X2167Y-4300D02*
X2100D01*
X2167Y-4233D01*
Y-4217D01*
X2150Y-4200D01*
X2117D01*
X2100Y-4217D01*
X2267Y-4200D02*
X2200D01*
Y-4250D01*
X2233Y-4233D01*
X2250D01*
X2267Y-4250D01*
Y-4283D01*
X2250Y-4300D01*
X2217D01*
X2200Y-4283D01*
X1375Y-1300D02*
Y-1400D01*
X1425D01*
X1442Y-1383D01*
Y-1317D01*
X1425Y-1300D01*
X1375D01*
X1542Y-1400D02*
X1475D01*
X1542Y-1333D01*
Y-1317D01*
X1525Y-1300D01*
X1492D01*
X1475Y-1317D01*
X1625Y-1400D02*
Y-1300D01*
X1575Y-1350D01*
X1642D01*
X1925Y-1475D02*
Y-1575D01*
X1975D01*
X1992Y-1558D01*
Y-1492D01*
X1975Y-1475D01*
X1925D01*
X2092Y-1575D02*
X2025D01*
X2092Y-1508D01*
Y-1492D01*
X2075Y-1475D01*
X2042D01*
X2025Y-1492D01*
X2125D02*
X2142Y-1475D01*
X2175D01*
X2192Y-1492D01*
Y-1508D01*
X2175Y-1525D01*
X2158D01*
X2175D01*
X2192Y-1542D01*
Y-1558D01*
X2175Y-1575D01*
X2142D01*
X2125Y-1558D01*
X13467Y-5967D02*
X13450Y-5950D01*
X13417D01*
X13400Y-5967D01*
Y-6033D01*
X13417Y-6050D01*
X13450D01*
X13467Y-6033D01*
X13500Y-6050D02*
X13533D01*
X13517D01*
Y-5950D01*
X13500Y-5967D01*
X13583Y-6050D02*
X13617D01*
X13600D01*
Y-5950D01*
X13583Y-5967D01*
X13017Y-7567D02*
X13000Y-7550D01*
X12967D01*
X12950Y-7567D01*
Y-7633D01*
X12967Y-7650D01*
X13000D01*
X13017Y-7633D01*
X13050Y-7650D02*
X13083D01*
X13067D01*
Y-7550D01*
X13050Y-7567D01*
X13133D02*
X13150Y-7550D01*
X13183D01*
X13200Y-7567D01*
Y-7633D01*
X13183Y-7650D01*
X13150D01*
X13133Y-7633D01*
Y-7567D01*
X1242Y-4867D02*
X1225Y-4850D01*
X1192D01*
X1175Y-4867D01*
Y-4933D01*
X1192Y-4950D01*
X1225D01*
X1242Y-4933D01*
X1275D02*
X1292Y-4950D01*
X1325D01*
X1342Y-4933D01*
Y-4867D01*
X1325Y-4850D01*
X1292D01*
X1275Y-4867D01*
Y-4883D01*
X1292Y-4900D01*
X1342D01*
X1692Y-2592D02*
X1675Y-2575D01*
X1642D01*
X1625Y-2592D01*
Y-2658D01*
X1642Y-2675D01*
X1675D01*
X1692Y-2658D01*
X1725Y-2592D02*
X1742Y-2575D01*
X1775D01*
X1792Y-2592D01*
Y-2608D01*
X1775Y-2625D01*
X1792Y-2642D01*
Y-2658D01*
X1775Y-2675D01*
X1742D01*
X1725Y-2658D01*
Y-2642D01*
X1742Y-2625D01*
X1725Y-2608D01*
Y-2592D01*
X1742Y-2625D02*
X1775D01*
X8192Y-4042D02*
X8175Y-4025D01*
X8142D01*
X8125Y-4042D01*
Y-4108D01*
X8142Y-4125D01*
X8175D01*
X8192Y-4108D01*
X8292Y-4025D02*
X8225D01*
Y-4075D01*
X8258Y-4058D01*
X8275D01*
X8292Y-4075D01*
Y-4108D01*
X8275Y-4125D01*
X8242D01*
X8225Y-4108D01*
X8117Y-3192D02*
X8100Y-3175D01*
X8067D01*
X8050Y-3192D01*
Y-3258D01*
X8067Y-3275D01*
X8100D01*
X8117Y-3258D01*
X8200Y-3275D02*
Y-3175D01*
X8150Y-3225D01*
X8217D01*
X1692Y-2817D02*
X1675Y-2800D01*
X1642D01*
X1625Y-2817D01*
Y-2883D01*
X1642Y-2900D01*
X1675D01*
X1692Y-2883D01*
X1725Y-2817D02*
X1742Y-2800D01*
X1775D01*
X1792Y-2817D01*
Y-2833D01*
X1775Y-2850D01*
X1758D01*
X1775D01*
X1792Y-2867D01*
Y-2883D01*
X1775Y-2900D01*
X1742D01*
X1725Y-2883D01*
X6817Y-4067D02*
X6800Y-4050D01*
X6767D01*
X6750Y-4067D01*
Y-4133D01*
X6767Y-4150D01*
X6800D01*
X6817Y-4133D01*
X6917Y-4150D02*
X6850D01*
X6917Y-4083D01*
Y-4067D01*
X6900Y-4050D01*
X6867D01*
X6850Y-4067D01*
X5317Y-3892D02*
X5300Y-3875D01*
X5267D01*
X5250Y-3892D01*
Y-3958D01*
X5267Y-3975D01*
X5300D01*
X5317Y-3958D01*
X5350Y-3975D02*
X5383D01*
X5367D01*
Y-3875D01*
X5350Y-3892D01*
X1667Y-1000D02*
X1633D01*
X1650D01*
Y-1083D01*
X1633Y-1100D01*
X1617D01*
X1600Y-1083D01*
X1700Y-1100D02*
X1733D01*
X1717D01*
Y-1000D01*
X1700Y-1017D01*
X3167Y-1000D02*
X3133D01*
X3150D01*
Y-1083D01*
X3133Y-1100D01*
X3117D01*
X3100Y-1083D01*
X3267Y-1100D02*
X3200D01*
X3267Y-1033D01*
Y-1017D01*
X3250Y-1000D01*
X3217D01*
X3200Y-1017D01*
X4692Y-1025D02*
X4658D01*
X4675D01*
Y-1108D01*
X4658Y-1125D01*
X4642D01*
X4625Y-1108D01*
X4725Y-1042D02*
X4742Y-1025D01*
X4775D01*
X4792Y-1042D01*
Y-1058D01*
X4775Y-1075D01*
X4758D01*
X4775D01*
X4792Y-1092D01*
Y-1108D01*
X4775Y-1125D01*
X4742D01*
X4725Y-1108D01*
X5617Y-1000D02*
X5583D01*
X5600D01*
Y-1083D01*
X5583Y-1100D01*
X5567D01*
X5550Y-1083D01*
X5700Y-1100D02*
Y-1000D01*
X5650Y-1050D01*
X5717D01*
X8442Y-1000D02*
X8408D01*
X8425D01*
Y-1083D01*
X8408Y-1100D01*
X8392D01*
X8375Y-1083D01*
X8542Y-1000D02*
X8475D01*
Y-1050D01*
X8508Y-1033D01*
X8525D01*
X8542Y-1050D01*
Y-1083D01*
X8525Y-1100D01*
X8492D01*
X8475Y-1083D01*
X9917Y-1000D02*
X9883D01*
X9900D01*
Y-1083D01*
X9883Y-1100D01*
X9867D01*
X9850Y-1083D01*
X10017Y-1000D02*
X9983Y-1017D01*
X9950Y-1050D01*
Y-1083D01*
X9967Y-1100D01*
X10000D01*
X10017Y-1083D01*
Y-1067D01*
X10000Y-1050D01*
X9950D01*
X10892Y-1000D02*
X10858D01*
X10875D01*
Y-1083D01*
X10858Y-1100D01*
X10842D01*
X10825Y-1083D01*
X10925Y-1000D02*
X10992D01*
Y-1017D01*
X10925Y-1083D01*
Y-1100D01*
X13617Y-1000D02*
X13583D01*
X13600D01*
Y-1083D01*
X13583Y-1100D01*
X13567D01*
X13550Y-1083D01*
X13650Y-1017D02*
X13667Y-1000D01*
X13700D01*
X13717Y-1017D01*
Y-1033D01*
X13700Y-1050D01*
X13717Y-1067D01*
Y-1083D01*
X13700Y-1100D01*
X13667D01*
X13650Y-1083D01*
Y-1067D01*
X13667Y-1050D01*
X13650Y-1033D01*
Y-1017D01*
X13667Y-1050D02*
X13700D01*
X15167Y-1000D02*
X15133D01*
X15150D01*
Y-1083D01*
X15133Y-1100D01*
X15117D01*
X15100Y-1083D01*
X15200D02*
X15217Y-1100D01*
X15250D01*
X15267Y-1083D01*
Y-1017D01*
X15250Y-1000D01*
X15217D01*
X15200Y-1017D01*
Y-1033D01*
X15217Y-1050D01*
X15267D01*
X100Y-8208D02*
Y-8242D01*
Y-8225D01*
X183D01*
X200Y-8242D01*
Y-8258D01*
X183Y-8275D01*
X200Y-8175D02*
Y-8142D01*
Y-8158D01*
X100D01*
X117Y-8175D01*
Y-8092D02*
X100Y-8075D01*
Y-8042D01*
X117Y-8025D01*
X183D01*
X200Y-8042D01*
Y-8075D01*
X183Y-8092D01*
X117D01*
X2267Y-8375D02*
X2233D01*
X2250D01*
Y-8458D01*
X2233Y-8475D01*
X2217D01*
X2200Y-8458D01*
X2300Y-8475D02*
X2333D01*
X2317D01*
Y-8375D01*
X2300Y-8392D01*
X2383Y-8475D02*
X2417D01*
X2400D01*
Y-8375D01*
X2383Y-8392D01*
X4850Y-8233D02*
Y-8267D01*
Y-8250D01*
X4933D01*
X4950Y-8267D01*
Y-8283D01*
X4933Y-8300D01*
X4950Y-8200D02*
Y-8167D01*
Y-8183D01*
X4850D01*
X4867Y-8200D01*
X4950Y-8050D02*
Y-8117D01*
X4883Y-8050D01*
X4867D01*
X4850Y-8067D01*
Y-8100D01*
X4867Y-8117D01*
X5400Y-8183D02*
Y-8217D01*
Y-8200D01*
X5483D01*
X5500Y-8217D01*
Y-8233D01*
X5483Y-8250D01*
X5500Y-8150D02*
Y-8117D01*
Y-8133D01*
X5400D01*
X5417Y-8150D01*
Y-8067D02*
X5400Y-8050D01*
Y-8017D01*
X5417Y-8000D01*
X5433D01*
X5450Y-8017D01*
Y-8033D01*
Y-8017D01*
X5467Y-8000D01*
X5483D01*
X5500Y-8017D01*
Y-8050D01*
X5483Y-8067D01*
X7992Y-8375D02*
X7958D01*
X7975D01*
Y-8458D01*
X7958Y-8475D01*
X7942D01*
X7925Y-8458D01*
X8025Y-8475D02*
X8058D01*
X8042D01*
Y-8375D01*
X8025Y-8392D01*
X8158Y-8475D02*
Y-8375D01*
X8108Y-8425D01*
X8175D01*
X10067Y-7600D02*
X10033D01*
X10050D01*
Y-7683D01*
X10033Y-7700D01*
X10017D01*
X10000Y-7683D01*
X10100Y-7700D02*
X10133D01*
X10117D01*
Y-7600D01*
X10100Y-7617D01*
X10250Y-7600D02*
X10183D01*
Y-7650D01*
X10217Y-7633D01*
X10233D01*
X10250Y-7650D01*
Y-7683D01*
X10233Y-7700D01*
X10200D01*
X10183Y-7683D01*
X14667Y-6442D02*
X14650Y-6425D01*
X14617D01*
X14600Y-6442D01*
Y-6508D01*
X14617Y-6525D01*
X14650D01*
X14667Y-6508D01*
Y-6475D01*
X14633D01*
X14700Y-6525D02*
Y-6425D01*
X14767Y-6525D01*
Y-6425D01*
X14800D02*
Y-6525D01*
X14850D01*
X14867Y-6508D01*
Y-6442D01*
X14850Y-6425D01*
X14800D01*
X13867Y-6017D02*
X13850Y-6000D01*
X13817D01*
X13800Y-6017D01*
Y-6083D01*
X13817Y-6100D01*
X13850D01*
X13867Y-6083D01*
Y-6050D01*
X13833D01*
X13900Y-6100D02*
Y-6000D01*
X13967Y-6100D01*
Y-6000D01*
X14000D02*
Y-6100D01*
X14050D01*
X14067Y-6083D01*
Y-6017D01*
X14050Y-6000D01*
X14000D01*
X13758Y-7475D02*
X13692D01*
X13725D01*
Y-7642D01*
X13692Y-7675D01*
X13658D01*
X13625Y-7642D01*
X13825Y-7475D02*
X13958D01*
X13892D01*
Y-7675D01*
X14025D02*
Y-7542D01*
X14092Y-7475D01*
X14158Y-7542D01*
Y-7675D01*
Y-7575D01*
X14025D01*
X14358Y-7508D02*
X14325Y-7475D01*
X14258D01*
X14225Y-7508D01*
Y-7642D01*
X14258Y-7675D01*
X14325D01*
X14358Y-7642D01*
Y-7575D01*
X14291D01*
X13900Y-1925D02*
Y-1858D01*
X13933Y-1825D01*
X13967Y-1858D01*
Y-1925D01*
Y-1875D01*
X13900D01*
X14000Y-1925D02*
Y-1825D01*
X14067Y-1925D01*
Y-1825D01*
X14100Y-1925D02*
Y-1858D01*
X14133Y-1825D01*
X14167Y-1858D01*
Y-1925D01*
Y-1875D01*
X14100D01*
X14200Y-1825D02*
Y-1925D01*
X14267D01*
X14350Y-1825D02*
X14317D01*
X14300Y-1842D01*
Y-1908D01*
X14317Y-1925D01*
X14350D01*
X14367Y-1908D01*
Y-1842D01*
X14350Y-1825D01*
X14466Y-1842D02*
X14450Y-1825D01*
X14416D01*
X14400Y-1842D01*
Y-1908D01*
X14416Y-1925D01*
X14450D01*
X14466Y-1908D01*
Y-1875D01*
X14433D01*
X14500Y-1825D02*
Y-1908D01*
X14516Y-1925D01*
X14550D01*
X14566Y-1908D01*
Y-1825D01*
X14666D02*
X14600D01*
Y-1925D01*
X14666D01*
X14600Y-1875D02*
X14633D01*
X14800Y-1825D02*
X14833D01*
X14816D01*
Y-1925D01*
X14800D01*
X14833D01*
X14883D02*
Y-1825D01*
X14950Y-1925D01*
Y-1825D01*
X14983Y-1925D02*
Y-1825D01*
X15033D01*
X15050Y-1842D01*
Y-1875D01*
X15033Y-1892D01*
X14983D01*
X15083Y-1825D02*
Y-1908D01*
X15100Y-1925D01*
X15133D01*
X15150Y-1908D01*
Y-1825D01*
X15183D02*
X15250D01*
X15216D01*
Y-1925D01*
X15350Y-1842D02*
X15333Y-1825D01*
X15300D01*
X15283Y-1842D01*
Y-1858D01*
X15300Y-1875D01*
X15333D01*
X15350Y-1892D01*
Y-1908D01*
X15333Y-1925D01*
X15300D01*
X15283Y-1908D01*
D35*
X125Y-4100D02*
X1025D01*
Y-4100D02*
Y-1500D01*
X125D02*
X1025D01*
X125Y-4100D02*
Y-1500D01*
D36*
X1697Y-3764D02*
G03*
X1697Y-3764I-42J0D01*
G01*
D73*
X14997Y-5666D02*
G03*
X14997Y-5666I-12J0D01*
G01*
X10482Y-5265D02*
G03*
X10482Y-5265I-12J0D01*
G01*
X10032D02*
G03*
X10032Y-5265I-12J0D01*
G01*
X9582D02*
G03*
X9582Y-5265I-12J0D01*
G01*
X9132D02*
G03*
X9132Y-5265I-12J0D01*
G01*
X13672Y-5666D02*
G03*
X13672Y-5666I-12J0D01*
G01*
X5083Y-5265D02*
G03*
X5083Y-5265I-12J0D01*
G01*
X4633D02*
G03*
X4633Y-5265I-12J0D01*
G01*
X4183D02*
G03*
X4183Y-5265I-12J0D01*
G01*
X3733D02*
G03*
X3733Y-5265I-12J0D01*
G01*
X6882D02*
G03*
X6882Y-5265I-12J0D01*
G01*
X6432D02*
G03*
X6432Y-5265I-12J0D01*
G01*
X5983D02*
G03*
X5983Y-5265I-12J0D01*
G01*
X5533D02*
G03*
X5533Y-5265I-12J0D01*
G01*
X8682D02*
G03*
X8682Y-5265I-12J0D01*
G01*
X8232D02*
G03*
X8232Y-5265I-12J0D01*
G01*
X7782D02*
G03*
X7782Y-5265I-12J0D01*
G01*
X7332D02*
G03*
X7332Y-5265I-12J0D01*
G01*
X3283D02*
G03*
X3283Y-5265I-12J0D01*
G01*
X10800Y-7310D02*
X12220D01*
Y-9120D02*
Y-7310D01*
X10800Y-9120D02*
X12220D01*
X10800D02*
Y-7310D01*
X7050Y-150D02*
X7250D01*
X7350D02*
X7750D01*
X7850D02*
X8250D01*
X8350D02*
X8550D01*
X7250Y-300D02*
Y-150D01*
Y-300D02*
X7350D01*
Y-150D01*
X7750Y-300D02*
Y-150D01*
Y-300D02*
X7850D01*
Y-150D01*
X8250Y-300D02*
Y-150D01*
Y-300D02*
X8350D01*
Y-150D01*
X8550Y-950D02*
Y-150D01*
X7050Y-950D02*
Y-150D01*
Y-950D02*
X8550D01*
Y-150D02*
X8750D01*
X8850D02*
X9250D01*
X9350D02*
X9750D01*
X9850D02*
X10050D01*
X8750Y-300D02*
Y-150D01*
Y-300D02*
X8850D01*
Y-150D01*
X9250Y-300D02*
Y-150D01*
Y-300D02*
X9350D01*
Y-150D01*
X9750Y-300D02*
Y-150D01*
Y-300D02*
X9850D01*
Y-150D01*
X10050Y-950D02*
Y-150D01*
X8550Y-950D02*
Y-150D01*
Y-950D02*
X10050D01*
X10800Y-150D02*
X11000D01*
X11100D02*
X11500D01*
X11600D02*
X12000D01*
X12100D02*
X12300D01*
X11000Y-300D02*
Y-150D01*
Y-300D02*
X11100D01*
Y-150D01*
X11500Y-300D02*
Y-150D01*
Y-300D02*
X11600D01*
Y-150D01*
X12000Y-300D02*
Y-150D01*
Y-300D02*
X12100D01*
Y-150D01*
X12300Y-950D02*
Y-150D01*
X10800Y-950D02*
Y-150D01*
Y-950D02*
X12300D01*
X300Y-150D02*
X500D01*
X600D02*
X1000D01*
X1100D02*
X1500D01*
X1600D02*
X1800D01*
X500Y-300D02*
Y-150D01*
Y-300D02*
X600D01*
Y-150D01*
X1000Y-300D02*
Y-150D01*
Y-300D02*
X1100D01*
Y-150D01*
X1500Y-300D02*
Y-150D01*
Y-300D02*
X1600D01*
Y-150D01*
X1800Y-950D02*
Y-150D01*
X300Y-950D02*
Y-150D01*
Y-950D02*
X1800D01*
Y-150D02*
X2000D01*
X2100D02*
X2500D01*
X2600D02*
X3000D01*
X3100D02*
X3300D01*
X2000Y-300D02*
Y-150D01*
Y-300D02*
X2100D01*
Y-150D01*
X2500Y-300D02*
Y-150D01*
Y-300D02*
X2600D01*
Y-150D01*
X3000Y-300D02*
Y-150D01*
Y-300D02*
X3100D01*
Y-150D01*
X3300Y-950D02*
Y-150D01*
X1800Y-950D02*
Y-150D01*
Y-950D02*
X3300D01*
X3300Y-150D02*
X3500D01*
X3600D02*
X4000D01*
X4100D02*
X4500D01*
X4600D02*
X4800D01*
X3500Y-300D02*
Y-150D01*
Y-300D02*
X3600D01*
Y-150D01*
X4000Y-300D02*
Y-150D01*
Y-300D02*
X4100D01*
Y-150D01*
X4500Y-300D02*
Y-150D01*
Y-300D02*
X4600D01*
Y-150D01*
X4800Y-950D02*
Y-150D01*
X3300Y-950D02*
Y-150D01*
Y-950D02*
X4800D01*
X5550Y-150D02*
X5750D01*
X5850D02*
X6250D01*
X6350D02*
X6750D01*
X6850D02*
X7050D01*
X5750Y-300D02*
Y-150D01*
Y-300D02*
X5850D01*
Y-150D01*
X6250Y-300D02*
Y-150D01*
Y-300D02*
X6350D01*
Y-150D01*
X6750Y-300D02*
Y-150D01*
Y-300D02*
X6850D01*
Y-150D01*
X7050Y-950D02*
Y-150D01*
X5550Y-950D02*
Y-150D01*
Y-950D02*
X7050D01*
X12300Y-150D02*
X12500D01*
X12600D02*
X13000D01*
X13100D02*
X13500D01*
X13600D02*
X13800D01*
X12500Y-300D02*
Y-150D01*
Y-300D02*
X12600D01*
Y-150D01*
X13000Y-300D02*
Y-150D01*
Y-300D02*
X13100D01*
Y-150D01*
X13500Y-300D02*
Y-150D01*
Y-300D02*
X13600D01*
Y-150D01*
X13800Y-950D02*
Y-150D01*
X12300Y-950D02*
Y-150D01*
Y-950D02*
X13800D01*
Y-150D02*
X14000D01*
X14100D02*
X14500D01*
X14600D02*
X15000D01*
X15100D02*
X15300D01*
X14000Y-300D02*
Y-150D01*
Y-300D02*
X14100D01*
Y-150D01*
X14500Y-300D02*
Y-150D01*
Y-300D02*
X14600D01*
Y-150D01*
X15000Y-300D02*
Y-150D01*
Y-300D02*
X15100D01*
Y-150D01*
X15300Y-950D02*
Y-150D01*
X13800Y-950D02*
Y-150D01*
Y-950D02*
X15300D01*
X1600Y-8525D02*
X1800D01*
X1100D02*
X1500D01*
X600D02*
X1000D01*
X300D02*
X500D01*
X1600D02*
Y-8375D01*
X1500D02*
X1600D01*
X1500Y-8525D02*
Y-8375D01*
X1100Y-8525D02*
Y-8375D01*
X1000D02*
X1100D01*
X1000Y-8525D02*
Y-8375D01*
X600Y-8525D02*
Y-8375D01*
X500D02*
X600D01*
X500Y-8525D02*
Y-8375D01*
X300Y-8525D02*
Y-7725D01*
X1800Y-8525D02*
Y-7725D01*
X300D02*
X1800D01*
X3100Y-8525D02*
X3300D01*
X2600D02*
X3000D01*
X2100D02*
X2500D01*
X1800D02*
X2000D01*
X3100D02*
Y-8375D01*
X3000D02*
X3100D01*
X3000Y-8525D02*
Y-8375D01*
X2600Y-8525D02*
Y-8375D01*
X2500D02*
X2600D01*
X2500Y-8525D02*
Y-8375D01*
X2100Y-8525D02*
Y-8375D01*
X2000D02*
X2100D01*
X2000Y-8525D02*
Y-8375D01*
X1800Y-8525D02*
Y-7725D01*
X3300Y-8525D02*
Y-7725D01*
X1800D02*
X3300D01*
X4600Y-8525D02*
X4800D01*
X4100D02*
X4500D01*
X3600D02*
X4000D01*
X3300D02*
X3500D01*
X4600D02*
Y-8375D01*
X4500D02*
X4600D01*
X4500Y-8525D02*
Y-8375D01*
X4100Y-8525D02*
Y-8375D01*
X4000D02*
X4100D01*
X4000Y-8525D02*
Y-8375D01*
X3600Y-8525D02*
Y-8375D01*
X3500D02*
X3600D01*
X3500Y-8525D02*
Y-8375D01*
X3300Y-8525D02*
Y-7725D01*
X4800Y-8525D02*
Y-7725D01*
X3300D02*
X4800D01*
X6850Y-8525D02*
X7050D01*
X6350D02*
X6750D01*
X5850D02*
X6250D01*
X5550D02*
X5750D01*
X6850D02*
Y-8375D01*
X6750D02*
X6850D01*
X6750Y-8525D02*
Y-8375D01*
X6350Y-8525D02*
Y-8375D01*
X6250D02*
X6350D01*
X6250Y-8525D02*
Y-8375D01*
X5850Y-8525D02*
Y-8375D01*
X5750D02*
X5850D01*
X5750Y-8525D02*
Y-8375D01*
X5550Y-8525D02*
Y-7725D01*
X7050Y-8525D02*
Y-7725D01*
X5550D02*
X7050D01*
X8350Y-8525D02*
X8550D01*
X7850D02*
X8250D01*
X7350D02*
X7750D01*
X7050D02*
X7250D01*
X8350D02*
Y-8375D01*
X8250D02*
X8350D01*
X8250Y-8525D02*
Y-8375D01*
X7850Y-8525D02*
Y-8375D01*
X7750D02*
X7850D01*
X7750Y-8525D02*
Y-8375D01*
X7350Y-8525D02*
Y-8375D01*
X7250D02*
X7350D01*
X7250Y-8525D02*
Y-8375D01*
X7050Y-8525D02*
Y-7725D01*
X8550Y-8525D02*
Y-7725D01*
X7050D02*
X8550D01*
X9850Y-8525D02*
X10050D01*
X9350D02*
X9750D01*
X8850D02*
X9250D01*
X8550D02*
X8750D01*
X9850D02*
Y-8375D01*
X9750D02*
X9850D01*
X9750Y-8525D02*
Y-8375D01*
X9350Y-8525D02*
Y-8375D01*
X9250D02*
X9350D01*
X9250Y-8525D02*
Y-8375D01*
X8850Y-8525D02*
Y-8375D01*
X8750D02*
X8850D01*
X8750Y-8525D02*
Y-8375D01*
X8550Y-8525D02*
Y-7725D01*
X10050Y-8525D02*
Y-7725D01*
X8550D02*
X10050D01*
D74*
X6504Y-3775D02*
D03*
X6646Y-3775D02*
D03*
D75*
X2586Y-6174D02*
Y-6136D01*
X2714D01*
Y-6174D01*
X2586D01*
X2597Y-6163D02*
Y-6147D01*
X2703D01*
Y-6163D01*
X2597D01*
X2607Y-6156D02*
X2693Y-6154D01*
X2650Y-6223D02*
X2608Y-6181D01*
X2650Y-6139D01*
X2692Y-6181D01*
X2650Y-6223D01*
Y-6208D02*
X2623Y-6181D01*
X2650Y-6154D01*
X2677Y-6181D01*
X2650Y-6208D01*
Y-6193D02*
X2638Y-6181D01*
X2650Y-6168D01*
X2663Y-6181D01*
X2650Y-6193D01*
X2650Y-6183D02*
Y-6179D01*
X2586Y-2574D02*
Y-2536D01*
X2714D01*
Y-2574D01*
X2586D01*
X2597Y-2563D02*
Y-2547D01*
X2703D01*
Y-2563D01*
X2597D01*
X2607Y-2556D02*
X2693Y-2554D01*
X2650Y-2623D02*
X2608Y-2581D01*
X2650Y-2539D01*
X2692Y-2581D01*
X2650Y-2623D01*
Y-2608D02*
X2623Y-2581D01*
X2650Y-2554D01*
X2677Y-2581D01*
X2650Y-2608D01*
Y-2593D02*
X2638Y-2581D01*
X2650Y-2568D01*
X2663Y-2581D01*
X2650Y-2593D01*
X2650Y-2583D02*
Y-2579D01*
D76*
X9300Y-2495D02*
D03*
X2875D02*
D03*
X12800Y-8720D02*
D03*
D77*
X9299Y-2522D02*
D03*
X2874Y-2522D02*
D03*
X12799Y-8747D02*
D03*
D78*
X9305Y-2439D02*
X9317Y-2451D01*
X9240Y-2528D01*
X9228Y-2516D01*
X9305Y-2439D01*
Y-2446D02*
X9310Y-2451D01*
X9240Y-2521D01*
X9235Y-2516D01*
X9305Y-2446D01*
X9303Y-2451D02*
X9242Y-2516D01*
X9305Y-2439D02*
X9379Y-2513D01*
X9358Y-2534D01*
X9284Y-2460D01*
X9305Y-2439D01*
Y-2446D02*
X9372Y-2513D01*
X9358Y-2527D01*
X9291Y-2460D01*
X9305Y-2446D01*
Y-2452D02*
X9366Y-2513D01*
X9358Y-2521D01*
X9297Y-2460D01*
X9305Y-2452D01*
Y-2459D02*
X9359Y-2513D01*
X9358Y-2514D01*
X9304Y-2460D01*
X9305Y-2459D01*
X9309Y-2462D02*
X9354Y-2511D01*
X2880Y-2439D02*
X2892Y-2451D01*
X2815Y-2528D01*
X2803Y-2516D01*
X2880Y-2439D01*
Y-2446D02*
X2885Y-2451D01*
X2815Y-2521D01*
X2810Y-2516D01*
X2880Y-2446D01*
X2878Y-2451D02*
X2817Y-2516D01*
X2880Y-2439D02*
X2954Y-2513D01*
X2933Y-2534D01*
X2859Y-2460D01*
X2880Y-2439D01*
Y-2446D02*
X2947Y-2513D01*
X2933Y-2527D01*
X2866Y-2460D01*
X2880Y-2446D01*
Y-2452D02*
X2941Y-2513D01*
X2933Y-2521D01*
X2872Y-2460D01*
X2880Y-2452D01*
Y-2459D02*
X2934Y-2513D01*
X2933Y-2514D01*
X2879Y-2460D01*
X2880Y-2459D01*
X2884Y-2462D02*
X2929Y-2511D01*
X12805Y-8664D02*
X12817Y-8676D01*
X12740Y-8753D01*
X12728Y-8741D01*
X12805Y-8664D01*
Y-8671D02*
X12810Y-8676D01*
X12740Y-8746D01*
X12735Y-8741D01*
X12805Y-8671D01*
X12803Y-8676D02*
X12742Y-8741D01*
X12805Y-8664D02*
X12879Y-8738D01*
X12858Y-8759D01*
X12784Y-8685D01*
X12805Y-8664D01*
Y-8671D02*
X12872Y-8738D01*
X12858Y-8752D01*
X12791Y-8685D01*
X12805Y-8671D01*
Y-8677D02*
X12866Y-8738D01*
X12858Y-8746D01*
X12797Y-8685D01*
X12805Y-8677D01*
Y-8684D02*
X12859Y-8738D01*
X12858Y-8739D01*
X12804Y-8685D01*
X12805Y-8684D01*
X12809Y-8687D02*
X12854Y-8736D01*
D79*
X1810Y-3970D02*
D03*
Y-4330D02*
D03*
D80*
X5175Y-1375D02*
D03*
X10425D02*
D03*
X5175Y-7300D02*
D03*
X10425D02*
D03*
D81*
X5175Y-700D02*
D03*
X10425D02*
D03*
X5175Y-7975D02*
D03*
X10425D02*
D03*
D82*
X150Y-1300D02*
D03*
Y-7375D02*
D03*
X15450D02*
D03*
D83*
Y-1300D02*
D03*
M02*
