/* XPM */
static char * single0002_xpm[] = {
"16 16 197 2",
"  	c None",
". 	c #524300",
"+ 	c #665300",
"@ 	c #685400",
"# 	c #5E4B00",
"$ 	c #473800",
"% 	c #2A2100",
"& 	c #5D4D00",
"* 	c #937900",
"= 	c #9F8407",
"- 	c #AD9420",
"; 	c #B8A032",
"> 	c #B79F32",
", 	c #A78F21",
"' 	c #826B08",
") 	c #463700",
"! 	c #544D34",
"~ 	c #806B00",
"{ 	c #B39301",
"] 	c #B99D1C",
"^ 	c #CFB542",
"/ 	c #D8C154",
"( 	c #DCC55A",
"_ 	c #DAC254",
": 	c #D4BA43",
"< 	c #B79B1E",
"[ 	c #624D00",
"} 	c #181000",
"| 	c #675400",
"1 	c #BF9D00",
"2 	c #BA9C16",
"3 	c #CDB12D",
"4 	c #D7BA34",
"5 	c #E3C747",
"6 	c #EAD158",
"7 	c #E4C848",
"8 	c #D8BB35",
"9 	c #D1B32E",
"0 	c #C0A218",
"a 	c #685401",
"b 	c #1C1600",
"c 	c #B79700",
"d 	c #B69709",
"e 	c #C8AA19",
"f 	c #DBBD1D",
"g 	c #EED53B",
"h 	c #F9E968",
"i 	c #FCF287",
"j 	c #FCF288",
"k 	c #F9EA6A",
"l 	c #EFD73E",
"m 	c #DCBE1D",
"n 	c #CDAE19",
"o 	c #B1930A",
"p 	c #463800",
"q 	c #7F6900",
"r 	c #BF9E01",
"s 	c #BFA00D",
"t 	c #D4B50F",
"u 	c #EDD11D",
"v 	c #FAEB4F",
"w 	c #FCFB8C",
"x 	c #FFFFB7",
"y 	c #FFFFB9",
"z 	c #FDFB8F",
"A 	c #FAED52",
"B 	c #EED31F",
"C 	c #D5B60F",
"D 	c #C9A90E",
"E 	c #7B6501",
"F 	c #1E1700",
"G 	c #AD8F00",
"H 	c #B89903",
"I 	c #C7A80C",
"J 	c #DEBD0C",
"K 	c #F5DC1C",
"L 	c #F9F653",
"M 	c #FCFD97",
"N 	c #FEFECB",
"O 	c #FEFFCD",
"P 	c #FDFD9A",
"Q 	c #F9F757",
"R 	c #F6DE1E",
"S 	c #DFBF0C",
"T 	c #CDAD0C",
"U 	c #9F8404",
"V 	c #332800",
"W 	c #B89900",
"X 	c #B59605",
"Y 	c #CBAB0C",
"Z 	c #E3C10B",
"` 	c #F6E215",
" .	c #F8F83F",
"..	c #FBFB7B",
"+.	c #FEFDA6",
"@.	c #FEFDA8",
"#.	c #FCFC7E",
"$.	c #F8F943",
"%.	c #F7E416",
"&.	c #E5C30B",
"*.	c #CEAE0C",
"=.	c #AC8E06",
"-.	c #413300",
";.	c #B09200",
">.	c #B49605",
",.	c #E2BE0B",
"'.	c #F5DE0D",
").	c #F6F620",
"!.	c #F8F845",
"~.	c #FAFA62",
"{.	c #FAFA63",
"].	c #F8F847",
"^.	c #F6F722",
"/.	c #F5E00E",
"(.	c #E4BF0B",
"_.	c #CEAD0C",
":.	c #AC8F06",
"<.	c #967C00",
"[.	c #B29403",
"}.	c #C9AA0C",
"|.	c #DDBA0B",
"1.	c #F2D10B",
"2.	c #F3ED0E",
"3.	c #F4F418",
"4.	c #F5F423",
"5.	c #F5F424",
"6.	c #F4F419",
"7.	c #F3EE0E",
"8.	c #F2D30B",
"9.	c #DEBB0B",
"0.	c #CDAE0C",
"a.	c #A08404",
"b.	c #342800",
"c.	c #645300",
"d.	c #A88B01",
"e.	c #C5A70A",
"f.	c #D4B50B",
"g.	c #E9C50B",
"h.	c #F5DB0B",
"i.	c #F4EE0B",
"j.	c #F4F30C",
"k.	c #F4EF0B",
"l.	c #F5DD0B",
"m.	c #EAC60B",
"n.	c #D5B50B",
"o.	c #CCAE0A",
"p.	c #7E6701",
"q.	c #1F1800",
"r.	c #866D00",
"s.	c #B79A05",
"t.	c #CEB20C",
"u.	c #DABB0B",
"v.	c #EAC80B",
"w.	c #F3D50B",
"x.	c #F5DE0B",
"y.	c #F5DF0B",
"z.	c #F3D60B",
"A.	c #EBC80B",
"B.	c #DBBB0B",
"C.	c #D0B40C",
"D.	c #443500",
"E.	c #7A6D32",
"F.	c #886E00",
"G.	c #C1A407",
"H.	c #D2B60C",
"I.	c #D8BB0B",
"J.	c #E1C20B",
"K.	c #E7C60B",
"L.	c #E2C20B",
"M.	c #D9BB0B",
"N.	c #D3B70C",
"O.	c #C6A808",
"P.	c #634F00",
"Q.	c #4A432D",
"R.	c #3F3100",
"S.	c #836B00",
"T.	c #B79C05",
"U.	c #D1B60A",
"V.	c #D6BC0C",
"W.	c #D8BD0C",
"X.	c #D3B80B",
"Y.	c #BA9E06",
"Z.	c #644F00",
"`.	c #0D0400",
" +	c #342A00",
".+	c #5D4B00",
"++	c #856E01",
"@+	c #A58B04",
"#+	c #B39906",
"$+	c #B39A06",
"%+	c #7A6300",
"&+	c #3A2B00",
"*+	c #453F28",
"=+	c #2A2200",
"-+	c #3C3000",
";+	c #322600",
">+	c #4C452D",
"          . + @ # $ %           ",
"      & * = - ; > , ' ) !       ",
"    ~ { ] ^ / ( ( _ : < [ }     ",
"  | 1 2 3 4 5 6 6 7 8 9 0 a b   ",
"  c d e f g h i j k l m n o p   ",
"q r s t u v w x y z A B C D E F ",
"G H I J K L M N O P Q R S T U V ",
"W X Y Z `  ...+.@.#.$.%.&.*.=.-.",
";.>.Y ,.'.).!.~.{.].^./.(._.:.-.",
"<.[.}.|.1.2.3.4.5.6.7.8.9.0.a.b.",
"c.d.e.f.g.h.i.j.j.k.l.m.n.o.p.q.",
"  r.s.t.u.v.w.x.y.z.A.B.C.s.D.  ",
"  E.F.G.H.I.J.K.K.L.M.N.O.P.Q.  ",
"    R.S.T.U.V.W.W.V.X.Y.Z.`.    ",
"       +.+++@+#+$+@+%+&+*+      ",
"          =+-+) D.;+>+          "};
