/* XPM */
static char * single0000_xpm[] = {
"16 16 191 2",
"  	c None",
". 	c #284F00",
"+ 	c #316200",
"@ 	c #316400",
"# 	c #2C5900",
"$ 	c #214300",
"% 	c #142600",
"& 	c #2E5A00",
"* 	c #488F00",
"= 	c #549C08",
"- 	c #69AB21",
"; 	c #77B532",
"> 	c #77B433",
", 	c #65A421",
"' 	c #457D08",
") 	c #1E4100",
"! 	c #465337",
"~ 	c #417E00",
"{ 	c #5AAE01",
"] 	c #6CB61C",
"^ 	c #8BCD42",
"/ 	c #99D654",
"( 	c #9EDA5A",
"_ 	c #9AD854",
": 	c #8ED243",
"< 	c #6CB31D",
"[ 	c #2C5C00",
"} 	c #041400",
"| 	c #376B00",
"1 	c #60BA00",
"2 	c #6BB817",
"3 	c #81CB2D",
"4 	c #89D534",
"5 	c #98E147",
"6 	c #A4E858",
"7 	c #A5E858",
"8 	c #99E148",
"9 	c #83CE2E",
"0 	c #6EBD17",
"a 	c #336201",
"b 	c #051000",
"c 	c #5EB700",
"d 	c #62B409",
"e 	c #75C619",
"f 	c #82D91D",
"g 	c #A0ED3C",
"h 	c #C0F869",
"i 	c #D2FC87",
"j 	c #D2FC88",
"k 	c #C1F86A",
"l 	c #A1EE3D",
"m 	c #77CA19",
"n 	c #5FAD0A",
"o 	c #1C3A00",
"p 	c #407D00",
"q 	c #61BA01",
"r 	c #6BBC0D",
"s 	c #7BD20F",
"t 	c #9BEB1D",
"u 	c #C5FA4F",
"v 	c #E3FD8D",
"w 	c #F1FFB8",
"x 	c #F1FFB9",
"y 	c #E4FD8F",
"z 	c #C6FA51",
"A 	c #9CEC1E",
"B 	c #70C60E",
"C 	c #3E7501",
"D 	c #0C1800",
"E 	c #56A900",
"F 	c #60B403",
"G 	c #71C50C",
"H 	c #85DB0C",
"I 	c #AAF41C",
"J 	c #D1FA53",
"K 	c #EEFC97",
"L 	c #FCFECB",
"M 	c #FCFECC",
"N 	c #EEFD99",
"O 	c #D2FA55",
"P 	c #ABF41D",
"Q 	c #86DC0C",
"R 	c #74CA0C",
"S 	c #539904",
"T 	c #172C00",
"U 	c #5CB300",
"V 	c #61B205",
"W 	c #73C80C",
"X 	c #84E10B",
"Y 	c #A9F615",
"Z 	c #D2F83F",
"` 	c #F3FB7A",
" .	c #FEFDA5",
"..	c #FEFDA6",
"+.	c #F4FB7C",
"@.	c #D3F841",
"#.	c #AAF615",
"$.	c #85E10B",
"%.	c #75CB0C",
"&.	c #5BA605",
"*.	c #1E3A00",
"=.	c #57AB00",
"-.	c #61B105",
";.	c #74C80C",
">.	c #80E00B",
",.	c #99F40D",
"'.	c #C1F620",
").	c #EBF845",
"!.	c #FCFA61",
"~.	c #ECF846",
"{.	c #C2F621",
"].	c #9AF40E",
"^.	c #76CB0C",
"/.	c #5CA705",
"(.	c #4A9000",
"_.	c #5FAF03",
":.	c #76C60C",
"<.	c #7FDA0B",
"[.	c #8CF00B",
"}.	c #A2F40E",
"|.	c #C2F418",
"1.	c #DFF423",
"2.	c #E0F423",
"3.	c #C3F418",
"4.	c #A3F40E",
"5.	c #8DF10B",
"6.	c #78CB0C",
"7.	c #549904",
"8.	c #182D00",
"9.	c #315F00",
"0.	c #56A401",
"a.	c #75C20A",
"b.	c #7FD20B",
"c.	c #88E60B",
"d.	c #95F40B",
"e.	c #A4F40B",
"f.	c #B0F40C",
"g.	c #96F40B",
"h.	c #89E70B",
"i.	c #79C90A",
"j.	c #3F7601",
"k.	c #0E1A00",
"l.	c #408100",
"m.	c #67B405",
"n.	c #81CC0C",
"o.	c #85D70B",
"p.	c #8DE70B",
"q.	c #95F20B",
"r.	c #99F40B",
"s.	c #8DE80B",
"t.	c #85D80B",
"u.	c #83CE0C",
"v.	c #66B105",
"w.	c #1D3C00",
"x.	c #567634",
"y.	c #408300",
"z.	c #72BE07",
"A.	c #88D00C",
"B.	c #89D60B",
"C.	c #8CDE0B",
"D.	c #8FE40B",
"E.	c #8DDF0B",
"F.	c #89D10C",
"G.	c #74C107",
"H.	c #2B5A00",
"I.	c #404C33",
"J.	c #183A00",
"K.	c #417D00",
"L.	c #6AB305",
"M.	c #87CF0A",
"N.	c #8FD40C",
"O.	c #90D50C",
"P.	c #88D00A",
"Q.	c #6BB405",
"R.	c #2C5A00",
"S.	c #000600",
"T.	c #112700",
"U.	c #2B5600",
"V.	c #447E00",
"W.	c #5D9F03",
"X.	c #6AAD04",
"Y.	c #5D9D03",
"Z.	c #407600",
"`.	c #1B3A00",
" +	c #3F4A32",
".+	c #192B05",
"++	c #203B05",
"@+	c #254405",
"#+	c #234205",
"$+	c #1C3305",
"%+	c #142005",
"          . + @ # $ %           ",
"      & * = - ; > , ' ) !       ",
"    ~ { ] ^ / ( ( _ : < [ }     ",
"  | 1 2 3 4 5 6 7 8 4 9 0 a b   ",
"  c d e f g h i j k l f m n o   ",
"p q r s t u v w x y z A s B C D ",
"E F G H I J K L M N O P Q R S T ",
"U V W X Y Z `  ...+.@.#.$.%.&.*.",
"=.-.;.>.,.'.).!.!.~.{.].>.^./.*.",
"(._.:.<.[.}.|.1.2.3.4.5.<.6.7.8.",
"9.0.a.b.c.d.e.f.f.e.g.h.b.i.j.k.",
"  l.m.n.o.p.q.r.r.q.s.t.u.v.w.  ",
"  x.y.z.A.B.C.D.D.E.B.F.G.H.I.  ",
"    J.K.L.M.N.O.O.N.P.Q.R.S.    ",
"      T.U.V.W.X.X.Y.Z.`. +      ",
"          .+++@+#+$+%+          "};
