/* XPM */
static char * single0004_xpm[] = {
"16 16 190 2",
"  	c None",
". 	c #25252E",
"+ 	c #2E2D3A",
"@ 	c #302F3D",
"# 	c #2B2936",
"$ 	c #1F1E27",
"% 	c #121116",
"& 	c #2B2B36",
"* 	c #474658",
"= 	c #59586C",
"- 	c #727084",
"; 	c #818093",
"> 	c #817F93",
", 	c #6F6E81",
"' 	c #4C4B5B",
") 	c #1F1D28",
"! 	c #424145",
"~ 	c #3C3C4B",
"{ 	c #5B5B72",
"] 	c #78778E",
"^ 	c #9897AC",
"/ 	c #A5A3B7",
"( 	c #A9A8BB",
"_ 	c #A9A8BC",
": 	c #A6A5B9",
"< 	c #9B9AB0",
"[ 	c #79788E",
"} 	c #32303E",
"| 	c #030206",
"1 	c #333340",
"2 	c #616179",
"3 	c #797890",
"4 	c #8F8DA5",
"5 	c #9695AD",
"6 	c #A5A3BB",
"7 	c #B1AFC5",
"8 	c #B1AFC6",
"9 	c #A6A4BC",
"0 	c #9796AE",
"a 	c #908FA7",
"b 	c #7E7D95",
"c 	c #393745",
"d 	c #030205",
"e 	c #6F6E87",
"f 	c #84829E",
"g 	c #9491B0",
"h 	c #B2B0CA",
"i 	c #CFCCE1",
"j 	c #DEDCEB",
"k 	c #DEDCEC",
"l 	c #D0CEE1",
"m 	c #B4B2CC",
"n 	c #9593B1",
"o 	c #8685A0",
"p 	c #6E6D86",
"q 	c #1C1B23",
"r 	c #66657E",
"s 	c #7C7A95",
"t 	c #8D8AA7",
"u 	c #ADABC4",
"v 	c #D1CFE2",
"w 	c #EAE9F5",
"x 	c #F6F5FD",
"y 	c #F6F6FD",
"z 	c #EBEAF6",
"A 	c #D3D1E3",
"B 	c #AFADC6",
"C 	c #8E8CA8",
"D 	c #817F9C",
"E 	c #474657",
"F 	c #0B0A0E",
"G 	c #525267",
"H 	c #6C6A84",
"I 	c #83819C",
"J 	c #9593AE",
"K 	c #B7B6CE",
"L 	c #DBDAEE",
"M 	c #F5F4FD",
"N 	c #FEFEFE",
"O 	c #DDDCF0",
"P 	c #BAB8D1",
"Q 	c #9695B0",
"R 	c #86849F",
"S 	c #615F77",
"T 	c #16151C",
"U 	c #59586F",
"V 	c #6E6C85",
"W 	c #9795B2",
"X 	c #B9B8D3",
"Y 	c #DFDEF3",
"Z 	c #FAFAFC",
"` 	c #FDFDFD",
" .	c #FBFBFC",
"..	c #E2E0F5",
"+.	c #BCBAD6",
"@.	c #9997B4",
"#.	c #8684A0",
"$.	c #6A6981",
"%.	c #55546A",
"&.	c #84839D",
"*.	c #9290AE",
"=.	c #AEACCD",
"-.	c #D5D3F0",
";.	c #F6F6F9",
">.	c #FBFBFA",
",.	c #F7F7F9",
"'.	c #D7D5F1",
").	c #B0AECF",
"!.	c #9391B0",
"~.	c #6B6A81",
"{.	c #474659",
"].	c #6A6880",
"^.	c #86849E",
"/.	c #8F8EAA",
"(.	c #9F9DBF",
"_.	c #B9B6DE",
":.	c #DCD9F3",
"<.	c #F0EFF5",
"[.	c #F1F0F5",
"}.	c #DEDCF4",
"|.	c #BBB8E0",
"1.	c #A09EC0",
"2.	c #908EAB",
"3.	c #8886A0",
"4.	c #636177",
"5.	c #17171D",
"6.	c #2E2E3A",
"7.	c #5C5B71",
"8.	c #84839B",
"9.	c #8E8CA7",
"0.	c #9A98B6",
"a.	c #A9A7C9",
"b.	c #BBB8DF",
"c.	c #CAC7EC",
"d.	c #CBC8EC",
"e.	c #BCB9E1",
"f.	c #AAA8CA",
"g.	c #9A99B7",
"h.	c #8E8DA7",
"i.	c #8987A0",
"j.	c #494859",
"k.	c #0D0C10",
"l.	c #3F3E50",
"m.	c #75738B",
"n.	c #9493AD",
"o.	c #9D9CB8",
"p.	c #A7A5C4",
"q.	c #ADAACD",
"r.	c #ADABCD",
"s.	c #A7A5C5",
"t.	c #9E9CB9",
"u.	c #76758D",
"v.	c #1E1D27",
"w.	c #484850",
"x.	c #413F52",
"y.	c #828098",
"z.	c #9594AB",
"A.	c #9896AE",
"B.	c #9B9AB4",
"C.	c #9E9DB8",
"D.	c #9F9DB8",
"E.	c #9C9AB4",
"F.	c #9896AF",
"G.	c #9694AB",
"H.	c #85839C",
"I.	c #323140",
"J.	c #464549",
"K.	c #36353F",
"L.	c #413F51",
"M.	c #9695AB",
"N.	c #9C9BB1",
"O.	c #9D9CB2",
"P.	c #9D9BB1",
"Q.	c #9796AD",
"R.	c #7C7A91",
"S.	c #343341",
"T.	c #000000",
"U.	c #0F0F15",
"V.	c #2D2C38",
"W.	c #4E4C5E",
"X.	c #6B6A7E",
"Y.	c #7A788D",
"Z.	c #6C6A7E",
"`.	c #4C4A5B",
" +	c #1E1D26",
".+	c #38373B",
"++	c #1B1A22",
"@+	c #212029",
"#+	c #201E27",
"$+	c #18161D",
"          . + @ # $ %           ",
"      & * = - ; > , ' ) !       ",
"    ~ { ] ^ / ( _ : < [ } |     ",
"  1 2 3 4 5 6 7 8 9 0 a b c d   ",
"  { e f g h i j k l m n o p q   ",
"~ r s t u v w x y z A B C D E F ",
"G H I J K L M N N x O P Q R S T ",
"U V f W X Y Z ` `  ...+.@.#.$.$ ",
"%.V &.*.=.-.;.>.>.,.'.).!.R ~.$ ",
"{.].^./.(._.:.<.[.}.|.1.2.3.4.5.",
"6.7.8.9.0.a.b.c.d.e.f.g.h.i.j.k.",
"  l.m.4 n.o.p.q.r.s.t.J a u.v.  ",
"  w.x.y.z.A.B.C.D.E.F.G.H.I.J.  ",
"    K.L.[ M.N.O.O.P.Q.R.S.T.    ",
"      U.V.W.X.Y.Y.Z.`. +.+      ",
"          % ++@+#+$+k.          "};
