%FSLAX42Y42*%
%MOMM*%
G71*
G01*
G75*
%ADD10R,1.10X1.00*%
%ADD11R,1.50X1.30*%
%ADD12R,1.30X1.50*%
%ADD13R,0.76X0.76*%
%ADD14R,0.85X1.00*%
%ADD15R,3.50X4.00*%
%ADD16R,1.00X2.00*%
%ADD17O,1.00X1.80*%
%ADD18R,1.00X1.80*%
%ADD19R,0.60X1.50*%
%ADD20R,7.00X2.80*%
%ADD21R,2.50X2.70*%
%ADD22R,3.40X3.00*%
%ADD23C,0.80*%
%ADD24C,0.50*%
%ADD25C,0.30*%
%ADD26C,1.00*%
%ADD27C,0.60*%
%ADD28C,2.00*%
%ADD29C,0.25*%
%ADD30C,1.20*%
%ADD31C,0.40*%
%ADD32C,0.20*%
%ADD33R,11.00X2.50*%
%ADD34R,11.00X2.50*%
%ADD35R,2.00X0.75*%
%ADD36R,1.75X11.00*%
%ADD37R,3.25X7.50*%
%ADD38R,10.50X8.75*%
%ADD39R,1.99X5.39*%
%ADD40R,7.25X16.25*%
%ADD41R,5.00X10.00*%
%ADD42R,3.00X2.50*%
%ADD43R,5.75X2.75*%
%ADD44C,1.50*%
%ADD45C,1.20*%
%ADD46R,1.50X1.50*%
%ADD47R,1.20X1.20*%
%ADD48C,2.50*%
%ADD49R,1.30X1.30*%
%ADD50C,1.30*%
%ADD51C,2.00*%
%ADD52C,4.76*%
%ADD53R,1.69X1.69*%
%ADD54C,1.69*%
%ADD55C,1.40*%
%ADD56C,3.00*%
%ADD57C,1.60*%
%ADD58R,1.60X1.60*%
%ADD59C,3.30*%
%ADD60C,1.60*%
%ADD61R,1.60X1.60*%
%ADD62C,1.00*%
%ADD63R,15.00X5.00*%
%ADD64R,4.75X10.50*%
%ADD65R,7.50X10.75*%
%ADD66R,10.29X7.25*%
%ADD67R,13.50X10.25*%
%ADD68R,7.75X22.50*%
%ADD69C,0.25*%
%ADD70C,0.15*%
%ADD71R,1.82X0.60*%
%ADD72R,0.20X1.70*%
%ADD73R,1.70X0.30*%
%ADD74R,0.80X0.50*%
%ADD75R,1.61X0.20*%
%ADD76C,0.06*%
%ADD77R,3.00X12.00*%
%ADD78R,7.00X1.50*%
%ADD79R,2.00X2.00*%
%ADD80R,2.00X2.00*%
%ADD81R,1.70X0.40*%
%ADD82R,1.30X1.20*%
%ADD83R,1.70X1.50*%
%ADD84R,1.50X1.70*%
%ADD85R,0.96X0.96*%
%ADD86R,1.05X1.20*%
%ADD87R,3.70X4.20*%
%ADD88R,1.20X2.20*%
%ADD89O,1.20X2.00*%
%ADD90R,1.20X2.00*%
%ADD91R,0.80X1.70*%
%ADD92R,7.20X3.00*%
%ADD93R,2.70X2.90*%
%ADD94R,3.60X3.20*%
%ADD95C,1.70*%
%ADD96C,1.40*%
%ADD97R,1.70X1.70*%
%ADD98R,1.40X1.40*%
%ADD99C,2.70*%
%ADD100R,1.50X1.50*%
%ADD101C,1.50*%
%ADD102C,2.20*%
%ADD103C,4.96*%
%ADD104R,1.89X1.89*%
%ADD105C,1.89*%
%ADD106C,1.60*%
%ADD107C,3.20*%
%ADD108C,1.80*%
%ADD109R,1.80X1.80*%
%ADD110C,3.50*%
%ADD111C,1.80*%
%ADD112R,1.80X1.80*%
%ADD113C,1.20*%
%ADD114C,0.00*%
%ADD115C,0.15*%
D29*
X10300Y-9381D02*
Y-8695D01*
X0Y-9381D02*
Y-8695D01*
X5899Y-9356D02*
X10300D01*
X0D02*
X4320D01*
X10148Y-9305D02*
X10300Y-9356D01*
X10148Y-9407D02*
X10300Y-9356D01*
X0D02*
X152Y-9407D01*
X0Y-9356D02*
X152Y-9305D01*
X-1041Y0D02*
X-25D01*
X-1041Y-8670D02*
X-25D01*
X-1016Y-3649D02*
Y0D01*
Y-8670D02*
Y-5102D01*
X-1067Y-152D02*
X-1016Y0D01*
X-965Y-152D01*
X-1016Y-8670D02*
X-965Y-8518D01*
X-1067D02*
X-1016Y-8670D01*
D115*
X4360Y-9447D02*
X4411D01*
X4386D01*
Y-9295D01*
X4360Y-9320D01*
X4487D02*
X4513Y-9295D01*
X4563D01*
X4589Y-9320D01*
Y-9422D01*
X4563Y-9447D01*
X4513D01*
X4487Y-9422D01*
Y-9320D01*
X4640D02*
X4665Y-9295D01*
X4716D01*
X4741Y-9320D01*
Y-9346D01*
X4716Y-9371D01*
X4690D01*
X4716D01*
X4741Y-9396D01*
Y-9422D01*
X4716Y-9447D01*
X4665D01*
X4640Y-9422D01*
X4792Y-9447D02*
Y-9422D01*
X4817D01*
Y-9447D01*
X4792D01*
X4919Y-9320D02*
X4944Y-9295D01*
X4995D01*
X5020Y-9320D01*
Y-9422D01*
X4995Y-9447D01*
X4944D01*
X4919Y-9422D01*
Y-9320D01*
X5071D02*
X5097Y-9295D01*
X5147D01*
X5173Y-9320D01*
Y-9422D01*
X5147Y-9447D01*
X5097D01*
X5071Y-9422D01*
Y-9320D01*
X5427Y-9447D02*
X5376Y-9396D01*
Y-9346D01*
X5427Y-9295D01*
X5503Y-9447D02*
Y-9346D01*
X5528D01*
X5554Y-9371D01*
Y-9447D01*
Y-9371D01*
X5579Y-9346D01*
X5604Y-9371D01*
Y-9447D01*
X5655D02*
Y-9346D01*
X5681D01*
X5706Y-9371D01*
Y-9447D01*
Y-9371D01*
X5731Y-9346D01*
X5757Y-9371D01*
Y-9447D01*
X5808D02*
X5858Y-9396D01*
Y-9346D01*
X5808Y-9295D01*
X-1052Y-5061D02*
X-1077Y-5036D01*
Y-4985D01*
X-1052Y-4960D01*
X-1026D01*
X-1001Y-4985D01*
X-975Y-4960D01*
X-950D01*
X-925Y-4985D01*
Y-5036D01*
X-950Y-5061D01*
X-975D01*
X-1001Y-5036D01*
X-1026Y-5061D01*
X-1052D01*
X-1001Y-5036D02*
Y-4985D01*
X-1077Y-4807D02*
X-1052Y-4858D01*
X-1001Y-4909D01*
X-950D01*
X-925Y-4883D01*
Y-4833D01*
X-950Y-4807D01*
X-975D01*
X-1001Y-4833D01*
Y-4909D01*
X-925Y-4757D02*
X-950D01*
Y-4731D01*
X-925D01*
Y-4757D01*
X-1077Y-4630D02*
Y-4528D01*
X-1052D01*
X-950Y-4630D01*
X-925D01*
X-1052Y-4477D02*
X-1077Y-4452D01*
Y-4401D01*
X-1052Y-4376D01*
X-950D01*
X-925Y-4401D01*
Y-4452D01*
X-950Y-4477D01*
X-1052D01*
X-925Y-4122D02*
X-975Y-4173D01*
X-1026D01*
X-1077Y-4122D01*
X-925Y-4046D02*
X-1026D01*
Y-4020D01*
X-1001Y-3995D01*
X-925D01*
X-1001D01*
X-1026Y-3969D01*
X-1001Y-3944D01*
X-925D01*
Y-3893D02*
X-1026D01*
Y-3868D01*
X-1001Y-3842D01*
X-925D01*
X-1001D01*
X-1026Y-3817D01*
X-1001Y-3792D01*
X-925D01*
Y-3741D02*
X-975Y-3690D01*
X-1026D01*
X-1077Y-3741D01*
M02*
