METRIC,LZ
M48
T1F00S00C0.60
T2F00S00C0.80
T3F00S00C0.85
T4F00S00C0.90
T5F00S00C1.00
T6F00S00C1.09
T7F00S00C1.50
T8F00S00C2.30
T9F00S00C3.26
%
T01
X000125Y-00625
X00595Y-00695
X00625Y-0073
X0067Y-00645
X007175Y-00635
X00715Y-007075
X0069Y-0028
X006875Y-00185
X007Y-001925
X009075Y-002125
X008575Y-002725
X006375Y-002775
X0059
X005075Y-0027
X00455Y-002725
X005Y-00325
X005025Y-004025
X00545Y-0019
X002725Y-0031
X002475
X002225
X00204Y-00309
X002225Y-00335
X002475
X002725Y-00345
X0016Y-00295
X00095Y-00315
X0007
X000825Y-003475
X000575
X000725Y-0037
Y-00405
X000475
X001075Y-003475
T02
X00685Y-0011
Y-00135
X0071
Y-0011
X00745
Y-00135
X0077
Y-0011
X00805
Y-00135
X0083
Y-0011
X0086
Y-00135
X00885
Y-0011
X00915
Y-00135
X0094
Y-0011
X0097
Y-00135
X00995
Y-0011
X0065
X00625
Y-00135
X0065
X0059
X00565
Y-0011
X0059
X0046
Y-00135
X00435
Y-0011
X00405
Y-00135
X0038
Y-0011
X0032Y-00225
Y-002504
X00295Y-004046
Y-0043
X001154Y-00295
X0009
X00045Y-002846
Y-0031
T03
X009219Y-0024
X009981
T04
X008496Y-0056
X00875
X007604Y-00715
X00735
X00275Y-00265
X0024
T05
X00065Y-004392
Y-0049
X0005Y-0068
X0002
X0008
X0011
X0014
X0017
X002
X0023
X0026
X0029
X0032
X0035
X0038
X0041
X0044
X0047
X00555Y-006025
X005428Y-00495
X005174
X00492
X004666
X004412
X004158
X003904
X00365
Y-004696
X003904
X004158
X004412
X004666
X00492
X005174
X005428
X005682
Y-00495
X005936
Y-004696
X00619
Y-00495
X006444
Y-004696
X006698
Y-00495
X0062Y-0079
X00595
Y-00822
X0062
X002875Y-004725
X006952Y-004696
Y-00495
X007206
Y-004696
X00746
Y-00495
X007714
Y-004696
X007968
Y-00495
X008222
Y-004696
X008476
Y-00495
X0087Y-006496
X008954
X009208
X009462
X009716
Y-00675
X009462
X009208
X008954
X0087
X00862Y-007946
X008366
X008112
X007858
X007604
X00735
Y-0082
X007604
X007858
X008112
X008366
X00862
X008874
Y-007946
X009128
Y-0082
X009382
Y-007946
X009636
Y-0082
X007075Y-00585
X007116Y-00245
X00737
X007624
X007878
X008132
X008386
Y-002196
X008132
X007878
X007624
X00737
X007116
X006862
Y-00245
X0071Y-00165
X0074
X0077
X008
X0083
X0086
X0089
X0092
X0095
X0098
X0101
X0068
X0065
X0062
X0059
X0056
X0046
X0043
X00405
X00375
X0036Y-003
X003346
X003092
X0061Y-00245
X006354
X006608
Y-002196
X006354
X0061
X00266Y-00135
X0019
X0016Y-00125
X0013
X00095
X00065
T06
X009208Y-004627
Y-004904
X009492Y-004765
Y-004488
Y-004212
Y-003935
X009208Y-003796
Y-004073
Y-00435
T07
X0005Y-008175
X001
X0015
X002
X0025
X003
X0035
X004
X0045
X0073Y-0005
X0078
X0083
X0088
X0093
X0098
X0068
X0063
X0058
X0045
X004
X0035
X003
X0025
X002
X0015
X001
X0005
X00045Y-002
X00265
T08
X005472Y-00817
X006678
T09
X00935Y-005599
Y-0031
M30
