%FSLAX42Y42*%
%MOMM*%
G71*
G01*
G75*
%ADD10R,1.10X1.00*%
%ADD11R,1.50X1.30*%
%ADD12R,1.30X1.50*%
%ADD13R,0.76X0.76*%
%ADD14R,0.85X1.00*%
%ADD15R,3.50X4.00*%
%ADD16R,1.00X2.00*%
%ADD17O,1.00X1.80*%
%ADD18R,1.00X1.80*%
%ADD19R,0.60X1.50*%
%ADD20R,7.00X2.80*%
%ADD21R,2.50X2.70*%
%ADD22R,3.40X3.00*%
%ADD23C,0.80*%
%ADD24C,0.50*%
%ADD25C,0.30*%
%ADD26C,1.00*%
%ADD27C,0.60*%
%ADD28C,2.00*%
%ADD29C,0.25*%
%ADD30C,1.20*%
%ADD31C,0.40*%
%ADD32C,0.20*%
%ADD33R,11.00X2.50*%
%ADD34R,11.00X2.50*%
%ADD35R,2.00X0.75*%
%ADD36R,1.75X11.00*%
%ADD37R,3.25X7.50*%
%ADD38R,10.50X8.75*%
%ADD39R,1.99X5.39*%
%ADD40R,7.25X16.25*%
%ADD41R,5.00X10.00*%
%ADD42R,3.00X2.50*%
%ADD43R,5.75X2.75*%
%ADD44C,1.50*%
%ADD45C,1.20*%
%ADD46R,1.50X1.50*%
%ADD47R,1.20X1.20*%
%ADD48C,2.50*%
%ADD49R,1.30X1.30*%
%ADD50C,1.30*%
%ADD51C,2.00*%
%ADD52C,4.76*%
%ADD53R,1.69X1.69*%
%ADD54C,1.69*%
%ADD55C,1.40*%
%ADD56C,3.00*%
%ADD57C,1.60*%
%ADD58R,1.60X1.60*%
%ADD59C,3.30*%
%ADD60C,1.60*%
%ADD61R,1.60X1.60*%
%ADD62C,1.00*%
%ADD63R,15.00X5.00*%
%ADD64R,4.75X10.50*%
%ADD65R,7.50X10.75*%
%ADD66R,10.29X7.25*%
%ADD67R,13.50X10.25*%
%ADD68R,7.75X22.50*%
%ADD69C,0.25*%
%ADD70C,0.15*%
%ADD71R,1.82X0.60*%
%ADD72R,0.20X1.70*%
%ADD73R,1.70X0.30*%
%ADD74R,0.80X0.50*%
%ADD75R,1.61X0.20*%
%ADD76C,0.06*%
%ADD77R,3.00X12.00*%
%ADD78R,7.00X1.50*%
%ADD79R,2.00X2.00*%
%ADD80R,2.00X2.00*%
%ADD81R,1.70X0.40*%
%ADD82R,1.30X1.20*%
%ADD83R,1.70X1.50*%
%ADD84R,1.50X1.70*%
%ADD85R,0.96X0.96*%
%ADD86R,1.05X1.20*%
%ADD87R,3.70X4.20*%
%ADD88R,1.20X2.20*%
%ADD89O,1.20X2.00*%
%ADD90R,1.20X2.00*%
%ADD91R,0.80X1.70*%
%ADD92R,7.20X3.00*%
%ADD93R,2.70X2.90*%
%ADD94R,3.60X3.20*%
%ADD95C,1.70*%
%ADD96C,1.40*%
%ADD97R,1.70X1.70*%
%ADD98R,1.40X1.40*%
%ADD99C,2.70*%
%ADD100R,1.50X1.50*%
%ADD101C,1.50*%
%ADD102C,2.20*%
%ADD103C,4.96*%
%ADD104R,1.89X1.89*%
%ADD105C,1.89*%
%ADD106C,1.60*%
%ADD107C,3.20*%
%ADD108C,1.80*%
%ADD109R,1.80X1.80*%
%ADD110C,3.50*%
%ADD111C,1.80*%
%ADD112R,1.80X1.80*%
%ADD113C,1.20*%
%ADD114C,0.00*%
%ADD115C,0.15*%
D44*
X950Y-1250D02*
D03*
X200Y-6800D02*
D03*
X800D02*
D03*
X1400D02*
D03*
X2000D02*
D03*
X2600D02*
D03*
X3200D02*
D03*
X3800D02*
D03*
X4400D02*
D03*
X7604Y-7150D02*
D03*
X8386Y-2196D02*
D03*
Y-2450D02*
D03*
X8132Y-2196D02*
D03*
Y-2450D02*
D03*
X7878Y-2196D02*
D03*
Y-2450D02*
D03*
X7624Y-2196D02*
D03*
Y-2450D02*
D03*
X7370Y-2196D02*
D03*
Y-2450D02*
D03*
X7116Y-2196D02*
D03*
Y-2450D02*
D03*
X6862Y-2196D02*
D03*
Y-2450D02*
D03*
X6608Y-2196D02*
D03*
Y-2450D02*
D03*
X6354Y-2196D02*
D03*
Y-2450D02*
D03*
X6100Y-2196D02*
D03*
X7350Y-7946D02*
D03*
X7604Y-8200D02*
D03*
Y-7946D02*
D03*
X7858Y-8200D02*
D03*
Y-7946D02*
D03*
X8112Y-8200D02*
D03*
Y-7946D02*
D03*
X8366Y-8200D02*
D03*
Y-7946D02*
D03*
X8620Y-8200D02*
D03*
Y-7946D02*
D03*
X8874Y-8200D02*
D03*
Y-7946D02*
D03*
X9128Y-8200D02*
D03*
Y-7946D02*
D03*
X9382Y-8200D02*
D03*
Y-7946D02*
D03*
X9636Y-8200D02*
D03*
Y-7946D02*
D03*
X3650Y-4696D02*
D03*
X3904Y-4950D02*
D03*
Y-4696D02*
D03*
X4158Y-4950D02*
D03*
Y-4696D02*
D03*
X4412Y-4950D02*
D03*
Y-4696D02*
D03*
X4666Y-4950D02*
D03*
Y-4696D02*
D03*
X4920Y-4950D02*
D03*
Y-4696D02*
D03*
X5174Y-4950D02*
D03*
Y-4696D02*
D03*
X5428Y-4950D02*
D03*
Y-4696D02*
D03*
X5682Y-4950D02*
D03*
Y-4696D02*
D03*
X5936Y-4950D02*
D03*
Y-4696D02*
D03*
X6190Y-4950D02*
D03*
Y-4696D02*
D03*
X6444Y-4950D02*
D03*
Y-4696D02*
D03*
X6698Y-4950D02*
D03*
Y-4696D02*
D03*
X6952Y-4950D02*
D03*
Y-4696D02*
D03*
X7206Y-4950D02*
D03*
Y-4696D02*
D03*
X7460Y-4950D02*
D03*
Y-4696D02*
D03*
X7714Y-4950D02*
D03*
Y-4696D02*
D03*
X7968Y-4950D02*
D03*
Y-4696D02*
D03*
X8222Y-4950D02*
D03*
Y-4696D02*
D03*
X8476Y-4950D02*
D03*
Y-4696D02*
D03*
X8496Y-5600D02*
D03*
X9716Y-6496D02*
D03*
Y-6750D02*
D03*
X9462Y-6496D02*
D03*
Y-6750D02*
D03*
X9208Y-6496D02*
D03*
Y-6750D02*
D03*
X8954Y-6496D02*
D03*
Y-6750D02*
D03*
X8700Y-6496D02*
D03*
X2400Y-2650D02*
D03*
X1300Y-1250D02*
D03*
X2750Y-2650D02*
D03*
X6200Y-8220D02*
D03*
X5950D02*
D03*
Y-7900D02*
D03*
X6200D02*
D03*
X10100Y-1650D02*
D03*
X9800D02*
D03*
X9500D02*
D03*
X9200D02*
D03*
X8900D02*
D03*
X8600D02*
D03*
X8300D02*
D03*
X8000D02*
D03*
X7700D02*
D03*
X7400D02*
D03*
X7100D02*
D03*
X6800D02*
D03*
X6500D02*
D03*
X6200D02*
D03*
X5900D02*
D03*
X5600D02*
D03*
X4600D02*
D03*
X4300D02*
D03*
X4050D02*
D03*
X3750D02*
D03*
D45*
X9950Y-1350D02*
D03*
X9400D02*
D03*
X8850D02*
D03*
X8300D02*
D03*
X7700D02*
D03*
X7100D02*
D03*
X5900D02*
D03*
X4600D02*
D03*
X4050D02*
D03*
Y-1100D02*
D03*
X5900D02*
D03*
X6500D02*
D03*
X7100D02*
D03*
X7700D02*
D03*
X8300D02*
D03*
X8850D02*
D03*
X9400D02*
D03*
X9950D02*
D03*
X6500Y-1350D02*
D03*
X4600Y-1100D02*
D03*
D46*
X500Y-6800D02*
D03*
X1100D02*
D03*
X1700D02*
D03*
X2300D02*
D03*
X2900D02*
D03*
X3500D02*
D03*
X4100D02*
D03*
X4700D02*
D03*
X650Y-1250D02*
D03*
X7350Y-7150D02*
D03*
X6100Y-2450D02*
D03*
X7350Y-8200D02*
D03*
X3650Y-4950D02*
D03*
X8750Y-5600D02*
D03*
X8700Y-6750D02*
D03*
X1600Y-1250D02*
D03*
D47*
X3800Y-1350D02*
D03*
X4350D02*
D03*
X5650D02*
D03*
X6850D02*
D03*
X7450D02*
D03*
X8050D02*
D03*
X8600D02*
D03*
X9150D02*
D03*
X9700D02*
D03*
X3800Y-1100D02*
D03*
X5650D02*
D03*
X6250D02*
D03*
X6850D02*
D03*
X7450D02*
D03*
X8050D02*
D03*
X8600D02*
D03*
X9150D02*
D03*
X9700D02*
D03*
X6250Y-1350D02*
D03*
X4350Y-1100D02*
D03*
D48*
X4500Y-8175D02*
D03*
X4000D02*
D03*
X3500D02*
D03*
X3000D02*
D03*
X2500D02*
D03*
X2000D02*
D03*
X1500D02*
D03*
X1000D02*
D03*
X500D02*
D03*
X1000Y-500D02*
D03*
X1500D02*
D03*
X500D02*
D03*
X3000D02*
D03*
X2500D02*
D03*
X2000D02*
D03*
X4500D02*
D03*
X4000D02*
D03*
X3500D02*
D03*
X6800D02*
D03*
X6300D02*
D03*
X5800D02*
D03*
X8300D02*
D03*
X7800D02*
D03*
X7300D02*
D03*
X9800D02*
D03*
X9300D02*
D03*
X8800D02*
D03*
D49*
X450Y-2846D02*
D03*
X2950Y-4046D02*
D03*
X3200Y-2504D02*
D03*
X1154Y-2950D02*
D03*
D50*
X450Y-3100D02*
D03*
X2950Y-4300D02*
D03*
X3200Y-2250D02*
D03*
X900Y-2950D02*
D03*
D51*
X1900Y-1350D02*
D03*
X2660D02*
D03*
D52*
X9350Y-5599D02*
D03*
Y-3100D02*
D03*
D53*
X9208Y-3796D02*
D03*
D54*
X9492Y-3935D02*
D03*
X9208Y-4073D02*
D03*
X9492Y-4212D02*
D03*
X9208Y-4350D02*
D03*
X9492Y-4488D02*
D03*
X9208Y-4627D02*
D03*
X9492Y-4765D02*
D03*
X9208Y-4904D02*
D03*
D55*
X9981Y-2400D02*
D03*
X9219D02*
D03*
D56*
X2650Y-2000D02*
D03*
X450D02*
D03*
D57*
X3092Y-3000D02*
D03*
X3346D02*
D03*
D58*
X3600D02*
D03*
D59*
X5472Y-8170D02*
D03*
X6678D02*
D03*
D60*
X650Y-4392D02*
D03*
D61*
Y-4900D02*
D03*
M02*
