/* XPM */
static char * DBSmall_xpm[] = {
"32 32 253 2",
"  	c None",
". 	c #000000",
"+ 	c #800080",
"@ 	c #000080",
"# 	c #008080",
"$ 	c #008000",
"% 	c #808000",
"& 	c #800000",
"* 	c #C0C0C0",
"= 	c #C0DCC0",
"- 	c #A6CAF0",
"; 	c #808080",
"> 	c #FF00FF",
", 	c #0000FF",
"' 	c #00FFFF",
") 	c #00FF00",
"! 	c #FFFF00",
"~ 	c #FF0000",
"{ 	c #FFFFFF",
"] 	c #FFFBF0",
"^ 	c #A0A0A4",
"/ 	c #FFF0D4",
"( 	c #FFE2B1",
"_ 	c #FFD48E",
": 	c #FFC66B",
"< 	c #FFB848",
"[ 	c #FFAA25",
"} 	c #FFAA00",
"| 	c #DC9200",
"1 	c #B97A00",
"2 	c #966200",
"3 	c #734A00",
"4 	c #503200",
"5 	c #FFE3D4",
"6 	c #FFC7B1",
"7 	c #FFAB8E",
"8 	c #FF8F6B",
"9 	c #FF7348",
"0 	c #FF5725",
"a 	c #FF5500",
"b 	c #DC4900",
"c 	c #B93D00",
"d 	c #963100",
"e 	c #732500",
"f 	c #501900",
"g 	c #FFD4D4",
"h 	c #FFB1B1",
"i 	c #FF8E8E",
"j 	c #FF6B6B",
"k 	c #FF4848",
"l 	c #FF2525",
"m 	c #FF0000",
"n 	c #DC0000",
"o 	c #B90000",
"p 	c #960000",
"q 	c #730000",
"r 	c #500000",
"s 	c #FFD4E3",
"t 	c #FFB1C7",
"u 	c #FF8EAB",
"v 	c #FF6B8F",
"w 	c #FF4873",
"x 	c #FF2557",
"y 	c #FF0055",
"z 	c #DC0049",
"A 	c #B9003D",
"B 	c #960031",
"C 	c #730025",
"D 	c #500019",
"E 	c #FFD4F0",
"F 	c #FFB1E2",
"G 	c #FF8ED4",
"H 	c #FF6BC6",
"I 	c #FF48B8",
"J 	c #FF25AA",
"K 	c #FF00AA",
"L 	c #DC0092",
"M 	c #B9007A",
"N 	c #960062",
"O 	c #73004A",
"P 	c #500032",
"Q 	c #FFD4FF",
"R 	c #FFB1FF",
"S 	c #FF8EFF",
"T 	c #FF6BFF",
"U 	c #CA7DCA",
"V 	c #FF25FF",
"W 	c #FF00FF",
"X 	c #DC00DC",
"Y 	c #B900B9",
"Z 	c #960096",
"` 	c #730073",
" .	c #500050",
"..	c #F0D4FF",
"+.	c #E2B1FF",
"@.	c #D48EFF",
"#.	c #C66BFF",
"$.	c #B848FF",
"%.	c #A680BF",
"&.	c #AA00FF",
"*.	c #9200DC",
"=.	c #7A00B9",
"-.	c #620096",
";.	c #4A0073",
">.	c #320050",
",.	c #E3D4FF",
"'.	c #C7B1FF",
").	c #AB8EFF",
"!.	c #8F6BFF",
"~.	c #7348FF",
"{.	c #5725FF",
"].	c #5500FF",
"^.	c #4900DC",
"/.	c #3D00B9",
"(.	c #310096",
"_.	c #250073",
":.	c #190050",
"<.	c #D4D4FF",
"[.	c #B1B1FF",
"}.	c #8E8EFF",
"|.	c #6B6BFF",
"1.	c #4848FF",
"2.	c #2525FF",
"3.	c #0000FF",
"4.	c #0000DC",
"5.	c #0000B9",
"6.	c #000096",
"7.	c #000073",
"8.	c #000050",
"9.	c #D4E3FF",
"0.	c #B1C7FF",
"a.	c #8EABFF",
"b.	c #6B8FFF",
"c.	c #4873FF",
"d.	c #2557FF",
"e.	c #0055FF",
"f.	c #0049DC",
"g.	c #003DB9",
"h.	c #003196",
"i.	c #002573",
"j.	c #001950",
"k.	c #D4F0FF",
"l.	c #B1E2FF",
"m.	c #8ED4FF",
"n.	c #6BC6FF",
"o.	c #48B8FF",
"p.	c #25AAFF",
"q.	c #00AAFF",
"r.	c #0092DC",
"s.	c #007AB9",
"t.	c #006296",
"u.	c #004A73",
"v.	c #003250",
"w.	c #D4FFFF",
"x.	c #B1FFFF",
"y.	c #8EFFFF",
"z.	c #6BFFFF",
"A.	c #48FFFF",
"B.	c #25FFFF",
"C.	c #00FFFF",
"D.	c #00DCDC",
"E.	c #00B9B9",
"F.	c #009696",
"G.	c #007373",
"H.	c #005050",
"I.	c #D4FFF0",
"J.	c #B1FFE2",
"K.	c #8EFFD4",
"L.	c #6BFFC6",
"M.	c #48FFB8",
"N.	c #25FFAA",
"O.	c #00FFAA",
"P.	c #00DC92",
"Q.	c #00B97A",
"R.	c #009662",
"S.	c #00734A",
"T.	c #005032",
"U.	c #D4FFE3",
"V.	c #B1FFC7",
"W.	c #8EFFAB",
"X.	c #6BFF8F",
"Y.	c #48FF73",
"Z.	c #25FF57",
"`.	c #00FF55",
" +	c #00DC49",
".+	c #00B93D",
"++	c #009631",
"@+	c #007325",
"#+	c #005019",
"$+	c #D4FFD4",
"%+	c #B1FFB1",
"&+	c #8EFF8E",
"*+	c #6BFF6B",
"=+	c #C7E2C7",
"-+	c #25FF25",
";+	c #00FF00",
">+	c #00DC00",
",+	c #00B900",
"'+	c #009600",
")+	c #007300",
"!+	c #005000",
"~+	c #E3FFD4",
"{+	c #C7FFB1",
"]+	c #ABFF8E",
"^+	c #8FFF6B",
"/+	c #73FF48",
"(+	c #57FF25",
"_+	c #55FF00",
":+	c #49DC00",
"<+	c #3DB900",
"[+	c #319600",
"}+	c #257300",
"|+	c #195000",
"1+	c #F0FFD4",
"2+	c #E2FFB1",
"3+	c #D4FF8E",
"4+	c #C6FF6B",
"5+	c #B8FF48",
"6+	c #AAFF25",
"7+	c #AAFF00",
"8+	c #92DC00",
"9+	c #7AB900",
"0+	c #629600",
"a+	c #4A7300",
"b+	c #325000",
"c+	c #FFFFD4",
"d+	c #FFFFB1",
"e+	c #FFFF8E",
"f+	c #FFFF6B",
"g+	c #FFFF48",
"h+	c #FFFF25",
"i+	c #FFFF00",
"j+	c #DCDC00",
"k+	c #B9B900",
"l+	c #969600",
"m+	c #737300",
"n+	c #505000",
"o+	c #F2F2F2",
"p+	c #E6E6E6",
"q+	c #DADADA",
"r+	c #CECECE",
"s+	c #C2C2C2",
"t+	c #B6B6B6",
"u+	c #AAAAAA",
"v+	c #9E9E9E",
"w+	c #929292",
"x+	c #868686",
"y+	c #7A7A7A",
"z+	c #6E6E6E",
"A+	c #626262",
"B+	c #565656",
"C+	c #4A4A4A",
"D+	c #3E3E3E",
"                                                                ",
"                                                                ",
"                                                                ",
"            . . . .                                             ",
"            . . . . . .                                         ",
"            . . . . . . . .                                     ",
"            . . . ^ ^ . . . . ^ ^ ^ ^ ^ ^ ^ ^ ^                 ",
"        ^ ^ ^ ^ ^ { { { { . . . . * 0.0.0.0.0.0.; ; ; ; ;       ",
"    ^ ^ F F F F F F F F F t t . . . . =+=+=+=+=+=+=+=+=+=+; ;   ",
"  ^ +.+.+.+.+.+.+.+.+.+.+.+.+.+.+.. . . +.F F F F F F F F F F D+",
"  { ; ; =+=+=+=+=+=+=+=+=+=+0.0.* * * { { +.+.+.+.+.+.+.+.D+D+D+",
"  { F +.; ; ; ; ; 0.0.0.0.0.* * * * * * * { { { B+B+B+B+B+; ; D+",
"  { F +.=+0.* * * ; ; ; ; ; ; ; ; ; ; ; ; ; ; ; ; ^ ; ^ ; ; ; D+",
"  ; ; ; =+0.* * * ^ * ^ * ^ * ^ * ^ * ^ * ^ * ; ^ ; ^ ; ; D+D+D+",
"  { F +.; ; ; ; ; * ^ * ^ * ^ * ^ * ^ * ^ * ; ^ B+B+B+B+B+; ; D+",
"  { F +.=+0.* * * ; ; ; ; ; ; ; ; ; ; ; ; ; ; ; ^ ; ^ ; ; ; ; D+",
"  ; ; ; =+0.* * * * ^ * ^ * ^ * ^ * ^ * ^ * ; ^ ; ^ ; ^ ; D+D+D+",
"  { F +.; ; ; ; ; ^ * ^ * ^ * ^ * ^ * ^ * ^ * ; B+B+B+B+B+; ; D+",
"  { F +.=+0.* * * ; ; ; ; ; ; ; ; ; ; ; ; ; ; ; ; ^ ; ^ ; ; ; D+",
"  ; ; ; =+0.* * * ^ * ^ * ^ * ^ * ^ * ^ * ^ * ; ^ ; ^ ; ; D+D+D+",
"  { F +.; ; ; ; ; * ^ * ^ * ^ * ^ * ^ * ^ * * ^ B+B+B+B+B+; ; D+",
"  { F +.=+0.* * * ; ; ; ; ; ; ; ; ; ; ; ; ; ; ; ^ ; ^ ; ; ; ; D+",
"  B+B+B+=+0.* * * * ^ * ^ * ^ * ^ * ^ * ^ * ; ^ ; ^ ; ^ ; D+D+D+",
"    ; ; B+B+B+B+B+^ * ^ * ^ * ^ * ^ * ^ * ^ * ; B+B+B+B+B+; ; ; ",
"        ; ; ; ; ; B+B+B+B+B+B+B+B+B+B+B+B+B+B+B+; ; ; ; ; ; ;   ",
"            ; ; ; ; ; ; ; ; ; ; ; ; ; ; ; ; ; ; ; ; ; ; ;       ",
"                  ; ; ; ; ; ; ; ; ; ; ; ; ; ; ; ; ; ;           ",
"                                                                ",
"                                                                ",
"                                                                ",
"                                                                ",
"                                                                "};
