%FSLAX42Y42*%
%MOMM*%
G71*
G01*
G75*
%ADD10C,0.20*%
%ADD11C,0.30*%
%ADD12R,1.00X0.85*%
%ADD13R,1.50X1.30*%
%ADD14R,1.00X1.10*%
%ADD15R,1.30X1.50*%
%ADD16R,1.10X1.00*%
%ADD17R,1.50X5.50*%
%ADD18R,1.80X1.60*%
%ADD19R,1.60X1.80*%
%ADD20R,0.30X1.60*%
%ADD21R,1.60X0.30*%
%ADD22R,1.80X0.60*%
%ADD23R,1.80X2.15*%
%ADD24R,0.60X2.20*%
%ADD25R,0.60X1.55*%
%ADD26R,1.90X1.30*%
%ADD27R,0.60X1.80*%
%ADD28C,0.25*%
%ADD29C,0.50*%
%ADD30C,0.40*%
%ADD31C,1.00*%
%ADD32C,1.50*%
%ADD33R,1.50X1.50*%
%ADD34C,1.60*%
%ADD35C,1.10*%
%ADD36C,0.60*%
%ADD37C,1.00*%
%ADD38C,1.20*%
%ADD39R,1.90X1.00*%
%ADD40R,1.50X1.00*%
%ADD41R,1.90X0.70*%
%ADD42R,2.80X1.50*%
%ADD43C,0.25*%
%ADD44C,0.13*%
%ADD45R,2.80X0.65*%
%ADD46R,1.20X1.05*%
%ADD47R,1.70X1.50*%
%ADD48R,1.20X1.30*%
%ADD49R,1.50X1.70*%
%ADD50R,1.30X1.20*%
%ADD51R,1.70X5.70*%
%ADD52R,2.00X1.80*%
%ADD53R,1.80X2.00*%
%ADD54R,0.50X1.80*%
%ADD55R,1.80X0.50*%
%ADD56R,2.00X0.80*%
%ADD57R,2.00X2.35*%
%ADD58R,0.80X2.40*%
%ADD59R,0.80X1.75*%
%ADD60R,2.10X1.50*%
%ADD61R,0.80X2.00*%
%ADD62C,1.70*%
%ADD63R,1.70X1.70*%
%ADD64C,1.80*%
%ADD65C,1.30*%
%ADD66C,0.80*%
%ADD67C,1.20*%
%ADD68C,1.40*%
D46*
X7425Y-1525D02*
D03*
X7185Y-1430D02*
D03*
X7425Y-1335D02*
D03*
X1055Y-2425D02*
D03*
X1295Y-2330D02*
D03*
Y-2520D02*
D03*
D47*
X7900Y-1515D02*
D03*
X8150Y-3385D02*
D03*
Y-3575D02*
D03*
X8425Y-3385D02*
D03*
Y-3575D02*
D03*
X8700Y-3385D02*
D03*
Y-3575D02*
D03*
X8975Y-3385D02*
D03*
Y-3575D02*
D03*
X6425Y-2210D02*
D03*
Y-2400D02*
D03*
Y-1915D02*
D03*
Y-1725D02*
D03*
X7875Y-3385D02*
D03*
Y-3575D02*
D03*
X7900Y-1325D02*
D03*
X9725Y-1340D02*
D03*
Y-1150D02*
D03*
X10000Y-1340D02*
D03*
Y-1150D02*
D03*
X10775Y-1835D02*
D03*
Y-2025D02*
D03*
X10550Y-1160D02*
D03*
Y-1350D02*
D03*
X10275Y-1340D02*
D03*
Y-1150D02*
D03*
D48*
X7650Y-1520D02*
D03*
X5650Y-1980D02*
D03*
Y-2150D02*
D03*
X3050Y-1200D02*
D03*
Y-1370D02*
D03*
X6750Y-1500D02*
D03*
Y-1330D02*
D03*
X8250Y-1625D02*
D03*
Y-1795D02*
D03*
X5650Y-1525D02*
D03*
Y-1695D02*
D03*
X3300Y-1200D02*
D03*
Y-1370D02*
D03*
X6975Y-1500D02*
D03*
Y-1330D02*
D03*
X7650Y-1350D02*
D03*
X825Y-1875D02*
D03*
Y-1705D02*
D03*
X850Y-850D02*
D03*
Y-1020D02*
D03*
X8900Y-1350D02*
D03*
Y-1520D02*
D03*
D49*
X1985Y-3600D02*
D03*
X2175D02*
D03*
X1410D02*
D03*
X1600D02*
D03*
X2285Y-3350D02*
D03*
X2475D02*
D03*
X1410Y-3325D02*
D03*
X1600D02*
D03*
X5415Y-1525D02*
D03*
X5225D02*
D03*
X8160Y-1350D02*
D03*
X8350D02*
D03*
X1165Y-3600D02*
D03*
X975D02*
D03*
X1265Y-2075D02*
D03*
X1075D02*
D03*
X10585Y-1575D02*
D03*
X10775D02*
D03*
X940Y-3025D02*
D03*
X750D02*
D03*
X940Y-2775D02*
D03*
X750D02*
D03*
X10165Y-2825D02*
D03*
X9975D02*
D03*
X1075Y-1825D02*
D03*
X1265D02*
D03*
D50*
X2725Y-3025D02*
D03*
X2895D02*
D03*
X2750Y-2400D02*
D03*
X2920D02*
D03*
X6350Y-1325D02*
D03*
X6520D02*
D03*
X1750Y-3100D02*
D03*
X1920D02*
D03*
X350Y-3350D02*
D03*
X180D02*
D03*
D51*
X6025Y-1600D02*
D03*
Y-2500D02*
D03*
D52*
X2800Y-1355D02*
D03*
Y-1075D02*
D03*
D53*
X7170Y-1775D02*
D03*
X7450D02*
D03*
X8005D02*
D03*
X7725D02*
D03*
X3380Y-900D02*
D03*
X3100D02*
D03*
X1155Y-3325D02*
D03*
X875D02*
D03*
D54*
X4715Y-1490D02*
D03*
X4665D02*
D03*
X4615D02*
D03*
X4565D02*
D03*
X4515D02*
D03*
X4465D02*
D03*
X4415D02*
D03*
X4365D02*
D03*
X4315D02*
D03*
X4265D02*
D03*
X4215D02*
D03*
X4165D02*
D03*
X4115D02*
D03*
X4065D02*
D03*
X4015D02*
D03*
X3965D02*
D03*
X3915D02*
D03*
X3865D02*
D03*
X3815D02*
D03*
X3765D02*
D03*
X3715D02*
D03*
X3665D02*
D03*
X3615D02*
D03*
X3565D02*
D03*
X3515D02*
D03*
X4715Y-3010D02*
D03*
X4665D02*
D03*
X4615D02*
D03*
X4565D02*
D03*
X4515D02*
D03*
X4465D02*
D03*
X4415D02*
D03*
X4365D02*
D03*
X4315D02*
D03*
X4265D02*
D03*
X4215D02*
D03*
X4165D02*
D03*
X4115D02*
D03*
X4065D02*
D03*
X4015D02*
D03*
X3965D02*
D03*
X3915D02*
D03*
X3865D02*
D03*
X3815D02*
D03*
X3765D02*
D03*
X3715D02*
D03*
X3665D02*
D03*
X3615D02*
D03*
X3565D02*
D03*
X3515D02*
D03*
D55*
X4875Y-2850D02*
D03*
Y-2800D02*
D03*
Y-2750D02*
D03*
Y-2700D02*
D03*
Y-2650D02*
D03*
Y-2600D02*
D03*
Y-2550D02*
D03*
Y-2500D02*
D03*
Y-2450D02*
D03*
Y-2400D02*
D03*
Y-2350D02*
D03*
Y-2300D02*
D03*
Y-2250D02*
D03*
Y-2200D02*
D03*
Y-2150D02*
D03*
Y-2100D02*
D03*
Y-2050D02*
D03*
Y-2000D02*
D03*
Y-1950D02*
D03*
Y-1900D02*
D03*
Y-1850D02*
D03*
Y-1800D02*
D03*
Y-1750D02*
D03*
Y-1700D02*
D03*
Y-1650D02*
D03*
X3355Y-2850D02*
D03*
Y-2800D02*
D03*
Y-2750D02*
D03*
Y-2700D02*
D03*
Y-2650D02*
D03*
Y-2600D02*
D03*
Y-2550D02*
D03*
Y-2500D02*
D03*
Y-2450D02*
D03*
Y-2400D02*
D03*
Y-2350D02*
D03*
Y-2300D02*
D03*
Y-2250D02*
D03*
Y-2200D02*
D03*
Y-2150D02*
D03*
Y-2100D02*
D03*
Y-2050D02*
D03*
Y-2000D02*
D03*
Y-1950D02*
D03*
Y-1900D02*
D03*
Y-1850D02*
D03*
Y-1800D02*
D03*
Y-1750D02*
D03*
Y-1700D02*
D03*
Y-1650D02*
D03*
D56*
X2135Y-2900D02*
D03*
Y-2773D02*
D03*
Y-2646D02*
D03*
Y-2519D02*
D03*
X1575Y-2900D02*
D03*
Y-2773D02*
D03*
Y-2646D02*
D03*
Y-2519D02*
D03*
D57*
X1625Y-2175D02*
D03*
Y-1825D02*
D03*
X10775Y-2375D02*
D03*
Y-2725D02*
D03*
X8625Y-1575D02*
D03*
Y-1225D02*
D03*
D58*
X10369Y-1690D02*
D03*
X10243D02*
D03*
X10115D02*
D03*
X9989D02*
D03*
X9861D02*
D03*
X9735D02*
D03*
X9607D02*
D03*
X9481D02*
D03*
X10369Y-2210D02*
D03*
X10243D02*
D03*
X10115D02*
D03*
X9989D02*
D03*
X9861D02*
D03*
X9735D02*
D03*
X9607D02*
D03*
X9481D02*
D03*
D59*
X550Y-1515D02*
D03*
X423D02*
D03*
X296D02*
D03*
X169D02*
D03*
X550Y-2100D02*
D03*
X423D02*
D03*
X296D02*
D03*
X169D02*
D03*
X1075Y-1235D02*
D03*
X1202D02*
D03*
X1329D02*
D03*
X1456D02*
D03*
X1075Y-650D02*
D03*
X1202D02*
D03*
X1329D02*
D03*
X1456D02*
D03*
D60*
X230Y-675D02*
D03*
Y-1225D02*
D03*
X550Y-675D02*
D03*
Y-1225D02*
D03*
D61*
Y-2515D02*
D03*
X423D02*
D03*
X296D02*
D03*
X169D02*
D03*
X550Y-3075D02*
D03*
X423D02*
D03*
X296D02*
D03*
X169D02*
D03*
D62*
X2050Y-3325D02*
D03*
X10206Y-300D02*
D03*
X9952D02*
D03*
X9698D02*
D03*
X9444D02*
D03*
X9190D02*
D03*
X8936D02*
D03*
X8682D02*
D03*
X8428D02*
D03*
X8174D02*
D03*
X7920D02*
D03*
X7666D02*
D03*
X7412D02*
D03*
X7158D02*
D03*
X6904D02*
D03*
X6650D02*
D03*
X6396D02*
D03*
X6142D02*
D03*
X5888D02*
D03*
X5634D02*
D03*
X5380D02*
D03*
X5126D02*
D03*
X4872D02*
D03*
X4618D02*
D03*
X4364D02*
D03*
X4110D02*
D03*
X3856D02*
D03*
X3602D02*
D03*
X3348D02*
D03*
X3094D02*
D03*
X2840D02*
D03*
X2586D02*
D03*
X2332D02*
D03*
X2078D02*
D03*
X1824D02*
D03*
X1570D02*
D03*
X1316D02*
D03*
X1062D02*
D03*
X808D02*
D03*
X554D02*
D03*
X600Y-3346D02*
D03*
X554Y-3900D02*
D03*
X808D02*
D03*
X1062D02*
D03*
X1316D02*
D03*
X1570D02*
D03*
X1824D02*
D03*
X2078D02*
D03*
X2332D02*
D03*
X2586D02*
D03*
X2840D02*
D03*
X3094D02*
D03*
X3348D02*
D03*
X3602D02*
D03*
X3856D02*
D03*
X4110D02*
D03*
X4364D02*
D03*
X4618D02*
D03*
X4872D02*
D03*
X5126D02*
D03*
X5380D02*
D03*
X5634D02*
D03*
X5888D02*
D03*
X6142D02*
D03*
X6396D02*
D03*
X6650D02*
D03*
X6904D02*
D03*
X7158D02*
D03*
X7412D02*
D03*
X7666D02*
D03*
X7920D02*
D03*
X8174D02*
D03*
X8428D02*
D03*
X8682D02*
D03*
X8936D02*
D03*
X9190D02*
D03*
X9444D02*
D03*
X9698D02*
D03*
X9952D02*
D03*
X10206D02*
D03*
X7284Y-2604D02*
D03*
Y-2350D02*
D03*
X7538Y-2604D02*
D03*
Y-2350D02*
D03*
X7792Y-2604D02*
D03*
Y-2350D02*
D03*
X8046Y-2604D02*
D03*
Y-2350D02*
D03*
X8300Y-2604D02*
D03*
X2800Y-875D02*
D03*
X2950Y-1525D02*
D03*
X8475Y-1800D02*
D03*
X10800Y-3050D02*
D03*
X8400Y-1175D02*
D03*
D63*
X2050Y-1265D02*
D03*
X300Y-300D02*
D03*
X600Y-3600D02*
D03*
X300Y-3900D02*
D03*
X8300Y-2350D02*
D03*
D64*
X9455Y-3050D02*
D03*
D65*
Y-950D02*
D03*
D66*
X3900Y-975D02*
D03*
X3925Y-850D02*
D03*
X1456Y-1394D02*
D03*
X8825Y-2275D02*
D03*
X8750Y-2375D02*
D03*
X3975Y-3350D02*
D03*
X3875Y-3375D02*
D03*
X7200Y-3425D02*
D03*
X7350Y-3500D02*
D03*
X7450Y-3575D02*
D03*
X7550Y-3650D02*
D03*
X1225Y-2975D02*
D03*
X4300Y-3550D02*
D03*
X4415Y-3540D02*
D03*
X4525Y-3525D02*
D03*
X4575Y-3450D02*
D03*
X4600Y-3350D02*
D03*
X4675Y-3275D02*
D03*
X5625Y-3075D02*
D03*
X4950D02*
D03*
X3900Y-2750D02*
D03*
X4215Y-2735D02*
D03*
X3950Y-2525D02*
D03*
X3625Y-2450D02*
D03*
X4525D02*
D03*
Y-2150D02*
D03*
X5400Y-2475D02*
D03*
Y-2375D02*
D03*
X5500Y-1725D02*
D03*
X5550Y-2075D02*
D03*
X2373Y-2773D02*
D03*
X2540Y-2280D02*
D03*
X9325Y-2600D02*
D03*
X9025Y-2175D02*
D03*
X8525Y-2700D02*
D03*
X8525Y-2600D02*
D03*
D67*
X10475Y-725D02*
D03*
X3925Y-1900D02*
D03*
X825Y-675D02*
D03*
X4325Y-2150D02*
D03*
X9400Y-2875D02*
D03*
X10125Y-2575D02*
D03*
X9525Y-1300D02*
D03*
X10275Y-1000D02*
D03*
X10475Y-575D02*
D03*
X8000Y-1950D02*
D03*
X8125Y-1550D02*
D03*
X7550Y-1650D02*
D03*
X1400Y-1575D02*
D03*
X225Y-1775D02*
D03*
X1900Y-2275D02*
D03*
X3850Y-2125D02*
D03*
X800Y-1225D02*
D03*
X450Y-2850D02*
D03*
X3950Y-2250D02*
D03*
X4600Y-1875D02*
D03*
X4325Y-1950D02*
D03*
X3675Y-2750D02*
D03*
X3850Y-1775D02*
D03*
X4275D02*
D03*
X1825Y-2975D02*
D03*
X800Y-2550D02*
D03*
X175Y-2300D02*
D03*
D68*
X10400Y-3200D02*
D03*
X10425Y-2850D02*
D03*
M02*
