METRIC,LZ
M48
T1F00S00C0.30
T2F00S00C0.50
T3F00S00C0.60
T4F00S00C0.80
T5F00S00C0.85
T6F00S00C0.90
T7F00S00C1.00
T8F00S00C1.10
T9F00S00C1.60
%
T01
X001456Y-001394
X001225Y-002975
X002373Y-002773
X00254Y-00228
X003625Y-00245
X00395Y-002525
X0039Y-00275
X004215Y-002735
X004525Y-00245
Y-00215
X0054Y-002375
Y-002475
X00555Y-002075
X0055Y-001725
X005625Y-003075
X00495
X004675Y-003275
X0046Y-00335
X004575Y-00345
X004525Y-003525
X004415Y-00354
X0043Y-00355
X003975Y-00335
X003875Y-003375
X0039Y-000975
X003925Y-00085
X0072Y-003425
X00735Y-0035
X00745Y-003575
X00755Y-00365
X008525Y-0027
X008525Y-0026
X00875Y-002375
X008825Y-002275
X009025Y-002175
X009325Y-0026
T02
X000825Y-000675
X0008Y-001225
X0014Y-001575
X0019Y-002275
X001825Y-002975
X0008Y-00255
X00045Y-00285
X000175Y-0023
X000225Y-001775
X00385
X003925Y-0019
X00385Y-002125
X00395Y-00225
X004325Y-00215
Y-00195
X004275Y-001775
X0046Y-001875
X003675Y-00275
X00755Y-00165
X008125Y-00155
X008Y-00195
X009525Y-0013
X010275Y-001
X010475Y-000725
Y-000575
X010125Y-002575
X0094Y-002875
T03
X010425Y-00285
X0104Y-0032
T04
X0028Y-000875
X00295Y-001525
X008475Y-0018
T05
X006904Y-0039
X007158
X007412
X007666
X00792
X008174
X008428
X008682
X008936
X00919
X009444
X009698
X009952
X010206
X00665
X006396
X006142
X005888
X005634
X00538
X005126
X004872
X004618
X004364
X00411
X003856
X003602
X003348
X003094
X00284
X002586
X002332
X002078
X001824
X00157
X001316
X001062
X000808
X000554
X0003
Y-0003
X000554
X000808
X001062
X001316
X00157
X001824
X002078
X002332
X002586
X00284
X003094
X003348
X003602
X003856
X00411
X004364
X004618
X004872
X005126
X00538
X005634
X005888
X006142
X006396
X00665
X006904
X007158
X007412
X007666
X00792
X008174
X008428
X008682
X008936
X00919
X009444
X009698
X009952
X010206
T06
X00205Y-001265
Y-003325
X0006Y-003346
Y-0036
X007284Y-002604
Y-00235
X007538
Y-002604
X007792
Y-00235
X008046
Y-002604
X0083
Y-00235
T07
X0084Y-001175
X0108Y-00305
T08
X009455Y-00095
T09
X009455Y-00305
M30
