%FSLAX42Y42*%
%MOMM*%
G71*
G01*
G75*
%ADD10C,0.20*%
%ADD11C,0.30*%
%ADD12R,1.00X0.85*%
%ADD13R,1.50X1.30*%
%ADD14R,1.00X1.10*%
%ADD15R,1.30X1.50*%
%ADD16R,1.10X1.00*%
%ADD17R,1.50X5.50*%
%ADD18R,1.80X1.60*%
%ADD19R,1.60X1.80*%
%ADD20R,0.30X1.60*%
%ADD21R,1.60X0.30*%
%ADD22R,1.80X0.60*%
%ADD23R,1.80X2.15*%
%ADD24R,0.60X2.20*%
%ADD25R,0.60X1.55*%
%ADD26R,1.90X1.30*%
%ADD27R,0.60X1.80*%
%ADD28C,0.25*%
%ADD29C,0.50*%
%ADD30C,0.40*%
%ADD31C,1.00*%
%ADD32C,1.50*%
%ADD33R,1.50X1.50*%
%ADD34C,1.60*%
%ADD35C,1.10*%
%ADD36C,0.60*%
%ADD37C,1.00*%
%ADD38C,1.20*%
%ADD39R,1.90X1.00*%
%ADD40R,1.50X1.00*%
%ADD41R,1.90X0.70*%
%ADD42R,2.80X1.50*%
%ADD43C,0.25*%
%ADD44C,0.13*%
%ADD45R,2.80X0.65*%
%ADD46R,1.20X1.05*%
%ADD47R,1.70X1.50*%
%ADD48R,1.20X1.30*%
%ADD49R,1.50X1.70*%
%ADD50R,1.30X1.20*%
%ADD51R,1.70X5.70*%
%ADD52R,2.00X1.80*%
%ADD53R,1.80X2.00*%
%ADD54R,0.50X1.80*%
%ADD55R,1.80X0.50*%
%ADD56R,2.00X0.80*%
%ADD57R,2.00X2.35*%
%ADD58R,0.80X2.40*%
%ADD59R,0.80X1.75*%
%ADD60R,2.10X1.50*%
%ADD61R,0.80X2.00*%
%ADD62C,1.70*%
%ADD63R,1.70X1.70*%
%ADD64C,1.80*%
%ADD65C,1.30*%
%ADD66C,0.80*%
%ADD67C,1.20*%
%ADD68C,1.40*%
%ADD69R,2.10X1.20*%
%ADD70R,1.70X1.20*%
%ADD71R,2.10X0.90*%
%ADD72R,3.00X1.70*%
%ADD73C,0.15*%
D14*
X4100Y-2005D02*
D03*
Y-2175D02*
D03*
X4075Y-2595D02*
D03*
Y-2425D02*
D03*
D16*
X4495Y-2600D02*
D03*
X4325D02*
D03*
X4495Y-2275D02*
D03*
X4325D02*
D03*
X3630Y-2350D02*
D03*
X3800D02*
D03*
X3795Y-2600D02*
D03*
X3625D02*
D03*
D32*
X2050Y-3325D02*
D03*
X10206Y-300D02*
D03*
X9952D02*
D03*
X9698D02*
D03*
X9444D02*
D03*
X9190D02*
D03*
X8936D02*
D03*
X8682D02*
D03*
X8428D02*
D03*
X8174D02*
D03*
X7920D02*
D03*
X7666D02*
D03*
X7412D02*
D03*
X7158D02*
D03*
X6904D02*
D03*
X6650D02*
D03*
X6396D02*
D03*
X6142D02*
D03*
X5888D02*
D03*
X5634D02*
D03*
X5380D02*
D03*
X5126D02*
D03*
X4872D02*
D03*
X4618D02*
D03*
X4364D02*
D03*
X4110D02*
D03*
X3856D02*
D03*
X3602D02*
D03*
X3348D02*
D03*
X3094D02*
D03*
X2840D02*
D03*
X2586D02*
D03*
X2332D02*
D03*
X2078D02*
D03*
X1824D02*
D03*
X1570D02*
D03*
X1316D02*
D03*
X1062D02*
D03*
X808D02*
D03*
X554D02*
D03*
X600Y-3346D02*
D03*
X554Y-3900D02*
D03*
X808D02*
D03*
X1062D02*
D03*
X1316D02*
D03*
X1570D02*
D03*
X1824D02*
D03*
X2078D02*
D03*
X2332D02*
D03*
X2586D02*
D03*
X2840D02*
D03*
X3094D02*
D03*
X3348D02*
D03*
X3602D02*
D03*
X3856D02*
D03*
X4110D02*
D03*
X4364D02*
D03*
X4618D02*
D03*
X4872D02*
D03*
X5126D02*
D03*
X5380D02*
D03*
X5634D02*
D03*
X5888D02*
D03*
X6142D02*
D03*
X6396D02*
D03*
X6650D02*
D03*
X6904D02*
D03*
X7158D02*
D03*
X7412D02*
D03*
X7666D02*
D03*
X7920D02*
D03*
X8174D02*
D03*
X8428D02*
D03*
X8682D02*
D03*
X8936D02*
D03*
X9190D02*
D03*
X9444D02*
D03*
X9698D02*
D03*
X9952D02*
D03*
X10206D02*
D03*
X7284Y-2604D02*
D03*
Y-2350D02*
D03*
X7538Y-2604D02*
D03*
Y-2350D02*
D03*
X7792Y-2604D02*
D03*
Y-2350D02*
D03*
X8046Y-2604D02*
D03*
Y-2350D02*
D03*
X8300Y-2604D02*
D03*
D33*
X2050Y-1265D02*
D03*
X300Y-300D02*
D03*
X600Y-3600D02*
D03*
X300Y-3900D02*
D03*
X8300Y-2350D02*
D03*
D34*
X9455Y-3050D02*
D03*
D35*
Y-950D02*
D03*
D39*
X9175Y-2800D02*
D03*
Y-2550D02*
D03*
Y-2300D02*
D03*
Y-1810D02*
D03*
Y-1550D02*
D03*
Y-1307D02*
D03*
Y-1138D02*
D03*
Y-3050D02*
D03*
D40*
Y-2060D02*
D03*
D41*
Y-1007D02*
D03*
Y-888D02*
D03*
D42*
X9355Y-740D02*
D03*
Y-3240D02*
D03*
X10805Y-3460D02*
D03*
Y-740D02*
D03*
M02*
