/* XPM */
static char*beacon[]={
"22 22 9 1",
"d c #a0a0a0",
"e c #00ff00",
". c #000000",
"f c #ffff00",
"b c #c0ffff",
"a c #585858",
"# c #ffffff",
"g c #ff0000",
"c c #00c0c0",
".#####################",
".abbbbbbbbbbbbbbbbbbb#",
".accccccccccccccccccb#",
".accccccccccccccccccb#",
".accccc.......dcccccb#",
".accccc.eeeee.dcccccb#",
".accccc.eeeee.dcccccb#",
".accccc.eeeee.dcccccb#",
".accccc.......dcccccb#",
".accccc.fffff.dcccccb#",
".accccc.fffff.dcccccb#",
".accccc.fffff.dcccccb#",
".accccc.......dcccccb#",
".accccc.ggggg.dcccccb#",
".accccc.ggggg.dcccccb#",
".accccc.ggggg.dcccccb#",
".accccc.......dcccccb#",
".accccc.......dcccccb#",
".acccccddddddddcccccb#",
".accccccccccccccccccb#",
".aaaaaaaaaaaaaaaaaaab#",
".....................#"};
