/* XPM */
static char*computer[]={
"22 22 11 1",
"d c #a0a0a0",
"h c #c3c3c3",
"b c #000080",
"g c #00ff00",
"a c #00ffff",
". c #000000",
"e c #585858",
"f c #dcdcdc",
"# c #ffffff",
"i c #ff0000",
"c c #00c0c0",
"......................",
"#abbbbbbbbbbbbbbbbbbb.",
"#accccccccccccccccccb.",
"#acccddddddddddeccccb.",
"#accfffffffffffeecccb.",
"#accfgggggggggfeecccb.",
"#accfgggggggggfeecccb.",
"#accfgggggggggfeecccb.",
"#accfgggggggggfeecccb.",
"#accfgggggggggfeecccb.",
"#accfgggggggggfeecccb.",
"#accfgggggggggfeccccb.",
"#accfffffffffffeccccb.",
"#acccccc....#cccccccb.",
"#accddddddddddddddccb.",
"#acddddddddddddddeccb.",
"#ach#ii###.....#eeccb.",
"#ach#ii#########eeccb.",
"#achhhhhhhhhhhhhecccb.",
"#accccccccccccccccccb.",
"#aaaaaaaaaaaaaaaaaaab.",
"######################"};
