/* XPM */
static char*dp[]={
"22 22 6 1",
"d c #808080",
"# c #a0a0a0",
"b c #000080",
"a c #000000",
"c c #585858",
". c #ffffff",
"......................",
".####################a",
".#bbbbbbbbbbbbbbbbbbca",
".#bbbbbbbbbbbbbbbbbbca",
".#bbb..dbbbbbb..dbbbca",
".#bbb..dbbbbbb..dbbbca",
".#bbbccdbbbbbb..dbbbca",
".#bbbccdbbbbbb..dbbbca",
".#bbbccdbbbbbb..dbbbca",
".#bbbccdbbbbbb..dbbbca",
".#bbbccdbbbbbbccdbbbca",
".#bbbccdbbbbbbccdbbbca",
".#bbbccdbbbbbbccdbbbca",
".#bbbccdbbbbbbccdbbbca",
".#bbbccdbbbbbbccdbbbca",
".#bbbccdbbbbbbccdbbbca",
".#bbbcccccccccccdbbbca",
".#bbbcccccccccccdbbbca",
".#bbbbbbbbbbbbbbbbbbca",
".#bbbbbbbbbbbbbbbbbbca",
".#ccccccccccccccccccca",
".aaaaaaaaaaaaaaaaaaaaa"};
