/* XPM */
static char*laser[]={
"22 22 6 1",
"c c #a0a0a0",
"a c #c3c3c3",
"# c #000000",
"b c #303030",
". c #ffffff",
"d c #ff0000",
".....................#",
".aaaaaaaaaaaaaaaaaaab#",
".accccccccccccccccccb#",
".accccccccccccccccccb#",
".accccccccccccccccccb#",
".accccccccccccdcccdcb#",
".accccccccccccdccdccb#",
".accccccccccccdcdcccb#",
".accccccccccccccccccb#",
".acddddddddddddccdccb#",
".acddddddddddddccdccb#",
".accccccccccccccccccb#",
".accccccccccccdcdcccb#",
".accccccccccccdccdccb#",
".accccccccccccdcccdcb#",
".accccccccccccdcccccb#",
".accccccccccccccccccb#",
".accccccccccccccccccb#",
".accccccccccccccccccb#",
".accccccccccccccccccb#",
".abbbbbbbbbbbbbbbbbbb#",
".#####################"};
