/* XPM */
static char*link[]={
"22 22 11 1",
"a c #008000",
"d c #c3c3c3",
"c c #00ff00",
"h c #00ffff",
"b c #000000",
"# c #c0ffc0",
"g c #800000",
"i c #008080",
"e c #00c000",
". c #ffffff",
"f c #ff0000",
"......................",
".###################ab",
".#ccccccccdcccccccceab",
".#cccccccc.dccccccceab",
".#cccddddd..ddddddceab",
".#ccc............dceab",
".#ccc.dccc..cccc.dceab",
".#ccc.dccc.ccccc.dceab",
".#cfffffgccccccc.dceab",
".#cfffffgccccccc.dceab",
".#cfffffgccccchhhhieab",
".#cfffffgccccchhhhieab",
".#cfffffgccccchhhhieab",
".#cfffffgccccchhhhieab",
".#cggggggccccchhhhieab",
".#cccccccccccchhhhieab",
".#cccccccccccciiiiieab",
".#ccccccccccccccccceab",
".#ccccccccccccccccceab",
".#eeeeeeeeeeeeeeeeeeab",
".#aaaaaaaaaaaaaaaaaaab",
".bbbbbbbbbbbbbbbbbbbbb"};
