/* XPM */
static char*machine[]={
"32 32 6 1",
"a c #808080",
"# c #a0a0a0",
"c c #c3c3c3",
". c None",
"b c #303030",
"d c #585858",
"................................",
"................................",
"................................",
"..................#aaaa.........",
"..................#bbaaa........",
"..................#bbbaaa.......",
"..................#bbbacc#......",
"..................#bbbacc#......",
"..................#bbbacc#......",
"..................#bbbacc#......",
"..................#bbbacc#......",
"..dddddddddddddddddbbbacc#d.....",
"..cdddddddddddddddddbbacc#dd....",
"..ccdddddddddddddddddbacc#ddd...",
"..cccdddddddddddddddddacc#dddd..",
"..ccc#########################..",
"..ccc#########################..",
"..ccc#########################..",
"..ccc#########################..",
"..ccc#########################..",
"..ccc#########################..",
"..ccc#########################..",
"..ccc#########################..",
"..ccc#########################..",
"..ccc#########################..",
"..ccc#########################..",
"..ccc#########################..",
"...cc#########################..",
"....c#########################..",
".....#########################..",
"................................",
"................................"};
