/* XPM */
static char*manifold[]={
"22 22 7 1",
"b c #808080",
"d c #c3c3c3",
"e c #000000",
". c #303030",
"# c #585858",
"c c #dcdcdc",
"a c #ffffff",
"......................",
".####################a",
".#bbbbbbbbbbbbbbbbbbca",
".#bbbbbbb#####bbbbbbca",
".#bbbbbbbdeedd#bbbbbca",
".#bbbbbbddeeddd#bbbbca",
".#bbbbbeeddddeed#bbbca",
".#bbbbdeeddddeedd#bbca",
".#bbbddddcccccdddd#bca",
".#bbbdeedcaaccdeed#bca",
".#bbbdeedcaaccdeed#bca",
".#bbbddddcccccdddd#bca",
".#bbbddeedddddeedd#bca",
".#bbbbdeedddddeed#bbca",
".#bbbbbdddeedddd#bbbca",
".#bbbbbbddeeddd#bbbbca",
".#bbbbbbbddddd#bbbbbca",
".#bbbbbbb#####bbbbbbca",
".#bbbbbbbbbbbbbbbbbbca",
".#bbbbbbbbbbbbbbbbbbca",
".cccccccccccccccccccca",
"aaaaaaaaaaaaaaaaaaaaaa"};
