%FSLAX42Y42*%
%MOMM*%
G71*
G01*
G75*
%ADD10C,0.20*%
%ADD11R,1.50X1.30*%
%ADD12R,0.30X1.45*%
%ADD13R,1.30X1.50*%
%ADD14C,1.00*%
%ADD15R,1.55X0.60*%
%ADD16R,1.80X1.60*%
%ADD17R,0.85X1.00*%
%ADD18R,1.80X0.60*%
%ADD19R,5.50X1.50*%
%ADD20R,1.45X0.30*%
%ADD21R,0.60X2.00*%
%ADD22R,3.00X3.00*%
%ADD23R,1.00X1.10*%
%ADD24R,0.60X2.20*%
%ADD25R,1.10X1.00*%
%ADD26R,1.80X2.15*%
%ADD27R,2.15X1.80*%
%ADD28R,0.60X2.25*%
%ADD29C,1.00*%
%ADD30C,0.25*%
%ADD31C,0.40*%
%ADD32C,0.50*%
%ADD33C,0.30*%
%ADD34C,0.25*%
%ADD35R,1.50X1.50*%
%ADD36C,1.50*%
%ADD37R,1.60X1.60*%
%ADD38C,1.60*%
%ADD39C,1.20*%
%ADD40C,4.76*%
%ADD41R,1.69X1.69*%
%ADD42C,1.69*%
%ADD43C,0.60*%
%ADD44R,2.80X0.65*%
%ADD45R,0.65X2.80*%
%ADD46R,1.70X1.50*%
%ADD47R,0.50X1.65*%
%ADD48R,1.50X1.70*%
%ADD49C,1.20*%
%ADD50R,1.75X0.80*%
%ADD51R,2.00X1.80*%
%ADD52R,1.05X1.20*%
%ADD53R,2.00X0.80*%
%ADD54R,5.70X1.70*%
%ADD55R,1.65X0.50*%
%ADD56R,0.80X2.20*%
%ADD57R,3.20X3.20*%
%ADD58R,1.20X1.30*%
%ADD59R,0.80X2.40*%
%ADD60R,1.30X1.20*%
%ADD61R,2.00X2.35*%
%ADD62R,2.35X2.00*%
%ADD63R,0.80X2.45*%
%ADD64R,1.70X1.70*%
%ADD65C,1.70*%
%ADD66R,1.80X1.80*%
%ADD67C,1.80*%
%ADD68C,1.40*%
%ADD69C,4.96*%
%ADD70R,1.89X1.89*%
%ADD71C,1.89*%
%ADD72C,0.80*%
%ADD73C,0.00*%
%ADD74C,0.15*%
D23*
X4267Y-1897D02*
D03*
Y-1727D02*
D03*
X4470Y-1897D02*
D03*
Y-1727D02*
D03*
X4674Y-1897D02*
D03*
Y-1727D02*
D03*
D35*
X5182Y-1067D02*
D03*
X1930Y-3454D02*
D03*
X7671Y-2642D02*
D03*
X8230Y-1676D02*
D03*
D36*
X5436Y-1067D02*
D03*
X1930Y-3708D02*
D03*
X2184D02*
D03*
X2438D02*
D03*
X2692D02*
D03*
X2946D02*
D03*
X3200Y-3454D02*
D03*
Y-3708D02*
D03*
X3454Y-3454D02*
D03*
Y-3708D02*
D03*
X3708Y-3454D02*
D03*
Y-3708D02*
D03*
X3962Y-3454D02*
D03*
Y-3708D02*
D03*
X4216Y-3454D02*
D03*
Y-3708D02*
D03*
X4470Y-3454D02*
D03*
Y-3708D02*
D03*
X4724Y-3454D02*
D03*
Y-3708D02*
D03*
X4978Y-3454D02*
D03*
Y-3708D02*
D03*
X5232Y-3454D02*
D03*
Y-3708D02*
D03*
X5486Y-3454D02*
D03*
Y-3708D02*
D03*
X5740Y-3454D02*
D03*
Y-3708D02*
D03*
X5994Y-3454D02*
D03*
Y-3708D02*
D03*
X6248Y-3454D02*
D03*
Y-3708D02*
D03*
X6502Y-3454D02*
D03*
Y-3708D02*
D03*
X6756Y-3454D02*
D03*
Y-3708D02*
D03*
X2184Y-3454D02*
D03*
X2438D02*
D03*
X2692D02*
D03*
X2946D02*
D03*
X7925Y-2642D02*
D03*
X8484Y-1676D02*
D03*
X8230Y-1422D02*
D03*
X8484D02*
D03*
X8230Y-1168D02*
D03*
X8484D02*
D03*
X8230Y-914D02*
D03*
X8484D02*
D03*
X8230Y-660D02*
D03*
X8484D02*
D03*
D37*
X6655Y-328D02*
D03*
X5283Y-559D02*
D03*
D38*
X6655Y-2388D02*
D03*
X5537Y-559D02*
D03*
D39*
Y-305D02*
D03*
X5283D02*
D03*
D40*
X976Y-838D02*
D03*
Y-3337D02*
D03*
D41*
X1118Y-2642D02*
D03*
D42*
X834Y-2503D02*
D03*
X1118Y-2365D02*
D03*
X834Y-2226D02*
D03*
X1118Y-2088D02*
D03*
X834Y-1949D02*
D03*
X1118Y-1811D02*
D03*
X834Y-1672D02*
D03*
X1118Y-1534D02*
D03*
M02*
