%FSLAX42Y42*%
%MOMM*%
G71*
G01*
G75*
%ADD10C,0.20*%
%ADD11R,1.50X1.30*%
%ADD12R,0.30X1.45*%
%ADD13R,1.30X1.50*%
%ADD14C,1.00*%
%ADD15R,1.55X0.60*%
%ADD16R,1.80X1.60*%
%ADD17R,0.85X1.00*%
%ADD18R,1.80X0.60*%
%ADD19R,5.50X1.50*%
%ADD20R,1.45X0.30*%
%ADD21R,0.60X2.00*%
%ADD22R,3.00X3.00*%
%ADD23R,1.00X1.10*%
%ADD24R,0.60X2.20*%
%ADD25R,1.10X1.00*%
%ADD26R,1.80X2.15*%
%ADD27R,2.15X1.80*%
%ADD28R,0.60X2.25*%
%ADD29C,1.00*%
%ADD30C,0.25*%
%ADD31C,0.40*%
%ADD32C,0.50*%
%ADD33C,0.30*%
%ADD34C,0.25*%
%ADD35R,1.50X1.50*%
%ADD36C,1.50*%
%ADD37R,1.60X1.60*%
%ADD38C,1.60*%
%ADD39C,1.20*%
%ADD40C,4.76*%
%ADD41R,1.69X1.69*%
%ADD42C,1.69*%
%ADD43C,0.60*%
%ADD44R,2.80X0.65*%
%ADD45R,0.65X2.80*%
%ADD46R,1.70X1.50*%
%ADD47R,0.50X1.65*%
%ADD48R,1.50X1.70*%
%ADD49C,1.20*%
%ADD50R,1.75X0.80*%
%ADD51R,2.00X1.80*%
%ADD52R,1.05X1.20*%
%ADD53R,2.00X0.80*%
%ADD54R,5.70X1.70*%
%ADD55R,1.65X0.50*%
%ADD56R,0.80X2.20*%
%ADD57R,3.20X3.20*%
%ADD58R,1.20X1.30*%
%ADD59R,0.80X2.40*%
%ADD60R,1.30X1.20*%
%ADD61R,2.00X2.35*%
%ADD62R,2.35X2.00*%
%ADD63R,0.80X2.45*%
%ADD64R,1.70X1.70*%
%ADD65C,1.70*%
%ADD66R,1.80X1.80*%
%ADD67C,1.80*%
%ADD68C,1.40*%
%ADD69C,4.96*%
%ADD70R,1.89X1.89*%
%ADD71C,1.89*%
%ADD72C,0.80*%
%ADD73C,0.00*%
%ADD74C,0.15*%
D34*
X8800Y-4911D02*
Y-4225D01*
X0Y-4911D02*
Y-4225D01*
X5086Y-4886D02*
X8800D01*
X0D02*
X3633D01*
X8648Y-4835D02*
X8800Y-4886D01*
X8648Y-4937D02*
X8800Y-4886D01*
X0D02*
X152Y-4937D01*
X0Y-4886D02*
X152Y-4835D01*
X-1041Y0D02*
X-25D01*
X-1041Y-4200D02*
X-25D01*
X-1016Y-1414D02*
Y0D01*
Y-4200D02*
Y-2867D01*
X-1067Y-152D02*
X-1016Y0D01*
X-965Y-152D01*
X-1016Y-4200D02*
X-965Y-4048D01*
X-1067D02*
X-1016Y-4200D01*
D74*
X3674Y-4850D02*
X3699Y-4825D01*
X3750D01*
X3775Y-4850D01*
Y-4876D01*
X3750Y-4901D01*
X3775Y-4926D01*
Y-4952D01*
X3750Y-4977D01*
X3699D01*
X3674Y-4952D01*
Y-4926D01*
X3699Y-4901D01*
X3674Y-4876D01*
Y-4850D01*
X3699Y-4901D02*
X3750D01*
X3826Y-4850D02*
X3852Y-4825D01*
X3902D01*
X3928Y-4850D01*
Y-4876D01*
X3902Y-4901D01*
X3928Y-4926D01*
Y-4952D01*
X3902Y-4977D01*
X3852D01*
X3826Y-4952D01*
Y-4926D01*
X3852Y-4901D01*
X3826Y-4876D01*
Y-4850D01*
X3852Y-4901D02*
X3902D01*
X3978Y-4977D02*
Y-4952D01*
X4004D01*
Y-4977D01*
X3978D01*
X4105Y-4850D02*
X4131Y-4825D01*
X4182D01*
X4207Y-4850D01*
Y-4952D01*
X4182Y-4977D01*
X4131D01*
X4105Y-4952D01*
Y-4850D01*
X4258D02*
X4283Y-4825D01*
X4334D01*
X4359Y-4850D01*
Y-4952D01*
X4334Y-4977D01*
X4283D01*
X4258Y-4952D01*
Y-4850D01*
X4613Y-4977D02*
X4562Y-4926D01*
Y-4876D01*
X4613Y-4825D01*
X4689Y-4977D02*
Y-4876D01*
X4715D01*
X4740Y-4901D01*
Y-4977D01*
Y-4901D01*
X4766Y-4876D01*
X4791Y-4901D01*
Y-4977D01*
X4842D02*
Y-4876D01*
X4867D01*
X4893Y-4901D01*
Y-4977D01*
Y-4901D01*
X4918Y-4876D01*
X4943Y-4901D01*
Y-4977D01*
X4994D02*
X5045Y-4926D01*
Y-4876D01*
X4994Y-4825D01*
X-925Y-2750D02*
X-1077D01*
X-1001Y-2826D01*
Y-2725D01*
X-925Y-2572D02*
Y-2674D01*
X-1026Y-2572D01*
X-1052D01*
X-1077Y-2598D01*
Y-2648D01*
X-1052Y-2674D01*
X-925Y-2522D02*
X-950D01*
Y-2496D01*
X-925D01*
Y-2522D01*
X-1052Y-2395D02*
X-1077Y-2369D01*
Y-2318D01*
X-1052Y-2293D01*
X-950D01*
X-925Y-2318D01*
Y-2369D01*
X-950Y-2395D01*
X-1052D01*
Y-2242D02*
X-1077Y-2217D01*
Y-2166D01*
X-1052Y-2141D01*
X-950D01*
X-925Y-2166D01*
Y-2217D01*
X-950Y-2242D01*
X-1052D01*
X-925Y-1887D02*
X-975Y-1938D01*
X-1026D01*
X-1077Y-1887D01*
X-925Y-1811D02*
X-1026D01*
Y-1785D01*
X-1001Y-1760D01*
X-925D01*
X-1001D01*
X-1026Y-1734D01*
X-1001Y-1709D01*
X-925D01*
Y-1658D02*
X-1026D01*
Y-1633D01*
X-1001Y-1607D01*
X-925D01*
X-1001D01*
X-1026Y-1582D01*
X-1001Y-1557D01*
X-925D01*
Y-1506D02*
X-975Y-1455D01*
X-1026D01*
X-1077Y-1506D01*
M02*
