METRIC,LZ
M48
T1F00S00C0.30
T2F00S00C0.60
T3F00S00C0.90
T4F00S00C1.00
T5F00S00C1.09
T6F00S00C3.26
T7F00S00C1.20
%
T01
X00165Y-00225
X001775
X00245Y-002275
X00255Y-002875
X002325Y-003025
X0021Y-002925
X00185Y-003
X00135Y-00305
Y-003475
X001325Y-003675
X0029Y-0024
X003175Y-002286
Y-002083
Y-00188
X0041Y-001875
Y-002025
Y-002175
X004275
X004375
X004625
X004674Y-001601
X004267Y-001608
X0044Y-001175
Y-001075
X0042Y-0011
X004615Y-00115
X00515Y-001475
X005325Y-001325
X0057Y-0014
X0058
X00565Y-001475
X005675Y-001875
X005466Y-001834
X005525Y-0022
Y-002325
Y-00245
Y-002575
Y-002725
X005475Y-002975
X005175Y-00285
X005163Y-002613
X004725Y-003
X00463Y-00305
X004425Y-00295
X004265Y-00284
X004175Y-002925
X004125Y-003
X00405Y-003075
X00395Y-003225
X003775Y-0028
X00355Y-003
X0048Y-003225
X005994Y-003075
X006Y-002475
X006825Y-001325
Y-001175
X005575Y-00085
X005447Y-000853
X0038Y-001325
X007025Y-001225
X007Y-002125
X00715
X007125Y-002525
X0074Y-002825
X0078Y-002775
X008075Y-002925
X007925Y-0033
X00795Y-002125
T02
X0039Y-00405
X0041Y-0039
X001575Y-0038
X001867Y-002453
X002812Y-000462
X0026Y-00025
X003075Y-000275
X0042Y-000225
X004975Y-001275
X0057Y-00165
X004525Y-0021
X00385Y-002575
X00322Y-00281
X00295Y-0026
X00417Y-00325
X007925Y-003475
X008575Y-0034
X00845Y-00225
X00741Y-00198
X006925Y-0004
T03
X005182Y-001067
X005436
X007671Y-002642
X007925
T04
X00193Y-003454
Y-003708
X002184
X002438
X002692
Y-003454
X002438
X002184
X002946
Y-003708
X0032
Y-003454
X003454
Y-003708
X003708
Y-003454
X003962
Y-003708
X004216
Y-003454
X00447
Y-003708
X004724
Y-003454
X004978
Y-003708
X005232
Y-003454
X005486
Y-003708
X00574
Y-003454
X005994
Y-003708
X006248
Y-003454
X006502
Y-003708
X006756
Y-003454
X006655Y-002388
Y-000328
X005537Y-000559
X005283
X00823Y-00066
Y-000914
Y-001168
Y-001422
Y-001676
X008484
Y-001422
Y-001168
Y-000914
Y-00066
T05
X000834Y-001672
Y-001949
Y-002226
Y-002503
X001118Y-002642
Y-002365
Y-002088
Y-001811
Y-001534
T06
X000976Y-000838
Y-003337
T07
X005283Y-000305
X005537
M30
