%FSLAX42Y42*%
%MOMM*%
G71*
G01*
G75*
%ADD10C,0.20*%
%ADD11R,1.50X1.30*%
%ADD12R,0.30X1.45*%
%ADD13R,1.30X1.50*%
%ADD14C,1.00*%
%ADD15R,1.55X0.60*%
%ADD16R,1.80X1.60*%
%ADD17R,0.85X1.00*%
%ADD18R,1.80X0.60*%
%ADD19R,5.50X1.50*%
%ADD20R,1.45X0.30*%
%ADD21R,0.60X2.00*%
%ADD22R,3.00X3.00*%
%ADD23R,1.00X1.10*%
%ADD24R,0.60X2.20*%
%ADD25R,1.10X1.00*%
%ADD26R,1.80X2.15*%
%ADD27R,2.15X1.80*%
%ADD28R,0.60X2.25*%
%ADD29C,1.00*%
%ADD30C,0.25*%
%ADD31C,0.40*%
%ADD32C,0.50*%
%ADD33C,0.30*%
%ADD34C,0.25*%
%ADD35R,1.50X1.50*%
%ADD36C,1.50*%
%ADD37R,1.60X1.60*%
%ADD38C,1.60*%
%ADD39C,1.20*%
%ADD40C,4.76*%
%ADD41R,1.69X1.69*%
%ADD42C,1.69*%
%ADD43C,0.60*%
%ADD44R,2.80X0.65*%
%ADD45R,0.65X2.80*%
%ADD46R,1.70X1.50*%
%ADD47R,0.50X1.65*%
%ADD48R,1.50X1.70*%
%ADD49C,1.20*%
%ADD50R,1.75X0.80*%
%ADD51R,2.00X1.80*%
%ADD52R,1.05X1.20*%
%ADD53R,2.00X0.80*%
%ADD54R,5.70X1.70*%
%ADD55R,1.65X0.50*%
%ADD56R,0.80X2.20*%
%ADD57R,3.20X3.20*%
%ADD58R,1.20X1.30*%
%ADD59R,0.80X2.40*%
%ADD60R,1.30X1.20*%
%ADD61R,2.00X2.35*%
%ADD62R,2.35X2.00*%
%ADD63R,0.80X2.45*%
%ADD64R,1.70X1.70*%
%ADD65C,1.70*%
%ADD66R,1.80X1.80*%
%ADD67C,1.80*%
%ADD68C,1.40*%
%ADD69C,4.96*%
%ADD70R,1.89X1.89*%
%ADD71C,1.89*%
%ADD72C,0.80*%
D46*
X5842Y-762D02*
D03*
Y-572D02*
D03*
X7417Y-406D02*
D03*
Y-216D02*
D03*
X3250Y-3010D02*
D03*
Y-3200D02*
D03*
X3000Y-3010D02*
D03*
Y-3200D02*
D03*
X1344Y-663D02*
D03*
Y-473D02*
D03*
X7417Y-623D02*
D03*
Y-813D02*
D03*
X1575Y-470D02*
D03*
Y-660D02*
D03*
X1903Y-663D02*
D03*
Y-473D02*
D03*
X2411Y-663D02*
D03*
Y-473D02*
D03*
X2157Y-663D02*
D03*
Y-473D02*
D03*
X7417Y-1257D02*
D03*
Y-1067D02*
D03*
X3251Y-1104D02*
D03*
Y-914D02*
D03*
D47*
X4465Y-1397D02*
D03*
X4765D02*
D03*
X4715D02*
D03*
X4665D02*
D03*
X4615D02*
D03*
X4565D02*
D03*
X4515D02*
D03*
X4415D02*
D03*
X4365D02*
D03*
X4315D02*
D03*
X4265D02*
D03*
X4215D02*
D03*
X4165D02*
D03*
X4115D02*
D03*
X4065D02*
D03*
X4015D02*
D03*
X4765Y-2522D02*
D03*
X4715D02*
D03*
X4665D02*
D03*
X4615D02*
D03*
X4565D02*
D03*
X4515D02*
D03*
X4465D02*
D03*
X4415D02*
D03*
X4365D02*
D03*
X4315D02*
D03*
X4265D02*
D03*
X4215D02*
D03*
X4165D02*
D03*
X4115D02*
D03*
X4065D02*
D03*
X4015D02*
D03*
D48*
X5893Y-305D02*
D03*
X6083D02*
D03*
X8230Y-3404D02*
D03*
X8420D02*
D03*
X8534Y-2692D02*
D03*
X1219Y-3861D02*
D03*
X1409D02*
D03*
X813D02*
D03*
X1003D02*
D03*
X370Y-3050D02*
D03*
X560D02*
D03*
X1524Y-2997D02*
D03*
X1714D02*
D03*
X370Y-3300D02*
D03*
X560D02*
D03*
X1524Y-3251D02*
D03*
X1714D02*
D03*
X2045Y-2286D02*
D03*
X2235D02*
D03*
X7980Y-1930D02*
D03*
X7790D02*
D03*
X2909Y-1626D02*
D03*
X3099D02*
D03*
X7786Y-660D02*
D03*
X7976D02*
D03*
X7786Y-914D02*
D03*
X7976D02*
D03*
X7786Y-1168D02*
D03*
X7976D02*
D03*
X7786Y-1422D02*
D03*
X7976D02*
D03*
X7786Y-1676D02*
D03*
X7976D02*
D03*
X4000Y-356D02*
D03*
X3810D02*
D03*
X4534D02*
D03*
X4724D02*
D03*
X8344Y-2692D02*
D03*
X3086Y-1372D02*
D03*
X2896D02*
D03*
D49*
X7620Y-406D02*
D03*
X4975Y-1275D02*
D03*
X4525Y-2100D02*
D03*
X4170Y-3250D02*
D03*
X2950Y-2600D02*
D03*
X1575Y-3800D02*
D03*
X3220Y-2810D02*
D03*
X4100Y-3900D02*
D03*
X7925Y-3475D02*
D03*
X8575Y-3400D02*
D03*
X3850Y-2575D02*
D03*
X3900Y-4050D02*
D03*
X4200Y-225D02*
D03*
X3075Y-275D02*
D03*
X2812Y-462D02*
D03*
X2600Y-250D02*
D03*
X8450Y-2250D02*
D03*
X6925Y-400D02*
D03*
X5700Y-1650D02*
D03*
X7410Y-1980D02*
D03*
X1867Y-2453D02*
D03*
D50*
X7118Y-765D02*
D03*
X6533Y-638D02*
D03*
Y-765D02*
D03*
Y-892D02*
D03*
Y-1019D02*
D03*
X7118Y-638D02*
D03*
Y-892D02*
D03*
Y-1019D02*
D03*
D51*
X6706Y-2692D02*
D03*
Y-2972D02*
D03*
X2642Y-2057D02*
D03*
Y-2337D02*
D03*
Y-1804D02*
D03*
Y-1524D02*
D03*
D52*
X8528Y-2928D02*
D03*
X8338D02*
D03*
X8433Y-3168D02*
D03*
D53*
X7774Y-3048D02*
D03*
X6558Y-1603D02*
D03*
Y-1730D02*
D03*
Y-1857D02*
D03*
Y-1984D02*
D03*
X7118Y-1603D02*
D03*
Y-1730D02*
D03*
Y-1857D02*
D03*
Y-1984D02*
D03*
X7774Y-3302D02*
D03*
Y-3175D02*
D03*
Y-2921D02*
D03*
X7214Y-3302D02*
D03*
Y-3175D02*
D03*
Y-3048D02*
D03*
Y-2921D02*
D03*
D54*
X3810Y-711D02*
D03*
X4710D02*
D03*
D55*
X3827Y-1784D02*
D03*
Y-1684D02*
D03*
Y-1834D02*
D03*
Y-1734D02*
D03*
X4952Y-2334D02*
D03*
Y-2284D02*
D03*
Y-2234D02*
D03*
Y-2184D02*
D03*
Y-2134D02*
D03*
Y-2084D02*
D03*
Y-2034D02*
D03*
Y-1984D02*
D03*
Y-1934D02*
D03*
Y-1884D02*
D03*
Y-1834D02*
D03*
Y-1784D02*
D03*
Y-1734D02*
D03*
Y-1684D02*
D03*
Y-1634D02*
D03*
Y-1584D02*
D03*
X3827Y-2334D02*
D03*
Y-2284D02*
D03*
Y-2234D02*
D03*
Y-2184D02*
D03*
Y-2134D02*
D03*
Y-2084D02*
D03*
Y-2034D02*
D03*
Y-1984D02*
D03*
Y-1934D02*
D03*
Y-1884D02*
D03*
Y-1634D02*
D03*
Y-1584D02*
D03*
D56*
X6226Y-864D02*
D03*
X6096D02*
D03*
D57*
X6161Y-1964D02*
D03*
D58*
X1676Y-3675D02*
D03*
Y-3505D02*
D03*
X7422Y-1654D02*
D03*
Y-1824D02*
D03*
X3048Y-508D02*
D03*
Y-678D02*
D03*
X3251Y-508D02*
D03*
Y-678D02*
D03*
X4386Y-3057D02*
D03*
Y-3227D02*
D03*
X3861Y-3200D02*
D03*
Y-3030D02*
D03*
D59*
X2007Y-3209D02*
D03*
X2134D02*
D03*
X2261D02*
D03*
X2388D02*
D03*
X2515D02*
D03*
X2642D02*
D03*
X2769D02*
D03*
X2007Y-2684D02*
D03*
X2134D02*
D03*
X2261D02*
D03*
X2388D02*
D03*
X2515D02*
D03*
X2642D02*
D03*
X2769D02*
D03*
D60*
X7417Y-3658D02*
D03*
X7587D02*
D03*
X2896Y-2083D02*
D03*
X3066D02*
D03*
X2896Y-1880D02*
D03*
X3066D02*
D03*
X7091Y-229D02*
D03*
X6921D02*
D03*
X5537Y-1626D02*
D03*
X5367D02*
D03*
X2642Y-914D02*
D03*
X2812D02*
D03*
X2642Y-711D02*
D03*
X2812D02*
D03*
X2896Y-2286D02*
D03*
X3066D02*
D03*
X3505Y-1321D02*
D03*
X3675D02*
D03*
D61*
X457Y-2410D02*
D03*
Y-2060D02*
D03*
D62*
X7953Y-3658D02*
D03*
X8303D02*
D03*
D63*
X2273Y-1066D02*
D03*
X2146D02*
D03*
X2019D02*
D03*
X1892D02*
D03*
X1765D02*
D03*
X1638D02*
D03*
X1511D02*
D03*
X1384D02*
D03*
X2273Y-1982D02*
D03*
X2146D02*
D03*
X2019D02*
D03*
X1892D02*
D03*
X1765D02*
D03*
X1638D02*
D03*
X1511D02*
D03*
X1384D02*
D03*
D64*
X5182Y-1067D02*
D03*
X1930Y-3454D02*
D03*
X7671Y-2642D02*
D03*
X8230Y-1676D02*
D03*
D65*
X5436Y-1067D02*
D03*
X1930Y-3708D02*
D03*
X2184D02*
D03*
X2438D02*
D03*
X2692D02*
D03*
X2946D02*
D03*
X3200Y-3454D02*
D03*
Y-3708D02*
D03*
X3454Y-3454D02*
D03*
Y-3708D02*
D03*
X3708Y-3454D02*
D03*
Y-3708D02*
D03*
X3962Y-3454D02*
D03*
Y-3708D02*
D03*
X4216Y-3454D02*
D03*
Y-3708D02*
D03*
X4470Y-3454D02*
D03*
Y-3708D02*
D03*
X4724Y-3454D02*
D03*
Y-3708D02*
D03*
X4978Y-3454D02*
D03*
Y-3708D02*
D03*
X5232Y-3454D02*
D03*
Y-3708D02*
D03*
X5486Y-3454D02*
D03*
Y-3708D02*
D03*
X5740Y-3454D02*
D03*
Y-3708D02*
D03*
X5994Y-3454D02*
D03*
Y-3708D02*
D03*
X6248Y-3454D02*
D03*
Y-3708D02*
D03*
X6502Y-3454D02*
D03*
Y-3708D02*
D03*
X6756Y-3454D02*
D03*
Y-3708D02*
D03*
X2184Y-3454D02*
D03*
X2438D02*
D03*
X2692D02*
D03*
X2946D02*
D03*
X7925Y-2642D02*
D03*
X8484Y-1676D02*
D03*
X8230Y-1422D02*
D03*
X8484D02*
D03*
X8230Y-1168D02*
D03*
X8484D02*
D03*
X8230Y-914D02*
D03*
X8484D02*
D03*
X8230Y-660D02*
D03*
X8484D02*
D03*
D66*
X6655Y-328D02*
D03*
X5283Y-559D02*
D03*
D67*
X6655Y-2388D02*
D03*
X5537Y-559D02*
D03*
D68*
Y-305D02*
D03*
X5283D02*
D03*
D69*
X976Y-838D02*
D03*
Y-3337D02*
D03*
D70*
X1118Y-2642D02*
D03*
D71*
X834Y-2503D02*
D03*
X1118Y-2365D02*
D03*
X834Y-2226D02*
D03*
X1118Y-2088D02*
D03*
X834Y-1949D02*
D03*
X1118Y-1811D02*
D03*
X834Y-1672D02*
D03*
X1118Y-1534D02*
D03*
D72*
X6825Y-1175D02*
D03*
X4615Y-1150D02*
D03*
X5447Y-853D02*
D03*
X8075Y-2925D02*
D03*
X7800Y-2775D02*
D03*
X5575Y-850D02*
D03*
X4630Y-3050D02*
D03*
X4725Y-3000D02*
D03*
X4175Y-2925D02*
D03*
X4125Y-3000D02*
D03*
X4050Y-3075D02*
D03*
X4265Y-2840D02*
D03*
X4800Y-3225D02*
D03*
X4425Y-2950D02*
D03*
X3800Y-1325D02*
D03*
X5163Y-2613D02*
D03*
X5475Y-2975D02*
D03*
X5994Y-3075D02*
D03*
X5175Y-2850D02*
D03*
X5525Y-2450D02*
D03*
X1350Y-3475D02*
D03*
Y-3050D02*
D03*
X2550Y-2875D02*
D03*
X2100Y-2925D02*
D03*
X1850Y-3000D02*
D03*
X1325Y-3675D02*
D03*
X2325Y-3025D02*
D03*
X2900Y-2400D02*
D03*
X3550Y-3000D02*
D03*
X4100Y-1875D02*
D03*
X3175Y-2083D02*
D03*
X4100Y-2025D02*
D03*
X3175Y-2286D02*
D03*
X4100Y-2175D02*
D03*
X4267Y-1608D02*
D03*
X4674Y-1601D02*
D03*
X2450Y-2275D02*
D03*
X6825Y-1325D02*
D03*
X7025Y-1225D02*
D03*
X7150Y-2125D02*
D03*
X7000D02*
D03*
X3175Y-1880D02*
D03*
X3950Y-3225D02*
D03*
X4625Y-2175D02*
D03*
X1650Y-2250D02*
D03*
X4275Y-2175D02*
D03*
X4375D02*
D03*
X1775Y-2250D02*
D03*
X3775Y-2800D02*
D03*
X5466Y-1834D02*
D03*
X5150Y-1475D02*
D03*
X5675Y-1875D02*
D03*
X5650Y-1475D02*
D03*
X5325Y-1325D02*
D03*
X5700Y-1400D02*
D03*
X5800D02*
D03*
X4200Y-1100D02*
D03*
X4400Y-1075D02*
D03*
Y-1175D02*
D03*
X7925Y-3300D02*
D03*
X5525Y-2575D02*
D03*
Y-2725D02*
D03*
Y-2325D02*
D03*
X6000Y-2475D02*
D03*
X7400Y-2825D02*
D03*
X5525Y-2200D02*
D03*
X7125Y-2525D02*
D03*
X7950Y-2125D02*
D03*
M02*
