%FSLAX42Y42*%
%MOMM*%
G71*
G01*
G75*
%ADD10C,0.20*%
%ADD11R,1.50X1.30*%
%ADD12R,0.30X1.45*%
%ADD13R,1.30X1.50*%
%ADD14C,1.00*%
%ADD15R,1.55X0.60*%
%ADD16R,1.80X1.60*%
%ADD17R,0.85X1.00*%
%ADD18R,1.80X0.60*%
%ADD19R,5.50X1.50*%
%ADD20R,1.45X0.30*%
%ADD21R,0.60X2.00*%
%ADD22R,3.00X3.00*%
%ADD23R,1.00X1.10*%
%ADD24R,0.60X2.20*%
%ADD25R,1.10X1.00*%
%ADD26R,1.80X2.15*%
%ADD27R,2.15X1.80*%
%ADD28R,0.60X2.25*%
%ADD29C,1.00*%
%ADD30C,0.25*%
%ADD31C,0.40*%
%ADD32C,0.50*%
%ADD33C,0.30*%
%ADD34C,0.25*%
%ADD35R,1.50X1.50*%
%ADD36C,1.50*%
%ADD37R,1.60X1.60*%
%ADD38C,1.60*%
%ADD39C,1.20*%
%ADD40C,4.76*%
%ADD41R,1.69X1.69*%
%ADD42C,1.69*%
%ADD43C,0.60*%
%ADD44R,2.80X0.65*%
%ADD45R,0.65X2.80*%
D11*
X5842Y-762D02*
D03*
Y-572D02*
D03*
X7417Y-406D02*
D03*
Y-216D02*
D03*
X3250Y-3010D02*
D03*
Y-3200D02*
D03*
X3000Y-3010D02*
D03*
Y-3200D02*
D03*
X1344Y-663D02*
D03*
Y-473D02*
D03*
X7417Y-623D02*
D03*
Y-813D02*
D03*
X1575Y-470D02*
D03*
Y-660D02*
D03*
X1903Y-663D02*
D03*
Y-473D02*
D03*
X2411Y-663D02*
D03*
Y-473D02*
D03*
X2157Y-663D02*
D03*
Y-473D02*
D03*
X7417Y-1257D02*
D03*
Y-1067D02*
D03*
X3251Y-1104D02*
D03*
Y-914D02*
D03*
D12*
X4465Y-1397D02*
D03*
X4765D02*
D03*
X4715D02*
D03*
X4665D02*
D03*
X4615D02*
D03*
X4565D02*
D03*
X4515D02*
D03*
X4415D02*
D03*
X4365D02*
D03*
X4315D02*
D03*
X4265D02*
D03*
X4215D02*
D03*
X4165D02*
D03*
X4115D02*
D03*
X4065D02*
D03*
X4015D02*
D03*
X4765Y-2522D02*
D03*
X4715D02*
D03*
X4665D02*
D03*
X4615D02*
D03*
X4565D02*
D03*
X4515D02*
D03*
X4465D02*
D03*
X4415D02*
D03*
X4365D02*
D03*
X4315D02*
D03*
X4265D02*
D03*
X4215D02*
D03*
X4165D02*
D03*
X4115D02*
D03*
X4065D02*
D03*
X4015D02*
D03*
D13*
X5893Y-305D02*
D03*
X6083D02*
D03*
X8230Y-3404D02*
D03*
X8420D02*
D03*
X8534Y-2692D02*
D03*
X1219Y-3861D02*
D03*
X1409D02*
D03*
X813D02*
D03*
X1003D02*
D03*
X370Y-3050D02*
D03*
X560D02*
D03*
X1524Y-2997D02*
D03*
X1714D02*
D03*
X370Y-3300D02*
D03*
X560D02*
D03*
X1524Y-3251D02*
D03*
X1714D02*
D03*
X2045Y-2286D02*
D03*
X2235D02*
D03*
X7980Y-1930D02*
D03*
X7790D02*
D03*
X2909Y-1626D02*
D03*
X3099D02*
D03*
X7786Y-660D02*
D03*
X7976D02*
D03*
X7786Y-914D02*
D03*
X7976D02*
D03*
X7786Y-1168D02*
D03*
X7976D02*
D03*
X7786Y-1422D02*
D03*
X7976D02*
D03*
X7786Y-1676D02*
D03*
X7976D02*
D03*
X4000Y-356D02*
D03*
X3810D02*
D03*
X4534D02*
D03*
X4724D02*
D03*
X8344Y-2692D02*
D03*
X3086Y-1372D02*
D03*
X2896D02*
D03*
D14*
X7620Y-406D02*
D03*
D15*
X7118Y-765D02*
D03*
X6533Y-638D02*
D03*
Y-765D02*
D03*
Y-892D02*
D03*
Y-1019D02*
D03*
X7118Y-638D02*
D03*
Y-892D02*
D03*
Y-1019D02*
D03*
D16*
X6706Y-2692D02*
D03*
Y-2972D02*
D03*
X2642Y-2057D02*
D03*
Y-2337D02*
D03*
Y-1804D02*
D03*
Y-1524D02*
D03*
D17*
X8528Y-2928D02*
D03*
X8338D02*
D03*
X8433Y-3168D02*
D03*
D18*
X7774Y-3048D02*
D03*
X6558Y-1603D02*
D03*
Y-1730D02*
D03*
Y-1857D02*
D03*
Y-1984D02*
D03*
X7118Y-1603D02*
D03*
Y-1730D02*
D03*
Y-1857D02*
D03*
Y-1984D02*
D03*
X7774Y-3302D02*
D03*
Y-3175D02*
D03*
Y-2921D02*
D03*
X7214Y-3302D02*
D03*
Y-3175D02*
D03*
Y-3048D02*
D03*
Y-2921D02*
D03*
D19*
X3810Y-711D02*
D03*
X4710D02*
D03*
D20*
X3827Y-1784D02*
D03*
Y-1684D02*
D03*
Y-1834D02*
D03*
Y-1734D02*
D03*
X4952Y-2334D02*
D03*
Y-2284D02*
D03*
Y-2234D02*
D03*
Y-2184D02*
D03*
Y-2134D02*
D03*
Y-2084D02*
D03*
Y-2034D02*
D03*
Y-1984D02*
D03*
Y-1934D02*
D03*
Y-1884D02*
D03*
Y-1834D02*
D03*
Y-1784D02*
D03*
Y-1734D02*
D03*
Y-1684D02*
D03*
Y-1634D02*
D03*
Y-1584D02*
D03*
X3827Y-2334D02*
D03*
Y-2284D02*
D03*
Y-2234D02*
D03*
Y-2184D02*
D03*
Y-2134D02*
D03*
Y-2084D02*
D03*
Y-2034D02*
D03*
Y-1984D02*
D03*
Y-1934D02*
D03*
Y-1884D02*
D03*
Y-1634D02*
D03*
Y-1584D02*
D03*
D21*
X6226Y-864D02*
D03*
X6096D02*
D03*
D22*
X6161Y-1964D02*
D03*
D23*
X1676Y-3675D02*
D03*
Y-3505D02*
D03*
X7422Y-1654D02*
D03*
Y-1824D02*
D03*
X3048Y-508D02*
D03*
Y-678D02*
D03*
X3251Y-508D02*
D03*
Y-678D02*
D03*
X4386Y-3057D02*
D03*
Y-3227D02*
D03*
X3861Y-3200D02*
D03*
Y-3030D02*
D03*
D24*
X2007Y-3209D02*
D03*
X2134D02*
D03*
X2261D02*
D03*
X2388D02*
D03*
X2515D02*
D03*
X2642D02*
D03*
X2769D02*
D03*
X2007Y-2684D02*
D03*
X2134D02*
D03*
X2261D02*
D03*
X2388D02*
D03*
X2515D02*
D03*
X2642D02*
D03*
X2769D02*
D03*
D25*
X7417Y-3658D02*
D03*
X7587D02*
D03*
X2896Y-2083D02*
D03*
X3066D02*
D03*
X2896Y-1880D02*
D03*
X3066D02*
D03*
X7091Y-229D02*
D03*
X6921D02*
D03*
X5537Y-1626D02*
D03*
X5367D02*
D03*
X2642Y-914D02*
D03*
X2812D02*
D03*
X2642Y-711D02*
D03*
X2812D02*
D03*
X2896Y-2286D02*
D03*
X3066D02*
D03*
X3505Y-1321D02*
D03*
X3675D02*
D03*
D26*
X457Y-2410D02*
D03*
Y-2060D02*
D03*
D27*
X7953Y-3658D02*
D03*
X8303D02*
D03*
D28*
X2273Y-1066D02*
D03*
X2146D02*
D03*
X2019D02*
D03*
X1892D02*
D03*
X1765D02*
D03*
X1638D02*
D03*
X1511D02*
D03*
X1384D02*
D03*
X2273Y-1982D02*
D03*
X2146D02*
D03*
X2019D02*
D03*
X1892D02*
D03*
X1765D02*
D03*
X1638D02*
D03*
X1511D02*
D03*
X1384D02*
D03*
M02*
