%FSLAX42Y42*%
%MOMM*%
G71*
G01*
G75*
%ADD10C,0.20*%
%ADD11R,1.50X1.30*%
%ADD12R,0.30X1.45*%
%ADD13R,1.30X1.50*%
%ADD14C,1.00*%
%ADD15R,1.55X0.60*%
%ADD16R,1.80X1.60*%
%ADD17R,0.85X1.00*%
%ADD18R,1.80X0.60*%
%ADD19R,5.50X1.50*%
%ADD20R,1.45X0.30*%
%ADD21R,0.60X2.00*%
%ADD22R,3.00X3.00*%
%ADD23R,1.00X1.10*%
%ADD24R,0.60X2.20*%
%ADD25R,1.10X1.00*%
%ADD26R,1.80X2.15*%
%ADD27R,2.15X1.80*%
%ADD28R,0.60X2.25*%
%ADD29C,1.00*%
%ADD30C,0.25*%
%ADD31C,0.40*%
%ADD32C,0.50*%
%ADD33C,0.30*%
%ADD34C,0.25*%
%ADD35R,1.50X1.50*%
%ADD36C,1.50*%
%ADD37R,1.60X1.60*%
%ADD38C,1.60*%
%ADD39C,1.20*%
%ADD40C,4.76*%
%ADD41R,1.69X1.69*%
%ADD42C,1.69*%
%ADD43C,0.60*%
%ADD44R,2.80X0.65*%
%ADD45R,0.65X2.80*%
D10*
X7710Y-406D02*
G03*
X7710Y-406I-90J0D01*
G01*
X1950Y-2984D02*
G03*
X1950Y-2909I0J38D01*
G01*
X2356Y-1460D02*
G03*
X2356Y-1588I0J-63D01*
G01*
X6767Y-578D02*
G03*
X6883Y-578I58J0D01*
G01*
X6788Y-1543D02*
G03*
X6888Y-1543I50J0D01*
G01*
X7544Y-3362D02*
G03*
X7444Y-3362I-50J0D01*
G01*
X5727Y-867D02*
Y-707D01*
X5957Y-867D02*
Y-707D01*
X5727Y-867D02*
X5957D01*
X5727Y-467D02*
X5957D01*
X5727Y-627D02*
Y-467D01*
X5957Y-627D02*
Y-467D01*
X5788Y-190D02*
X5948D01*
X5788Y-420D02*
X5948D01*
X5788D02*
Y-190D01*
X6188Y-420D02*
Y-190D01*
X6028D02*
X6188D01*
X6028Y-420D02*
X6188D01*
X7302Y-511D02*
Y-351D01*
X7532Y-511D02*
Y-351D01*
X7302Y-511D02*
X7532D01*
X7302Y-111D02*
X7532D01*
X7302Y-271D02*
Y-111D01*
X7532Y-271D02*
Y-111D01*
X6836Y-3092D02*
Y-2902D01*
X6576Y-3092D02*
Y-2902D01*
X6836Y-2762D02*
Y-2572D01*
X6576Y-2762D02*
Y-2572D01*
X6836D01*
X6576Y-3092D02*
X6836D01*
X8125Y-3289D02*
X8285D01*
X8125Y-3519D02*
X8285D01*
X8125D02*
Y-3289D01*
X8525Y-3519D02*
Y-3289D01*
X8365D02*
X8525D01*
X8365Y-3519D02*
X8525D01*
X8633Y-3258D02*
Y-2838D01*
X8233D02*
X8633D01*
X8233Y-3258D02*
Y-2838D01*
Y-3258D02*
X8633D01*
X6351Y-2154D02*
Y-1164D01*
X5971Y-2154D02*
Y-1164D01*
Y-2154D02*
X6351D01*
X5971Y-1164D02*
X6351D01*
X1586Y-3770D02*
Y-3625D01*
X1766Y-3770D02*
Y-3625D01*
X1586Y-3770D02*
X1766D01*
X1586Y-3410D02*
X1766D01*
X1586Y-3555D02*
Y-3410D01*
X1766Y-3555D02*
Y-3410D01*
X1950Y-3059D02*
Y-2984D01*
Y-2909D02*
Y-2834D01*
X2825Y-3059D02*
Y-2834D01*
X1950Y-3059D02*
X2825D01*
X1950Y-2834D02*
X2825D01*
X1114Y-3746D02*
X1274D01*
X1114Y-3976D02*
X1274D01*
X1114D02*
Y-3746D01*
X1514Y-3976D02*
Y-3746D01*
X1354D02*
X1514D01*
X1354Y-3976D02*
X1514D01*
X708Y-3746D02*
X868D01*
X708Y-3976D02*
X868D01*
X708D02*
Y-3746D01*
X1108Y-3976D02*
Y-3746D01*
X948D02*
X1108D01*
X948Y-3976D02*
X1108D01*
X3365Y-3065D02*
Y-2905D01*
X3135Y-3065D02*
Y-2905D01*
X3365D01*
X3135Y-3305D02*
X3365D01*
Y-3145D01*
X3135Y-3305D02*
Y-3145D01*
X3115Y-3065D02*
Y-2905D01*
X2885Y-3065D02*
Y-2905D01*
X3115D01*
X2885Y-3305D02*
X3115D01*
Y-3145D01*
X2885Y-3305D02*
Y-3145D01*
X265Y-2935D02*
X425D01*
X265Y-3165D02*
X425D01*
X265D02*
Y-2935D01*
X665Y-3165D02*
Y-2935D01*
X505D02*
X665D01*
X505Y-3165D02*
X665D01*
X1419Y-2882D02*
X1579D01*
X1419Y-3112D02*
X1579D01*
X1419D02*
Y-2882D01*
X1819Y-3112D02*
Y-2882D01*
X1659D02*
X1819D01*
X1659Y-3112D02*
X1819D01*
X265Y-3185D02*
X425D01*
X265Y-3415D02*
X425D01*
X265D02*
Y-3185D01*
X665Y-3415D02*
Y-3185D01*
X505D02*
X665D01*
X505Y-3415D02*
X665D01*
X1419Y-3136D02*
X1579D01*
X1419Y-3366D02*
X1579D01*
X1419D02*
Y-3136D01*
X1819Y-3366D02*
Y-3136D01*
X1659D02*
X1819D01*
X1659Y-3366D02*
X1819D01*
X1229Y-768D02*
Y-608D01*
X1459Y-768D02*
Y-608D01*
X1229Y-768D02*
X1459D01*
X1229Y-368D02*
X1459D01*
X1229Y-528D02*
Y-368D01*
X1459Y-528D02*
Y-368D01*
X7532Y-678D02*
Y-518D01*
X7302Y-678D02*
Y-518D01*
X7532D01*
X7302Y-918D02*
X7532D01*
Y-758D01*
X7302Y-918D02*
Y-758D01*
X1690Y-525D02*
Y-365D01*
X1460Y-525D02*
Y-365D01*
X1690D01*
X1460Y-765D02*
X1690D01*
Y-605D01*
X1460Y-765D02*
Y-605D01*
X7322Y-3568D02*
X7467D01*
X7322Y-3748D02*
X7467D01*
X7322D02*
Y-3568D01*
X7682Y-3748D02*
Y-3568D01*
X7537D02*
X7682D01*
X7537Y-3748D02*
X7682D01*
X1788Y-768D02*
Y-608D01*
X2018Y-768D02*
Y-608D01*
X1788Y-768D02*
X2018D01*
X1788Y-368D02*
X2018D01*
X1788Y-528D02*
Y-368D01*
X2018Y-528D02*
Y-368D01*
X1940Y-2171D02*
X2100D01*
X1940Y-2401D02*
X2100D01*
X1940D02*
Y-2171D01*
X2340Y-2401D02*
Y-2171D01*
X2180D02*
X2340D01*
X2180Y-2401D02*
X2340D01*
X457Y-1913D02*
X587D01*
Y-2550D02*
Y-1913D01*
X327Y-2550D02*
Y-1913D01*
X457D01*
X8450Y-3788D02*
Y-3658D01*
X7813Y-3788D02*
X8450D01*
X7813Y-3528D02*
X8450D01*
Y-3658D02*
Y-3528D01*
X2296Y-768D02*
Y-608D01*
X2526Y-768D02*
Y-608D01*
X2296Y-768D02*
X2526D01*
X2296Y-368D02*
X2526D01*
X2296Y-528D02*
Y-368D01*
X2526Y-528D02*
Y-368D01*
X2356Y-1460D02*
Y-1219D01*
Y-1829D02*
Y-1588D01*
X1301Y-1829D02*
Y-1219D01*
X2356D01*
X1301Y-1829D02*
X2356D01*
X2042Y-768D02*
Y-608D01*
X2272Y-768D02*
Y-608D01*
X2042Y-768D02*
X2272D01*
X2042Y-368D02*
X2272D01*
X2042Y-528D02*
Y-368D01*
X2272Y-528D02*
Y-368D01*
X2512Y-1937D02*
X2772D01*
X2512Y-2457D02*
X2772D01*
Y-2267D01*
X2512Y-2457D02*
Y-2267D01*
X2772Y-2127D02*
Y-1937D01*
X2512Y-2127D02*
Y-1937D01*
X2801Y-1993D02*
X2946D01*
X2801Y-2173D02*
X2946D01*
X2801D02*
Y-1993D01*
X3161Y-2173D02*
Y-1993D01*
X3016D02*
X3161D01*
X3016Y-2173D02*
X3161D01*
X2512Y-1924D02*
X2772D01*
X2512Y-1404D02*
X2772D01*
X2512Y-1594D02*
Y-1404D01*
X2772Y-1594D02*
Y-1404D01*
X2512Y-1924D02*
Y-1734D01*
X2772Y-1924D02*
Y-1734D01*
X2801Y-1790D02*
X2946D01*
X2801Y-1970D02*
X2946D01*
X2801D02*
Y-1790D01*
X3161Y-1970D02*
Y-1790D01*
X3016D02*
X3161D01*
X3016Y-1970D02*
X3161D01*
X6650Y-578D02*
X6767D01*
X6883D02*
X7000D01*
X6650Y-1078D02*
X7000D01*
X6650D02*
Y-578D01*
X7000Y-1078D02*
Y-578D01*
X7041Y-319D02*
X7186D01*
X7041Y-139D02*
X7186D01*
Y-319D02*
Y-139D01*
X6826Y-319D02*
Y-139D01*
Y-319D02*
X6971D01*
X6826Y-139D02*
X6971D01*
X5487Y-1716D02*
X5632D01*
X5487Y-1536D02*
X5632D01*
Y-1716D02*
Y-1536D01*
X5272Y-1716D02*
Y-1536D01*
Y-1716D02*
X5417D01*
X5272Y-1536D02*
X5417D01*
X7512Y-1704D02*
Y-1559D01*
X7332Y-1704D02*
Y-1559D01*
X7512D01*
X7332Y-1919D02*
X7512D01*
Y-1774D01*
X7332Y-1919D02*
Y-1774D01*
X6688Y-1543D02*
X6788D01*
X6888D02*
X6988D01*
X6688Y-2043D02*
X6988D01*
X6688D02*
Y-1543D01*
X6988Y-2043D02*
Y-1543D01*
X2547Y-824D02*
X2692D01*
X2547Y-1004D02*
X2692D01*
X2547D02*
Y-824D01*
X2907Y-1004D02*
Y-824D01*
X2762D02*
X2907D01*
X2762Y-1004D02*
X2907D01*
X4840Y-2409D02*
Y-1509D01*
X3940Y-2409D02*
Y-1509D01*
X4840D01*
X3940Y-2409D02*
X4840D01*
X7302Y-1362D02*
Y-1202D01*
X7532Y-1362D02*
Y-1202D01*
X7302Y-1362D02*
X7532D01*
X7302Y-962D02*
X7532D01*
X7302Y-1122D02*
Y-962D01*
X7532Y-1122D02*
Y-962D01*
X7925Y-2045D02*
X8085D01*
X7925Y-1815D02*
X8085D01*
Y-2045D02*
Y-1815D01*
X7685Y-2045D02*
Y-1815D01*
Y-2045D02*
X7845D01*
X7685Y-1815D02*
X7845D01*
X2804Y-1511D02*
X2964D01*
X2804Y-1741D02*
X2964D01*
X2804D02*
Y-1511D01*
X3204Y-1741D02*
Y-1511D01*
X3044D02*
X3204D01*
X3044Y-1741D02*
X3204D01*
X2547Y-621D02*
X2692D01*
X2547Y-801D02*
X2692D01*
X2547D02*
Y-621D01*
X2907Y-801D02*
Y-621D01*
X2762D02*
X2907D01*
X2762Y-801D02*
X2907D01*
X7681Y-545D02*
X7841D01*
X7681Y-775D02*
X7841D01*
X7681D02*
Y-545D01*
X8081Y-775D02*
Y-545D01*
X7921D02*
X8081D01*
X7921Y-775D02*
X8081D01*
X7681Y-799D02*
X7841D01*
X7681Y-1029D02*
X7841D01*
X7681D02*
Y-799D01*
X8081Y-1029D02*
Y-799D01*
X7921D02*
X8081D01*
X7921Y-1029D02*
X8081D01*
X7681Y-1053D02*
X7841D01*
X7681Y-1283D02*
X7841D01*
X7681D02*
Y-1053D01*
X8081Y-1283D02*
Y-1053D01*
X7921D02*
X8081D01*
X7921Y-1283D02*
X8081D01*
X7681Y-1307D02*
X7841D01*
X7681Y-1537D02*
X7841D01*
X7681D02*
Y-1307D01*
X8081Y-1537D02*
Y-1307D01*
X7921D02*
X8081D01*
X7921Y-1537D02*
X8081D01*
X7681Y-1561D02*
X7841D01*
X7681Y-1791D02*
X7841D01*
X7681D02*
Y-1561D01*
X8081Y-1791D02*
Y-1561D01*
X7921D02*
X8081D01*
X7921Y-1791D02*
X8081D01*
X3136Y-1209D02*
Y-1049D01*
X3366Y-1209D02*
Y-1049D01*
X3136Y-1209D02*
X3366D01*
X3136Y-809D02*
X3366D01*
X3136Y-969D02*
Y-809D01*
X3366Y-969D02*
Y-809D01*
X3138Y-558D02*
Y-413D01*
X2958Y-558D02*
Y-413D01*
X3138D01*
X2958Y-773D02*
X3138D01*
Y-628D01*
X2958Y-773D02*
Y-628D01*
X3945Y-471D02*
X4105D01*
X3945Y-241D02*
X4105D01*
Y-471D02*
Y-241D01*
X3705Y-471D02*
Y-241D01*
Y-471D02*
X3865D01*
X3705Y-241D02*
X3865D01*
X4429D02*
X4589D01*
X4429Y-471D02*
X4589D01*
X4429D02*
Y-241D01*
X4829Y-471D02*
Y-241D01*
X4669D02*
X4829D01*
X4669Y-471D02*
X4829D01*
X3341Y-558D02*
Y-413D01*
X3161Y-558D02*
Y-413D01*
X3341D01*
X3161Y-773D02*
X3341D01*
Y-628D01*
X3161Y-773D02*
Y-628D01*
X7544Y-3362D02*
X7644D01*
X7344D02*
X7444D01*
X7344Y-2861D02*
X7644D01*
Y-3362D02*
Y-2861D01*
X7344Y-3362D02*
Y-2861D01*
X2801Y-2196D02*
X2946D01*
X2801Y-2376D02*
X2946D01*
X2801D02*
Y-2196D01*
X3161Y-2376D02*
Y-2196D01*
X3016D02*
X3161D01*
X3016Y-2376D02*
X3161D01*
X4476Y-3107D02*
Y-2962D01*
X4296Y-3107D02*
Y-2962D01*
X4476D01*
X4296Y-3322D02*
X4476D01*
Y-3177D01*
X4296Y-3322D02*
Y-3177D01*
X8239Y-2577D02*
X8399D01*
X8239Y-2807D02*
X8399D01*
X8239D02*
Y-2577D01*
X8639Y-2807D02*
Y-2577D01*
X8479D02*
X8639D01*
X8479Y-2807D02*
X8639D01*
X3031Y-1487D02*
X3191D01*
X3031Y-1257D02*
X3191D01*
Y-1487D02*
Y-1257D01*
X2791Y-1487D02*
Y-1257D01*
Y-1487D02*
X2951D01*
X2791Y-1257D02*
X2951D01*
X3771Y-3295D02*
Y-3150D01*
X3951Y-3295D02*
Y-3150D01*
X3771Y-3295D02*
X3951D01*
X3771Y-2935D02*
X3951D01*
X3771Y-3080D02*
Y-2935D01*
X3951Y-3080D02*
Y-2935D01*
X3410Y-1231D02*
X3555D01*
X3410Y-1411D02*
X3555D01*
X3410D02*
Y-1231D01*
X3770Y-1411D02*
Y-1231D01*
X3625D02*
X3770D01*
X3625Y-1411D02*
X3770D01*
D30*
X8710Y-2928D02*
G03*
X8710Y-2928I-12J0D01*
G01*
X1934Y-3209D02*
G03*
X1934Y-3209I-12J0D01*
G01*
X2371Y-1066D02*
G03*
X2371Y-1066I-12J0D01*
G01*
X6545Y-553D02*
G03*
X6545Y-553I-12J0D01*
G01*
X6570Y-1518D02*
G03*
X6570Y-1518I-12J0D01*
G01*
X3840Y-1514D02*
G03*
X3840Y-1514I-12J0D01*
G01*
X7786Y-3387D02*
G03*
X7786Y-3387I-12J0D01*
G01*
X7050Y-575D02*
X7275D01*
X7302D01*
X292Y-1674D02*
X298Y-1685D01*
X309Y-1697D01*
X320Y-1702D01*
X338Y-1708D01*
X366D01*
X383Y-1702D01*
X395Y-1697D01*
X406Y-1685D01*
X412Y-1674D01*
Y-1651D01*
X406Y-1640D01*
X395Y-1628D01*
X383Y-1622D01*
X366Y-1617D01*
X338D01*
X320Y-1622D01*
X309Y-1628D01*
X298Y-1640D01*
X292Y-1651D01*
Y-1674D01*
X309Y-1509D02*
X298Y-1520D01*
X292Y-1537D01*
Y-1560D01*
X298Y-1577D01*
X309Y-1589D01*
X320D01*
X332Y-1583D01*
X338Y-1577D01*
X343Y-1566D01*
X355Y-1532D01*
X360Y-1520D01*
X366Y-1515D01*
X378Y-1509D01*
X395D01*
X406Y-1520D01*
X412Y-1537D01*
Y-1560D01*
X406Y-1577D01*
X395Y-1589D01*
X355Y-1482D02*
Y-1431D01*
X349Y-1413D01*
X343Y-1408D01*
X332Y-1402D01*
X315D01*
X303Y-1408D01*
X298Y-1413D01*
X292Y-1431D01*
Y-1482D01*
X412D01*
X292Y-1375D02*
X412D01*
Y-1307D01*
X320Y-1208D02*
X309Y-1213D01*
X298Y-1225D01*
X292Y-1236D01*
Y-1259D01*
X298Y-1271D01*
X309Y-1282D01*
X320Y-1288D01*
X338Y-1293D01*
X366D01*
X383Y-1288D01*
X395Y-1282D01*
X406Y-1271D01*
X412Y-1259D01*
Y-1236D01*
X406Y-1225D01*
X395Y-1213D01*
X383Y-1208D01*
X315Y-1174D02*
X309Y-1163D01*
X292Y-1145D01*
X412D01*
X309Y-912D02*
X298Y-923D01*
X292Y-940D01*
Y-963D01*
X298Y-980D01*
X309Y-992D01*
X320D01*
X332Y-986D01*
X338Y-980D01*
X343Y-969D01*
X355Y-935D01*
X360Y-923D01*
X366Y-917D01*
X378Y-912D01*
X395D01*
X406Y-923D01*
X412Y-940D01*
Y-963D01*
X406Y-980D01*
X395Y-992D01*
X332Y-885D02*
X412D01*
X355D02*
X338Y-868D01*
X332Y-856D01*
Y-839D01*
X338Y-828D01*
X355Y-822D01*
X412D01*
X355D02*
X338Y-805D01*
X332Y-794D01*
Y-776D01*
X338Y-765D01*
X355Y-759D01*
X412D01*
X332Y-653D02*
X412D01*
X349D02*
X338Y-664D01*
X332Y-676D01*
Y-693D01*
X338Y-704D01*
X349Y-716D01*
X366Y-722D01*
X378D01*
X395Y-716D01*
X406Y-704D01*
X412Y-693D01*
Y-676D01*
X406Y-664D01*
X395Y-653D01*
X292Y-621D02*
X412D01*
X292Y-596D02*
X412D01*
X292Y-476D02*
X412D01*
X292D02*
Y-425D01*
X298Y-408D01*
X303Y-402D01*
X315Y-396D01*
X326D01*
X338Y-402D01*
X343Y-408D01*
X349Y-425D01*
Y-476D02*
Y-425D01*
X355Y-408D01*
X360Y-402D01*
X372Y-396D01*
X389D01*
X400Y-402D01*
X406Y-408D01*
X412Y-425D01*
Y-476D01*
X332Y-370D02*
X412D01*
X366D02*
X349Y-364D01*
X338Y-352D01*
X332Y-341D01*
Y-324D01*
X292Y-302D02*
X298Y-296D01*
X292Y-290D01*
X286Y-296D01*
X292Y-302D01*
X332Y-296D02*
X412D01*
X349Y-201D02*
X338Y-212D01*
X332Y-223D01*
Y-240D01*
X338Y-252D01*
X349Y-263D01*
X366Y-269D01*
X378D01*
X395Y-263D01*
X406Y-252D01*
X412Y-240D01*
Y-223D01*
X406Y-212D01*
X395Y-201D01*
X292Y-175D02*
X412D01*
X332Y-118D02*
X389Y-175D01*
X366Y-152D02*
X412Y-112D01*
D33*
X4830Y-581D02*
Y-481D01*
Y-951D02*
Y-841D01*
X3690Y-951D02*
Y-841D01*
Y-581D02*
Y-481D01*
X4830D01*
X3690Y-951D02*
X4830D01*
X3480Y-581D02*
X3690D01*
X3480Y-841D02*
Y-581D01*
Y-841D02*
X3690D01*
X4830D02*
X5040D01*
Y-581D01*
X4830D02*
X5040D01*
D34*
X6000Y-575D02*
Y-475D01*
X6050D01*
X6067Y-492D01*
Y-525D01*
X6050Y-542D01*
X6000D01*
X6033D02*
X6067Y-575D01*
X6167D02*
X6100D01*
X6167Y-508D01*
Y-492D01*
X6150Y-475D01*
X6117D01*
X6100Y-492D01*
X6250Y-575D02*
Y-475D01*
X6200Y-525D01*
X6267D01*
X5892Y-92D02*
X5875Y-75D01*
X5842D01*
X5825Y-92D01*
Y-158D01*
X5842Y-175D01*
X5875D01*
X5892Y-158D01*
X5925Y-92D02*
X5942Y-75D01*
X5975D01*
X5992Y-92D01*
Y-108D01*
X5975Y-125D01*
X5958D01*
X5975D01*
X5992Y-142D01*
Y-158D01*
X5975Y-175D01*
X5942D01*
X5925Y-158D01*
X6025Y-175D02*
X6058D01*
X6042D01*
Y-75D01*
X6025Y-92D01*
X7700Y-300D02*
X7767D01*
X7733D01*
Y-400D01*
X7800D02*
Y-300D01*
X7850D01*
X7867Y-317D01*
Y-350D01*
X7850Y-367D01*
X7800D01*
X7900Y-400D02*
X7933D01*
X7917D01*
Y-300D01*
X7900Y-317D01*
X7550Y-200D02*
Y-100D01*
X7600D01*
X7617Y-117D01*
Y-150D01*
X7600Y-167D01*
X7550D01*
X7583D02*
X7617Y-200D01*
X7717D02*
X7650D01*
X7717Y-133D01*
Y-117D01*
X7700Y-100D01*
X7667D01*
X7650Y-117D01*
X7750D02*
X7767Y-100D01*
X7800D01*
X7817Y-117D01*
Y-133D01*
X7800Y-150D01*
X7783D01*
X7800D01*
X7817Y-167D01*
Y-183D01*
X7800Y-200D01*
X7767D01*
X7750Y-183D01*
X8625Y-3750D02*
X8525D01*
Y-3700D01*
X8542Y-3683D01*
X8575D01*
X8592Y-3700D01*
Y-3750D01*
Y-3717D02*
X8625Y-3683D01*
Y-3583D02*
Y-3650D01*
X8558Y-3583D01*
X8542D01*
X8525Y-3600D01*
Y-3633D01*
X8542Y-3650D01*
X8625Y-3483D02*
Y-3550D01*
X8558Y-3483D01*
X8542D01*
X8525Y-3500D01*
Y-3533D01*
X8542Y-3550D01*
X8142Y-3108D02*
Y-3042D01*
X8125Y-3025D01*
X8092D01*
X8075Y-3042D01*
Y-3108D01*
X8092Y-3125D01*
X8125D01*
X8108Y-3092D02*
X8142Y-3125D01*
X8125D02*
X8142Y-3108D01*
X8175Y-3125D02*
X8208D01*
X8192D01*
Y-3025D01*
X8175Y-3042D01*
X4935Y-400D02*
X5001Y-500D01*
Y-400D02*
X4935Y-500D01*
X5035D02*
X5068D01*
X5051D01*
Y-400D01*
X5035Y-417D01*
X1700Y-2700D02*
Y-2783D01*
X1717Y-2800D01*
X1750D01*
X1767Y-2783D01*
Y-2700D01*
X1867D02*
X1833Y-2717D01*
X1800Y-2750D01*
Y-2783D01*
X1817Y-2800D01*
X1850D01*
X1867Y-2783D01*
Y-2767D01*
X1850Y-2750D01*
X1800D01*
X350Y-3525D02*
Y-3425D01*
X400D01*
X417Y-3442D01*
Y-3475D01*
X400Y-3492D01*
X350D01*
X383D02*
X417Y-3525D01*
X517D02*
X450D01*
X517Y-3458D01*
Y-3442D01*
X500Y-3425D01*
X467D01*
X450Y-3442D01*
X550Y-3525D02*
X583D01*
X567D01*
Y-3425D01*
X550Y-3442D01*
X1400Y-3410D02*
X1300D01*
Y-3360D01*
X1317Y-3343D01*
X1350D01*
X1367Y-3360D01*
Y-3410D01*
Y-3377D02*
X1400Y-3343D01*
Y-3243D02*
Y-3310D01*
X1333Y-3243D01*
X1317D01*
X1300Y-3260D01*
Y-3293D01*
X1317Y-3310D01*
Y-3210D02*
X1300Y-3193D01*
Y-3160D01*
X1317Y-3143D01*
X1383D01*
X1400Y-3160D01*
Y-3193D01*
X1383Y-3210D01*
X1317D01*
X300Y-2900D02*
Y-2800D01*
X350D01*
X367Y-2817D01*
Y-2850D01*
X350Y-2867D01*
X300D01*
X333D02*
X367Y-2900D01*
X400D02*
X433D01*
X417D01*
Y-2800D01*
X400Y-2817D01*
X483Y-2883D02*
X500Y-2900D01*
X533D01*
X550Y-2883D01*
Y-2817D01*
X533Y-2800D01*
X500D01*
X483Y-2817D01*
Y-2833D01*
X500Y-2850D01*
X550D01*
X1375Y-2850D02*
Y-2750D01*
X1425D01*
X1442Y-2767D01*
Y-2800D01*
X1425Y-2817D01*
X1375D01*
X1408D02*
X1442Y-2850D01*
X1475D02*
X1508D01*
X1492D01*
Y-2750D01*
X1475Y-2767D01*
X1558D02*
X1575Y-2750D01*
X1608D01*
X1625Y-2767D01*
Y-2783D01*
X1608Y-2800D01*
X1625Y-2817D01*
Y-2833D01*
X1608Y-2850D01*
X1575D01*
X1558Y-2833D01*
Y-2817D01*
X1575Y-2800D01*
X1558Y-2783D01*
Y-2767D01*
X1575Y-2800D02*
X1608D01*
X2875Y-2875D02*
Y-2775D01*
X2925D01*
X2942Y-2792D01*
Y-2825D01*
X2925Y-2842D01*
X2875D01*
X2908D02*
X2942Y-2875D01*
X2975D02*
X3008D01*
X2992D01*
Y-2775D01*
X2975Y-2792D01*
X3058Y-2775D02*
X3125D01*
Y-2792D01*
X3058Y-2858D01*
Y-2875D01*
X3325D02*
Y-2775D01*
X3375D01*
X3392Y-2792D01*
Y-2825D01*
X3375Y-2842D01*
X3325D01*
X3358D02*
X3392Y-2875D01*
X3425D02*
X3458D01*
X3442D01*
Y-2775D01*
X3425Y-2792D01*
X3575Y-2775D02*
X3542Y-2792D01*
X3508Y-2825D01*
Y-2858D01*
X3525Y-2875D01*
X3558D01*
X3575Y-2858D01*
Y-2842D01*
X3558Y-2825D01*
X3508D01*
X425Y-3925D02*
Y-3825D01*
X475D01*
X492Y-3842D01*
Y-3875D01*
X475Y-3892D01*
X425D01*
X458D02*
X492Y-3925D01*
X525D02*
X558D01*
X542D01*
Y-3825D01*
X525Y-3842D01*
X675Y-3825D02*
X608D01*
Y-3875D01*
X642Y-3858D01*
X658D01*
X675Y-3875D01*
Y-3908D01*
X658Y-3925D01*
X625D01*
X608Y-3908D01*
X1200Y-4100D02*
Y-4000D01*
X1250D01*
X1267Y-4017D01*
Y-4050D01*
X1250Y-4067D01*
X1200D01*
X1233D02*
X1267Y-4100D01*
X1300D02*
X1333D01*
X1317D01*
Y-4000D01*
X1300Y-4017D01*
X1433Y-4100D02*
Y-4000D01*
X1383Y-4050D01*
X1450D01*
X1737Y-3837D02*
X1720Y-3820D01*
X1687D01*
X1670Y-3837D01*
Y-3903D01*
X1687Y-3920D01*
X1720D01*
X1737Y-3903D01*
X1770Y-3837D02*
X1787Y-3820D01*
X1820D01*
X1837Y-3837D01*
Y-3853D01*
X1820Y-3870D01*
X1803D01*
X1820D01*
X1837Y-3887D01*
Y-3903D01*
X1820Y-3920D01*
X1787D01*
X1770Y-3903D01*
X1870Y-3837D02*
X1887Y-3820D01*
X1920D01*
X1937Y-3837D01*
Y-3903D01*
X1920Y-3920D01*
X1887D01*
X1870Y-3903D01*
Y-3837D01*
X3267Y-292D02*
X3250Y-275D01*
X3217D01*
X3200Y-292D01*
Y-358D01*
X3217Y-375D01*
X3250D01*
X3267Y-358D01*
X3367Y-375D02*
X3300D01*
X3367Y-308D01*
Y-292D01*
X3350Y-275D01*
X3317D01*
X3300Y-292D01*
X2867Y-317D02*
X2850Y-300D01*
X2817D01*
X2800Y-317D01*
Y-383D01*
X2817Y-400D01*
X2850D01*
X2867Y-383D01*
X2967Y-300D02*
X2900D01*
Y-350D01*
X2933Y-333D01*
X2950D01*
X2967Y-350D01*
Y-383D01*
X2950Y-400D01*
X2917D01*
X2900Y-383D01*
X3567Y-1117D02*
X3550Y-1100D01*
X3517D01*
X3500Y-1117D01*
Y-1183D01*
X3517Y-1200D01*
X3550D01*
X3567Y-1183D01*
X3600Y-1100D02*
X3667D01*
Y-1117D01*
X3600Y-1183D01*
Y-1200D01*
X2417Y-892D02*
X2400Y-875D01*
X2367D01*
X2350Y-892D01*
Y-958D01*
X2367Y-975D01*
X2400D01*
X2417Y-958D01*
X2450Y-892D02*
X2467Y-875D01*
X2500D01*
X2517Y-892D01*
Y-908D01*
X2500Y-925D01*
X2517Y-942D01*
Y-958D01*
X2500Y-975D01*
X2467D01*
X2450Y-958D01*
Y-942D01*
X2467Y-925D01*
X2450Y-908D01*
Y-892D01*
X2467Y-925D02*
X2500D01*
X5367Y-1417D02*
X5350Y-1400D01*
X5317D01*
X5300Y-1417D01*
Y-1483D01*
X5317Y-1500D01*
X5350D01*
X5367Y-1483D01*
X5400Y-1500D02*
X5433D01*
X5417D01*
Y-1400D01*
X5400Y-1417D01*
X5483D02*
X5500Y-1400D01*
X5533D01*
X5550Y-1417D01*
Y-1483D01*
X5533Y-1500D01*
X5500D01*
X5483Y-1483D01*
Y-1417D01*
X6642Y-92D02*
X6625Y-75D01*
X6592D01*
X6575Y-92D01*
Y-158D01*
X6592Y-175D01*
X6625D01*
X6642Y-158D01*
X6675Y-175D02*
X6708D01*
X6692D01*
Y-75D01*
X6675Y-92D01*
X6758Y-175D02*
X6792D01*
X6775D01*
Y-75D01*
X6758Y-92D01*
X3292Y-1842D02*
X3275Y-1825D01*
X3242D01*
X3225Y-1842D01*
Y-1908D01*
X3242Y-1925D01*
X3275D01*
X3292Y-1908D01*
X3325Y-1925D02*
X3358D01*
X3342D01*
Y-1825D01*
X3325Y-1842D01*
X3475Y-1925D02*
X3408D01*
X3475Y-1858D01*
Y-1842D01*
X3458Y-1825D01*
X3425D01*
X3408Y-1842D01*
X3292Y-2042D02*
X3275Y-2025D01*
X3242D01*
X3225Y-2042D01*
Y-2108D01*
X3242Y-2125D01*
X3275D01*
X3292Y-2108D01*
X3325Y-2125D02*
X3358D01*
X3342D01*
Y-2025D01*
X3325Y-2042D01*
X3408D02*
X3425Y-2025D01*
X3458D01*
X3475Y-2042D01*
Y-2058D01*
X3458Y-2075D01*
X3442D01*
X3458D01*
X3475Y-2092D01*
Y-2108D01*
X3458Y-2125D01*
X3425D01*
X3408Y-2108D01*
X3292Y-2242D02*
X3275Y-2225D01*
X3242D01*
X3225Y-2242D01*
Y-2308D01*
X3242Y-2325D01*
X3275D01*
X3292Y-2308D01*
X3325Y-2325D02*
X3358D01*
X3342D01*
Y-2225D01*
X3325Y-2242D01*
X3458Y-2325D02*
Y-2225D01*
X3408Y-2275D01*
X3475D01*
X7442Y-3792D02*
X7425Y-3775D01*
X7392D01*
X7375Y-3792D01*
Y-3858D01*
X7392Y-3875D01*
X7425D01*
X7442Y-3858D01*
X7475Y-3875D02*
X7508D01*
X7492D01*
Y-3775D01*
X7475Y-3792D01*
X7625Y-3775D02*
X7558D01*
Y-3825D01*
X7592Y-3808D01*
X7608D01*
X7625Y-3825D01*
Y-3858D01*
X7608Y-3875D01*
X7575D01*
X7558Y-3858D01*
X4567Y-3167D02*
X4550Y-3150D01*
X4517D01*
X4500Y-3167D01*
Y-3233D01*
X4517Y-3250D01*
X4550D01*
X4567Y-3233D01*
X4600Y-3250D02*
X4633D01*
X4617D01*
Y-3150D01*
X4600Y-3167D01*
X4750Y-3150D02*
X4717Y-3167D01*
X4683Y-3200D01*
Y-3233D01*
X4700Y-3250D01*
X4733D01*
X4750Y-3233D01*
Y-3217D01*
X4733Y-3200D01*
X4683D01*
X3603Y-3213D02*
X3586Y-3230D01*
Y-3263D01*
X3603Y-3280D01*
X3669D01*
X3686Y-3263D01*
Y-3230D01*
X3669Y-3213D01*
X3686Y-3180D02*
Y-3146D01*
Y-3163D01*
X3586D01*
X3603Y-3180D01*
X3586Y-3096D02*
Y-3030D01*
X3603D01*
X3669Y-3096D01*
X3686D01*
X3792Y-142D02*
X3775Y-125D01*
X3742D01*
X3725Y-142D01*
Y-208D01*
X3742Y-225D01*
X3775D01*
X3792Y-208D01*
X3825Y-225D02*
X3858D01*
X3842D01*
Y-125D01*
X3825Y-142D01*
X3908D02*
X3925Y-125D01*
X3958D01*
X3975Y-142D01*
Y-158D01*
X3958Y-175D01*
X3975Y-192D01*
Y-208D01*
X3958Y-225D01*
X3925D01*
X3908Y-208D01*
Y-192D01*
X3925Y-175D01*
X3908Y-158D01*
Y-142D01*
X3925Y-175D02*
X3958D01*
X4542Y-142D02*
X4525Y-125D01*
X4492D01*
X4475Y-142D01*
Y-208D01*
X4492Y-225D01*
X4525D01*
X4542Y-208D01*
X4575Y-225D02*
X4608D01*
X4592D01*
Y-125D01*
X4575Y-142D01*
X4658Y-208D02*
X4675Y-225D01*
X4708D01*
X4725Y-208D01*
Y-142D01*
X4708Y-125D01*
X4675D01*
X4658Y-142D01*
Y-158D01*
X4675Y-175D01*
X4725D01*
X2117Y-283D02*
X2100Y-300D01*
Y-333D01*
X2117Y-350D01*
X2183D01*
X2200Y-333D01*
Y-300D01*
X2183Y-283D01*
X2200Y-183D02*
Y-250D01*
X2133Y-183D01*
X2117D01*
X2100Y-200D01*
Y-233D01*
X2117Y-250D01*
Y-150D02*
X2100Y-133D01*
Y-100D01*
X2117Y-83D01*
X2183D01*
X2200Y-100D01*
Y-133D01*
X2183Y-150D01*
X2117D01*
X2367Y-283D02*
X2350Y-300D01*
Y-333D01*
X2367Y-350D01*
X2433D01*
X2450Y-333D01*
Y-300D01*
X2433Y-283D01*
X2450Y-183D02*
Y-250D01*
X2383Y-183D01*
X2367D01*
X2350Y-200D01*
Y-233D01*
X2367Y-250D01*
X2450Y-150D02*
Y-117D01*
Y-133D01*
X2350D01*
X2367Y-150D01*
X1717Y-2342D02*
X1700Y-2325D01*
X1667D01*
X1650Y-2342D01*
Y-2408D01*
X1667Y-2425D01*
X1700D01*
X1717Y-2408D01*
X1817Y-2425D02*
X1750D01*
X1817Y-2358D01*
Y-2342D01*
X1800Y-2325D01*
X1767D01*
X1750Y-2342D01*
X1917Y-2425D02*
X1850D01*
X1917Y-2358D01*
Y-2342D01*
X1900Y-2325D01*
X1867D01*
X1850Y-2342D01*
X1867Y-283D02*
X1850Y-300D01*
Y-333D01*
X1867Y-350D01*
X1933D01*
X1950Y-333D01*
Y-300D01*
X1933Y-283D01*
X1950Y-183D02*
Y-250D01*
X1883Y-183D01*
X1867D01*
X1850Y-200D01*
Y-233D01*
X1867Y-250D01*
Y-150D02*
X1850Y-133D01*
Y-100D01*
X1867Y-83D01*
X1883D01*
X1900Y-100D01*
Y-117D01*
Y-100D01*
X1917Y-83D01*
X1933D01*
X1950Y-100D01*
Y-133D01*
X1933Y-150D01*
X1542Y-283D02*
X1525Y-300D01*
Y-333D01*
X1542Y-350D01*
X1608D01*
X1625Y-333D01*
Y-300D01*
X1608Y-283D01*
X1625Y-183D02*
Y-250D01*
X1558Y-183D01*
X1542D01*
X1525Y-200D01*
Y-233D01*
X1542Y-250D01*
X1625Y-100D02*
X1525D01*
X1575Y-150D01*
Y-83D01*
X1317Y-283D02*
X1300Y-300D01*
Y-333D01*
X1317Y-350D01*
X1383D01*
X1400Y-333D01*
Y-300D01*
X1383Y-283D01*
X1400Y-183D02*
Y-250D01*
X1333Y-183D01*
X1317D01*
X1300Y-200D01*
Y-233D01*
X1317Y-250D01*
X1300Y-83D02*
Y-150D01*
X1350D01*
X1333Y-117D01*
Y-100D01*
X1350Y-83D01*
X1383D01*
X1400Y-100D01*
Y-133D01*
X1383Y-150D01*
X2517Y-1292D02*
X2500Y-1275D01*
X2467D01*
X2450Y-1292D01*
Y-1358D01*
X2467Y-1375D01*
X2500D01*
X2517Y-1358D01*
X2617Y-1375D02*
X2550D01*
X2617Y-1308D01*
Y-1292D01*
X2600Y-1275D01*
X2567D01*
X2550Y-1292D01*
X2717Y-1275D02*
X2683Y-1292D01*
X2650Y-1325D01*
Y-1358D01*
X2667Y-1375D01*
X2700D01*
X2717Y-1358D01*
Y-1342D01*
X2700Y-1325D01*
X2650D01*
X2417Y-2133D02*
X2400Y-2150D01*
Y-2183D01*
X2417Y-2200D01*
X2483D01*
X2500Y-2183D01*
Y-2150D01*
X2483Y-2133D01*
X2500Y-2033D02*
Y-2100D01*
X2433Y-2033D01*
X2417D01*
X2400Y-2050D01*
Y-2083D01*
X2417Y-2100D01*
X2400Y-2000D02*
Y-1933D01*
X2417D01*
X2483Y-2000D01*
X2500D01*
X8092Y-3817D02*
X8075Y-3800D01*
X8042D01*
X8025Y-3817D01*
Y-3883D01*
X8042Y-3900D01*
X8075D01*
X8092Y-3883D01*
X8192Y-3900D02*
X8125D01*
X8192Y-3833D01*
Y-3817D01*
X8175Y-3800D01*
X8142D01*
X8125Y-3817D01*
X8225D02*
X8242Y-3800D01*
X8275D01*
X8292Y-3817D01*
Y-3833D01*
X8275Y-3850D01*
X8292Y-3867D01*
Y-3883D01*
X8275Y-3900D01*
X8242D01*
X8225Y-3883D01*
Y-3867D01*
X8242Y-3850D01*
X8225Y-3833D01*
Y-3817D01*
X8242Y-3850D02*
X8275D01*
X392Y-1792D02*
X375Y-1775D01*
X342D01*
X325Y-1792D01*
Y-1858D01*
X342Y-1875D01*
X375D01*
X392Y-1858D01*
X492Y-1875D02*
X425D01*
X492Y-1808D01*
Y-1792D01*
X475Y-1775D01*
X442D01*
X425Y-1792D01*
X525Y-1858D02*
X542Y-1875D01*
X575D01*
X592Y-1858D01*
Y-1792D01*
X575Y-1775D01*
X542D01*
X525Y-1792D01*
Y-1808D01*
X542Y-1825D01*
X592D01*
X2642Y-517D02*
X2625Y-500D01*
X2592D01*
X2575Y-517D01*
Y-583D01*
X2592Y-600D01*
X2625D01*
X2642Y-583D01*
X2742Y-500D02*
X2708Y-517D01*
X2675Y-550D01*
Y-583D01*
X2692Y-600D01*
X2725D01*
X2742Y-583D01*
Y-567D01*
X2725Y-550D01*
X2675D01*
X7367Y-1467D02*
X7350Y-1450D01*
X7317D01*
X7300Y-1467D01*
Y-1533D01*
X7317Y-1550D01*
X7350D01*
X7367Y-1533D01*
X7400D02*
X7417Y-1550D01*
X7450D01*
X7467Y-1533D01*
Y-1467D01*
X7450Y-1450D01*
X7417D01*
X7400Y-1467D01*
Y-1483D01*
X7417Y-1500D01*
X7467D01*
X3375Y-1025D02*
Y-925D01*
X3425D01*
X3442Y-942D01*
Y-975D01*
X3425Y-992D01*
X3375D01*
X3408D02*
X3442Y-1025D01*
X3475D02*
X3508D01*
X3492D01*
Y-925D01*
X3475Y-942D01*
X7950Y-525D02*
Y-425D01*
X8000D01*
X8017Y-442D01*
Y-475D01*
X8000Y-492D01*
X7950D01*
X7983D02*
X8017Y-525D01*
X8117D02*
X8050D01*
X8117Y-458D01*
Y-442D01*
X8100Y-425D01*
X8067D01*
X8050Y-442D01*
X7650Y-1000D02*
X7550D01*
Y-950D01*
X7567Y-933D01*
X7600D01*
X7617Y-950D01*
Y-1000D01*
Y-967D02*
X7650Y-933D01*
X7567Y-900D02*
X7550Y-883D01*
Y-850D01*
X7567Y-833D01*
X7583D01*
X7600Y-850D01*
Y-867D01*
Y-850D01*
X7617Y-833D01*
X7633D01*
X7650Y-850D01*
Y-883D01*
X7633Y-900D01*
X7650Y-1275D02*
X7550D01*
Y-1225D01*
X7567Y-1208D01*
X7600D01*
X7617Y-1225D01*
Y-1275D01*
Y-1242D02*
X7650Y-1208D01*
Y-1125D02*
X7550D01*
X7600Y-1175D01*
Y-1108D01*
X7650Y-1550D02*
X7550D01*
Y-1500D01*
X7567Y-1483D01*
X7600D01*
X7617Y-1500D01*
Y-1550D01*
Y-1517D02*
X7650Y-1483D01*
X7550Y-1383D02*
Y-1450D01*
X7600D01*
X7583Y-1417D01*
Y-1400D01*
X7600Y-1383D01*
X7633D01*
X7650Y-1400D01*
Y-1433D01*
X7633Y-1450D01*
X7650Y-1800D02*
X7550D01*
Y-1750D01*
X7567Y-1733D01*
X7600D01*
X7617Y-1750D01*
Y-1800D01*
Y-1767D02*
X7650Y-1733D01*
X7550Y-1633D02*
X7567Y-1667D01*
X7600Y-1700D01*
X7633D01*
X7650Y-1683D01*
Y-1650D01*
X7633Y-1633D01*
X7617D01*
X7600Y-1650D01*
Y-1700D01*
X3250Y-1675D02*
Y-1575D01*
X3300D01*
X3317Y-1592D01*
Y-1625D01*
X3300Y-1642D01*
X3250D01*
X3283D02*
X3317Y-1675D01*
X3350Y-1575D02*
X3417D01*
Y-1592D01*
X3350Y-1658D01*
Y-1675D01*
X7650Y-2050D02*
X7550D01*
Y-2000D01*
X7567Y-1983D01*
X7600D01*
X7617Y-2000D01*
Y-2050D01*
Y-2017D02*
X7650Y-1983D01*
X7567Y-1950D02*
X7550Y-1933D01*
Y-1900D01*
X7567Y-1883D01*
X7583D01*
X7600Y-1900D01*
X7617Y-1883D01*
X7633D01*
X7650Y-1900D01*
Y-1933D01*
X7633Y-1950D01*
X7617D01*
X7600Y-1933D01*
X7583Y-1950D01*
X7567D01*
X7600Y-1933D02*
Y-1900D01*
X7275Y-1350D02*
X7175D01*
Y-1300D01*
X7192Y-1283D01*
X7225D01*
X7242Y-1300D01*
Y-1350D01*
Y-1317D02*
X7275Y-1283D01*
X7258Y-1250D02*
X7275Y-1233D01*
Y-1200D01*
X7258Y-1183D01*
X7192D01*
X7175Y-1200D01*
Y-1233D01*
X7192Y-1250D01*
X7208D01*
X7225Y-1233D01*
Y-1183D01*
X7050Y-550D02*
Y-450D01*
X7100D01*
X7117Y-467D01*
Y-500D01*
X7100Y-517D01*
X7050D01*
X7083D02*
X7117Y-550D01*
X7150D02*
X7183D01*
X7167D01*
Y-450D01*
X7150Y-467D01*
X7233D02*
X7250Y-450D01*
X7283D01*
X7300Y-467D01*
Y-533D01*
X7283Y-550D01*
X7250D01*
X7233Y-533D01*
Y-467D01*
X6575Y-3200D02*
Y-3100D01*
X6625D01*
X6642Y-3117D01*
Y-3150D01*
X6625Y-3167D01*
X6575D01*
X6608D02*
X6642Y-3200D01*
X6675D02*
X6708D01*
X6692D01*
Y-3100D01*
X6675Y-3117D01*
X6758D02*
X6775Y-3100D01*
X6808D01*
X6825Y-3117D01*
Y-3133D01*
X6808Y-3150D01*
X6792D01*
X6808D01*
X6825Y-3167D01*
Y-3183D01*
X6808Y-3200D01*
X6775D01*
X6758Y-3183D01*
X3825Y-1125D02*
Y-1208D01*
X3842Y-1225D01*
X3875D01*
X3892Y-1208D01*
Y-1125D01*
X3925Y-1225D02*
X3958D01*
X3942D01*
Y-1125D01*
X3925Y-1142D01*
X6700Y-1400D02*
Y-1483D01*
X6717Y-1500D01*
X6750D01*
X6767Y-1483D01*
Y-1400D01*
X6867Y-1500D02*
X6800D01*
X6867Y-1433D01*
Y-1417D01*
X6850Y-1400D01*
X6817D01*
X6800Y-1417D01*
X6675Y-450D02*
Y-533D01*
X6692Y-550D01*
X6725D01*
X6742Y-533D01*
Y-450D01*
X6775Y-467D02*
X6792Y-450D01*
X6825D01*
X6842Y-467D01*
Y-483D01*
X6825Y-500D01*
X6808D01*
X6825D01*
X6842Y-517D01*
Y-533D01*
X6825Y-550D01*
X6792D01*
X6775Y-533D01*
X1050Y-1250D02*
Y-1333D01*
X1067Y-1350D01*
X1100D01*
X1117Y-1333D01*
Y-1250D01*
X1200Y-1350D02*
Y-1250D01*
X1150Y-1300D01*
X1217D01*
X7325Y-2675D02*
Y-2758D01*
X7342Y-2775D01*
X7375D01*
X7392Y-2758D01*
Y-2675D01*
X7492D02*
X7425D01*
Y-2725D01*
X7458Y-2708D01*
X7475D01*
X7492Y-2725D01*
Y-2758D01*
X7475Y-2775D01*
X7442D01*
X7425Y-2758D01*
X6075Y-2200D02*
X6142Y-2300D01*
Y-2200D02*
X6075Y-2300D01*
X6242D02*
X6175D01*
X6242Y-2233D01*
Y-2217D01*
X6225Y-2200D01*
X6192D01*
X6175Y-2217D01*
X2825Y-1225D02*
Y-1125D01*
X2875D01*
X2892Y-1142D01*
Y-1175D01*
X2875Y-1192D01*
X2825D01*
X2858D02*
X2892Y-1225D01*
X2925D02*
X2958D01*
X2942D01*
Y-1125D01*
X2925Y-1142D01*
X3008Y-1225D02*
X3042D01*
X3025D01*
Y-1125D01*
X3008Y-1142D01*
X8325Y-2550D02*
Y-2450D01*
X8375D01*
X8392Y-2467D01*
Y-2500D01*
X8375Y-2517D01*
X8325D01*
X8358D02*
X8392Y-2550D01*
X8425D02*
X8458D01*
X8442D01*
Y-2450D01*
X8425Y-2467D01*
X8575Y-2550D02*
X8508D01*
X8575Y-2483D01*
Y-2467D01*
X8558Y-2450D01*
X8525D01*
X8508Y-2467D01*
X540Y-1613D02*
X530Y-1617D01*
X521Y-1627D01*
X516Y-1636D01*
Y-1655D01*
X521Y-1665D01*
X530Y-1674D01*
X540Y-1679D01*
X554Y-1684D01*
X578D01*
X592Y-1679D01*
X602Y-1674D01*
X611Y-1665D01*
X616Y-1655D01*
Y-1636D01*
X611Y-1627D01*
X602Y-1617D01*
X592Y-1613D01*
X568Y-1585D02*
Y-1542D01*
X564Y-1527D01*
X559Y-1523D01*
X549Y-1518D01*
X535D01*
X526Y-1523D01*
X521Y-1527D01*
X516Y-1542D01*
Y-1585D01*
X616D01*
X516Y-1495D02*
X587D01*
X602Y-1491D01*
X611Y-1481D01*
X616Y-1467D01*
Y-1457D01*
X611Y-1443D01*
X602Y-1434D01*
X587Y-1429D01*
X516D01*
Y-1323D02*
X616D01*
X564D02*
X554Y-1313D01*
X549Y-1304D01*
Y-1289D01*
X554Y-1280D01*
X564Y-1270D01*
X578Y-1266D01*
X587D01*
X602Y-1270D01*
X611Y-1280D01*
X616Y-1289D01*
Y-1304D01*
X611Y-1313D01*
X602Y-1323D01*
X549Y-1220D02*
X554Y-1230D01*
X564Y-1239D01*
X578Y-1244D01*
X587D01*
X602Y-1239D01*
X611Y-1230D01*
X616Y-1220D01*
Y-1206D01*
X611Y-1196D01*
X602Y-1187D01*
X587Y-1182D01*
X578D01*
X564Y-1187D01*
X554Y-1196D01*
X549Y-1206D01*
Y-1220D01*
Y-1103D02*
X616D01*
X564D02*
X554Y-1113D01*
X549Y-1122D01*
Y-1137D01*
X554Y-1146D01*
X564Y-1156D01*
X578Y-1160D01*
X587D01*
X602Y-1156D01*
X611Y-1146D01*
X616Y-1137D01*
Y-1122D01*
X611Y-1113D01*
X602Y-1103D01*
X549Y-1077D02*
X616D01*
X578D02*
X564Y-1072D01*
X554Y-1062D01*
X549Y-1053D01*
Y-1038D01*
X516Y-972D02*
X616D01*
X564D02*
X554Y-982D01*
X549Y-991D01*
Y-1006D01*
X554Y-1015D01*
X564Y-1025D01*
X578Y-1029D01*
X587D01*
X602Y-1025D01*
X611Y-1015D01*
X616Y-1006D01*
Y-991D01*
X611Y-982D01*
X602Y-972D01*
X611Y-936D02*
X616Y-941D01*
X611Y-946D01*
X606Y-941D01*
X611Y-936D01*
X621D01*
X630Y-941D01*
X635Y-946D01*
X516Y-836D02*
X616Y-798D01*
X516Y-759D02*
X616Y-798D01*
X578Y-747D02*
Y-689D01*
X568D01*
X559Y-694D01*
X554Y-699D01*
X549Y-709D01*
Y-723D01*
X554Y-732D01*
X564Y-742D01*
X578Y-747D01*
X587D01*
X602Y-742D01*
X611Y-732D01*
X616Y-723D01*
Y-709D01*
X611Y-699D01*
X602Y-689D01*
X549Y-668D02*
X616D01*
X578D02*
X564Y-663D01*
X554Y-654D01*
X549Y-644D01*
Y-630D01*
X606Y-616D02*
X611Y-621D01*
X616Y-616D01*
X611Y-611D01*
X606Y-616D01*
X535Y-511D02*
X530Y-501D01*
X516Y-487D01*
X616D01*
X606Y-433D02*
X611Y-438D01*
X616Y-433D01*
X611Y-428D01*
X606Y-433D01*
X516Y-378D02*
X521Y-392D01*
X535Y-401D01*
X559Y-406D01*
X573D01*
X597Y-401D01*
X611Y-392D01*
X616Y-378D01*
Y-368D01*
X611Y-354D01*
X597Y-344D01*
X573Y-340D01*
X559D01*
X535Y-344D01*
X521Y-354D01*
X516Y-368D01*
Y-378D01*
X4986Y-105D02*
X5049D01*
X5015Y-151D01*
X5032D01*
X5044Y-156D01*
X5049Y-162D01*
X5055Y-179D01*
Y-191D01*
X5049Y-208D01*
X5038Y-219D01*
X5021Y-225D01*
X5004D01*
X4986Y-219D01*
X4981Y-214D01*
X4975Y-202D01*
X5088Y-214D02*
X5082Y-219D01*
X5088Y-225D01*
X5093Y-219D01*
X5088Y-214D01*
X5131Y-105D02*
X5194D01*
X5160Y-151D01*
X5177D01*
X5188Y-156D01*
X5194Y-162D01*
X5200Y-179D01*
Y-191D01*
X5194Y-208D01*
X5182Y-219D01*
X5165Y-225D01*
X5148D01*
X5131Y-219D01*
X5125Y-214D01*
X5120Y-202D01*
X5226Y-105D02*
X5272Y-225D01*
X5318Y-105D02*
X5272Y-225D01*
X5534Y-105D02*
X5517Y-111D01*
X5506Y-128D01*
X5500Y-156D01*
Y-174D01*
X5506Y-202D01*
X5517Y-219D01*
X5534Y-225D01*
X5546D01*
X5563Y-219D01*
X5574Y-202D01*
X5580Y-174D01*
Y-156D01*
X5574Y-128D01*
X5563Y-111D01*
X5546Y-105D01*
X5534D01*
X5607D02*
X5653Y-225D01*
X5698Y-105D02*
X5653Y-225D01*
X114Y-1923D02*
X102Y-1935D01*
X97Y-1952D01*
Y-1975D01*
X102Y-1992D01*
X114Y-2003D01*
X125D01*
X137Y-1998D01*
X142Y-1992D01*
X148Y-1980D01*
X160Y-1946D01*
X165Y-1935D01*
X171Y-1929D01*
X182Y-1923D01*
X200D01*
X211Y-1935D01*
X217Y-1952D01*
Y-1975D01*
X211Y-1992D01*
X200Y-2003D01*
X97Y-1879D02*
X194D01*
X211Y-1874D01*
X217Y-1862D01*
Y-1851D01*
X137Y-1896D02*
Y-1856D01*
Y-1765D02*
X217D01*
X154D02*
X142Y-1776D01*
X137Y-1788D01*
Y-1805D01*
X142Y-1816D01*
X154Y-1828D01*
X171Y-1834D01*
X182D01*
X200Y-1828D01*
X211Y-1816D01*
X217Y-1805D01*
Y-1788D01*
X211Y-1776D01*
X200Y-1765D01*
X137Y-1733D02*
X217D01*
X171D02*
X154Y-1727D01*
X142Y-1716D01*
X137Y-1704D01*
Y-1687D01*
X97Y-1659D02*
X194D01*
X211Y-1654D01*
X217Y-1642D01*
Y-1631D01*
X137Y-1676D02*
Y-1636D01*
X97Y-1602D02*
X102Y-1596D01*
X97Y-1591D01*
X91Y-1596D01*
X97Y-1602D01*
X137Y-1596D02*
X217D01*
X137Y-1570D02*
X217D01*
X160D02*
X142Y-1552D01*
X137Y-1541D01*
Y-1524D01*
X142Y-1512D01*
X160Y-1507D01*
X217D01*
X137Y-1407D02*
X228D01*
X245Y-1413D01*
X251Y-1418D01*
X257Y-1430D01*
Y-1447D01*
X251Y-1458D01*
X154Y-1407D02*
X142Y-1418D01*
X137Y-1430D01*
Y-1447D01*
X142Y-1458D01*
X154Y-1470D01*
X171Y-1475D01*
X182D01*
X200Y-1470D01*
X211Y-1458D01*
X217Y-1447D01*
Y-1430D01*
X211Y-1418D01*
X200Y-1407D01*
X97Y-1301D02*
Y-1375D01*
X217D01*
Y-1301D01*
X154Y-1375D02*
Y-1329D01*
X97Y-1281D02*
X217D01*
X171Y-1255D02*
Y-1187D01*
X160D01*
X148Y-1193D01*
X142Y-1198D01*
X137Y-1210D01*
Y-1227D01*
X142Y-1238D01*
X154Y-1250D01*
X171Y-1255D01*
X182D01*
X200Y-1250D01*
X211Y-1238D01*
X217Y-1227D01*
Y-1210D01*
X211Y-1198D01*
X200Y-1187D01*
X154Y-1093D02*
X142Y-1104D01*
X137Y-1115D01*
Y-1133D01*
X142Y-1144D01*
X154Y-1155D01*
X171Y-1161D01*
X182D01*
X200Y-1155D01*
X211Y-1144D01*
X217Y-1133D01*
Y-1115D01*
X211Y-1104D01*
X200Y-1093D01*
X97Y-1050D02*
X194D01*
X211Y-1044D01*
X217Y-1033D01*
Y-1021D01*
X137Y-1067D02*
Y-1027D01*
Y-1004D02*
X217D01*
X171D02*
X154Y-998D01*
X142Y-987D01*
X137Y-975D01*
Y-958D01*
Y-919D02*
X142Y-930D01*
X154Y-942D01*
X171Y-947D01*
X182D01*
X200Y-942D01*
X211Y-930D01*
X217Y-919D01*
Y-902D01*
X211Y-890D01*
X200Y-879D01*
X182Y-873D01*
X171D01*
X154Y-879D01*
X142Y-890D01*
X137Y-902D01*
Y-919D01*
Y-847D02*
X217D01*
X160D02*
X142Y-830D01*
X137Y-818D01*
Y-801D01*
X142Y-790D01*
X160Y-784D01*
X217D01*
X97Y-741D02*
X102Y-736D01*
X97Y-730D01*
X91Y-736D01*
X97Y-741D01*
X137Y-736D02*
X217D01*
X154Y-640D02*
X142Y-652D01*
X137Y-663D01*
Y-680D01*
X142Y-692D01*
X154Y-703D01*
X171Y-709D01*
X182D01*
X200Y-703D01*
X211Y-692D01*
X217Y-680D01*
Y-663D01*
X211Y-652D01*
X200Y-640D01*
X154Y-552D02*
X142Y-557D01*
X137Y-574D01*
Y-592D01*
X142Y-609D01*
X154Y-614D01*
X165Y-609D01*
X171Y-597D01*
X177Y-569D01*
X182Y-557D01*
X194Y-552D01*
X200D01*
X211Y-557D01*
X217Y-574D01*
Y-592D01*
X211Y-609D01*
X200Y-614D01*
X205Y-521D02*
X211Y-526D01*
X217Y-521D01*
X211Y-515D01*
X205Y-521D01*
X154Y-420D02*
X142Y-432D01*
X137Y-443D01*
Y-460D01*
X142Y-472D01*
X154Y-483D01*
X171Y-489D01*
X182D01*
X200Y-483D01*
X211Y-472D01*
X217Y-460D01*
Y-443D01*
X211Y-432D01*
X200Y-420D01*
X137Y-366D02*
X142Y-377D01*
X154Y-389D01*
X171Y-394D01*
X182D01*
X200Y-389D01*
X211Y-377D01*
X217Y-366D01*
Y-349D01*
X211Y-337D01*
X200Y-326D01*
X182Y-320D01*
X171D01*
X154Y-326D01*
X142Y-337D01*
X137Y-349D01*
Y-366D01*
Y-294D02*
X217D01*
X160D02*
X142Y-277D01*
X137Y-265D01*
Y-248D01*
X142Y-237D01*
X160Y-231D01*
X217D01*
X160D02*
X142Y-214D01*
X137Y-202D01*
Y-185D01*
X142Y-174D01*
X160Y-168D01*
X217D01*
D44*
X457Y-2580D02*
D03*
D45*
X7783Y-3658D02*
D03*
M02*
