/* XPM */
static char * breaker_closed_xpm[] = {
"71 63 2 1",
" 	c None",
".	c #000000",
"                                                                       ",
"                                                                       ",
"                                                                       ",
"                              .....                                    ",
"                            .........                                  ",
"                           ...........                                 ",
"                          .............                                ",
"                         ...............                               ",
"                         ...............                               ",
"                         ...............                               ",
"                         ...............                               ",
"                         ...............                               ",
"                          .............                                ",
"                           ...........                                 ",
"                            .........                                  ",
"                              .....                                    ",
"                               ...                                     ",
"                               ...                                     ",
"                               ...                                     ",
"                               ...                                     ",
"                               ...                                     ",
"                               ...                                     ",
"                               ...                                     ",
"                               ...                                     ",
"                               ...                                     ",
"                               ...                                     ",
"                               ...                                     ",
"                               ...                                     ",
"                               ...                                     ",
"                               ...                                     ",
"                               ...                                     ",
"                               ...                                     ",
"                               ...                                     ",
"                               ...                                     ",
"                               ...                                     ",
"                               ...                                     ",
"                               ...                                     ",
"                               ...                                     ",
"                               ...                                     ",
"                               ...                                     ",
"                               ...                                     ",
"                              .....                                    ",
"                            .........                                  ",
"                           ...........                                 ",
"                          .............                                ",
"                         ...............                               ",
"                         ...............                               ",
"                         ...............                               ",
"                         ...............                               ",
"                         ...............                               ",
"                          .............                                ",
"                           ...........                                 ",
"                            .........                                  ",
"                              .....                                    ",
"                                                                       ",
"                                                                       ",
"                                                                       ",
"                                                                       ",
"                                                                       ",
"                                                                       ",
"                                                                       ",
"                                                                       ",
"                                                                       "};
