/* XPM */
static const char *before[]={
"16 13 3 1",
". c #bfc2bf",
"a c #000000",
"# c None",
"........####....",
"###############.",
"#########a######",
"########aa#####.",
"#######aaa#####.",
"######aaaa#####.",
"#####aaaaa######",
"######aaaa######",
"#######aaa######",
"########aa#####.",
"#########a#####.",
"############....",
"#############..."};
