/* XPM */
static const char *update[]={
"16 13 3 1",
". c #bfc2bf",
"a c #008000",
"# c None",
"........####....",
"###############.",
"################",
"############a##.",
"###########aa##.",
"##########aa###.",
"####aa###aa#####",
"#####aa#aa######",
"######aaa#######",
"#######a#######.",
"###############.",
"#############...",
"#############..."};
